<svg width="81" height="80" viewBox="0 0 81 80" fill="none" xmlns="http://www.w3.org/2000/svg">
<path fill-rule="evenodd" clip-rule="evenodd" d="M15.3616 36.8589C16.7549 24.2587 27.4375 14.4584 40.4091 14.4584C53.3807 14.4584 64.0633 24.2587 65.4565 36.8589H76.7049C75.2747 18.0634 59.5709 3.25781 40.4091 3.25781C21.2473 3.25781 5.54345 18.0634 4.11328 36.8589H15.3616ZM15.832 45.2593H4.43515C7.12863 62.7051 22.2091 76.0617 40.4091 76.0617C58.6091 76.0617 73.6895 62.7051 76.383 45.2593H64.9861C62.4397 56.4826 52.4029 64.8611 40.4091 64.8611C28.4153 64.8611 18.3784 56.4826 15.832 45.2593Z" fill="url(#paint0_linear_1947_3244)"/>
<defs>
<linearGradient id="paint0_linear_1947_3244" x1="9.6074" y1="39.6598" x2="71.2107" y2="39.6598" gradientUnits="userSpaceOnUse">
<stop/>
<stop offset="1" stop-color="white"/>
</linearGradient>
</defs>
</svg>
