<svg width="101" height="100" viewBox="0 0 101 100" fill="none" xmlns="http://www.w3.org/2000/svg">
<g clip-path="url(#clip0_1947_3179)">
<mask id="mask0_1947_3179" style="mask-type:luminance" maskUnits="userSpaceOnUse" x="0" y="0" width="101" height="100">
<path d="M100.5 0H0.5V100H100.5V0Z" fill="white"/>
</mask>
<g mask="url(#mask0_1947_3179)">
<path d="M38.504 45.4345C38.6066 45.4721 38.7091 45.5066 38.8113 45.5382L40.5172 47.6388C40.8077 50.7111 43.3592 53.2949 46.7049 53.2949C50.2613 53.2949 52.92 50.3754 52.92 47.0531V40.6372C52.92 35.5454 48.8553 31.1875 43.5763 31.1875C39.5411 31.1875 36.04 33.7951 34.7541 37.5232L34.753 37.5261C33.6722 40.6605 35.2254 44.2391 38.504 45.4345ZM42.043 35.7139C42.0462 35.715 42.0494 35.7162 42.0526 35.7174C42.0561 35.7186 42.0595 35.7199 42.063 35.7212L42.043 35.7139Z" fill="white"/>
<path d="M60.7147 47.6388C60.4239 50.7128 57.8705 53.2949 54.5266 53.2949C50.9694 53.2949 48.3115 50.3746 48.3115 47.0531V40.6372C48.3115 35.5453 52.3765 31.1875 57.6552 31.1875C61.6912 31.1875 65.1912 33.7954 66.4774 37.5221C66.4774 37.5227 66.478 37.5234 66.478 37.5241L60.7147 47.6388ZM60.7147 47.6388L62.4205 45.5382ZM60.7147 47.6388L62.4205 45.5382ZM62.4205 45.5382C62.5228 45.5066 62.6251 45.472 62.728 45.4345C66.0084 44.2384 67.559 40.6581 66.4785 37.5252L62.4205 45.5382ZM59.1693 35.7209C59.1728 35.7197 59.1762 35.7184 59.1797 35.7172C59.1826 35.7161 59.1854 35.715 59.1883 35.714L59.1693 35.7209Z" fill="white"/>
<path d="M33.1486 82.1665C42.462 82.1665 49.7922 74.4619 49.7922 65.232C49.7922 56.002 42.4621 48.2969 33.1486 48.2969C23.8349 48.2969 16.5049 56.002 16.5049 65.232C16.5049 74.4619 23.8351 82.1665 33.1486 82.1665Z" fill="white"/>
<path d="M43.5518 51.3304H57.6791L57.8152 51.3281C56.0968 53.3662 55.0306 56.2074 55.0306 59.3503V63.0928H46.2007V59.3503C46.2007 56.2074 45.1344 53.3662 43.416 51.3281" fill="white"/>
<mask id="mask1_1947_3179" style="mask-type:luminance" maskUnits="userSpaceOnUse" x="32" y="40" width="37" height="34">
<path d="M68.704 40.4082H32.4971V73.7415H68.704V40.4082Z" fill="white"/>
<path d="M43.5527 51.3294H57.68L57.8161 51.3271C56.0978 53.3652 55.0315 56.2065 55.0315 59.3493V63.0918H46.2016V59.3493C46.2016 56.2065 45.1354 53.3652 43.417 51.3271" fill="black"/>
</mask>
<g mask="url(#mask1_1947_3179)">
<path d="M43.5531 40.9849C37.8398 40.9849 33.2083 45.6164 33.2083 51.3297C33.2083 57.043 37.8398 61.6743 43.5531 61.6743V40.9849ZM57.6804 51.3297V61.6743C57.7377 61.6743 57.795 61.6743 57.8522 61.6731L57.6804 51.3297ZM57.8165 51.3274L65.7252 57.9955C68.3396 54.8949 68.9011 50.5524 67.1608 46.8889C65.4206 43.2253 61.6999 40.9167 57.6446 40.9841L57.8165 51.3274ZM55.0319 63.0921V73.4369C60.7453 73.4369 65.3769 68.8053 65.3769 63.0921H55.0319ZM46.202 63.0921H35.8572C35.8572 68.8053 40.4887 73.4369 46.202 73.4369V63.0921ZM51.3261 44.6591C47.6433 40.2912 41.1169 39.7359 36.7489 43.4187C32.3811 47.1015 31.8257 53.628 35.5086 57.9955L51.3261 44.6591ZM43.5531 61.6743H57.6804V40.9849H43.5531V61.6743ZM57.8522 61.6731L57.9884 61.6708L57.6446 40.9841L57.5085 40.9863L57.8522 61.6731ZM49.9076 44.6592C46.5265 48.6694 44.687 53.9091 44.687 59.3496H65.3769C65.3769 58.5042 65.67 58.0616 65.7252 57.9955L49.9076 44.6592ZM44.687 59.3496V63.0921H65.3769V59.3496H44.687ZM55.0319 52.7473H46.202V73.4369H55.0319V52.7473ZM56.5468 63.0921V59.3496H35.8572V63.0921H56.5468ZM56.5468 59.3496C56.5468 53.9089 54.7073 48.6692 51.3261 44.6591L35.5086 57.9955C35.5641 58.0616 35.8572 58.5047 35.8572 59.3496H56.5468Z" fill="white"/>
</g>
<path d="M36.5381 72.543C41.8199 72.543 45.8819 68.1896 45.8819 63.093C45.8819 57.9971 41.82 53.6436 36.5381 53.6436C31.2563 53.6436 27.1943 57.9971 27.1943 63.093C27.1943 68.1896 31.2563 72.543 36.5381 72.543Z" fill="white"/>
<path d="M68.0833 82.1665C77.3965 82.1665 84.7264 74.4619 84.7264 65.232C84.7264 56.002 77.3971 48.2969 68.0833 48.2969C58.7689 48.2969 51.4395 56.002 51.4395 65.232C51.4395 74.4619 58.7695 82.1665 68.0833 82.1665Z" fill="white"/>
<path d="M71.4296 72.543C76.7124 72.543 80.7733 68.189 80.7733 63.093C80.7733 57.9976 76.7124 53.6436 71.4296 53.6436C66.148 53.6436 62.0859 57.9971 62.0859 63.093C62.0859 68.1896 66.148 72.543 71.4296 72.543Z" fill="white"/>
<path d="M63.0884 49.1919C63.0884 46.3353 60.7723 44.0195 57.916 44.0195H43.5767C40.72 44.0195 38.4043 46.3353 38.4043 49.1919V51.3306C38.4043 54.1872 40.72 56.503 43.5767 56.503H57.916C60.7723 56.503 63.0884 54.1872 63.0884 51.3306V49.1919Z" fill="white"/>
<path d="M52.8161 67.3311C52.8308 67.2133 52.8415 67.0949 52.8481 66.9765L52.9132 65.803C52.9186 65.7076 52.9212 65.6121 52.9212 65.5162V64.734C52.9212 64.5909 52.9152 64.4478 52.9033 64.3047L52.856 63.7363C52.8452 60.8892 50.5336 58.584 47.6836 58.584H47.2925C44.4359 58.584 42.1201 60.8995 42.1201 63.7564V68.7748C42.1201 71.3869 44.0676 73.5892 46.6601 73.9087C49.2526 74.2277 51.6764 72.5644 52.3103 70.03L52.4407 69.5093L52.441 69.5081L52.5713 68.9863C52.6218 68.7846 52.66 68.58 52.6858 68.3736L52.8161 67.3311Z" fill="white"/>
<path d="M31.8441 35.3596C30.806 35.7272 29.7664 35.8238 28.7253 35.6497C27.6805 35.465 26.749 35.0338 25.9308 34.3558C25.1193 33.6638 24.5204 32.7725 24.1343 31.682C23.7482 30.5914 23.6545 29.5272 23.8533 28.4891C24.059 27.4369 24.5116 26.5155 25.2111 25.725C25.9106 24.9345 26.7794 24.3554 27.8175 23.9879C28.866 23.6166 29.9056 23.5199 30.9363 23.6977C31.9774 23.8719 32.9036 24.3051 33.7151 24.9972C34.5229 25.6788 35.1198 26.5648 35.506 27.6553C35.8921 28.7458 35.9876 29.8154 35.7925 30.8639C35.5937 31.9019 35.1463 32.8215 34.4505 33.6225C33.751 34.413 32.8822 34.9921 31.8441 35.3596ZM30.8305 32.497C31.617 32.2185 32.1446 31.7426 32.4136 31.0691C32.693 30.3919 32.6805 29.6234 32.376 28.7637C32.0641 27.8829 31.5885 27.2725 30.9489 26.9325C30.316 26.5784 29.6064 26.5405 28.8199 26.819C28.0231 27.1011 27.4901 27.579 27.2212 28.2525C26.9485 28.9154 26.9681 29.6873 27.28 30.5681C27.5882 31.4384 28.0587 32.0506 28.6914 32.4048C29.3206 32.7484 30.0336 32.7792 30.8305 32.497Z" fill="white"/>
<path d="M44.9332 32.18L42.0385 28.1928L41.6913 28.2397L42.2709 32.539L39.03 32.976L37.458 21.3182L42.5675 20.6293C43.5046 20.5029 44.3207 20.5613 45.0156 20.8042C45.7091 21.0363 46.2599 21.4166 46.6679 21.9452C47.0744 22.4629 47.3253 23.0744 47.4204 23.78C47.5274 24.5737 47.4013 25.3034 47.0421 25.9692C46.6925 26.6225 46.1158 27.1324 45.3122 27.4988L48.5546 31.6917L44.9332 32.18ZM41.3925 26.0238L42.9965 25.8076C43.4374 25.7481 43.754 25.5988 43.9462 25.3597C44.1385 25.1205 44.2078 24.8025 44.1543 24.4056C44.1038 24.0307 43.9486 23.7542 43.6889 23.576C43.4387 23.3853 43.0986 23.3188 42.6686 23.3768L41.0647 23.5931L41.3925 26.0238Z" fill="white"/>
<path d="M60.4534 32.3493L57.1901 32.1302L53.2854 25.2793L52.8449 31.8387L49.582 31.6197L50.3698 19.8828L53.6326 20.1018L57.5323 27.036L57.9775 20.3934L61.2408 20.6125L60.4534 32.3493Z" fill="white"/>
<path d="M43.5773 36.3604C41.8134 36.3604 40.2318 37.5064 39.6442 39.2117C39.4517 39.7683 39.7358 40.3797 40.2797 40.5766C40.636 40.7078 41.0089 40.6088 41.2827 40.3759L45.663 45.7694V47.0536C45.663 47.6441 46.1293 48.1229 46.7058 48.1229C47.2822 48.1229 47.7486 47.6441 47.7486 47.0536V40.6377C47.7486 38.2791 45.8778 36.3604 43.5773 36.3604Z" fill="#D09999"/>
<path d="M40.4482 38.499C38.5367 38.499 36.7301 39.2514 35.3217 40.6612L21.9512 55.6284L23.4889 57.0726L23.8502 56.668L45.6624 62.8001V63.0932C45.6624 63.684 46.1289 64.1627 46.7053 64.1627C47.2817 64.1627 47.7481 63.684 47.7481 63.0932V45.9843C47.7481 41.8568 44.473 38.499 40.4482 38.499Z" fill="#FACCCC"/>
<path d="M57.6556 36.3604C59.4198 36.3604 61.0008 37.5064 61.5887 39.2117C61.7813 39.7683 61.4974 40.3797 60.9537 40.5766C60.5968 40.7078 60.2238 40.6088 59.9502 40.3759L55.5702 45.7694V47.0536C55.5702 47.6441 55.1035 48.1229 54.5271 48.1229C53.9506 48.1229 53.4844 47.6441 53.4844 47.0536V40.6377C53.4844 38.2791 55.3554 36.3604 57.6556 36.3604Z" fill="#D09999"/>
<path d="M60.7841 38.499C62.6956 38.499 64.502 39.2514 65.9112 40.6612L79.2813 55.6286L77.7433 57.0728L77.3824 56.6682L55.5702 62.8001V63.0932C55.5702 63.684 55.1035 64.1627 54.5271 64.1627C53.9506 64.1627 53.4844 63.684 53.4844 63.0932V45.9843C53.4844 41.8568 56.7596 38.499 60.7841 38.499Z" fill="#FACCCC"/>
<path d="M33.149 76.9936C39.4843 76.9936 44.6202 71.7275 44.6202 65.2315C44.6202 58.735 39.4843 53.4688 33.149 53.4688C26.8136 53.4688 21.6777 58.735 21.6777 65.2315C21.6777 71.7275 26.8136 76.9936 33.149 76.9936Z" fill="#E4FAFF"/>
<path d="M33.1486 50.2607C25.0981 50.2607 18.5488 56.9763 18.5488 65.2315C18.5488 73.4861 25.0981 80.2016 33.1486 80.2016C41.199 80.2016 47.7483 73.4861 47.7483 65.2315C47.7483 56.9763 41.199 50.2607 33.1486 50.2607ZM33.1486 75.9246C27.3985 75.9246 22.7201 71.1275 22.7201 65.2315C22.7201 59.3355 27.3985 54.538 33.1486 54.538C38.8987 54.538 43.5769 59.3355 43.5769 65.2315C43.5769 71.1275 38.8987 75.9246 33.1486 75.9246Z" fill="#E95755"/>
<path d="M43.5518 51.3304H57.6791L57.8152 51.3281C56.0968 53.3662 55.0306 56.2074 55.0306 59.3503V63.0928H46.2007V59.3503C46.2007 56.2074 45.1344 53.3662 43.416 51.3281" fill="#D09999"/>
<path d="M36.5386 67.371C38.8424 67.371 40.7099 65.4561 40.7099 63.0934C40.7099 60.7313 38.8424 58.8164 36.5386 58.8164C34.2348 58.8164 32.3672 60.7313 32.3672 63.0934C32.3672 65.4561 34.2348 67.371 36.5386 67.371Z" fill="white"/>
<path d="M68.0847 76.9936C74.4198 76.9936 79.5554 71.7275 79.5554 65.2315C79.5554 58.735 74.4198 53.4688 68.0847 53.4688C61.7491 53.4688 56.6133 58.735 56.6133 65.2315C56.6133 71.7275 61.7491 76.9936 68.0847 76.9936Z" fill="#E4FAFF"/>
<path d="M68.0841 50.2617C60.0341 50.2617 53.4844 56.9773 53.4844 65.2325C53.4844 73.4871 60.0341 80.2026 68.0841 80.2026C76.1347 80.2026 82.6841 73.4871 82.6841 65.2325C82.6841 56.9773 76.1347 50.2617 68.0841 50.2617ZM68.0841 75.9256C62.3341 75.9256 57.6556 71.1284 57.6556 65.2325C57.6556 59.3365 62.3341 54.539 68.0841 54.539C73.8347 54.539 78.5129 59.3365 78.5129 65.2325C78.5129 71.1284 73.8347 75.9256 68.0841 75.9256Z" fill="#FACCCC"/>
<path d="M33.1486 50.2607C25.0981 50.2607 18.5488 56.9763 18.5488 65.2315C18.5488 73.4861 25.0981 80.2016 33.1486 80.2016C41.199 80.2016 47.7483 73.4861 47.7483 65.2315C47.7483 56.9763 41.199 50.2607 33.1486 50.2607ZM33.1486 75.9246C27.3985 75.9246 22.7201 71.1275 22.7201 65.2315C22.7201 59.3355 27.3985 54.538 33.1486 54.538C38.8987 54.538 43.5769 59.3355 43.5769 65.2315C43.5769 71.1275 38.8987 75.9246 33.1486 75.9246Z" fill="#FACCCC"/>
<path d="M71.4291 67.371C73.7331 67.371 75.6003 65.4561 75.6003 63.0934C75.6003 60.7313 73.7331 58.8164 71.4291 58.8164C69.1256 58.8164 67.2578 60.7313 67.2578 63.0934C67.2578 65.4561 69.1256 67.371 71.4291 67.371Z" fill="white"/>
<path d="M57.9164 49.1914H43.5771V51.33H57.9164V49.1914Z" fill="#FACCCC"/>
<path d="M40.0135 59.8907C39.3545 58.6821 38.4485 57.7625 37.2953 57.1311C36.1421 56.4996 34.7968 56.1839 33.2593 56.1839C31.557 56.1839 30.0469 56.5682 28.729 57.337C27.4111 58.1056 26.3815 59.2039 25.6402 60.6315C24.8989 62.0597 24.5282 63.7068 24.5282 65.574C24.5282 67.4959 24.8989 69.1706 25.6402 70.5987C26.4089 72.0258 27.466 73.1246 28.8113 73.893C30.1567 74.662 31.7217 75.0459 33.5063 75.0459C35.7029 75.0459 37.5012 74.4694 38.9014 73.3166C40.3018 72.1361 41.2215 70.5022 41.6608 68.416H31.7766V64.0091H47.3443V69.0332C46.9599 71.0378 46.1362 72.8913 44.8732 74.593C43.6102 76.2953 41.9766 77.6683 39.9723 78.7114C37.9955 79.7275 35.7715 80.2355 33.3005 80.2355C30.5274 80.2355 28.0151 79.6177 25.7637 78.3821C23.5398 77.1188 21.7826 75.3758 20.4921 73.1516C19.2292 70.9281 18.5977 68.4022 18.5977 65.574C18.5977 62.7459 19.2292 60.22 20.4921 57.9959C21.7826 55.7445 23.5398 54.0011 25.7637 52.7656C28.0151 51.5026 30.5136 50.8711 33.2593 50.8711C36.4991 50.8711 39.3133 51.6674 41.702 53.2598C44.0907 54.8248 45.7381 57.035 46.6441 59.8907H40.0135Z" fill="#E95755"/>
<path d="M67.9363 80.2771C65.2455 80.2771 62.7749 79.6455 60.5231 78.3823C58.272 77.119 56.487 75.3759 55.169 73.1518C53.8514 70.9001 53.1924 68.3604 53.1924 65.5328C53.1924 62.7323 53.8514 60.2202 55.169 57.9961C56.487 55.7447 58.272 53.9876 60.5231 52.7246C62.7749 51.4616 65.2455 50.8301 67.9363 50.8301C70.6542 50.8301 73.1254 51.4616 75.3496 52.7246C77.6007 53.9876 79.372 55.7447 80.6622 57.9961C81.98 60.2202 82.6392 62.7323 82.6392 65.5328C82.6392 68.3604 81.98 70.9001 80.6622 73.1518C79.372 75.3759 77.6007 77.119 75.3496 78.3823C73.0978 79.6455 70.6271 80.2771 67.9363 80.2771ZM67.9363 75.1288C69.6657 75.1288 71.1898 74.7443 72.5076 73.9754C73.8254 73.1794 74.8547 72.0535 75.5967 70.5989C76.3375 69.1432 76.7082 67.4547 76.7082 65.5328C76.7082 63.611 76.3375 61.9363 75.5967 60.5081C74.8547 59.0535 73.8254 57.9415 72.5076 57.1725C71.1898 56.4037 69.6657 56.0193 67.9363 56.0193C66.2065 56.0193 64.6691 56.4037 63.3237 57.1725C62.0059 57.9415 60.976 59.0535 60.2352 60.5081C59.4932 61.9363 59.1226 63.611 59.1226 65.5328C59.1226 67.4547 59.4932 69.1432 60.2352 70.5989C60.976 72.0535 62.0059 73.1794 63.3237 73.9754C64.6691 74.7443 66.2065 75.1288 67.9363 75.1288Z" fill="#E95755"/>
<path d="M47.6841 66.6892L47.5537 67.7317L47.4234 68.253L47.293 68.7743V63.7559H47.6841V63.9513L47.7492 64.7334V65.5156L47.6841 66.6892Z" fill="#E95755"/>
<path d="M13.6349 37.9352C13.0315 36.9482 12.6989 35.9455 12.6371 34.9273C12.5789 33.8937 12.7989 32.9314 13.2971 32.0402C13.7895 31.1395 14.5292 30.3874 15.5162 29.784C16.769 29.0182 18.0285 28.7111 19.2946 28.8628C20.5549 29.005 21.6593 29.5749 22.6081 30.5724L19.6043 32.4086C19.1919 32.1393 18.7635 32.0036 18.3189 32.0016C17.8839 31.9936 17.4576 32.1174 17.04 32.3726C16.3946 32.7672 16.0195 33.3159 15.9147 34.0189C15.8135 34.7064 15.9979 35.4346 16.4679 36.2034C16.9436 36.9816 17.5135 37.4872 18.1774 37.7202C18.845 37.9379 19.5014 37.8495 20.1469 37.455C20.5645 37.1997 20.8689 36.8767 21.0603 36.4859C21.2611 36.0893 21.3357 35.6461 21.2839 35.1563L24.2877 33.3199C24.743 34.6193 24.7495 35.8668 24.3073 37.0628C23.8592 38.2493 23.0088 39.2255 21.756 39.9914C20.7689 40.5947 19.7653 40.915 18.7449 40.952C17.7188 40.9795 16.762 40.7366 15.8744 40.2232C14.9906 39.6944 14.2441 38.9317 13.6349 37.9352Z" fill="#E95755"/>
<path d="M31.8441 35.3596C30.806 35.7272 29.7664 35.8238 28.7253 35.6497C27.6805 35.465 26.749 35.0338 25.9308 34.3558C25.1193 33.6638 24.5204 32.7725 24.1343 31.682C23.7482 30.5914 23.6545 29.5272 23.8533 28.4891C24.059 27.4369 24.5116 26.5155 25.2111 25.725C25.9106 24.9345 26.7794 24.3554 27.8175 23.9879C28.866 23.6166 29.9056 23.5199 30.9363 23.6977C31.9774 23.8719 32.9036 24.3051 33.7151 24.9972C34.5229 25.6788 35.1198 26.5648 35.506 27.6553C35.8921 28.7458 35.9876 29.8154 35.7925 30.8639C35.5937 31.9019 35.1463 32.8215 34.4505 33.6225C33.751 34.413 32.8822 34.9921 31.8441 35.3596ZM30.8305 32.497C31.617 32.2185 32.1446 31.7426 32.4136 31.0691C32.693 30.3919 32.6805 29.6234 32.376 28.7637C32.0641 27.8829 31.5885 27.2725 30.9489 26.9325C30.316 26.5784 29.6064 26.5405 28.8199 26.819C28.0231 27.1011 27.4901 27.579 27.2212 28.2525C26.9485 28.9154 26.9681 29.6873 27.28 30.5681C27.5882 31.4384 28.0587 32.0506 28.6914 32.4048C29.3206 32.7484 30.0336 32.7792 30.8305 32.497Z" fill="#E95755"/>
<path d="M44.9332 32.18L42.0385 28.1928L41.6913 28.2397L42.2709 32.539L39.03 32.976L37.458 21.3182L42.5675 20.6293C43.5046 20.5029 44.3207 20.5613 45.0156 20.8042C45.7091 21.0363 46.2599 21.4166 46.6679 21.9452C47.0744 22.4629 47.3253 23.0744 47.4204 23.78C47.5274 24.5737 47.4013 25.3034 47.0421 25.9692C46.6925 26.6225 46.1158 27.1324 45.3122 27.4988L48.5546 31.6917L44.9332 32.18ZM41.3925 26.0238L42.9965 25.8076C43.4374 25.7481 43.754 25.5988 43.9462 25.3597C44.1385 25.1205 44.2078 24.8025 44.1543 24.4056C44.1038 24.0307 43.9486 23.7542 43.6889 23.576C43.4387 23.3853 43.0986 23.3188 42.6686 23.3768L41.0647 23.5931L41.3925 26.0238Z" fill="#E95755"/>
<path d="M60.4534 32.3493L57.1901 32.1302L53.2854 25.2793L52.8449 31.8387L49.582 31.6197L50.3698 19.8828L53.6326 20.1018L57.5323 27.036L57.9775 20.3934L61.2408 20.6125L60.4534 32.3493Z" fill="#E95755"/>
<path d="M67.7676 24.7888L67.2768 26.6438L70.9061 27.604L70.2705 30.0074L66.6411 29.0473L66.0992 31.0958L70.2124 32.1841L69.5423 34.7165L62.2676 32.7919L65.2762 21.4199L72.5509 23.3446L71.8808 25.877L67.7676 24.7888Z" fill="#E95755"/>
<path d="M75.5279 34.4635L78.8692 35.9426L77.856 38.2312L71.5244 35.4283L76.2859 24.6719L79.2767 25.9957L75.5279 34.4635Z" fill="#E95755"/>
<path d="M83.5638 38.7443L86.6454 40.7087L85.2994 42.8191L79.4609 39.0968L85.7845 29.1777L88.542 30.9357L83.5638 38.7443Z" fill="#E95755"/>
</g>
</g>
<defs>
<clipPath id="clip0_1947_3179">
<rect width="100" height="100" fill="white" transform="translate(0.5)"/>
</clipPath>
</defs>
</svg>
