<svg width="185" height="100" viewBox="0 0 185 100" fill="none" xmlns="http://www.w3.org/2000/svg">
<path d="M78.1137 86.0542C77.7066 87.4257 77.0637 88.5721 76.1851 89.4936C75.3066 90.415 74.2673 91.1007 73.0672 91.5507C71.8672 92.0007 70.5494 92.2257 69.1136 92.2257C67.0136 92.2257 65.1921 91.7864 63.6493 90.9079C62.1278 90.0293 60.9492 88.7757 60.1135 87.1471C59.2992 85.5185 58.8921 83.5685 58.8921 81.297C58.8921 79.0256 59.2992 77.0755 60.1135 75.447C60.9492 73.8184 62.1278 72.5648 63.6493 71.6862C65.1921 70.8076 66.9922 70.3683 69.0493 70.3683C70.5065 70.3683 71.8244 70.5719 73.003 70.979C74.1815 71.3648 75.178 71.9648 75.9923 72.7791C76.828 73.5934 77.4387 74.6219 77.8244 75.8648L73.8065 77.5684C73.4422 76.2827 72.8851 75.372 72.1351 74.8362C71.3851 74.2791 70.4208 74.0005 69.2422 74.0005C68.085 74.0005 67.0672 74.2791 66.1886 74.8362C65.3314 75.3934 64.6671 76.2184 64.1957 77.3113C63.7243 78.3827 63.4886 79.7113 63.4886 81.297C63.4886 82.8613 63.7028 84.1899 64.1314 85.2828C64.5814 86.3757 65.235 87.2007 66.0922 87.7578C66.9493 88.315 67.9993 88.5935 69.2422 88.5935C70.3993 88.5935 71.3958 88.2828 72.2315 87.6614C73.0887 87.04 73.6887 86.0971 74.0315 84.8328L78.1137 86.0542ZM99.6053 70.6898V83.5471C99.6053 86.4399 98.8338 88.615 97.2909 90.0721C95.7481 91.5079 93.498 92.2257 90.5409 92.2257C87.5837 92.2257 85.3337 91.5079 83.7908 90.0721C82.2479 88.615 81.4765 86.4399 81.4765 83.5471V70.6898H85.9122V83.3542C85.9122 85.1328 86.2872 86.4507 87.0372 87.3078C87.8087 88.165 88.9766 88.5935 90.5409 88.5935C92.1052 88.5935 93.2623 88.165 94.0123 87.3078C94.7623 86.4507 95.1373 85.1328 95.1373 83.3542V70.6898H99.6053ZM122.348 91.9043H117.752L115.984 86.7292H107.852L106.084 91.9043H101.551L109.298 70.6898H114.602L122.348 91.9043ZM108.848 83.4506H114.987L111.902 74.1934L108.848 83.4506ZM134.399 70.6898C136.027 70.6898 137.42 70.9683 138.577 71.5255C139.734 72.0612 140.624 72.8434 141.245 73.8719C141.888 74.8791 142.209 76.1005 142.209 77.5363C142.209 78.972 141.888 80.2042 141.245 81.2327C140.624 82.2399 139.734 83.022 138.577 83.5792C137.42 84.1149 136.027 84.3828 134.399 84.3828H129.931V91.9043H125.495V70.6898H134.399ZM133.724 80.8792C135.052 80.8792 136.049 80.6006 136.713 80.0434C137.377 79.4649 137.709 78.6291 137.709 77.5363C137.709 76.422 137.377 75.5862 136.713 75.0291C136.049 74.4719 135.052 74.1934 133.724 74.1934H129.931V80.8792H133.724ZM162.803 70.6898V74.2577H155.699V91.9043H151.263V74.2577H144.127V70.6898H162.803ZM173.577 70.3683C175.506 70.3683 177.199 70.7005 178.656 71.3648C180.113 72.0291 181.356 73.0148 182.385 74.3219L179.91 77.1827C179.031 76.0684 178.067 75.2541 177.017 74.7398C175.988 74.2041 174.788 73.9362 173.417 73.9362C172.517 73.9362 171.767 74.0541 171.167 74.2898C170.588 74.5255 170.16 74.8362 169.881 75.222C169.624 75.6077 169.495 76.0362 169.495 76.5077C169.495 77.0863 169.72 77.5791 170.17 77.9863C170.62 78.372 171.392 78.6934 172.485 78.9506L176.438 79.8506C178.538 80.322 180.038 81.0292 180.938 81.972C181.86 82.8935 182.32 84.0935 182.32 85.5721C182.32 86.965 181.956 88.165 181.227 89.1721C180.499 90.1578 179.481 90.9186 178.174 91.4543C176.867 91.9686 175.367 92.2257 173.674 92.2257C172.195 92.2257 170.835 92.0543 169.592 91.7114C168.37 91.3471 167.277 90.8543 166.313 90.2328C165.349 89.6114 164.545 88.8935 163.902 88.0793L166.409 85.0899C166.902 85.7757 167.513 86.3864 168.242 86.9221C168.97 87.4578 169.795 87.8864 170.717 88.2078C171.66 88.5078 172.645 88.6578 173.674 88.6578C174.552 88.6578 175.292 88.5614 175.892 88.3685C176.513 88.1543 176.974 87.865 177.274 87.5007C177.595 87.115 177.756 86.6542 177.756 86.1185C177.756 85.5614 177.563 85.0899 177.177 84.7042C176.813 84.2971 176.127 83.9863 175.12 83.7721L170.813 82.8078C169.57 82.5078 168.499 82.122 167.599 81.6506C166.72 81.1577 166.045 80.5363 165.574 79.7863C165.124 79.0149 164.899 78.1041 164.899 77.0541C164.899 75.7898 165.242 74.6541 165.927 73.6469C166.613 72.6398 167.599 71.8469 168.884 71.2683C170.192 70.6683 171.756 70.3683 173.577 70.3683Z" fill="white"/>
<path d="M47.3763 91.7222H30.8932C30.3181 91.7222 29.8525 91.1354 29.8525 90.4107V19.0215C29.8525 18.2967 30.3181 17.71 30.8932 17.71H47.3763C47.9514 17.71 48.4169 18.2967 48.4169 19.0215V90.4145C48.4169 91.1354 47.9514 91.7222 47.3763 91.7222Z" fill="#B94630"/>
<path d="M38.7379 42.8577C40.3817 42.8577 41.7142 41.5252 41.7142 39.8815C41.7142 38.2378 40.3817 36.9053 38.7379 36.9053C37.0942 36.9053 35.7617 38.2378 35.7617 39.8815C35.7617 41.5252 37.0942 42.8577 38.7379 42.8577Z" fill="#FEFEFE"/>
<path d="M33.4692 25.4711C34.7536 25.4711 35.7949 24.5288 35.7949 23.3664C35.7949 22.204 34.7536 21.2617 33.4692 21.2617C32.1848 21.2617 31.1436 22.204 31.1436 23.3664C31.1436 24.5288 32.1848 25.4711 33.4692 25.4711Z" fill="#FEFEFE"/>
<path d="M35.798 23.3672H31.1436V33.2494H35.798V23.3672Z" fill="#FEFEFE"/>
<path d="M39.0122 25.4711C40.2966 25.4711 41.3378 24.5288 41.3378 23.3664C41.3378 22.204 40.2966 21.2617 39.0122 21.2617C37.7278 21.2617 36.6865 22.204 36.6865 23.3664C36.6865 24.5288 37.7278 25.4711 39.0122 25.4711Z" fill="#FEFEFE"/>
<path d="M41.3409 23.3672H36.6865V33.2494H41.3409V23.3672Z" fill="#FEFEFE"/>
<path d="M44.562 25.4711C45.8464 25.4711 46.8877 24.5288 46.8877 23.3664C46.8877 22.204 45.8464 21.2617 44.562 21.2617C43.2776 21.2617 42.2363 22.204 42.2363 23.3664C42.2363 24.5288 43.2776 25.4711 44.562 25.4711Z" fill="#FEFEFE"/>
<path d="M46.8907 23.3672H42.2363V33.2494H46.8907V23.3672Z" fill="#FEFEFE"/>
<path d="M49.6947 16.9164C50.105 17.6044 49.613 18.4779 48.8119 18.4835L29.3582 18.6191C28.5315 18.6249 28.0313 17.7078 28.4836 17.0158L38.6987 1.38865C39.1179 0.747437 40.0638 0.766935 40.4562 1.42487L49.6947 16.9164Z" fill="#B94630"/>
<rect x="1.23724" y="46.4306" width="38.0957" height="46.4291" rx="3.57147" fill="#B94630" stroke="#FEFEFE" stroke-width="2.38098"/>
<rect x="7.1875" y="53.5723" width="5.95245" height="5.95245" fill="#FEFEFE"/>
<rect x="16.7139" y="53.5723" width="5.95245" height="5.95245" fill="#FEFEFE"/>
<rect x="26.2373" y="53.5723" width="5.95245" height="5.95245" fill="#FEFEFE"/>
<rect x="7.1875" y="63.0957" width="5.95245" height="5.95245" fill="#FEFEFE"/>
<rect x="16.7139" y="63.0957" width="5.95245" height="5.95245" fill="#FEFEFE"/>
<rect x="26.2373" y="63.0957" width="5.95245" height="5.95245" fill="#FEFEFE"/>
<rect x="7.1875" y="72.6221" width="5.95245" height="5.95245" fill="#FEFEFE"/>
<rect x="16.7139" y="72.6221" width="5.95245" height="5.95245" fill="#FEFEFE"/>
<rect x="26.2373" y="72.6221" width="5.95245" height="5.95245" fill="#FEFEFE"/>
<rect x="16.7139" y="82.1436" width="5.95245" height="9.52392" fill="#FEFEFE"/>
</svg>
