<svg width="300" height="300" viewBox="0 0 300 300" fill="none" xmlns="http://www.w3.org/2000/svg">
<g clip-path="url(#clip0_572_170)">
<rect width="300" height="300" fill="#F6E4C9"/>
<path d="M163.146 266.539C160.236 245.055 113.653 219.604 91.8979 196.276C72.517 176.595 52.6892 201.382 48.7634 219.15C41.8866 250.277 118.826 292.018 141.01 296.968C158.023 300.764 165.542 284.231 163.146 266.539Z" fill="#E95755"/>
<path d="M234.783 322.476C226.868 342.659 255.174 387.565 262.823 418.532C270.174 445.158 299.559 433.156 311.637 419.546C332.794 395.701 285.9 321.79 268.93 306.668C255.916 295.072 241.301 305.855 234.783 322.476Z" fill="#E95755"/>
<ellipse cx="45.9034" cy="28.1635" rx="45.9034" ry="28.1635" transform="matrix(-0.829808 -0.558049 -0.558049 0.829808 195.523 237.723)" fill="#C93B3B"/>
<path d="M225.788 396.284C235.242 394.623 290.79 380.839 280.003 328.157C266.419 261.816 234.285 231.496 197.856 237.256L197.855 237.248C197.69 237.277 197.525 237.306 197.361 237.337C197.197 237.364 197.032 237.392 196.867 237.421L196.869 237.43C160.658 244.428 140.779 283.884 150.615 350.883C158.426 404.088 215.39 398.11 224.801 396.457L225.788 396.284Z" fill="#E95755"/>
<path d="M232.42 275.678C239.7 296.099 290.532 311.39 316.633 329.727C339.657 344.986 353.944 316.641 354.119 298.445C354.425 266.569 270.529 241.602 247.8 241.336C230.37 241.132 226.425 258.861 232.42 275.678Z" fill="#E95755"/>
<path d="M173.926 434.942C170.177 428.78 160.214 422.099 155.81 375.214C153.595 351.627 154.522 330.642 156.8 294.022" stroke="#C93B3B" stroke-width="17.2431" stroke-linecap="round" stroke-linejoin="round"/>
<ellipse cx="37.5513" cy="56.327" rx="37.5513" ry="56.327" transform="matrix(-0.974394 0.224849 0.224849 0.974394 243.172 276.916)" fill="#F08988"/>
<ellipse cx="36.6125" cy="16.8981" rx="36.6125" ry="16.8981" transform="matrix(-0.984923 0.172995 0.172995 0.984923 233.373 225.289)" fill="#F08988"/>
<path fill-rule="evenodd" clip-rule="evenodd" d="M187.667 258.371C190.552 258.308 249.636 256.171 271.84 214.693C287.308 185.793 279.175 146.858 277.561 139.131L277.538 139.018C276.649 134.765 275.704 131.28 275.011 128.915C286.944 115.094 289.408 96.7926 281.621 83.8147C276.756 75.7046 267.542 69.2438 256.614 68.3535C243.91 67.3201 231.423 74.0846 224.575 85.7689C216.395 84.0955 206.731 82.3597 195.897 82.2186C194.662 82.2022 193.444 82.1745 192.244 82.1471L192.244 82.1471L192.243 82.1471L192.243 82.1471C188.528 82.0625 184.982 81.9817 181.634 82.2539L183.939 149.551C183.938 149.551 183.936 149.551 183.935 149.551L181.63 82.2541C178.271 82.2116 174.739 82.5349 171.038 82.8735L171.038 82.8736L171.038 82.8736L171.037 82.8736C169.842 82.983 168.628 83.0941 167.397 83.1949C156.599 84.077 147.076 86.4702 139.03 88.6994C131.398 77.5112 118.478 71.617 105.874 73.5174C95.0331 75.1534 86.2825 82.2296 81.984 90.6537C75.1027 104.134 78.8138 122.224 91.6688 135.196C91.1393 137.603 90.4357 141.144 89.8397 145.448L89.824 145.562C88.7425 153.382 83.2934 192.782 100.703 220.555C125.693 260.417 184.785 258.506 187.667 258.371ZM187.667 258.371L187.663 258.371L187.148 243.348C187.15 243.348 187.151 243.348 187.153 243.348L187.667 258.371Z" fill="#E95755"/>
<path d="M198.58 231.452L190.33 232.901C180.632 234.605 170.765 230.981 164.474 223.406C160.201 218.26 162.716 210.417 169.186 208.717L209.271 198.181C215.013 196.672 220.556 201.205 220.216 207.132C219.521 219.277 210.561 229.348 198.58 231.452Z" fill="#762B2B"/>
<path d="M183.253 232.976C191.514 234.832 203.677 231.74 209.192 226.846C217.155 219.778 205.91 217.559 195.31 219.421C183.827 221.438 171.346 230.302 183.253 232.976Z" fill="#F08988"/>
<path d="M185.803 195.521L187.162 200.987" stroke="#762B2B" stroke-width="6.46617" stroke-linecap="round" stroke-linejoin="round"/>
<path d="M191.667 196.285L189.964 197.792C187.854 199.66 184.963 200.379 182.224 199.717L180.013 199.182C175.631 198.123 175.611 191.897 179.986 190.809L187.77 188.873C192.145 187.786 195.043 193.296 191.667 196.285Z" fill="#461A1A"/>
<circle cx="9.38783" cy="9.38783" r="9.38783" transform="matrix(-0.999414 0.0342368 0.0342368 0.999414 228.018 163.74)" fill="#461A1A"/>
<circle cx="9.38783" cy="9.38783" r="9.38783" transform="matrix(-0.999414 0.0342368 0.0342368 0.999414 160.764 167.644)" fill="#461A1A"/>
</g>
<defs>
<clipPath id="clip0_572_170">
<rect width="300" height="300" fill="white"/>
</clipPath>
</defs>
</svg>
