<svg width="160" height="64" viewBox="0 0 160 64" fill="none" xmlns="http://www.w3.org/2000/svg">
<g clip-path="url(#clip0_2658_5228)">
<path fill-rule="evenodd" clip-rule="evenodd" d="M92.8764 41.0237C86.7056 45.572 77.7615 47.9987 70.0608 47.9987C59.2632 47.9987 49.5426 44.0051 42.1885 37.3628C41.6107 36.8405 42.1284 36.1287 42.8218 36.5354C50.7582 41.1531 60.5713 43.9311 70.708 43.9311C77.5443 43.9311 85.0647 42.5167 91.9797 39.5815C93.0243 39.1378 93.8979 40.2656 92.8764 41.0237Z" fill="#FF9900"/>
<path fill-rule="evenodd" clip-rule="evenodd" d="M95.4418 38.089C94.656 37.0814 90.2279 37.613 88.2403 37.8487C87.6348 37.9226 87.5423 37.3957 88.0877 37.0167C91.6145 34.5345 97.4016 35.251 98.0765 36.083C98.7513 36.9196 97.9008 42.7206 94.5867 45.4893C94.0782 45.9146 93.5929 45.6881 93.8194 45.1241C94.5636 43.266 96.2322 39.1013 95.4418 38.089Z" fill="#FF9900"/>
<path fill-rule="evenodd" clip-rule="evenodd" d="M88.3794 19.4937V17.0808C88.3794 16.7157 88.6567 16.4707 88.9896 16.4707H99.7918C100.138 16.4707 100.416 16.7203 100.416 17.0808V19.147C100.411 19.4937 100.12 19.9467 99.6023 20.6631L94.0047 28.655C96.0847 28.6042 98.2803 28.9139 100.166 29.977C100.591 30.2173 100.707 30.5686 100.739 30.9153V33.4899C100.739 33.8412 100.351 34.2526 99.9443 34.04C96.6209 32.2974 92.2067 32.1079 88.5319 34.0585C88.1575 34.2618 87.7646 33.8551 87.7646 33.5038V31.0586C87.7646 30.6657 87.7693 29.9955 88.1622 29.3992L94.6472 20.0992H89.0034C88.6567 20.0992 88.3794 19.8542 88.3794 19.4937Z" fill="white"/>
<path fill-rule="evenodd" clip-rule="evenodd" d="M48.974 34.5485H45.6876C45.3733 34.5254 45.1237 34.2897 45.1006 33.9892V17.1226C45.1006 16.7851 45.3825 16.5171 45.7338 16.5171H48.7984C49.1173 16.5309 49.3716 16.7759 49.3947 17.081V19.2858H49.4548C50.2544 17.1549 51.7567 16.1611 53.7812 16.1611C55.8381 16.1611 57.1231 17.1549 58.0476 19.2858C58.8426 17.1549 60.6499 16.1611 62.5866 16.1611C63.9641 16.1611 65.4709 16.7297 66.3908 18.0054C67.4308 19.4245 67.2182 21.486 67.2182 23.2933L67.2135 33.9384C67.2135 34.2758 66.9316 34.5485 66.5803 34.5485H63.2985C62.9703 34.5254 62.7068 34.262 62.7068 33.9384V24.9989C62.7068 24.2871 62.7715 22.5121 62.6144 21.8373C62.3694 20.7048 61.6345 20.3859 60.6823 20.3859C59.8872 20.3859 59.0552 20.9175 58.7178 21.768C58.3804 22.6185 58.4127 24.0421 58.4127 24.9989V33.9384C58.4127 34.2758 58.1308 34.5485 57.7795 34.5485H54.4977C54.1649 34.5254 53.906 34.262 53.906 33.9384L53.9014 24.9989C53.9014 23.1177 54.2111 20.3489 51.8768 20.3489C49.5149 20.3489 49.6073 23.0483 49.6073 24.9989V33.9384C49.6073 34.2758 49.3253 34.5485 48.974 34.5485Z" fill="white"/>
<path fill-rule="evenodd" clip-rule="evenodd" d="M109.716 16.1611C114.592 16.1611 117.232 20.3489 117.232 25.6738C117.232 30.8184 114.315 34.8998 109.716 34.8998C104.927 34.8998 102.32 30.7121 102.32 25.4935C102.32 20.2426 104.96 16.1611 109.716 16.1611ZM109.744 19.6047C107.322 19.6047 107.169 22.905 107.169 24.9619C107.169 27.0235 107.137 31.4239 109.716 31.4239C112.263 31.4239 112.383 27.874 112.383 25.7108C112.383 24.2871 112.323 22.5861 111.893 21.2364C111.523 20.0623 110.788 19.6047 109.744 19.6047Z" fill="white"/>
<path fill-rule="evenodd" clip-rule="evenodd" d="M123.554 34.5485H120.282C119.954 34.5254 119.69 34.262 119.69 33.9384L119.686 17.0671C119.713 16.7574 119.986 16.5171 120.319 16.5171H123.365C123.651 16.5309 123.887 16.725 123.952 16.9885V19.5678H124.012C124.932 17.2612 126.221 16.1611 128.491 16.1611C129.965 16.1611 131.403 16.6927 132.327 18.1487C133.187 19.4984 133.187 21.768 133.187 23.3996V34.017C133.15 34.3128 132.878 34.5485 132.554 34.5485H129.258C128.958 34.5254 128.708 34.3036 128.676 34.017V24.8556C128.676 23.0113 128.888 20.3119 126.619 20.3119C125.819 20.3119 125.084 20.8481 124.719 21.6616C124.257 22.6924 124.197 23.7186 124.197 24.8556V33.9384C124.192 34.2758 123.906 34.5485 123.554 34.5485Z" fill="white"/>
<path fill-rule="evenodd" clip-rule="evenodd" d="M79.7676 26.4916C79.7676 27.772 79.8 28.8397 79.1529 29.9768C78.6306 30.9012 77.7986 31.4698 76.8787 31.4698C75.6168 31.4698 74.8773 30.5083 74.8773 29.0893C74.8773 26.2882 77.3872 25.7798 79.7676 25.7798V26.4916ZM83.0818 34.502C82.8646 34.6961 82.5503 34.71 82.3053 34.5806C81.2144 33.6746 81.0157 33.254 80.4194 32.3896C78.6167 34.2293 77.3363 34.7793 75.0021 34.7793C72.2333 34.7793 70.084 33.0737 70.084 29.6579C70.084 26.9908 71.5261 25.1742 73.5877 24.2868C75.3719 23.501 77.8633 23.3623 79.7676 23.1451V22.7198C79.7676 21.9386 79.8277 21.0142 79.3655 20.3393C78.968 19.7338 78.2007 19.4842 77.5212 19.4842C76.2686 19.4842 75.1546 20.1267 74.8819 21.4579C74.8264 21.7538 74.6092 22.045 74.3087 22.0588L71.124 21.7168C70.8559 21.6567 70.5555 21.4394 70.634 21.0281C71.3644 17.1638 74.8588 15.999 77.9834 15.999C79.5828 15.999 81.672 16.4243 82.9339 17.6353C84.5332 19.1283 84.3807 21.1205 84.3807 23.2884V28.4098C84.3807 29.9491 85.0185 30.6239 85.6194 31.4559C85.8274 31.7517 85.8737 32.1077 85.6056 32.3295C84.9353 32.8888 83.7428 33.9288 83.0864 34.5112L83.0818 34.502Z" fill="white"/>
<path fill-rule="evenodd" clip-rule="evenodd" d="M36.6837 26.4916C36.6837 27.772 36.716 28.8397 36.0689 29.9768C35.5466 30.9012 34.7192 31.4698 33.7947 31.4698C32.5329 31.4698 31.7979 30.5083 31.7979 29.0893C31.7979 26.2882 34.3078 25.7798 36.6837 25.7798V26.4916ZM39.9978 34.502C39.7806 34.6961 39.4663 34.71 39.2213 34.5806C38.1304 33.6746 37.9363 33.254 37.3354 32.3896C35.5327 34.2293 34.257 34.7793 31.9181 34.7793C29.154 34.7793 27 33.0737 27 29.6579C27 26.9908 28.4468 25.1742 30.5037 24.2868C32.2879 23.501 34.7793 23.3623 36.6837 23.1451V22.7198C36.6837 21.9386 36.7438 21.0142 36.2861 20.3393C35.884 19.7338 35.1167 19.4842 34.4419 19.4842C33.1892 19.4842 32.0706 20.1267 31.7979 21.4579C31.7425 21.7538 31.5252 22.045 31.2294 22.0588L28.04 21.7168C27.7719 21.6567 27.4761 21.4394 27.55 21.0281C28.285 17.1638 31.7748 15.999 34.8995 15.999C36.4988 15.999 38.588 16.4243 39.8499 17.6353C41.4492 19.1283 41.2967 21.1205 41.2967 23.2884V28.4098C41.2967 29.9491 41.9346 30.6239 42.5355 31.4559C42.7481 31.7517 42.7943 32.1077 42.5262 32.3295C41.856 32.8888 40.6634 33.9288 40.0071 34.5112L39.9978 34.502Z" fill="white"/>
</g>
<defs>
<clipPath id="clip0_2658_5228">
<rect width="106.187" height="32" fill="white" transform="translate(27 16)"/>
</clipPath>
</defs>
</svg>
