<svg width="160" height="64" viewBox="0 0 160 64" fill="none" xmlns="http://www.w3.org/2000/svg">
<g clip-path="url(#clip0_2658_5168)">
<path fill-rule="evenodd" clip-rule="evenodd" d="M95.9902 38.3344C95.8381 33.8615 99.269 29.2881 104.253 29.2881C107.586 29.2881 109.768 31.5564 109.889 35.0305C110.049 39.7473 106.844 44.0776 101.627 44.0776C98.2929 44.0776 96.1116 41.8139 95.9902 38.3344ZM98.1577 38.4743C98.244 41.096 99.8663 43.242 101.984 43.242C106.088 43.242 107.835 38.0955 107.713 34.6571C107.627 32.0292 105.961 29.8881 103.847 29.8881C100.316 29.8881 98.0376 35.0121 98.1577 38.4743Z" fill="white"/>
<path fill-rule="evenodd" clip-rule="evenodd" d="M52.7101 34.3516C52.692 34.7614 52.622 35.12 52.5137 35.746L51.7735 39.9331C51.71 40.3047 51.8466 40.5971 52.1894 40.7963L52.1661 40.96L47.9312 40.9541L47.8935 39.8895C47.2769 40.2646 46.5322 40.5812 45.8591 40.767C45.188 40.9404 44.6451 41.0174 43.8299 41.0174C42.4617 41.0174 41.678 40.8741 41.1378 40.3957C40.5879 39.9022 40.322 39.5756 40.3485 38.8968C40.3693 38.5067 40.57 38.0049 40.8602 37.6543C41.1535 37.2976 41.5523 37.0652 41.9876 36.8601C42.4243 36.6495 42.9387 36.4979 43.6869 36.3787C44.4358 36.2562 45.4787 36.1339 46.8758 36.0163C47.6098 35.9546 48.0566 35.7829 48.2675 35.6986C48.5595 35.5847 48.6737 35.4579 48.7164 35.2183C48.7949 34.7875 48.6588 34.5425 48.0921 34.4289C46.5659 34.1262 43.7069 34.6243 42.2332 34.9964L43.0345 32.8167C44.9779 32.5307 46.8002 32.3477 48.7172 32.3477C51.7652 32.3477 52.7408 33.2246 52.7101 34.3516ZM48.339 37.094C48.1588 37.1619 47.9269 37.2297 47.6394 37.2903C47.3522 37.3557 46.8277 37.45 46.0662 37.5709C45.5414 37.6543 45.1779 37.7652 44.9702 37.9149C44.7714 38.0633 44.6547 38.2399 44.6213 38.455C44.5802 38.6855 44.6547 38.8691 44.8528 39.0129C45.0535 39.154 45.3906 39.2275 45.8663 39.2275C46.2226 39.2275 46.5723 39.1688 46.9107 39.0605C47.2532 38.9472 47.5407 38.7932 47.7638 38.6031C47.9269 38.4612 48.0438 38.2803 48.1306 38.0633C48.181 37.9211 48.2536 37.5997 48.339 37.094Z" fill="white"/>
<path fill-rule="evenodd" clip-rule="evenodd" d="M66.801 30.4982C66.9246 29.8305 68.0202 29.2881 69.2443 29.2881C70.4705 29.2881 71.3652 29.8305 71.2467 30.4982C71.1176 31.1667 70.0243 31.7087 68.7967 31.7087C67.5666 31.7087 66.6765 31.1667 66.801 30.4982ZM65.0752 40.5077L66.5721 32.3806H70.7007L69.2043 40.5077H65.0752Z" fill="white"/>
<path fill-rule="evenodd" clip-rule="evenodd" d="M89.2875 34.3528C89.2707 34.7636 89.1983 35.1254 89.087 35.7459L88.3527 39.9374C88.2889 40.3067 88.4248 40.5972 88.7656 40.8034L88.7406 40.9479L84.5067 40.9563L84.4742 39.8892C83.8549 40.2677 83.1072 40.5826 82.4388 40.7654C81.764 40.9439 81.2208 41.0174 80.4016 41.0174C79.0351 41.0174 78.2568 40.8785 77.7146 40.3974C77.1629 39.9027 76.8962 39.5775 76.9261 38.9007C76.9408 38.5075 77.1447 38.0038 77.4359 37.6576C77.7293 37.2972 78.1292 37.0689 78.5661 36.8627C79.0031 36.6555 79.5196 36.502 80.2587 36.3774C81.0118 36.2598 82.0581 36.1319 83.4539 36.0145C84.1811 35.9529 84.6293 35.7862 84.8375 35.705C85.1335 35.5906 85.2496 35.4613 85.2936 35.2204C85.3681 34.7983 85.2344 34.5466 84.672 34.432C83.1387 34.1262 80.2865 34.6277 78.8128 34.997L79.6101 32.8187C81.5611 32.5315 83.3739 32.3477 85.2944 32.3477C88.3404 32.3477 89.3123 33.229 89.2875 34.3528ZM84.917 37.0988C84.7352 37.1613 84.4998 37.2288 84.2134 37.2953C83.9291 37.3634 83.4038 37.4485 82.6379 37.5742C82.1166 37.6576 81.7466 37.7685 81.5464 37.9188C81.3524 38.0625 81.2355 38.241 81.1946 38.4569C81.1522 38.6878 81.2355 38.8746 81.4263 39.0135C81.6308 39.1557 81.9703 39.2243 82.4465 39.2243C82.7994 39.2243 83.1456 39.1713 83.4868 39.0631C83.8322 38.9465 84.1199 38.7976 84.3439 38.6057C84.4998 38.4641 84.6199 38.2795 84.7043 38.0625C84.7563 37.9228 84.8268 37.6 84.917 37.0988Z" fill="white"/>
<path fill-rule="evenodd" clip-rule="evenodd" d="M39.9015 38.0492C38.5678 38.3089 37.817 38.4087 36.4982 38.4087C34.5405 38.4087 32.9856 37.4542 33.0692 35.7046C33.1294 34.5395 34.5354 32.0799 38.1078 32.0799C39.2317 32.0799 40.1108 32.2746 41.2932 32.9367L41.812 30.0771C40.205 29.4805 39.1397 29.3909 37.7601 29.4058C33.0797 29.4553 28.5812 31.5464 28.0241 35.7963C27.4568 40.1157 32.8283 41.2019 35.2135 41.1915C36.5907 41.1878 38.0215 41.1327 39.3576 40.9965L39.9015 38.0492Z" fill="white"/>
<path fill-rule="evenodd" clip-rule="evenodd" d="M72.6826 32.3542L72.9809 30.7022L77.3213 29.7988L76.8596 32.3542H78.9849L78.5812 33.9884L76.5192 33.9834L75.2664 40.5085C75.2664 40.5085 71.0875 40.4821 71.0727 40.5085L72.3204 33.9993H70.7422L71.0632 32.3542H72.6826Z" fill="white"/>
<path fill-rule="evenodd" clip-rule="evenodd" d="M93.4738 41.012L89.2881 41.0177L91.3938 29.2881L95.4702 29.4031L93.4738 41.012Z" fill="white"/>
<path fill-rule="evenodd" clip-rule="evenodd" d="M52.1953 43.5673L54.1605 32.4728H57.7065L57.4322 33.8891C57.74 33.4661 58.2317 33.1193 58.9096 32.8362C59.5941 32.5557 60.3641 32.3477 61.2004 32.3477C62.126 32.3477 62.6967 32.3975 63.3894 32.7571C64.0778 33.1193 64.5582 33.6441 64.8203 34.3281C65.0858 35.0015 65.1411 35.7582 64.997 36.5818C64.7573 37.9485 64.0917 39.0273 63.0013 39.8198C61.9186 40.6111 60.9452 40.8194 59.5542 40.8248C59.0616 40.8248 58.6496 40.7734 58.3072 40.6897C57.9728 40.6018 57.7065 40.4958 57.5031 40.3661C57.3094 40.2353 57.1031 40.0544 56.8386 39.7649L56.1775 43.5673H52.1953ZM59.5478 34.3723C59.0191 34.3723 58.5398 34.5319 58.1143 34.8539C57.6924 35.1767 57.4239 35.6458 57.3155 36.271C57.1884 36.9936 57.2628 37.512 57.5483 37.8335C57.837 38.151 58.2514 38.3108 58.7963 38.3108C59.1637 38.3108 59.5441 38.245 59.8242 38.1068C60.1698 37.9232 60.4082 37.7296 60.6145 37.4257C60.8375 37.1042 60.9835 36.7472 61.0584 36.3333C61.1743 35.6796 61.0762 35.1898 60.774 34.8669C60.48 34.5353 60.0744 34.3723 59.5478 34.3723Z" fill="white"/>
<path fill-rule="evenodd" clip-rule="evenodd" d="M126.214 40.4361L126.536 40.6491C125.725 42.266 124.07 43.5676 122.13 43.5676C120.542 43.5676 119.24 42.5336 119.172 40.5919C119.043 37.1113 122.375 33.8779 125.104 33.8779C126.275 33.8779 127.36 34.3783 127.409 35.6117C127.509 38.3789 123.537 39.2258 120.921 39.283C120.836 39.5723 120.804 39.8636 120.819 40.3055C120.862 41.4534 121.572 42.4186 123.039 42.4186C124.306 42.4186 125.574 41.4202 126.214 40.4361ZM125.858 35.4377C125.835 34.7831 125.499 34.3433 124.809 34.3433C123.145 34.3433 121.375 37.532 121.07 38.8184C123.8 38.8184 125.924 37.2276 125.858 35.4377Z" fill="white"/>
<path fill-rule="evenodd" clip-rule="evenodd" d="M110.159 35.3479C110.442 35.3108 110.896 35.2627 111.092 35.2627C111.391 35.2627 111.672 35.3181 111.686 35.6064C111.692 35.7787 111.375 37.0114 111.308 37.2981L110.674 40.0288C110.418 41.1464 110.14 42.3164 109.895 43.2409H111.523L112.438 38.9147C115.231 36.0727 116.306 35.1456 116.965 35.1456C117.261 35.1456 117.466 35.298 117.48 35.6449C117.497 36.1452 117.179 37.2811 117.069 37.6065L116.135 40.7617C115.922 41.4708 115.765 42.1099 115.78 42.567C115.809 43.2602 116.237 43.5676 116.874 43.5676C118.064 43.5676 118.927 42.3558 119.683 41.1658L119.461 40.7747C119.155 41.2541 118.45 42.2989 117.893 42.2989C117.717 42.2989 117.551 42.1838 117.545 41.8958C117.528 41.5262 117.688 40.9752 117.798 40.609L118.835 36.9134C119.113 35.895 119.247 35.2397 119.24 34.891C119.214 34.2007 118.801 33.8779 118.169 33.8779C117.099 33.8779 115.675 34.643 112.664 38.0302H112.621L113 36.377C113.206 35.4734 113.407 34.5298 113.603 33.8779C112.561 34.2449 111.068 34.6553 110.145 34.8294L110.159 35.3479Z" fill="white"/>
<path fill-rule="evenodd" clip-rule="evenodd" d="M129.154 33.7393H128.882V31.9746H129.555C129.972 31.9746 130.179 32.1283 130.179 32.4742C130.179 32.7926 129.982 32.927 129.721 32.9624L130.223 33.7393H129.922L129.459 32.9734H129.154V33.7393ZM129.468 32.7484C129.699 32.7484 129.897 32.7317 129.897 32.4583C129.897 32.2398 129.703 32.1991 129.514 32.1991H129.154V32.7484H129.468Z" fill="white"/>
<path fill-rule="evenodd" clip-rule="evenodd" d="M127.926 32.8514C127.926 31.9743 128.633 31.3281 129.477 31.3281C130.309 31.3281 131.017 31.9743 131.017 32.8514C131.017 33.739 130.309 34.388 129.477 34.388C128.633 34.388 127.926 33.739 127.926 32.8514ZM129.477 34.1344C130.165 34.1344 130.711 33.5944 130.711 32.8514C130.711 32.128 130.165 31.5812 129.477 31.5812C128.774 31.5812 128.232 32.128 128.232 32.8514C128.232 33.5944 128.774 34.1344 129.477 34.1344Z" fill="white"/>
<path fill-rule="evenodd" clip-rule="evenodd" d="M123.477 17.8947C126.458 21.1657 120.161 27.0791 110.788 33.2828C110.374 31.6544 109.452 30.3534 108.158 29.5257C110.558 26.4214 111.051 23.7897 108.981 21.747C102.195 15.0516 70.6574 18.7769 55.4918 21.4632L55.069 21.5455C54.9801 21.5601 54.8966 21.5021 54.8811 21.4139C54.8667 21.3268 54.925 21.243 55.013 21.2278L55.4394 21.1359C73.7442 17.1571 116.788 10.5535 123.477 17.8947ZM95.6228 40.3308C95.793 40.9035 96.0323 41.4252 96.3237 41.9003C96.2953 41.916 96.2672 41.9314 96.2386 41.9471C90.9373 44.848 85.6694 47.6754 81.0829 50.0576L80.9023 50.1513C80.8295 50.203 80.7291 50.1857 80.6788 50.113C80.6261 50.0395 80.6451 49.9404 80.7176 49.8888L80.9309 49.7652C86.3387 46.4697 91.366 43.3294 95.6094 40.3406C95.6142 40.3377 95.6185 40.3345 95.6228 40.3308Z" fill="#EB3D32"/>
</g>
<defs>
<clipPath id="clip0_2658_5168">
<rect width="103.034" height="36" fill="white" transform="translate(27.9824 14.5)"/>
</clipPath>
</defs>
</svg>
