<svg width="160" height="64" viewBox="0 0 160 64" fill="none" xmlns="http://www.w3.org/2000/svg">
<path d="M42.2221 32.0689L33.2569 33.7019C33.0283 33.9958 32.4894 34.4857 32.2281 34.6164C31.1014 35.1879 30.3338 35.0246 29.6643 34.845C29.2397 34.7307 28.9948 34.6817 28.6355 34.5184L26.4473 34.8123L27.77 45.9004L43.1365 43.1243L42.2221 32.0689ZM28.5375 44.8553L28.4069 43.6468L30.9217 39.8256L33.7631 40.6585L36.2126 36.5596L39.152 38.5029L41.3892 33.8162L42.1894 42.3404L28.5375 44.8553ZM27.9007 33.9632C26.7902 33.2447 25.6471 32.2322 25.1409 31.6606C25.0593 31.5953 25.0756 31.3177 25.0756 31.3177C25.5328 31.677 27.4108 33.016 29.3867 33.6202C30.0889 33.8325 31.1667 33.9142 32.0975 33.3916C32.816 32.9834 33.6652 32.2812 34.1714 31.5627L34.2694 31.726C34.2694 31.8403 34.0244 32.3628 33.9101 32.5751C34.1224 32.7058 34.2857 32.7384 34.5307 32.8037L36.18 32.5425C36.7679 31.5953 37.1924 30.0603 36.7352 28.5906C36.4739 27.7578 35.1349 26.0758 35.0369 25.9941C34.6939 25.6675 35.0859 24.4265 34.4327 23.0547C33.7305 21.6177 31.8852 20.1153 31.085 19.4458C31.3136 19.6091 32.767 20.197 33.4365 21.0135C33.5019 20.9318 33.5345 20.4909 33.5835 20.3766C32.9956 19.6254 32.963 18.2701 32.963 17.9108C32.963 17.2413 32.62 16.4901 32.62 16.4901C32.62 16.4901 33.2079 16.9473 33.3549 17.7475C33.5345 18.6783 33.9101 19.4295 34.4163 20.05C35.3635 21.2258 36.2126 21.83 36.6535 21.3891C37.1761 20.8665 36.131 18.5313 34.8083 17.2249C33.2569 15.7063 32.8487 15.9022 31.9505 16.2288C31.232 16.4738 30.8401 18.5477 28.9458 18.4987C28.6192 18.466 27.8027 18.4334 27.3945 18.4497C27.6067 18.1558 27.7864 17.9271 27.7864 17.9271C27.7864 17.9271 27.1495 18.1884 26.6106 18.515L26.5616 18.4497C26.7413 18.0578 26.9372 17.8292 26.9372 17.8292C26.9372 17.8292 26.431 18.1394 25.9737 18.4987C26.0554 18.0414 26.382 17.7475 26.382 17.7475C26.382 17.7475 25.7451 17.8618 24.9286 18.76C23.9978 19.0049 23.7855 19.1845 23.0343 19.5111C21.8259 19.2499 21.2707 18.8253 20.7318 18.0414C20.3236 17.4536 19.5887 17.3556 18.8375 17.6659C17.7434 18.1231 16.3717 18.7273 16.3717 18.7273C16.3717 18.7273 16.829 18.711 17.2862 18.7273C16.6493 18.9723 16.0288 19.2989 16.0288 19.2989C16.0288 19.2989 16.3227 19.2825 16.6983 19.2989C16.437 19.5111 16.3064 19.6091 16.0614 19.7724C15.4736 20.197 15 20.6869 15 20.6869C15 20.6869 15.3919 20.5073 15.7512 20.4093C15.5062 20.9808 15 21.4054 15.098 22.1076C15.1796 22.7445 15.9635 24.0672 16.9923 24.8837C17.0739 24.949 18.462 26.2391 19.5071 25.7165C20.5522 25.194 20.9604 24.7204 21.1401 24.0019C21.336 23.1691 21.2217 22.5485 20.7971 20.7522C20.6502 20.1643 20.2909 18.9396 20.1113 18.368L20.1439 18.3354C20.4869 19.0539 21.3524 20.9645 21.7116 22.2382C22.2668 24.2305 22.0872 25.243 21.8423 25.6186C21.0748 26.729 19.1315 26.8923 18.2497 26.2718C18.119 28.411 18.5926 29.3581 18.7559 29.8317C18.6742 30.3706 19.0335 31.3994 19.0335 31.3994C19.0335 31.3994 19.0662 30.9421 19.2295 30.6972C19.2785 31.2361 19.5397 31.8893 19.5397 31.8893C19.5397 31.8893 19.5234 31.4973 19.654 31.1544C19.8337 31.4484 19.9643 31.5137 20.1276 31.7423C20.2909 32.3302 20.6175 32.7548 20.6175 32.7548C20.6175 32.7548 20.5685 32.4445 20.5849 32.1179C21.4014 32.9017 21.532 34.0448 21.6136 34.9103C21.8423 37.3108 17.8251 39.2214 17.0412 40.7238C16.4534 41.6056 16.0941 43.0263 17.0902 43.8591C19.5071 45.8677 18.5763 46.4229 19.7847 47.3048C21.4503 48.5132 23.5242 47.9743 24.2264 46.9945C25.2062 45.6228 24.9613 44.3327 24.5857 43.1243C24.2918 42.1771 23.5242 40.6095 22.5608 40.0053C21.581 39.3847 20.6175 39.2704 19.8173 39.3521L19.899 39.2704C21.0584 39.0418 22.2832 39.1724 23.165 39.7277C24.1611 40.3645 25.0756 41.475 25.5492 43.1569C26.0881 43.0753 26.1697 43.0426 26.6596 42.9773L25.5328 34.2244L27.9007 33.9632ZM33.5019 23.0711C34.5307 23.5446 34.4 24.4591 34.4163 24.998C34.4327 25.145 34.4163 25.2593 34.4 25.3246C34.253 25.243 34.0408 25.194 33.6815 25.2103C33.5835 25.2103 33.4692 25.2266 33.3712 25.243C32.9956 25.047 32.767 24.6388 32.5547 24.2142C32.5384 24.1815 32.5221 24.1325 32.5057 24.0999C32.5057 24.0835 32.4894 24.0672 32.4894 24.0509V24.0345C32.3751 23.6753 32.4567 23.5936 32.5057 23.4957C32.5547 23.3977 32.7344 23.2834 32.4731 23.2017C32.4567 23.2017 32.4241 23.1854 32.3914 23.1854C32.5711 22.9568 33.1099 22.8914 33.5019 23.0711ZM32.2281 29.0478C32.4241 28.9009 33.3386 28.6069 34.1877 28.4926C34.6286 28.4436 35.2655 28.411 35.3961 28.4926C35.6574 28.6396 35.6574 29.0968 35.4778 29.5214C35.2165 30.142 34.8409 30.8115 34.4 30.8605C33.6978 30.9585 33.0446 30.5829 32.2934 30.0113C32.0322 29.8154 31.8689 29.3255 32.2281 29.0478ZM25.6308 24.3938C26.7413 23.6426 28.162 23.9366 27.917 24.1652C27.4598 24.6061 28.064 24.4755 28.1293 25.2756C28.1783 25.8635 27.9823 26.1901 27.819 26.3697C27.4761 26.4187 27.0515 26.5004 26.5453 26.6637C26.2514 26.7617 25.9901 26.8596 25.7615 26.9739C25.6961 26.9413 25.6308 26.8923 25.5655 26.827C24.798 26.1411 24.8306 24.949 25.6308 24.3938Z" fill="white"/>
<path fill-rule="evenodd" clip-rule="evenodd" d="M55.6121 39.1555H49.374V24.7852H55.6121C60.1028 24.7852 62.3564 27.055 62.3564 31.5784C62.3564 36.6244 60.1191 39.1555 55.6121 39.1555ZM52.0521 36.8367H55.2202C58.2085 36.8367 59.6946 35.0894 59.6946 31.5784C59.6946 28.59 58.2085 27.104 55.2202 27.104H52.0521V36.8367Z" fill="white"/>
<path fill-rule="evenodd" clip-rule="evenodd" d="M65.149 39.1555H62.4219L68.5293 24.7852H71.4034L77.6414 39.1555H74.7673L72.9547 35.2363H68.3497L69.2641 32.9338H72.2525L69.901 27.5286L65.149 39.1555Z" fill="white"/>
<path fill-rule="evenodd" clip-rule="evenodd" d="M76.123 24.7852H87.0478V27.104H82.9326V39.1555H80.2545V27.104H76.123V24.7852Z" fill="white"/>
<path fill-rule="evenodd" clip-rule="evenodd" d="M88.4192 39.1555H85.6758L91.7995 24.7852H94.6573L100.895 39.1555H98.0376L96.2249 35.2363H91.6036L92.518 32.9338H95.5064L93.1549 27.5286L88.4192 39.1555Z" fill="white"/>
<path fill-rule="evenodd" clip-rule="evenodd" d="M108.913 39.1555H102.675V24.7852H108.913C113.404 24.7852 115.657 27.055 115.657 31.5784C115.657 36.6244 113.404 39.1555 108.913 39.1555ZM105.337 36.8367H108.505C111.493 36.8367 112.979 35.0894 112.979 31.5784C112.979 28.59 111.477 27.104 108.505 27.104H105.337V36.8367Z" fill="white"/>
<path fill-rule="evenodd" clip-rule="evenodd" d="M117.47 31.987C117.47 27.1207 119.887 24.6875 124.704 24.6875C129.44 24.6875 131.824 27.1207 131.824 31.987C131.824 36.837 129.456 39.2538 124.704 39.2538C120.083 39.2538 117.682 36.837 117.47 31.987ZM124.688 36.935C127.578 36.935 129.031 35.2693 129.031 31.9217C129.031 28.623 127.578 26.99 124.688 26.99C121.716 26.99 120.229 28.6394 120.229 31.9217C120.229 35.2693 121.716 36.935 124.688 36.935Z" fill="white"/>
<path fill-rule="evenodd" clip-rule="evenodd" d="M142.929 33.3424V36.7064C142.308 36.8697 141.769 36.9513 141.28 36.9513C138.014 36.9513 136.381 35.2203 136.381 31.7747C136.381 28.5904 138.112 27.0064 141.557 27.0064C142.994 27.0064 144.333 27.2676 145.591 27.8065V25.3897C144.35 24.9161 142.945 24.6875 141.361 24.6875C136.201 24.6875 133.604 27.039 133.604 31.7747C133.604 36.7717 136.136 39.2538 141.231 39.2538C142.978 39.2538 144.431 38.9926 145.591 38.4863V30.9745H141.28L140.381 33.3424H142.929Z" fill="white"/>
</svg>
