<svg width="160" height="64" viewBox="0 0 160 64" fill="none" xmlns="http://www.w3.org/2000/svg">
<g clip-path="url(#clip0_2658_5217)">
<path d="M52.5775 15.9338C48.9164 15.9338 46.6574 18.6991 46.6574 23.4119C46.6574 28.0857 48.9164 30.89 52.5775 30.89C56.2386 30.89 58.4977 28.1246 58.4977 23.4119C58.4977 18.6991 56.2777 15.9338 52.5775 15.9338ZM52.5775 30.0331C51.1754 30.0331 50.7469 28.5142 50.7469 23.3729C50.7469 18.2317 51.1754 16.7128 52.5775 16.7128C53.9797 16.7128 54.4081 18.2707 54.4081 23.4119C54.4081 28.5142 53.9797 30.0331 52.5775 30.0331ZM79.5688 37.0828C78.0108 37.0828 76.8814 37.6669 76.2192 38.6797V33.5385H72.2854V43.0808C72.2854 48.2609 69.3254 50.7148 66.6378 50.7148C64.6515 50.7148 63.8337 49.3515 63.8337 44.6777C63.8337 40.0038 64.34 37.9006 65.9368 37.9006C66.9884 37.9006 67.8843 38.9134 68.78 41.2503H69.7538V37.7838C68.5854 37.3165 67.1443 37.0828 66.0148 37.0828C62.0031 37.0828 59.744 39.9649 59.744 44.6777C59.744 49.3515 62.0031 52 65.82 52C68.9748 52 71.2338 50.3252 72.2854 47.482V51.6495H76.2192V41.0555C76.2192 39.4197 77.1151 38.6017 78.0498 38.6017C78.9455 38.6017 79.2572 39.3418 79.2572 40.4712V51.6885H83.1909V41.2112C83.1909 38.2902 81.7498 37.0828 79.5688 37.0828ZM60.9124 12.3895V30.5394H64.8463V12.3895H60.9124ZM75.0897 12.3895V17.3359C74.7392 16.4791 73.8823 15.9338 72.5191 15.9338C69.4421 15.9338 67.378 18.6991 67.378 23.334C67.378 28.0857 69.2084 30.8511 72.3634 30.8511C73.8434 30.8511 74.856 30.15 75.3234 28.7089V30.5005H78.9846V12.3895H75.0897ZM73.1423 29.7215C71.896 29.7215 71.4675 28.4752 71.4675 23.295C71.4675 18.4265 71.896 16.9854 73.2201 16.9854C74.6612 16.9854 75.1675 18.6991 75.1675 23.295C75.1675 27.9298 74.5055 29.7215 73.1423 29.7215ZM95.966 15.9338C94.2134 15.9338 92.928 16.8686 92.3828 18.1538C91.8375 16.6738 90.7469 15.9338 89.1891 15.9338C87.5143 15.9338 86.3068 16.6738 85.7226 17.8812V16.2843H82.0615V30.5394H85.9563V19.9065C85.9563 18.2707 86.7352 17.4528 87.7089 17.4528C88.5269 17.4528 88.8774 18.1149 88.8774 19.2444V30.5394H92.8112V19.9065C92.8112 18.2707 93.5901 17.4528 94.5638 17.4528C95.3818 17.4528 95.7323 18.1149 95.7323 19.2444V30.5394H99.6661V20.0623C99.6661 17.1412 98.1861 15.9338 95.966 15.9338ZM92.7334 43.3145L90.4743 41.9514C88.9554 41.0555 88.41 40.5102 88.41 39.5755C88.41 38.5238 89.1501 37.8617 90.3964 37.8617C91.8764 37.8617 92.9671 38.8354 93.6291 41.2112H94.6029V37.5502C93.3564 37.2775 91.9543 37.0438 90.708 37.0438C87.5532 37.0438 85.6447 38.6017 85.6447 41.1334C85.6447 42.8862 86.6184 44.0935 88.6048 45.3009L90.4743 46.4303C92.0323 47.3651 92.5775 48.0272 92.5775 49.0789C92.5775 50.442 91.7206 51.1431 90.2406 51.1431C88.41 51.1431 87.3584 49.9746 86.6574 47.4042H85.6837V51.4158C87.1248 51.8052 88.6437 51.9611 89.8901 51.9611C93.4734 51.9611 95.5377 50.2863 95.5377 47.482C95.4986 45.5735 94.5638 44.4051 92.7334 43.3145ZM107.728 15.9338C106.248 15.9338 104.496 16.2064 102.86 16.7128V20.0623H103.834C104.652 17.9591 105.742 16.7906 107.3 16.7906C108.274 16.7906 108.663 17.258 108.663 18.3486V20.1792C108.663 21.075 108.43 21.3476 107.417 21.6982L106.365 22.0487C103.249 23.1003 101.847 24.4635 101.847 26.9172C101.847 29.5268 103.405 30.89 105.664 30.89C107.261 30.89 108.624 30.1889 109.053 28.8257V30.5394H112.636V20.1792C112.597 17.3749 110.922 15.9338 107.728 15.9338ZM108.663 26.7225C108.663 28.592 108.04 29.4489 107.066 29.4489C106.132 29.4489 105.82 28.7089 105.82 26.8004V26.4109C105.82 24.1908 106.287 23.295 107.573 22.6329L108.663 22.0876V26.7225ZM122.84 15.9338C121.127 15.9338 119.88 16.6738 119.257 17.8812V16.2843H115.557V30.5394H119.491V19.8676C119.491 18.2317 120.387 17.4138 121.321 17.4138C122.217 17.4138 122.529 18.1538 122.529 19.2834V30.5005H126.463V20.0623C126.463 17.1412 125.022 15.9338 122.84 15.9338ZM44.9826 45.5735C44.9826 49.2346 42.3341 51.6885 38.0887 51.6885H31.857V45.184H32.7917C33.6486 49.0398 35.2455 50.7537 37.9329 50.7537C40.114 50.7537 41.2825 49.5852 41.2825 47.6768C41.2825 45.6514 40.0361 44.7166 38.2056 43.6651L35.4402 42.0292C33.1033 40.666 31.7791 38.9912 31.7791 36.6543C31.7791 34.0448 33.2981 32.37 35.7518 31.6689C32.2854 30.7342 31.0391 27.5794 31.0391 21.9708C31.0391 15.5832 33.6876 12 39.1014 12H44.1257V17.3749H43.152C41.9836 13.9474 40.9709 12.8958 39.1403 12.8958C36.4529 12.8958 35.7129 15.778 35.7129 22.1266C35.7129 29.4489 36.375 31.0848 38.3614 31.0848C39.8804 31.0848 40.6204 30.1111 40.6204 27.8131V25.0088C40.6204 23.295 40.0751 22.6719 38.2835 22.3992V21.5034H44.2815V36.8102H43.3857C42.0225 32.9543 40.2698 32.0974 38.3224 32.0974C36.4139 32.0974 35.2455 32.9932 35.2455 34.7458C35.2455 36.3817 36.2192 37.1606 38.0498 38.2512L41.0488 40.0428C43.4246 41.5229 44.9826 42.886 44.9826 45.5735ZM52.5386 37.0828C51.0586 37.0828 49.3058 37.3554 47.67 37.8617V41.2112H48.6437C49.4617 39.1082 50.5521 37.9397 52.1101 37.9397C53.0838 37.9397 53.4734 38.4071 53.4734 39.4975V41.2892C53.4734 42.1851 53.2397 42.4577 52.2271 42.8082L51.1754 43.1588C48.0595 44.2103 46.6574 45.5735 46.6574 48.0272C46.6574 50.6368 48.2154 52 50.4743 52C52.0712 52 53.4344 51.2989 53.8628 49.9357V51.6495H57.4071V41.3671C57.4071 38.5238 55.6934 37.0828 52.5386 37.0828ZM53.4734 47.8715C53.4734 49.7409 52.8501 50.5978 51.8764 50.5978C50.9417 50.5978 50.6301 49.8578 50.6301 47.9494V47.5598C50.6301 45.3398 51.0975 44.444 52.3828 43.7818L53.4734 43.2366V47.8715Z" fill="#61A3EA"/>
</g>
<defs>
<clipPath id="clip0_2658_5217">
<rect width="96.9231" height="40" fill="white" transform="translate(31.0391 12)"/>
</clipPath>
</defs>
</svg>
