<svg width="160" height="64" viewBox="0 0 160 64" fill="none" xmlns="http://www.w3.org/2000/svg">
<path d="M43.3198 26.92V30.2H51.1598C50.9198 32.04 50.3065 33.3867 49.3732 34.3333C48.2265 35.48 46.4398 36.7333 43.3198 36.7333C38.4932 36.7333 34.7198 32.84 34.7198 28.0133C34.7198 23.1867 38.4932 19.2933 43.3198 19.2933C45.9198 19.2933 47.8265 20.32 49.2265 21.64L51.5332 19.3333C49.5865 17.44 46.9732 16 43.3198 16C36.7065 16 31.1465 21.3867 31.1465 28C31.1465 34.6133 36.7065 40 43.3198 40C46.8932 40 49.5865 38.8267 51.6932 36.64C53.8532 34.48 54.5332 31.4267 54.5332 28.9733C54.5332 28.2133 54.4798 27.5067 54.3598 26.92H43.3198Z" fill="#4285F4"/>
<path d="M64.3329 24.2539C60.0529 24.2539 56.5596 27.5072 56.5596 32.0006C56.5596 36.4539 60.0529 39.7472 64.3329 39.7472C68.6129 39.7472 72.1062 36.4672 72.1062 32.0006C72.1062 27.5072 68.6129 24.2539 64.3329 24.2539ZM64.3329 36.6939C61.9862 36.6939 59.9596 34.7606 59.9596 32.0006C59.9596 29.2139 61.9862 27.3072 64.3329 27.3072C66.6796 27.3072 68.7062 29.2139 68.7062 32.0006C68.7062 34.7606 66.6796 36.6939 64.3329 36.6939Z" fill="#EA4335"/>
<path d="M102.44 25.9872H102.32C101.56 25.0806 100.093 24.2539 98.24 24.2539C94.3733 24.2539 91 27.6272 91 32.0006C91 36.3472 94.3733 39.7472 98.24 39.7472C100.093 39.7472 101.56 38.9206 102.32 37.9872H102.44V39.0672C102.44 42.0272 100.853 43.6139 98.3067 43.6139C96.2267 43.6139 94.9333 42.1206 94.4 40.8539L91.44 42.0806C92.2933 44.1339 94.5467 46.6539 98.3067 46.6539C102.293 46.6539 105.667 44.3072 105.667 38.5872V24.6539H102.44V25.9872ZM98.5333 36.6939C96.1867 36.6939 94.4 34.6939 94.4 32.0006C94.4 29.2672 96.1867 27.3072 98.5333 27.3072C100.853 27.3072 102.667 29.3072 102.667 32.0272C102.68 34.7339 100.853 36.6939 98.5333 36.6939Z" fill="#4285F4"/>
<path d="M81.6669 24.2539C77.3869 24.2539 73.8936 27.5072 73.8936 32.0006C73.8936 36.4539 77.3869 39.7472 81.6669 39.7472C85.9469 39.7472 89.4402 36.4672 89.4402 32.0006C89.4402 27.5072 85.9469 24.2539 81.6669 24.2539ZM81.6669 36.6939C79.3202 36.6939 77.2936 34.7606 77.2936 32.0006C77.2936 29.2139 79.3202 27.3072 81.6669 27.3072C84.0136 27.3072 86.0402 29.2139 86.0402 32.0006C86.0402 34.7606 84.0136 36.6939 81.6669 36.6939Z" fill="#FBBC05"/>
<path d="M108.333 16.3203H111.68V39.747H108.333V16.3203Z" fill="#34A853"/>
<path d="M122.013 36.6939C120.28 36.6939 119.053 35.9072 118.253 34.3472L128.613 30.0672L128.266 29.1872C127.626 27.4539 125.653 24.2539 121.64 24.2539C117.653 24.2539 114.333 27.3872 114.333 32.0006C114.333 36.3472 117.613 39.7472 122.013 39.7472C125.56 39.7472 127.613 37.5739 128.466 36.3206L125.826 34.5606C124.946 35.8406 123.746 36.6939 122.013 36.6939ZM121.773 27.1606C123.146 27.1606 124.32 27.8672 124.706 28.8672L117.706 31.7606C117.706 28.5072 120.013 27.1606 121.773 27.1606Z" fill="#EA4335"/>
</svg>
