<svg width="160" height="64" viewBox="0 0 160 64" fill="none" xmlns="http://www.w3.org/2000/svg">
<g clip-path="url(#clip0_2658_5150)">
<path d="M24.254 15.6876C24.254 15.4174 23.511 14.6744 23.2409 14.6744H22.5654V13.999H26.4829L30.5354 24.1979H30.603L34.8581 13.999H38.3703V14.6744H37.6949C37.4247 14.6744 36.6818 15.4174 36.6818 15.6876V25.8189C36.6818 26.0891 37.4923 26.832 37.6949 26.832H38.3703V27.5075H33.1696V26.832H33.845C34.1151 26.832 34.8581 26.0891 34.8581 25.8189V15.9577L29.9951 27.7101L25.0645 15.7551V25.7514C25.0645 26.0215 25.875 26.7645 26.0776 26.7645H26.753V27.4399H22.5654V26.7645H23.2409C23.511 26.7645 24.254 26.0215 24.254 25.7514V15.6876Z" fill="white"/>
<path d="M44.1124 21.6989C44.3825 20.3481 44.1124 19.1323 42.6264 19.1323C40.8703 19.1323 40.0598 20.5507 40.0598 22.5769C40.0598 24.5357 41.2756 26.1567 43.3019 26.1567C44.7878 26.1567 45.4632 25.6163 46.0711 24.6032H46.6114C46.0711 26.4944 44.8553 27.7102 42.694 27.7102C40.2625 27.7102 38.709 25.6163 38.709 23.1848C38.709 20.3481 40.6002 18.5244 42.8966 18.5244C44.2474 18.5244 45.193 18.9297 46.0035 19.7402L44.7202 21.6989H44.1124Z" fill="white"/>
<path d="M61.74 16.6332C62.4154 16.6332 62.8882 16.1604 62.8882 15.485C62.8882 14.8096 62.3479 14.4043 61.74 14.4043C61.0646 14.4043 60.5918 14.8096 60.5918 15.485C60.5918 16.1604 61.0646 16.6332 61.74 16.6332Z" fill="white"/>
<path d="M74.0997 26.832C73.8295 26.832 73.1541 26.2242 73.1541 25.8865V21.0234C73.1541 19.5375 72.0734 18.5244 70.7226 18.5244C69.1691 18.5244 68.3586 19.4024 67.2779 20.4831L66.9402 18.727H64.171V19.4024H64.7113C64.9815 19.4024 65.6569 20.0778 65.6569 20.348V25.954C65.6569 26.2242 64.9815 26.8996 64.7113 26.8996H64.171H63.6307C63.3605 26.8996 62.6851 26.2917 62.6851 25.954V18.727H59.5781V19.4024H60.1185C60.3886 19.4024 61.0641 20.0103 61.0641 20.2804V25.8865C61.0641 26.1566 60.3886 26.832 60.1185 26.832H59.5781H59.1053C58.8352 26.832 57.7545 26.0215 57.4843 25.6838L52.7564 19.4024L56.0659 15.8902C56.2686 15.6876 57.5519 14.6744 57.822 14.6744H58.4975V13.999H53.6344V14.6744H54.3098C54.58 14.6744 55.323 15.62 55.1204 15.8227L50.3249 21.226V15.6876C50.3249 15.4174 51.1354 14.6744 51.338 14.6744H52.0134V13.999H46.7451V14.6744H47.4205C47.6907 14.6744 48.4337 15.4174 48.4337 15.6876V25.8189C48.4337 26.0891 47.6232 26.832 47.4205 26.832H46.7451V27.5075H52.0134V26.832H51.338C51.0678 26.832 50.3249 26.0891 50.3249 25.8189V22.2392L51.6757 20.7532L56.3361 27.5075H59.6457H64.3061H68.899V26.832H68.4262C68.156 26.832 67.4806 26.2242 67.4806 25.8865V21.4287C67.4806 20.8208 69.1016 19.605 70.3173 19.605C71.2629 19.605 71.7357 20.2804 71.7357 21.091V25.8865C71.7357 26.1566 71.0603 26.832 70.7901 26.832H70.3173V27.5075H74.5725V26.832H74.0997Z" fill="white"/>
<path d="M75.7208 24.3998C75.7208 25.2103 76.9366 26.9664 78.8278 26.9664C79.9085 26.9664 80.5163 26.5611 80.5163 25.7506C80.5163 24.7375 79.6383 24.4673 78.8953 24.1296C78.2874 23.8594 77.8146 23.6568 77.0717 23.3191C75.991 22.8463 75.248 22.1033 75.248 20.9551C75.248 19.4016 76.1936 18.4561 77.8822 18.4561C78.8278 18.4561 79.3681 18.9289 80.0435 18.9289C80.3137 18.9289 80.4488 18.8613 80.5163 18.6587H80.9891V21.3604H80.4488C80.4488 20.6174 79.4357 19.1315 77.8147 19.1315C76.8015 19.1315 76.3287 19.6043 76.3287 20.2797C76.3287 21.0227 76.8691 21.2928 77.7471 21.6981C78.4225 21.9682 78.8953 22.1709 79.6383 22.5086C80.5839 22.8463 81.6646 23.6568 81.6646 25.0752C81.6646 26.7637 80.5163 27.7093 78.8953 27.7093C77.8147 27.7093 77.1392 27.169 76.3963 27.169C76.0586 27.169 75.9235 27.2365 75.7208 27.4392H75.3156V24.3322H75.7208V24.3998Z" fill="white"/>
<path d="M82.1377 23.1173C82.1377 20.5507 83.8938 18.5244 86.1902 18.5244C88.149 18.5244 89.2972 19.8753 89.3647 21.6314L89.4323 22.2392L83.6236 22.712C83.6236 24.4681 84.8394 26.2242 86.7981 26.2242C88.284 26.2242 88.9595 25.6839 89.4998 24.6708H90.0401C89.4323 26.5619 88.3516 27.7777 86.2578 27.7777C83.7587 27.7102 82.1377 25.5488 82.1377 23.1173ZM87.8788 21.6989C88.0139 20.4831 87.8112 19.1998 86.1227 19.1998C84.299 19.1998 83.5561 20.6858 83.5561 22.0366L87.8788 21.6989Z" fill="white"/>
<path d="M90.9187 20.3476C90.7836 20.0774 89.9731 19.402 89.7705 19.402H89.3652V18.7266H94.0256V19.402H93.4853C93.2151 19.402 92.6748 20.0099 92.6748 20.3476L94.7011 25.008L96.7273 20.3476C96.7273 20.0099 96.187 19.402 95.9844 19.402H95.444V18.7266H98.9562V19.402H98.551C98.3483 19.402 97.7405 20.0774 97.5378 20.3476L94.566 27.1018L92.3371 31.9648L91.5266 31.6271L93.8906 26.8316L90.9187 20.3476Z" fill="white"/>
<path d="M48.6356 34.4652C48.6356 35.5459 49.3786 36.4239 50.5268 36.8292C52.2829 38.7204 54.3767 40.6791 56.2004 42.3001C56.7407 41.4221 56.8758 40.544 56.8758 39.3958C56.8758 38.18 56.0653 37.4371 54.7144 37.3695V36.6941H59.5099V37.3695H59.0371C58.767 37.3695 57.8214 38.4502 57.8214 38.8554C57.7538 40.0037 57.4837 41.4221 56.6056 42.6378C57.6188 43.5159 58.5643 44.2588 59.3749 44.7992H60.1854V45.4746H58.6994C57.4161 45.4746 56.4705 45.1369 55.3223 44.1237C54.2416 45.1369 52.8908 45.7448 50.8645 45.7448C48.7032 45.7448 46.6094 44.1237 46.6094 41.7598C46.6094 39.8686 47.555 38.5177 48.7707 37.6397C48.0953 36.8292 47.6901 36.0187 47.6901 34.8029C47.6901 32.8442 48.9734 31.8311 50.9321 31.8311C52.1478 31.8311 52.8233 32.2363 53.3636 32.2363C53.6338 32.2363 53.8364 32.2363 53.9715 31.9661H54.5794V35.1406H53.9715C53.9715 34.2626 52.6206 32.4389 50.8645 32.4389C49.5137 32.5065 48.6356 33.2494 48.6356 34.4652ZM48.0278 40.9493C48.0278 42.908 50.054 44.7316 52.0128 44.7316C53.2285 44.7316 54.1741 44.3939 54.9171 43.8536C52.9583 42.165 50.797 40.0712 49.1084 38.1125C48.433 38.7879 48.0278 39.5309 48.0278 40.9493Z" fill="white"/>
<path d="M74.033 36.8292C74.033 35.4108 72.4795 32.6416 69.9129 32.6416C67.549 32.6416 66.1981 33.9249 65.928 36.9643C65.8604 38.18 65.8604 39.1932 65.9955 40.4089C66.1981 42.7729 67.8191 44.7316 70.5884 44.7316C72.9523 44.7316 74.033 43.7185 74.9111 41.9624H75.5865C74.7084 44.3939 72.8173 45.8123 70.1156 45.8123C66.2657 45.8123 63.7666 42.6378 63.7666 38.7879C63.7666 34.938 65.9955 31.8311 69.7779 31.8311C71.1962 31.8311 72.1418 32.4389 73.155 32.4389C73.5602 32.4389 73.7628 32.3038 73.9655 32.1012H74.5734V36.8967H74.033V36.8292Z" fill="white"/>
<path d="M76.5332 41.1515C76.5332 38.3147 78.5595 36.5586 80.8559 36.5586C83.1523 36.5586 85.1786 38.3147 85.1786 41.1515C85.1786 43.9882 83.1523 45.8119 80.8559 45.8119C78.5595 45.8119 76.5332 43.9882 76.5332 41.1515ZM83.49 42.6374C83.6251 41.7593 83.6251 40.5436 83.49 39.6655C83.355 38.2471 82.5445 37.3016 80.9234 37.3016C79.37 37.3016 78.5595 38.2471 78.3568 39.6655C78.2218 40.5436 78.2218 41.7593 78.3568 42.6374C78.5595 43.9882 79.3024 45.0014 80.9234 45.0014C82.5445 44.9338 83.355 43.9882 83.49 42.6374Z" fill="white"/>
<path d="M99.429 43.9199C99.429 44.19 100.104 44.8655 100.375 44.8655H100.78V45.5409H96.3896V44.8655H96.8624C97.1325 44.8655 97.808 44.2576 97.808 43.9199V39.0568C97.808 38.1788 97.4027 37.6385 96.4571 37.6385C95.3089 37.6385 93.8905 38.7191 93.8905 39.327V43.9199C93.8905 44.19 94.5659 44.8655 94.8361 44.8655H95.3089V45.5409H90.8511V44.8655H91.3239C91.5941 44.8655 92.2695 44.2576 92.2695 43.9199V39.0568C92.2695 38.1788 91.7967 37.6385 90.8511 37.6385C89.7029 37.6385 88.2845 38.7867 88.2845 39.3945V43.9199C88.2845 44.19 88.9599 44.8655 89.2301 44.8655H89.7029V45.5409H85.2451V44.8655H85.7179C85.9881 44.8655 86.6635 44.2576 86.6635 43.9199V38.3139C86.6635 38.0437 85.9881 37.3683 85.7179 37.3683H85.2451V36.6929H87.9468L88.2845 38.3814C89.2977 37.3007 89.9055 36.4902 91.459 36.4902C92.6072 36.4902 93.6204 37.0981 93.7554 38.3139C94.8361 37.2332 95.5115 36.4902 96.9975 36.4902C98.2808 36.4902 99.3614 37.3683 99.3614 38.9893V43.9199H99.429Z" fill="white"/>
<path d="M103.346 36.7612L103.617 38.5849C104.36 37.1665 105.305 36.5586 106.791 36.5586C108.952 36.5586 110.236 38.3822 110.236 41.0164C110.236 43.6505 108.75 45.7443 106.656 45.7443C105.102 45.7443 104.292 45.1365 103.684 43.9882V48.1759C103.684 48.446 104.36 49.1214 104.63 49.1214H105.238V49.7969H100.577V49.1214H101.185C101.455 49.1214 102.131 48.5136 102.131 48.1759V38.3822C102.131 38.1121 101.455 37.4366 101.185 37.4366H100.577V36.7612H103.346ZM103.684 39.9357V42.2321C103.684 43.583 104.765 44.7987 106.251 44.7987C107.737 44.7987 108.48 43.8532 108.615 42.4348C108.75 41.6243 108.75 40.6111 108.615 39.8006C108.412 38.3822 107.669 37.5042 106.386 37.5042C104.9 37.5717 104.089 38.5849 103.684 39.9357Z" fill="white"/>
<path d="M129.282 44.8655C129.012 44.8655 128.337 44.2576 128.337 43.9199V39.0568C128.337 37.5709 127.256 36.5578 125.905 36.5578C124.352 36.5578 123.541 37.4358 122.461 38.5165L122.123 36.6929H119.354V37.3683H119.894C120.164 37.3683 120.84 38.0437 120.84 38.3139V43.9199C120.84 44.19 120.164 44.8655 119.894 44.8655H119.354H118.813C118.543 44.8655 117.868 44.2576 117.868 43.9199V39.1244C117.868 37.3683 116.449 36.4902 114.558 36.4902C112.802 36.4902 111.789 37.0981 111.046 37.8411L112.194 39.5972H112.802C112.127 38.1112 112.667 37.1657 114.153 37.1657C115.706 37.1657 116.247 37.8411 116.179 39.1244V40.2051L113.95 40.6779C112.734 40.948 111.113 41.5559 111.113 43.312C111.113 44.7304 112.127 45.676 113.342 45.676C114.626 45.676 115.571 44.6628 116.247 43.7173L116.449 45.4733H119.286H123.879V44.7979H123.406C123.136 44.7979 122.461 44.19 122.461 43.8523V39.3945C122.461 38.7867 124.082 37.5709 125.297 37.5709C126.243 37.5709 126.716 38.2463 126.716 39.0568V43.8523C126.716 44.1225 126.04 44.7979 125.77 44.7979H125.23V45.4733H129.688V44.7979H129.282V44.8655ZM116.247 42.9743C115.909 43.6497 114.963 44.5278 114.085 44.5278C113.207 44.5278 112.667 43.8523 112.667 43.1094C112.667 42.2313 113.005 41.6234 114.153 41.3533L116.247 40.8129V42.9743Z" fill="white"/>
<path d="M130.362 38.4493C130.227 38.1791 129.484 37.4362 129.214 37.4362H128.809V36.7607H133.469V37.4362H132.929C132.658 37.4362 132.118 38.044 132.118 38.3818L134.144 43.0422L136.171 38.3818C136.171 38.044 135.63 37.4362 135.428 37.4362H134.887V36.7607H138.4V37.4362H137.994C137.792 37.4362 137.184 38.1116 136.981 38.3818L134.009 45.136L131.78 49.999L130.97 49.6613L133.334 44.8658L130.362 38.4493Z" fill="white"/>
</g>
<defs>
<clipPath id="clip0_2658_5150">
<rect width="115.835" height="36" fill="white" transform="translate(22.5645 14)"/>
</clipPath>
</defs>
</svg>
