<svg width="160" height="64" viewBox="0 0 160 64" fill="none" xmlns="http://www.w3.org/2000/svg">
<g clip-path="url(#clip0_2658_5187)">
<path d="M22.1688 18.5279C20.8364 16.9518 19.6891 15.3509 19.4547 15.0185C19.4301 14.9938 19.393 14.9938 19.3684 15.0185C19.134 15.3509 17.9867 16.9518 16.6543 18.5279C5.21835 33.0706 18.4555 42.8849 18.4555 42.8849L18.5665 42.9588C18.6652 44.4733 18.9119 46.653 18.9119 46.653H19.4054H19.8988C19.8988 46.653 20.1456 44.4856 20.2443 42.9588L20.3553 42.8726C20.3676 42.8726 33.6048 33.0706 22.1688 18.5279ZM19.4054 42.6632C19.4054 42.6632 18.8132 42.1584 18.6529 41.8997V41.8752L19.3684 26.0394C19.3684 25.9902 19.4424 25.9902 19.4424 26.0394L20.1579 41.8752V41.8997C19.9975 42.1584 19.4054 42.6632 19.4054 42.6632Z" fill="#01EC64"/>
<path d="M44.1781 39.336L38.6621 25.9988L38.6497 25.9619H34.358V26.8584H35.0506C35.2609 26.8584 35.4587 26.9444 35.6072 27.0918C35.7556 27.2391 35.8298 27.4357 35.8298 27.6444L35.7062 41.0675C35.7062 41.485 35.3599 41.8289 34.9393 41.8412L34.2344 41.8535V42.7377H38.4148V41.8535L37.9818 41.8412C37.5613 41.8289 37.215 41.485 37.215 41.0675V28.4182L43.2259 42.7377C43.3123 42.9465 43.5102 43.0816 43.7329 43.0816C43.9555 43.0816 44.1534 42.9465 44.24 42.7377L50.1147 28.7374L50.2013 41.0675C50.2013 41.4974 49.855 41.8412 49.4222 41.8535H48.9769V42.7377H53.8745V41.8535H53.2067C52.7862 41.8535 52.4398 41.4974 52.4275 41.0798L52.3904 27.6566C52.3904 27.2269 52.7366 26.883 53.1572 26.8707L53.8745 26.8584V25.9619H49.6942L44.1781 39.336Z" fill="#01EC64"/>
<path d="M82.6389 41.7209C82.5024 41.5846 82.4281 41.399 82.4281 41.1762V34.5414C82.4281 33.2789 82.0561 32.2887 81.312 31.5831C80.5805 30.8776 79.5637 30.5186 78.2989 30.5186C76.5256 30.5186 75.1245 31.2365 74.1448 32.6476C74.1325 32.6723 74.0953 32.6847 74.0581 32.6847C74.0208 32.6847 73.9961 32.66 73.9961 32.6228L73.5372 30.8528H72.7684L70.7969 31.9791V32.598H71.3053C71.5409 32.598 71.7392 32.66 71.8757 32.7838C72.0121 32.9076 72.0865 33.0933 72.0865 33.3532V41.1638C72.0865 41.3866 72.0121 41.5723 71.8757 41.7084C71.7392 41.8446 71.5533 41.9189 71.3301 41.9189H70.8341V42.8224H75.3724V41.9189H74.8765C74.6533 41.9189 74.4672 41.8446 74.3309 41.7084C74.1945 41.5723 74.12 41.3866 74.12 41.1638V36.0145C74.12 35.3584 74.2689 34.7024 74.5417 34.0588C74.8268 33.4274 75.2484 32.8951 75.8065 32.4867C76.3644 32.0782 77.0341 31.8801 77.8029 31.8801C78.6709 31.8801 79.3281 32.1524 79.7372 32.6971C80.1465 33.2418 80.3573 33.9473 80.3573 34.789V41.1762C80.3573 41.399 80.2828 41.5846 80.1465 41.7209C80.0101 41.857 79.8241 41.9312 79.6009 41.9312H79.1049V42.8349H83.6433V41.9312H83.1473C82.9613 41.9312 82.7876 41.8694 82.6389 41.7209Z" fill="#01EC64"/>
<path d="M124.104 26.9733C122.85 26.3073 121.447 25.9619 119.935 25.9619H114.031V26.8623H114.609C114.831 26.8623 115.027 26.9487 115.224 27.146C115.409 27.331 115.507 27.5407 115.507 27.7627V41.0345C115.507 41.2564 115.409 41.4662 115.224 41.6512C115.04 41.8362 114.831 41.9348 114.609 41.9348H114.031V42.8353H119.935C121.447 42.8353 122.85 42.4899 124.104 41.8239C125.358 41.1578 126.379 40.171 127.117 38.913C127.855 37.6549 128.236 36.1378 128.236 34.4109C128.236 32.6842 127.855 31.1794 127.117 29.9089C126.367 28.6262 125.358 27.6394 124.104 26.9733ZM125.863 34.3863C125.863 35.9651 125.58 37.2971 125.026 38.3702C124.473 39.4434 123.735 40.245 122.825 40.7631C121.915 41.2812 120.906 41.5402 119.824 41.5402H118.631C118.41 41.5402 118.213 41.4539 118.016 41.2564C117.832 41.0715 117.733 40.8618 117.733 40.6398V28.1328C117.733 27.9107 117.819 27.7134 118.016 27.516C118.201 27.331 118.41 27.2324 118.631 27.2324H119.824C120.906 27.2324 121.915 27.4914 122.825 28.0094C123.735 28.5274 124.473 29.3292 125.026 30.4023C125.58 31.4753 125.863 32.8074 125.863 34.3863Z" fill="#01EC64"/>
<path d="M142.189 35.2867C141.643 34.6576 140.59 34.1273 139.351 33.8435C141.062 32.9924 141.941 31.796 141.941 30.2543C141.941 29.4155 141.719 28.6631 141.272 28.0217C140.826 27.3804 140.193 26.8623 139.388 26.5046C138.581 26.1469 137.639 25.9619 136.573 25.9619H129.89V26.8623H130.424C130.647 26.8623 130.845 26.9487 131.043 27.146C131.229 27.331 131.329 27.5407 131.329 27.7627V41.0345C131.329 41.2564 131.229 41.4662 131.043 41.6512C130.858 41.8362 130.647 41.9348 130.424 41.9348H129.841V42.8353H137.094C138.197 42.8353 139.226 42.6503 140.156 42.2802C141.086 41.9102 141.83 41.3675 142.364 40.6521C142.908 39.9368 143.181 39.0609 143.181 38.0495C143.169 36.9641 142.847 36.0514 142.189 35.2867ZM133.87 41.2688C133.684 41.0838 133.585 40.8741 133.585 40.6521V34.6947H137.032C138.247 34.6947 139.177 35.003 139.821 35.6196C140.466 36.2364 140.789 37.0381 140.789 38.0249C140.789 38.6169 140.639 39.1967 140.367 39.727C140.082 40.2698 139.66 40.7015 139.09 41.0345C138.532 41.3675 137.838 41.5402 137.032 41.5402H134.49C134.267 41.5525 134.069 41.4662 133.87 41.2688ZM133.598 33.4241V28.1328C133.598 27.9107 133.684 27.7134 133.883 27.516C134.069 27.331 134.279 27.2324 134.503 27.2324H136.139C137.316 27.2324 138.185 27.5284 138.731 28.0957C139.276 28.6754 139.548 29.4155 139.548 30.3283C139.548 31.2657 139.288 32.0181 138.78 32.5855C138.271 33.1405 137.503 33.4241 136.486 33.4241H133.598Z" fill="#01EC64"/>
<path d="M65.3622 31.3052C64.4148 30.789 63.3567 30.5186 62.2125 30.5186C61.0683 30.5186 59.9979 30.7767 59.0628 31.3052C58.1154 31.8215 57.3649 32.5713 56.8112 33.5178C56.2576 34.4643 55.9746 35.5707 55.9746 36.7999C55.9746 38.029 56.2576 39.1354 56.8112 40.0819C57.3649 41.0284 58.1154 41.7783 59.0628 42.2946C60.0102 42.8107 61.0683 43.0812 62.2125 43.0812C63.3567 43.0812 64.4272 42.8231 65.3622 42.2946C66.3097 41.7783 67.0602 41.0284 67.6138 40.0819C68.1674 39.1354 68.4504 38.029 68.4504 36.7999C68.4504 35.5707 68.1674 34.4643 67.6138 33.5178C67.0602 32.5591 66.3097 31.8215 65.3622 31.3052ZM66.2727 36.7999C66.2727 38.3118 65.9036 39.541 65.1653 40.4261C64.4395 41.3111 63.4429 41.7659 62.2125 41.7659C60.9822 41.7659 59.9855 41.3111 59.2597 40.4261C58.5214 39.541 58.1523 38.3118 58.1523 36.7999C58.1523 35.2879 58.5214 34.0588 59.2597 33.1737C59.9855 32.2887 60.9822 31.8338 62.2125 31.8338C63.4429 31.8338 64.4395 32.2887 65.1653 33.1737C65.9036 34.0588 66.2727 35.2756 66.2727 36.7999Z" fill="#01EC64"/>
<path d="M108.966 31.3052C108.018 30.789 106.96 30.5186 105.816 30.5186C104.672 30.5186 103.601 30.7767 102.666 31.3052C101.719 31.8215 100.968 32.5713 100.415 33.5178C99.8611 34.4643 99.5781 35.5707 99.5781 36.7999C99.5781 38.029 99.8611 39.1354 100.415 40.0819C100.968 41.0284 101.719 41.7783 102.666 42.2946C103.614 42.8107 104.672 43.0812 105.816 43.0812C106.96 43.0812 108.031 42.8231 108.966 42.2946C109.913 41.7783 110.664 41.0284 111.217 40.0819C111.771 39.1354 112.054 38.029 112.054 36.7999C112.054 35.5707 111.771 34.4643 111.217 33.5178C110.664 32.5591 109.901 31.8215 108.966 31.3052ZM109.876 36.7999C109.876 38.3118 109.507 39.541 108.769 40.4261C108.043 41.3111 107.046 41.7659 105.816 41.7659C104.586 41.7659 103.589 41.3111 102.863 40.4261C102.125 39.541 101.756 38.3118 101.756 36.7999C101.756 35.2756 102.125 34.0588 102.863 33.1737C103.589 32.2887 104.586 31.8338 105.816 31.8338C107.046 31.8338 108.043 32.2887 108.769 33.1737C109.495 34.0588 109.876 35.2756 109.876 36.7999Z" fill="#01EC64"/>
<path d="M91.3813 30.5186C90.3899 30.5186 89.4854 30.7284 88.6676 31.1483C87.8497 31.5682 87.2054 32.1363 86.7469 32.8648C86.2885 33.581 86.0531 34.3838 86.0531 35.2358C86.0531 36.0014 86.2265 36.7053 86.5858 37.3351C86.9328 37.9402 87.4037 38.4464 87.9985 38.8663L86.2265 41.2621C86.0034 41.5584 85.9787 41.9535 86.1398 42.2746C86.3132 42.608 86.6354 42.8057 87.0072 42.8057H87.5152C87.0195 43.1391 86.623 43.5342 86.3504 44.0035C86.0283 44.5344 85.8672 45.0901 85.8672 45.6581C85.8672 46.7202 86.3381 47.597 87.2673 48.2515C88.1844 48.906 89.4729 49.2394 91.0962 49.2394C92.2238 49.2394 93.3018 49.0541 94.2807 48.696C95.272 48.3379 96.0774 47.8069 96.6721 47.1154C97.2794 46.4239 97.5892 45.5841 97.5892 44.6209C97.5892 43.6083 97.2173 42.892 96.35 42.2006C95.6066 41.6201 94.4418 41.3115 92.992 41.3115H88.0356C88.0233 41.3115 88.0108 41.299 88.0108 41.299C88.0108 41.299 87.9985 41.2744 88.0108 41.2621L89.2995 39.5332C89.6465 39.6937 89.9686 39.7925 90.2536 39.8542C90.5509 39.916 90.8856 39.9407 91.2572 39.9407C92.2982 39.9407 93.2399 39.7308 94.0576 39.3109C94.8755 38.8911 95.5322 38.323 96.0031 37.5944C96.4739 36.8782 96.7093 36.0756 96.7093 35.2235C96.7093 34.3096 96.2633 32.6425 95.0489 31.7905C95.0489 31.7781 95.0614 31.7781 95.0614 31.7781L97.7254 32.0745V30.852H93.4629C92.7937 30.6296 92.0999 30.5186 91.3813 30.5186ZM92.8681 38.2489C92.3972 38.4958 91.8892 38.6317 91.3813 38.6317C90.5511 38.6317 89.8199 38.3354 89.2003 37.755C88.5809 37.1745 88.2711 36.3225 88.2711 35.2358C88.2711 34.1492 88.5809 33.297 89.2003 32.7166C89.8199 32.1363 90.5511 31.8398 91.3813 31.8398C91.9017 31.8398 92.3972 31.9634 92.8681 32.2226C93.339 32.4697 93.7231 32.8525 94.0329 33.3588C94.3302 33.8651 94.4913 34.4949 94.4913 35.2358C94.4913 35.9891 94.3426 36.6188 94.0329 37.1128C93.7355 37.6192 93.339 37.9896 92.8681 38.2489ZM89.5101 42.7932H92.8681C93.7975 42.7932 94.3923 42.9785 94.7888 43.3737C95.1853 43.7688 95.3835 44.2998 95.3835 44.9173C95.3835 45.8188 95.0242 46.5597 94.3055 47.1154C93.5868 47.6711 92.6203 47.9551 91.4308 47.9551C90.3899 47.9551 89.5225 47.7205 88.8905 47.2759C88.2586 46.8314 87.9364 46.1522 87.9364 45.2878C87.9364 44.7444 88.0852 44.2381 88.3826 43.7936C88.6799 43.349 89.0393 43.0279 89.5101 42.7932Z" fill="#01EC64"/>
<path d="M145.696 42.6289C145.451 42.4955 145.267 42.3015 145.12 42.0712C144.985 41.8288 144.911 41.5742 144.911 41.2954C144.911 41.0166 144.985 40.7499 145.12 40.5196C145.255 40.2771 145.451 40.0953 145.696 39.9619C145.941 39.8286 146.211 39.7559 146.517 39.7559C146.823 39.7559 147.093 39.8286 147.338 39.9619C147.583 40.0953 147.767 40.2893 147.914 40.5196C148.049 40.762 148.123 41.0166 148.123 41.2954C148.123 41.5742 148.049 41.8409 147.914 42.0712C147.779 42.3137 147.583 42.4955 147.338 42.6289C147.093 42.7622 146.823 42.8349 146.517 42.8349C146.223 42.8349 145.941 42.7622 145.696 42.6289ZM147.204 42.447C147.411 42.338 147.559 42.1683 147.682 41.9743C147.792 41.7682 147.853 41.5379 147.853 41.2833C147.853 41.0288 147.792 40.7984 147.682 40.5923C147.571 40.3862 147.411 40.2287 147.204 40.1196C146.995 40.0104 146.774 39.9498 146.517 39.9498C146.26 39.9498 146.039 40.0104 145.83 40.1196C145.623 40.2287 145.474 40.3984 145.352 40.5923C145.242 40.7984 145.18 41.0288 145.18 41.2833C145.18 41.5379 145.242 41.7682 145.352 41.9743C145.463 42.1803 145.623 42.338 145.83 42.447C146.039 42.5561 146.26 42.6167 146.517 42.6167C146.774 42.6167 147.007 42.5683 147.204 42.447ZM145.855 42.0228V41.9137L145.88 41.9015H145.954C145.977 41.9015 146.002 41.8894 146.014 41.8772C146.039 41.8531 146.039 41.8409 146.039 41.8166V40.6893C146.039 40.665 146.027 40.6408 146.014 40.6287C145.989 40.6045 145.977 40.6045 145.954 40.6045H145.88L145.855 40.5923V40.4833L145.88 40.4711H146.517C146.701 40.4711 146.836 40.5074 146.946 40.5923C147.057 40.6771 147.105 40.7862 147.105 40.9317C147.105 41.0408 147.069 41.1499 146.983 41.2226C146.897 41.3075 146.799 41.356 146.676 41.3682L146.823 41.4166L147.105 41.8652C147.13 41.9015 147.154 41.9137 147.191 41.9137H147.264L147.277 41.9257V42.0349L147.264 42.0469H146.885L146.86 42.0349L146.468 41.3803H146.37V41.8166C146.37 41.8409 146.382 41.8652 146.395 41.8772C146.419 41.9015 146.432 41.9015 146.455 41.9015H146.529L146.554 41.9137V42.0228L146.529 42.0349H145.88L145.855 42.0228ZM146.48 41.2348C146.579 41.2348 146.664 41.2105 146.713 41.1499C146.762 41.1014 146.799 41.0166 146.799 40.9196C146.799 40.8226 146.774 40.7499 146.726 40.6893C146.676 40.6287 146.602 40.6045 146.517 40.6045H146.468C146.443 40.6045 146.419 40.6165 146.407 40.6287C146.382 40.6529 146.382 40.665 146.382 40.6893V41.2348H146.48Z" fill="#01EC64"/>
</g>
<defs>
<clipPath id="clip0_2658_5187">
<rect width="136.122" height="34.2394" fill="white" transform="translate(12 15)"/>
</clipPath>
</defs>
</svg>
