<svg width="160" height="64" viewBox="0 0 160 64" fill="none" xmlns="http://www.w3.org/2000/svg">
<g clip-path="url(#clip0_2658_5245)">
<path d="M34.701 27.4079H25.6059C24.7103 27.4079 24 26.6946 24 25.8295V20.5784C24 19.6981 24.7258 19 25.6059 19H33.0951C33.9907 19 34.701 19.7133 34.701 20.5784V27.4079Z" fill="#FD5402"/>
<path d="M44.4557 36.5668H34.7109V27.3945H44.4557C45.3987 27.3945 46.1763 28.1713 46.1763 29.1133V34.8481C46.1763 35.8066 45.3987 36.5668 44.4557 36.5668Z" fill="#FD5402"/>
<path d="M33.0951 44.9998H25.6059C24.7258 44.9998 24 44.2878 24 43.4242V38.1674C24 37.3039 24.7258 36.5918 25.6059 36.5918H34.701V43.4242C34.701 44.2878 33.9753 44.9998 33.0951 44.9998Z" fill="#FD5402"/>
<path d="M64.3351 26.733L63.5949 27.4244H62.8548L62.6245 26.5487C62.5751 26.3336 62.3613 26.1953 62.1146 26.1953H57.3775C57.0814 26.1953 56.8512 26.4104 56.8512 26.6562V28.1772C56.8512 28.4383 57.0814 28.6381 57.3775 28.6381H60.1737V35.7665H56.917C56.6209 35.7665 56.3906 35.9816 56.3906 36.2274V37.7484C56.3906 38.0095 56.6209 38.2092 56.917 38.2092H67.1642C67.4603 38.2092 67.6905 37.9942 67.6905 37.7484V36.2274C67.6905 35.9662 67.4603 35.7665 67.1642 35.7665H63.3976V30.7275C63.3976 29.3141 64.2858 28.5766 66.0293 28.5766H68.8584C69.1544 28.5766 69.3847 28.3615 69.3847 28.1157V26.4411C69.3847 26.18 69.1544 25.9803 68.8584 25.9803H67.1806C65.947 25.9649 64.9766 26.18 64.3351 26.733Z" fill="white"/>
<path d="M76.4942 25.9795C72.3595 25.9795 70.1445 28.1212 70.1445 32.4686C70.1445 36.8319 72.3431 38.9736 76.4122 38.9736C79.5624 38.9736 81.597 37.695 82.1384 35.5053C82.2204 35.2016 81.9579 34.914 81.6298 34.914H79.6609C79.4476 34.914 79.2507 35.0418 79.1687 35.2336C78.8241 36.1766 77.8396 36.6241 76.5106 36.6241C74.4433 36.6241 73.4588 35.5213 73.3276 32.9481H82.3025C82.7947 28.1372 80.7438 25.9795 76.4942 25.9795ZM73.426 30.9981C73.7378 29.1122 74.7058 28.2331 76.4778 28.2331C78.3647 28.2331 79.2507 29.2081 79.2999 30.9981H73.426Z" fill="white"/>
<path d="M91.9398 25.9795C90.8718 25.9795 90.1022 26.209 89.5054 26.7598L88.7672 27.4484H88.0918L87.8405 26.5609C87.7777 26.362 87.5892 26.209 87.3536 26.209H85.9401C85.6574 26.209 85.4375 26.4232 85.4375 26.668V42.3364C85.4375 42.5965 85.6574 42.7954 85.9401 42.7954H88.0133C88.296 42.7954 88.5159 42.5812 88.5159 42.3364V38.9395L88.2489 37.1187L88.9399 36.9657L89.6781 37.6542C90.2592 38.1745 90.966 38.4346 92.0183 38.4346C95.0653 38.4346 96.9029 36.3842 96.9029 32.2071C96.8872 28.0298 95.0653 25.9795 91.9398 25.9795ZM90.9189 35.9252C89.364 35.9252 88.5002 35.1449 88.5002 33.6607V30.7229C88.5002 29.2387 89.3483 28.4583 90.9189 28.4583C92.8193 28.4583 93.6831 29.6212 93.6831 32.1765C93.6674 34.7623 92.8193 35.9252 90.9189 35.9252Z" fill="white"/>
<path d="M135.119 27.7767V26.1939C135.119 25.9221 134.895 25.7143 134.607 25.7143H129.054V22.6447C129.054 22.3729 128.83 22.165 128.542 22.165H126.43C126.142 22.165 125.918 22.3889 125.918 22.6447V25.7143H122.637C122.349 25.7143 122.125 25.9381 122.125 26.1939V27.7767C122.125 28.0485 122.349 28.2563 122.637 28.2563H125.918V32.9567C125.918 36.5539 127.614 38.2166 131.262 38.2166H134.239C134.527 38.2166 134.751 37.9927 134.751 37.7369V36.1542C134.751 35.8824 134.527 35.6745 134.239 35.6745H131.743C129.758 35.6745 129.054 34.8912 129.054 32.9407V28.2723H134.607C134.895 28.2563 135.119 28.0325 135.119 27.7767Z" fill="white"/>
<path d="M109.4 35.7507H106.191V21.8667C106.191 21.603 105.971 21.4014 105.688 21.4014H99.3969C99.1138 21.4014 98.8936 21.6185 98.8936 21.8667V23.4025C98.8936 23.6662 99.1138 23.8679 99.3969 23.8679H103.109V35.7507H98.9408C98.6577 35.7507 98.4375 35.9678 98.4375 36.2161V37.7518C98.4375 38.0155 98.6577 38.2172 98.9408 38.2172H109.4C109.683 38.2172 109.903 38 109.903 37.7518V36.2161C109.903 35.9523 109.683 35.7507 109.4 35.7507Z" fill="white"/>
<path d="M118.47 21.2051H115.623C115.339 21.2051 115.117 21.4265 115.117 21.6795V23.6878C115.117 23.9566 115.339 24.1622 115.623 24.1622H118.47C118.754 24.1622 118.976 23.9408 118.976 23.6878V21.6795C118.96 21.4106 118.738 21.2051 118.47 21.2051Z" fill="white"/>
<path d="M118.854 35.8313V26.4539C118.854 26.1851 118.632 25.9795 118.348 25.9795H111.975C111.69 25.9795 111.469 26.2009 111.469 26.4539V28.0194C111.469 28.2883 111.69 28.4938 111.975 28.4938H115.754V35.8313H111.975C111.69 35.8313 111.469 36.0527 111.469 36.3058V37.8713C111.469 38.1401 111.69 38.3457 111.975 38.3457H122.728C123.013 38.3457 123.234 38.1243 123.234 37.8713V36.3058C123.234 36.0369 123.013 35.8313 122.728 35.8313H118.854Z" fill="white"/>
</g>
<defs>
<clipPath id="clip0_2658_5245">
<rect width="112" height="26" fill="white" transform="translate(24 19)"/>
</clipPath>
</defs>
</svg>
