<svg width="160" height="64" viewBox="0 0 160 64" fill="none" xmlns="http://www.w3.org/2000/svg">
<g clip-path="url(#clip0_2658_5302)">
<path d="M60.5474 28.9971C57.1368 28.9971 55.0469 31.204 55.0469 35.0828C55.0469 38.9616 57.1368 41.1518 60.5474 41.1518C63.9581 41.1518 66.0313 38.9449 66.0313 35.0828C66.0313 31.2207 63.9916 28.9971 60.5474 28.9971ZM60.5474 39.3796C58.3907 39.3796 57.5213 37.6074 57.5213 35.0995C57.538 32.5582 58.3907 30.8027 60.5474 30.8027C62.7042 30.8027 63.5736 32.5582 63.5736 35.0828C63.5736 37.6074 62.7042 39.3796 60.5474 39.3796Z" fill="#CCFF00"/>
<path d="M91.796 28.9971C90.1074 28.9971 89.121 29.7661 88.3853 30.7526C88.285 30.8696 88.2014 30.9866 88.0342 30.9866C87.867 30.9866 87.7333 30.8696 87.7333 30.6355V29.2311H85.5264V40.9345H87.867V34.4809C87.867 32.391 88.9872 30.903 90.7427 30.903C92.3979 30.903 93.2171 31.856 93.2171 33.9292V40.9345H95.5578V33.3106C95.5578 30.6188 94.3373 28.9971 91.796 28.9971Z" fill="#CCFF00"/>
<path d="M104.302 28.9977C102.73 28.9977 101.71 29.6999 101.025 30.586C100.925 30.703 100.841 30.8201 100.674 30.8201C100.507 30.8201 100.373 30.703 100.373 30.469V24.1826H98.0322V40.9351H100.373V34.4816C100.373 32.3917 101.493 30.9037 103.249 30.9037C104.904 30.9037 105.723 31.8567 105.723 33.9298V40.9351H108.064V33.3112C108.064 30.6195 106.843 28.9977 104.302 28.9977Z" fill="#CCFF00"/>
<path d="M115.37 28.9971C111.959 28.9971 109.869 31.204 109.869 35.0828C109.869 38.9616 111.959 41.1518 115.37 41.1518C118.78 41.1518 120.854 38.9449 120.854 35.0828C120.837 31.204 118.814 28.9971 115.37 28.9971ZM115.37 39.3796C113.213 39.3796 112.344 37.6074 112.344 35.0995C112.344 32.5917 113.213 30.8194 115.37 30.8194C117.526 30.8194 118.396 32.5749 118.396 35.0995C118.379 37.5907 117.526 39.3796 115.37 39.3796Z" fill="#CCFF00"/>
<path d="M127.641 28.9971C124.231 28.9971 122.141 31.204 122.141 35.0828C122.141 38.9616 124.231 41.1518 127.641 41.1518C131.052 41.1518 133.125 38.9449 133.125 35.0828C133.125 31.2207 131.085 28.9971 127.641 28.9971ZM127.641 39.3796C125.484 39.3796 124.615 37.6074 124.615 35.0995C124.615 32.5917 125.484 30.8194 127.641 30.8194C129.798 30.8194 130.667 32.5749 130.667 35.0995C130.667 37.6241 129.798 39.3796 127.641 39.3796Z" fill="#CCFF00"/>
<path d="M82.9852 29.2314H80.6445V40.9348H82.9852V29.2314Z" fill="#CCFF00"/>
<path d="M83.0518 24.1826H80.5439V26.8577H83.0518V24.1826Z" fill="#CCFF00"/>
<path d="M142.856 24.1826V30.168C142.856 30.4021 142.722 30.5191 142.555 30.5191C142.438 30.5191 142.271 30.4021 142.204 30.3352C141.368 29.4491 140.465 28.9977 139.044 28.9977C136.519 28.9977 134.463 30.9371 134.463 35.0834C134.463 39.2298 136.519 41.1525 139.044 41.1525C140.515 41.1525 141.435 40.584 142.321 39.6979C142.455 39.5641 142.555 39.4806 142.672 39.4806C142.839 39.4806 142.973 39.5976 142.973 39.8317V40.9351H145.197V24.1826H142.856ZM139.93 39.3635C137.773 39.3802 136.904 37.5913 136.904 35.0834C136.904 32.5756 137.773 30.8034 139.93 30.8034C142.087 30.8034 142.956 32.5589 142.956 35.0834C142.956 37.608 142.12 39.3635 139.93 39.3635Z" fill="#CCFF00"/>
<path d="M74.1233 28.9977C72.7022 28.9977 71.7994 29.4491 70.9634 30.3352C70.8965 30.4021 70.7293 30.5191 70.6123 30.5191C70.4451 30.5191 70.3114 30.4021 70.3114 30.168V24.1826H67.9707V40.9351H70.1776V39.8317C70.1776 39.5976 70.3114 39.4806 70.4786 39.4806C70.5956 39.4806 70.6959 39.5474 70.8297 39.6979C71.7158 40.584 72.6353 41.1525 74.1066 41.1525C76.6312 41.1525 78.7043 39.2298 78.7043 35.0834C78.7043 30.9371 76.6479 28.9977 74.1233 28.9977ZM73.2205 39.3802C71.047 39.3802 70.1943 37.608 70.1943 35.1002C70.1943 32.5923 71.0303 30.8201 73.2205 30.8201C75.4107 30.8201 76.2466 32.5756 76.2466 35.1002C76.2466 37.5913 75.3772 39.3802 73.2205 39.3802Z" fill="#CCFF00"/>
<path d="M51.3693 33.4784C51.1854 33.4116 51.1185 33.2945 51.1185 33.1441C51.1185 32.9769 51.1854 32.91 51.4028 32.793C52.6734 32.1911 53.4425 30.9873 53.4425 29.3488C53.4425 26.4732 51.6368 24.7344 48.0088 24.7344H41.7559V40.9351H44.2303V34.2475H48.2261C50.1154 34.2475 50.7507 35.05 50.8009 36.3541L51.0349 40.9351H53.4759L53.2251 36.1869C53.1248 34.6153 52.5062 33.8964 51.3693 33.4784ZM47.8416 32.3248H44.2303V26.7072H47.8416C49.7141 26.7072 50.8677 27.6268 50.8677 29.516C50.8677 31.4053 49.7141 32.3248 47.8416 32.3248Z" fill="#CCFF00"/>
<path d="M26.8695 25.9043H21.7869C21.603 25.9043 21.4475 25.9779 21.3187 26.1384L17.674 30.6525C17.139 31.3213 17.0052 31.9399 17.0052 32.826V37.4404C15.8182 40.7675 15.0658 43.0246 14.5141 45.0643C14.4806 45.1947 14.5308 45.265 14.6478 45.265H15.1996C15.2999 45.265 15.4002 45.2148 15.4336 45.1312C19.5967 34.5313 24.1275 29.2815 26.9698 26.1384C27.0868 26.0046 27.0366 25.9043 26.8695 25.9043Z" fill="#CCFF00"/>
<path d="M27.0196 20.7049C26.6786 20.837 26.3509 21.061 26.2004 21.1897C24.6957 22.4771 23.6925 23.497 22.7396 24.5001C22.6225 24.6172 22.6727 24.7342 22.8399 24.7342H28.4742C28.9925 24.7342 29.2934 25.0351 29.2934 25.5534V31.9067C29.2934 32.0738 29.4272 32.124 29.5275 31.9735L32.9215 27.543C33.4732 26.8241 33.6404 26.6067 33.7909 25.6036C33.9915 24.1323 33.8745 21.8752 32.9883 20.939C32.2025 20.103 28.6581 20.0696 27.0196 20.7049Z" fill="#CCFF00"/>
<path d="M27.8724 27.1747C24.3782 31.0702 21.6529 35.1664 19.1284 40.0985C19.0648 40.2222 19.1451 40.3326 19.2956 40.2824L24.5119 38.6774C25.1004 38.4968 25.4315 38.2594 25.7157 37.7913L28.0396 33.9626C28.0898 33.8623 28.1065 33.7453 28.1065 33.6617V27.275C28.1065 27.1078 27.9895 27.0409 27.8724 27.1747Z" fill="#CCFF00"/>
</g>
<defs>
<clipPath id="clip0_2658_5302">
<rect width="130.693" height="25" fill="white" transform="translate(14.5039 20.2646)"/>
</clipPath>
</defs>
</svg>
