<svg width="160" height="64" viewBox="0 0 160 64" fill="none" xmlns="http://www.w3.org/2000/svg">
<g clip-path="url(#clip0_2658_5299)">
<path d="M30.7751 35.8896L34.5094 42.724H27.5807L24.4277 36.8834H21.4407V42.724H15.1348V22.0202H26.668C31.4389 22.0202 34.4679 24.6681 34.4679 29.43C34.4679 32.4942 33.0573 34.6892 30.7751 35.8896ZM21.4407 27.401V31.5004H25.9212C27.2488 31.5004 28.0785 30.7136 28.0785 29.43C28.0785 28.1464 27.2488 27.401 25.9212 27.401H21.4407ZM54.5473 44.2545L35.671 39.1613L40.7324 20.3203L50.1704 22.8669L59.6086 25.4135L54.5473 44.2545ZM50.9794 30.3824L45.7106 28.9331L44.3001 34.1919L49.5689 35.6416L50.9794 30.3824ZM81.2235 36.8834C81.2235 40.8585 78.6928 42.724 74.7516 42.724H62.3887V22.0202H74.3368C78.278 22.0202 80.8087 24.0492 80.8087 27.6102C80.8087 29.8463 79.9789 31.3374 78.4023 32.3726C80.1863 33.1567 81.2235 34.7306 81.2235 36.8834ZM68.5286 26.9891V30.0533H72.6336C73.7538 30.0533 74.4175 29.5564 74.4175 28.4798C74.4175 27.486 73.7538 26.9891 72.6336 26.9891H68.5286ZM68.5286 37.7552H73.1337C74.2122 37.7552 74.8367 37.1754 74.8367 36.1812C74.8367 35.105 74.2145 34.6081 73.1337 34.6081H68.5286V37.7552ZM84.335 22.0202H90.6401V36.5939H99.684V42.724H84.3341L84.335 22.0202ZM122.876 32.3726C122.876 34.5019 122.244 36.5834 121.058 38.3539C119.873 40.1244 118.188 41.5042 116.218 42.3191C114.247 43.1339 112.078 43.3472 109.986 42.9317C107.893 42.5163 105.971 41.4909 104.463 39.9852C102.954 38.4796 101.927 36.5613 101.511 34.4729C101.094 32.3845 101.308 30.2198 102.124 28.2526C102.941 26.2854 104.323 24.604 106.097 23.421C107.871 22.238 109.956 21.6066 112.09 21.6066C113.507 21.6038 114.911 21.8802 116.221 22.4201C117.53 22.9601 118.72 23.7528 119.723 24.7528C120.725 25.7529 121.519 26.9405 122.06 28.2478C122.602 29.555 122.879 30.956 122.876 32.3704V32.3726ZM116.57 32.3726C116.57 29.8049 114.537 27.7759 112.09 27.7759C109.642 27.7759 107.609 29.8049 107.609 32.3726C107.609 34.9403 109.642 36.9689 112.09 36.9689C114.537 36.9689 116.57 34.9372 116.57 32.3704V32.3726ZM138.06 32.0409L144.865 42.724H137.353L133.621 36.635L129.763 42.724H122.13L129.224 32.2889L122.71 22.0202H130.219L133.663 27.6102L136.982 22.0202H144.449L138.06 32.0409Z" fill="white"/>
</g>
<defs>
<clipPath id="clip0_2658_5299">
<rect width="129.73" height="24" fill="white" transform="translate(15.1348 20.3203)"/>
</clipPath>
</defs>
</svg>
