<svg width="160" height="64" viewBox="0 0 160 64" fill="none" xmlns="http://www.w3.org/2000/svg">
<g clip-path="url(#clip0_2658_5257)">
<path fill-rule="evenodd" clip-rule="evenodd" d="M10.2826 32.8878L18.7204 24.3466C19.2937 23.7663 20.0565 23.4472 20.8695 23.4472C21.682 23.4472 22.4448 23.766 23.0175 24.3463L23.6749 25.0118L24.99 23.6806L24.3326 23.0151C23.409 22.0803 22.1792 21.5654 20.8689 21.5654C19.5592 21.5657 18.3291 22.0806 17.4056 23.0157L8.96777 31.5566L10.2826 32.8878Z" fill="white"/>
<path fill-rule="evenodd" clip-rule="evenodd" d="M21.573 27.1835L20.2517 25.8542L11.7742 34.3827C10.5837 35.5803 8.64672 35.5806 7.45654 34.3833C6.26605 33.1857 6.26605 31.2368 7.45654 30.0392L14.7718 22.6805L13.4505 21.3516L6.13552 28.7103C4.21655 30.6407 4.21655 33.7821 6.13552 35.7123C7.06342 36.6457 8.29902 37.1601 9.61492 37.1601C10.9311 37.1601 12.1673 36.6454 13.0952 35.712L21.573 27.1835Z" fill="white"/>
<path fill-rule="evenodd" clip-rule="evenodd" d="M29.9607 28.7806C29.0331 27.8471 27.7975 27.333 26.481 27.333C25.1647 27.3333 23.9285 27.8474 23.0006 28.7812L14.5234 37.3095L15.8442 38.6388L24.322 30.1101C25.5127 28.9125 27.4495 28.9128 28.6396 30.1098C29.2153 30.689 29.5324 31.46 29.5324 32.2815C29.5324 33.1033 29.2153 33.8746 28.6396 34.4537L21.3247 41.8126L22.646 43.1416L29.9607 35.783C31.88 33.8525 31.88 30.7111 29.9607 28.7806Z" fill="white"/>
<path fill-rule="evenodd" clip-rule="evenodd" d="M25.8129 31.6064L17.3752 40.1476C16.19 41.3467 14.2625 41.3473 13.0779 40.1479L12.4205 39.4824L11.1055 40.8137L11.7629 41.4791C12.6864 42.4139 13.9161 42.9288 15.2267 42.9288C16.5364 42.9285 17.7662 42.4136 18.69 41.4785L27.1276 32.9376L25.8129 31.6064Z" fill="white"/>
<path fill-rule="evenodd" clip-rule="evenodd" d="M39.1914 34.4705C39.3002 35.0155 39.5553 35.4421 39.956 35.7496C40.3563 36.0576 40.8832 36.2113 41.5365 36.2113C42.1794 36.2113 42.6764 36.06 43.0277 35.7572C43.3791 35.4547 43.5546 35.056 43.5546 34.5614C43.5546 34.3192 43.5076 34.1149 43.4137 33.9484C43.3196 33.7818 43.1886 33.6406 43.0205 33.5244C42.8519 33.4089 42.6444 33.31 42.3971 33.2295C42.1498 33.1487 41.8726 33.063 41.5658 32.9721L40.7648 32.7452C40.2897 32.6141 39.8642 32.4552 39.4883 32.2682C39.1121 32.0816 38.7907 31.862 38.5237 31.6098C38.2567 31.3576 38.0536 31.0675 37.9152 30.7394C37.7768 30.4115 37.7074 30.0303 37.7074 29.5966C37.7074 29.1425 37.7965 28.7238 37.9747 28.3401C38.1526 27.9571 38.405 27.6286 38.7315 27.3562C39.058 27.0839 39.4536 26.8695 39.9189 26.7127C40.3835 26.5569 40.9077 26.4785 41.4917 26.4785C42.59 26.4785 43.4604 26.7432 44.1039 27.273C44.7467 27.803 45.1226 28.5118 45.2317 29.3999L43.4508 29.5512C43.3417 29.0971 43.1243 28.7439 42.7978 28.4917C42.4713 28.2395 42.0162 28.1132 41.4325 28.1132C40.8883 28.1132 40.4628 28.2419 40.1563 28.4993C39.8492 28.7567 39.6958 29.0873 39.6958 29.4908C39.6958 29.7229 39.7407 29.9168 39.8298 30.0733C39.9189 30.2301 40.0472 30.3661 40.2155 30.482C40.3835 30.5982 40.589 30.7016 40.8312 30.7921C41.0737 30.883 41.3482 30.9794 41.6549 31.08L42.4121 31.3222C42.8866 31.4735 43.3148 31.6324 43.6954 31.7989C44.0764 31.9654 44.4005 32.1648 44.6675 32.3969C44.9348 32.629 45.1402 32.9066 45.2835 33.2295C45.427 33.5525 45.4988 33.9511 45.4988 34.4253C45.4988 34.9301 45.3998 35.3918 45.2021 35.8103C45.0039 36.2293 44.7273 36.5849 44.3709 36.8774C44.0148 37.1702 43.592 37.3974 43.1019 37.5584C42.6121 37.7197 42.0706 37.8009 41.477 37.8009C40.3788 37.8009 39.4635 37.5386 38.7315 37.0137C37.9992 36.4888 37.5492 35.6968 37.3809 34.637L39.1914 34.4705Z" fill="white"/>
<path fill-rule="evenodd" clip-rule="evenodd" d="M53.1606 28.3195C52.6267 28.3195 52.1494 28.42 51.7291 28.6204C51.3086 28.821 50.9526 29.0991 50.6611 29.4549C50.3691 29.811 50.1464 30.2324 49.9931 30.7181C49.84 31.2047 49.7635 31.7335 49.7635 32.3049C49.7635 32.8765 49.8424 33.4077 50.0008 33.8992C50.1587 34.3904 50.384 34.8163 50.6758 35.1776C50.9672 35.5382 51.3235 35.8214 51.7441 36.0273C52.164 36.2325 52.6414 36.3351 53.1755 36.3351C53.7097 36.3351 54.1867 36.2376 54.6073 36.0421C55.0273 35.8466 55.3836 35.5734 55.6753 35.2222C55.967 34.8716 56.1921 34.4478 56.3502 33.9517C56.5084 33.4554 56.5876 32.9114 56.5876 32.32C56.5876 31.7384 56.5084 31.202 56.3502 30.7108C56.1921 30.2199 55.967 29.7985 55.6753 29.4476C55.3836 29.097 55.0249 28.821 54.5995 28.6204C54.1745 28.42 53.6947 28.3195 53.1606 28.3195ZM53.1755 26.6924C53.9766 26.6924 54.7086 26.8305 55.3713 27.1068C56.0337 27.383 56.5974 27.7695 57.0625 28.2667C57.527 28.7643 57.8878 29.3593 58.1455 30.0523C58.4025 30.7454 58.5311 31.5037 58.5311 32.3273C58.5311 33.1816 58.3951 33.9523 58.1234 34.6402C57.8507 35.3284 57.4631 35.9234 56.9585 36.4256L58.3828 38.1283V38.6556H56.5729L55.5788 37.4204C55.2326 37.581 54.8614 37.7063 54.4662 37.7968C54.0705 37.8873 53.6451 37.9325 53.1905 37.9325C52.3694 37.9325 51.6302 37.7941 50.9726 37.5181C50.3147 37.2419 49.7557 36.8551 49.296 36.3579C48.836 35.8606 48.48 35.2683 48.228 34.5798C47.9757 33.8919 47.8496 33.1412 47.8496 32.3273C47.8496 31.5037 47.9757 30.7481 48.228 30.0596C48.48 29.372 48.8384 28.7791 49.3035 28.2819C49.768 27.7846 50.3293 27.3955 50.9872 27.114C51.6451 26.8332 52.3745 26.6924 53.1755 26.6924Z" fill="white"/>
<path fill-rule="evenodd" clip-rule="evenodd" d="M65.7941 36.2422C66.553 36.2422 67.1443 36.0029 67.5681 35.5235C67.9917 35.0441 68.2038 34.3101 68.2038 33.3212V26.6924H70.0666V33.3666C70.0666 34.1537 69.9681 34.827 69.7709 35.3872C69.5734 35.947 69.2928 36.4063 68.9282 36.7646C68.5636 37.1229 68.115 37.3852 67.583 37.5517C67.0508 37.7181 66.4544 37.8011 65.7941 37.8011C65.1236 37.8011 64.5249 37.7181 63.9979 37.5517C63.4704 37.3852 63.0245 37.1229 62.6599 36.7646C62.2953 36.4063 62.0144 35.947 61.817 35.3872C61.6198 34.827 61.5215 34.1537 61.5215 33.3666V26.6924H63.3843V33.3212C63.3843 34.3101 63.5961 35.0441 64.02 35.5235C64.4438 36.0029 65.0351 36.2422 65.7941 36.2422Z" fill="white"/>
<path fill-rule="evenodd" clip-rule="evenodd" d="M75.4025 32.9313H78.967L78.3804 31.2354C78.1495 30.5711 77.9643 30.0304 77.824 29.6141C77.6834 29.1974 77.5579 28.8306 77.4479 28.5131H76.9819C76.9216 28.6816 76.8613 28.8503 76.8013 29.0188C76.741 29.1876 76.6734 29.3761 76.5983 29.5841C76.5228 29.7924 76.4404 30.0304 76.3501 30.2984C76.2598 30.5657 76.1495 30.8784 76.0192 31.2354L75.4025 32.9313ZM71.9883 37.0671L75.8237 26.9062H78.6664L82.4561 37.0671V37.5877H80.5913L79.5085 34.5379H74.831L73.7483 37.5877H71.9883V37.0671Z" fill="white"/>
<path fill-rule="evenodd" clip-rule="evenodd" d="M86.6536 31.7858H88.2772C88.9924 31.7858 89.5557 31.6554 89.9678 31.3952C90.3798 31.1348 90.5863 30.7097 90.5863 30.1195C90.5863 29.52 90.3774 29.1025 89.9603 28.8666C89.5434 28.631 88.9825 28.5129 88.2772 28.5129H86.6536V31.7858ZM92.9245 37.5877H91.122L87.86 33.3925H86.6536V37.5877H84.8066V26.9062H88.2772C88.8231 26.9062 89.3423 26.9434 89.8336 27.0178C90.3252 27.0921 90.7697 27.2632 91.1671 27.5309C92.0107 28.0861 92.4333 28.9241 92.4333 30.0443C92.4333 30.5305 92.3612 30.9543 92.2169 31.3164C92.0728 31.6782 91.8816 31.9854 91.6436 32.2384C91.405 32.4914 91.1295 32.697 90.8171 32.8553C90.5041 33.0142 90.1788 33.1332 89.8411 33.2123L92.9245 37.0667V37.5877Z" fill="white"/>
<path fill-rule="evenodd" clip-rule="evenodd" d="M95.2744 26.9062H102.219V28.5425H97.1116V31.3394H101.861V32.946H97.1116V35.9511H102.324V37.5877H95.2744V26.9062Z" fill="white"/>
<path fill-rule="evenodd" clip-rule="evenodd" d="M106.486 34.4705C106.594 35.0155 106.849 35.4421 107.25 35.7496C107.65 36.0576 108.177 36.2113 108.83 36.2113C109.473 36.2113 109.97 36.06 110.322 35.7572C110.673 35.4547 110.849 35.056 110.849 34.5614C110.849 34.3192 110.802 34.1149 110.707 33.9484C110.614 33.7818 110.482 33.6406 110.314 33.5244C110.146 33.4089 109.938 33.31 109.691 33.2295C109.444 33.1487 109.166 33.063 108.86 32.9721L108.059 32.7452C107.584 32.6141 107.158 32.4552 106.782 32.2682C106.406 32.0816 106.085 31.862 105.818 31.6098C105.551 31.3576 105.348 31.0675 105.209 30.7394C105.071 30.4115 105.001 30.0303 105.001 29.5966C105.001 29.1425 105.09 28.7238 105.269 28.3401C105.447 27.9571 105.699 27.6286 106.025 27.3562C106.352 27.0839 106.747 26.8695 107.213 26.7127C107.677 26.5569 108.202 26.4785 108.785 26.4785C109.884 26.4785 110.754 26.7432 111.398 27.273C112.04 27.803 112.417 28.5118 112.525 29.3999L110.745 29.5512C110.636 29.0971 110.418 28.7439 110.092 28.4917C109.765 28.2395 109.31 28.1132 108.726 28.1132C108.182 28.1132 107.757 28.2419 107.45 28.4993C107.143 28.7567 106.99 29.0873 106.99 29.4908C106.99 29.7229 107.035 29.9168 107.124 30.0733C107.213 30.2301 107.341 30.3661 107.509 30.482C107.677 30.5982 107.883 30.7016 108.125 30.7921C108.368 30.883 108.642 30.9794 108.949 31.08L109.706 31.3222C110.181 31.4735 110.608 31.6324 110.989 31.7989C111.37 31.9654 111.694 32.1648 111.961 32.3969C112.228 32.629 112.434 32.9066 112.577 33.2295C112.721 33.5525 112.793 33.9511 112.793 34.4253C112.793 34.9301 112.694 35.3918 112.496 35.8103C112.298 36.2293 112.021 36.5849 111.665 36.8774C111.308 37.1702 110.886 37.3974 110.396 37.5584C109.906 37.7197 109.364 37.8009 108.771 37.8009C107.673 37.8009 106.757 37.5386 106.025 37.0137C105.293 36.4888 104.843 35.6968 104.675 34.637L106.486 34.4705Z" fill="white"/>
<path fill-rule="evenodd" clip-rule="evenodd" d="M117.462 31.875H119.279C119.612 31.875 119.918 31.848 120.195 31.7938C120.473 31.7398 120.715 31.649 120.922 31.521C121.129 31.3933 121.291 31.2213 121.407 31.0049C121.523 30.7888 121.581 30.5232 121.581 30.2085C121.581 29.8841 121.523 29.6117 121.407 29.3905C121.291 29.1693 121.131 28.9948 120.93 28.8668C120.728 28.7388 120.488 28.648 120.211 28.5941C119.933 28.5401 119.633 28.5128 119.31 28.5128H117.462V31.875ZM115.569 26.9062H119.537C120.274 26.9062 120.892 26.9905 121.392 27.1592C121.891 27.3277 122.295 27.5606 122.603 27.8585C122.911 28.1559 123.133 28.5054 123.269 28.9073C123.405 29.3086 123.474 29.7427 123.474 30.2088C123.474 30.7645 123.38 31.2477 123.194 31.6592C123.007 32.0707 122.737 32.4103 122.384 32.6783C122.03 32.946 121.601 33.1468 121.096 33.2808C120.591 33.4148 120.021 33.4816 119.385 33.4816H117.462V37.5877H115.569V26.9062Z" fill="white"/>
<path fill-rule="evenodd" clip-rule="evenodd" d="M127.316 32.9313H130.88L130.293 31.2354C130.063 30.5711 129.877 30.0304 129.737 29.6141C129.596 29.1974 129.471 28.8306 129.361 28.5131H128.895C128.835 28.6816 128.774 28.8503 128.714 29.0188C128.654 29.1876 128.586 29.3761 128.511 29.5841C128.436 29.7924 128.353 30.0304 128.263 30.2984C128.173 30.5657 128.063 30.8784 127.932 31.2354L127.316 32.9313ZM123.901 37.0671L127.737 26.9062H130.579L134.369 37.0671V37.5877H132.504L131.422 34.5379H126.744L125.661 37.5877H123.901V37.0671Z" fill="white"/>
<path fill-rule="evenodd" clip-rule="evenodd" d="M145.691 34.7633C145.521 35.1804 145.299 35.5728 145.024 35.9409C144.749 36.3091 144.417 36.6316 144.028 36.907C143.638 37.1824 143.186 37.4003 142.671 37.5605C142.157 37.7207 141.585 37.8011 140.955 37.8011C140.156 37.8011 139.429 37.6619 138.775 37.3838C138.121 37.1062 137.562 36.7213 137.099 36.2302C136.637 35.7384 136.28 35.1531 136.028 34.4729C135.776 33.7931 135.65 33.0559 135.65 32.2614C135.65 31.4676 135.776 30.7304 136.028 30.0503C136.28 29.3704 136.639 28.7821 137.107 28.2855C137.574 27.7896 138.136 27.3995 138.79 27.1169C139.444 26.8337 140.176 26.6924 140.985 26.6924C142.164 26.6924 143.151 26.9657 143.945 27.5114C144.74 28.0572 145.301 28.7821 145.631 29.6854L143.728 30.0575C143.468 29.5117 143.106 29.0821 142.641 28.7695C142.177 28.4568 141.615 28.3005 140.955 28.3005C140.426 28.3005 139.954 28.4019 139.539 28.6047C139.125 28.8076 138.775 29.0869 138.49 29.443C138.205 29.7988 137.988 30.2192 137.838 30.704C137.689 31.1886 137.614 31.7076 137.614 32.2614C137.614 32.8252 137.691 33.3469 137.846 33.8267C138 34.3067 138.225 34.7216 138.52 35.073C138.815 35.424 139.172 35.6982 139.592 35.8959C140.011 36.094 140.491 36.193 141.03 36.193C141.73 36.193 142.306 36.024 142.761 35.6865C143.216 35.349 143.568 34.9371 143.818 34.4504L145.691 34.7633Z" fill="white"/>
<mask id="mask0_2658_5257" style="mask-type:luminance" maskUnits="userSpaceOnUse" x="148" y="26" width="8" height="12">
<path d="M148.136 26.7773H155.226V37.5623H148.136V26.7773Z" fill="white"/>
</mask>
<g mask="url(#mask0_2658_5257)">
<path fill-rule="evenodd" clip-rule="evenodd" d="M148.136 26.7773H155.12V28.4295H149.983V31.2534H154.76V32.8756H149.983V35.9098H155.226V37.5623H148.136V26.7773Z" fill="white"/>
</g>
</g>
<defs>
<clipPath id="clip0_2658_5257">
<rect width="155.736" height="26.49" fill="white" transform="translate(2.13184 19.002)"/>
</clipPath>
</defs>
</svg>
