<svg width="160" height="64" viewBox="0 0 160 64" fill="none" xmlns="http://www.w3.org/2000/svg">
<g clip-path="url(#clip0_2658_5222)">
<path d="M46.4364 43.7598C50.7962 43.7598 54.1672 40.388 54.1672 35.3985V15.9795H58.8861V47.4457H54.2122V44.5236C52.0998 46.726 49.1785 47.9847 45.8966 47.9847C39.1538 47.9847 33.9844 43.0851 33.9844 35.6713V15.9847H38.7033V35.3985C38.7033 40.4779 42.0294 43.7598 46.4349 43.7598" fill="white"/>
<path d="M62.3934 15.9795H66.9331V27.442C67.9918 26.3575 69.2574 25.4963 70.6548 24.9094C72.0522 24.3225 73.5531 24.0219 75.0687 24.0252C81.8116 24.0252 87.1152 29.3745 87.1152 36.0274C87.1152 42.6353 81.8116 47.9839 75.0687 47.9839C73.5458 47.988 72.0374 47.688 70.632 47.1014C69.2266 46.5148 67.9525 45.6534 66.8844 44.5679V47.4435H62.3867L62.3934 15.9795ZM74.7546 43.9839C79.0702 43.9839 82.6212 40.4322 82.6212 36.0274C82.6212 31.5769 79.0702 28.0709 74.7546 28.0709C70.3941 28.0709 66.8431 31.5769 66.8431 36.0274C66.8431 40.4322 70.3491 43.9839 74.7546 43.9839Z" fill="white"/>
<path d="M100.692 24.0703C107.299 24.0703 112.154 29.1498 112.154 35.9826V37.4661H93.5019C94.1316 41.1969 97.2328 43.984 101.096 43.984C103.751 43.984 105.997 42.9046 107.704 40.6122L110.986 43.0395C108.693 46.0965 105.277 47.9391 101.096 47.9391C94.2194 47.9391 88.915 42.8146 88.915 35.9826C88.915 29.5096 93.9945 24.0703 100.692 24.0703M93.5897 33.8701H107.569C106.806 30.3634 103.973 28.0261 100.602 28.0261C97.2314 28.0261 94.3993 30.3634 93.5897 33.8701Z" fill="white"/>
<path d="M124.336 28.5662C121.369 28.5662 119.211 30.8585 119.211 34.4095V47.4454H114.671V24.5205H119.169V27.3548C120.292 25.5114 122.136 24.3428 124.653 24.3428H126.226V28.5684L124.336 28.5662Z" fill="white"/>
</g>
<defs>
<clipPath id="clip0_2658_5222">
<rect width="92.2396" height="32" fill="white" transform="translate(34 16)"/>
</clipPath>
</defs>
</svg>
