<svg width="1512" height="3235" viewBox="0 0 1512 3235" fill="none" xmlns="http://www.w3.org/2000/svg">
<g clip-path="url(#clip0_199_338)">
<path d="M-19.3505 23.5015L263.906 276.5M263.906 276.5L422.436 23.5015L501.515 -74L649.906 534.5M263.906 276.5L649.906 534.5M263.906 276.5L339.528 529.324M649.906 534.5L1562.22 189.416L960.7 529.324M649.906 534.5L821.52 607.972M649.906 534.5L789.888 23.5015M649.906 534.5L442.469 909.634L352.214 576.19M649.906 534.5L-19.3505 1150.96M352.214 576.19C-0.709076 492.586 -42.547 480.663 -19.3505 485.152L339.528 529.324M352.214 576.19L339.528 529.324M821.52 607.972L1562.22 1690.72M821.52 607.972L960.7 529.324M1562.22 1690.72L960.7 529.324M1562.22 1690.72L1393 2152.91M1562.22 1690.72L1431.7 1843.17M1393 2152.91L1057.17 2280.58L1431.7 1843.17M1393 2152.91L1507.4 2497.94M1621.8 2842.97L1431.7 1843.17M1621.8 2842.97L1507.4 2497.94M1621.8 2842.97L841.553 3412.35L1507.4 2497.94M-19.3505 1798.46L391.859 2636.65M391.859 2636.65L-19.3505 2441.11M391.859 2636.65L555.815 3033.12M-19.3505 2441.11L268.232 2737.11M-19.3505 2441.11L198.38 3242.13L245.3 3412.35L112.975 3377.61M-19.3505 2441.11L189.417 3211.96M-19.3505 2441.11L112.975 3377.61M555.815 3033.12L268.232 2737.11M555.815 3033.12L189.417 3211.96M268.232 2737.11L189.417 3211.96M189.417 3211.96L-19.3505 3342.86L112.975 3377.61" stroke="#F1F1F1" stroke-width="4.11855"/>
<circle cx="264.354" cy="279.948" r="32.9484" fill="#F1F1F1"/>
<circle cx="1380.51" cy="2154.51" r="32.9484" fill="#F1F1F1"/>
<circle cx="264.387" cy="2735.23" r="32.9484" fill="#F1F1F1"/>
<circle cx="415.229" cy="21.6191" r="24.1965" fill="#F1F1F1"/>
<circle cx="656.284" cy="546.878" r="47.8781" fill="#F1F1F1"/>
<circle cx="439.591" cy="868.185" r="41.1855" fill="#F1F1F1"/>
<circle cx="377.648" cy="2632.27" r="41.1855" fill="#F1F1F1"/>
<circle cx="1067.5" cy="2259.54" r="41.1855" fill="#F1F1F1"/>
<circle cx="-27.5148" cy="2449.5" r="68.4709" fill="#F1F1F1"/>
<circle cx="1413.46" cy="1847.68" r="41.1855" fill="#F1F1F1"/>
<circle cx="1495.83" cy="2491.2" r="41.1855" fill="#F1F1F1"/>
<circle cx="1546.8" cy="1685.51" r="92.1526" fill="#F1F1F1"/>
<circle cx="205.183" cy="3170.25" r="92.1526" fill="#F1F1F1"/>
<circle cx="819.362" cy="613.146" r="41.1855" fill="#F1F1F1"/>
<circle cx="334.403" cy="519.449" r="20.5927" fill="#F1F1F1"/>
<circle cx="398.24" cy="737.732" r="20.5927" fill="#F1F1F1"/>
<circle cx="951.156" cy="525.627" r="20.5927" fill="#F1F1F1"/>
<circle cx="551.656" cy="3023.53" r="20.5927" fill="#F1F1F1"/>
<circle cx="1454.65" cy="1971.24" r="20.5927" fill="#F1F1F1"/>
<circle cx="349.332" cy="571.445" r="10.8112" fill="#F1F1F1"/>
<circle cx="-21.8518" cy="483.412" r="32.9484" fill="#F1F1F1"/>
<rect x="-3" y="2" width="1514" height="210" fill="url(#paint0_linear_199_338)"/>
</g>
<defs>
<linearGradient id="paint0_linear_199_338" x1="754" y1="2" x2="754" y2="212" gradientUnits="userSpaceOnUse">
<stop stop-color="#D9D9D9"/>
<stop offset="1" stop-color="#D9D9D9" stop-opacity="0"/>
</linearGradient>
<clipPath id="clip0_199_338">
<rect width="1566" height="3468" fill="white" transform="translate(-27 -52)"/>
</clipPath>
</defs>
</svg>
