<svg width="90" height="90" viewBox="0 0 90 90" fill="none" xmlns="http://www.w3.org/2000/svg">
<mask id="path-1-outside-1_5713_2487" maskUnits="userSpaceOnUse" x="0" y="0" width="90" height="90" fill="black">
<rect fill="white" width="90" height="90"/>
<path fill-rule="evenodd" clip-rule="evenodd" d="M38 12C34.6863 12 32 14.6863 32 18V23H36V18C36 16.8954 36.8954 16 38 16H52C53.1046 16 54 16.8954 54 18V23H58V18C58 14.6863 55.3137 12 52 12H38ZM18 31H72C73.1046 31 74 31.8954 74 33V45.4448C73.5519 45.5561 73.0121 45.6882 72.3935 45.8361C70.451 46.3005 67.7356 46.9199 64.6467 47.539C58.4305 48.7849 50.8435 50 44.9999 50C39.1564 50 31.5694 48.7849 25.3531 47.539C22.2642 46.9199 19.5488 46.3005 17.6063 45.8361C16.9878 45.6882 16.448 45.5561 16 45.4448V33C16 31.8954 16.8954 31 18 31ZM16 49.5635V72C16 73.1046 16.8954 74 18 74H72C73.1046 74 74 73.1046 74 72V49.5635C73.7862 49.6154 73.5606 49.6698 73.3237 49.7264C71.3453 50.1995 68.5806 50.8301 65.4328 51.461C59.1757 52.7151 51.2627 54 44.9999 54C38.7372 54 30.8242 52.7151 24.567 51.461C21.4192 50.8301 18.6545 50.1995 16.6761 49.7264C16.4393 49.6698 16.2137 49.6154 16 49.5635ZM12 33C12 29.6863 14.6863 27 18 27H72C75.3137 27 78 29.6863 78 33V72C78 75.3137 75.3137 78 72 78H18C14.6863 78 12 75.3137 12 72V33ZM39 43C39 41.8954 39.8954 41 41 41H49C50.1046 41 51 41.8954 51 43C51 44.1046 50.1046 45 49 45H41C39.8954 45 39 44.1046 39 43Z"/>
</mask>
<path fill-rule="evenodd" clip-rule="evenodd" d="M38 12C34.6863 12 32 14.6863 32 18V23H36V18C36 16.8954 36.8954 16 38 16H52C53.1046 16 54 16.8954 54 18V23H58V18C58 14.6863 55.3137 12 52 12H38ZM18 31H72C73.1046 31 74 31.8954 74 33V45.4448C73.5519 45.5561 73.0121 45.6882 72.3935 45.8361C70.451 46.3005 67.7356 46.9199 64.6467 47.539C58.4305 48.7849 50.8435 50 44.9999 50C39.1564 50 31.5694 48.7849 25.3531 47.539C22.2642 46.9199 19.5488 46.3005 17.6063 45.8361C16.9878 45.6882 16.448 45.5561 16 45.4448V33C16 31.8954 16.8954 31 18 31ZM16 49.5635V72C16 73.1046 16.8954 74 18 74H72C73.1046 74 74 73.1046 74 72V49.5635C73.7862 49.6154 73.5606 49.6698 73.3237 49.7264C71.3453 50.1995 68.5806 50.8301 65.4328 51.461C59.1757 52.7151 51.2627 54 44.9999 54C38.7372 54 30.8242 52.7151 24.567 51.461C21.4192 50.8301 18.6545 50.1995 16.6761 49.7264C16.4393 49.6698 16.2137 49.6154 16 49.5635ZM12 33C12 29.6863 14.6863 27 18 27H72C75.3137 27 78 29.6863 78 33V72C78 75.3137 75.3137 78 72 78H18C14.6863 78 12 75.3137 12 72V33ZM39 43C39 41.8954 39.8954 41 41 41H49C50.1046 41 51 41.8954 51 43C51 44.1046 50.1046 45 49 45H41C39.8954 45 39 44.1046 39 43Z" fill="#FF971E"/>
<path d="M32 23H20V35H32V23ZM36 23V35H48V23H36ZM54 23H42V35H54V23ZM58 23V35H70V23H58ZM74 45.4448L76.8918 57.0912L86 54.8296V45.4448H74ZM72.3935 45.8361L75.1841 57.5071L75.1841 57.5071L72.3935 45.8361ZM64.6467 47.539L67.005 59.305H67.005L64.6467 47.539ZM25.3531 47.539L22.9949 59.305H22.9949L25.3531 47.539ZM17.6063 45.8361L14.8157 57.5071L14.8158 57.5071L17.6063 45.8361ZM16 45.4448H4V54.8296L13.1082 57.0912L16 45.4448ZM16 49.5635L18.8303 37.9021L4 34.3028V49.5635H16ZM74 49.5635H86V34.3029L71.1699 37.902L74 49.5635ZM73.3237 49.7264L76.1143 61.3974L76.1143 61.3974L73.3237 49.7264ZM65.4328 51.461L67.791 63.227H67.791L65.4328 51.461ZM24.567 51.461L22.2088 63.227H22.2088L24.567 51.461ZM16.6761 49.7264L13.8855 61.3974L13.8856 61.3974L16.6761 49.7264ZM44 18C44 21.3137 41.3137 24 38 24V0C28.0589 0 20 8.05887 20 18H44ZM44 23V18H20V23H44ZM36 11H32V35H36V11ZM24 18V23H48V18H24ZM38 4C30.268 4 24 10.268 24 18H48C48 23.5229 43.5228 28 38 28V4ZM52 4H38V28H52V4ZM66 18C66 10.268 59.732 4 52 4V28C46.4772 28 42 23.5229 42 18H66ZM66 23V18H42V23H66ZM58 11H54V35H58V11ZM46 18V23H70V18H46ZM52 24C48.6863 24 46 21.3137 46 18H70C70 8.05888 61.9411 0 52 0V24ZM38 24H52V0H38V24ZM72 19H18V43H72V19ZM86 33C86 25.268 79.732 19 72 19V43C66.4772 43 62 38.5229 62 33H86ZM86 45.4448V33H62V45.4448H86ZM75.1841 57.5071C75.8387 57.3506 76.4123 57.2102 76.8918 57.0912L71.1082 33.7985C70.6916 33.9019 70.1856 34.0257 69.6029 34.1651L75.1841 57.5071ZM67.005 59.305C70.2707 58.6505 73.134 57.9973 75.1841 57.5071L69.603 34.1651C67.7681 34.6038 65.2006 35.1893 62.2885 35.773L67.005 59.305ZM44.9999 62C52.1015 62 60.667 60.5753 67.005 59.305L62.2885 35.773C56.194 36.9945 49.5854 38 44.9999 38V62ZM22.9949 59.305C29.3329 60.5753 37.8984 62 44.9999 62V38C40.4145 38 33.8059 36.9945 27.7113 35.773L22.9949 59.305ZM14.8158 57.5071C16.8659 57.9973 19.7292 58.6505 22.9949 59.305L27.7113 35.773C24.7993 35.1893 22.2318 34.6038 20.3969 34.1651L14.8158 57.5071ZM13.1082 57.0912C13.5877 57.2103 14.1613 57.3506 14.8157 57.5071L20.3969 34.1651C19.8143 34.0258 19.3084 33.9019 18.8918 33.7985L13.1082 57.0912ZM4 33V45.4448H28V33H4ZM18 19C10.268 19 4 25.268 4 33H28C28 38.5228 23.5229 43 18 43V19ZM4 49.5635V72H28V49.5635H4ZM4 72C4 79.732 10.268 86 18 86V62C23.5228 62 28 66.4771 28 72H4ZM18 86H72V62H18V86ZM72 86C79.732 86 86 79.732 86 72H62C62 66.4771 66.4771 62 72 62V86ZM86 72V49.5635H62V72H86ZM71.1699 37.902C70.969 37.9508 70.7565 38.002 70.5331 38.0554L76.1143 61.3974C76.3647 61.3376 76.6035 61.28 76.8301 61.225L71.1699 37.902ZM70.5331 38.0554C68.6624 38.5027 66.0456 39.0995 63.0746 39.695L67.791 63.227C71.1157 62.5606 74.0283 61.8962 76.1143 61.3974L70.5331 38.0554ZM63.0746 39.695C56.9409 40.9243 50.0054 42 44.9999 42V66C52.5199 66 61.4105 64.5058 67.791 63.227L63.0746 39.695ZM44.9999 42C39.9944 42 33.059 40.9243 26.9253 39.695L22.2088 63.227C28.5894 64.5058 37.48 66 44.9999 66V42ZM26.9253 39.695C23.9543 39.0995 21.3375 38.5027 19.4667 38.0554L13.8856 61.3974C15.9716 61.8962 18.8842 62.5606 22.2088 63.227L26.9253 39.695ZM19.4668 38.0554C19.2434 38.002 19.031 37.9508 18.8303 37.9021L13.1697 61.225C13.3964 61.28 13.6352 61.3376 13.8855 61.3974L19.4668 38.0554ZM18 15C8.05888 15 0 23.0589 0 33H24C24 36.3137 21.3137 39 18 39V15ZM72 15H18V39H72V15ZM90 33C90 23.0589 81.9411 15 72 15V39C68.6863 39 66 36.3137 66 33H90ZM90 72V33H66V72H90ZM72 90C81.9411 90 90 81.9411 90 72H66C66 68.6863 68.6863 66 72 66V90ZM18 90H72V66H18V90ZM0 72C0 81.9411 8.05887 90 18 90V66C21.3137 66 24 68.6863 24 72H0ZM0 33V72H24V33H0ZM41 29C33.268 29 27 35.268 27 43H51C51 48.5228 46.5228 53 41 53V29ZM49 29H41V53H49V29ZM63 43C63 35.268 56.732 29 49 29V53C43.4772 53 39 48.5229 39 43H63ZM49 57C56.732 57 63 50.732 63 43H39C39 37.4772 43.4772 33 49 33V57ZM41 57H49V33H41V57ZM27 43C27 50.732 33.268 57 41 57V33C46.5229 33 51 37.4772 51 43H27Z" fill="white" mask="url(#path-1-outside-1_5713_2487)"/>
</svg>
