<svg width="102" height="102" viewBox="0 0 102 102" fill="none" xmlns="http://www.w3.org/2000/svg">
<g filter="url(#filter0_d_5713_2484)">
<mask id="path-1-outside-1_5713_2484" maskUnits="userSpaceOnUse" x="6" y="3" width="90" height="90" fill="black">
<rect fill="white" x="6" y="3" width="90" height="90"/>
<path fill-rule="evenodd" clip-rule="evenodd" d="M44 15C40.6863 15 38 17.6863 38 21V26H42V21C42 19.8954 42.8954 19 44 19H58C59.1046 19 60 19.8954 60 21V26H64V21C64 17.6863 61.3137 15 58 15H44ZM24 34H78C79.1046 34 80 34.8954 80 36V48.4448C79.5519 48.5561 79.0121 48.6882 78.3935 48.8361C76.451 49.3005 73.7356 49.9199 70.6467 50.539C64.4305 51.7849 56.8435 53 50.9999 53C45.1564 53 37.5694 51.7849 31.3531 50.539C28.2642 49.9199 25.5488 49.3005 23.6063 48.8361C22.9878 48.6882 22.448 48.5561 22 48.4448V36C22 34.8954 22.8954 34 24 34ZM22 52.5635V75C22 76.1046 22.8954 77 24 77H78C79.1046 77 80 76.1046 80 75V52.5635C79.7862 52.6154 79.5606 52.6698 79.3237 52.7264C77.3453 53.1995 74.5806 53.8301 71.4328 54.461C65.1757 55.7151 57.2627 57 50.9999 57C44.7372 57 36.8242 55.7151 30.567 54.461C27.4192 53.8301 24.6545 53.1995 22.6761 52.7264C22.4393 52.6698 22.2137 52.6154 22 52.5635ZM18 36C18 32.6863 20.6863 30 24 30H78C81.3137 30 84 32.6863 84 36V75C84 78.3137 81.3137 81 78 81H24C20.6863 81 18 78.3137 18 75V36ZM45 46C45 44.8954 45.8954 44 47 44H55C56.1046 44 57 44.8954 57 46C57 47.1046 56.1046 48 55 48H47C45.8954 48 45 47.1046 45 46Z"/>
</mask>
<path fill-rule="evenodd" clip-rule="evenodd" d="M44 15C40.6863 15 38 17.6863 38 21V26H42V21C42 19.8954 42.8954 19 44 19H58C59.1046 19 60 19.8954 60 21V26H64V21C64 17.6863 61.3137 15 58 15H44ZM24 34H78C79.1046 34 80 34.8954 80 36V48.4448C79.5519 48.5561 79.0121 48.6882 78.3935 48.8361C76.451 49.3005 73.7356 49.9199 70.6467 50.539C64.4305 51.7849 56.8435 53 50.9999 53C45.1564 53 37.5694 51.7849 31.3531 50.539C28.2642 49.9199 25.5488 49.3005 23.6063 48.8361C22.9878 48.6882 22.448 48.5561 22 48.4448V36C22 34.8954 22.8954 34 24 34ZM22 52.5635V75C22 76.1046 22.8954 77 24 77H78C79.1046 77 80 76.1046 80 75V52.5635C79.7862 52.6154 79.5606 52.6698 79.3237 52.7264C77.3453 53.1995 74.5806 53.8301 71.4328 54.461C65.1757 55.7151 57.2627 57 50.9999 57C44.7372 57 36.8242 55.7151 30.567 54.461C27.4192 53.8301 24.6545 53.1995 22.6761 52.7264C22.4393 52.6698 22.2137 52.6154 22 52.5635ZM18 36C18 32.6863 20.6863 30 24 30H78C81.3137 30 84 32.6863 84 36V75C84 78.3137 81.3137 81 78 81H24C20.6863 81 18 78.3137 18 75V36ZM45 46C45 44.8954 45.8954 44 47 44H55C56.1046 44 57 44.8954 57 46C57 47.1046 56.1046 48 55 48H47C45.8954 48 45 47.1046 45 46Z" fill="#FF971E"/>
<path d="M38 26H26V38H38V26ZM42 26V38H54V26H42ZM60 26H48V38H60V26ZM64 26V38H76V26H64ZM80 48.4448L82.8918 60.0912L92 57.8296V48.4448H80ZM78.3935 48.8361L81.1841 60.5071L81.1841 60.5071L78.3935 48.8361ZM70.6467 50.539L73.005 62.305H73.005L70.6467 50.539ZM31.3531 50.539L28.9949 62.305H28.9949L31.3531 50.539ZM23.6063 48.8361L20.8157 60.5071L20.8158 60.5071L23.6063 48.8361ZM22 48.4448H10V57.8296L19.1082 60.0912L22 48.4448ZM22 52.5635L24.8303 40.9021L10 37.3028V52.5635H22ZM80 52.5635H92V37.3029L77.1699 40.902L80 52.5635ZM79.3237 52.7264L82.1143 64.3974L82.1143 64.3974L79.3237 52.7264ZM71.4328 54.461L73.791 66.227H73.791L71.4328 54.461ZM30.567 54.461L28.2088 66.227H28.2088L30.567 54.461ZM22.6761 52.7264L19.8855 64.3974L19.8856 64.3974L22.6761 52.7264ZM50 21C50 24.3137 47.3137 27 44 27V3C34.0589 3 26 11.0589 26 21H50ZM50 26V21H26V26H50ZM42 14H38V38H42V14ZM30 21V26H54V21H30ZM44 7C36.268 7 30 13.268 30 21H54C54 26.5229 49.5228 31 44 31V7ZM58 7H44V31H58V7ZM72 21C72 13.268 65.732 7 58 7V31C52.4772 31 48 26.5229 48 21H72ZM72 26V21H48V26H72ZM64 14H60V38H64V14ZM52 21V26H76V21H52ZM58 27C54.6863 27 52 24.3137 52 21H76C76 11.0589 67.9411 3 58 3V27ZM44 27H58V3H44V27ZM78 22H24V46H78V22ZM92 36C92 28.268 85.732 22 78 22V46C72.4772 46 68 41.5229 68 36H92ZM92 48.4448V36H68V48.4448H92ZM81.1841 60.5071C81.8387 60.3506 82.4123 60.2102 82.8918 60.0912L77.1082 36.7985C76.6916 36.9019 76.1856 37.0257 75.6029 37.1651L81.1841 60.5071ZM73.005 62.305C76.2707 61.6505 79.134 60.9973 81.1841 60.5071L75.603 37.1651C73.7681 37.6038 71.2006 38.1893 68.2885 38.773L73.005 62.305ZM50.9999 65C58.1015 65 66.667 63.5753 73.005 62.305L68.2885 38.773C62.194 39.9945 55.5854 41 50.9999 41V65ZM28.9949 62.305C35.3329 63.5753 43.8984 65 50.9999 65V41C46.4145 41 39.8059 39.9945 33.7113 38.773L28.9949 62.305ZM20.8158 60.5071C22.8659 60.9973 25.7292 61.6505 28.9949 62.305L33.7113 38.773C30.7993 38.1893 28.2318 37.6038 26.3969 37.1651L20.8158 60.5071ZM19.1082 60.0912C19.5877 60.2103 20.1613 60.3506 20.8157 60.5071L26.3969 37.1651C25.8143 37.0258 25.3084 36.9019 24.8918 36.7985L19.1082 60.0912ZM10 36V48.4448H34V36H10ZM24 22C16.268 22 10 28.268 10 36H34C34 41.5228 29.5229 46 24 46V22ZM10 52.5635V75H34V52.5635H10ZM10 75C10 82.732 16.268 89 24 89V65C29.5228 65 34 69.4771 34 75H10ZM24 89H78V65H24V89ZM78 89C85.732 89 92 82.732 92 75H68C68 69.4771 72.4771 65 78 65V89ZM92 75V52.5635H68V75H92ZM77.1699 40.902C76.969 40.9508 76.7565 41.002 76.5331 41.0554L82.1143 64.3974C82.3647 64.3376 82.6035 64.28 82.8301 64.225L77.1699 40.902ZM76.5331 41.0554C74.6624 41.5027 72.0456 42.0995 69.0746 42.695L73.791 66.227C77.1157 65.5606 80.0283 64.8962 82.1143 64.3974L76.5331 41.0554ZM69.0746 42.695C62.9409 43.9243 56.0054 45 50.9999 45V69C58.5199 69 67.4105 67.5058 73.791 66.227L69.0746 42.695ZM50.9999 45C45.9944 45 39.059 43.9243 32.9253 42.695L28.2088 66.227C34.5894 67.5058 43.48 69 50.9999 69V45ZM32.9253 42.695C29.9543 42.0995 27.3375 41.5027 25.4667 41.0554L19.8856 64.3974C21.9716 64.8962 24.8842 65.5606 28.2088 66.227L32.9253 42.695ZM25.4668 41.0554C25.2434 41.002 25.031 40.9508 24.8303 40.9021L19.1697 64.225C19.3964 64.28 19.6352 64.3376 19.8855 64.3974L25.4668 41.0554ZM24 18C14.0589 18 6 26.0589 6 36H30C30 39.3137 27.3137 42 24 42V18ZM78 18H24V42H78V18ZM96 36C96 26.0589 87.9411 18 78 18V42C74.6863 42 72 39.3137 72 36H96ZM96 75V36H72V75H96ZM78 93C87.9411 93 96 84.9411 96 75H72C72 71.6863 74.6863 69 78 69V93ZM24 93H78V69H24V93ZM6 75C6 84.9411 14.0589 93 24 93V69C27.3137 69 30 71.6863 30 75H6ZM6 36V75H30V36H6ZM47 32C39.268 32 33 38.268 33 46H57C57 51.5228 52.5228 56 47 56V32ZM55 32H47V56H55V32ZM69 46C69 38.268 62.732 32 55 32V56C49.4772 56 45 51.5229 45 46H69ZM55 60C62.732 60 69 53.732 69 46H45C45 40.4772 49.4772 36 55 36V60ZM47 60H55V36H47V60ZM33 46C33 53.732 39.268 60 47 60V36C52.5229 36 57 40.4772 57 46H33Z" fill="white" mask="url(#path-1-outside-1_5713_2484)"/>
</g>
<defs>
<filter id="filter0_d_5713_2484" x="0" y="0" width="102" height="102" filterUnits="userSpaceOnUse" color-interpolation-filters="sRGB">
<feFlood flood-opacity="0" result="BackgroundImageFix"/>
<feColorMatrix in="SourceAlpha" type="matrix" values="0 0 0 0 0 0 0 0 0 0 0 0 0 0 0 0 0 0 127 0" result="hardAlpha"/>
<feOffset dy="3"/>
<feGaussianBlur stdDeviation="3"/>
<feComposite in2="hardAlpha" operator="out"/>
<feColorMatrix type="matrix" values="0 0 0 0 0 0 0 0 0 0 0 0 0 0 0 0 0 0 0.25 0"/>
<feBlend mode="normal" in2="BackgroundImageFix" result="effect1_dropShadow_5713_2484"/>
<feBlend mode="normal" in="SourceGraphic" in2="effect1_dropShadow_5713_2484" result="shape"/>
</filter>
</defs>
</svg>
