<svg width="66" height="66" viewBox="0 0 66 66" fill="none" xmlns="http://www.w3.org/2000/svg">
<path fill-rule="evenodd" clip-rule="evenodd" d="M26 0C22.6863 0 20 2.68629 20 6V11H24V6C24 4.89543 24.8954 4 26 4H40C41.1046 4 42 4.89543 42 6V11H46V6C46 2.68629 43.3137 0 40 0H26ZM6 19H60C61.1046 19 62 19.8954 62 21V33.4448C61.5519 33.5561 61.0121 33.6882 60.3935 33.8361C58.451 34.3005 55.7356 34.9199 52.6467 35.539C46.4305 36.7849 38.8435 38 32.9999 38C27.1564 38 19.5694 36.7849 13.3531 35.539C10.2642 34.9199 7.54884 34.3005 5.60633 33.8361C4.9878 33.6882 4.44804 33.5561 4 33.4448V21C4 19.8954 4.89543 19 6 19ZM4 37.5635V60C4 61.1046 4.89543 62 6 62H60C61.1046 62 62 61.1046 62 60V37.5635C61.7862 37.6154 61.5606 37.6698 61.3237 37.7264C59.3453 38.1995 56.5806 38.8301 53.4328 39.461C47.1757 40.7151 39.2627 42 32.9999 42C26.7372 42 18.8242 40.7151 12.567 39.461C9.41922 38.8301 6.65453 38.1995 4.67614 37.7264C4.43932 37.6698 4.21371 37.6154 4 37.5635ZM0 21C0 17.6863 2.68629 15 6 15H60C63.3137 15 66 17.6863 66 21V60C66 63.3137 63.3137 66 60 66H6C2.68629 66 0 63.3137 0 60V21ZM27 31C27 29.8954 27.8954 29 29 29H37C38.1046 29 39 29.8954 39 31C39 32.1046 38.1046 33 37 33H29C27.8954 33 27 32.1046 27 31Z" fill="#FF971E"/>
</svg>
