<svg width="175" height="175" viewBox="0 0 175 175" fill="none" xmlns="http://www.w3.org/2000/svg">
<rect x="8.47852" y="68.731" width="157.5" height="41.4" rx="7.2" fill="white"/>
<ellipse cx="87.2287" cy="87.6309" rx="71.55" ry="72" fill="white"/>
<path fill-rule="evenodd" clip-rule="evenodd" d="M50.939 83.6465C52.9766 65.2187 68.5999 50.8858 87.5709 50.8858C106.542 50.8858 122.165 65.2187 124.203 83.6465H140.653C138.562 56.158 115.595 34.5049 87.5709 34.5049C59.5467 34.5049 36.5799 56.158 34.4883 83.6465H50.939ZM51.627 95.9321H34.959C38.8982 121.447 60.9534 140.981 87.5709 140.981C114.188 140.981 136.244 121.447 140.183 95.9321H123.515C119.791 112.346 105.112 124.6 87.5709 124.6C70.03 124.6 55.351 112.346 51.627 95.9321Z" fill="url(#paint0_linear_3537_32350)"/>
<defs>
<linearGradient id="paint0_linear_3537_32350" x1="42.5234" y1="87.7427" x2="132.618" y2="87.7427" gradientUnits="userSpaceOnUse">
<stop/>
<stop offset="1" stop-color="white"/>
</linearGradient>
</defs>
</svg>
