<svg width="174" height="174" viewBox="0 0 174 174" fill="none" xmlns="http://www.w3.org/2000/svg">
<g clip-path="url(#clip0_11_762)">
<path d="M66.1289 79.0577C66.3075 79.1231 66.4857 79.1831 66.6636 79.2381L69.6319 82.8931C70.1374 88.239 74.5769 92.7347 80.3984 92.7347C86.5866 92.7347 91.2128 87.6548 91.2128 81.8741V70.7104C91.2128 61.8507 84.1401 54.2679 74.9547 54.2679C67.9334 54.2679 61.8416 58.8052 59.604 65.2921C59.6034 65.2938 59.6028 65.2954 59.6022 65.2971C57.7216 70.7509 60.4241 76.9776 66.1289 79.0577ZM72.2867 62.1438C72.2923 62.1458 72.2979 62.1479 72.3035 62.1499C72.3095 62.1521 72.3155 62.1543 72.3215 62.1565L72.2867 62.1438Z" fill="white" stroke="white" stroke-width="18" stroke-linecap="round" stroke-linejoin="round"/>
<path d="M54.224 64.3903C54.1056 64.5088 53.9906 64.6306 53.879 64.7555L30.6143 90.7985C27.3611 94.4401 27.6054 100.012 31.1648 103.355L33.8406 105.868C35.6091 107.529 37.9734 108.405 40.3973 108.299C40.7576 108.283 41.1147 108.245 41.4668 108.187L72.1594 116.816C74.1082 119.131 77.0207 120.644 80.3983 120.644C86.5866 120.644 91.2129 115.564 91.2129 109.783V80.0135C91.2129 68.0748 81.6957 57.9892 69.5111 57.9892C63.7318 57.9892 58.3164 60.2942 54.224 64.3903Z" fill="white" stroke="white" stroke-width="18" stroke-linecap="round" stroke-linejoin="round"/>
<path d="M104.774 82.8931C104.268 88.2419 99.825 92.7347 94.0067 92.7347C87.8171 92.7347 83.1924 87.6534 83.1924 81.8741V70.7104C83.1924 61.8505 90.2654 54.2679 99.4504 54.2679C106.473 54.2679 112.563 58.8056 114.801 65.2901C114.801 65.2912 114.802 65.2924 114.802 65.2935L104.774 82.8931ZM104.774 82.8931L107.742 79.2381M104.774 82.8931L107.742 79.2381M107.742 79.2381C107.92 79.1831 108.098 79.123 108.277 79.0577C113.985 76.9764 116.683 70.7468 114.803 65.2955L107.742 79.2381ZM102.085 62.156C102.091 62.1539 102.097 62.1517 102.103 62.1496C102.108 62.1477 102.113 62.1458 102.118 62.144L102.085 62.156Z" fill="white" stroke="white" stroke-width="18" stroke-linecap="round" stroke-linejoin="round"/>
<path d="M120.527 64.7556C120.415 64.6303 120.3 64.5082 120.181 64.3894C116.088 60.2944 110.674 57.9892 104.894 57.9892C92.7098 57.9892 83.1924 68.0748 83.1924 80.0135V109.783C83.1924 115.563 87.8169 120.644 94.0067 120.644C97.3832 120.644 100.296 119.131 102.246 116.816L132.938 108.188C133.29 108.246 133.647 108.283 134.006 108.299C136.431 108.406 138.795 107.529 140.564 105.868L143.24 103.355C146.8 100.012 147.044 94.4407 143.791 90.7988L120.527 64.7556Z" fill="white" stroke="white" stroke-width="18" stroke-linecap="round" stroke-linejoin="round"/>
<path d="M56.8091 142.971C73.0144 142.971 85.769 129.565 85.769 113.505C85.769 97.4447 73.0147 84.0378 56.8091 84.0378C40.6034 84.0378 27.8491 97.4447 27.8491 113.505C27.8491 129.565 40.6037 142.971 56.8091 142.971Z" fill="white" stroke="white" stroke-width="18" stroke-linecap="round" stroke-linejoin="round"/>
<path d="M56.8094 78.4559C37.6195 78.4559 22.4058 94.3846 22.4058 113.505C22.4058 132.624 37.6197 148.553 56.8094 148.553C75.999 148.553 91.2129 132.624 91.2129 113.505C91.2129 94.3846 75.9992 78.4559 56.8094 78.4559ZM56.8094 123.111C51.9861 123.111 47.6639 119.008 47.6639 113.505C47.6639 108.002 51.9863 103.898 56.8094 103.898C61.6323 103.898 65.9547 108.002 65.9547 113.505C65.9547 119.008 61.6325 123.111 56.8094 123.111Z" fill="white" stroke="white" stroke-width="18" stroke-linecap="round" stroke-linejoin="round"/>
<mask id="path-7-outside-1_11_762" maskUnits="userSpaceOnUse" x="55.6753" y="70.3125" width="63" height="58" fill="black">
<rect fill="white" x="55.6753" y="70.3125" width="63" height="58"/>
<path d="M74.9115 89.3165H99.493L99.7298 89.3125C96.7399 92.8587 94.8846 97.8025 94.8846 103.271V109.783H79.5206V103.271C79.5206 97.8025 77.6653 92.8587 74.6753 89.3125"/>
</mask>
<path d="M74.9115 89.3165H99.493L99.7298 89.3125C96.7399 92.8587 94.8846 97.8025 94.8846 103.271V109.783H79.5206V103.271C79.5206 97.8025 77.6653 92.8587 74.6753 89.3125" fill="white"/>
<path d="M74.9115 71.3165C64.9704 71.3165 56.9115 79.3753 56.9115 89.3165C56.9115 99.2576 64.9704 107.316 74.9115 107.316V71.3165ZM99.493 89.3165V107.316C99.5927 107.316 99.6924 107.316 99.792 107.314L99.493 89.3165ZM99.7298 89.3125L113.491 100.915C118.04 95.5199 119.017 87.964 115.989 81.5894C112.961 75.2148 106.487 71.1978 99.4307 71.315L99.7298 89.3125ZM94.8846 109.783V127.783C104.826 127.783 112.885 119.724 112.885 109.783H94.8846ZM79.5206 109.783H61.5206C61.5206 119.724 69.5795 127.783 79.5206 127.783V109.783ZM88.4365 77.7096C82.0284 70.1095 70.6725 69.1432 63.0723 75.5513C55.4722 81.9594 54.5059 93.3154 60.9141 100.915L88.4365 77.7096ZM74.9115 107.316H99.493V71.3165H74.9115V107.316ZM99.792 107.314L100.029 107.31L99.4307 71.315L99.194 71.3189L99.792 107.314ZM85.9684 77.7098C80.0852 84.6875 76.8846 93.8045 76.8846 103.271H112.885C112.885 101.8 113.395 101.03 113.491 100.915L85.9684 77.7098ZM76.8846 103.271V109.783H112.885V103.271H76.8846ZM94.8846 91.7831H79.5206V127.783H94.8846V91.7831ZM97.5206 109.783V103.271H61.5206V109.783H97.5206ZM97.5206 103.271C97.5206 93.8043 94.3198 84.6872 88.4365 77.7096L60.9141 100.915C61.0107 101.03 61.5206 101.801 61.5206 103.271H97.5206Z" fill="white" mask="url(#path-7-outside-1_11_762)"/>
<path d="M62.7064 126.226C71.8967 126.226 78.9646 118.651 78.9646 109.783C78.9646 100.916 71.8968 93.3409 62.7064 93.3409C53.516 93.3409 46.4482 100.916 46.4482 109.783C46.4482 118.651 53.5161 126.226 62.7064 126.226Z" fill="white" stroke="white" stroke-width="18" stroke-linecap="round" stroke-linejoin="round"/>
<path d="M117.597 142.971C133.802 142.971 146.556 129.565 146.556 113.505C146.556 97.4448 133.803 84.0378 117.597 84.0378C101.39 84.0378 88.6367 97.4448 88.6367 113.505C88.6367 129.565 101.391 142.971 117.597 142.971Z" fill="white" stroke="white" stroke-width="18" stroke-linecap="round" stroke-linejoin="round"/>
<path d="M117.596 78.4559C98.4067 78.4559 83.1924 94.3845 83.1924 113.505C83.1924 132.624 98.4069 148.553 117.596 148.553C136.786 148.553 152 132.624 152 113.505C152 94.3847 136.786 78.4559 117.596 78.4559ZM117.596 123.111C112.773 123.111 108.45 119.007 108.45 113.505C108.45 108.002 112.773 103.898 117.596 103.898C122.419 103.898 126.742 108.002 126.742 113.505C126.742 119.008 122.42 123.111 117.596 123.111Z" fill="white" stroke="white" stroke-width="18" stroke-linecap="round" stroke-linejoin="round"/>
<path d="M56.8094 78.4559C37.6195 78.4559 22.4058 94.3846 22.4058 113.505C22.4058 132.624 37.6197 148.553 56.8094 148.553C75.999 148.553 91.2129 132.624 91.2129 113.505C91.2129 94.3846 75.9992 78.4559 56.8094 78.4559ZM56.8094 123.111C51.9861 123.111 47.6639 119.008 47.6639 113.505C47.6639 108.002 51.9863 103.898 56.8094 103.898C61.6323 103.898 65.9547 108.002 65.9547 113.505C65.9547 119.008 61.6325 123.111 56.8094 123.111Z" fill="white" stroke="white" stroke-width="18" stroke-linecap="round" stroke-linejoin="round"/>
<path d="M123.417 126.226C132.609 126.226 139.675 118.65 139.675 109.783C139.675 100.917 132.609 93.3409 123.417 93.3409C114.227 93.3409 107.159 100.916 107.159 109.783C107.159 118.651 114.227 126.226 123.417 126.226Z" fill="white" stroke="white" stroke-width="18" stroke-linecap="round" stroke-linejoin="round"/>
<path d="M108.905 85.5953C108.905 80.6247 104.875 76.5953 99.9049 76.5953H74.9546C69.984 76.5953 65.9546 80.6247 65.9546 85.5953V89.3165C65.9546 94.2871 69.984 98.3165 74.9546 98.3165H99.9049C104.875 98.3165 108.905 94.2871 108.905 89.3165V85.5953Z" fill="white" stroke="white" stroke-width="18" stroke-linecap="round" stroke-linejoin="round"/>
<path d="M90.5108 111.378C90.5108 109.543 89.9618 107.836 89.0191 106.413C89.4232 104.812 89.3842 103.107 88.8711 101.49C86.7051 94.6635 82.6175 89.0817 76.6558 85.1659C70.8431 81.2999 64.1687 79.5179 57.0029 79.5179C50.791 79.5179 44.9173 80.962 39.5734 83.956C34.2482 86.9183 30.0204 91.1349 26.9798 96.4396L26.9621 96.4707C23.9158 101.835 22.4917 107.79 22.4917 114.101C22.4917 120.411 23.9159 126.367 26.9622 131.731C26.9758 131.755 26.9896 131.779 27.0034 131.802C30.045 137.045 34.2521 141.223 39.5157 144.213C39.554 144.235 39.5924 144.256 39.6309 144.277C44.9797 147.212 50.8594 148.612 57.0746 148.612C62.6435 148.612 67.9487 147.457 72.7975 144.965L72.8386 144.944C77.4544 142.541 81.3759 139.285 84.4389 135.157L84.439 135.157C87.4104 131.152 89.4163 126.682 90.3497 121.815C90.4569 121.257 90.5108 120.689 90.5108 120.12V111.378Z" fill="white" stroke="white" stroke-width="18" stroke-linecap="round" stroke-linejoin="round"/>
<path d="M87.3571 131.832L87.3821 131.874C90.4815 137.104 94.7381 141.263 100.037 144.236C105.358 147.221 111.184 148.684 117.34 148.684C123.496 148.684 129.321 147.222 134.642 144.236C139.953 141.257 144.202 137.08 147.259 131.817C150.421 126.41 151.923 120.403 151.923 114.029C151.923 107.703 150.421 101.742 147.259 96.3834C144.215 91.0954 139.979 86.8918 134.663 83.905C129.358 80.8972 123.518 79.4462 117.34 79.4462C111.184 79.4462 105.358 80.9089 100.038 83.8933C94.717 86.8781 90.461 91.0754 87.3697 96.3481C84.1946 101.716 82.6855 107.689 82.6855 114.029C82.6855 120.409 84.1906 126.421 87.3571 131.832ZM122.65 109.373L122.681 109.433C123.188 110.41 123.603 111.85 123.603 114.029C123.603 116.201 123.191 117.694 122.65 118.757C122.088 119.86 121.442 120.518 120.701 120.979C119.963 121.395 118.929 121.726 117.34 121.726C115.774 121.726 114.693 121.405 113.875 120.958C113.146 120.498 112.511 119.842 111.959 118.759L111.959 118.758C111.418 117.696 111.004 116.203 111.004 114.029C111.004 111.85 111.42 110.411 111.927 109.435L111.959 109.371C112.513 108.284 113.132 107.682 113.815 107.276C114.64 106.813 115.735 106.476 117.34 106.476C118.973 106.476 120.019 106.824 120.76 107.256C121.455 107.662 122.085 108.265 122.65 109.373Z" fill="white" stroke="white" stroke-width="18" stroke-linecap="round" stroke-linejoin="round"/>
<path d="M91.0299 117.157C91.0555 116.952 91.0741 116.746 91.0856 116.54L91.1989 114.498C91.2082 114.332 91.2128 114.166 91.2128 113.999V112.638C91.2128 112.389 91.2024 112.14 91.1817 111.891L91.0993 110.902C91.0806 105.948 87.0584 101.937 82.0994 101.937H81.4189C76.4484 101.937 72.4189 105.966 72.4189 110.937V119.669C72.4189 124.214 75.8076 128.046 80.3185 128.602C84.8295 129.157 89.0468 126.263 90.1499 121.853L90.3767 120.947L90.3772 120.945L90.604 120.037C90.6918 119.686 90.7583 119.33 90.8032 118.971L91.0299 117.157Z" fill="white" stroke="white" stroke-width="18" stroke-linecap="round" stroke-linejoin="round"/>
<path d="M15.1763 70.7039L15.1763 70.7039C16.8929 73.5119 19.1851 75.9515 22.1313 77.7141C22.1691 77.7367 22.207 77.759 22.2452 77.7811C25.232 79.509 28.5409 80.3484 31.9884 80.2557C32.0166 80.2549 32.0449 80.2541 32.0731 80.253C35.5895 80.1254 38.8222 79.0133 41.6798 77.2665L41.6802 77.2662C45.2862 75.0617 48.2498 71.8948 49.8447 67.6714L49.8665 67.613C51.4221 63.4058 51.3102 59.0714 49.8849 55.0033C49.3514 53.4806 48.4263 52.1494 47.2272 51.1279C46.8647 49.595 46.1018 48.1649 44.9899 46.9958C42.0217 43.8752 38.2104 41.7956 33.7428 41.2841C29.2459 40.7529 25.0577 41.933 21.4346 44.1478L21.4345 44.1479C18.5594 45.9055 16.0942 48.2988 14.3908 51.3981C12.6924 54.4526 11.9381 57.8158 12.1331 61.2816L12.1354 61.3216C12.3436 64.7489 13.4629 67.9011 15.1763 70.7039Z" fill="white" stroke="white" stroke-width="18" stroke-linecap="round" stroke-linejoin="round"/>
<mask id="path-19-outside-2_11_762" maskUnits="userSpaceOnUse" x="21.459" y="22.0861" width="59" height="59" fill="black">
<rect fill="white" x="21.459" y="22.0861" width="59" height="59"/>
<path d="M54.5393 61.528C52.733 62.1676 50.9242 62.3358 49.1127 62.0328C47.2947 61.7114 45.6738 60.9611 44.2501 59.7815C42.8381 58.5773 41.7961 57.0264 41.1242 55.129C40.4524 53.2314 40.2894 51.3796 40.6354 49.5734C40.9932 47.7425 41.7807 46.1393 42.9979 44.7638C44.215 43.3883 45.7267 42.3808 47.533 41.7412C49.3575 41.0952 51.1664 40.9269 52.9597 41.2364C54.7712 41.5395 56.3829 42.2932 57.7949 43.4974C59.2005 44.6834 60.2391 46.2251 60.911 48.1226C61.5829 50.0201 61.7491 51.8811 61.4096 53.7055C61.0636 55.5117 60.2852 57.1117 59.0745 58.5054C57.8573 59.8809 56.3456 60.8885 54.5393 61.528ZM52.7757 56.5471C54.1441 56.0626 55.0622 55.2344 55.5302 54.0626C56.0164 52.8843 55.9946 51.5471 55.4649 50.0511C54.9222 48.5185 54.0945 47.4565 52.9816 46.8649C51.8805 46.2487 50.6457 46.1828 49.2773 46.6674C47.8907 47.1583 46.9634 47.9898 46.4955 49.1616C46.021 50.3151 46.0551 51.6583 46.5978 53.1908C47.134 54.7051 47.9527 55.7704 49.0537 56.3866C50.1484 56.9846 51.389 57.0381 52.7757 56.5471Z"/>
</mask>
<path d="M54.5393 61.528C52.733 62.1676 50.9242 62.3358 49.1127 62.0328C47.2947 61.7114 45.6738 60.9611 44.2501 59.7815C42.8381 58.5773 41.7961 57.0264 41.1242 55.129C40.4524 53.2314 40.2894 51.3796 40.6354 49.5734C40.9932 47.7425 41.7807 46.1393 42.9979 44.7638C44.215 43.3883 45.7267 42.3808 47.533 41.7412C49.3575 41.0952 51.1664 40.9269 52.9597 41.2364C54.7712 41.5395 56.3829 42.2932 57.7949 43.4974C59.2005 44.6834 60.2391 46.2251 60.911 48.1226C61.5829 50.0201 61.7491 51.8811 61.4096 53.7055C61.0636 55.5117 60.2852 57.1117 59.0745 58.5054C57.8573 59.8809 56.3456 60.8885 54.5393 61.528ZM52.7757 56.5471C54.1441 56.0626 55.0622 55.2344 55.5302 54.0626C56.0164 52.8843 55.9946 51.5471 55.4649 50.0511C54.9222 48.5185 54.0945 47.4565 52.9816 46.8649C51.8805 46.2487 50.6457 46.1828 49.2773 46.6674C47.8907 47.1583 46.9634 47.9898 46.4955 49.1616C46.021 50.3151 46.0551 51.6583 46.5978 53.1908C47.134 54.7051 47.9527 55.7704 49.0537 56.3866C50.1484 56.9846 51.389 57.0381 52.7757 56.5471Z" fill="white"/>
<path d="M49.1127 62.0328L45.9793 79.758C46.0339 79.7677 46.0885 79.777 46.1432 79.7862L49.1127 62.0328ZM44.2501 59.7815L32.5696 73.477C32.6348 73.5326 32.7004 73.5878 32.7664 73.6424L44.2501 59.7815ZM41.1242 55.129L24.1565 61.137L24.1566 61.1372L41.1242 55.129ZM40.6354 49.5734L22.9696 46.1211C22.9653 46.143 22.9611 46.1648 22.9569 46.1867L40.6354 49.5734ZM42.9979 44.7638L29.5178 32.8353L29.5175 32.8357L42.9979 44.7638ZM47.533 41.7412L53.5407 58.7091L53.5411 58.7089L47.533 41.7412ZM52.9597 41.2364L49.8982 58.9742C49.9286 58.9794 49.9591 58.9846 49.9895 58.9897L52.9597 41.2364ZM57.7949 43.4974L46.1145 57.1929C46.1385 57.2134 46.1627 57.2339 46.1868 57.2543L57.7949 43.4974ZM60.911 48.1226L43.9433 54.1306L43.9434 54.1308L60.911 48.1226ZM61.4096 53.7055L79.0881 57.0922C79.0941 57.061 79.1 57.0298 79.1058 56.9986L61.4096 53.7055ZM59.0745 58.5054L72.5549 70.4334C72.5911 70.3925 72.6272 70.3514 72.663 70.3101L59.0745 58.5054ZM52.7757 56.5471L46.7678 39.5793L46.7673 39.5795L52.7757 56.5471ZM55.5302 54.0626L38.891 47.1969C38.865 47.26 38.8393 47.3232 38.814 47.3867L55.5302 54.0626ZM55.4649 50.0511L38.4972 56.0593L38.4973 56.0594L55.4649 50.0511ZM52.9816 46.8649L44.1913 62.5726C44.3046 62.636 44.4185 62.6981 44.5331 62.759L52.9816 46.8649ZM49.2773 46.6674L55.2848 63.6353L55.2861 63.6349L49.2773 46.6674ZM46.4955 49.1616L63.1423 56.0086C63.1657 55.9517 63.1888 55.8947 63.2117 55.8375L46.4955 49.1616ZM46.5978 53.1908L63.5655 47.1828L63.5654 47.1826L46.5978 53.1908ZM49.0537 56.3866L40.263 72.0941C40.3167 72.1241 40.3706 72.1539 40.4246 72.1834L49.0537 56.3866ZM48.5316 44.5602C48.9537 44.4107 49.5057 44.2722 50.1607 44.2113C50.8198 44.1499 51.4732 44.1776 52.0822 44.2795L46.1432 79.7862C51.0978 80.6149 55.9927 80.1084 60.547 78.4958L48.5316 44.5602ZM52.246 44.3076C52.8154 44.4083 53.4493 44.5953 54.0959 44.8947C54.7425 45.194 55.2927 45.5552 55.7338 45.9206L32.7664 73.6424C36.5886 76.8091 41.086 78.893 45.9793 79.758L52.246 44.3076ZM55.9305 46.086C56.4816 46.556 56.9628 47.0998 57.3507 47.677C57.7338 48.2473 57.9626 48.7557 58.0919 49.1208L24.1566 61.1372C25.7924 65.7568 28.5484 70.0475 32.5696 73.477L55.9305 46.086ZM58.092 49.121C58.3829 49.9426 58.6253 51.3346 58.3139 52.9602L22.9569 46.1867C21.9534 51.4245 22.5218 56.5203 24.1565 61.137L58.092 49.121ZM58.3012 53.0258C58.1899 53.5956 57.9855 54.2519 57.6506 54.9337C57.3149 55.6171 56.9056 56.2089 56.4783 56.6918L29.5175 32.8357C26.1404 36.6522 23.9324 41.1941 22.9696 46.1211L58.3012 53.0258ZM56.4779 56.6922C56.0686 57.1548 55.5781 57.5876 55.0271 57.9548C54.4795 58.3197 53.9631 58.5595 53.5407 58.7091L41.5253 24.7734C36.9703 26.3862 32.847 29.0731 29.5178 32.8353L56.4779 56.6922ZM53.5411 58.7089C52.6496 59.0246 51.3381 59.2227 49.8982 58.9742L56.0211 23.4987C50.9948 22.6312 46.0654 23.1658 41.5249 24.7736L53.5411 58.7089ZM49.9895 58.9897C49.3377 58.8806 48.6227 58.6711 47.9027 58.3344C47.1838 57.9983 46.5842 57.5935 46.1145 57.1929L69.4753 29.8018C65.6085 26.504 60.994 24.3304 55.9298 23.4832L49.9895 58.9897ZM46.1868 57.2543C44.9221 56.1871 44.2343 54.9526 43.9433 54.1306L77.8788 42.1146C76.2439 37.4976 73.4788 33.1797 69.403 29.7405L46.1868 57.2543ZM43.9434 54.1308C43.8141 53.7658 43.672 53.2267 43.6109 52.5425C43.5491 51.8499 43.5809 51.1244 43.7134 50.4124L79.1058 56.9986C80.0727 51.8028 79.5144 46.734 77.8787 42.1144L43.9434 54.1308ZM43.731 50.3189C43.8459 49.7195 44.0536 49.0568 44.3801 48.3857C44.7064 47.715 45.0959 47.1496 45.4859 46.7007L72.663 70.3101C75.9471 66.5297 78.1425 62.0284 79.0881 57.0922L43.731 50.3189ZM45.5941 46.5773C46.0034 46.1147 46.494 45.6818 47.0451 45.3146C47.5928 44.9495 48.1092 44.7097 48.5316 44.5602L60.547 78.4958C65.102 76.8831 69.2256 74.196 72.5549 70.4334L45.5941 46.5773ZM58.7835 73.5149C64.2227 71.589 69.5582 67.4697 72.2464 60.7386L38.814 47.3867C39.5795 45.4697 40.806 43.6654 42.4346 42.1965C44.0131 40.7727 45.6013 39.9924 46.7678 39.5793L58.7835 73.5149ZM72.1693 60.9284C74.7361 54.7078 74.0663 48.6566 72.4325 44.0427L38.4973 56.0594C37.923 54.4376 37.2967 51.0608 38.891 47.1969L72.1693 60.9284ZM72.4325 44.0428C70.8364 39.5354 67.5674 34.2331 61.43 30.9708L44.5331 62.759C40.6215 60.6798 39.0079 57.5016 38.4972 56.0593L72.4325 44.0428ZM61.7718 31.1572C55.4469 27.6177 48.7081 27.7737 43.2686 29.6999L55.2861 63.6349C54.1195 64.048 52.3941 64.441 50.2712 64.3278C48.0811 64.211 45.9925 63.5806 44.1913 62.5726L61.7718 31.1572ZM43.2698 29.6995C37.8917 31.6036 32.4945 35.6867 29.7792 42.4856L63.2117 55.8375C62.4317 57.7905 61.1859 59.6016 59.5578 61.0613C57.9841 62.4723 56.4136 63.2357 55.2848 63.6353L43.2698 29.6995ZM29.8486 42.3145C27.2286 48.6844 28.0678 54.7869 29.6301 59.1991L63.5654 47.1826C64.0424 48.5296 64.8134 51.9458 63.1423 56.0086L29.8486 42.3145ZM29.6301 59.1989C31.2145 63.6735 34.399 68.8122 40.263 72.0941L57.8444 40.6792C61.5064 42.7286 63.0534 45.7367 63.5655 47.1828L29.6301 59.1989ZM40.4246 72.1834C46.8223 75.6782 53.5207 75.3785 58.784 73.5147L46.7673 39.5795C47.8555 39.1941 49.5121 38.8027 51.5807 38.892C53.7239 38.9844 55.8253 39.5751 57.6828 40.5898L40.4246 72.1834Z" fill="white" mask="url(#path-19-outside-2_11_762)"/>
<mask id="path-21-outside-3_11_762" maskUnits="userSpaceOnUse" x="46.3071" y="17.7847" width="56" height="58" fill="black">
<rect fill="white" x="46.3071" y="17.7847" width="56" height="58"/>
<path d="M77.314 55.9957L72.2772 49.058L71.673 49.1395L72.6816 56.6203L67.0423 57.3807L64.3071 37.0962L73.1977 35.8975C74.8282 35.6776 76.2481 35.7791 77.4573 36.2019C78.664 36.6056 79.6224 37.2674 80.3323 38.1872C81.0397 39.0879 81.4761 40.152 81.6416 41.3797C81.8279 42.7607 81.6085 44.0304 80.9835 45.1889C80.3751 46.3256 79.3717 47.2128 77.9734 47.8505L83.6151 55.1461L77.314 55.9957ZM71.1531 45.284L73.944 44.9077C74.7112 44.8042 75.2621 44.5444 75.5966 44.1283C75.9311 43.7121 76.0518 43.1588 75.9587 42.4682C75.8707 41.816 75.6008 41.3349 75.1488 41.0247C74.7135 40.6929 74.1218 40.5773 73.3736 40.6782L70.5828 41.0545L71.1531 45.284Z"/>
</mask>
<path d="M77.314 55.9957L72.2772 49.058L71.673 49.1395L72.6816 56.6203L67.0423 57.3807L64.3071 37.0962L73.1977 35.8975C74.8282 35.6776 76.2481 35.7791 77.4573 36.2019C78.664 36.6056 79.6224 37.2674 80.3323 38.1872C81.0397 39.0879 81.4761 40.152 81.6416 41.3797C81.8279 42.7607 81.6085 44.0304 80.9835 45.1889C80.3751 46.3256 79.3717 47.2128 77.9734 47.8505L83.6151 55.1461L77.314 55.9957ZM71.1531 45.284L73.944 44.9077C74.7112 44.8042 75.2621 44.5444 75.5966 44.1283C75.9311 43.7121 76.0518 43.1588 75.9587 42.4682C75.8707 41.816 75.6008 41.3349 75.1488 41.0247C74.7135 40.6929 74.1218 40.5773 73.3736 40.6782L70.5828 41.0545L71.1531 45.284Z" fill="white"/>
<path d="M77.314 55.9957L62.748 66.5708C66.6384 71.9293 73.1568 74.7191 79.7193 73.8342L77.314 55.9957ZM72.2772 49.058L86.8432 38.4829C82.9529 33.1246 76.4349 30.3348 69.8727 31.2194L72.2772 49.058ZM71.673 49.1395L69.2684 31.3008C64.5372 31.9385 60.2531 34.4297 57.3586 38.2262C54.4642 42.0227 53.1965 46.8135 53.8344 51.5447L71.673 49.1395ZM72.6816 56.6203L75.0869 74.4589C84.9389 73.1305 91.8486 64.067 90.5202 54.2151L72.6816 56.6203ZM67.0423 57.3807L49.2038 59.7861C50.5322 69.638 59.5957 76.5477 69.4476 75.2193L67.0423 57.3807ZM64.3071 37.0962L61.9019 19.2577C57.1708 19.8956 52.8868 22.3868 49.9925 26.1833C47.0982 29.9798 45.8306 34.7705 46.4686 39.5016L64.3071 37.0962ZM73.1977 35.8975L75.603 53.7361L75.6033 53.736L73.1977 35.8975ZM77.4573 36.2019L71.5165 53.1933C71.593 53.2201 71.6697 53.2463 71.7465 53.272L77.4573 36.2019ZM80.3323 38.1872L66.0827 49.1849C66.1137 49.2251 66.1449 49.2651 66.1762 49.305L80.3323 38.1872ZM81.6416 41.3797L63.8031 43.7851L63.8031 43.7853L81.6416 41.3797ZM80.9835 45.1889L65.142 36.6422C65.1326 36.6596 65.1232 36.677 65.1139 36.6945L80.9835 45.1889ZM77.9734 47.8505L70.5038 31.4735C65.5029 33.7545 61.8181 38.1954 60.4992 43.5314C59.1803 48.8674 60.3718 54.5136 63.7343 58.8618L77.9734 47.8505ZM83.6151 55.1461L86.0204 72.9846C92.3955 72.125 97.8273 67.9286 100.269 61.9771C102.71 56.0255 101.789 49.2235 97.8542 44.1348L83.6151 55.1461ZM71.1531 45.284L53.3145 47.6893C54.6429 57.5411 63.7061 64.4508 73.558 63.1226L71.1531 45.284ZM73.944 44.9077L76.3489 62.7464L76.3508 62.7461L73.944 44.9077ZM75.5966 44.1283L89.6256 55.4061L89.6269 55.4044L75.5966 44.1283ZM75.9587 42.4682L93.7974 40.0637L93.7972 40.0625L75.9587 42.4682ZM75.1488 41.0247L64.2356 55.3391C64.4743 55.5211 64.7175 55.6971 64.965 55.867L75.1488 41.0247ZM73.3736 40.6782L70.9685 22.8396L70.9682 22.8396L73.3736 40.6782ZM70.5828 41.0545L68.1773 23.216C58.3254 24.5445 51.4158 33.6079 52.7442 43.4598L70.5828 41.0545ZM91.88 45.4206L86.8432 38.4829L57.7112 59.6331L62.748 66.5708L91.88 45.4206ZM69.8727 31.2194L69.2684 31.3008L74.0775 66.9782L74.6817 66.8967L69.8727 31.2194ZM53.8344 51.5447L54.843 59.0255L90.5202 54.2151L89.5115 46.7343L53.8344 51.5447ZM70.2763 38.7817L64.637 39.5421L69.4476 75.2193L75.0869 74.4589L70.2763 38.7817ZM84.8809 54.9753L82.1457 34.6909L46.4686 39.5016L49.2038 59.7861L84.8809 54.9753ZM66.7124 54.9348L75.603 53.7361L70.7925 18.0589L61.9019 19.2577L66.7124 54.9348ZM75.6033 53.736C75.1977 53.7907 73.6347 53.9339 71.5165 53.1933L83.3981 19.2105C78.8614 17.6243 74.4587 17.5645 70.7922 18.0589L75.6033 53.736ZM71.7465 53.272C69.904 52.6556 67.7609 51.3594 66.0827 49.1849L94.5819 27.1896C91.4839 23.1755 87.4241 20.5557 83.1682 19.1319L71.7465 53.272ZM66.1762 49.305C64.7405 47.477 64.0302 45.4696 63.8031 43.7851L99.4802 38.9742C98.922 34.8345 97.3388 30.6988 94.4884 27.0695L66.1762 49.305ZM63.8031 43.7853C63.5126 41.6313 63.8513 39.0345 65.142 36.6422L96.825 53.7357C99.3657 49.0263 100.143 43.8902 99.4802 38.974L63.8031 43.7853ZM65.1139 36.6945C66.7047 33.7224 69.0263 32.1475 70.5038 31.4735L85.4429 64.2275C89.7172 62.278 94.0454 58.9287 96.8531 53.6833L65.1139 36.6945ZM63.7343 58.8618L69.376 66.1573L97.8542 44.1348L92.2125 36.8393L63.7343 58.8618ZM81.2098 37.3075L74.9087 38.1571L79.7193 73.8342L86.0204 72.9846L81.2098 37.3075ZM73.558 63.1226L76.3489 62.7464L71.5391 27.0691L68.7481 27.4454L73.558 63.1226ZM76.3508 62.7461C79.6457 62.3016 85.3256 60.7549 89.6256 55.4061L61.5677 32.8505C65.1986 28.3339 69.7768 27.3069 71.5372 27.0694L76.3508 62.7461ZM89.6269 55.4044C93.919 50.064 94.3385 44.0779 93.7974 40.0637L58.12 44.8726C57.7651 42.2396 57.9432 37.3602 61.5664 32.8521L89.6269 55.4044ZM93.7972 40.0625C93.1778 35.4692 90.814 29.9435 85.3326 26.1825L64.965 55.867C62.8993 54.4496 61.1993 52.577 59.9924 50.426C58.8246 48.3447 58.3224 46.3734 58.1202 44.8739L93.7972 40.0625ZM86.062 26.7104C80.5787 22.5299 74.6186 22.3474 70.9685 22.8396L75.7788 58.5168C73.6249 58.8072 68.8482 58.8558 64.2356 55.3391L86.062 26.7104ZM70.9682 22.8396L68.1773 23.216L72.9882 58.8931L75.7791 58.5167L70.9682 22.8396ZM52.7442 43.4598L53.3145 47.6893L88.9916 42.8787L88.4213 38.6492L52.7442 43.4598Z" fill="white" mask="url(#path-21-outside-3_11_762)"/>
<mask id="path-23-outside-4_11_762" maskUnits="userSpaceOnUse" x="66.4028" y="15.5972" width="58" height="59" fill="black">
<rect fill="white" x="66.4028" y="15.5972" width="58" height="59"/>
<path d="M104.319 56.2888L98.6408 55.9077L91.8466 43.9871L91.0802 55.4004L85.4028 55.0193L86.7735 34.5972L92.4508 34.9782L99.2362 47.0437L100.011 35.4857L105.689 35.8668L104.319 56.2888Z"/>
</mask>
<path d="M104.319 56.2888L98.6408 55.9077L91.8466 43.9871L91.0802 55.4004L85.4028 55.0193L86.7735 34.5972L92.4508 34.9782L99.2362 47.0437L100.011 35.4857L105.689 35.8668L104.319 56.2888Z" fill="white"/>
<path d="M104.319 56.2888L103.114 74.2484C107.877 74.5681 112.572 72.9825 116.166 69.8405C119.76 66.6984 121.959 62.2573 122.278 57.4941L104.319 56.2888ZM98.6408 55.9077L83.0025 64.8209C85.992 70.066 91.4118 73.4631 97.4355 73.8673L98.6408 55.9077ZM91.8466 43.9871L107.485 35.074C103.552 28.1742 95.5626 24.6671 87.8219 26.4428C80.0813 28.2185 74.4191 34.8574 73.887 42.7813L91.8466 43.9871ZM91.0802 55.4004L89.8748 73.36C99.7934 74.0257 108.374 66.5249 109.04 56.6062L91.0802 55.4004ZM85.4028 55.0193L67.4432 53.8139C66.7775 63.7327 74.2786 72.3131 84.1974 72.9789L85.4028 55.0193ZM86.7735 34.5972L87.9787 16.6376C78.06 15.972 69.4796 23.4731 68.8139 33.3919L86.7735 34.5972ZM92.4508 34.9782L108.14 26.1549C105.163 20.8608 99.7162 17.4253 93.6561 17.0186L92.4508 34.9782ZM99.2362 47.0437L83.5471 55.867C87.4495 62.806 95.4467 66.3574 103.211 64.5993C110.976 62.8412 116.663 56.1914 117.196 48.2482L99.2362 47.0437ZM100.011 35.4857L101.217 17.5261C96.4534 17.2064 91.7582 18.7921 88.164 21.9343C84.5698 25.0765 82.3712 29.5179 82.0517 34.2812L100.011 35.4857ZM105.689 35.8668L123.649 37.0721C124.315 27.1533 116.814 18.5729 106.895 17.9072L105.689 35.8668ZM105.524 38.3292L99.8462 37.9481L97.4355 73.8673L103.114 74.2484L105.524 38.3292ZM114.279 46.9946L107.485 35.074L76.2083 52.9003L83.0025 64.8209L114.279 46.9946ZM73.887 42.7813L73.1207 54.1945L109.04 56.6062L109.806 45.193L73.887 42.7813ZM92.2857 37.4408L86.6083 37.0597L84.1974 72.9789L89.8748 73.36L92.2857 37.4408ZM103.362 56.2247L104.733 35.8026L68.8139 33.3919L67.4432 53.8139L103.362 56.2247ZM85.5682 52.5568L91.2456 52.9378L93.6561 17.0186L87.9787 16.6376L85.5682 52.5568ZM76.7617 43.8015L83.5471 55.867L114.925 38.2204L108.14 26.1549L76.7617 43.8015ZM117.196 48.2482L117.971 36.6902L82.0517 34.2812L81.2766 45.8392L117.196 48.2482ZM98.806 53.4453L104.484 53.8264L106.895 17.9072L101.217 17.5261L98.806 53.4453ZM87.7298 34.6615L86.3593 55.0835L122.278 57.4941L123.649 37.0721L87.7298 34.6615Z" fill="white" mask="url(#path-23-outside-4_11_762)"/>
<path d="M130.001 58.3031C130.346 56.9989 130.391 55.6475 130.147 54.3462L131.074 50.844C131.913 49.8543 132.55 48.6668 132.904 47.3289L134.07 42.9224C134.681 40.6148 134.35 38.1592 133.15 36.0958C131.95 34.0324 129.979 32.5302 127.672 31.9196L115.014 28.5707C112.707 27.9602 110.251 28.2914 108.188 29.4914C106.124 30.6914 104.622 32.6619 104.012 34.9694L98.7764 54.7567C97.5051 59.5619 100.37 64.4879 105.175 65.7592L117.833 69.1081C122.638 70.3795 127.564 67.5148 128.835 62.7096L130.001 58.3031Z" fill="white" stroke="white" stroke-width="18" stroke-linecap="round" stroke-linejoin="round"/>
<path d="M142.26 55.7447C141.59 55.163 140.831 54.6786 140.005 54.3127L137.217 53.0788L140.096 46.5745L139.581 46.3462L139.577 46.3445L137.071 45.2349L131.867 42.9311L121.583 60.7627C121.656 61.5945 121.846 62.4191 122.152 63.212C122.262 63.4958 122.385 63.7727 122.522 64.0416C123.456 65.8825 125 67.3556 126.905 68.1986L132.719 70.7722L132.719 70.7723L134.599 66.5248L136.361 62.5457L136.362 62.5429L138.777 63.6122L138.777 63.6118L142.26 55.7447ZM142.26 55.7447L145.3 48.8783C146.266 46.6956 146.326 44.2184 145.466 41.9918C144.606 39.7651 142.896 37.9713 140.713 37.0051L135.51 34.7017C130.965 32.6898 125.649 34.7433 123.637 39.2883L115.352 58.0045C114.386 60.1871 114.326 62.6642 115.186 64.8908C116.046 67.1174 117.756 68.9111 119.938 69.8773L130.956 74.7544C135.501 76.7664 140.816 74.713 142.829 70.168L144.592 66.1859C145.558 64.0032 145.617 61.526 144.757 59.2993C144.223 57.9157 143.36 56.6993 142.26 55.7447Z" fill="white" stroke="white" stroke-width="18" stroke-linecap="round" stroke-linejoin="round"/>
<path d="M158.68 68.8908C158.36 67.4425 157.69 66.1102 156.745 65.0011L160.782 58.6692C162.065 56.6564 162.496 54.2164 161.98 51.8857C161.465 49.5551 160.044 47.5249 158.031 46.2418L153.233 43.1828C149.041 40.511 143.478 41.7427 140.806 45.9339L129.803 63.193C128.519 65.2058 128.088 67.6458 128.604 69.9764C129.12 72.3069 130.541 74.3371 132.554 75.6202L142.713 82.097C146.904 84.7688 152.468 83.5375 155.14 79.3468L157.481 75.6746C158.765 73.6618 159.196 71.2216 158.68 68.8908Z" fill="white" stroke="white" stroke-width="18" stroke-linecap="round" stroke-linejoin="round"/>
<path d="M74.9547 63.2679C71.8856 63.2679 69.1336 65.2621 68.1112 68.2293C67.7762 69.1977 68.2706 70.2615 69.2169 70.6041C69.8368 70.8325 70.4858 70.6602 70.9622 70.255L78.5838 79.6397V81.8741C78.5838 82.9016 79.3953 83.7347 80.3984 83.7347C81.4013 83.7347 82.2128 82.9016 82.2128 81.8741V70.7104C82.2128 66.6066 78.9576 63.2679 74.9547 63.2679Z" fill="#D09999"/>
<path d="M69.5111 66.9892C66.1851 66.9892 63.0416 68.2984 60.5909 70.7514L37.3262 96.7943L40.0019 99.3073L40.6305 98.6033L78.5838 109.273V109.783C78.5838 110.811 79.3954 111.644 80.3983 111.644C81.4014 111.644 82.2129 110.811 82.2129 109.783V80.0135C82.2129 72.8318 76.5141 66.9892 69.5111 66.9892Z" fill="#FACCCC"/>
<path d="M99.4504 63.2679C102.52 63.2679 105.271 65.2621 106.294 68.2293C106.629 69.1977 106.135 70.2615 105.189 70.6041C104.568 70.8325 103.919 70.6602 103.443 70.255L95.8218 79.6397V81.8741C95.8218 82.9016 95.0097 83.7347 94.0067 83.7347C93.0036 83.7347 92.1924 82.9016 92.1924 81.8741V70.7104C92.1924 66.6066 95.4479 63.2679 99.4504 63.2679Z" fill="#D09999"/>
<path d="M104.894 66.9892C108.22 66.9892 111.363 68.2984 113.815 70.7514L137.079 96.7946L134.403 99.3076L133.775 98.6036L95.8218 109.273V109.783C95.8218 110.811 95.0097 111.644 94.0067 111.644C93.0036 111.644 92.1924 110.811 92.1924 109.783V80.0135C92.1924 72.8318 97.8913 66.9892 104.894 66.9892Z" fill="#FACCCC"/>
<path d="M56.8091 133.971C67.8326 133.971 76.769 124.808 76.769 113.505C76.769 102.201 67.8326 93.0378 56.8091 93.0378C45.7855 93.0378 36.8491 102.201 36.8491 113.505C36.8491 124.808 45.7855 133.971 56.8091 133.971Z" fill="#E4FAFF"/>
<path d="M56.8094 87.4559C42.8015 87.4559 31.4058 99.141 31.4058 113.505C31.4058 127.868 42.8015 139.553 56.8094 139.553C70.8171 139.553 82.2129 127.868 82.2129 113.505C82.2129 99.141 70.8171 87.4559 56.8094 87.4559ZM56.8094 132.111C46.8042 132.111 38.6639 123.764 38.6639 113.505C38.6639 103.246 46.8042 94.8984 56.8094 94.8984C66.8145 94.8984 74.9547 103.246 74.9547 113.505C74.9547 123.764 66.8145 132.111 56.8094 132.111Z" fill="#E95755"/>
<path d="M74.9115 89.3165H99.493L99.7298 89.3125C96.7399 92.8587 94.8846 97.8025 94.8846 103.271V109.783H79.5206V103.271C79.5206 97.8025 77.6653 92.8587 74.6753 89.3125" fill="#D09999"/>
<path d="M62.7064 117.226C66.715 117.226 69.9646 113.894 69.9646 109.783C69.9646 105.673 66.715 102.341 62.7064 102.341C58.6979 102.341 55.4482 105.673 55.4482 109.783C55.4482 113.894 58.6979 117.226 62.7064 117.226Z" fill="white"/>
<path d="M117.597 133.971C128.62 133.971 137.556 124.808 137.556 113.505C137.556 102.201 128.62 93.0378 117.597 93.0378C106.573 93.0378 97.6367 102.201 97.6367 113.505C97.6367 124.808 106.573 133.971 117.597 133.971Z" fill="#E4FAFF"/>
<path d="M117.596 87.4559C103.589 87.4559 92.1924 99.141 92.1924 113.505C92.1924 127.868 103.589 139.553 117.596 139.553C131.604 139.553 143 127.868 143 113.505C143 99.141 131.604 87.4559 117.596 87.4559ZM117.596 132.111C107.591 132.111 99.4504 123.764 99.4504 113.505C99.4504 103.246 107.591 94.8984 117.596 94.8984C127.602 94.8984 135.742 103.246 135.742 113.505C135.742 123.764 127.602 132.111 117.596 132.111Z" fill="#FACCCC"/>
<path d="M56.8094 87.4559C42.8015 87.4559 31.4058 99.141 31.4058 113.505C31.4058 127.868 42.8015 139.553 56.8094 139.553C70.8171 139.553 82.2129 127.868 82.2129 113.505C82.2129 99.141 70.8171 87.4559 56.8094 87.4559ZM56.8094 132.111C46.8042 132.111 38.6639 123.764 38.6639 113.505C38.6639 103.246 46.8042 94.8984 56.8094 94.8984C66.8145 94.8984 74.9547 103.246 74.9547 113.505C74.9547 123.764 66.8145 132.111 56.8094 132.111Z" fill="#FACCCC"/>
<path d="M123.417 117.226C127.426 117.226 130.675 113.894 130.675 109.783C130.675 105.673 127.426 102.341 123.417 102.341C119.409 102.341 116.159 105.673 116.159 109.783C116.159 113.894 119.409 117.226 123.417 117.226Z" fill="white"/>
<path d="M99.9049 85.5953H74.9546V89.3165H99.9049V85.5953Z" fill="#FACCCC"/>
<path d="M68.7552 104.212C67.6086 102.109 66.0321 100.509 64.0256 99.4103C62.0191 98.3115 59.6782 97.7621 57.0029 97.7621C54.0409 97.7621 51.4134 98.4309 49.1202 99.7686C46.8271 101.106 45.0356 103.017 43.7457 105.501C42.4558 107.986 41.8108 110.852 41.8108 114.101C41.8108 117.445 42.4558 120.359 43.7457 122.844C45.0833 125.327 46.9227 127.239 49.2635 128.576C51.6045 129.914 54.3276 130.582 57.4328 130.582C61.2548 130.582 64.3839 129.579 66.8203 127.573C69.2569 125.519 70.8572 122.676 71.6216 119.046H54.4231V111.378H81.5108V120.12C80.842 123.608 79.4087 126.833 77.2112 129.794C75.0135 132.756 72.171 135.145 68.6835 136.96C65.2439 138.728 61.3742 139.612 57.0746 139.612C52.2494 139.612 47.8781 138.537 43.9606 136.387C40.091 134.189 37.0335 131.156 34.7881 127.286C32.5906 123.417 31.4917 119.022 31.4917 114.101C31.4917 109.18 32.5906 104.785 34.7881 100.915C37.0335 96.9977 40.091 93.9641 43.9606 91.8143C47.8781 89.6167 52.2255 88.5179 57.0029 88.5179C62.6402 88.5179 67.537 89.9034 71.6933 92.6742C75.8496 95.3973 78.716 99.2431 80.2925 104.212H68.7552Z" fill="#E95755"/>
<path d="M117.34 139.684C112.658 139.684 108.359 138.585 104.441 136.387C100.524 134.189 97.4182 131.156 95.1248 127.286C92.8322 123.368 91.6855 118.949 91.6855 114.029C91.6855 109.156 92.8322 104.785 95.1248 100.915C97.4182 96.9977 100.524 93.9402 104.441 91.7426C108.359 89.5451 112.658 88.4462 117.34 88.4462C122.069 88.4462 126.369 89.5451 130.239 91.7426C134.156 93.9402 137.238 96.9977 139.483 100.915C141.776 104.785 142.923 109.156 142.923 114.029C142.923 118.949 141.776 123.368 139.483 127.286C137.238 131.156 134.156 134.189 130.239 136.387C126.321 138.585 122.022 139.684 117.34 139.684ZM117.34 130.726C120.349 130.726 123.001 130.057 125.294 128.719C127.587 127.334 129.378 125.375 130.669 122.844C131.958 120.311 132.603 117.373 132.603 114.029C132.603 110.685 131.958 107.771 130.669 105.286C129.378 102.755 127.587 100.82 125.294 99.482C123.001 98.1443 120.349 97.4755 117.34 97.4755C114.33 97.4755 111.655 98.1443 109.314 99.482C107.021 100.82 105.229 102.755 103.94 105.286C102.649 107.771 102.004 110.685 102.004 114.029C102.004 117.373 102.649 120.311 103.94 122.844C105.229 125.375 107.021 127.334 109.314 128.719C111.655 130.057 114.33 130.726 117.34 130.726Z" fill="#E95755"/>
<path d="M82.0994 116.041L81.8726 117.855L81.6458 118.762L81.4189 119.669V110.937H82.0994V111.277L82.2128 112.638V113.999L82.0994 116.041Z" fill="#E95755"/>
<path d="M22.8551 66.0097C21.8052 64.2923 21.2265 62.5477 21.1189 60.776C21.0177 58.9776 21.4005 57.3031 22.2674 55.7524C23.1241 54.1852 24.4112 52.8766 26.1287 51.8267C28.3085 50.4942 30.5 49.9598 32.703 50.2238C34.8959 50.4712 36.8177 51.4628 38.4686 53.1985L33.242 56.3935C32.5243 55.9248 31.7789 55.6887 31.0054 55.6852C30.2484 55.6714 29.5066 55.8867 28.78 56.3309C27.6571 57.0174 27.0044 57.9722 26.822 59.1953C26.646 60.3917 26.9668 61.6587 27.7845 62.9964C28.6123 64.3505 29.6039 65.2302 30.7591 65.6356C31.9207 66.0145 33.0629 65.8606 34.186 65.1741C34.9126 64.7299 35.4423 64.1679 35.7753 63.488C36.1248 62.7979 36.2545 62.0267 36.1645 61.1744L41.3911 57.9792C42.1832 60.24 42.1945 62.4108 41.4251 64.4918C40.6454 66.5563 39.1657 68.2549 36.9859 69.5875C35.2684 70.6373 33.522 71.1945 31.7466 71.259C29.9612 71.3069 28.2963 70.8842 26.7519 69.9908C25.2141 69.0707 23.9151 67.7437 22.8551 66.0097Z" fill="#E95755"/>
<path d="M54.5393 61.528C52.733 62.1676 50.9242 62.3358 49.1127 62.0328C47.2947 61.7114 45.6738 60.9611 44.2501 59.7815C42.8381 58.5773 41.7961 57.0264 41.1242 55.129C40.4524 53.2314 40.2894 51.3796 40.6354 49.5734C40.9932 47.7425 41.7807 46.1393 42.9979 44.7638C44.215 43.3883 45.7267 42.3808 47.533 41.7412C49.3575 41.0952 51.1664 40.9269 52.9597 41.2364C54.7712 41.5395 56.3829 42.2932 57.7949 43.4974C59.2005 44.6834 60.2391 46.2251 60.911 48.1226C61.5829 50.0201 61.7491 51.8811 61.4096 53.7055C61.0636 55.5117 60.2852 57.1117 59.0745 58.5054C57.8573 59.8809 56.3456 60.8885 54.5393 61.528ZM52.7757 56.5471C54.1441 56.0626 55.0622 55.2344 55.5302 54.0626C56.0164 52.8843 55.9946 51.5471 55.4649 50.0511C54.9222 48.5185 54.0945 47.4565 52.9816 46.8649C51.8805 46.2487 50.6457 46.1828 49.2773 46.6674C47.8907 47.1583 46.9634 47.9898 46.4955 49.1616C46.021 50.3151 46.0551 51.6583 46.5978 53.1908C47.134 54.7051 47.9527 55.7704 49.0537 56.3866C50.1484 56.9846 51.389 57.0381 52.7757 56.5471Z" fill="#E95755"/>
<path d="M77.314 55.9957L72.2772 49.058L71.673 49.1395L72.6816 56.6203L67.0423 57.3807L64.3071 37.0962L73.1977 35.8975C74.8282 35.6776 76.2481 35.7791 77.4573 36.2019C78.664 36.6056 79.6224 37.2674 80.3323 38.1872C81.0397 39.0879 81.4761 40.152 81.6416 41.3797C81.8279 42.7607 81.6085 44.0304 80.9835 45.1889C80.3751 46.3256 79.3717 47.2128 77.9734 47.8505L83.6151 55.1461L77.314 55.9957ZM71.1531 45.284L73.944 44.9077C74.7112 44.8042 75.2621 44.5444 75.5966 44.1283C75.9311 43.7121 76.0518 43.1588 75.9587 42.4682C75.8707 41.816 75.6008 41.3349 75.1488 41.0247C74.7135 40.6929 74.1218 40.5773 73.3736 40.6782L70.5828 41.0545L71.1531 45.284Z" fill="#E95755"/>
<path d="M104.319 56.2888L98.6408 55.9077L91.8466 43.9871L91.0802 55.4004L85.4028 55.0193L86.7735 34.5972L92.4508 34.9782L99.2362 47.0437L100.011 35.4857L105.689 35.8668L104.319 56.2888Z" fill="#E95755"/>
<path d="M117.047 43.1333L116.193 46.361L122.508 48.0317L121.402 52.2137L115.087 50.543L114.144 54.1075L121.301 56.001L120.135 60.4075L107.477 57.0586L112.712 37.2714L125.37 40.6203L124.204 45.0268L117.047 43.1333Z" fill="#E95755"/>
<path d="M130.548 59.9688L136.362 62.5425L134.599 66.5247L123.582 61.6476L131.867 42.9314L137.071 45.2349L130.548 59.9688Z" fill="#E95755"/>
<path d="M144.531 67.4179L149.893 70.8358L147.551 74.5079L137.392 68.0311L148.395 50.772L153.193 53.8309L144.531 67.4179Z" fill="#E95755"/>
</g>
<defs>
<clipPath id="clip0_11_762">
<rect width="174" height="174" fill="white"/>
</clipPath>
</defs>
</svg>
