<svg width="176" height="175" viewBox="0 0 176 175" fill="none" xmlns="http://www.w3.org/2000/svg">
<rect x="0.830078" y="69.6309" width="174" height="68" rx="20" fill="white"/>
<rect x="0.830078" y="53.6309" width="85" height="68" rx="20" fill="white"/>
<path d="M16.8301 62.1309C16.8301 41.9725 33.1717 25.6309 53.3301 25.6309C73.4885 25.6309 89.8301 41.9725 89.8301 62.1309V80.0309C89.8301 87.5419 83.7411 93.6309 76.2301 93.6309H30.4301C22.919 93.6309 16.8301 87.5419 16.8301 80.0309V62.1309Z" fill="white"/>
<path d="M80.3835 107.909C80.1051 108.847 79.6657 109.631 79.0652 110.26C78.4646 110.89 77.7542 111.359 76.9339 111.667C76.1137 111.974 75.2129 112.128 74.2315 112.128C72.796 112.128 71.551 111.828 70.4963 111.227C69.4563 110.627 68.6507 109.77 68.0795 108.656C67.5229 107.543 67.2446 106.21 67.2446 104.658C67.2446 103.105 67.5229 101.772 68.0795 100.659C68.6507 99.5456 69.4563 98.6888 70.4963 98.0882C71.551 97.4876 72.7814 97.1874 74.1875 97.1874C75.1836 97.1874 76.0844 97.3265 76.89 97.6048C77.6956 97.8685 78.3767 98.2786 78.9333 98.8352C79.5046 99.3918 79.9221 100.095 80.1857 100.944L77.4393 102.109C77.1903 101.23 76.8094 100.608 76.2968 100.241C75.7841 99.8606 75.125 99.6701 74.3193 99.6701C73.5284 99.6701 72.8326 99.8606 72.2321 100.241C71.6462 100.622 71.1921 101.186 70.8698 101.933C70.5476 102.666 70.3865 103.574 70.3865 104.658C70.3865 105.727 70.5329 106.635 70.8259 107.382C71.1335 108.129 71.5802 108.693 72.1662 109.074C72.7521 109.455 73.4698 109.645 74.3193 109.645C75.1103 109.645 75.7914 109.433 76.3627 109.008C76.9486 108.583 77.3587 107.939 77.5931 107.074L80.3835 107.909ZM95.0739 97.4071V106.196C95.0739 108.173 94.5466 109.66 93.492 110.656C92.4373 111.637 90.8993 112.128 88.878 112.128C86.8566 112.128 85.3186 111.637 84.264 110.656C83.2094 109.66 82.682 108.173 82.682 106.196V97.4071H85.7141V106.064C85.7141 107.28 85.9704 108.18 86.4831 108.766C87.0104 109.352 87.8087 109.645 88.878 109.645C89.9472 109.645 90.7382 109.352 91.2509 108.766C91.7635 108.18 92.0199 107.28 92.0199 106.064V97.4071H95.0739ZM110.62 111.908H107.478L106.269 108.371H100.711L99.5022 111.908H96.4042L101.699 97.4071H105.325L110.62 111.908ZM101.392 106.13H105.588L103.479 99.802L101.392 106.13ZM118.857 97.4071C119.97 97.4071 120.922 97.5975 121.713 97.9783C122.504 98.3445 123.112 98.8792 123.537 99.5823C123.976 100.271 124.196 101.106 124.196 102.087C124.196 103.068 123.976 103.911 123.537 104.614C123.112 105.302 122.504 105.837 121.713 106.218C120.922 106.584 119.97 106.767 118.857 106.767H115.803V111.908H112.771V97.4071H118.857ZM118.395 104.372C119.303 104.372 119.985 104.182 120.439 103.801C120.893 103.405 121.12 102.834 121.12 102.087C121.12 101.325 120.893 100.754 120.439 100.373C119.985 99.9924 119.303 99.802 118.395 99.802H115.803V104.372H118.395ZM138.272 97.4071V99.8459H133.417V111.908H130.385V99.8459H125.507V97.4071H138.272ZM145.637 97.1874C146.956 97.1874 148.113 97.4144 149.109 97.8685C150.105 98.3226 150.954 98.9963 151.657 99.8899L149.966 101.845C149.365 101.084 148.706 100.527 147.988 100.175C147.285 99.8093 146.465 99.6262 145.527 99.6262C144.912 99.6262 144.4 99.7068 143.989 99.8679C143.594 100.029 143.301 100.241 143.111 100.505C142.935 100.769 142.847 101.062 142.847 101.384C142.847 101.779 143.001 102.116 143.308 102.395C143.616 102.658 144.143 102.878 144.89 103.054L147.593 103.669C149.028 103.991 150.054 104.475 150.669 105.119C151.299 105.749 151.613 106.569 151.613 107.58C151.613 108.532 151.364 109.352 150.866 110.041C150.368 110.714 149.673 111.234 148.779 111.601C147.886 111.952 146.86 112.128 145.703 112.128C144.693 112.128 143.762 112.011 142.913 111.776C142.078 111.527 141.331 111.19 140.672 110.766C140.013 110.341 139.463 109.85 139.024 109.294L140.738 107.25C141.075 107.719 141.492 108.136 141.99 108.503C142.488 108.869 143.052 109.162 143.682 109.381C144.326 109.587 145 109.689 145.703 109.689C146.304 109.689 146.809 109.623 147.219 109.491C147.644 109.345 147.959 109.147 148.164 108.898C148.384 108.634 148.494 108.32 148.494 107.953C148.494 107.573 148.362 107.25 148.098 106.987C147.849 106.708 147.38 106.496 146.692 106.349L143.748 105.69C142.898 105.485 142.166 105.222 141.551 104.899C140.95 104.562 140.489 104.138 140.166 103.625C139.859 103.098 139.705 102.475 139.705 101.757C139.705 100.893 139.939 100.117 140.408 99.4285C140.877 98.74 141.551 98.1981 142.429 97.8026C143.323 97.3924 144.392 97.1874 145.637 97.1874Z" fill="#0C0404"/>
<path d="M59.3728 111.29H48.1059C47.7128 111.29 47.3945 110.889 47.3945 110.394V61.5957C47.3945 61.1003 47.7128 60.6992 48.1059 60.6992H59.3728C59.7659 60.6992 60.0841 61.1003 60.0841 61.5957V110.396C60.0841 110.889 59.7659 111.29 59.3728 111.29Z" fill="#B94630"/>
<path d="M53.468 77.8891C54.5915 77.8891 55.5024 76.9783 55.5024 75.8547C55.5024 74.7311 54.5915 73.8203 53.468 73.8203C52.3444 73.8203 51.4336 74.7311 51.4336 75.8547C51.4336 76.9783 52.3444 77.8891 53.468 77.8891Z" fill="#FEFEFE"/>
<path d="M49.867 66.0042C50.745 66.0042 51.4567 65.3601 51.4567 64.5656C51.4567 63.7711 50.745 63.127 49.867 63.127C48.9891 63.127 48.2773 63.7711 48.2773 64.5656C48.2773 65.3601 48.9891 66.0042 49.867 66.0042Z" fill="#FEFEFE"/>
<path d="M51.4588 64.5664H48.2773V71.3213H51.4588V64.5664Z" fill="#FEFEFE"/>
<path d="M53.6561 66.0042C54.5341 66.0042 55.2458 65.3601 55.2458 64.5656C55.2458 63.7711 54.5341 63.127 53.6561 63.127C52.7781 63.127 52.0664 63.7711 52.0664 64.5656C52.0664 65.3601 52.7781 66.0042 53.6561 66.0042Z" fill="#FEFEFE"/>
<path d="M55.2479 64.5664H52.0664V71.3213H55.2479V64.5664Z" fill="#FEFEFE"/>
<path d="M57.4491 66.0042C58.327 66.0042 59.0388 65.3601 59.0388 64.5656C59.0388 63.7711 58.327 63.127 57.4491 63.127C56.5711 63.127 55.8594 63.7711 55.8594 64.5656C55.8594 65.3601 56.5711 66.0042 57.4491 66.0042Z" fill="#FEFEFE"/>
<path d="M59.0409 64.5664H55.8594V71.3213H59.0409V64.5664Z" fill="#FEFEFE"/>
<path d="M60.9575 60.1569C61.238 60.6272 60.9016 61.2243 60.3541 61.2281L47.0566 61.3208C46.4915 61.3247 46.1495 60.6979 46.4587 60.2249L53.4412 49.543C53.7277 49.1047 54.3743 49.118 54.6425 49.5677L60.9575 60.1569Z" fill="#B94630"/>
<rect x="27.8347" y="80.3308" width="26.0402" height="31.7364" rx="2.44127" fill="#B94630" stroke="#FEFEFE" stroke-width="1.62751"/>
<rect x="31.9023" y="85.2129" width="4.06878" height="4.06878" fill="#FEFEFE"/>
<rect x="38.4141" y="85.2129" width="4.06878" height="4.06878" fill="#FEFEFE"/>
<rect x="44.9238" y="85.2129" width="4.06878" height="4.06878" fill="#FEFEFE"/>
<rect x="31.9023" y="91.7227" width="4.06878" height="4.06878" fill="#FEFEFE"/>
<rect x="38.4141" y="91.7227" width="4.06878" height="4.06878" fill="#FEFEFE"/>
<rect x="44.9238" y="91.7227" width="4.06878" height="4.06878" fill="#FEFEFE"/>
<rect x="31.9023" y="98.2344" width="4.06878" height="4.06878" fill="#FEFEFE"/>
<rect x="38.4141" y="98.2344" width="4.06878" height="4.06878" fill="#FEFEFE"/>
<rect x="44.9238" y="98.2344" width="4.06878" height="4.06878" fill="#FEFEFE"/>
<rect x="38.4141" y="104.742" width="4.06878" height="6.51004" fill="#FEFEFE"/>
</svg>
