<svg width="175" height="175" viewBox="0 0 175 175" fill="none" xmlns="http://www.w3.org/2000/svg">
<rect x="8.53027" y="70.8311" width="156.6" height="61.2" rx="18" fill="white"/>
<rect x="8.53027" y="56.4307" width="76.5" height="61.2" rx="18" fill="white"/>
<path d="M22.9297 64.081C22.9297 45.9384 37.6371 31.231 55.7797 31.231V31.231C73.9222 31.231 88.6297 45.9384 88.6297 64.0809V80.191C88.6297 86.9509 83.1497 92.431 76.3897 92.431H35.1697C28.4097 92.431 22.9297 86.9509 22.9297 80.191V64.081Z" fill="white"/>
<path d="M79.3835 107.909C79.1051 108.847 78.6657 109.631 78.0652 110.26C77.4646 110.89 76.7542 111.359 75.9339 111.667C75.1137 111.974 74.2129 112.128 73.2315 112.128C71.796 112.128 70.551 111.828 69.4963 111.227C68.4563 110.627 67.6507 109.77 67.0795 108.656C66.5229 107.543 66.2446 106.21 66.2446 104.658C66.2446 103.105 66.5229 101.772 67.0795 100.659C67.6507 99.5456 68.4563 98.6888 69.4963 98.0882C70.551 97.4876 71.7814 97.1874 73.1875 97.1874C74.1836 97.1874 75.0844 97.3265 75.89 97.6048C76.6956 97.8685 77.3767 98.2786 77.9333 98.8352C78.5046 99.3918 78.9221 100.095 79.1857 100.944L76.4393 102.109C76.1903 101.23 75.8094 100.608 75.2968 100.241C74.7841 99.8606 74.125 99.6701 73.3193 99.6701C72.5284 99.6701 71.8326 99.8606 71.2321 100.241C70.6462 100.622 70.1921 101.186 69.8698 101.933C69.5476 102.666 69.3865 103.574 69.3865 104.658C69.3865 105.727 69.5329 106.635 69.8259 107.382C70.1335 108.129 70.5802 108.693 71.1662 109.074C71.7521 109.455 72.4698 109.645 73.3193 109.645C74.1103 109.645 74.7914 109.433 75.3627 109.008C75.9486 108.583 76.3587 107.939 76.5931 107.074L79.3835 107.909ZM94.0739 97.4071V106.196C94.0739 108.173 93.5466 109.66 92.492 110.656C91.4373 111.637 89.8993 112.128 87.878 112.128C85.8566 112.128 84.3186 111.637 83.264 110.656C82.2094 109.66 81.682 108.173 81.682 106.196V97.4071H84.7141V106.064C84.7141 107.28 84.9704 108.18 85.4831 108.766C86.0104 109.352 86.8087 109.645 87.878 109.645C88.9472 109.645 89.7382 109.352 90.2509 108.766C90.7635 108.18 91.0199 107.28 91.0199 106.064V97.4071H94.0739ZM109.62 111.908H106.478L105.269 108.371H99.7106L98.5022 111.908H95.4042L100.699 97.4071H104.325L109.62 111.908ZM100.392 106.13H104.588L102.479 99.802L100.392 106.13ZM117.857 97.4071C118.97 97.4071 119.922 97.5975 120.713 97.9783C121.504 98.3445 122.112 98.8792 122.537 99.5823C122.976 100.271 123.196 101.106 123.196 102.087C123.196 103.068 122.976 103.911 122.537 104.614C122.112 105.302 121.504 105.837 120.713 106.218C119.922 106.584 118.97 106.767 117.857 106.767H114.803V111.908H111.771V97.4071H117.857ZM117.395 104.372C118.303 104.372 118.985 104.182 119.439 103.801C119.893 103.405 120.12 102.834 120.12 102.087C120.12 101.325 119.893 100.754 119.439 100.373C118.985 99.9924 118.303 99.802 117.395 99.802H114.803V104.372H117.395ZM137.272 97.4071V99.8459H132.417V111.908H129.385V99.8459H124.507V97.4071H137.272ZM144.637 97.1874C145.956 97.1874 147.113 97.4144 148.109 97.8685C149.105 98.3226 149.954 98.9963 150.657 99.8899L148.966 101.845C148.365 101.084 147.706 100.527 146.988 100.175C146.285 99.8093 145.465 99.6262 144.527 99.6262C143.912 99.6262 143.4 99.7068 142.989 99.8679C142.594 100.029 142.301 100.241 142.111 100.505C141.935 100.769 141.847 101.062 141.847 101.384C141.847 101.779 142.001 102.116 142.308 102.395C142.616 102.658 143.143 102.878 143.89 103.054L146.593 103.669C148.028 103.991 149.054 104.475 149.669 105.119C150.299 105.749 150.613 106.569 150.613 107.58C150.613 108.532 150.364 109.352 149.866 110.041C149.368 110.714 148.673 111.234 147.779 111.601C146.886 111.952 145.86 112.128 144.703 112.128C143.693 112.128 142.762 112.011 141.913 111.776C141.078 111.527 140.331 111.19 139.672 110.766C139.013 110.341 138.463 109.85 138.024 109.294L139.738 107.25C140.075 107.719 140.492 108.136 140.99 108.503C141.488 108.869 142.052 109.162 142.682 109.381C143.326 109.587 144 109.689 144.703 109.689C145.304 109.689 145.809 109.623 146.219 109.491C146.644 109.345 146.959 109.147 147.164 108.898C147.384 108.634 147.494 108.32 147.494 107.953C147.494 107.573 147.362 107.25 147.098 106.987C146.849 106.708 146.38 106.496 145.692 106.349L142.748 105.69C141.898 105.485 141.166 105.222 140.551 104.899C139.95 104.562 139.489 104.138 139.166 103.625C138.859 103.098 138.705 102.475 138.705 101.757C138.705 100.893 138.939 100.117 139.408 99.4285C139.877 98.74 140.551 98.1981 141.429 97.8026C142.323 97.3924 143.392 97.1874 144.637 97.1874Z" fill="#0C0404"/>
<path d="M58.3728 111.29H47.1059C46.7128 111.29 46.3945 110.889 46.3945 110.394V61.5957C46.3945 61.1003 46.7128 60.6992 47.1059 60.6992H58.3728C58.7659 60.6992 59.0841 61.1003 59.0841 61.5957V110.396C59.0841 110.889 58.7659 111.29 58.3728 111.29Z" fill="#B94630"/>
<path d="M52.468 77.8891C53.5915 77.8891 54.5024 76.9783 54.5024 75.8547C54.5024 74.7311 53.5915 73.8203 52.468 73.8203C51.3444 73.8203 50.4336 74.7311 50.4336 75.8547C50.4336 76.9783 51.3444 77.8891 52.468 77.8891Z" fill="#FEFEFE"/>
<path d="M48.867 66.0042C49.745 66.0042 50.4567 65.3601 50.4567 64.5656C50.4567 63.7711 49.745 63.127 48.867 63.127C47.9891 63.127 47.2773 63.7711 47.2773 64.5656C47.2773 65.3601 47.9891 66.0042 48.867 66.0042Z" fill="#FEFEFE"/>
<path d="M50.4588 64.5664H47.2773V71.3213H50.4588V64.5664Z" fill="#FEFEFE"/>
<path d="M52.6561 66.0042C53.5341 66.0042 54.2458 65.3601 54.2458 64.5656C54.2458 63.7711 53.5341 63.127 52.6561 63.127C51.7781 63.127 51.0664 63.7711 51.0664 64.5656C51.0664 65.3601 51.7781 66.0042 52.6561 66.0042Z" fill="#FEFEFE"/>
<path d="M54.2479 64.5664H51.0664V71.3213H54.2479V64.5664Z" fill="#FEFEFE"/>
<path d="M56.4491 66.0042C57.327 66.0042 58.0388 65.3601 58.0388 64.5656C58.0388 63.7711 57.327 63.127 56.4491 63.127C55.5711 63.127 54.8594 63.7711 54.8594 64.5656C54.8594 65.3601 55.5711 66.0042 56.4491 66.0042Z" fill="#FEFEFE"/>
<path d="M58.0409 64.5664H54.8594V71.3213H58.0409V64.5664Z" fill="#FEFEFE"/>
<path d="M59.9575 60.1569C60.238 60.6272 59.9016 61.2243 59.3541 61.2281L46.0566 61.3208C45.4915 61.3247 45.1495 60.6979 45.4587 60.2249L52.4412 49.543C52.7277 49.1047 53.3743 49.118 53.6425 49.5677L59.9575 60.1569Z" fill="#B94630"/>
<rect x="26.8347" y="80.3308" width="26.0402" height="31.7364" rx="2.44127" fill="#B94630" stroke="#FEFEFE" stroke-width="1.62751"/>
<rect x="30.9023" y="85.2129" width="4.06878" height="4.06878" fill="#FEFEFE"/>
<rect x="37.4141" y="85.2129" width="4.06878" height="4.06878" fill="#FEFEFE"/>
<rect x="43.9238" y="85.2129" width="4.06878" height="4.06878" fill="#FEFEFE"/>
<rect x="30.9023" y="91.7227" width="4.06878" height="4.06878" fill="#FEFEFE"/>
<rect x="37.4141" y="91.7227" width="4.06878" height="4.06878" fill="#FEFEFE"/>
<rect x="43.9238" y="91.7227" width="4.06878" height="4.06878" fill="#FEFEFE"/>
<rect x="30.9023" y="98.2344" width="4.06878" height="4.06878" fill="#FEFEFE"/>
<rect x="37.4141" y="98.2344" width="4.06878" height="4.06878" fill="#FEFEFE"/>
<rect x="43.9238" y="98.2344" width="4.06878" height="4.06878" fill="#FEFEFE"/>
<rect x="37.4141" y="104.742" width="4.06878" height="6.51004" fill="#FEFEFE"/>
</svg>
