<svg width="90" height="90" viewBox="0 0 90 90" fill="none" xmlns="http://www.w3.org/2000/svg">
<mask id="path-1-outside-1_5713_2489" maskUnits="userSpaceOnUse" x="0" y="0" width="90" height="90" fill="black">
<rect fill="white" width="90" height="90"/>
<path d="M64.0257 43.5101L57.5656 62.8581C57.4625 63.1683 57.2859 63.449 57.051 63.6765C56.816 63.904 56.5296 64.0716 56.2159 64.1649L16.614 75.9159C16.2572 76.0217 15.8782 76.0278 15.5182 75.9335C15.1582 75.8391 14.831 75.648 14.5723 75.381C14.3135 75.1139 14.133 74.7811 14.0506 74.4188C13.9681 74.0565 13.9868 73.6785 14.1045 73.326L26.9638 34.8196C27.0559 34.5431 27.2066 34.2897 27.4055 34.0765C27.6045 33.8633 27.8471 33.6953 28.1168 33.5839L46.3849 26.0749C46.7563 25.9218 47.1648 25.8819 47.5589 25.9602C47.953 26.0385 48.315 26.2316 48.5994 26.515L63.534 41.4281C63.8018 41.6951 63.9898 42.0314 64.0766 42.3993C64.1635 42.7671 64.1459 43.1518 64.0257 43.5101ZM15.2677 74.6362L36.849 53.091L15.2677 74.6362Z"/>
<path d="M64.424 42.3198L74.0142 32.7423C75.2857 31.4725 76 29.7506 76 27.9552C76 26.1598 75.2857 24.4379 74.0142 23.1681L66.825 15.9841C66.1952 15.3551 65.4474 14.8561 64.6243 14.5157C63.8013 14.1752 62.9191 14 62.0282 14C61.1373 14 60.2551 14.1752 59.4321 14.5157C58.609 14.8561 57.8612 15.3551 57.2314 15.9841L47.6412 25.5617M44.0398 45.9084C43.5673 45.4369 43.0064 45.0629 42.3892 44.8078C41.7719 44.5528 41.1104 44.4216 40.4423 44.4217C39.7742 44.4219 39.1128 44.5534 38.4956 44.8088C37.8785 45.0641 37.3178 45.4384 36.8455 45.9101C36.3732 46.3818 35.9986 46.9417 35.7431 47.558C35.4876 48.1742 35.3562 48.8346 35.3563 49.5016C35.3565 50.1685 35.4882 50.8289 35.744 51.445C35.9998 52.0611 36.3747 52.6209 36.8472 53.0924C37.8014 54.0446 39.0955 54.5793 40.4447 54.579C41.7939 54.5787 43.0877 54.0433 44.0415 53.0907C44.9953 52.138 45.531 50.8461 45.5307 49.4992C45.5303 48.1522 44.9941 46.8606 44.0398 45.9084Z"/>
</mask>
<path d="M64.0257 43.5101L57.5656 62.8581C57.4625 63.1683 57.2859 63.449 57.051 63.6765C56.816 63.904 56.5296 64.0716 56.2159 64.1649L16.614 75.9159C16.2572 76.0217 15.8782 76.0278 15.5182 75.9335C15.1582 75.8391 14.831 75.648 14.5723 75.381C14.3135 75.1139 14.133 74.7811 14.0506 74.4188C13.9681 74.0565 13.9868 73.6785 14.1045 73.326L26.9638 34.8196C27.0559 34.5431 27.2066 34.2897 27.4055 34.0765C27.6045 33.8633 27.8471 33.6953 28.1168 33.5839L46.3849 26.0749C46.7563 25.9218 47.1648 25.8819 47.5589 25.9602C47.953 26.0385 48.315 26.2316 48.5994 26.515L63.534 41.4281C63.8018 41.6951 63.9898 42.0314 64.0766 42.3993C64.1635 42.7671 64.1459 43.1518 64.0257 43.5101ZM15.2677 74.6362L36.849 53.091L15.2677 74.6362Z" fill="white"/>
<path d="M64.424 42.3198L74.0142 32.7423C75.2857 31.4725 76 29.7506 76 27.9552C76 26.1598 75.2857 24.4379 74.0142 23.1681L66.825 15.9841C66.1952 15.3551 65.4474 14.8561 64.6243 14.5157C63.8013 14.1752 62.9191 14 62.0282 14C61.1373 14 60.2551 14.1752 59.4321 14.5157C58.609 14.8561 57.8612 15.3551 57.2314 15.9841L47.6412 25.5617M44.0398 45.9084C43.5673 45.4369 43.0064 45.0629 42.3892 44.8078C41.7719 44.5528 41.1104 44.4216 40.4423 44.4217C39.7742 44.4219 39.1128 44.5534 38.4956 44.8088C37.8785 45.0641 37.3178 45.4384 36.8455 45.9101C36.3732 46.3818 35.9986 46.9417 35.7431 47.558C35.4876 48.1742 35.3562 48.8346 35.3563 49.5016C35.3565 50.1685 35.4882 50.8289 35.744 51.445C35.9998 52.0611 36.3747 52.6209 36.8472 53.0924C37.8014 54.0446 39.0955 54.5793 40.4447 54.579C41.7939 54.5787 43.0877 54.0433 44.0415 53.0907C44.9953 52.138 45.531 50.8461 45.5307 49.4992C45.5303 48.1522 44.9941 46.8606 44.0398 45.9084Z" fill="white"/>
<path d="M64.0257 43.5101L50.7519 39.0597C50.7501 39.0652 50.7482 39.0708 50.7464 39.0763L64.0257 43.5101ZM57.5656 62.8581L44.2862 58.4243C44.2843 58.4302 44.2823 58.4361 44.2803 58.442L57.5656 62.8581ZM56.2159 64.1649L60.1985 77.5865L60.2105 77.583L56.2159 64.1649ZM16.614 75.9159L20.5937 89.3384L20.5965 89.3375L16.614 75.9159ZM14.1045 73.326L27.3831 77.7621L27.3836 77.7606L14.1045 73.326ZM26.9638 34.8196L40.2429 39.2542L40.2453 39.2469L26.9638 34.8196ZM28.1168 33.5839L22.7943 20.6351C22.7875 20.6379 22.7808 20.6407 22.774 20.6435L28.1168 33.5839ZM46.3849 26.0749L51.7074 39.0237C51.7121 39.0218 51.7168 39.0199 51.7215 39.0179L46.3849 26.0749ZM48.5994 26.515L58.4917 16.6084L58.4835 16.6003L48.5994 26.515ZM63.534 41.4281L53.6417 51.3347L53.6496 51.3426L63.534 41.4281ZM5.37649 64.7284C-0.0954294 70.1912 -0.102858 79.0555 5.3599 84.5274C10.8227 89.9993 19.687 90.0068 25.1589 84.544L5.37649 64.7284ZM46.7402 62.9988C52.2121 57.5361 52.2195 48.6718 46.7568 43.1999C41.294 37.7279 32.4297 37.7205 26.9578 43.1833L46.7402 62.9988ZM54.5311 32.4137C49.0601 37.8774 49.0543 46.7417 54.518 52.2127C59.9817 57.6837 68.846 57.6895 74.317 52.2258L54.5311 32.4137ZM74.0142 32.7423L64.1215 22.836L64.1213 22.8362L74.0142 32.7423ZM74.0142 23.1681L64.1184 33.0712L64.1215 33.0744L74.0142 23.1681ZM66.825 15.9841L76.7209 6.08102L76.7182 6.07835L66.825 15.9841ZM57.2314 15.9841L67.1244 25.8902L67.1246 25.8899L57.2314 15.9841ZM37.7483 15.6556C32.2773 21.1193 32.2715 29.9836 37.7352 35.4546C43.1989 40.9256 52.0632 40.9314 57.5342 35.4677L37.7483 15.6556ZM44.0398 45.9084L34.151 55.8185V55.8185L44.0398 45.9084ZM36.8472 53.0924L26.9583 63.0025H26.9583L36.8472 53.0924ZM50.7464 39.0763L44.2862 58.4243L70.8449 67.292L77.3051 47.944L50.7464 39.0763ZM44.2803 58.442C44.8886 56.612 45.9295 54.9577 47.3126 53.6185L66.7894 73.7345C68.6424 71.9404 70.0363 69.7246 70.8508 67.2743L44.2803 58.442ZM47.3126 53.6185C48.6954 52.2796 50.3796 51.2952 52.2213 50.7469L60.2105 77.583C62.6795 76.8479 64.9366 75.5284 66.7894 73.7345L47.3126 53.6185ZM52.2333 50.7433L12.6314 62.4943L20.5965 89.3375L60.1985 77.5865L52.2333 50.7433ZM12.6343 62.4935C14.7288 61.8725 16.9532 61.8369 19.0665 62.3906L11.9699 89.4763C14.8031 90.2187 17.7856 90.171 20.5937 89.3384L12.6343 62.4935ZM19.0665 62.3906C21.18 62.9443 23.1035 64.0669 24.6266 65.6389L4.51785 85.1231C6.55849 87.2292 9.13636 88.7339 11.9699 89.4763L19.0665 62.3906ZM24.6266 65.6389C26.15 67.2111 27.2146 69.1728 27.7014 71.3117L0.39972 77.5259C1.0515 80.3895 2.47694 83.0168 4.51785 85.1231L24.6266 65.6389ZM27.7014 71.3117C28.1883 73.4506 28.078 75.682 27.3831 77.7621L0.825914 68.89C-0.104502 71.675 -0.252065 74.6623 0.39972 77.5259L27.7014 71.3117ZM27.3836 77.7606L40.2429 39.2542L13.6847 30.3851L0.825417 68.8915L27.3836 77.7606ZM40.2453 39.2469C39.7015 40.8784 38.813 42.3722 37.6417 43.6275L17.1694 24.5255C15.6002 26.2072 14.4104 28.2079 13.6822 30.3923L40.2453 39.2469ZM37.6417 43.6275C36.4704 44.8828 35.0438 45.8702 33.4595 46.5244L22.774 20.6435C20.6503 21.5203 18.7386 22.8438 17.1694 24.5255L37.6417 43.6275ZM33.4393 46.5327L51.7074 39.0237L41.0624 13.1261L22.7943 20.6351L33.4393 46.5327ZM51.7215 39.0179C49.5403 39.9172 47.1427 40.1513 44.8298 39.6916L50.288 12.2288C47.187 11.6125 43.9723 11.9264 41.0484 13.1319L51.7215 39.0179ZM44.8298 39.6916C42.5168 39.2319 40.3887 38.0982 38.7152 36.4298L58.4835 16.6003C56.2413 14.365 53.3892 12.8451 50.288 12.2288L44.8298 39.6916ZM38.707 36.4217L53.6417 51.3347L73.4263 31.5214L58.4917 16.6084L38.707 36.4217ZM53.6496 51.3426C52.0729 49.7707 50.9642 47.7883 50.4515 45.6171L77.7018 39.1814C77.0153 36.2746 75.5308 33.6195 73.4184 31.5135L53.6496 51.3426ZM50.4515 45.6171C49.9387 43.4458 50.0428 41.1746 50.7519 39.0597L77.2995 47.9606C78.2489 45.1289 78.3883 42.0883 77.7018 39.1814L50.4515 45.6171ZM25.1589 84.544L46.7402 62.9988L26.9578 43.1833L5.37649 64.7284L25.1589 84.544ZM74.317 52.2258L83.9072 42.6483L64.1213 22.8362L54.5311 32.4137L74.317 52.2258ZM83.9069 42.6485C87.8056 38.7552 90 33.4704 90 27.9552H62C62 26.0308 62.7658 24.1898 64.1215 22.836L83.9069 42.6485ZM90 27.9552C90 22.4399 87.8056 17.1552 83.9069 13.2618L64.1215 33.0744C62.7658 31.7205 62 29.8796 62 27.9552H90ZM83.9101 13.265L76.7209 6.08102L56.9291 25.8873L64.1184 33.0712L83.9101 13.265ZM76.7182 6.07835C74.7872 4.14981 72.4958 2.62121 69.9755 1.57873L59.2731 27.4526C58.3989 27.091 57.6031 26.5604 56.9318 25.8899L76.7182 6.07835ZM69.9755 1.57873C67.4553 0.536261 64.7548 0 62.0282 0V28C61.0834 28 60.1472 27.8142 59.2731 27.4526L69.9755 1.57873ZM62.0282 0C59.3016 0 56.6011 0.536261 54.0809 1.57873L64.7833 27.4526C63.9092 27.8142 62.973 28 62.0282 28V0ZM54.0809 1.57873C51.5606 2.62121 49.2692 4.14981 47.3382 6.07835L67.1246 25.8899C66.4533 26.5604 65.6575 27.091 64.7833 27.4526L54.0809 1.57873ZM47.3385 6.0781L37.7483 15.6556L57.5342 35.4677L67.1244 25.8902L47.3385 6.0781ZM53.9287 35.9983C52.1548 34.2282 50.0503 32.8255 47.736 31.8691L37.0423 57.7466C35.9625 57.3004 34.9798 56.6456 34.151 55.8185L53.9287 35.9983ZM47.736 31.8691C45.4217 30.9127 42.9422 30.4211 40.439 30.4217L40.4456 58.4217C39.2785 58.422 38.1221 58.1928 37.0423 57.7466L47.736 31.8691ZM40.439 30.4217C37.9357 30.4223 35.4565 30.9151 33.1427 31.8725L43.8486 57.745C42.769 58.1917 41.6128 58.4214 40.4456 58.4217L40.439 30.4217ZM33.1427 31.8725C30.8288 32.83 28.725 34.2337 26.952 36.0046L46.739 55.8155C45.9105 56.643 44.9281 57.2983 43.8486 57.745L33.1427 31.8725ZM26.952 36.0046C25.1789 37.7755 23.7713 39.8791 22.8107 42.1958L48.6755 52.9201C48.2259 54.0044 47.5675 54.988 46.739 55.8155L26.952 36.0046ZM22.8107 42.1958C21.8501 44.5125 21.3557 46.9962 21.3563 49.5049L49.3563 49.4983C49.3566 50.6731 49.1251 51.8359 48.6755 52.9201L22.8107 42.1958ZM21.3563 49.5049C21.3569 52.0136 21.8525 54.4971 22.8142 56.8133L48.6739 46.0767C49.1239 47.1606 49.3561 48.3234 49.3563 49.4983L21.3563 49.5049ZM22.8142 56.8133C23.7758 59.1294 25.1843 61.2323 26.9583 63.0025L46.736 43.1822C47.565 44.0094 48.2239 44.9928 48.6739 46.0767L22.8142 56.8133ZM26.9583 63.0025C30.5405 66.5769 35.3933 68.5802 40.448 68.579L40.4414 40.579C42.7977 40.5785 45.0624 41.5122 46.736 43.1822L26.9583 63.0025ZM40.448 68.579C45.5026 68.5778 50.3545 66.5723 53.935 62.9961L34.148 43.1852C35.8209 41.5143 38.0851 40.5796 40.4414 40.579L40.448 68.579ZM53.935 62.9961C57.5163 59.4191 59.5319 54.5634 59.5307 49.4959L31.5307 49.5025C31.5301 47.1288 32.4743 44.8569 34.148 43.1852L53.935 62.9961ZM59.5307 49.4959C59.5295 44.4283 57.5116 39.5735 53.9287 35.9983L34.151 55.8185C32.4765 54.1476 31.5312 51.8762 31.5307 49.5025L59.5307 49.4959Z" fill="white" mask="url(#path-1-outside-1_5713_2489)"/>
<path d="M64.0257 43.5101L57.5656 62.8581C57.4625 63.1683 57.2859 63.449 57.051 63.6765C56.816 63.904 56.5296 64.0716 56.2159 64.1649L16.614 75.9159C16.2572 76.0217 15.8782 76.0278 15.5182 75.9335C15.1582 75.8391 14.831 75.648 14.5723 75.381C14.3135 75.1139 14.133 74.7811 14.0506 74.4188C13.9681 74.0565 13.9868 73.6785 14.1045 73.326L26.9638 34.8196C27.0559 34.5431 27.2066 34.2897 27.4055 34.0765C27.6045 33.8633 27.8471 33.6953 28.1168 33.5839L46.3849 26.0749C46.7563 25.9218 47.1648 25.8819 47.5589 25.9602C47.953 26.0385 48.315 26.2316 48.5994 26.515L63.534 41.4281C63.8018 41.6951 63.9898 42.0314 64.0766 42.3993C64.1635 42.7671 64.1459 43.1518 64.0257 43.5101ZM15.2677 74.6362L36.849 53.091L15.2677 74.6362Z" fill="white"/>
<path d="M64.424 42.3198L74.0142 32.7423C75.2857 31.4725 76 29.7506 76 27.9552C76 26.1598 75.2857 24.4379 74.0142 23.1681L66.825 15.9841C66.1952 15.3551 65.4474 14.8561 64.6243 14.5157C63.8013 14.1752 62.9191 14 62.0282 14C61.1373 14 60.2551 14.1752 59.4321 14.5157C58.609 14.8561 57.8612 15.3551 57.2314 15.9841L47.6412 25.5617M44.0398 45.9084C43.5673 45.4369 43.0064 45.0629 42.3892 44.8078C41.7719 44.5528 41.1104 44.4216 40.4423 44.4217C39.7742 44.4219 39.1128 44.5534 38.4956 44.8088C37.8785 45.0641 37.3178 45.4384 36.8455 45.9101C36.3732 46.3818 35.9986 46.9417 35.7431 47.558C35.4876 48.1742 35.3562 48.8346 35.3563 49.5016C35.3565 50.1685 35.4882 50.8289 35.744 51.445C35.9998 52.0611 36.3747 52.6209 36.8472 53.0924C37.8014 54.0446 39.0955 54.5793 40.4447 54.579C41.7939 54.5787 43.0877 54.0433 44.0415 53.0907C44.9953 52.138 45.531 50.8461 45.5307 49.4992C45.5303 48.1522 44.9941 46.8606 44.0398 45.9084Z" fill="white"/>
<path d="M15.2677 74.6362L36.849 53.091M64.424 42.3198L74.0142 32.7423C75.2857 31.4725 76 29.7506 76 27.9552C76 26.1598 75.2857 24.4379 74.0142 23.1681L66.825 15.9841C66.1952 15.3551 65.4474 14.8561 64.6243 14.5157C63.8013 14.1752 62.9191 14 62.0282 14C61.1373 14 60.2551 14.1752 59.4321 14.5157C58.609 14.8561 57.8612 15.3551 57.2314 15.9841L47.6412 25.5617M64.0257 43.5101L57.5656 62.8581C57.4625 63.1683 57.286 63.449 57.051 63.6765C56.816 63.904 56.5296 64.0716 56.2159 64.1649L16.614 75.9159C16.2572 76.0217 15.8782 76.0278 15.5182 75.9335C15.1582 75.8391 14.831 75.648 14.5723 75.381C14.3135 75.1139 14.133 74.7811 14.0506 74.4188C13.9681 74.0565 13.9868 73.6785 14.1045 73.326L26.9638 34.8196C27.0559 34.5431 27.2066 34.2897 27.4055 34.0765C27.6045 33.8633 27.8471 33.6953 28.1168 33.5839L46.3849 26.0749C46.7563 25.9218 47.1648 25.8819 47.5589 25.9602C47.953 26.0385 48.315 26.2316 48.5994 26.515L63.534 41.4281C63.8018 41.6951 63.9898 42.0314 64.0766 42.3993C64.1635 42.7671 64.1459 43.1518 64.0257 43.5101ZM44.0398 45.9084C43.5673 45.4369 43.0064 45.0629 42.3892 44.8078C41.7719 44.5528 41.1104 44.4216 40.4423 44.4217C39.7742 44.4219 39.1128 44.5534 38.4956 44.8088C37.8785 45.0641 37.3178 45.4384 36.8455 45.9101C36.3732 46.3818 35.9986 46.9417 35.7431 47.558C35.4876 48.1742 35.3562 48.8346 35.3563 49.5016C35.3565 50.1685 35.4882 50.8289 35.744 51.445C35.9998 52.0611 36.3747 52.6209 36.8472 53.0924C37.8014 54.0446 39.0955 54.5793 40.4447 54.579C41.7939 54.5787 43.0877 54.0433 44.0415 53.0907C44.9953 52.138 45.531 50.8461 45.5307 49.4992C45.5303 48.1522 44.9941 46.8606 44.0398 45.9084Z" stroke="#2C95FF" stroke-width="4" stroke-linecap="round" stroke-linejoin="round"/>
</svg>
