<svg width="120" height="121" viewBox="0 0 120 121" fill="none" xmlns="http://www.w3.org/2000/svg">
<g opacity="0.7">
<path d="M22.4865 41.588L6.96202 96.0961C3.94096 106.703 13.8015 116.476 24.3814 113.361L80.9082 96.7148C85.4054 95.3905 88.9412 91.9031 90.3274 87.4246L94.1342 75.1256C94.792 73.0004 95.9468 71.0626 97.5029 69.4727L110.369 56.3271C115.714 50.8661 115.692 42.128 110.321 36.6932L83.8473 9.9085C78.4309 4.42835 69.6043 4.35508 64.0976 9.74458L50.5476 23.0063C49.2928 24.2344 47.8182 25.2155 46.2008 25.8984L30.5054 32.5253C26.5975 34.1754 23.6484 37.5083 22.4865 41.588Z" fill="#FEFEFE" stroke="#FEFEFE"/>
<path d="M80.079 59.1879L73.1776 79.7838C73.0674 80.1139 72.8788 80.4127 72.6278 80.6549C72.3768 80.8971 72.0708 81.0754 71.7357 81.1748L29.4288 93.6837C29.0476 93.7963 28.6427 93.8028 28.2581 93.7024C27.8735 93.602 27.524 93.3985 27.2476 93.1143C26.9711 92.83 26.7784 92.4757 26.6903 92.09C26.6022 91.7043 26.6221 91.302 26.7479 90.9268L40.4855 49.9369C40.584 49.6426 40.7449 49.3728 40.9574 49.1458C41.17 48.9189 41.4291 48.7401 41.7173 48.6215L61.2332 40.6282C61.63 40.4652 62.0664 40.4227 62.4874 40.5061C62.9084 40.5895 63.2952 40.795 63.5989 41.0967L79.5537 56.9716C79.8398 57.2558 80.0406 57.6138 80.1334 58.0054C80.2262 58.3969 80.2073 58.8064 80.079 59.1879ZM27.9905 92.3214L51.0459 69.3867L27.9905 92.3214Z" fill="#FEFEFE"/>
<path d="M80.5045 57.9208L90.7498 47.7256C92.1081 46.3739 92.8712 44.541 92.8712 42.6298C92.8712 40.7185 92.1081 38.8856 90.7498 37.5339L83.0695 29.8866C82.3966 29.217 81.5977 28.6859 80.7185 28.3235C79.8392 27.9611 78.8968 27.7745 77.945 27.7745C76.9933 27.7745 76.0508 27.9611 75.1716 28.3235C74.2923 28.6859 73.4934 29.217 72.8206 29.8866L62.5753 40.0819M58.7279 61.7408C58.2232 61.2389 57.6239 60.8408 56.9645 60.5693C56.3051 60.2978 55.5984 60.1581 54.8847 60.1583C54.171 60.1585 53.4643 60.2985 52.805 60.5703C52.1457 60.8421 51.5467 61.2405 51.0422 61.7426C50.5376 62.2448 50.1375 62.8408 49.8645 63.4968C49.5915 64.1528 49.4511 64.8558 49.4513 65.5658C49.4515 66.2757 49.5922 66.9787 49.8655 67.6345C50.1388 68.2903 50.5392 68.8862 51.044 69.3881C52.0634 70.4017 53.4459 70.971 54.8872 70.9707C56.3286 70.9703 57.7108 70.4004 58.7297 69.3863C59.7487 68.3722 60.3209 66.997 60.3206 65.5632C60.3203 64.1294 59.7474 62.7544 58.7279 61.7408Z" fill="#FEFEFE"/>
<path d="M27.9905 92.3214L51.0459 69.3867M80.5045 57.9208L90.7498 47.7256C92.1081 46.3739 92.8712 44.541 92.8712 42.6298C92.8712 40.7185 92.1081 38.8856 90.7498 37.5339L83.0695 29.8866C82.3966 29.217 81.5977 28.6859 80.7185 28.3235C79.8392 27.9611 78.8968 27.7745 77.945 27.7745C76.9933 27.7745 76.0508 27.9611 75.1716 28.3235C74.2923 28.6859 73.4934 29.217 72.8206 29.8866L62.5753 40.0819M80.079 59.1879L73.1776 79.7838C73.0674 80.1139 72.8788 80.4127 72.6278 80.6549C72.3768 80.8971 72.0708 81.0754 71.7357 81.1748L29.4288 93.6837C29.0476 93.7963 28.6427 93.8028 28.2581 93.7024C27.8735 93.602 27.524 93.3985 27.2476 93.1143C26.9711 92.83 26.7784 92.4757 26.6903 92.09C26.6022 91.7043 26.6221 91.302 26.7479 90.9268L40.4855 49.9369C40.584 49.6426 40.7449 49.3728 40.9575 49.1458C41.17 48.9189 41.4291 48.7401 41.7173 48.6215L61.2332 40.6282C61.63 40.4652 62.0664 40.4227 62.4874 40.5061C62.9084 40.5895 63.2952 40.795 63.5989 41.0967L79.5537 56.9716C79.8398 57.2558 80.0406 57.6138 80.1334 58.0054C80.2262 58.3969 80.2073 58.8064 80.079 59.1879ZM58.7279 61.7408C58.2232 61.2389 57.6239 60.8408 56.9645 60.5693C56.3051 60.2978 55.5984 60.1581 54.8847 60.1583C54.171 60.1585 53.4643 60.2985 52.805 60.5703C52.1457 60.8421 51.5467 61.2405 51.0422 61.7426C50.5376 62.2448 50.1375 62.8408 49.8645 63.4968C49.5915 64.1528 49.4511 64.8558 49.4513 65.5658C49.4515 66.2757 49.5922 66.9787 49.8655 67.6345C50.1388 68.2903 50.5392 68.8862 51.044 69.3881C52.0634 70.4017 53.4459 70.971 54.8872 70.9707C56.3286 70.9703 57.7108 70.4004 58.7297 69.3863C59.7487 68.3722 60.3209 66.997 60.3206 65.5632C60.3203 64.1294 59.7474 62.7544 58.7279 61.7408Z" stroke="#0080FF" stroke-width="6" stroke-linecap="round" stroke-linejoin="round"/>
</g>
</svg>
