<svg width="66" height="66" viewBox="0 0 66 66" fill="none" xmlns="http://www.w3.org/2000/svg">
<path d="M3.26769 62.6362L24.849 41.091M52.424 30.3198L62.0142 20.7423C63.2857 19.4725 64 17.7506 64 15.9552C64 14.1598 63.2857 12.4379 62.0142 11.1681L54.825 3.98414C54.1952 3.3551 53.4474 2.85611 52.6243 2.51567C51.8013 2.17523 50.9191 2 50.0282 2C49.1373 2 48.2551 2.17523 47.4321 2.51567C46.609 2.85611 45.8612 3.3551 45.2314 3.98414L35.6412 13.5617M52.0257 31.5101L45.5656 50.8581C45.4625 51.1683 45.286 51.449 45.051 51.6765C44.816 51.904 44.5296 52.0716 44.2159 52.1649L4.61397 63.9159C4.25719 64.0217 3.87818 64.0278 3.51819 63.9335C3.1582 63.8391 2.83102 63.648 2.57225 63.381C2.31348 63.1139 2.13305 62.7811 2.05058 62.4188C1.96811 62.0565 1.98677 61.6785 2.10452 61.326L14.9638 22.8196C15.0559 22.5431 15.2066 22.2897 15.4055 22.0765C15.6045 21.8633 15.8471 21.6953 16.1168 21.5839L34.3849 14.0749C34.7563 13.9218 35.1648 13.8819 35.5589 13.9602C35.953 14.0385 36.315 14.2316 36.5994 14.515L51.534 29.4281C51.8018 29.6951 51.9898 30.0314 52.0766 30.3993C52.1635 30.7671 52.1459 31.1518 52.0257 31.5101ZM32.0398 33.9084C31.5673 33.4369 31.0064 33.0629 30.3892 32.8078C29.7719 32.5528 29.1104 32.4216 28.4423 32.4217C27.7742 32.4219 27.1128 32.5534 26.4956 32.8088C25.8785 33.0641 25.3178 33.4384 24.8455 33.9101C24.3732 34.3818 23.9986 34.9417 23.7431 35.558C23.4876 36.1742 23.3562 36.8346 23.3563 37.5016C23.3565 38.1685 23.4882 38.8289 23.744 39.445C23.9998 40.0611 24.3747 40.6209 24.8472 41.0924C25.8014 42.0446 27.0955 42.5793 28.4447 42.579C29.7939 42.5787 31.0877 42.0433 32.0415 41.0907C32.9953 40.138 33.531 38.8461 33.5307 37.4992C33.5303 36.1522 32.9941 34.8606 32.0398 33.9084Z" stroke="#2C95FF" stroke-width="4" stroke-linecap="round" stroke-linejoin="round"/>
</svg>
