<svg width="143" height="120" viewBox="0 0 143 120" fill="none" xmlns="http://www.w3.org/2000/svg">
<mask id="path-1-outside-1_1323_2220" maskUnits="userSpaceOnUse" x="8.40186" y="5.66211" width="126" height="109" fill="black">
<rect fill="white" x="8.40186" y="5.66211" width="126" height="109"/>
<path d="M50.7796 48.5957L37.474 59.6825L50.7796 70.7692C51.2208 71.1309 51.5862 71.5763 51.8545 72.0798C52.1227 72.5833 52.2887 73.1349 52.3427 73.7029C52.3968 74.2709 52.3378 74.8439 52.1693 75.389C52.0008 75.934 51.7261 76.4404 51.3609 76.8787C50.9958 77.3171 50.5475 77.6788 50.0418 77.9431C49.5362 78.2073 48.9832 78.3689 48.4149 78.4184C47.8465 78.4679 47.274 78.4044 46.7302 78.2315C46.1865 78.0586 45.6824 77.7799 45.247 77.4112L27.9577 63.0035C27.4707 62.5978 27.079 62.0901 26.8101 61.5161C26.5412 60.9422 26.4019 60.3162 26.4019 59.6825C26.4019 59.0487 26.5412 58.4227 26.8101 57.8488C27.079 57.2749 27.4707 56.7671 27.9577 56.3615L45.247 41.9537C46.129 41.2309 47.2609 40.8859 48.3962 40.9939C49.5314 41.1019 50.578 41.6542 51.3078 42.5304C52.0377 43.4066 52.3917 44.5358 52.2928 45.6718C52.1938 46.8079 51.6499 47.8588 50.7796 48.5957ZM114.174 56.3615L96.8844 41.9537C96.449 41.5851 95.9449 41.3063 95.4012 41.1334C94.8575 40.9606 94.2849 40.8971 93.7166 40.9466C93.1482 40.9961 92.5952 41.1576 92.0896 41.4218C91.584 41.6861 91.1356 42.0478 90.7705 42.4862C90.4053 42.9246 90.1306 43.4309 89.9621 43.976C89.7936 44.521 89.7347 45.0941 89.7887 45.662C89.8427 46.23 90.0087 46.7816 90.277 47.2851C90.5453 47.7886 90.9106 48.2341 91.3519 48.5957L104.657 59.6825L91.3519 70.7692C90.9106 71.1309 90.5453 71.5763 90.277 72.0798C90.0087 72.5833 89.8427 73.1349 89.7887 73.7029C89.7347 74.2709 89.7936 74.8439 89.9621 75.389C90.1306 75.934 90.4053 76.4404 90.7705 76.8787C91.1356 77.3171 91.584 77.6788 92.0896 77.9431C92.5952 78.2073 93.1482 78.3689 93.7166 78.4184C94.2849 78.4679 94.8575 78.4044 95.4012 78.2315C95.9449 78.0586 96.449 77.7799 96.8844 77.4112L114.174 63.0035C114.661 62.5978 115.052 62.0901 115.321 61.5161C115.59 60.9422 115.73 60.3162 115.73 59.6825C115.73 59.0487 115.59 58.4227 115.321 57.8488C115.052 57.2749 114.661 56.7671 114.174 56.3615ZM84.0687 23.9224C83.5352 23.7283 82.9686 23.6413 82.4014 23.6663C81.8342 23.6913 81.2775 23.8277 80.7631 24.0679C80.2486 24.308 79.7866 24.6472 79.4032 25.066C79.0199 25.4848 78.7228 25.975 78.5289 26.5086L55.4765 89.9027C55.0858 90.9799 55.1387 92.1681 55.6236 93.2062C56.1086 94.2443 56.9859 95.0474 58.0627 95.4389C58.5355 95.6135 59.0355 95.7026 59.5395 95.7019C60.4269 95.702 61.2929 95.429 62.0198 94.92C62.7467 94.4109 63.2993 93.6904 63.6025 92.8564L86.6549 29.4622C86.8489 28.9286 86.936 28.3621 86.911 27.7949C86.886 27.2277 86.7496 26.671 86.5094 26.1565C86.2693 25.6421 85.9301 25.18 85.5113 24.7967C85.0925 24.4133 84.6023 24.1162 84.0687 23.9224Z"/>
</mask>
<path d="M50.7796 48.5957L37.474 59.6825L50.7796 70.7692C51.2208 71.1309 51.5862 71.5763 51.8545 72.0798C52.1227 72.5833 52.2887 73.1349 52.3427 73.7029C52.3968 74.2709 52.3378 74.8439 52.1693 75.389C52.0008 75.934 51.7261 76.4404 51.3609 76.8787C50.9958 77.3171 50.5475 77.6788 50.0418 77.9431C49.5362 78.2073 48.9832 78.3689 48.4149 78.4184C47.8465 78.4679 47.274 78.4044 46.7302 78.2315C46.1865 78.0586 45.6824 77.7799 45.247 77.4112L27.9577 63.0035C27.4707 62.5978 27.079 62.0901 26.8101 61.5161C26.5412 60.9422 26.4019 60.3162 26.4019 59.6825C26.4019 59.0487 26.5412 58.4227 26.8101 57.8488C27.079 57.2749 27.4707 56.7671 27.9577 56.3615L45.247 41.9537C46.129 41.2309 47.2609 40.8859 48.3962 40.9939C49.5314 41.1019 50.578 41.6542 51.3078 42.5304C52.0377 43.4066 52.3917 44.5358 52.2928 45.6718C52.1938 46.8079 51.6499 47.8588 50.7796 48.5957ZM114.174 56.3615L96.8844 41.9537C96.449 41.5851 95.9449 41.3063 95.4012 41.1334C94.8575 40.9606 94.2849 40.8971 93.7166 40.9466C93.1482 40.9961 92.5952 41.1576 92.0896 41.4218C91.584 41.6861 91.1356 42.0478 90.7705 42.4862C90.4053 42.9246 90.1306 43.4309 89.9621 43.976C89.7936 44.521 89.7347 45.0941 89.7887 45.662C89.8427 46.23 90.0087 46.7816 90.277 47.2851C90.5453 47.7886 90.9106 48.2341 91.3519 48.5957L104.657 59.6825L91.3519 70.7692C90.9106 71.1309 90.5453 71.5763 90.277 72.0798C90.0087 72.5833 89.8427 73.1349 89.7887 73.7029C89.7347 74.2709 89.7936 74.8439 89.9621 75.389C90.1306 75.934 90.4053 76.4404 90.7705 76.8787C91.1356 77.3171 91.584 77.6788 92.0896 77.9431C92.5952 78.2073 93.1482 78.3689 93.7166 78.4184C94.2849 78.4679 94.8575 78.4044 95.4012 78.2315C95.9449 78.0586 96.449 77.7799 96.8844 77.4112L114.174 63.0035C114.661 62.5978 115.052 62.0901 115.321 61.5161C115.59 60.9422 115.73 60.3162 115.73 59.6825C115.73 59.0487 115.59 58.4227 115.321 57.8488C115.052 57.2749 114.661 56.7671 114.174 56.3615ZM84.0687 23.9224C83.5352 23.7283 82.9686 23.6413 82.4014 23.6663C81.8342 23.6913 81.2775 23.8277 80.7631 24.0679C80.2486 24.308 79.7866 24.6472 79.4032 25.066C79.0199 25.4848 78.7228 25.975 78.5289 26.5086L55.4765 89.9027C55.0858 90.9799 55.1387 92.1681 55.6236 93.2062C56.1086 94.2443 56.9859 95.0474 58.0627 95.4389C58.5355 95.6135 59.0355 95.7026 59.5395 95.7019C60.4269 95.702 61.2929 95.429 62.0198 94.92C62.7467 94.4109 63.2993 93.6904 63.6025 92.8564L86.6549 29.4622C86.8489 28.9286 86.936 28.3621 86.911 27.7949C86.886 27.2277 86.7496 26.671 86.5094 26.1565C86.2693 25.6421 85.9301 25.18 85.5113 24.7967C85.0925 24.4133 84.6023 24.1162 84.0687 23.9224Z" fill="#35D44A"/>
<path d="M50.7796 48.5957L62.3022 62.4243L62.3563 62.3792L62.4101 62.3336L50.7796 48.5957ZM37.474 59.6825L25.9514 45.8539L9.35531 59.6825L25.9514 73.5111L37.474 59.6825ZM50.7796 70.7692L39.257 84.5978L39.3134 84.6448L39.3701 84.6913L50.7796 70.7692ZM45.247 77.4112L56.8775 63.6733L56.8241 63.6281L56.7703 63.5832L45.247 77.4112ZM27.9577 63.0035L39.481 49.1755L39.4786 49.1735L27.9577 63.0035ZM26.4019 59.6825H44.4019H26.4019ZM27.9577 56.3615L39.4786 70.1915L39.481 70.1895L27.9577 56.3615ZM45.247 41.9537L33.8375 28.0316L33.7804 28.0784L33.7237 28.1257L45.247 41.9537ZM114.174 56.3615L102.65 70.1895L102.653 70.1915L114.174 56.3615ZM96.8844 41.9537L85.2539 55.6916L85.3073 55.7369L85.3611 55.7817L96.8844 41.9537ZM90.277 47.2851L106.163 38.8207L90.277 47.2851ZM91.3519 48.5957L102.874 34.7671L102.818 34.7201L102.761 34.6736L91.3519 48.5957ZM104.657 59.6825L116.18 73.5111L132.776 59.6825L116.18 45.8539L104.657 59.6825ZM91.3519 70.7692L102.761 84.6913L102.818 84.6448L102.874 84.5978L91.3519 70.7692ZM90.277 72.0798L106.163 80.5442L90.277 72.0798ZM96.8844 77.4112L85.3611 63.5832L85.3073 63.6281L85.2539 63.6733L96.8844 77.4112ZM114.174 63.0035L102.653 49.1735L102.65 49.1755L114.174 63.0035ZM84.0687 23.9224L77.9169 40.8385L77.9226 40.8406L84.0687 23.9224ZM78.5289 26.5086L95.4452 32.6599L95.4471 32.6547L78.5289 26.5086ZM55.4765 89.9027L38.5602 83.7514L38.5556 83.7642L55.4765 89.9027ZM58.0627 95.4389L64.2981 78.5535L64.2559 78.5379L64.2136 78.5225L58.0627 95.4389ZM59.5395 95.7019L59.5427 77.7019H59.5291L59.5154 77.7019L59.5395 95.7019ZM63.6025 92.8564L46.6862 86.705L46.6857 86.7064L63.6025 92.8564ZM86.6549 29.4622L69.7388 23.3104L69.7386 23.3108L86.6549 29.4622ZM39.257 34.7671L25.9514 45.8539L48.9966 73.5111L62.3022 62.4243L39.257 34.7671ZM25.9514 73.5111L39.257 84.5978L62.3022 56.9406L48.9966 45.8539L25.9514 73.5111ZM39.3701 84.6913C37.9738 83.547 36.8178 82.1375 35.9688 80.5442L67.7401 63.6154C66.3546 61.0151 64.4679 58.7148 62.189 56.8472L39.3701 84.6913ZM35.9688 80.5442C35.1198 78.9508 34.5947 77.2052 34.4237 75.408L70.2618 71.9978C69.9827 69.0647 69.1257 66.2158 67.7401 63.6154L35.9688 80.5442ZM34.4237 75.408C34.2527 73.6108 34.4391 71.7975 34.9724 70.0726L69.3663 80.7054C70.2366 77.8903 70.5409 74.9309 70.2618 71.9978L34.4237 75.408ZM34.9724 70.0726C35.5056 68.3477 36.375 66.7455 37.5305 65.3584L65.1914 88.3991C67.0771 86.1352 68.4961 83.5204 69.3663 80.7054L34.9724 70.0726ZM37.5305 65.3584C38.686 63.9711 40.1047 62.8265 41.7047 61.9903L58.379 93.8959C60.9903 92.5312 63.3056 90.663 65.1914 88.3991L37.5305 65.3584ZM41.7047 61.9903C43.3047 61.1541 45.0545 60.6429 46.8531 60.4863L49.9767 96.3505C52.912 96.0948 55.7677 95.2606 58.379 93.8959L41.7047 61.9903ZM46.8531 60.4863C48.6516 60.3296 50.4634 60.5306 52.1839 61.0776L41.2766 95.3854C44.0845 96.2781 47.0414 96.6061 49.9767 96.3505L46.8531 60.4863ZM52.1839 61.0776C53.9044 61.6245 55.4996 62.5067 56.8775 63.6733L33.6164 91.1491C35.8653 93.053 38.4687 94.4927 41.2766 95.3854L52.1839 61.0776ZM56.7703 63.5832L39.481 49.1755L16.4344 76.8314L33.7237 91.2392L56.7703 63.5832ZM39.4786 49.1735C41.0194 50.457 42.2592 52.0638 43.11 53.8799L10.5101 69.1524C11.8987 72.1163 13.922 74.7386 16.4368 76.8335L39.4786 49.1735ZM43.11 53.8799C43.9608 55.696 44.4019 57.677 44.4019 59.6825H8.40186C8.40186 62.9555 9.12161 66.1885 10.5101 69.1524L43.11 53.8799ZM44.4019 59.6825C44.4019 61.688 43.9608 63.6689 43.11 65.485L10.5101 50.2126C9.12161 53.1765 8.40186 56.4094 8.40186 59.6825H44.4019ZM43.11 65.485C42.2592 67.3011 41.0195 68.9078 39.4786 70.1915L16.4368 42.5315C13.922 44.6264 11.8987 47.2487 10.5101 50.2126L43.11 65.485ZM39.481 70.1895L56.7703 55.7817L33.7237 28.1257L16.4344 42.5335L39.481 70.1895ZM56.6565 55.8758C53.8654 58.1631 50.2835 59.2548 46.6911 58.913L50.1013 23.0749C44.2384 22.517 38.3927 24.2986 33.8375 28.0316L56.6565 55.8758ZM46.6911 58.913C43.0987 58.5711 39.787 56.8235 37.4774 54.0508L65.1383 31.0101C61.369 26.4849 55.9641 23.6327 50.1013 23.0749L46.6911 58.913ZM37.4774 54.0508C35.1678 51.2781 34.0475 47.705 34.3607 44.11L70.2249 47.2337C70.7359 41.3665 68.9076 35.5352 65.1383 31.0101L37.4774 54.0508ZM34.3607 44.11C34.6738 40.515 36.3949 37.1894 39.149 34.8578L62.4101 62.3336C66.9049 58.5283 69.7139 53.1008 70.2249 47.2337L34.3607 44.11ZM125.697 42.5335L108.408 28.1257L85.3611 55.7817L102.65 70.1895L125.697 42.5335ZM108.515 28.2158C106.266 26.312 103.663 24.8722 100.855 23.9795L89.9475 58.2873C88.2269 57.7403 86.6317 56.8581 85.2539 55.6916L108.515 28.2158ZM100.855 23.9795C98.0469 23.0867 95.09 22.7588 92.1547 23.0144L95.2784 58.8787C93.4799 59.0353 91.6681 58.8344 89.9475 58.2873L100.855 23.9795ZM92.1547 23.0144C89.2195 23.2701 86.3638 24.1043 83.7525 25.469L100.427 57.3746C98.8266 58.2109 97.0769 58.722 95.2784 58.8787L92.1547 23.0144ZM83.7525 25.469C81.1411 26.8338 78.8258 28.702 76.9401 30.9658L104.601 54.0066C103.446 55.3937 102.027 56.5384 100.427 57.3746L83.7525 25.469ZM76.9401 30.9658C75.0543 33.2298 73.6354 35.8446 72.7651 38.6596L107.159 49.2924C106.626 51.0172 105.756 52.6194 104.601 54.0066L76.9401 30.9658ZM72.7651 38.6596C71.8949 41.4745 71.5905 44.4339 71.8696 47.3671L107.708 43.9569C107.879 45.7542 107.692 47.5675 107.159 49.2924L72.7651 38.6596ZM71.8696 47.3671C72.1488 50.3004 73.0058 53.1492 74.3913 55.7495L106.163 38.8207C107.012 40.414 107.537 42.1596 107.708 43.9569L71.8696 47.3671ZM74.3913 55.7495C75.7769 58.3498 77.6635 60.6501 79.9424 62.5178L102.761 34.6736C104.158 35.818 105.314 37.2275 106.163 38.8207L74.3913 55.7495ZM79.8293 62.4243L93.1348 73.5111L116.18 45.8539L102.874 34.7671L79.8293 62.4243ZM93.1348 45.8539L79.8293 56.9406L102.874 84.5978L116.18 73.5111L93.1348 45.8539ZM79.9424 56.8472C77.6634 58.7148 75.7768 61.0152 74.3913 63.6154L106.163 80.5442C105.314 82.1374 104.158 83.5469 102.761 84.6913L79.9424 56.8472ZM74.3913 63.6154C73.0058 66.2156 72.1488 69.0645 71.8696 71.9978L107.708 75.408C107.537 77.2053 107.012 78.951 106.163 80.5442L74.3913 63.6154ZM71.8696 71.9978C71.5905 74.931 71.8949 77.8904 72.7651 80.7054L107.159 70.0726C107.692 71.7974 107.879 73.6107 107.708 75.408L71.8696 71.9978ZM72.7651 80.7054C73.6354 83.5203 75.0543 86.1352 76.9401 88.3991L104.601 65.3584C105.756 66.7455 106.626 68.3477 107.159 70.0726L72.7651 80.7054ZM76.9401 88.3991C78.8258 90.663 81.1411 92.5312 83.7525 93.8959L100.427 61.9903C102.027 62.8265 103.445 63.9712 104.601 65.3584L76.9401 88.3991ZM83.7525 93.8959C86.3637 95.2606 89.2194 96.0948 92.1547 96.3505L95.2784 60.4863C97.077 60.6429 98.8267 61.1541 100.427 61.9903L83.7525 93.8959ZM92.1547 96.3505C95.0901 96.6061 98.0469 96.2781 100.855 95.3854L89.9475 61.0776C91.668 60.5306 93.4798 60.3296 95.2784 60.4863L92.1547 96.3505ZM100.855 95.3854C103.663 94.4927 106.266 93.053 108.515 91.1491L85.2539 63.6733C86.6318 62.5067 88.227 61.6246 89.9475 61.0776L100.855 95.3854ZM108.408 91.2392L125.697 76.8314L102.65 49.1755L85.3611 63.5832L108.408 91.2392ZM125.695 76.8335C128.209 74.7386 130.233 72.1163 131.621 69.1524L99.0214 53.8799C99.8722 52.0638 101.112 50.457 102.653 49.1735L125.695 76.8335ZM131.621 69.1524C133.01 66.1885 133.73 62.9555 133.73 59.6825H97.7296C97.7296 57.6769 98.1706 55.696 99.0214 53.8799L131.621 69.1524ZM133.73 59.6825C133.73 56.4094 133.01 53.1764 131.621 50.2126L99.0214 65.485C98.1706 63.669 97.7296 61.688 97.7296 59.6825H133.73ZM131.621 50.2126C130.233 47.2486 128.209 44.6264 125.695 42.5315L102.653 70.1915C101.112 68.9079 99.8722 67.3011 99.0214 65.485L131.621 50.2126ZM90.2205 7.00626C87.465 6.00418 84.5391 5.55477 81.6099 5.6837L83.1929 41.6489C81.3981 41.7279 79.6053 41.4525 77.9169 40.8385L90.2205 7.00626ZM81.6099 5.6837C78.6807 5.81263 75.8056 6.51739 73.1488 7.75767L88.3773 40.3781C86.7495 41.138 84.9878 41.5699 83.1929 41.6489L81.6099 5.6837ZM73.1488 7.75767C70.492 8.99796 68.1056 10.7495 66.1259 12.9123L92.6805 37.2197C91.4675 38.5449 90.0053 39.6181 88.3773 40.3781L73.1488 7.75767ZM66.1259 12.9123C64.1462 15.075 62.6119 17.6065 61.6107 20.3625L95.4471 32.6547C94.8336 34.3434 93.8935 35.8946 92.6805 37.2197L66.1259 12.9123ZM61.6127 20.3572L38.5602 83.7514L72.3928 96.0541L95.4452 32.6599L61.6127 20.3572ZM38.5556 83.7642C36.5375 89.3269 36.8108 95.4632 39.3153 100.825L71.9319 85.5879C73.4665 88.8729 73.634 92.6328 72.3974 96.0413L38.5556 83.7642ZM39.3153 100.825C41.8198 106.186 46.3505 110.333 51.9118 112.355L64.2136 78.5225C67.6213 79.7615 70.3974 82.3029 71.9319 85.5879L39.3153 100.825ZM51.8273 112.324C54.3039 113.239 56.9235 113.705 59.5636 113.702L59.5154 77.7019C61.1475 77.6997 62.767 77.9881 64.2981 78.5535L51.8273 112.324ZM59.5363 113.702C64.1194 113.703 68.5917 112.293 72.3456 109.664L51.694 80.1762C53.9942 78.5653 56.7345 77.7014 59.5427 77.7019L59.5363 113.702ZM72.3456 109.664C76.0996 107.035 78.9534 103.314 80.5193 99.0064L46.6857 86.7064C47.6452 84.0671 49.3938 81.7872 51.694 80.1762L72.3456 109.664ZM80.5188 99.0077L103.571 35.6135L69.7386 23.3108L46.6862 86.705L80.5188 99.0077ZM103.571 35.614C104.573 32.8586 105.023 29.9327 104.894 27.0034L68.9284 28.5864C68.8494 26.7915 69.1248 24.9987 69.7388 23.3104L103.571 35.614ZM104.894 27.0034C104.765 24.0741 104.06 21.199 102.82 18.5423L70.1992 33.7708C69.4393 32.143 69.0074 30.3813 68.9284 28.5864L104.894 27.0034ZM102.82 18.5423C101.579 15.8855 99.8278 13.4991 97.665 11.5193L73.3576 38.074C72.0324 36.8609 70.9592 35.3987 70.1992 33.7708L102.82 18.5423ZM97.665 11.5193C95.5023 9.53965 92.9707 8.00537 90.2149 7.00419L77.9226 40.8406C76.2339 40.2271 74.6828 39.287 73.3576 38.074L97.665 11.5193Z" fill="white" mask="url(#path-1-outside-1_1323_2220)"/>
</svg>
