<svg width="102" height="102" viewBox="0 0 102 102" fill="none" xmlns="http://www.w3.org/2000/svg">
<g filter="url(#filter0_d_5713_2492)">
<rect x="17" y="15" width="69" height="65" fill="white"/>
<mask id="path-2-outside-1_5713_2492" maskUnits="userSpaceOnUse" x="6" y="3" width="90" height="90" fill="black">
<rect fill="white" x="6" y="3" width="90" height="90"/>
<path fill-rule="evenodd" clip-rule="evenodd" d="M56 24C56 26.7614 53.7614 29 51 29C48.2386 29 46 26.7614 46 24C46 21.2386 48.2386 19 51 19C53.7614 19 56 21.2386 56 24ZM60 24C60 28.9706 55.9706 33 51 33C46.0294 33 42 28.9706 42 24C42 19.0294 46.0294 15 51 15C55.9706 15 60 19.0294 60 24ZM33 26C33 28.2091 31.2091 30 29 30C26.7909 30 25 28.2091 25 26C25 23.7909 26.7909 22 29 22C31.2091 22 33 23.7909 33 26ZM37 26C37 30.4183 33.4183 34 29 34C24.5817 34 21 30.4183 21 26C21 21.5817 24.5817 18 29 18C33.4183 18 37 21.5817 37 26ZM73 30C75.2091 30 77 28.2091 77 26C77 23.7909 75.2091 22 73 22C70.7909 22 69 23.7909 69 26C69 28.2091 70.7909 30 73 30ZM73 34C77.4183 34 81 30.4183 81 26C81 21.5817 77.4183 18 73 18C68.5817 18 65 21.5817 65 26C65 30.4183 68.5817 34 73 34ZM41 45C41 43.8954 41.8954 43 43 43H59C60.1046 43 61 43.8954 61 45V45.7273V63.1061V67C61 72.5228 56.5229 77 51 77C45.4772 77 41 72.5228 41 67V63.1061V45.7273V45ZM37 65.9091V45.7273V45C37 41.6863 39.6863 39 43 39H59C62.3137 39 65 41.6863 65 45V45.7273V65.9091V67C65 74.732 58.732 81 51 81C43.268 81 37 74.732 37 67V65.9091ZM67.2566 74.5848C68.8289 75.4895 70.6113 76 72.5 76C78.8513 76 84 70.2272 84 63.1061V45.7273C84 42.0119 81.3137 39 78 39H67.0007C67.8742 40.3038 68.5 41.828 68.8 43.4848H78C79.1046 43.4848 80 44.4888 80 45.7273V63.1061C80 67.7503 76.6421 71.5152 72.5 71.5152C71.0622 71.5152 69.7189 71.0615 68.5777 70.2749C68.2814 71.7817 67.8348 73.2252 67.2566 74.5848ZM29.5 76C31.3887 76 33.1711 75.4895 34.7434 74.5848C34.1652 73.2252 33.7186 71.7817 33.4223 70.2749C32.2811 71.0615 30.9378 71.5152 29.5 71.5152C25.3579 71.5152 22 67.7503 22 63.1061V45.7273C22 44.4888 22.8954 43.4848 24 43.4848H33.2C33.5 41.828 34.1258 40.3038 34.9993 39H24C20.6863 39 18 42.0119 18 45.7273V63.1061C18 70.2272 23.1487 76 29.5 76Z"/>
</mask>
<path fill-rule="evenodd" clip-rule="evenodd" d="M56 24C56 26.7614 53.7614 29 51 29C48.2386 29 46 26.7614 46 24C46 21.2386 48.2386 19 51 19C53.7614 19 56 21.2386 56 24ZM60 24C60 28.9706 55.9706 33 51 33C46.0294 33 42 28.9706 42 24C42 19.0294 46.0294 15 51 15C55.9706 15 60 19.0294 60 24ZM33 26C33 28.2091 31.2091 30 29 30C26.7909 30 25 28.2091 25 26C25 23.7909 26.7909 22 29 22C31.2091 22 33 23.7909 33 26ZM37 26C37 30.4183 33.4183 34 29 34C24.5817 34 21 30.4183 21 26C21 21.5817 24.5817 18 29 18C33.4183 18 37 21.5817 37 26ZM73 30C75.2091 30 77 28.2091 77 26C77 23.7909 75.2091 22 73 22C70.7909 22 69 23.7909 69 26C69 28.2091 70.7909 30 73 30ZM73 34C77.4183 34 81 30.4183 81 26C81 21.5817 77.4183 18 73 18C68.5817 18 65 21.5817 65 26C65 30.4183 68.5817 34 73 34ZM41 45C41 43.8954 41.8954 43 43 43H59C60.1046 43 61 43.8954 61 45V45.7273V63.1061V67C61 72.5228 56.5229 77 51 77C45.4772 77 41 72.5228 41 67V63.1061V45.7273V45ZM37 65.9091V45.7273V45C37 41.6863 39.6863 39 43 39H59C62.3137 39 65 41.6863 65 45V45.7273V65.9091V67C65 74.732 58.732 81 51 81C43.268 81 37 74.732 37 67V65.9091ZM67.2566 74.5848C68.8289 75.4895 70.6113 76 72.5 76C78.8513 76 84 70.2272 84 63.1061V45.7273C84 42.0119 81.3137 39 78 39H67.0007C67.8742 40.3038 68.5 41.828 68.8 43.4848H78C79.1046 43.4848 80 44.4888 80 45.7273V63.1061C80 67.7503 76.6421 71.5152 72.5 71.5152C71.0622 71.5152 69.7189 71.0615 68.5777 70.2749C68.2814 71.7817 67.8348 73.2252 67.2566 74.5848ZM29.5 76C31.3887 76 33.1711 75.4895 34.7434 74.5848C34.1652 73.2252 33.7186 71.7817 33.4223 70.2749C32.2811 71.0615 30.9378 71.5152 29.5 71.5152C25.3579 71.5152 22 67.7503 22 63.1061V45.7273C22 44.4888 22.8954 43.4848 24 43.4848H33.2C33.5 41.828 34.1258 40.3038 34.9993 39H24C20.6863 39 18 42.0119 18 45.7273V63.1061C18 70.2272 23.1487 76 29.5 76Z" fill="#FF4C4C"/>
<path d="M67.2566 74.5848L56.2138 69.8885L52.0498 79.6796L61.2719 84.9859L67.2566 74.5848ZM67.0007 39V27H44.5177L57.0311 45.6789L67.0007 39ZM68.8 43.4848L56.9919 45.6226L58.7774 55.4848H68.8V43.4848ZM68.5777 70.2749L75.3879 60.3946L60.3322 50.0172L56.8033 67.9591L68.5777 70.2749ZM34.7434 74.5848L40.7281 84.9859L49.9502 79.6796L45.7862 69.8885L34.7434 74.5848ZM33.4223 70.2749L45.1967 67.9591L41.6678 50.0172L26.6121 60.3946L33.4223 70.2749ZM33.2 43.4848V55.4848H43.2226L45.0081 45.6226L33.2 43.4848ZM34.9993 39L44.9689 45.6789L57.4823 27H34.9993V39ZM51 41C60.3888 41 68 33.3888 68 24H44C44 20.134 47.134 17 51 17V41ZM34 24C34 33.3888 41.6112 41 51 41V17C54.866 17 58 20.134 58 24H34ZM51 7C41.6112 7 34 14.6112 34 24H58C58 27.866 54.866 31 51 31V7ZM68 24C68 14.6112 60.3888 7 51 7V31C47.134 31 44 27.866 44 24H68ZM51 45C62.598 45 72 35.598 72 24H48C48 22.3431 49.3431 21 51 21V45ZM30 24C30 35.598 39.402 45 51 45V21C52.6569 21 54 22.3431 54 24H30ZM51 3C39.402 3 30 12.402 30 24H54C54 25.6569 52.6569 27 51 27V3ZM72 24C72 12.402 62.598 3 51 3V27C49.3431 27 48 25.6569 48 24H72ZM29 42C37.8366 42 45 34.8366 45 26H21C21 21.5817 24.5817 18 29 18V42ZM13 26C13 34.8366 20.1634 42 29 42V18C33.4183 18 37 21.5817 37 26H13ZM29 10C20.1634 10 13 17.1634 13 26H37C37 30.4183 33.4183 34 29 34V10ZM45 26C45 17.1634 37.8366 10 29 10V34C24.5817 34 21 30.4183 21 26H45ZM29 46C40.0457 46 49 37.0457 49 26H25C25 23.7909 26.7909 22 29 22V46ZM9 26C9 37.0457 17.9543 46 29 46V22C31.2091 22 33 23.7909 33 26H9ZM29 6C17.9543 6 9 14.9543 9 26H33C33 28.2091 31.2091 30 29 30V6ZM49 26C49 14.9543 40.0457 6 29 6V30C26.7909 30 25 28.2091 25 26H49ZM65 26C65 21.5817 68.5817 18 73 18V42C81.8366 42 89 34.8366 89 26H65ZM73 34C68.5817 34 65 30.4183 65 26H89C89 17.1634 81.8366 10 73 10V34ZM81 26C81 30.4183 77.4183 34 73 34V10C64.1634 10 57 17.1634 57 26H81ZM73 18C77.4183 18 81 21.5817 81 26H57C57 34.8366 64.1634 42 73 42V18ZM69 26C69 23.7909 70.7909 22 73 22V46C84.0457 46 93 37.0457 93 26H69ZM73 30C70.7909 30 69 28.2091 69 26H93C93 14.9543 84.0457 6 73 6V30ZM77 26C77 28.2091 75.2091 30 73 30V6C61.9543 6 53 14.9543 53 26H77ZM73 22C75.2091 22 77 23.7909 77 26H53C53 37.0457 61.9543 46 73 46V22ZM43 31C35.268 31 29 37.268 29 45H53C53 50.5228 48.5229 55 43 55V31ZM59 31H43V55H59V31ZM73 45C73 37.268 66.732 31 59 31V55C53.4771 55 49 50.5229 49 45H73ZM73 45.7273V45H49V45.7273H73ZM73 63.1061V45.7273H49V63.1061H73ZM73 67V63.1061H49V67H73ZM51 89C63.1503 89 73 79.1503 73 67H49C49 65.8954 49.8954 65 51 65V89ZM29 67C29 79.1503 38.8497 89 51 89V65C52.1046 65 53 65.8954 53 67H29ZM29 63.1061V67H53V63.1061H29ZM29 45.7273V63.1061H53V45.7273H29ZM29 45V45.7273H53V45H29ZM49 65.9091V45.7273H25V65.9091H49ZM49 45.7273V45H25V45.7273H49ZM49 45C49 48.3137 46.3137 51 43 51V27C33.0589 27 25 35.0589 25 45H49ZM43 51H59V27H43V51ZM59 51C55.6863 51 53 48.3137 53 45H77C77 35.0589 68.9411 27 59 27V51ZM53 45V45.7273H77V45H53ZM53 45.7273V65.9091H77V45.7273H53ZM53 65.9091V67H77V65.9091H53ZM53 67C53 68.1046 52.1046 69 51 69V93C65.3594 93 77 81.3594 77 67H53ZM51 69C49.8954 69 49 68.1046 49 67H25C25 81.3594 36.6406 93 51 93V69ZM49 67V65.9091H25V67H49ZM72.5 64C72.6434 64 72.792 64.0202 72.9317 64.0585C73.069 64.0961 73.1728 64.1442 73.2413 64.1837L61.2719 84.9859C64.5709 86.8842 68.4052 88 72.5 88V64ZM72 63.1061C72 63.7797 71.7576 64.1448 71.6762 64.2361C71.6414 64.2751 71.6793 64.2178 71.8344 64.1442C72.004 64.0638 72.2423 64 72.5 64V88C86.7327 88 96 75.5269 96 63.1061H72ZM72 45.7273V63.1061H96V45.7273H72ZM78 51C75.8669 51 74.2202 50.004 73.2871 48.9578C72.3732 47.933 72 46.7565 72 45.7273H96C96 36.7122 89.1952 27 78 27V51ZM67.0007 51H78V27H67.0007V51ZM80.608 41.3471C80.0172 38.0839 78.7723 35.011 76.9703 32.3211L57.0311 45.6789C57.0025 45.6362 56.9907 45.6091 56.9874 45.6009C56.9839 45.5922 56.9876 45.5989 56.9919 45.6226L80.608 41.3471ZM78 31.4848H68.8V55.4848H78V31.4848ZM92 45.7273C92 39.1891 86.986 31.4848 78 31.4848V55.4848C71.2231 55.4848 68 49.7885 68 45.7273H92ZM92 63.1061V45.7273H68V63.1061H92ZM72.5 83.5152C84.5236 83.5152 92 73.0499 92 63.1061H68C68 62.5412 68.2053 61.7852 68.8478 61.0648C69.5094 60.3229 70.7812 59.5152 72.5 59.5152V83.5152ZM61.7675 80.1553C64.7786 82.2307 68.4733 83.5152 72.5 83.5152V59.5152C73.6511 59.5152 74.6592 59.8923 75.3879 60.3946L61.7675 80.1553ZM78.2995 79.2811C79.2039 77.1544 79.8954 74.913 80.3521 72.5908L56.8033 67.9591C56.6673 68.6504 56.4657 69.296 56.2138 69.8885L78.2995 79.2811ZM28.7587 64.1837C28.8272 64.1443 28.931 64.0961 29.0683 64.0585C29.208 64.0202 29.3566 64 29.5 64V88C33.5948 88 37.4291 86.8842 40.7281 84.9859L28.7587 64.1837ZM21.6479 72.5908C22.1046 74.913 22.7961 77.1544 23.7005 79.2811L45.7862 69.8885C45.5343 69.296 45.3327 68.6504 45.1967 67.9591L21.6479 72.5908ZM29.5 83.5152C33.5267 83.5152 37.2214 82.2307 40.2325 80.1553L26.6121 60.3946C27.3408 59.8923 28.3489 59.5152 29.5 59.5152V83.5152ZM10 63.1061C10 73.0499 17.4764 83.5152 29.5 83.5152V59.5152C31.2188 59.5152 32.4906 60.3229 33.1522 61.0648C33.7947 61.7852 34 62.5412 34 63.1061H10ZM10 45.7273V63.1061H34V45.7273H10ZM24 31.4848C15.014 31.4848 10 39.1891 10 45.7273H34C34 49.7885 30.7769 55.4848 24 55.4848V31.4848ZM33.2 31.4848H24V55.4848H33.2V31.4848ZM25.0297 32.3211C23.2277 35.011 21.9828 38.0839 21.392 41.3471L45.0081 45.6226C45.0124 45.5989 45.0161 45.5922 45.0126 45.6009C45.0093 45.6091 44.9975 45.6362 44.9689 45.6789L25.0297 32.3211ZM24 51H34.9993V27H24V51ZM30 45.7273C30 46.7565 29.6268 47.933 28.7129 48.9578C27.7798 50.004 26.1331 51 24 51V27C12.8048 27 6 36.7122 6 45.7273H30ZM30 63.1061V45.7273H6V63.1061H30ZM29.5 64C29.7577 64 29.996 64.0638 30.1656 64.1442C30.3207 64.2178 30.3586 64.2751 30.3238 64.2361C30.2424 64.1448 30 63.7797 30 63.1061H6C6 75.5269 15.2673 88 29.5 88V64Z" fill="white" mask="url(#path-2-outside-1_5713_2492)"/>
</g>
<defs>
<filter id="filter0_d_5713_2492" x="0" y="0" width="102" height="102" filterUnits="userSpaceOnUse" color-interpolation-filters="sRGB">
<feFlood flood-opacity="0" result="BackgroundImageFix"/>
<feColorMatrix in="SourceAlpha" type="matrix" values="0 0 0 0 0 0 0 0 0 0 0 0 0 0 0 0 0 0 127 0" result="hardAlpha"/>
<feOffset dy="3"/>
<feGaussianBlur stdDeviation="3"/>
<feComposite in2="hardAlpha" operator="out"/>
<feColorMatrix type="matrix" values="0 0 0 0 0 0 0 0 0 0 0 0 0 0 0 0 0 0 0.25 0"/>
<feBlend mode="normal" in2="BackgroundImageFix" result="effect1_dropShadow_5713_2492"/>
<feBlend mode="normal" in="SourceGraphic" in2="effect1_dropShadow_5713_2492" result="shape"/>
</filter>
</defs>
</svg>
