<svg width="90" height="90" viewBox="0 0 90 90" fill="none" xmlns="http://www.w3.org/2000/svg">
<rect x="11" y="12" width="69" height="65" fill="white"/>
<mask id="path-2-outside-1_5713_2490" maskUnits="userSpaceOnUse" x="0" y="0" width="90" height="90" fill="black">
<rect fill="white" width="90" height="90"/>
<path fill-rule="evenodd" clip-rule="evenodd" d="M50 21C50 23.7614 47.7614 26 45 26C42.2386 26 40 23.7614 40 21C40 18.2386 42.2386 16 45 16C47.7614 16 50 18.2386 50 21ZM54 21C54 25.9706 49.9706 30 45 30C40.0294 30 36 25.9706 36 21C36 16.0294 40.0294 12 45 12C49.9706 12 54 16.0294 54 21ZM27 23C27 25.2091 25.2091 27 23 27C20.7909 27 19 25.2091 19 23C19 20.7909 20.7909 19 23 19C25.2091 19 27 20.7909 27 23ZM31 23C31 27.4183 27.4183 31 23 31C18.5817 31 15 27.4183 15 23C15 18.5817 18.5817 15 23 15C27.4183 15 31 18.5817 31 23ZM67 27C69.2091 27 71 25.2091 71 23C71 20.7909 69.2091 19 67 19C64.7909 19 63 20.7909 63 23C63 25.2091 64.7909 27 67 27ZM67 31C71.4183 31 75 27.4183 75 23C75 18.5817 71.4183 15 67 15C62.5817 15 59 18.5817 59 23C59 27.4183 62.5817 31 67 31ZM35 42C35 40.8954 35.8954 40 37 40H53C54.1046 40 55 40.8954 55 42V42.7273V60.1061V64C55 69.5228 50.5229 74 45 74C39.4772 74 35 69.5228 35 64V60.1061V42.7273V42ZM31 62.9091V42.7273V42C31 38.6863 33.6863 36 37 36H53C56.3137 36 59 38.6863 59 42V42.7273V62.9091V64C59 71.732 52.732 78 45 78C37.268 78 31 71.732 31 64V62.9091ZM61.2566 71.5848C62.8289 72.4895 64.6113 73 66.5 73C72.8513 73 78 67.2272 78 60.1061V42.7273C78 39.0119 75.3137 36 72 36H61.0007C61.8742 37.3038 62.5 38.828 62.8 40.4848H72C73.1046 40.4848 74 41.4888 74 42.7273V60.1061C74 64.7503 70.6421 68.5152 66.5 68.5152C65.0622 68.5152 63.7189 68.0615 62.5777 67.2749C62.2814 68.7817 61.8348 70.2252 61.2566 71.5848ZM23.5 73C25.3887 73 27.1711 72.4895 28.7434 71.5848C28.1652 70.2252 27.7186 68.7817 27.4223 67.2749C26.2811 68.0615 24.9378 68.5152 23.5 68.5152C19.3579 68.5152 16 64.7503 16 60.1061V42.7273C16 41.4888 16.8954 40.4848 18 40.4848H27.2C27.5 38.828 28.1258 37.3038 28.9993 36H18C14.6863 36 12 39.0119 12 42.7273V60.1061C12 67.2272 17.1487 73 23.5 73Z"/>
</mask>
<path fill-rule="evenodd" clip-rule="evenodd" d="M50 21C50 23.7614 47.7614 26 45 26C42.2386 26 40 23.7614 40 21C40 18.2386 42.2386 16 45 16C47.7614 16 50 18.2386 50 21ZM54 21C54 25.9706 49.9706 30 45 30C40.0294 30 36 25.9706 36 21C36 16.0294 40.0294 12 45 12C49.9706 12 54 16.0294 54 21ZM27 23C27 25.2091 25.2091 27 23 27C20.7909 27 19 25.2091 19 23C19 20.7909 20.7909 19 23 19C25.2091 19 27 20.7909 27 23ZM31 23C31 27.4183 27.4183 31 23 31C18.5817 31 15 27.4183 15 23C15 18.5817 18.5817 15 23 15C27.4183 15 31 18.5817 31 23ZM67 27C69.2091 27 71 25.2091 71 23C71 20.7909 69.2091 19 67 19C64.7909 19 63 20.7909 63 23C63 25.2091 64.7909 27 67 27ZM67 31C71.4183 31 75 27.4183 75 23C75 18.5817 71.4183 15 67 15C62.5817 15 59 18.5817 59 23C59 27.4183 62.5817 31 67 31ZM35 42C35 40.8954 35.8954 40 37 40H53C54.1046 40 55 40.8954 55 42V42.7273V60.1061V64C55 69.5228 50.5229 74 45 74C39.4772 74 35 69.5228 35 64V60.1061V42.7273V42ZM31 62.9091V42.7273V42C31 38.6863 33.6863 36 37 36H53C56.3137 36 59 38.6863 59 42V42.7273V62.9091V64C59 71.732 52.732 78 45 78C37.268 78 31 71.732 31 64V62.9091ZM61.2566 71.5848C62.8289 72.4895 64.6113 73 66.5 73C72.8513 73 78 67.2272 78 60.1061V42.7273C78 39.0119 75.3137 36 72 36H61.0007C61.8742 37.3038 62.5 38.828 62.8 40.4848H72C73.1046 40.4848 74 41.4888 74 42.7273V60.1061C74 64.7503 70.6421 68.5152 66.5 68.5152C65.0622 68.5152 63.7189 68.0615 62.5777 67.2749C62.2814 68.7817 61.8348 70.2252 61.2566 71.5848ZM23.5 73C25.3887 73 27.1711 72.4895 28.7434 71.5848C28.1652 70.2252 27.7186 68.7817 27.4223 67.2749C26.2811 68.0615 24.9378 68.5152 23.5 68.5152C19.3579 68.5152 16 64.7503 16 60.1061V42.7273C16 41.4888 16.8954 40.4848 18 40.4848H27.2C27.5 38.828 28.1258 37.3038 28.9993 36H18C14.6863 36 12 39.0119 12 42.7273V60.1061C12 67.2272 17.1487 73 23.5 73Z" fill="#FF4C4C"/>
<path d="M61.2566 71.5848L50.2138 66.8885L46.0498 76.6796L55.2719 81.9859L61.2566 71.5848ZM61.0007 36V24H38.5177L51.0311 42.6789L61.0007 36ZM62.8 40.4848L50.9919 42.6226L52.7774 52.4848H62.8V40.4848ZM62.5777 67.2749L69.3879 57.3946L54.3322 47.0172L50.8033 64.9591L62.5777 67.2749ZM28.7434 71.5848L34.7281 81.9859L43.9502 76.6796L39.7862 66.8885L28.7434 71.5848ZM27.4223 67.2749L39.1967 64.9591L35.6678 47.0172L20.6121 57.3946L27.4223 67.2749ZM27.2 40.4848V52.4848H37.2226L39.0081 42.6226L27.2 40.4848ZM28.9993 36L38.9689 42.6789L51.4823 24H28.9993V36ZM45 38C54.3888 38 62 30.3888 62 21H38C38 17.134 41.134 14 45 14V38ZM28 21C28 30.3888 35.6112 38 45 38V14C48.866 14 52 17.134 52 21H28ZM45 4C35.6112 4 28 11.6112 28 21H52C52 24.866 48.866 28 45 28V4ZM62 21C62 11.6112 54.3888 4 45 4V28C41.134 28 38 24.866 38 21H62ZM45 42C56.598 42 66 32.598 66 21H42C42 19.3431 43.3431 18 45 18V42ZM24 21C24 32.598 33.402 42 45 42V18C46.6569 18 48 19.3431 48 21H24ZM45 0C33.402 0 24 9.40202 24 21H48C48 22.6569 46.6569 24 45 24V0ZM66 21C66 9.40202 56.598 0 45 0V24C43.3431 24 42 22.6569 42 21H66ZM23 39C31.8366 39 39 31.8366 39 23H15C15 18.5817 18.5817 15 23 15V39ZM7 23C7 31.8366 14.1634 39 23 39V15C27.4183 15 31 18.5817 31 23H7ZM23 7C14.1634 7 7 14.1634 7 23H31C31 27.4183 27.4183 31 23 31V7ZM39 23C39 14.1634 31.8366 7 23 7V31C18.5817 31 15 27.4183 15 23H39ZM23 43C34.0457 43 43 34.0457 43 23H19C19 20.7909 20.7909 19 23 19V43ZM3 23C3 34.0457 11.9543 43 23 43V19C25.2091 19 27 20.7909 27 23H3ZM23 3C11.9543 3 3 11.9543 3 23H27C27 25.2091 25.2091 27 23 27V3ZM43 23C43 11.9543 34.0457 3 23 3V27C20.7909 27 19 25.2091 19 23H43ZM59 23C59 18.5817 62.5817 15 67 15V39C75.8366 39 83 31.8366 83 23H59ZM67 31C62.5817 31 59 27.4183 59 23H83C83 14.1634 75.8366 7 67 7V31ZM75 23C75 27.4183 71.4183 31 67 31V7C58.1634 7 51 14.1634 51 23H75ZM67 15C71.4183 15 75 18.5817 75 23H51C51 31.8366 58.1634 39 67 39V15ZM63 23C63 20.7909 64.7909 19 67 19V43C78.0457 43 87 34.0457 87 23H63ZM67 27C64.7909 27 63 25.2091 63 23H87C87 11.9543 78.0457 3 67 3V27ZM71 23C71 25.2091 69.2091 27 67 27V3C55.9543 3 47 11.9543 47 23H71ZM67 19C69.2091 19 71 20.7909 71 23H47C47 34.0457 55.9543 43 67 43V19ZM37 28C29.268 28 23 34.268 23 42H47C47 47.5228 42.5229 52 37 52V28ZM53 28H37V52H53V28ZM67 42C67 34.268 60.732 28 53 28V52C47.4771 52 43 47.5229 43 42H67ZM67 42.7273V42H43V42.7273H67ZM67 60.1061V42.7273H43V60.1061H67ZM67 64V60.1061H43V64H67ZM45 86C57.1503 86 67 76.1503 67 64H43C43 62.8954 43.8954 62 45 62V86ZM23 64C23 76.1503 32.8497 86 45 86V62C46.1046 62 47 62.8954 47 64H23ZM23 60.1061V64H47V60.1061H23ZM23 42.7273V60.1061H47V42.7273H23ZM23 42V42.7273H47V42H23ZM43 62.9091V42.7273H19V62.9091H43ZM43 42.7273V42H19V42.7273H43ZM43 42C43 45.3137 40.3137 48 37 48V24C27.0589 24 19 32.0589 19 42H43ZM37 48H53V24H37V48ZM53 48C49.6863 48 47 45.3137 47 42H71C71 32.0589 62.9411 24 53 24V48ZM47 42V42.7273H71V42H47ZM47 42.7273V62.9091H71V42.7273H47ZM47 62.9091V64H71V62.9091H47ZM47 64C47 65.1046 46.1046 66 45 66V90C59.3594 90 71 78.3594 71 64H47ZM45 66C43.8954 66 43 65.1046 43 64H19C19 78.3594 30.6406 90 45 90V66ZM43 64V62.9091H19V64H43ZM66.5 61C66.6434 61 66.792 61.0202 66.9317 61.0585C67.069 61.0961 67.1728 61.1442 67.2413 61.1837L55.2719 81.9859C58.5709 83.8842 62.4052 85 66.5 85V61ZM66 60.1061C66 60.7797 65.7576 61.1448 65.6762 61.2361C65.6414 61.2751 65.6793 61.2178 65.8344 61.1442C66.004 61.0638 66.2423 61 66.5 61V85C80.7327 85 90 72.5269 90 60.1061H66ZM66 42.7273V60.1061H90V42.7273H66ZM72 48C69.8669 48 68.2202 47.004 67.2871 45.9578C66.3732 44.933 66 43.7565 66 42.7273H90C90 33.7122 83.1952 24 72 24V48ZM61.0007 48H72V24H61.0007V48ZM74.608 38.3471C74.0172 35.0839 72.7723 32.011 70.9703 29.3211L51.0311 42.6789C51.0025 42.6362 50.9907 42.6091 50.9874 42.6009C50.9839 42.5922 50.9876 42.5989 50.9919 42.6226L74.608 38.3471ZM72 28.4848H62.8V52.4848H72V28.4848ZM86 42.7273C86 36.1891 80.986 28.4848 72 28.4848V52.4848C65.2231 52.4848 62 46.7885 62 42.7273H86ZM86 60.1061V42.7273H62V60.1061H86ZM66.5 80.5152C78.5236 80.5152 86 70.0499 86 60.1061H62C62 59.5412 62.2053 58.7852 62.8478 58.0648C63.5094 57.3229 64.7812 56.5152 66.5 56.5152V80.5152ZM55.7675 77.1553C58.7786 79.2307 62.4733 80.5152 66.5 80.5152V56.5152C67.6511 56.5152 68.6592 56.8923 69.3879 57.3946L55.7675 77.1553ZM72.2995 76.2811C73.2039 74.1544 73.8954 71.913 74.3521 69.5908L50.8033 64.9591C50.6673 65.6504 50.4657 66.296 50.2138 66.8885L72.2995 76.2811ZM22.7587 61.1837C22.8272 61.1443 22.931 61.0961 23.0683 61.0585C23.208 61.0202 23.3566 61 23.5 61V85C27.5948 85 31.4291 83.8842 34.7281 81.9859L22.7587 61.1837ZM15.6479 69.5908C16.1046 71.913 16.7961 74.1544 17.7005 76.2811L39.7862 66.8885C39.5343 66.296 39.3327 65.6504 39.1967 64.9591L15.6479 69.5908ZM23.5 80.5152C27.5267 80.5152 31.2214 79.2307 34.2325 77.1553L20.6121 57.3946C21.3408 56.8923 22.3489 56.5152 23.5 56.5152V80.5152ZM4 60.1061C4 70.0499 11.4764 80.5152 23.5 80.5152V56.5152C25.2188 56.5152 26.4906 57.3229 27.1522 58.0648C27.7947 58.7852 28 59.5412 28 60.1061H4ZM4 42.7273V60.1061H28V42.7273H4ZM18 28.4848C9.01398 28.4848 4 36.1891 4 42.7273H28C28 46.7885 24.7769 52.4848 18 52.4848V28.4848ZM27.2 28.4848H18V52.4848H27.2V28.4848ZM19.0297 29.3211C17.2277 32.011 15.9828 35.0839 15.392 38.3471L39.0081 42.6226C39.0124 42.5989 39.0161 42.5922 39.0126 42.6009C39.0093 42.6091 38.9975 42.6362 38.9689 42.6789L19.0297 29.3211ZM18 48H28.9993V24H18V48ZM24 42.7273C24 43.7565 23.6268 44.933 22.7129 45.9578C21.7798 47.004 20.1331 48 18 48V24C6.80484 24 0 33.7122 0 42.7273H24ZM24 60.1061V42.7273H0V60.1061H24ZM23.5 61C23.7577 61 23.996 61.0638 24.1656 61.1442C24.3207 61.2178 24.3586 61.2751 24.3238 61.2361C24.2424 61.1448 24 60.7797 24 60.1061H0C0 72.5269 9.26727 85 23.5 85V61Z" fill="white" mask="url(#path-2-outside-1_5713_2490)"/>
</svg>
