<svg width="66" height="66" viewBox="0 0 66 66" fill="none" xmlns="http://www.w3.org/2000/svg">
<path fill-rule="evenodd" clip-rule="evenodd" d="M38 9C38 11.7614 35.7614 14 33 14C30.2386 14 28 11.7614 28 9C28 6.23858 30.2386 4 33 4C35.7614 4 38 6.23858 38 9ZM42 9C42 13.9706 37.9706 18 33 18C28.0294 18 24 13.9706 24 9C24 4.02944 28.0294 0 33 0C37.9706 0 42 4.02944 42 9ZM15 11C15 13.2091 13.2091 15 11 15C8.79086 15 7 13.2091 7 11C7 8.79086 8.79086 7 11 7C13.2091 7 15 8.79086 15 11ZM19 11C19 15.4183 15.4183 19 11 19C6.58172 19 3 15.4183 3 11C3 6.58172 6.58172 3 11 3C15.4183 3 19 6.58172 19 11ZM55 15C57.2091 15 59 13.2091 59 11C59 8.79086 57.2091 7 55 7C52.7909 7 51 8.79086 51 11C51 13.2091 52.7909 15 55 15ZM55 19C59.4183 19 63 15.4183 63 11C63 6.58172 59.4183 3 55 3C50.5817 3 47 6.58172 47 11C47 15.4183 50.5817 19 55 19ZM23 30C23 28.8954 23.8954 28 25 28H41C42.1046 28 43 28.8954 43 30V30.7273V48.1061V52C43 57.5228 38.5229 62 33 62C27.4772 62 23 57.5228 23 52V48.1061V30.7273V30ZM19 50.9091V30.7273V30C19 26.6863 21.6863 24 25 24H41C44.3137 24 47 26.6863 47 30V30.7273V50.9091V52C47 59.732 40.732 66 33 66C25.268 66 19 59.732 19 52V50.9091ZM49.2566 59.5848C50.8289 60.4895 52.6113 61 54.5 61C60.8513 61 66 55.2272 66 48.1061V30.7273C66 27.0119 63.3137 24 60 24H49.0007C49.8742 25.3038 50.5 26.828 50.8 28.4848H60C61.1046 28.4848 62 29.4888 62 30.7273V48.1061C62 52.7503 58.6421 56.5152 54.5 56.5152C53.0622 56.5152 51.7189 56.0615 50.5777 55.2749C50.2814 56.7817 49.8348 58.2252 49.2566 59.5848ZM11.5 61C13.3887 61 15.1711 60.4895 16.7434 59.5848C16.1652 58.2252 15.7186 56.7817 15.4223 55.2749C14.2811 56.0615 12.9378 56.5152 11.5 56.5152C7.35787 56.5152 4 52.7503 4 48.1061V30.7273C4 29.4888 4.89543 28.4848 6 28.4848H15.2C15.5 26.828 16.1258 25.3038 16.9993 24H6C2.68629 24 0 27.0119 0 30.7273V48.1061C0 55.2272 5.14873 61 11.5 61Z" fill="#FF4C4C"/>
</svg>
