<svg width="135" height="133" viewBox="0 0 135 133" fill="none" xmlns="http://www.w3.org/2000/svg">
<rect x="75.5005" y="29.0779" width="30.0181" height="62.6742" transform="rotate(46.1734 75.5005 29.0779)" fill="white"/>
<g filter="url(#filter0_d_777_5421)">
<path fill-rule="evenodd" clip-rule="evenodd" d="M102.437 14.5718C91.3533 3.48845 73.469 3.21758 62.055 13.9601L61.7058 14.2889H54.8305C52.5733 14.2889 50.3763 14.5467 48.2675 15.0346L47.6179 14.3445L46.3331 15.5537C37.7124 18.1916 30.7993 24.7386 27.6605 33.1279L20.5733 39.7982C14.1577 45.8364 10.869 54.4258 11.5325 63.1192C3.76823 74.4895 5.03718 90.0001 14.9935 99.9564L24.6187 109.582C35.5819 120.545 53.229 120.946 64.6786 110.492L68.759 106.766H72.3042C82.3852 106.766 91.2477 101.549 96.3391 93.6675C99.8443 90.944 102.689 87.4108 104.593 83.3486C109.882 78.4901 113.314 71.6409 113.701 63.9885C123.687 52.5052 123.1 35.2347 112.321 24.4562L102.437 14.5718Z" fill="white"/>
</g>
<path fill-rule="evenodd" clip-rule="evenodd" d="M85.4396 30.8352C83.1465 28.5421 79.4463 28.4861 77.0848 30.7087L71.0175 36.4191C70.6465 36.7683 70.1562 36.9627 69.6468 36.9627H55.1364C51.8227 36.9627 49.1364 39.649 49.1364 42.9627V60.9701C49.1364 64.2838 51.8227 66.9701 55.1364 66.9701H57.7758C61.0895 66.9701 63.7758 64.2838 63.7758 60.9701V54.9218V52.9218H59.7758V54.9218V60.9701C59.7758 62.0747 58.8804 62.9701 57.7758 62.9701H55.1364C54.0318 62.9701 53.1364 62.0747 53.1364 60.9701V42.9627C53.1364 41.8581 54.0318 40.9627 55.1364 40.9627H69.6468C71.1752 40.9627 72.646 40.3794 73.7589 39.3319L79.8263 33.6215C80.6134 32.8806 81.8468 32.8993 82.6112 33.6637L91.986 43.0385C92.733 43.7855 92.7703 44.9846 92.0711 45.7765L89.0005 49.2541L87.6767 50.7533L90.6751 53.4008L91.9989 51.9016L95.0695 48.424C97.1671 46.0484 97.0554 42.451 94.8145 40.2101L85.4396 30.8352ZM45.6263 47.5546L46.2245 46.9916V52.4846L39.9552 58.3851C39.4473 58.8632 39.2251 59.5714 39.3689 60.2539L40.9743 67.8714C41.4222 69.9964 40.6868 72.1976 39.0516 73.6266L35.5121 76.7199C34.6524 77.4712 34.595 78.7886 35.3862 79.6118L45.6584 90.299C46.4255 91.0972 47.695 91.1203 48.4908 90.3507L55.9047 83.1797C56.8103 82.3038 57.9687 81.7352 59.2157 81.5545L70.1339 79.9724C70.918 79.8588 71.5612 79.2931 71.7738 78.5298L72.7318 75.091C73.3926 72.7189 75.5533 71.0779 78.0157 71.0779C78.8359 71.0779 79.5008 70.413 79.5008 69.5928V67.7182C79.5008 64.8793 81.8022 62.5779 84.6411 62.5779C85.2709 62.5779 85.7814 62.0674 85.7814 61.4376V58.9218C85.7814 57.8172 84.886 56.9218 83.7814 56.9218H69.5008H67.5008V52.9218H69.5008H83.7814C87.0951 52.9218 89.7814 55.6081 89.7814 58.9218V61.4376C89.7814 64.2765 87.48 66.5779 84.6411 66.5779C84.0113 66.5779 83.5008 67.0885 83.5008 67.7182V69.5928C83.5008 72.6222 81.045 75.0779 78.0157 75.0779C77.349 75.0779 76.764 75.5222 76.5851 76.1645L75.627 79.6033C74.9892 81.893 73.0598 83.5903 70.7076 83.9311L59.7893 85.5131C59.3736 85.5734 58.9875 85.7629 58.6856 86.0549L51.2717 93.2258C48.8845 95.5347 45.0759 95.4653 42.7745 93.0709L32.5023 82.3836C30.1288 79.9141 30.3007 75.962 32.8799 73.708L36.4194 70.6147C36.9645 70.1384 37.2096 69.4047 37.0603 68.6963L35.4549 61.0788C35.0234 59.0311 35.6899 56.9065 37.2138 55.4723L45.6263 47.5546Z" fill="#FF971E"/>
<defs>
<filter id="filter0_d_777_5421" x="0.499512" y="0.0779152" width="134.315" height="131.998" filterUnits="userSpaceOnUse" color-interpolation-filters="sRGB">
<feFlood flood-opacity="0" result="BackgroundImageFix"/>
<feColorMatrix in="SourceAlpha" type="matrix" values="0 0 0 0 0 0 0 0 0 0 0 0 0 0 0 0 0 0 127 0" result="hardAlpha"/>
<feMorphology radius="2" operator="dilate" in="SourceAlpha" result="effect1_dropShadow_777_5421"/>
<feOffset dx="4" dy="4"/>
<feGaussianBlur stdDeviation="4"/>
<feComposite in2="hardAlpha" operator="out"/>
<feColorMatrix type="matrix" values="0 0 0 0 0 0 0 0 0 0 0 0 0 0 0 0 0 0 0.08 0"/>
<feBlend mode="normal" in2="BackgroundImageFix" result="effect1_dropShadow_777_5421"/>
<feBlend mode="normal" in="SourceGraphic" in2="effect1_dropShadow_777_5421" result="shape"/>
</filter>
</defs>
</svg>
