<svg width="155" height="133" viewBox="0 0 155 133" fill="none" xmlns="http://www.w3.org/2000/svg">
<g filter="url(#filter0_d_777_5438)">
<path fill-rule="evenodd" clip-rule="evenodd" d="M108.302 43.1468C108.302 43.1493 108.278 43.1668 108.226 43.1916C108.275 43.1567 108.301 43.1443 108.302 43.1468ZM102.83 40.4183C102.821 40.3676 102.82 40.3404 102.822 40.3395C102.824 40.3386 102.829 40.3639 102.83 40.4183ZM134.413 61.785C141.947 47.6974 142.853 32.7506 133.865 19.9977C127.239 10.5972 116.336 5.43602 104.935 6.14194C99.6704 6.46795 94.6851 7.99448 90.1665 10.5097C86.3165 8.32663 82.083 6.85011 77.5054 6.30912C66.4789 5.00599 56.7257 9.56131 50.2536 16.5543C41.7537 25.7383 38.7687 38.5888 41.8144 51.1281L37.0746 55.078H31.3884C17.6426 55.078 6.49951 66.2211 6.49951 79.9668V93.1891C6.49951 106.935 17.6427 118.078 31.3884 118.078H43.8328H72.6449C74.6204 118.078 76.5889 117.843 78.5088 117.377L102.97 111.447C104.255 111.136 105.513 110.723 106.732 110.211L125.251 102.445C136.943 97.542 143.081 84.6333 139.503 72.47L138.88 70.3491C137.934 67.1337 136.394 64.2499 134.413 61.785ZM78.0144 41.3967C78.018 41.3824 78.0205 41.3755 78.021 41.3757C78.0214 41.3758 78.0196 41.383 78.0144 41.3967ZM71.7765 43.0073C71.777 43.0051 71.8048 43.0191 71.8585 43.0557C71.803 43.0278 71.7761 43.0094 71.7765 43.0073Z" fill="white"/>
<g clip-path="url(#clip0_777_5438)">
<path fill-rule="evenodd" clip-rule="evenodd" d="M100.22 33.1731C97.0481 33.3695 93.3847 35.1892 90.3714 39.6134C88.8639 41.8267 85.5298 41.9478 83.9086 39.7332C80.6597 35.2953 77.356 33.5398 74.6558 33.2207C71.9695 32.9032 69.4471 33.95 67.5467 36.0033C63.9938 39.8422 62.6466 47.3589 68.1297 54.7319H63.8C63.2538 54.7319 62.7111 54.771 62.1759 54.8479C57.5656 46.5221 58.9909 37.7733 63.8207 32.5548C66.6869 29.4579 70.7624 27.6483 75.2517 28.1788C79.3676 28.6653 83.4617 31.07 87.0708 35.5211C90.708 30.8162 95.322 28.3898 99.9067 28.1059C104.85 27.7998 109.506 30.017 112.352 34.0553C117.188 40.9167 116.301 51.7011 106.175 63.2691C104.987 63.1729 103.767 63.2622 102.554 63.5572L97.558 64.7724C111.746 52.0001 111.517 41.6831 108.203 36.9801C106.38 34.3946 103.42 32.975 100.22 33.1731ZM60.9048 64.2047C61.361 63.8245 61.9361 63.6163 62.5299 63.6163H82.1125C83.2773 63.6163 84.2927 64.4091 84.5752 65.5391L85.5176 69.309L90.443 68.0776L89.5005 64.3078C88.653 60.9177 85.607 58.5394 82.1125 58.5394H62.5299C60.7484 58.5394 59.0233 59.164 57.6547 60.3045L48.3497 68.0587H39.1149C34.909 68.0587 31.4995 71.4682 31.4995 75.6741V86.4625C31.4995 90.6684 34.909 94.0779 39.1149 94.0779H49.2687H72.7775C73.382 94.0779 73.9843 94.0059 74.5717 93.8635L94.5308 89.025C94.9239 88.9297 95.3087 88.8032 95.6817 88.6468L110.792 82.3101C114.37 80.8099 116.248 76.8601 115.153 73.1384L114.644 71.408C113.487 67.4742 109.423 65.1628 105.451 66.179L83.528 71.7872C83.3224 71.8398 83.1111 71.8664 82.8989 71.8664H69.5764V76.9433H82.8989C83.5355 76.9433 84.1695 76.8635 84.7862 76.7057L106.709 71.0975C108.033 70.7588 109.388 71.5293 109.774 72.8405L110.283 74.571C110.647 75.8115 110.021 77.1281 108.829 77.6282L93.7183 83.9649C93.594 84.017 93.4657 84.0592 93.3347 84.091L73.3756 88.9295C73.1798 88.977 72.979 89.001 72.7775 89.001H51.8072V71.7861L60.9048 64.2047ZM39.1149 73.1356H46.7303V89.001H39.1149C37.7129 89.001 36.5764 87.8645 36.5764 86.4625V75.6741C36.5764 74.2721 37.7129 73.1356 39.1149 73.1356Z" fill="#FF3FBE"/>
</g>
</g>
<defs>
<filter id="filter0_d_777_5438" x="0.499512" y="0.0778809" width="155" height="132" filterUnits="userSpaceOnUse" color-interpolation-filters="sRGB">
<feFlood flood-opacity="0" result="BackgroundImageFix"/>
<feColorMatrix in="SourceAlpha" type="matrix" values="0 0 0 0 0 0 0 0 0 0 0 0 0 0 0 0 0 0 127 0" result="hardAlpha"/>
<feMorphology radius="2" operator="dilate" in="SourceAlpha" result="effect1_dropShadow_777_5438"/>
<feOffset dx="4" dy="4"/>
<feGaussianBlur stdDeviation="4"/>
<feComposite in2="hardAlpha" operator="out"/>
<feColorMatrix type="matrix" values="0 0 0 0 0 0 0 0 0 0 0 0 0 0 0 0 0 0 0.08 0"/>
<feBlend mode="normal" in2="BackgroundImageFix" result="effect1_dropShadow_777_5438"/>
<feBlend mode="normal" in="SourceGraphic" in2="effect1_dropShadow_777_5438" result="shape"/>
</filter>
<clipPath id="clip0_777_5438">
<rect width="83.7692" height="66" fill="white" transform="translate(31.4995 28.0779)"/>
</clipPath>
</defs>
</svg>
