<svg width="121" height="115" viewBox="0 0 121 115" fill="none" xmlns="http://www.w3.org/2000/svg">
<g opacity="0.7">
<mask id="path-1-outside-1_1323_2217" maskUnits="userSpaceOnUse" x="-0.828125" y="-0.635986" width="121" height="116" fill="black">
<rect fill="white" x="-0.828125" y="-0.635986" width="121" height="116"/>
<path d="M99.5191 63.4634C99.8953 69.9411 96.928 76.1682 91.6205 79.9712L94.8384 86.1982C95.7996 88.0789 95.925 90.2938 95.0892 92.2581C94.2951 94.2223 92.6652 95.7686 90.6592 96.4373L87.3577 97.4821C85.9829 97.9452 84.4988 97.973 83.1076 97.5616C81.7165 97.1503 80.4862 96.3198 79.5844 95.1835L70.7245 84.7355C67.005 84.1086 63.4944 82.5205 60.5272 80.1384C58.4376 80.7653 56.348 81.0996 54.2584 81.0996C50.5807 81.0996 46.903 79.9712 43.8104 77.798C41.5954 78.4667 39.3387 78.7593 37.0401 78.7175C33.7386 78.7593 30.4788 78.0906 27.428 76.8368C24.4914 75.5266 21.9822 73.4174 20.1866 70.7498C18.391 68.0822 17.3812 64.9637 17.2725 61.7499C16.9382 58.7409 17.4397 55.6901 18.7352 52.9318C17.5233 49.7974 17.3979 46.3705 18.4427 43.1943C19.989 39.224 22.9144 35.9225 26.5503 33.8329C28.9743 26.77 35.7864 22.0475 43.2671 22.549C49.9538 16.2803 60.1929 15.6116 67.6319 21.0027C69.3871 20.543 71.226 20.2923 73.0648 20.2923C78.7485 20.1669 84.1397 22.6744 87.692 27.1462C96.2176 29.3611 102.319 36.9673 102.654 45.8272C102.862 50.4661 101.609 55.0214 99.0594 58.9081C99.352 60.4126 99.5191 61.9171 99.5191 63.4634ZM78.6231 57.5707C81.0053 57.8633 82.8859 59.6603 82.8859 62.0425C82.8859 63.1509 82.4456 64.2139 81.6619 64.9976C80.8781 65.7814 79.8151 66.2217 78.7067 66.2217H76.0738C74.7365 69.9829 72.3961 73.2845 69.3035 75.792C70.3483 76.1681 71.4349 76.3771 72.5215 76.6697C93.9608 76.3771 91.4533 63.2962 91.4533 63.0873C91.3424 60.2166 90.0956 57.5075 87.9874 55.5559C85.8791 53.6044 83.0819 52.5703 80.2112 52.6811C79.1028 52.6811 78.0399 52.2408 77.2561 51.457C76.4723 50.6732 76.032 49.6103 76.032 48.5019C76.032 47.3935 76.4723 46.3305 77.2561 45.5467C78.0399 44.763 79.1028 44.3227 80.2112 44.3227C85.3516 44.448 90.2831 46.3705 94.128 49.7556C94.3369 48.5437 94.4623 47.2899 94.4623 46.0361C94.2116 40.8539 91.8712 36.3404 82.468 35.4628C77.244 23.0923 64.0795 29.9462 64.0795 33.7911C63.9542 34.7523 64.9572 36.8001 65.1243 36.9255C66.2327 36.9255 67.2957 37.3658 68.0795 38.1495C68.8632 38.9333 69.3035 39.9963 69.3035 41.1047C69.3035 43.4032 67.4229 45.2839 65.1243 45.2839C62.9094 45.2003 60.8198 44.3645 59.1481 42.9435C57.1421 44.2391 54.8435 45.0331 52.4614 45.2839C50.0792 45.4928 48.115 43.8212 47.9896 41.5226C47.9126 40.9767 47.948 40.4208 48.0937 39.8891C48.2393 39.3573 48.4921 38.8609 48.8365 38.4304C49.1809 37.9999 49.6096 37.6444 50.0964 37.3856C50.5832 37.1268 51.1178 36.9702 51.6673 36.9255C52.336 36.8419 55.5958 36.3404 55.5958 33.7075C55.5958 30.9492 56.6406 28.3163 58.4376 26.2267C54.5928 25.1819 50.4553 26.5611 46.2761 31.6179C38.5864 30.4059 35.452 31.4507 33.1535 39.6002C29.1832 41.5644 27.0936 42.9435 26.1742 47.1227C30.6877 46.2033 35.3266 46.5794 39.6312 48.1675C41.7208 48.9616 42.891 51.3019 42.097 53.5587C41.3029 55.7319 38.879 56.8185 36.7058 56.0244C33.655 54.6871 30.228 54.6035 27.0936 55.7737C25.7563 56.9021 25.7563 59.2424 25.7563 61.0812C25.7563 64.1739 27.3026 67.0575 29.9355 68.7292C32.1505 69.8576 34.6162 70.4426 37.0819 70.4009C36.455 69.3143 35.9117 68.1859 35.452 67.0157C35.123 65.942 35.2232 64.7825 35.7316 63.7811C36.24 62.7798 37.1168 62.0145 38.1778 61.6465C39.2388 61.2784 40.4012 61.3361 41.4205 61.8074C42.4398 62.2788 43.2366 63.1271 43.6433 64.1739C45.3149 68.9381 49.5777 72.1979 54.5928 72.7412C60.3183 72.4487 65.4169 69.0635 67.9244 63.8395C68.8856 58.0722 73.5245 57.5707 78.6231 57.5707ZM86.9815 88.7893L84.3904 83.3564L81.4232 84.025L85.6024 89.249L86.9815 88.7893ZM67.5483 52.8064C67.5846 51.7388 67.2107 50.6978 66.5034 49.8973C65.7962 49.0967 64.8092 48.5974 63.7452 48.5019C60.778 48.3347 57.8943 49.3377 55.6793 51.3019C53.2972 53.7259 52.0434 57.0692 52.1688 60.4544C52.1688 61.5628 52.6091 62.6258 53.3929 63.4095C54.1766 64.1933 55.2396 64.6336 56.348 64.6336C58.7302 64.6336 60.5272 62.7529 60.5272 60.4544C60.5272 59.326 60.8198 58.1976 61.4884 57.2782C61.9899 56.8603 62.6168 56.6513 63.2855 56.6513C65.584 56.7767 67.5483 55.0632 67.5483 52.8064Z"/>
</mask>
<path d="M99.5191 63.4634C99.8953 69.9411 96.928 76.1682 91.6205 79.9712L94.8384 86.1982C95.7996 88.0789 95.925 90.2938 95.0892 92.2581C94.2951 94.2223 92.6652 95.7686 90.6592 96.4373L87.3577 97.4821C85.9829 97.9452 84.4988 97.973 83.1076 97.5616C81.7165 97.1503 80.4862 96.3198 79.5844 95.1835L70.7245 84.7355C67.005 84.1086 63.4944 82.5205 60.5272 80.1384C58.4376 80.7653 56.348 81.0996 54.2584 81.0996C50.5807 81.0996 46.903 79.9712 43.8104 77.798C41.5954 78.4667 39.3387 78.7593 37.0401 78.7175C33.7386 78.7593 30.4788 78.0906 27.428 76.8368C24.4914 75.5266 21.9822 73.4174 20.1866 70.7498C18.391 68.0822 17.3812 64.9637 17.2725 61.7499C16.9382 58.7409 17.4397 55.6901 18.7352 52.9318C17.5233 49.7974 17.3979 46.3705 18.4427 43.1943C19.989 39.224 22.9144 35.9225 26.5503 33.8329C28.9743 26.77 35.7864 22.0475 43.2671 22.549C49.9538 16.2803 60.1929 15.6116 67.6319 21.0027C69.3871 20.543 71.226 20.2923 73.0648 20.2923C78.7485 20.1669 84.1397 22.6744 87.692 27.1462C96.2176 29.3611 102.319 36.9673 102.654 45.8272C102.862 50.4661 101.609 55.0214 99.0594 58.9081C99.352 60.4126 99.5191 61.9171 99.5191 63.4634ZM78.6231 57.5707C81.0053 57.8633 82.8859 59.6603 82.8859 62.0425C82.8859 63.1509 82.4456 64.2139 81.6619 64.9976C80.8781 65.7814 79.8151 66.2217 78.7067 66.2217H76.0738C74.7365 69.9829 72.3961 73.2845 69.3035 75.792C70.3483 76.1681 71.4349 76.3771 72.5215 76.6697C93.9608 76.3771 91.4533 63.2962 91.4533 63.0873C91.3424 60.2166 90.0956 57.5075 87.9874 55.5559C85.8791 53.6044 83.0819 52.5703 80.2112 52.6811C79.1028 52.6811 78.0399 52.2408 77.2561 51.457C76.4723 50.6732 76.032 49.6103 76.032 48.5019C76.032 47.3935 76.4723 46.3305 77.2561 45.5467C78.0399 44.763 79.1028 44.3227 80.2112 44.3227C85.3516 44.448 90.2831 46.3705 94.128 49.7556C94.3369 48.5437 94.4623 47.2899 94.4623 46.0361C94.2116 40.8539 91.8712 36.3404 82.468 35.4628C77.244 23.0923 64.0795 29.9462 64.0795 33.7911C63.9542 34.7523 64.9572 36.8001 65.1243 36.9255C66.2327 36.9255 67.2957 37.3658 68.0795 38.1495C68.8632 38.9333 69.3035 39.9963 69.3035 41.1047C69.3035 43.4032 67.4229 45.2839 65.1243 45.2839C62.9094 45.2003 60.8198 44.3645 59.1481 42.9435C57.1421 44.2391 54.8435 45.0331 52.4614 45.2839C50.0792 45.4928 48.115 43.8212 47.9896 41.5226C47.9126 40.9767 47.948 40.4208 48.0937 39.8891C48.2393 39.3573 48.4921 38.8609 48.8365 38.4304C49.1809 37.9999 49.6096 37.6444 50.0964 37.3856C50.5832 37.1268 51.1178 36.9702 51.6673 36.9255C52.336 36.8419 55.5958 36.3404 55.5958 33.7075C55.5958 30.9492 56.6406 28.3163 58.4376 26.2267C54.5928 25.1819 50.4553 26.5611 46.2761 31.6179C38.5864 30.4059 35.452 31.4507 33.1535 39.6002C29.1832 41.5644 27.0936 42.9435 26.1742 47.1227C30.6877 46.2033 35.3266 46.5794 39.6312 48.1675C41.7208 48.9616 42.891 51.3019 42.097 53.5587C41.3029 55.7319 38.879 56.8185 36.7058 56.0244C33.655 54.6871 30.228 54.6035 27.0936 55.7737C25.7563 56.9021 25.7563 59.2424 25.7563 61.0812C25.7563 64.1739 27.3026 67.0575 29.9355 68.7292C32.1505 69.8576 34.6162 70.4426 37.0819 70.4009C36.455 69.3143 35.9117 68.1859 35.452 67.0157C35.123 65.942 35.2232 64.7825 35.7316 63.7811C36.24 62.7798 37.1168 62.0145 38.1778 61.6465C39.2388 61.2784 40.4012 61.3361 41.4205 61.8074C42.4398 62.2788 43.2366 63.1271 43.6433 64.1739C45.3149 68.9381 49.5777 72.1979 54.5928 72.7412C60.3183 72.4487 65.4169 69.0635 67.9244 63.8395C68.8856 58.0722 73.5245 57.5707 78.6231 57.5707ZM86.9815 88.7893L84.3904 83.3564L81.4232 84.025L85.6024 89.249L86.9815 88.7893ZM67.5483 52.8064C67.5846 51.7388 67.2107 50.6978 66.5034 49.8973C65.7962 49.0967 64.8092 48.5974 63.7452 48.5019C60.778 48.3347 57.8943 49.3377 55.6793 51.3019C53.2972 53.7259 52.0434 57.0692 52.1688 60.4544C52.1688 61.5628 52.6091 62.6258 53.3929 63.4095C54.1766 64.1933 55.2396 64.6336 56.348 64.6336C58.7302 64.6336 60.5272 62.7529 60.5272 60.4544C60.5272 59.326 60.8198 58.1976 61.4884 57.2782C61.9899 56.8603 62.6168 56.6513 63.2855 56.6513C65.584 56.7767 67.5483 55.0632 67.5483 52.8064Z" fill="#FFA19F"/>
<path d="M99.5191 63.4634H82.4809V63.9576L82.5095 64.451L99.5191 63.4634ZM91.6205 79.9712L81.6965 66.1214L69.7193 74.7035L76.4839 87.7934L91.6205 79.9712ZM94.8384 86.1982L110.01 78.4439L109.993 78.4099L109.975 78.376L94.8384 86.1982ZM95.0892 92.2581L79.4113 85.5866L79.3508 85.7289L79.2928 85.8723L95.0892 92.2581ZM90.6592 96.4373L95.7998 112.682L95.9238 112.642L96.0472 112.601L90.6592 96.4373ZM87.3577 97.4821L82.2171 81.2378L82.0672 81.2852L81.9182 81.3354L87.3577 97.4821ZM79.5844 95.1835L92.9304 84.5917L92.7583 84.3749L92.5793 84.1638L79.5844 95.1835ZM70.7245 84.7355L83.7194 73.7158L79.6938 68.9686L73.5561 67.9342L70.7245 84.7355ZM60.5272 80.1384L71.1937 66.852L64.2098 61.2452L55.6313 63.8187L60.5272 80.1384ZM43.8104 77.798L53.6065 63.8575L46.8232 59.0908L38.8863 61.4868L43.8104 77.798ZM37.0401 78.7175L37.3499 61.682L37.0872 61.6772L36.8245 61.6806L37.0401 78.7175ZM27.428 76.8368L20.4854 92.3965L20.717 92.4998L20.9515 92.5962L27.428 76.8368ZM17.2725 61.7499L34.301 61.174L34.2789 60.5193L34.2066 59.8684L17.2725 61.7499ZM18.7352 52.9318L34.1571 60.1754L37.2541 53.5817L34.6269 46.787L18.7352 52.9318ZM18.4427 43.1943L2.56608 37.0108L2.40032 37.4364L2.2576 37.8702L18.4427 43.1943ZM26.5503 33.8329L35.0402 48.6053L40.5886 45.4166L42.6659 39.3637L26.5503 33.8329ZM43.2671 22.549L42.1275 39.5492L49.5171 40.0446L54.9203 34.9791L43.2671 22.549ZM67.6319 21.0027L57.6335 34.7989L64.1561 39.526L71.9487 37.4851L67.6319 21.0027ZM73.0648 20.2923V37.3305H73.2527L73.4406 37.3264L73.0648 20.2923ZM87.692 27.1462L74.3509 37.7442L77.8942 42.2046L83.4076 43.637L87.692 27.1462ZM102.654 45.8272L85.6274 46.4697L85.6297 46.5318L85.6325 46.5939L102.654 45.8272ZM99.0594 58.9081L84.8124 49.5633L81.0117 55.3578L82.3344 62.1602L99.0594 58.9081ZM78.6231 57.5707L80.7 40.6595L79.6654 40.5325H78.6231V57.5707ZM76.0738 66.2217V49.1834H64.0487L60.0201 60.5137L76.0738 66.2217ZM69.3035 75.792L58.5728 62.5574L35.1017 81.5881L63.5323 91.8231L69.3035 75.792ZM72.5215 76.6697L68.092 93.1221L70.3823 93.7387L72.754 93.7063L72.5215 76.6697ZM91.4533 63.0873H108.492V62.7582L108.479 62.4294L91.4533 63.0873ZM80.2112 52.6811V69.7193H80.5398L80.8681 69.7067L80.2112 52.6811ZM80.2112 44.3227L80.6267 27.2895L80.419 27.2844H80.2112V44.3227ZM94.128 49.7556L82.8689 62.5437L105.741 82.681L110.919 52.6505L94.128 49.7556ZM94.4623 46.0361H111.501V45.6242L111.481 45.2127L94.4623 46.0361ZM82.468 35.4628L66.7719 42.0912L70.7369 51.4802L80.8847 52.4273L82.468 35.4628ZM64.0795 33.7911L80.9747 35.9948L81.1178 34.8976V33.7911H64.0795ZM65.1243 36.9255L54.9014 50.5561L59.4449 53.9638H65.1243V36.9255ZM65.1243 45.2839L64.4818 62.31L64.803 62.3222H65.1243V45.2839ZM59.1481 42.9435L70.1829 29.9614L60.5379 21.7632L49.9044 28.6307L59.1481 42.9435ZM52.4614 45.2839L53.9502 62.257L54.0977 62.244L54.245 62.2285L52.4614 45.2839ZM47.9896 41.5226L65.0026 40.5946L64.9628 39.8658L64.8609 39.1431L47.9896 41.5226ZM51.6673 36.9255L53.0493 53.9076L53.4158 53.8778L53.7807 53.8322L51.6673 36.9255ZM58.4376 26.2267L71.3558 37.3364L88.9611 16.865L62.9056 9.78472L58.4376 26.2267ZM46.2761 31.6179L43.6235 48.4484L53.2205 49.961L59.4097 42.4721L46.2761 31.6179ZM33.1535 39.6002L40.7088 54.8717L47.4963 51.5137L49.5519 44.2254L33.1535 39.6002ZM26.1742 47.1227L9.53388 43.4619L3.9051 69.0472L29.5751 63.8181L26.1742 47.1227ZM39.6312 48.1675L45.6835 32.2404L45.6062 32.2111L45.5286 32.1824L39.6312 48.1675ZM42.097 53.5587L58.1004 59.4061L58.1355 59.3102L58.1694 59.2138L42.097 53.5587ZM36.7058 56.0244L29.8653 71.6292L30.3556 71.8442L30.8584 72.0279L36.7058 56.0244ZM27.0936 55.7737L21.1344 39.8115L18.3653 40.8453L16.1061 42.7515L27.0936 55.7737ZM29.9355 68.7292L20.8028 83.1131L21.4832 83.5451L22.2014 83.9109L29.9355 68.7292ZM37.0819 70.4009L37.3707 87.4367L66.2979 86.9464L51.8402 61.8864L37.0819 70.4009ZM35.452 67.0157L19.1614 72.0074L19.3536 72.6349L19.5936 73.2458L35.452 67.0157ZM43.6433 64.1739L59.7206 58.5327L59.6272 58.2665L59.525 58.0036L43.6433 64.1739ZM54.5928 72.7412L52.7577 89.6804L54.1069 89.8265L55.4622 89.7573L54.5928 72.7412ZM67.9244 63.8395L83.2848 71.2125L84.3327 69.0293L84.7308 66.6406L67.9244 63.8395ZM86.9815 88.7893L92.3695 104.953L110.66 98.8565L102.36 81.4548L86.9815 88.7893ZM84.3904 83.3564L99.7692 76.0219L93.914 63.7447L80.6448 66.7349L84.3904 83.3564ZM81.4232 84.025L77.6775 67.4036L51.0982 73.3933L68.1186 94.6688L81.4232 84.025ZM85.6024 89.249L72.2977 99.8928L79.7195 109.17L90.9904 105.413L85.6024 89.249ZM67.5483 52.8064L50.5199 52.227L50.51 52.5166V52.8064H67.5483ZM63.7452 48.5019L65.2688 31.5319L64.9865 31.5065L64.7036 31.4906L63.7452 48.5019ZM55.6793 51.3019L44.3747 38.5541L43.9371 38.9421L43.5272 39.3593L55.6793 51.3019ZM52.1688 60.4544H69.2071V60.139L69.1954 59.8237L52.1688 60.4544ZM61.4884 57.2782L50.5808 44.189L48.9543 45.5445L47.709 47.2568L61.4884 57.2782ZM63.2855 56.6513L64.2135 39.6383L63.7498 39.613H63.2855V56.6513ZM82.5095 64.451C82.5464 65.087 82.2608 65.7171 81.6965 66.1214L101.544 93.8211C111.595 86.6192 117.244 74.7953 116.529 62.4757L82.5095 64.451ZM76.4839 87.7934L79.7019 94.0205L109.975 78.376L106.757 72.149L76.4839 87.7934ZM79.667 93.9525C78.4495 91.5705 78.1698 88.5044 79.4113 85.5866L110.767 98.9295C113.68 92.0833 113.15 84.5872 110.01 78.4439L79.667 93.9525ZM79.2928 85.8723C80.3422 83.2765 82.476 81.2051 85.2713 80.2733L96.0472 112.601C102.855 110.332 108.248 105.168 110.886 98.6438L79.2928 85.8723ZM85.5186 80.193L82.2171 81.2378L92.4983 113.726L95.7998 112.682L85.5186 80.193ZM81.9182 81.3354C83.8657 80.6793 85.9683 80.6399 87.939 81.2227L78.2762 113.901C83.0293 115.306 88.1001 115.211 92.7972 113.629L81.9182 81.3354ZM87.939 81.2227C89.9098 81.8055 91.6528 82.9819 92.9304 84.5917L66.2383 105.775C69.3195 109.658 73.5232 112.495 78.2762 113.901L87.939 81.2227ZM92.5793 84.1638L83.7194 73.7158L57.7295 95.7552L66.5894 106.203L92.5793 84.1638ZM73.5561 67.9342C72.7552 67.7992 71.9319 67.4446 71.1937 66.852L49.8607 93.4248C55.057 97.5964 61.2547 100.418 67.8928 101.537L73.5561 67.9342ZM55.6313 63.8187C54.9482 64.0236 54.5101 64.0613 54.2584 64.0613V98.1379C58.186 98.1379 61.9271 97.5069 65.4231 96.4581L55.6313 63.8187ZM54.2584 64.0613C54.1575 64.0613 54.0375 64.0451 53.9135 64.0062C53.7916 63.968 53.6885 63.9151 53.6065 63.8575L34.0143 91.7386C40.0219 95.9601 47.1312 98.1379 54.2584 98.1379V64.0613ZM38.8863 61.4868C38.4555 61.6169 37.9709 61.6933 37.3499 61.682L36.7304 95.7529C40.7065 95.8252 44.7354 95.3165 48.7346 94.1092L38.8863 61.4868ZM36.8245 61.6806C35.9739 61.6913 34.9836 61.5209 33.9044 61.0774L20.9515 92.5962C25.974 94.6602 31.5032 95.8272 37.2558 95.7544L36.8245 61.6806ZM34.3705 61.2771C34.3504 61.2682 34.3333 61.2538 34.321 61.2355L6.0522 80.2641C9.63115 85.581 14.6324 89.785 20.4854 92.3965L34.3705 61.2771ZM34.321 61.2355C34.3087 61.2173 34.3018 61.1959 34.301 61.174L0.243984 62.3259C0.460644 68.7315 2.47324 74.9472 6.0522 80.2641L34.321 61.2355ZM34.2066 59.8684C34.2187 59.9771 34.1996 60.0849 34.1571 60.1754L3.3134 45.6882C0.67977 51.2953 -0.3423 57.5047 0.338455 63.6315L34.2066 59.8684ZM34.6269 46.787C34.7815 47.187 34.8599 47.8128 34.6278 48.5183L2.2576 37.8702C-0.0640945 44.9282 0.26499 52.4078 2.84359 59.0766L34.6269 46.787ZM34.3193 49.3778C34.3536 49.2897 34.425 49.1551 34.5591 49.0011C34.6955 48.8445 34.8637 48.7067 35.0402 48.6053L18.0604 19.0605C11.1904 23.0088 5.57867 29.2757 2.56608 37.0108L34.3193 49.3778ZM42.6659 39.3637C42.6613 39.3771 42.6454 39.4082 42.5959 39.4419C42.5665 39.4619 42.5103 39.4933 42.4217 39.5181C42.3267 39.5446 42.2214 39.5555 42.1275 39.5492L44.4068 5.54894C28.9389 4.51199 15.2576 14.2491 10.4347 28.3021L42.6659 39.3637ZM54.9203 34.9791C55.6692 34.277 56.8282 34.2154 57.6335 34.7989L77.6302 7.20654C63.5575 -2.99221 44.2384 -1.71646 31.614 10.119L54.9203 34.9791ZM71.9487 37.4851C72.3698 37.3748 72.7584 37.3305 73.0648 37.3305V3.25401C69.6935 3.25401 66.4044 3.71127 63.315 4.5204L71.9487 37.4851ZM73.4406 37.3264C73.6506 37.3218 73.8218 37.3647 73.9601 37.4293C74.0966 37.4932 74.2294 37.5912 74.3509 37.7442L101.033 16.5481C94.1461 7.87866 83.6672 3.01599 72.6891 3.25816L73.4406 37.3264ZM83.4076 43.637C84.6083 43.9489 85.5749 45.0792 85.6274 46.4697L119.68 45.1847C119.063 28.8554 107.827 14.7734 91.9764 10.6554L83.4076 43.637ZM85.6325 46.5939C85.6798 47.6425 85.4038 48.6617 84.8124 49.5633L113.306 68.2529C117.814 61.3811 120.045 53.2897 119.675 45.0605L85.6325 46.5939ZM82.3344 62.1602C82.4505 62.7571 82.4809 63.1638 82.4809 63.4634H116.557C116.557 60.6703 116.253 58.0681 115.784 55.656L82.3344 62.1602ZM76.5463 74.4819C71.9647 73.9193 65.8477 69.7688 65.8477 62.0425H99.9242C99.9242 49.5519 90.0458 41.8072 80.7 40.6595L76.5463 74.4819ZM65.8477 62.0425C65.8477 58.632 67.2025 55.3612 69.614 52.9497L93.7097 77.0455C97.6888 73.0665 99.9242 67.6697 99.9242 62.0425H65.8477ZM69.614 52.9497C72.0255 50.5382 75.2963 49.1834 78.7067 49.1834V83.2599C84.3339 83.2599 89.7307 81.0245 93.7097 77.0455L69.614 52.9497ZM78.7067 49.1834H76.0738V83.2599H78.7067V49.1834ZM60.0201 60.5137C59.7348 61.3162 59.2401 62.0164 58.5728 62.5574L80.0343 89.0266C85.5521 84.5526 89.7382 78.6497 92.1275 71.9296L60.0201 60.5137ZM63.5323 91.8231C64.8404 92.294 66.0062 92.6004 66.7267 92.7822C67.7685 93.0452 67.6667 93.0076 68.092 93.1221L76.951 60.2172C76.4944 60.0943 76.077 59.9907 75.7739 59.9162C75.4138 59.8277 75.2678 59.7928 75.067 59.7421C74.7114 59.6524 74.8115 59.6662 75.0747 59.7609L63.5323 91.8231ZM72.754 93.7063C86.8617 93.5138 98.3302 88.8545 104.534 78.7832C107.316 74.2669 108.24 69.8231 108.495 66.603C108.624 64.9779 108.59 63.5835 108.515 62.5195C108.477 61.9811 108.429 61.5335 108.388 61.2024C108.369 61.0476 108.352 60.9143 108.351 60.9071C108.346 60.8722 108.36 60.9729 108.374 61.0954C108.382 61.157 108.401 61.3216 108.42 61.5343C108.428 61.6201 108.492 62.2656 108.492 63.0873H74.415C74.415 63.5706 74.4359 63.9533 74.4478 64.1458C74.4614 64.3641 74.4767 64.542 74.487 64.6547C74.5072 64.8737 74.5274 65.0463 74.5358 65.1173C74.5459 65.2024 74.5547 65.2707 74.5589 65.3035C74.5635 65.339 74.5675 65.369 74.569 65.3805C74.5762 65.435 74.5698 65.3871 74.564 65.3396C74.5497 65.2233 74.5345 65.0784 74.5231 64.9182C74.5015 64.6108 74.4962 64.2748 74.5251 63.91C74.5806 63.2105 74.7913 62.0944 75.5203 60.9111C75.8875 60.3149 76.3147 59.8236 76.7378 59.4548C77.1558 59.0904 77.4419 58.9568 77.4406 58.9574C77.3817 58.9844 76.0007 59.5823 72.289 59.633L72.754 93.7063ZM108.479 62.4294C108.193 55.0434 104.986 48.0733 99.5615 43.0522L76.4133 68.0597C75.2055 66.9417 74.4913 65.3897 74.4277 63.7451L108.479 62.4294ZM99.5615 43.0522C94.1371 38.0312 86.9404 35.3705 79.5543 35.6555L80.8681 69.7067C79.2235 69.7701 77.6211 69.1777 76.4133 68.0597L99.5615 43.0522ZM80.2112 35.6428C83.6217 35.6428 86.8924 36.9976 89.304 39.4091L65.2082 63.5049C69.1873 67.4839 74.584 69.7193 80.2112 69.7193V35.6428ZM89.304 39.4091C91.7155 41.8207 93.0703 45.0914 93.0703 48.5019H58.9938C58.9938 54.1291 61.2292 59.5258 65.2082 63.5049L89.304 39.4091ZM93.0703 48.5019C93.0703 51.9123 91.7155 55.1831 89.304 57.5946L65.2082 33.4988C61.2292 37.4779 58.9938 42.8746 58.9938 48.5019H93.0703ZM89.304 57.5946C86.8924 60.0061 83.6217 61.3609 80.2112 61.3609V27.2844C74.584 27.2844 69.1873 29.5198 65.2082 33.4988L89.304 57.5946ZM79.7958 61.3559C80.9613 61.3843 82.0473 61.8204 82.8689 62.5437L105.387 36.9675C98.5189 30.9206 89.742 27.5118 80.6267 27.2895L79.7958 61.3559ZM110.919 52.6505C111.265 50.6415 111.501 48.4092 111.501 46.0361H77.424C77.424 46.1706 77.409 46.4459 77.3374 46.8607L110.919 52.6505ZM111.481 45.2127C111.251 40.4609 109.942 33.3913 104.249 27.3992C98.6084 21.4624 91.1134 19.1574 84.0514 18.4982L80.8847 52.4273C83.2258 52.6458 81.6026 53.0363 79.5454 50.8712C77.4358 48.6509 77.4231 46.4291 77.444 46.8596L111.481 45.2127ZM98.1641 28.8344C95.5902 22.7393 91.3396 17.5317 85.331 14.367C79.4647 11.2773 73.4361 10.9313 68.5534 11.7332C63.7991 12.514 59.4351 14.472 55.9746 17.0755C54.2355 18.3839 52.3087 20.168 50.6763 22.5106C49.1636 24.6814 47.0413 28.5901 47.0413 33.7911H81.1178C81.1178 38.0309 79.4069 40.8843 78.6344 41.9927C77.7424 43.2729 76.885 43.9873 76.4616 44.3058C75.6327 44.9294 74.8863 45.2261 74.0761 45.3592C73.1376 45.5134 71.3796 45.533 69.4509 44.5172C67.3799 43.4264 66.7339 42.001 66.7719 42.0912L98.1641 28.8344ZM47.1844 31.5874C46.7485 34.9289 47.3603 37.6525 47.5989 38.6462C47.921 39.9879 48.3293 41.1312 48.6463 41.9334C48.9745 42.7641 49.3424 43.5746 49.7225 44.3134C49.9033 44.6647 50.1781 45.1779 50.5324 45.7513C50.7013 46.0245 51.0071 46.5054 51.4259 47.0668C51.553 47.2372 52.7913 48.9735 54.9014 50.5561L75.3473 23.2949C76.5958 24.2313 77.4318 25.1322 77.7926 25.5345C78.2256 26.0175 78.5468 26.4326 78.7415 26.6935C79.1272 27.2107 79.3945 27.6338 79.5202 27.8371C79.7882 28.2708 79.9582 28.596 80.0233 28.7226C80.1723 29.0121 80.2659 29.2271 80.3382 29.41C80.3992 29.5644 80.5698 30.0077 80.7339 30.6912C80.8144 31.0267 81.3479 33.1338 80.9747 35.9948L47.1844 31.5874ZM65.1243 53.9638C61.7139 53.9638 58.4431 52.609 56.0316 50.1974L80.1273 26.1017C76.1483 22.1226 70.7516 19.8872 65.1243 19.8872V53.9638ZM56.0316 50.1974C53.6201 47.7859 52.2653 44.5151 52.2653 41.1047H86.3418C86.3418 35.4774 84.1064 30.0807 80.1273 26.1017L56.0316 50.1974ZM52.2653 41.1047C52.2653 33.9933 58.0129 28.2456 65.1243 28.2456V62.3222C76.8329 62.3222 86.3418 52.8132 86.3418 41.1047H52.2653ZM65.7668 28.2577C67.4677 28.3219 69.0164 28.9699 70.1829 29.9614L48.1133 55.9257C52.6231 59.759 58.351 62.0787 64.4818 62.31L65.7668 28.2577ZM49.9044 28.6307C50.2127 28.4316 50.4835 28.3597 50.6777 28.3392L54.245 62.2285C59.2035 61.7066 64.0714 60.0466 68.3918 57.2563L49.9044 28.6307ZM50.9725 28.3108C57.7478 27.7165 64.5799 32.8456 65.0026 40.5946L30.9766 42.4506C31.6501 54.7967 42.4106 63.2692 53.9502 62.257L50.9725 28.3108ZM64.8609 39.1431C65.1082 40.8964 64.9945 42.6818 64.5268 44.3895L31.6605 35.3886C30.9016 38.1598 30.717 41.057 31.1183 43.9021L64.8609 39.1431ZM64.5268 44.3895C64.0591 46.0973 63.2473 47.6915 62.1411 49.0742L35.5318 27.7867C33.7368 30.0304 32.4195 32.6173 31.6605 35.3886L64.5268 44.3895ZM62.1411 49.0742C61.035 50.4568 59.6579 51.5988 58.0944 52.43L42.0984 22.3411C39.5614 23.6899 37.3268 25.543 35.5318 27.7867L62.1411 49.0742ZM58.0944 52.43C56.531 53.2612 54.8141 53.764 53.0493 53.9076L50.2854 19.9434C47.4215 20.1764 44.6355 20.9924 42.0984 22.3411L58.0944 52.43ZM53.7807 53.8322C54.629 53.7261 58.0616 53.2941 61.7125 51.4049C65.7129 49.3349 72.634 43.8312 72.634 33.7075H38.5575C38.5575 30.5522 39.6277 27.4935 41.4785 25.0423C43.1444 22.836 45.0072 21.6807 46.0521 21.14C47.906 20.1808 49.3743 20.0413 49.554 20.0188L53.7807 53.8322ZM72.634 33.7075C72.634 35.3066 72.0282 36.5544 71.3558 37.3364L45.5195 15.1171C41.2529 20.0783 38.5575 26.5919 38.5575 33.7075H72.634ZM62.9056 9.78472C50.5076 6.41571 39.9997 12.4666 33.1426 20.7637L59.4097 42.4721C60.2926 41.4037 60.2517 41.8566 59.0182 42.369C58.372 42.6374 57.531 42.8627 56.5533 42.9231C55.5789 42.9833 54.6948 42.8658 53.9697 42.6688L62.9056 9.78472ZM48.9288 14.7874C45.1971 14.1993 37.0675 12.9572 29.4219 17.2026C21.1019 21.8224 18.1557 30.0088 16.755 34.975L49.5519 44.2254C49.9197 42.9214 50.0482 42.9361 49.6907 43.53C49.2104 44.3282 48.05 45.8363 45.9644 46.9944C43.982 48.0952 42.3444 48.2185 41.9667 48.2332C41.7285 48.2425 42.0869 48.2062 43.6235 48.4484L48.9288 14.7874ZM25.5981 24.3287C23.7015 25.267 19.8836 27.1331 16.5845 30.3714C12.6436 34.2397 10.5561 38.8153 9.53388 43.4619L42.8145 50.7836C42.7969 50.8639 42.6585 51.457 42.2239 52.2961C41.7573 53.197 41.1365 54.0214 40.4551 54.6903C39.836 55.2979 39.3739 55.5722 39.4174 55.5455C39.5071 55.4905 39.82 55.3114 40.7088 54.8717L25.5981 24.3287ZM29.5751 63.8181C30.9346 63.5412 32.3552 63.644 33.7338 64.1526L45.5286 32.1824C38.2981 29.5149 30.4409 28.8654 22.7733 30.4273L29.5751 63.8181ZM33.5789 64.0946C27.1726 61.6602 23.6984 54.5149 26.0245 47.9036L58.1694 59.2138C62.0836 48.089 56.2691 36.2629 45.6835 32.2404L33.5789 64.0946ZM26.0935 47.7113C28.6217 40.7919 36.1442 37.6792 42.5532 40.021L30.8584 72.0279C41.6138 75.9577 53.9841 70.6718 58.1004 59.4061L26.0935 47.7113ZM43.5463 40.4196C36.3867 37.2812 28.3672 37.1113 21.1344 39.8115L33.0528 71.7358C32.0889 72.0957 30.9232 72.093 29.8653 71.6292L43.5463 40.4196ZM16.1061 42.7515C10.9479 47.1037 9.58282 52.693 9.13985 55.2262C8.67346 57.8934 8.71802 60.4498 8.71802 61.0812H42.7946C42.7946 59.8738 42.8391 60.3407 42.7071 61.0959C42.5984 61.7171 41.902 65.572 38.0811 68.7959L16.1061 42.7515ZM8.71802 61.0812C8.71802 69.8859 13.1467 78.2521 20.8028 83.1131L39.0681 54.3453C41.4584 55.8629 42.7946 58.4618 42.7946 61.0812H8.71802ZM22.2014 83.9109C26.8254 86.2666 32.038 87.5271 37.3707 87.4367L36.7932 53.365C37.1944 53.3582 37.4755 53.4485 37.6696 53.5474L22.2014 83.9109ZM51.8402 61.8864C51.6372 61.5345 51.4614 61.1698 51.3104 60.7856L19.5936 73.2458C20.3621 75.2019 21.2729 77.094 22.3236 78.9153L51.8402 61.8864ZM51.7427 62.0241C52.7059 65.1676 52.4125 68.5622 50.9242 71.4939L20.539 56.0683C18.034 61.0027 17.5401 66.7163 19.1614 72.0074L51.7427 62.0241ZM50.9242 71.4939C49.4359 74.4256 46.8687 76.6658 43.7625 77.7435L32.5931 45.5494C27.365 47.3633 23.044 51.1339 20.539 56.0683L50.9242 71.4939ZM43.7625 77.7435C40.6563 78.8211 37.2532 78.6522 34.2691 77.2722L48.5719 46.3426C43.5491 44.0199 37.8213 43.7356 32.5931 45.5494L43.7625 77.7435ZM34.2691 77.2722C31.2849 75.8922 28.9521 73.4087 27.7615 70.3441L59.525 58.0036C57.521 52.8454 53.5947 48.6653 48.5719 46.3426L34.2691 77.2722ZM27.5659 69.815C31.4978 81.0207 41.4779 88.4584 52.7577 89.6804L56.4278 55.8021C57.6776 55.9374 59.1321 56.8556 59.7206 58.5327L27.5659 69.815ZM55.4622 89.7573C67.4415 89.1452 78.0867 82.0418 83.2848 71.2125L52.564 56.4665C52.747 56.0852 53.195 55.7521 53.7233 55.7251L55.4622 89.7573ZM84.7308 66.6406C84.6075 67.3804 84.1825 68.9766 82.8679 70.7126C81.5194 72.4935 79.8848 73.5637 78.6027 74.1296C77.4768 74.6266 76.7536 74.6811 76.9242 74.661C77.0867 74.6419 77.5402 74.609 78.6231 74.609V40.5325C76.2654 40.5325 70.4385 40.4847 64.8418 42.9552C61.6425 44.3674 58.3492 46.6443 55.7013 50.1412C53.0872 53.5934 51.7219 57.415 51.118 61.0384L84.7308 66.6406ZM102.36 81.4548L99.7692 76.0219L69.0116 90.6909L71.6027 96.1238L102.36 81.4548ZM80.6448 66.7349L77.6775 67.4036L85.1689 100.646L88.1361 99.9778L80.6448 66.7349ZM68.1186 94.6688L72.2977 99.8928L98.9071 78.6053L94.7279 73.3813L68.1186 94.6688ZM90.9904 105.413L92.3695 104.953L81.5935 72.6254L80.2144 73.0851L90.9904 105.413ZM84.5767 53.3858C84.7611 47.9656 82.863 42.6805 79.2721 38.6162L53.7347 61.1783C51.5585 58.7151 50.4081 55.512 50.5199 52.227L84.5767 53.3858ZM79.2721 38.6162C75.6813 34.5518 70.6704 32.0168 65.2688 31.5319L62.2216 65.4719C58.9479 65.178 55.911 63.6416 53.7347 61.1783L79.2721 38.6162ZM64.7036 31.4906C57.2536 31.0709 49.96 33.601 44.3747 38.5541L66.984 64.0497C65.8286 65.0744 64.3023 65.5985 62.7868 65.5132L64.7036 31.4906ZM43.5272 39.3593C37.7641 45.2235 34.8485 53.1557 35.1422 61.085L69.1954 59.8237C69.2383 60.9828 68.8303 62.2282 67.8315 63.2446L43.5272 39.3593ZM35.1306 60.4544C35.1306 66.0816 37.366 71.4783 41.345 75.4574L65.4408 51.3616C67.8523 53.7732 69.2071 57.0439 69.2071 60.4544H35.1306ZM41.345 75.4574C45.3241 79.4365 50.7208 81.6718 56.348 81.6718V47.5953C59.7584 47.5953 63.0292 48.9501 65.4408 51.3616L41.345 75.4574ZM56.348 81.6718C68.3625 81.6718 77.5655 71.939 77.5655 60.4544H43.4889C43.4889 53.5668 49.0979 47.5953 56.348 47.5953V81.6718ZM77.5655 60.4544C77.5655 62.1518 77.1316 64.737 75.2679 67.2996L47.709 47.2568C44.5079 51.6582 43.4889 56.5002 43.4889 60.4544H77.5655ZM72.3961 70.3673C69.5574 72.7329 66.225 73.6896 63.2855 73.6896V39.613C59.0086 39.613 54.4224 40.9876 50.5808 44.189L72.3961 70.3673ZM62.3575 73.6643C73.4318 74.2683 84.5865 65.7966 84.5865 52.8064H50.51C50.51 44.3298 57.7363 39.285 64.2135 39.6383L62.3575 73.6643Z" fill="#FEFEFE" mask="url(#path-1-outside-1_1323_2217)"/>
</g>
</svg>
