<svg width="35" height="33" viewBox="0 0 35 33" fill="none" xmlns="http://www.w3.org/2000/svg">
<path fill-rule="evenodd" clip-rule="evenodd" d="M14.439 19.5062L0.940549 11.6724C0.476686 11.3073 0.199382 10.7028 0.199382 10.0567C0.199382 9.41059 0.476686 8.80608 0.940549 8.44095L14.439 0.607125C15.144 0.207194 15.9196 -0.000562621 16.7058 1.1443e-06C17.4219 0.00443906 18.1297 0.177749 18.7851 0.509202L33.7664 8.34303C34.3089 8.68795 34.6456 9.34421 34.6456 10.0567C34.6456 10.7691 34.3089 11.4254 33.7664 11.7703L18.7851 19.6042C18.1297 19.9356 17.4219 20.1089 16.7058 20.1134C15.9196 20.1139 15.144 19.9062 14.439 19.5062ZM16.791 2.85935C16.4068 2.85628 16.0274 2.9569 15.6832 3.15312L3.75273 9.98813L15.6832 16.8036C16.0274 16.9998 16.4068 17.1004 16.791 17.0973C17.1442 17.1018 17.4937 17.0148 17.8136 16.8427L30.9542 9.98813L17.8136 3.11395C17.4937 2.94193 17.1442 2.85491 16.791 2.85935Z" fill="#129E30"/>
<path d="M33.221 16.451L18.1375 23.6777C17.215 24.179 16.1455 24.179 15.223 23.6777L1.8609 16.4706C1.4438 16.2502 0.956054 16.3023 0.581395 16.6071C0.206736 16.912 0.00208221 17.4234 0.0445242 17.9487C0.0869662 18.474 0.370056 18.9333 0.787158 19.1537L14.1152 26.2433C14.9422 26.7134 15.8514 26.9612 16.774 26.968C17.5986 26.9703 18.4134 26.7629 19.1601 26.3608L34.1925 19.1733C34.5156 19.0262 34.7726 18.7344 34.9045 18.3649C35.0363 17.9954 35.0315 17.5802 34.8913 17.2148C34.6039 16.4855 33.8659 16.148 33.221 16.451Z" fill="#129E30"/>
<path d="M33.221 22.4831L18.1375 29.7098C17.215 30.2111 16.1455 30.2111 15.223 29.7098L1.8609 22.5223C1.4437 22.2768 0.943047 22.3133 0.556266 22.6176C0.169485 22.9218 -0.0413801 23.4449 0.00678548 23.9806C0.0549511 24.5163 0.354421 24.9788 0.787157 25.1858L14.1152 32.2754C14.9341 32.7519 15.8391 33.0001 16.7569 33C17.5644 32.995 18.3612 32.7878 19.0919 32.3929L34.1243 25.2053C34.4474 25.0583 34.7044 24.7664 34.8363 24.3969C34.9681 24.0275 34.9633 23.6122 34.8231 23.2469C34.5324 22.5653 33.8462 22.2381 33.221 22.4831Z" fill="#129E30"/>
</svg>
