<svg width="88" height="90" viewBox="0 0 88 90" fill="none" xmlns="http://www.w3.org/2000/svg">
<path fill-rule="evenodd" clip-rule="evenodd" d="M65.0001 21C65.0001 21.9967 64.9306 22.9771 64.7963 23.9368C68.8124 26.4386 71.8523 30.3604 73.2137 35H75.6001C81.3503 35 86.2948 39.073 87.396 44.7167C88.6689 51.2404 85.8755 57.8869 80.3243 61.5426L70.0001 68.3415V71C70.0001 81.4934 61.4935 90 51.0001 90H37.0001C26.5067 90 18.0001 81.4934 18.0001 71V68.3415L7.6758 61.5426C2.12462 57.8869 -0.668801 51.2404 0.604121 44.7167C1.70533 39.073 6.64986 35 12.4 35H15.7865C17.0434 30.7165 19.731 27.0448 23.2967 24.5375C23.1017 23.3875 23.0001 22.2056 23.0001 21C23.0001 9.40202 32.4021 0 44.0001 0C55.598 0 65.0001 9.40202 65.0001 21Z" fill="white"/>
<path fill-rule="evenodd" clip-rule="evenodd" d="M44.452 26C47.2134 26 49.452 23.7614 49.452 21C49.452 18.2386 47.2134 16 44.452 16C41.6905 16 39.452 18.2386 39.452 21C39.452 23.7614 41.6905 26 44.452 26ZM44.452 30C49.4225 30 53.452 25.9706 53.452 21C53.452 16.0294 49.4225 12 44.452 12C39.4814 12 35.452 16.0294 35.452 21C35.452 25.9706 39.4814 30 44.452 30ZM27.2189 41C27.2189 36.5817 30.8006 33 35.2189 33H55.423C59.8413 33 63.423 36.5817 63.423 41V44H59.423V41C59.423 38.7909 57.6321 37 55.423 37H35.2189C33.0098 37 31.2189 38.7909 31.2189 41V44H27.2189V41ZM30.3038 57.3865L20.673 51H69.2034L59.3836 57.3703C56.5413 59.2141 54.8259 62.3717 54.8259 65.7596V72C54.8259 73.1046 53.9305 74 52.8259 74H36.7772C35.6726 74 34.7772 73.1046 34.7772 72V65.7206C34.7772 62.3684 33.0975 59.2391 30.3038 57.3865ZM12.9328 50.6668C11.2815 49.5718 12.0567 47 14.0381 47H75.9613C77.9531 47 78.7208 49.5939 77.0498 50.6779L61.5605 60.726C59.8552 61.8323 58.8259 63.7268 58.8259 65.7596V72C58.8259 75.3137 56.1396 78 52.8259 78H36.7772C33.4635 78 30.7772 75.3137 30.7772 72V65.7206C30.7772 63.7092 29.7694 61.8317 28.0931 60.7201L12.9328 50.6668Z" fill="#FF3FBE"/>
</svg>
