<svg width="66" height="66" viewBox="0 0 66 66" fill="none" xmlns="http://www.w3.org/2000/svg">
<path fill-rule="evenodd" clip-rule="evenodd" d="M32.452 14C35.2134 14 37.452 11.7614 37.452 9C37.452 6.23858 35.2134 4 32.452 4C29.6905 4 27.452 6.23858 27.452 9C27.452 11.7614 29.6905 14 32.452 14ZM32.452 18C37.4225 18 41.452 13.9706 41.452 9C41.452 4.02944 37.4225 0 32.452 0C27.4814 0 23.452 4.02944 23.452 9C23.452 13.9706 27.4814 18 32.452 18ZM15.2189 29C15.2189 24.5817 18.8006 21 23.2189 21H43.423C47.8413 21 51.423 24.5817 51.423 29V32H47.423V29C47.423 26.7909 45.6321 25 43.423 25H23.2189C21.0098 25 19.2189 26.7909 19.2189 29V32H15.2189V29ZM18.3038 45.3865L8.67296 39H57.2034L47.3836 45.3703C44.5413 47.2141 42.8259 50.3717 42.8259 53.7596V60C42.8259 61.1046 41.9305 62 40.8259 62H24.7772C23.6726 62 22.7772 61.1046 22.7772 60V53.7206C22.7772 50.3684 21.0975 47.2391 18.3038 45.3865ZM0.932783 38.6668C-0.71849 37.5718 0.0567451 35 2.0381 35H63.9613C65.9531 35 66.7208 37.5939 65.0498 38.6779L49.5605 48.726C47.8552 49.8323 46.8259 51.7268 46.8259 53.7596V60C46.8259 63.3137 44.1396 66 40.8259 66H24.7772C21.4635 66 18.7772 63.3137 18.7772 60V53.7206C18.7772 51.7092 17.7694 49.8317 16.0931 48.7201L0.932783 38.6668Z" fill="#FF3FBE"/>
</svg>
