<svg width="100" height="102" viewBox="0 0 100 102" fill="none" xmlns="http://www.w3.org/2000/svg">
<g filter="url(#filter0_d_5713_2483)">
<path fill-rule="evenodd" clip-rule="evenodd" d="M71.0001 24C71.0001 24.9967 70.9306 25.9771 70.7963 26.9368C74.8124 29.4386 77.8523 33.3604 79.2137 38H81.6001C87.3503 38 92.2948 42.073 93.396 47.7167C94.6689 54.2404 91.8755 60.8869 86.3243 64.5426L76.0001 71.3415V74C76.0001 84.4934 67.4935 93 57.0001 93H43.0001C32.5067 93 24.0001 84.4934 24.0001 74V71.3415L13.6758 64.5426C8.12462 60.8869 5.3312 54.2404 6.60412 47.7167C7.70533 42.073 12.6499 38 18.4 38H21.7865C23.0434 33.7165 25.731 30.0448 29.2967 27.5375C29.1017 26.3875 29.0001 25.2056 29.0001 24C29.0001 12.402 38.4021 3 50.0001 3C61.598 3 71.0001 12.402 71.0001 24Z" fill="white"/>
<path fill-rule="evenodd" clip-rule="evenodd" d="M50.452 29C53.2134 29 55.452 26.7614 55.452 24C55.452 21.2386 53.2134 19 50.452 19C47.6905 19 45.452 21.2386 45.452 24C45.452 26.7614 47.6905 29 50.452 29ZM50.452 33C55.4225 33 59.452 28.9706 59.452 24C59.452 19.0294 55.4225 15 50.452 15C45.4814 15 41.452 19.0294 41.452 24C41.452 28.9706 45.4814 33 50.452 33ZM33.2189 44C33.2189 39.5817 36.8006 36 41.2189 36H61.423C65.8413 36 69.423 39.5817 69.423 44V47H65.423V44C65.423 41.7909 63.6321 40 61.423 40H41.2189C39.0098 40 37.2189 41.7909 37.2189 44V47H33.2189V44ZM36.3038 60.3865L26.673 54H75.2034L65.3836 60.3703C62.5413 62.2141 60.8259 65.3717 60.8259 68.7596V75C60.8259 76.1046 59.9305 77 58.8259 77H42.7772C41.6726 77 40.7772 76.1046 40.7772 75V68.7206C40.7772 65.3684 39.0975 62.2391 36.3038 60.3865ZM18.9328 53.6668C17.2815 52.5718 18.0567 50 20.0381 50H81.9613C83.9531 50 84.7208 52.5939 83.0498 53.6779L67.5605 63.726C65.8552 64.8323 64.8259 66.7268 64.8259 68.7596V75C64.8259 78.3137 62.1396 81 58.8259 81H42.7772C39.4635 81 36.7772 78.3137 36.7772 75V68.7206C36.7772 66.7092 35.7694 64.8317 34.0931 63.7201L18.9328 53.6668Z" fill="#FF3FBE"/>
</g>
<defs>
<filter id="filter0_d_5713_2483" x="0" y="0" width="100" height="102" filterUnits="userSpaceOnUse" color-interpolation-filters="sRGB">
<feFlood flood-opacity="0" result="BackgroundImageFix"/>
<feColorMatrix in="SourceAlpha" type="matrix" values="0 0 0 0 0 0 0 0 0 0 0 0 0 0 0 0 0 0 127 0" result="hardAlpha"/>
<feOffset dy="3"/>
<feGaussianBlur stdDeviation="3"/>
<feComposite in2="hardAlpha" operator="out"/>
<feColorMatrix type="matrix" values="0 0 0 0 0 0 0 0 0 0 0 0 0 0 0 0 0 0 0.25 0"/>
<feBlend mode="normal" in2="BackgroundImageFix" result="effect1_dropShadow_5713_2483"/>
<feBlend mode="normal" in="SourceGraphic" in2="effect1_dropShadow_5713_2483" result="shape"/>
</filter>
</defs>
</svg>
