<svg width="19" height="21" viewBox="0 0 19 21" fill="none" xmlns="http://www.w3.org/2000/svg">
<path fill-rule="evenodd" clip-rule="evenodd" d="M7.03194 7.38599H10.5474V9.23599C11.0538 8.17199 12.3525 7.21599 14.3034 7.21599C18.0432 7.21599 18.9311 9.33399 18.9311 13.22V20.417H15.1448V14.105C15.1448 11.892 14.6384 10.644 13.3492 10.644C11.5612 10.644 10.8182 11.989 10.8182 14.104V20.417H7.03194V7.38599ZM0.539535 20.247H4.32575V7.21599H0.539535V20.247ZM4.86812 2.96699C4.86826 3.30227 4.80532 3.63423 4.68296 3.94358C4.5606 4.25293 4.38126 4.53351 4.15537 4.76899C3.69762 5.24962 3.07801 5.51865 2.43264 5.51699C1.78841 5.51654 1.17023 5.24819 0.711808 4.76999C0.486728 4.5337 0.307995 4.25282 0.18585 3.94342C0.0637044 3.63403 0.000548179 3.30222 0 2.96699C0 2.28999 0.255569 1.64199 0.712754 1.16399C1.17078 0.685151 1.78921 0.416693 2.43359 0.416992C3.07914 0.416992 3.69818 0.685992 4.15537 1.16399C4.61161 1.64199 4.86812 2.28999 4.86812 2.96699Z" fill="black"/>
</svg>
