<svg width="15" height="16" viewBox="0 0 15 16" fill="none" xmlns="http://www.w3.org/2000/svg">
<path d="M12.529 2.5625L8.65208 13.2985C8.62591 13.3556 8.58389 13.404 8.53103 13.438C8.47816 13.4719 8.41667 13.4899 8.35385 13.4899C8.29104 13.4899 8.22954 13.4719 8.17668 13.438C8.12381 13.404 8.0818 13.3556 8.05563 13.2985L5.96807 9.12341L1.79294 7.03585C1.73584 7.00968 1.68745 6.96766 1.65352 6.9148C1.6196 6.86193 1.60156 6.80044 1.60156 6.73762C1.60156 6.67481 1.6196 6.61331 1.65352 6.56045C1.68745 6.50758 1.73584 6.46557 1.79294 6.4394L12.529 2.5625Z" stroke="#727272" stroke-width="1.19289" stroke-linecap="round" stroke-linejoin="round"/>
</svg>
