<svg width="22" height="22" viewBox="0 0 22 22" fill="none" xmlns="http://www.w3.org/2000/svg">
<path d="M9.59094 18.2872C8.71245 18.1566 7.85889 17.8933 7.0595 17.5063L2.83594 18.4049L4.00416 14.9003C1.91574 11.8117 2.72271 7.82628 5.89128 5.5779C9.05985 3.33043 13.6105 3.51465 16.5356 6.00925C18.0327 7.2862 18.8666 8.96574 19.0041 10.6911" stroke="#727272" stroke-width="1.79726" stroke-linecap="round" stroke-linejoin="round"/>
<path d="M16.142 19.1342L14.1902 20.1568C14.1323 20.187 14.0671 20.2004 14.002 20.1957C13.9368 20.191 13.8743 20.1682 13.8214 20.13C13.7684 20.0918 13.7271 20.0396 13.7021 19.9793C13.6771 19.9189 13.6694 19.8529 13.6798 19.7884L14.0527 17.6218L12.4738 16.0878C12.4267 16.0423 12.3933 15.9844 12.3775 15.9208C12.3617 15.8572 12.3641 15.7904 12.3844 15.7281C12.4048 15.6658 12.4422 15.6104 12.4925 15.5684C12.5428 15.5263 12.6039 15.4992 12.6688 15.4902L14.8507 15.1739L15.8266 13.2032C15.8558 13.1445 15.9008 13.0952 15.9565 13.0606C16.0122 13.0261 16.0764 13.0078 16.142 13.0078C16.2075 13.0078 16.2718 13.0261 16.3275 13.0606C16.3832 13.0952 16.4282 13.1445 16.4574 13.2032L17.4333 15.1739L19.6152 15.4902C19.6799 15.4996 19.7408 15.5268 19.7908 15.5689C19.8409 15.611 19.8782 15.6662 19.8985 15.7284C19.9188 15.7906 19.9213 15.8572 19.9057 15.9207C19.8901 15.9842 19.857 16.0421 19.8102 16.0878L18.2313 17.6218L18.6033 19.7875C18.6145 19.8521 18.6073 19.9185 18.5827 19.9792C18.558 20.0399 18.5168 20.0925 18.4637 20.131C18.4106 20.1694 18.3478 20.1922 18.2825 20.1968C18.2171 20.2014 18.1517 20.1875 18.0938 20.1568L16.142 19.1342Z" stroke="#727272" stroke-width="1.79726" stroke-linecap="round" stroke-linejoin="round"/>
</svg>
