<svg width="21" height="29" viewBox="0 0 21 29" fill="none" xmlns="http://www.w3.org/2000/svg">
<path d="M17.529 19.2919C16.9969 19.0397 16.3487 19.2353 16.0707 19.7318C15.8138 20.2377 16.0262 20.8445 16.5519 21.1068C17.8353 21.7256 18.5644 22.4818 18.5644 23.2106C18.5644 24.7644 15.1228 26.4969 10.5144 26.4969C5.90609 26.4969 2.44984 24.7781 2.44984 23.2656C2.44984 22.5506 3.179 21.7806 4.46234 21.1618C4.84719 21.0164 5.1117 20.6782 5.14541 20.2885C5.17913 19.8989 4.97625 19.5248 4.6215 19.3224C4.26674 19.12 3.82111 19.1241 3.47067 19.3331C1.7001 19.9623 0.465742 21.4892 0.291504 23.2656C0.291504 26.3181 4.6665 28.6144 10.4998 28.6144C16.3332 28.6144 20.7082 26.3181 20.7082 23.2656C20.55 21.4738 19.3129 19.9274 17.529 19.2919Z" fill="#DD0000"/>
<path fill-rule="evenodd" clip-rule="evenodd" d="M9.40609 23.8706V17.9306C4.60364 17.3851 1.08269 13.4073 1.37252 8.8547C1.66234 4.30212 5.66266 0.75 10.4998 0.75C15.337 0.75 19.3373 4.30212 19.6272 8.8547C19.917 13.4073 16.396 17.3851 11.5936 17.9306V23.8706C11.5936 24.4401 11.1039 24.9018 10.4998 24.9018C9.89578 24.9018 9.40609 24.4401 9.40609 23.8706ZM16.9518 6.85655C15.8691 4.39934 13.3219 2.80004 10.4998 2.8056C6.66134 2.81316 3.55161 5.74519 3.54359 9.36435C3.53769 12.0252 5.23392 14.4268 7.84006 15.4477C10.4462 16.4685 13.448 15.907 15.4435 14.0255C17.4391 12.1441 18.0345 9.31377 16.9518 6.85655Z" fill="#DD0000"/>
<path d="M6.98526 10.8906C7.58932 10.8906 8.07901 10.4289 8.07901 9.85935C8.07901 8.27982 9.43708 6.99935 11.1123 6.99935C11.7164 6.99935 12.2061 6.53764 12.2061 5.9681C12.2061 5.39856 11.7164 4.93685 11.1123 4.93685C9.72382 4.94049 8.3937 5.46406 7.41461 6.39236C6.43551 7.32067 5.88763 8.57767 5.89151 9.88685C5.89535 10.1567 6.01275 10.4141 6.21787 10.6023C6.42299 10.7906 6.69904 10.8943 6.98526 10.8906Z" fill="#DD0000"/>
</svg>
