<svg width="102" height="103" viewBox="0 0 102 103" fill="none" xmlns="http://www.w3.org/2000/svg">
<g filter="url(#filter0_d_5713_2493)">
<mask id="path-1-outside-1_5713_2493" maskUnits="userSpaceOnUse" x="40.2317" y="34.8999" width="56" height="59" fill="black">
<rect fill="white" x="40.2317" y="34.8999" width="56" height="59"/>
<path d="M70.5773 50.1219C70.0414 49.8999 69.3608 49.8999 67.9998 49.8999C66.6388 49.8999 65.9583 49.8999 65.4224 50.1219C65.0678 50.2687 64.7456 50.4839 64.4742 50.7552C64.2029 51.0266 63.9876 51.3488 63.8408 51.7034C63.7065 52.029 63.6525 52.4102 63.632 52.9636C63.6229 53.3638 63.5123 53.755 63.3105 54.1006C63.1087 54.4462 62.8223 54.7349 62.4784 54.9395C62.1292 55.1352 61.736 55.239 61.3357 55.241C60.9354 55.2431 60.5412 55.1433 60.1901 54.9511C59.6994 54.6912 59.3445 54.5481 58.9926 54.5014C58.2249 54.4004 57.4486 54.6084 56.8342 55.0796C56.3757 55.4345 56.034 56.023 55.3535 57.2015C54.673 58.38 54.3313 58.9685 54.2568 59.5453C54.2066 59.9256 54.2318 60.3121 54.3311 60.6827C54.4303 61.0533 54.6016 61.4007 54.8351 61.7051C55.0512 61.9855 55.3535 62.2206 55.8222 62.5156C56.513 62.9493 56.9569 63.6882 56.9569 64.5031C56.9569 65.3179 56.513 66.0569 55.8222 66.4891C55.3535 66.7856 55.0497 67.0207 54.8351 67.301C54.6016 67.6054 54.4303 67.9528 54.3311 68.3234C54.2318 68.694 54.2066 69.0805 54.2568 69.4609C54.3327 70.0362 54.673 70.6262 55.352 71.8047C56.034 72.9831 56.3742 73.5716 56.8342 73.9265C57.1386 74.16 57.486 74.3313 57.8566 74.4305C58.2272 74.5297 58.6137 74.555 58.9941 74.5048C59.3445 74.4581 59.6994 74.3149 60.1901 74.055C60.5412 73.8628 60.9354 73.7631 61.3357 73.7651C61.736 73.7672 62.1292 73.871 62.4784 74.0667C63.1837 74.4756 63.6028 75.2276 63.632 76.0425C63.6525 76.5974 63.705 76.9771 63.8408 77.3028C63.9876 77.6574 64.2029 77.9795 64.4742 78.2509C64.7456 78.5223 65.0678 78.7375 65.4224 78.8843C65.9583 79.1062 66.6388 79.1063 67.9998 79.1063C69.3608 79.1063 70.0414 79.1062 70.5773 78.8843C70.9319 78.7375 71.2541 78.5223 71.5254 78.2509C71.7968 77.9795 72.012 77.6574 72.1588 77.3028C72.2932 76.9771 72.3472 76.5974 72.3676 76.0425C72.3968 75.2276 72.816 74.4741 73.5213 74.0667C73.8705 73.871 74.2637 73.7672 74.6639 73.7651C75.0642 73.7631 75.4585 73.8628 75.8096 74.055C76.3003 74.3149 76.6551 74.4581 77.0056 74.5048C77.386 74.555 77.7725 74.5297 78.143 74.4305C78.5136 74.3313 78.861 74.16 79.1654 73.9265C79.6254 73.5731 79.9657 72.9831 80.6462 71.8047C81.3267 70.6262 81.6684 70.0377 81.7429 69.4609C81.7931 69.0805 81.7678 68.694 81.6686 68.3234C81.5694 67.9528 81.3981 67.6054 81.1646 67.301C80.9485 67.0207 80.6462 66.7856 80.1774 66.4906C79.8353 66.2826 79.5517 65.9911 79.3532 65.6435C79.1547 65.2958 79.0479 64.9034 79.0428 64.5031C79.0428 63.6882 79.4867 62.9493 80.1774 62.517C80.6462 62.2206 80.9499 61.9855 81.1646 61.7051C81.3981 61.4007 81.5694 61.0533 81.6686 60.6827C81.7678 60.3121 81.7931 59.9256 81.7429 59.5453C81.6669 58.9699 81.3267 58.38 80.6476 57.2015C79.9657 56.023 79.6254 55.4345 79.1654 55.0796C78.861 54.8461 78.5136 54.6749 78.143 54.5756C77.7725 54.4764 77.386 54.4512 77.0056 54.5014C76.6551 54.5481 76.3003 54.6912 75.8081 54.9511C75.4572 55.143 75.0632 55.2427 74.6632 55.2406C74.2632 55.2386 73.8703 55.1349 73.5213 54.9395C73.1773 54.7349 72.891 54.4462 72.6892 54.1006C72.4874 53.755 72.3767 53.3638 72.3676 52.9636C72.3472 52.4087 72.2946 52.029 72.1588 51.7034C72.012 51.3488 71.7968 51.0266 71.5254 50.7552C71.2541 50.4839 70.9319 50.2687 70.5773 50.1219Z"/>
</mask>
<path d="M70.5773 50.1219C70.0414 49.8999 69.3608 49.8999 67.9998 49.8999C66.6388 49.8999 65.9583 49.8999 65.4224 50.1219C65.0678 50.2687 64.7456 50.4839 64.4742 50.7552C64.2029 51.0266 63.9876 51.3488 63.8408 51.7034C63.7065 52.029 63.6525 52.4102 63.632 52.9636C63.6229 53.3638 63.5123 53.755 63.3105 54.1006C63.1087 54.4462 62.8223 54.7349 62.4784 54.9395C62.1292 55.1352 61.736 55.239 61.3357 55.241C60.9354 55.2431 60.5412 55.1433 60.1901 54.9511C59.6994 54.6912 59.3445 54.5481 58.9926 54.5014C58.2249 54.4004 57.4486 54.6084 56.8342 55.0796C56.3757 55.4345 56.034 56.023 55.3535 57.2015C54.673 58.38 54.3313 58.9685 54.2568 59.5453C54.2066 59.9256 54.2318 60.3121 54.3311 60.6827C54.4303 61.0533 54.6016 61.4007 54.8351 61.7051C55.0512 61.9855 55.3535 62.2206 55.8222 62.5156C56.513 62.9493 56.9569 63.6882 56.9569 64.5031C56.9569 65.3179 56.513 66.0569 55.8222 66.4891C55.3535 66.7856 55.0497 67.0207 54.8351 67.301C54.6016 67.6054 54.4303 67.9528 54.3311 68.3234C54.2318 68.694 54.2066 69.0805 54.2568 69.4609C54.3327 70.0362 54.673 70.6262 55.352 71.8047C56.034 72.9831 56.3742 73.5716 56.8342 73.9265C57.1386 74.16 57.486 74.3313 57.8566 74.4305C58.2272 74.5297 58.6137 74.555 58.9941 74.5048C59.3445 74.4581 59.6994 74.3149 60.1901 74.055C60.5412 73.8628 60.9354 73.7631 61.3357 73.7651C61.736 73.7672 62.1292 73.871 62.4784 74.0667C63.1837 74.4756 63.6028 75.2276 63.632 76.0425C63.6525 76.5974 63.705 76.9771 63.8408 77.3028C63.9876 77.6574 64.2029 77.9795 64.4742 78.2509C64.7456 78.5223 65.0678 78.7375 65.4224 78.8843C65.9583 79.1062 66.6388 79.1063 67.9998 79.1063C69.3608 79.1063 70.0414 79.1062 70.5773 78.8843C70.9319 78.7375 71.2541 78.5223 71.5254 78.2509C71.7968 77.9795 72.012 77.6574 72.1588 77.3028C72.2932 76.9771 72.3472 76.5974 72.3676 76.0425C72.3968 75.2276 72.816 74.4741 73.5213 74.0667C73.8705 73.871 74.2637 73.7672 74.6639 73.7651C75.0642 73.7631 75.4585 73.8628 75.8096 74.055C76.3003 74.3149 76.6551 74.4581 77.0056 74.5048C77.386 74.555 77.7725 74.5297 78.143 74.4305C78.5136 74.3313 78.861 74.16 79.1654 73.9265C79.6254 73.5731 79.9657 72.9831 80.6462 71.8047C81.3267 70.6262 81.6684 70.0377 81.7429 69.4609C81.7931 69.0805 81.7678 68.694 81.6686 68.3234C81.5694 67.9528 81.3981 67.6054 81.1646 67.301C80.9485 67.0207 80.6462 66.7856 80.1774 66.4906C79.8353 66.2826 79.5517 65.9911 79.3532 65.6435C79.1547 65.2958 79.0479 64.9034 79.0428 64.5031C79.0428 63.6882 79.4867 62.9493 80.1774 62.517C80.6462 62.2206 80.9499 61.9855 81.1646 61.7051C81.3981 61.4007 81.5694 61.0533 81.6686 60.6827C81.7678 60.3121 81.7931 59.9256 81.7429 59.5453C81.6669 58.9699 81.3267 58.38 80.6476 57.2015C79.9657 56.023 79.6254 55.4345 79.1654 55.0796C78.861 54.8461 78.5136 54.6749 78.143 54.5756C77.7725 54.4764 77.386 54.4512 77.0056 54.5014C76.6551 54.5481 76.3003 54.6912 75.8081 54.9511C75.4572 55.143 75.0632 55.2427 74.6632 55.2406C74.2632 55.2386 73.8703 55.1349 73.5213 54.9395C73.1773 54.7349 72.891 54.4462 72.6892 54.1006C72.4874 53.755 72.3767 53.3638 72.3676 52.9636C72.3472 52.4087 72.2946 52.029 72.1588 51.7034C72.012 51.3488 71.7968 51.0266 71.5254 50.7552C71.2541 50.4839 70.9319 50.2687 70.5773 50.1219Z" fill="white"/>
<path d="M70.5773 50.1219L65.2202 63.0564L65.2227 63.0574L70.5773 50.1219ZM65.4224 50.1219L70.7769 63.0574L70.7794 63.0564L65.4224 50.1219ZM63.8408 51.7034L50.9053 46.3488L50.9021 46.3565L50.899 46.3641L63.8408 51.7034ZM63.632 52.9636L49.6416 52.4469L49.6379 52.5461L49.6356 52.6453L63.632 52.9636ZM62.4784 54.9395L69.3244 67.1514L69.4808 67.0637L69.6349 66.9721L62.4784 54.9395ZM60.1901 54.9511L66.9111 42.6699L66.8278 42.6244L66.7439 42.5799L60.1901 54.9511ZM58.9926 54.5014L60.8353 40.6232L60.8266 40.622L60.8179 40.6209L58.9926 54.5014ZM56.8342 55.0796L48.3136 43.9712L48.2897 43.9895L48.266 44.0079L56.8342 55.0796ZM54.2568 59.5453L68.1365 61.3766L68.139 61.3573L68.1415 61.338L54.2568 59.5453ZM54.8351 61.7051L43.7274 70.2268L43.7371 70.2395L43.7469 70.2522L54.8351 61.7051ZM55.8222 62.5156L48.3658 74.3647L48.3775 74.372L55.8222 62.5156ZM55.8222 66.4891L48.3955 54.6214L48.3674 54.6389L48.3394 54.6566L55.8222 66.4891ZM54.8351 67.301L65.9428 75.8227L65.9511 75.8118L54.8351 67.301ZM54.2568 69.4609L40.3771 71.2922L40.3771 71.2927L54.2568 69.4609ZM55.352 71.8047L43.2217 78.7943L43.2282 78.8055L43.2347 78.8168L55.352 71.8047ZM56.8342 73.9265L48.283 85.0115L48.2978 85.0229L48.3126 85.0342L56.8342 73.9265ZM58.9941 74.5048L60.8254 88.3845L60.8349 88.3832L60.8443 88.382L58.9941 74.5048ZM60.1901 74.055L66.7439 86.4263L66.8278 86.3818L66.9111 86.3362L60.1901 74.055ZM62.4784 74.0667L69.4998 61.9547L69.4125 61.9041L69.3244 61.8548L62.4784 74.0667ZM63.632 76.0425L49.641 76.544L49.6415 76.5579L63.632 76.0425ZM63.8408 77.3028L76.7764 71.9482L76.7693 71.9311L76.7622 71.914L63.8408 77.3028ZM65.4224 78.8843L70.7794 65.9498L70.7769 65.9487L65.4224 78.8843ZM70.5773 78.8843L65.2227 65.9487L65.2202 65.9498L70.5773 78.8843ZM72.1588 77.3028L85.0944 82.6573L85.0975 82.6497L85.1007 82.642L72.1588 77.3028ZM72.3676 76.0425L86.3582 76.5579L86.3587 76.544L72.3676 76.0425ZM73.5213 74.0667L66.6752 61.8548L66.5967 61.8988L66.5187 61.9439L73.5213 74.0667ZM75.8096 74.055L69.0886 86.3362L69.1719 86.3818L69.2558 86.4263L75.8096 74.055ZM77.0056 74.5048L75.1553 88.382L75.1648 88.3832L75.1743 88.3845L77.0056 74.5048ZM79.1654 73.9265L87.6871 85.0342L87.6946 85.0285L79.1654 73.9265ZM81.7429 69.4609L67.8632 67.6295L67.8606 67.6488L67.8581 67.6681L81.7429 69.4609ZM81.1646 67.301L92.2723 58.7794L92.2625 58.7666L92.2527 58.7539L81.1646 67.301ZM80.1774 66.4906L87.6339 54.6415L87.5419 54.5836L87.449 54.5271L80.1774 66.4906ZM79.0428 64.5031H65.0428V64.593L65.0439 64.683L79.0428 64.5031ZM80.1774 62.517L87.6042 74.3848L87.6323 74.3672L87.6603 74.3495L80.1774 62.517ZM81.1646 61.7051L70.0569 53.1834L70.0485 53.1944L81.1646 61.7051ZM81.7429 59.5453L95.6226 57.714L95.6225 57.7135L81.7429 59.5453ZM80.6476 57.2015L92.778 50.2119L92.7715 50.2006L92.765 50.1893L80.6476 57.2015ZM79.1654 55.0796L87.7167 43.9947L87.7019 43.9833L87.6871 43.9719L79.1654 55.0796ZM77.0056 54.5014L75.1743 40.6217L75.1648 40.6229L75.1553 40.6242L77.0056 54.5014ZM75.8081 54.9511L69.2695 42.5719L69.1802 42.6191L69.0915 42.6675L75.8081 54.9511ZM73.5213 54.9395L66.3647 66.9721L66.5209 67.065L66.6795 67.1538L73.5213 54.9395ZM72.3676 52.9636L86.364 52.6453L86.3618 52.5467L86.3582 52.4482L72.3676 52.9636ZM72.1588 51.7034L59.2233 57.058L59.2303 57.075L59.2375 57.0921L72.1588 51.7034ZM75.9344 37.1874C73.6744 36.2513 71.6674 36.0362 70.5496 35.96C69.5561 35.8923 68.489 35.8999 67.9998 35.8999V63.8999C68.3668 63.8999 68.5645 63.9002 68.7172 63.9022C68.8696 63.9042 68.8105 63.9065 68.6463 63.8953C68.3431 63.8746 66.9443 63.7704 65.2202 63.0564L75.9344 37.1874ZM67.9998 35.8999C67.5107 35.8999 66.4436 35.8923 65.4501 35.96C64.3323 36.0362 62.3253 36.2513 60.0653 37.1874L70.7794 63.0564C69.0554 63.7704 67.6566 63.8746 67.3533 63.8953C67.1891 63.9065 67.13 63.9042 67.2825 63.9022C67.4351 63.9002 67.6329 63.8999 67.9998 63.8999V35.8999ZM60.0678 37.1863C58.0135 38.0367 56.1469 39.2836 54.5747 40.8557L74.3737 60.6547C73.3443 61.6842 72.1221 62.5006 70.7769 63.0574L60.0678 37.1863ZM54.5747 40.8557C53.0026 42.4279 51.7557 44.2945 50.9053 46.3488L76.7764 57.058C76.2196 58.4031 75.4032 59.6253 74.3737 60.6547L54.5747 40.8557ZM50.899 46.3641C49.7943 49.0419 49.6785 51.4459 49.6416 52.4469L77.6225 53.4804C77.622 53.4933 77.6101 53.8844 77.5176 54.4619C77.4163 55.0942 77.2117 56.003 76.7827 57.0426L50.899 46.3641ZM49.6356 52.6453C49.6805 50.6732 50.2258 48.7449 51.2205 47.0414L75.4005 61.1598C76.7987 58.7651 77.5654 56.0543 77.6284 53.282L49.6356 52.6453ZM51.2205 47.0414C52.2151 45.3379 53.6264 43.9152 55.3218 42.9068L69.6349 66.9721C72.0183 65.5545 74.0022 63.5545 75.4005 61.1598L51.2205 47.0414ZM55.6323 42.7275C57.3533 41.7627 59.2913 41.2513 61.2642 41.2412L61.4072 69.2408C64.1807 69.2267 66.9051 68.5077 69.3244 67.1514L55.6323 42.7275ZM61.2642 41.2412C63.2372 41.2311 65.1803 41.7228 66.9111 42.6699L53.469 67.2323C55.9021 68.5639 58.6337 69.255 61.4072 69.2408L61.2642 41.2412ZM66.7439 42.5799C65.8526 42.1078 63.7129 41.0053 60.8353 40.6232L57.1498 68.3796C56.0435 68.2327 55.1541 67.9578 54.5441 67.7248C53.9916 67.5138 53.6431 67.326 53.6362 67.3224L66.7439 42.5799ZM60.8179 40.6209C56.3705 40.036 51.8729 41.2411 48.3136 43.9712L65.3549 66.1881C63.0243 67.9758 60.0793 68.7648 57.1672 68.3819L60.8179 40.6209ZM48.266 44.0079C46.358 45.4844 45.1826 47.0928 44.5593 48.0197C44.0039 48.8458 43.4797 49.7676 43.2296 50.2006L67.4773 64.2024C67.6588 63.8881 67.758 63.717 67.835 63.5878C67.9121 63.4583 67.8854 63.5091 67.7949 63.6437C67.6272 63.893 66.8519 65.0298 65.4025 66.1514L48.266 44.0079ZM43.2296 50.2006C42.9903 50.6151 42.4469 51.5399 42.0087 52.4333C41.5137 53.4425 40.6882 55.304 40.372 57.7526L68.1415 61.338C67.8999 63.2098 67.2825 64.4886 67.1471 64.7647C67.0739 64.9138 67.0418 64.9648 67.1173 64.8302C67.1931 64.6948 67.2918 64.5236 67.4773 64.2024L43.2296 50.2006ZM40.3771 57.714C40.0863 59.9175 40.2326 62.1567 40.8074 64.3037L67.8547 57.0618C68.2311 58.4676 68.3269 59.9338 68.1365 61.3766L40.3771 57.714ZM40.8074 64.3037C41.3823 66.4507 42.3745 68.4633 43.7274 70.2268L65.9428 53.1834C66.8286 54.3381 67.4783 55.656 67.8547 57.0618L40.8074 64.3037ZM43.7469 70.2522C45.52 72.5525 47.5525 73.8529 48.3658 74.3647L63.2787 50.6665C63.2914 50.6745 63.3716 50.7251 63.4943 50.8104C63.6178 50.8963 63.8131 51.0373 64.0515 51.2306C64.5485 51.6336 65.2353 52.2656 65.9232 53.158L43.7469 70.2522ZM48.3775 74.372C45.3528 72.4728 42.9569 68.9193 42.9569 64.5031H70.9569C70.9569 58.4572 67.6732 53.4258 63.267 50.6591L48.3775 74.372ZM42.9569 64.5031C42.9569 60.09 45.3511 56.5265 48.3955 54.6214L63.249 78.3569C67.6748 75.5872 70.9569 70.5459 70.9569 64.5031H42.9569ZM48.3394 54.6566C47.5777 55.1384 45.5078 56.4539 43.719 58.7903L65.9511 75.8118C65.2465 76.7322 64.5443 77.3752 64.0524 77.7742C63.8153 77.9665 63.6226 78.1056 63.5041 78.1882C63.3863 78.2702 63.3113 78.3176 63.3051 78.3216L48.3394 54.6566ZM43.7274 58.7794C42.3745 60.5428 41.3823 62.5555 40.8074 64.7025L67.8547 71.9444C67.4783 73.3502 66.8286 74.668 65.9428 75.8227L43.7274 58.7794ZM40.8074 64.7025C40.2326 66.8495 40.0863 69.0887 40.3771 71.2922L68.1365 67.6295C68.3269 69.0723 68.2311 70.5385 67.8547 71.9444L40.8074 64.7025ZM40.3771 71.2927C40.6966 73.7135 41.5119 75.5562 42.0029 76.5597C42.4395 77.452 42.9781 78.3715 43.2217 78.7943L67.4824 64.8151C67.299 64.4968 67.2004 64.3252 67.1255 64.1913C67.0508 64.0577 67.0818 64.1069 67.1536 64.2535C67.2857 64.5236 67.8929 65.7836 68.1364 67.629L40.3771 71.2927ZM43.2347 78.8168C43.4798 79.2404 44.0058 80.1643 44.5586 80.9864C45.1815 81.9129 46.3623 83.5298 48.283 85.0115L65.3855 62.8416C66.8462 63.9684 67.6268 65.1136 67.7942 65.3625C67.8843 65.4965 67.9107 65.5468 67.832 65.4148C67.7531 65.2825 67.6534 65.1106 67.4694 64.7925L43.2347 78.8168ZM48.3126 85.0342C50.076 86.3871 52.0886 87.3793 54.2357 87.9542L61.4776 60.9069C62.8834 61.2833 64.2013 61.933 65.3559 62.8188L48.3126 85.0342ZM54.2357 87.9542C56.3827 88.529 58.6219 88.6752 60.8254 88.3845L57.1627 60.6251C58.6056 60.4347 60.0718 60.5305 61.4776 60.9069L54.2357 87.9542ZM60.8443 88.382C63.718 87.9988 65.856 86.8966 66.7439 86.4263L53.6362 61.6838C53.6433 61.6801 53.9901 61.4932 54.5402 61.2829C55.1465 61.0511 56.0355 60.7754 57.1438 60.6276L60.8443 88.382ZM66.9111 86.3362C65.1804 87.2834 63.2372 87.775 61.2642 87.765L61.4072 59.7653C58.6336 59.7512 55.9021 60.4423 53.469 61.7738L66.9111 86.3362ZM61.2642 87.765C59.2913 87.7549 57.3533 87.2434 55.6323 86.2786L69.3244 61.8548C66.9051 60.4985 64.1807 59.7795 61.4072 59.7653L61.2642 87.765ZM55.4569 86.1787C51.6773 83.9876 49.7706 80.1585 49.641 76.544L77.623 75.541C77.4351 70.2968 74.6901 64.9636 69.4998 61.9547L55.4569 86.1787ZM49.6415 76.5579C49.6768 77.5157 49.7834 79.9674 50.9195 82.6915L76.7622 71.914C77.2067 72.9799 77.4161 73.9117 77.5186 74.5549C77.5679 74.8639 77.5927 75.1083 77.6055 75.2613C77.6182 75.4133 77.6219 75.5105 77.6225 75.5271L49.6415 76.5579ZM50.9053 82.6573C51.7557 84.7116 53.0025 86.5782 54.5747 88.1504L74.3737 68.3514C75.4032 69.3809 76.2196 70.6031 76.7764 71.9482L50.9053 82.6573ZM54.5747 88.1504C56.1469 89.7226 58.0135 90.9695 60.0678 91.8198L70.7769 65.9487C72.1221 66.5055 73.3443 67.322 74.3737 68.3514L54.5747 88.1504ZM60.0653 91.8188C62.3253 92.7548 64.3323 92.97 65.4501 93.0461C66.4436 93.1138 67.5107 93.1063 67.9998 93.1063V65.1063C67.6329 65.1063 67.4351 65.106 67.2825 65.104C67.13 65.102 67.1892 65.0997 67.3533 65.1109C67.6566 65.1315 69.0554 65.2357 70.7794 65.9498L60.0653 91.8188ZM67.9998 93.1063C68.489 93.1063 69.5561 93.1138 70.5496 93.0461C71.6674 92.97 73.6744 92.7548 75.9344 91.8188L65.2202 65.9498C66.9442 65.2357 68.343 65.1315 68.6463 65.1109C68.8105 65.0997 68.8696 65.102 68.7172 65.104C68.5645 65.106 68.3668 65.1063 67.9998 65.1063V93.1063ZM75.9319 91.8198C77.9862 90.9695 79.8528 89.7226 81.4249 88.1504L61.6259 68.3514C62.6554 67.322 63.8776 66.5055 65.2227 65.9487L75.9319 91.8198ZM81.4249 88.1504C82.9971 86.5782 84.244 84.7116 85.0944 82.6573L59.2233 71.9482C59.7801 70.6031 60.5965 69.3809 61.6259 68.3514L81.4249 88.1504ZM85.1007 82.642C86.2047 79.9661 86.321 77.5655 86.3582 76.5579L58.3771 75.5271C58.3776 75.5153 58.3895 75.1226 58.4824 74.5429C58.5845 73.9059 58.7899 72.9987 59.2169 71.9635L85.1007 82.642ZM86.3587 76.544C86.2296 80.1439 84.3324 83.9896 80.5239 86.1895L66.5187 61.9439C61.2995 64.9586 58.5641 70.3114 58.3766 75.541L86.3587 76.544ZM80.3674 86.2786C78.6464 87.2434 76.7084 87.7549 74.7354 87.765L74.5925 59.7653C71.8189 59.7795 69.0945 60.4985 66.6752 61.8548L80.3674 86.2786ZM74.7354 87.765C72.7624 87.775 70.8193 87.2834 69.0886 86.3362L82.5306 61.7738C80.0976 60.4423 77.366 59.7512 74.5925 59.7653L74.7354 87.765ZM69.2558 86.4263C70.1436 86.8966 72.2816 87.9988 75.1553 88.382L78.8559 60.6276C79.9641 60.7754 80.8531 61.0511 81.4595 61.2829C82.0096 61.4932 82.3564 61.6801 82.3634 61.6838L69.2558 86.4263ZM75.1743 88.3845C77.3778 88.6752 79.617 88.529 81.764 87.9542L74.5221 60.9069C75.9279 60.5305 77.3941 60.4347 78.8369 60.6251L75.1743 88.3845ZM81.764 87.9542C83.911 87.3793 85.9237 86.387 87.6871 85.0342L70.6437 62.8188C71.7984 61.933 73.1162 61.2833 74.5221 60.9069L81.764 87.9542ZM87.6946 85.0285C89.6342 83.5383 90.8229 81.9073 91.4457 80.9798C91.9996 80.1549 92.5262 79.2277 92.77 78.8055L68.5223 64.8038C68.3385 65.1222 68.2392 65.2937 68.1607 65.4257C68.0823 65.5575 68.1094 65.5059 68.2005 65.3702C68.3681 65.1207 69.1566 63.9613 70.6363 62.8245L87.6946 85.0285ZM92.77 78.8055C93.0094 78.3911 93.5527 77.4662 93.991 76.5728C94.486 75.5636 95.3115 73.7022 95.6276 71.2536L67.8581 67.6681C68.0998 65.7964 68.7172 64.5176 68.8526 64.2415C68.9257 64.0924 68.9579 64.0414 68.8824 64.176C68.8065 64.3114 68.7078 64.4825 68.5223 64.8038L92.77 78.8055ZM95.6226 71.2922C95.9133 69.0888 95.7671 66.8496 95.1922 64.7025L68.145 71.9444C67.7685 70.5385 67.6728 69.0723 67.8632 67.6295L95.6226 71.2922ZM95.1922 64.7025C94.6174 62.5554 93.6251 60.5427 92.2723 58.7794L70.0569 75.8227C69.1711 74.6681 68.5214 73.3502 68.145 71.9444L95.1922 64.7025ZM92.2527 58.7539C90.4796 56.4537 88.4472 55.1533 87.6339 54.6415L72.721 78.3397C72.7082 78.3317 72.628 78.2811 72.5054 78.1958C72.3818 78.1098 72.1865 77.9689 71.9481 77.7755C71.4511 77.3725 70.7644 76.7406 70.0764 75.8482L92.2527 58.7539ZM87.449 54.5271C89.1351 55.552 90.533 56.9887 91.5114 58.7023L67.1951 72.5846C68.5703 74.9936 70.5355 77.0133 72.9058 78.454L87.449 54.5271ZM91.5114 58.7023C92.4897 60.416 93.0162 62.3502 93.0416 64.3232L65.0439 64.683C65.0796 67.4566 65.8198 70.1756 67.1951 72.5846L91.5114 58.7023ZM93.0428 64.5031C93.0428 68.9162 90.6485 72.4796 87.6042 74.3848L72.7507 50.6493C68.3248 53.419 65.0428 58.4603 65.0428 64.5031H93.0428ZM87.6603 74.3495C88.422 73.8678 90.4919 72.5522 92.2807 70.2159L70.0485 53.1944C70.7532 52.274 71.4553 51.631 71.9472 51.232C72.1843 51.0397 72.3771 50.9005 72.4956 50.818C72.6133 50.7359 72.6883 50.6885 72.6946 50.6846L87.6603 74.3495ZM92.2723 70.2268C93.6251 68.4634 94.6174 66.4507 95.1922 64.3037L68.145 57.0618C68.5214 55.6559 69.1711 54.338 70.0569 53.1834L92.2723 70.2268ZM95.1922 64.3037C95.7671 62.1566 95.9133 59.9174 95.6226 57.714L67.8632 61.3766C67.6728 59.9339 67.7685 58.4677 68.145 57.0618L95.1922 64.3037ZM95.6225 57.7135C95.303 55.2927 94.4878 53.45 93.9968 52.4465C93.5602 51.5541 93.0216 50.6346 92.778 50.2119L68.5173 64.1911C68.7007 64.5093 68.7993 64.681 68.8741 64.8149C68.9488 64.9485 68.9178 64.8993 68.8461 64.7527C68.7139 64.4826 68.1068 63.2225 67.8632 61.3771L95.6225 57.7135ZM92.765 50.1893C92.5199 49.7658 91.9939 48.8418 91.4411 48.0197C90.8181 47.0933 89.6374 45.4764 87.7167 43.9947L70.6142 66.1646C69.1534 65.0378 68.3728 63.8925 68.2055 63.6437C68.1153 63.5096 68.0889 63.4593 68.1676 63.5914C68.2465 63.7237 68.3462 63.8955 68.5303 64.2136L92.765 50.1893ZM87.6871 43.9719C85.9237 42.6191 83.911 41.6269 81.764 41.052L74.5221 68.0993C73.1163 67.7229 71.7984 67.0732 70.6437 66.1874L87.6871 43.9719ZM81.764 41.052C79.617 40.4772 77.3778 40.3309 75.1743 40.6217L78.8369 68.3811C77.3941 68.5714 75.9279 68.4757 74.5221 68.0993L81.764 41.052ZM75.1553 40.6242C72.2841 41.007 70.147 42.1084 69.2695 42.5719L82.3468 67.3304C82.345 67.3313 82.0015 67.5162 81.4552 67.7248C80.8521 67.9552 79.9642 68.2308 78.8559 68.3786L75.1553 40.6242ZM69.0915 42.6675C70.8214 41.7217 72.7632 41.2307 74.7347 41.2408L74.5917 69.2404C77.3633 69.2546 80.093 68.5644 82.5248 67.2347L69.0915 42.6675ZM74.7347 41.2408C76.7063 41.2509 78.643 41.7616 80.3631 42.7251L66.6795 67.1538C69.0976 68.5083 71.8201 69.2263 74.5917 69.2404L74.7347 41.2408ZM80.6778 42.9068C82.3732 43.9152 83.7845 45.3379 84.7792 47.0414L60.5992 61.1598C61.9974 63.5545 63.9814 65.5545 66.3647 66.9721L80.6778 42.9068ZM84.7792 47.0414C85.7738 48.7449 86.3192 50.6732 86.364 52.6453L58.3713 53.282C58.4343 56.0543 59.201 58.7651 60.5992 61.1598L84.7792 47.0414ZM86.3582 52.4482C86.3229 51.4904 86.2162 49.0388 85.0802 46.3147L59.2375 57.0921C58.793 56.0263 58.5835 55.0944 58.481 54.4513C58.4318 54.1423 58.407 53.8979 58.3942 53.7449C58.3815 53.5928 58.3777 53.4956 58.3771 53.4791L86.3582 52.4482ZM85.0944 46.3488C84.244 44.2945 82.9971 42.4279 81.4249 40.8557L61.6259 60.6547C60.5965 59.6253 59.7801 58.4031 59.2233 57.058L85.0944 46.3488ZM81.4249 40.8557C79.8528 39.2836 77.9862 38.0367 75.9319 37.1863L65.2227 63.0574C63.8776 62.5006 62.6554 61.6842 61.6259 60.6547L81.4249 40.8557Z" fill="white" mask="url(#path-1-outside-1_5713_2493)"/>
<path d="M46 51.0073C46 51.0073 41.4605 50.9 38.028 51.5072C31.2599 52.7044 25.1731 58.2508 21.6153 64.5038C19.8252 67.6499 19.7986 71.2139 20.2325 74.0207C20.7141 77.1362 23.6441 79 26.7966 79H46" stroke="white" stroke-width="28"/>
<circle cx="51" cy="29" r="20" fill="white" stroke="white" stroke-width="12"/>
<path d="M33 87C33 90.3137 35.6863 93 39 93H55.9107C60.1397 93 63.0416 88.7422 61.4952 84.8061C60.5932 82.51 58.3777 81 55.9107 81H39C35.6863 81 33 83.6863 33 87Z" fill="white"/>
<circle cx="51" cy="29" r="12" stroke="#9226FF" stroke-width="4"/>
<path d="M68.0001 68.882C70.4196 68.882 72.381 66.9206 72.381 64.5011C72.381 62.0815 70.4196 60.1201 68.0001 60.1201C65.5806 60.1201 63.6191 62.0815 63.6191 64.5011C63.6191 66.9206 65.5806 68.882 68.0001 68.882Z" stroke="#9226FF" stroke-width="4"/>
<path d="M70.5773 50.1219C70.0414 49.8999 69.3608 49.8999 67.9998 49.8999C66.6388 49.8999 65.9583 49.8999 65.4224 50.1219C65.0678 50.2687 64.7456 50.4839 64.4742 50.7552C64.2029 51.0266 63.9876 51.3488 63.8408 51.7034C63.7065 52.029 63.6525 52.4102 63.632 52.9636C63.6229 53.3638 63.5123 53.755 63.3105 54.1006C63.1087 54.4462 62.8223 54.7349 62.4784 54.9395C62.1292 55.1352 61.736 55.239 61.3357 55.241C60.9354 55.2431 60.5412 55.1433 60.1901 54.9511C59.6994 54.6912 59.3445 54.5481 58.9926 54.5014C58.2249 54.4004 57.4486 54.6084 56.8342 55.0796C56.3757 55.4345 56.034 56.023 55.3535 57.2015C54.673 58.38 54.3313 58.9685 54.2568 59.5453C54.2066 59.9256 54.2318 60.3121 54.3311 60.6827C54.4303 61.0533 54.6016 61.4007 54.8351 61.7051C55.0512 61.9855 55.3535 62.2206 55.8222 62.5156C56.513 62.9493 56.9569 63.6882 56.9569 64.5031C56.9569 65.3179 56.513 66.0569 55.8222 66.4891C55.3535 66.7856 55.0497 67.0207 54.8351 67.301C54.6016 67.6054 54.4303 67.9528 54.3311 68.3234C54.2318 68.694 54.2066 69.0805 54.2568 69.4609C54.3327 70.0362 54.673 70.6262 55.352 71.8047C56.034 72.9831 56.3742 73.5716 56.8342 73.9265C57.1386 74.16 57.486 74.3313 57.8566 74.4305C58.2272 74.5297 58.6137 74.555 58.9941 74.5048C59.3445 74.4581 59.6994 74.3149 60.1901 74.055C60.5412 73.8628 60.9354 73.7631 61.3357 73.7651C61.736 73.7672 62.1292 73.8709 62.4784 74.0667C63.1837 74.4756 63.6028 75.2276 63.632 76.0425C63.6525 76.5974 63.705 76.9771 63.8408 77.3028C63.9876 77.6574 64.2029 77.9795 64.4742 78.2509C64.7456 78.5223 65.0678 78.7375 65.4224 78.8843C65.9583 79.1062 66.6388 79.1063 67.9998 79.1063C69.3608 79.1063 70.0414 79.1062 70.5773 78.8843C70.9319 78.7375 71.2541 78.5223 71.5254 78.2509C71.7968 77.9795 72.012 77.6574 72.1588 77.3028C72.2932 76.9771 72.3472 76.5974 72.3676 76.0425C72.3968 75.2276 72.816 74.4741 73.5213 74.0667C73.8705 73.8709 74.2637 73.7672 74.6639 73.7651C75.0642 73.7631 75.4585 73.8628 75.8096 74.055C76.3003 74.3149 76.6551 74.4581 77.0056 74.5048C77.386 74.555 77.7725 74.5297 78.143 74.4305C78.5136 74.3313 78.861 74.16 79.1654 73.9265C79.6254 73.5731 79.9657 72.9831 80.6462 71.8047C81.3267 70.6262 81.6684 70.0377 81.7429 69.4609C81.7931 69.0805 81.7678 68.694 81.6686 68.3234C81.5694 67.9528 81.3981 67.6054 81.1646 67.301C80.9485 67.0207 80.6462 66.7856 80.1774 66.4906C79.8353 66.2826 79.5517 65.9911 79.3532 65.6435C79.1547 65.2958 79.0479 64.9034 79.0428 64.5031C79.0428 63.6882 79.4867 62.9493 80.1774 62.517C80.6462 62.2206 80.9499 61.9855 81.1646 61.7051C81.3981 61.4007 81.5694 61.0533 81.6686 60.6827C81.7678 60.3121 81.7931 59.9256 81.7429 59.5453C81.6669 58.9699 81.3267 58.38 80.6476 57.2015C79.9657 56.023 79.6254 55.4345 79.1654 55.0796C78.861 54.8461 78.5136 54.6749 78.143 54.5756C77.7725 54.4764 77.386 54.4512 77.0056 54.5014C76.6551 54.5481 76.3003 54.6912 75.8081 54.9511C75.4572 55.143 75.0632 55.2427 74.6632 55.2406C74.2632 55.2386 73.8703 55.1349 73.5213 54.9395C73.1773 54.7349 72.891 54.4462 72.6892 54.1006C72.4874 53.755 72.3767 53.3638 72.3676 52.9636C72.3472 52.4087 72.2946 52.029 72.1588 51.7034C72.012 51.3488 71.7968 51.0266 71.5254 50.7552C71.2541 50.4839 70.9319 50.2687 70.5773 50.1219Z" stroke="#9226FF" stroke-width="4"/>
<path d="M46 51.0073C46 51.0073 41.4605 50.9 38.028 51.5072C31.2599 52.7044 25.1731 58.2508 21.6153 64.5038C19.8252 67.6499 19.7986 71.2139 20.2325 74.0207C20.7141 77.1362 23.6441 79 26.7966 79H46" stroke="#9226FF" stroke-width="4"/>
<path d="M44 50C44 49.4477 44.4477 49 45 49H49C49.824 49 50.2944 49.9408 49.8 50.6L48.3 52.6C48.1111 52.8518 47.8148 53 47.5 53H45C44.4477 53 44 52.5523 44 52V50Z" fill="#9226FF"/>
<path d="M44 80C44 80.5523 44.4477 81 45 81H49C49.824 81 50.2944 80.0592 49.8 79.4L48.3 77.4C48.1111 77.1482 47.8148 77 47.5 77H45C44.4477 77 44 77.4477 44 78V80Z" fill="#9226FF"/>
</g>
<defs>
<filter id="filter0_d_5713_2493" x="0" y="0" width="102" height="102.106" filterUnits="userSpaceOnUse" color-interpolation-filters="sRGB">
<feFlood flood-opacity="0" result="BackgroundImageFix"/>
<feColorMatrix in="SourceAlpha" type="matrix" values="0 0 0 0 0 0 0 0 0 0 0 0 0 0 0 0 0 0 127 0" result="hardAlpha"/>
<feOffset dy="3"/>
<feGaussianBlur stdDeviation="3"/>
<feComposite in2="hardAlpha" operator="out"/>
<feColorMatrix type="matrix" values="0 0 0 0 0 0 0 0 0 0 0 0 0 0 0 0 0 0 0.25 0"/>
<feBlend mode="normal" in2="BackgroundImageFix" result="effect1_dropShadow_5713_2493"/>
<feBlend mode="normal" in="SourceGraphic" in2="effect1_dropShadow_5713_2493" result="shape"/>
</filter>
</defs>
</svg>
