<svg width="90" height="91" viewBox="0 0 90 91" fill="none" xmlns="http://www.w3.org/2000/svg">
<mask id="path-1-outside-1_5713_2491" maskUnits="userSpaceOnUse" x="34.2317" y="31.8999" width="56" height="59" fill="black">
<rect fill="white" x="34.2317" y="31.8999" width="56" height="59"/>
<path d="M64.5773 47.1219C64.0414 46.8999 63.3608 46.8999 61.9998 46.8999C60.6388 46.8999 59.9583 46.8999 59.4224 47.1219C59.0678 47.2687 58.7456 47.4839 58.4742 47.7552C58.2029 48.0266 57.9876 48.3488 57.8408 48.7034C57.7065 49.029 57.6525 49.4102 57.632 49.9636C57.6229 50.3638 57.5123 50.755 57.3105 51.1006C57.1087 51.4462 56.8223 51.7349 56.4784 51.9395C56.1292 52.1352 55.736 52.239 55.3357 52.241C54.9354 52.2431 54.5412 52.1433 54.1901 51.9511C53.6994 51.6912 53.3445 51.5481 52.9926 51.5014C52.2249 51.4004 51.4486 51.6084 50.8342 52.0796C50.3757 52.4345 50.034 53.023 49.3535 54.2015C48.673 55.38 48.3313 55.9685 48.2568 56.5453C48.2066 56.9256 48.2318 57.3121 48.3311 57.6827C48.4303 58.0533 48.6016 58.4007 48.8351 58.7051C49.0512 58.9855 49.3535 59.2206 49.8222 59.5156C50.513 59.9493 50.9569 60.6882 50.9569 61.5031C50.9569 62.3179 50.513 63.0569 49.8222 63.4891C49.3535 63.7856 49.0497 64.0207 48.8351 64.301C48.6016 64.6054 48.4303 64.9528 48.3311 65.3234C48.2318 65.694 48.2066 66.0805 48.2568 66.4609C48.3327 67.0362 48.673 67.6262 49.352 68.8047C50.034 69.9831 50.3742 70.5716 50.8342 70.9265C51.1386 71.16 51.486 71.3313 51.8566 71.4305C52.2272 71.5297 52.6137 71.555 52.9941 71.5048C53.3445 71.4581 53.6994 71.3149 54.1901 71.055C54.5412 70.8628 54.9354 70.7631 55.3357 70.7651C55.736 70.7672 56.1292 70.871 56.4784 71.0667C57.1837 71.4756 57.6028 72.2276 57.632 73.0425C57.6525 73.5974 57.705 73.9771 57.8408 74.3028C57.9876 74.6574 58.2029 74.9795 58.4742 75.2509C58.7456 75.5223 59.0678 75.7375 59.4224 75.8843C59.9583 76.1062 60.6388 76.1063 61.9998 76.1063C63.3608 76.1063 64.0414 76.1062 64.5773 75.8843C64.9319 75.7375 65.2541 75.5223 65.5254 75.2509C65.7968 74.9795 66.012 74.6574 66.1588 74.3028C66.2932 73.9771 66.3472 73.5974 66.3676 73.0425C66.3968 72.2276 66.816 71.4741 67.5213 71.0667C67.8705 70.871 68.2637 70.7672 68.6639 70.7651C69.0642 70.7631 69.4585 70.8628 69.8096 71.055C70.3003 71.3149 70.6551 71.4581 71.0056 71.5048C71.386 71.555 71.7725 71.5297 72.143 71.4305C72.5136 71.3313 72.861 71.16 73.1654 70.9265C73.6254 70.5731 73.9657 69.9831 74.6462 68.8047C75.3267 67.6262 75.6684 67.0377 75.7429 66.4609C75.7931 66.0805 75.7678 65.694 75.6686 65.3234C75.5694 64.9528 75.3981 64.6054 75.1646 64.301C74.9485 64.0207 74.6462 63.7856 74.1774 63.4906C73.8353 63.2826 73.5517 62.9911 73.3532 62.6435C73.1547 62.2958 73.0479 61.9034 73.0428 61.5031C73.0428 60.6882 73.4867 59.9493 74.1774 59.517C74.6462 59.2206 74.9499 58.9855 75.1646 58.7051C75.3981 58.4007 75.5694 58.0533 75.6686 57.6827C75.7678 57.3121 75.7931 56.9256 75.7429 56.5453C75.6669 55.9699 75.3267 55.38 74.6476 54.2015C73.9657 53.023 73.6254 52.4345 73.1654 52.0796C72.861 51.8461 72.5136 51.6749 72.143 51.5756C71.7725 51.4764 71.386 51.4512 71.0056 51.5014C70.6551 51.5481 70.3003 51.6912 69.8081 51.9511C69.4572 52.143 69.0632 52.2427 68.6632 52.2406C68.2632 52.2386 67.8703 52.1349 67.5213 51.9395C67.1773 51.7349 66.891 51.4462 66.6892 51.1006C66.4874 50.755 66.3767 50.3638 66.3676 49.9636C66.3472 49.4087 66.2946 49.029 66.1588 48.7034C66.012 48.3488 65.7968 48.0266 65.5254 47.7552C65.2541 47.4839 64.9319 47.2687 64.5773 47.1219Z"/>
</mask>
<path d="M64.5773 47.1219C64.0414 46.8999 63.3608 46.8999 61.9998 46.8999C60.6388 46.8999 59.9583 46.8999 59.4224 47.1219C59.0678 47.2687 58.7456 47.4839 58.4742 47.7552C58.2029 48.0266 57.9876 48.3488 57.8408 48.7034C57.7065 49.029 57.6525 49.4102 57.632 49.9636C57.6229 50.3638 57.5123 50.755 57.3105 51.1006C57.1087 51.4462 56.8223 51.7349 56.4784 51.9395C56.1292 52.1352 55.736 52.239 55.3357 52.241C54.9354 52.2431 54.5412 52.1433 54.1901 51.9511C53.6994 51.6912 53.3445 51.5481 52.9926 51.5014C52.2249 51.4004 51.4486 51.6084 50.8342 52.0796C50.3757 52.4345 50.034 53.023 49.3535 54.2015C48.673 55.38 48.3313 55.9685 48.2568 56.5453C48.2066 56.9256 48.2318 57.3121 48.3311 57.6827C48.4303 58.0533 48.6016 58.4007 48.8351 58.7051C49.0512 58.9855 49.3535 59.2206 49.8222 59.5156C50.513 59.9493 50.9569 60.6882 50.9569 61.5031C50.9569 62.3179 50.513 63.0569 49.8222 63.4891C49.3535 63.7856 49.0497 64.0207 48.8351 64.301C48.6016 64.6054 48.4303 64.9528 48.3311 65.3234C48.2318 65.694 48.2066 66.0805 48.2568 66.4609C48.3327 67.0362 48.673 67.6262 49.352 68.8047C50.034 69.9831 50.3742 70.5716 50.8342 70.9265C51.1386 71.16 51.486 71.3313 51.8566 71.4305C52.2272 71.5297 52.6137 71.555 52.9941 71.5048C53.3445 71.4581 53.6994 71.3149 54.1901 71.055C54.5412 70.8628 54.9354 70.7631 55.3357 70.7651C55.736 70.7672 56.1292 70.871 56.4784 71.0667C57.1837 71.4756 57.6028 72.2276 57.632 73.0425C57.6525 73.5974 57.705 73.9771 57.8408 74.3028C57.9876 74.6574 58.2029 74.9795 58.4742 75.2509C58.7456 75.5223 59.0678 75.7375 59.4224 75.8843C59.9583 76.1062 60.6388 76.1063 61.9998 76.1063C63.3608 76.1063 64.0414 76.1062 64.5773 75.8843C64.9319 75.7375 65.2541 75.5223 65.5254 75.2509C65.7968 74.9795 66.012 74.6574 66.1588 74.3028C66.2932 73.9771 66.3472 73.5974 66.3676 73.0425C66.3968 72.2276 66.816 71.4741 67.5213 71.0667C67.8705 70.871 68.2637 70.7672 68.6639 70.7651C69.0642 70.7631 69.4585 70.8628 69.8096 71.055C70.3003 71.3149 70.6551 71.4581 71.0056 71.5048C71.386 71.555 71.7725 71.5297 72.143 71.4305C72.5136 71.3313 72.861 71.16 73.1654 70.9265C73.6254 70.5731 73.9657 69.9831 74.6462 68.8047C75.3267 67.6262 75.6684 67.0377 75.7429 66.4609C75.7931 66.0805 75.7678 65.694 75.6686 65.3234C75.5694 64.9528 75.3981 64.6054 75.1646 64.301C74.9485 64.0207 74.6462 63.7856 74.1774 63.4906C73.8353 63.2826 73.5517 62.9911 73.3532 62.6435C73.1547 62.2958 73.0479 61.9034 73.0428 61.5031C73.0428 60.6882 73.4867 59.9493 74.1774 59.517C74.6462 59.2206 74.9499 58.9855 75.1646 58.7051C75.3981 58.4007 75.5694 58.0533 75.6686 57.6827C75.7678 57.3121 75.7931 56.9256 75.7429 56.5453C75.6669 55.9699 75.3267 55.38 74.6476 54.2015C73.9657 53.023 73.6254 52.4345 73.1654 52.0796C72.861 51.8461 72.5136 51.6749 72.143 51.5756C71.7725 51.4764 71.386 51.4512 71.0056 51.5014C70.6551 51.5481 70.3003 51.6912 69.8081 51.9511C69.4572 52.143 69.0632 52.2427 68.6632 52.2406C68.2632 52.2386 67.8703 52.1349 67.5213 51.9395C67.1773 51.7349 66.891 51.4462 66.6892 51.1006C66.4874 50.755 66.3767 50.3638 66.3676 49.9636C66.3472 49.4087 66.2946 49.029 66.1588 48.7034C66.012 48.3488 65.7968 48.0266 65.5254 47.7552C65.2541 47.4839 64.9319 47.2687 64.5773 47.1219Z" fill="white"/>
<path d="M64.5773 47.1219L59.2202 60.0564L59.2227 60.0574L64.5773 47.1219ZM59.4224 47.1219L64.7769 60.0574L64.7794 60.0564L59.4224 47.1219ZM57.8408 48.7034L44.9053 43.3488L44.9021 43.3565L44.899 43.3641L57.8408 48.7034ZM57.632 49.9636L43.6416 49.4469L43.6379 49.5461L43.6356 49.6453L57.632 49.9636ZM56.4784 51.9395L63.3244 64.1514L63.4808 64.0637L63.6349 63.9721L56.4784 51.9395ZM54.1901 51.9511L60.9111 39.6699L60.8278 39.6244L60.7439 39.5799L54.1901 51.9511ZM52.9926 51.5014L54.8353 37.6232L54.8266 37.622L54.8179 37.6209L52.9926 51.5014ZM50.8342 52.0796L42.3136 40.9712L42.2897 40.9895L42.266 41.0079L50.8342 52.0796ZM48.2568 56.5453L62.1365 58.3766L62.139 58.3573L62.1415 58.338L48.2568 56.5453ZM48.8351 58.7051L37.7274 67.2268L37.7371 67.2395L37.7469 67.2522L48.8351 58.7051ZM49.8222 59.5156L42.3658 71.3647L42.3775 71.372L49.8222 59.5156ZM49.8222 63.4891L42.3955 51.6214L42.3674 51.6389L42.3394 51.6566L49.8222 63.4891ZM48.8351 64.301L59.9428 72.8227L59.9511 72.8118L48.8351 64.301ZM48.2568 66.4609L34.3771 68.2922L34.3771 68.2927L48.2568 66.4609ZM49.352 68.8047L37.2217 75.7943L37.2282 75.8055L37.2347 75.8168L49.352 68.8047ZM50.8342 70.9265L42.283 82.0115L42.2978 82.0229L42.3126 82.0342L50.8342 70.9265ZM52.9941 71.5048L54.8254 85.3845L54.8349 85.3832L54.8443 85.382L52.9941 71.5048ZM54.1901 71.055L60.7439 83.4263L60.8278 83.3818L60.9111 83.3362L54.1901 71.055ZM56.4784 71.0667L63.4998 58.9547L63.4125 58.9041L63.3244 58.8548L56.4784 71.0667ZM57.632 73.0425L43.641 73.544L43.6415 73.5579L57.632 73.0425ZM57.8408 74.3028L70.7764 68.9482L70.7693 68.9311L70.7622 68.914L57.8408 74.3028ZM59.4224 75.8843L64.7794 62.9498L64.7769 62.9487L59.4224 75.8843ZM64.5773 75.8843L59.2227 62.9487L59.2202 62.9498L64.5773 75.8843ZM66.1588 74.3028L79.0944 79.6573L79.0975 79.6497L79.1007 79.642L66.1588 74.3028ZM66.3676 73.0425L80.3582 73.5579L80.3587 73.544L66.3676 73.0425ZM67.5213 71.0667L60.6752 58.8548L60.5967 58.8988L60.5187 58.9439L67.5213 71.0667ZM69.8096 71.055L63.0886 83.3362L63.1719 83.3818L63.2558 83.4263L69.8096 71.055ZM71.0056 71.5048L69.1553 85.382L69.1648 85.3832L69.1743 85.3845L71.0056 71.5048ZM73.1654 70.9265L81.6871 82.0342L81.6946 82.0285L73.1654 70.9265ZM75.7429 66.4609L61.8632 64.6295L61.8606 64.6488L61.8581 64.6681L75.7429 66.4609ZM75.1646 64.301L86.2723 55.7794L86.2625 55.7666L86.2527 55.7539L75.1646 64.301ZM74.1774 63.4906L81.6339 51.6415L81.5419 51.5836L81.449 51.5271L74.1774 63.4906ZM73.0428 61.5031H59.0428V61.593L59.0439 61.683L73.0428 61.5031ZM74.1774 59.517L81.6042 71.3848L81.6323 71.3672L81.6603 71.3495L74.1774 59.517ZM75.1646 58.7051L64.0569 50.1834L64.0485 50.1944L75.1646 58.7051ZM75.7429 56.5453L89.6226 54.714L89.6225 54.7135L75.7429 56.5453ZM74.6476 54.2015L86.778 47.2119L86.7715 47.2006L86.765 47.1893L74.6476 54.2015ZM73.1654 52.0796L81.7167 40.9947L81.7019 40.9833L81.6871 40.9719L73.1654 52.0796ZM71.0056 51.5014L69.1743 37.6217L69.1648 37.6229L69.1553 37.6242L71.0056 51.5014ZM69.8081 51.9511L63.2695 39.5719L63.1802 39.6191L63.0915 39.6675L69.8081 51.9511ZM67.5213 51.9395L60.3647 63.9721L60.5209 64.065L60.6795 64.1538L67.5213 51.9395ZM66.3676 49.9636L80.364 49.6453L80.3618 49.5467L80.3582 49.4482L66.3676 49.9636ZM66.1588 48.7034L53.2233 54.058L53.2303 54.075L53.2375 54.0921L66.1588 48.7034ZM69.9344 34.1874C67.6744 33.2513 65.6674 33.0362 64.5496 32.96C63.5561 32.8923 62.489 32.8999 61.9998 32.8999V60.8999C62.3668 60.8999 62.5645 60.9002 62.7172 60.9022C62.8696 60.9042 62.8105 60.9065 62.6463 60.8953C62.3431 60.8746 60.9443 60.7704 59.2202 60.0564L69.9344 34.1874ZM61.9998 32.8999C61.5107 32.8999 60.4436 32.8923 59.4501 32.96C58.3323 33.0362 56.3253 33.2513 54.0653 34.1874L64.7794 60.0564C63.0554 60.7704 61.6566 60.8746 61.3533 60.8953C61.1891 60.9065 61.13 60.9042 61.2825 60.9022C61.4351 60.9002 61.6329 60.8999 61.9998 60.8999V32.8999ZM54.0678 34.1863C52.0135 35.0367 50.1469 36.2836 48.5747 37.8557L68.3737 57.6547C67.3443 58.6842 66.1221 59.5006 64.7769 60.0574L54.0678 34.1863ZM48.5747 37.8557C47.0026 39.4279 45.7557 41.2945 44.9053 43.3488L70.7764 54.058C70.2196 55.4031 69.4032 56.6253 68.3737 57.6547L48.5747 37.8557ZM44.899 43.3641C43.7943 46.0419 43.6785 48.4459 43.6416 49.4469L71.6225 50.4804C71.622 50.4933 71.6101 50.8844 71.5176 51.4619C71.4163 52.0942 71.2117 53.003 70.7827 54.0426L44.899 43.3641ZM43.6356 49.6453C43.6805 47.6732 44.2258 45.7449 45.2205 44.0414L69.4005 58.1598C70.7987 55.7651 71.5654 53.0543 71.6284 50.282L43.6356 49.6453ZM45.2205 44.0414C46.2151 42.3379 47.6264 40.9152 49.3218 39.9068L63.6349 63.9721C66.0183 62.5545 68.0022 60.5545 69.4005 58.1598L45.2205 44.0414ZM49.6323 39.7275C51.3533 38.7627 53.2913 38.2513 55.2642 38.2412L55.4072 66.2408C58.1807 66.2267 60.9051 65.5077 63.3244 64.1514L49.6323 39.7275ZM55.2642 38.2412C57.2372 38.2311 59.1803 38.7228 60.9111 39.6699L47.469 64.2323C49.9021 65.5639 52.6337 66.255 55.4072 66.2408L55.2642 38.2412ZM60.7439 39.5799C59.8526 39.1078 57.7129 38.0053 54.8353 37.6232L51.1498 65.3796C50.0435 65.2327 49.1541 64.9578 48.5441 64.7248C47.9916 64.5138 47.6431 64.326 47.6362 64.3224L60.7439 39.5799ZM54.8179 37.6209C50.3705 37.036 45.8729 38.2411 42.3136 40.9712L59.3549 63.1881C57.0243 64.9758 54.0793 65.7648 51.1672 65.3819L54.8179 37.6209ZM42.266 41.0079C40.358 42.4844 39.1826 44.0928 38.5593 45.0197C38.0039 45.8458 37.4797 46.7676 37.2296 47.2006L61.4773 61.2024C61.6588 60.8881 61.758 60.717 61.835 60.5878C61.9121 60.4583 61.8854 60.5091 61.7949 60.6437C61.6272 60.893 60.8519 62.0298 59.4025 63.1514L42.266 41.0079ZM37.2296 47.2006C36.9903 47.6151 36.4469 48.5399 36.0087 49.4333C35.5137 50.4425 34.6882 52.304 34.372 54.7526L62.1415 58.338C61.8999 60.2098 61.2825 61.4886 61.1471 61.7647C61.0739 61.9138 61.0418 61.9648 61.1173 61.8302C61.1931 61.6948 61.2918 61.5236 61.4773 61.2024L37.2296 47.2006ZM34.3771 54.714C34.0863 56.9175 34.2326 59.1567 34.8074 61.3037L61.8547 54.0618C62.2311 55.4676 62.3269 56.9338 62.1365 58.3766L34.3771 54.714ZM34.8074 61.3037C35.3823 63.4507 36.3745 65.4633 37.7274 67.2268L59.9428 50.1834C60.8286 51.3381 61.4783 52.656 61.8547 54.0618L34.8074 61.3037ZM37.7469 67.2522C39.52 69.5525 41.5525 70.8529 42.3658 71.3647L57.2787 47.6665C57.2914 47.6745 57.3716 47.7251 57.4943 47.8104C57.6178 47.8963 57.8131 48.0373 58.0515 48.2306C58.5485 48.6336 59.2353 49.2656 59.9232 50.158L37.7469 67.2522ZM42.3775 71.372C39.3528 69.4728 36.9569 65.9193 36.9569 61.5031H64.9569C64.9569 55.4572 61.6732 50.4258 57.267 47.6591L42.3775 71.372ZM36.9569 61.5031C36.9569 57.09 39.3511 53.5265 42.3955 51.6214L57.249 75.3569C61.6748 72.5872 64.9569 67.5459 64.9569 61.5031H36.9569ZM42.3394 51.6566C41.5777 52.1384 39.5078 53.4539 37.719 55.7903L59.9511 72.8118C59.2465 73.7322 58.5443 74.3752 58.0524 74.7742C57.8153 74.9665 57.6226 75.1056 57.5041 75.1882C57.3863 75.2702 57.3113 75.3176 57.3051 75.3216L42.3394 51.6566ZM37.7274 55.7794C36.3745 57.5428 35.3823 59.5555 34.8074 61.7025L61.8547 68.9444C61.4783 70.3502 60.8286 71.668 59.9428 72.8227L37.7274 55.7794ZM34.8074 61.7025C34.2326 63.8495 34.0863 66.0887 34.3771 68.2922L62.1365 64.6295C62.3269 66.0723 62.2311 67.5385 61.8547 68.9444L34.8074 61.7025ZM34.3771 68.2927C34.6966 70.7135 35.5119 72.5562 36.0029 73.5597C36.4395 74.452 36.9781 75.3715 37.2217 75.7943L61.4824 61.8151C61.299 61.4968 61.2004 61.3252 61.1255 61.1913C61.0508 61.0577 61.0818 61.1069 61.1536 61.2535C61.2857 61.5236 61.8929 62.7836 62.1364 64.629L34.3771 68.2927ZM37.2347 75.8168C37.4798 76.2404 38.0058 77.1643 38.5586 77.9864C39.1815 78.9129 40.3623 80.5298 42.283 82.0115L59.3855 59.8416C60.8462 60.9684 61.6268 62.1136 61.7942 62.3625C61.8843 62.4965 61.9107 62.5468 61.832 62.4148C61.7531 62.2825 61.6534 62.1106 61.4694 61.7925L37.2347 75.8168ZM42.3126 82.0342C44.076 83.3871 46.0886 84.3793 48.2357 84.9542L55.4776 57.9069C56.8834 58.2833 58.2013 58.933 59.3559 59.8188L42.3126 82.0342ZM48.2357 84.9542C50.3827 85.529 52.6219 85.6752 54.8254 85.3845L51.1627 57.6251C52.6056 57.4347 54.0718 57.5305 55.4776 57.9069L48.2357 84.9542ZM54.8443 85.382C57.718 84.9988 59.856 83.8966 60.7439 83.4263L47.6362 58.6838C47.6433 58.6801 47.9901 58.4932 48.5402 58.2829C49.1465 58.0511 50.0355 57.7754 51.1438 57.6276L54.8443 85.382ZM60.9111 83.3362C59.1804 84.2834 57.2372 84.775 55.2642 84.765L55.4072 56.7653C52.6336 56.7512 49.9021 57.4423 47.469 58.7738L60.9111 83.3362ZM55.2642 84.765C53.2913 84.7549 51.3533 84.2434 49.6323 83.2786L63.3244 58.8548C60.9051 57.4985 58.1807 56.7795 55.4072 56.7653L55.2642 84.765ZM49.4569 83.1787C45.6773 80.9876 43.7706 77.1585 43.641 73.544L71.623 72.541C71.4351 67.2968 68.6901 61.9636 63.4998 58.9547L49.4569 83.1787ZM43.6415 73.5579C43.6768 74.5157 43.7834 76.9674 44.9195 79.6915L70.7622 68.914C71.2067 69.9799 71.4161 70.9117 71.5186 71.5549C71.5679 71.8639 71.5927 72.1083 71.6055 72.2613C71.6182 72.4133 71.6219 72.5105 71.6225 72.5271L43.6415 73.5579ZM44.9053 79.6573C45.7557 81.7116 47.0025 83.5782 48.5747 85.1504L68.3737 65.3514C69.4032 66.3809 70.2196 67.6031 70.7764 68.9482L44.9053 79.6573ZM48.5747 85.1504C50.1469 86.7226 52.0135 87.9695 54.0678 88.8198L64.7769 62.9487C66.1221 63.5055 67.3443 64.322 68.3737 65.3514L48.5747 85.1504ZM54.0653 88.8188C56.3253 89.7548 58.3323 89.97 59.4501 90.0461C60.4436 90.1138 61.5107 90.1063 61.9998 90.1063V62.1063C61.6329 62.1063 61.4351 62.106 61.2825 62.104C61.13 62.102 61.1892 62.0997 61.3533 62.1109C61.6566 62.1315 63.0554 62.2357 64.7794 62.9498L54.0653 88.8188ZM61.9998 90.1063C62.489 90.1063 63.5561 90.1138 64.5496 90.0461C65.6674 89.97 67.6744 89.7548 69.9344 88.8188L59.2202 62.9498C60.9442 62.2357 62.343 62.1315 62.6463 62.1109C62.8105 62.0997 62.8696 62.102 62.7172 62.104C62.5645 62.106 62.3668 62.1063 61.9998 62.1063V90.1063ZM69.9319 88.8198C71.9862 87.9695 73.8528 86.7226 75.4249 85.1504L55.6259 65.3514C56.6554 64.322 57.8776 63.5055 59.2227 62.9487L69.9319 88.8198ZM75.4249 85.1504C76.9971 83.5782 78.244 81.7116 79.0944 79.6573L53.2233 68.9482C53.7801 67.6031 54.5965 66.3809 55.6259 65.3514L75.4249 85.1504ZM79.1007 79.642C80.2047 76.9661 80.321 74.5655 80.3582 73.5579L52.3771 72.5271C52.3776 72.5153 52.3895 72.1226 52.4824 71.5429C52.5845 70.9059 52.7899 69.9987 53.2169 68.9635L79.1007 79.642ZM80.3587 73.544C80.2296 77.1439 78.3324 80.9896 74.5239 83.1895L60.5187 58.9439C55.2995 61.9586 52.5641 67.3114 52.3766 72.541L80.3587 73.544ZM74.3674 83.2786C72.6464 84.2434 70.7084 84.7549 68.7354 84.765L68.5925 56.7653C65.8189 56.7795 63.0945 57.4985 60.6752 58.8548L74.3674 83.2786ZM68.7354 84.765C66.7624 84.775 64.8193 84.2834 63.0886 83.3362L76.5306 58.7738C74.0976 57.4423 71.366 56.7512 68.5925 56.7653L68.7354 84.765ZM63.2558 83.4263C64.1436 83.8966 66.2816 84.9988 69.1553 85.382L72.8559 57.6276C73.9641 57.7754 74.8531 58.0511 75.4595 58.2829C76.0096 58.4932 76.3564 58.6801 76.3634 58.6838L63.2558 83.4263ZM69.1743 85.3845C71.3778 85.6752 73.617 85.529 75.764 84.9542L68.5221 57.9069C69.9279 57.5305 71.3941 57.4347 72.8369 57.6251L69.1743 85.3845ZM75.764 84.9542C77.911 84.3793 79.9237 83.387 81.6871 82.0342L64.6437 59.8188C65.7984 58.933 67.1162 58.2833 68.5221 57.9069L75.764 84.9542ZM81.6946 82.0285C83.6342 80.5383 84.8229 78.9073 85.4457 77.9798C85.9996 77.1549 86.5262 76.2277 86.77 75.8055L62.5223 61.8038C62.3385 62.1222 62.2392 62.2937 62.1607 62.4257C62.0823 62.5575 62.1094 62.5059 62.2005 62.3702C62.3681 62.1207 63.1566 60.9613 64.6363 59.8245L81.6946 82.0285ZM86.77 75.8055C87.0094 75.3911 87.5527 74.4662 87.991 73.5728C88.486 72.5636 89.3115 70.7022 89.6276 68.2536L61.8581 64.6681C62.0998 62.7964 62.7172 61.5176 62.8526 61.2415C62.9257 61.0924 62.9579 61.0414 62.8824 61.176C62.8065 61.3114 62.7078 61.4825 62.5223 61.8038L86.77 75.8055ZM89.6226 68.2922C89.9133 66.0888 89.7671 63.8496 89.1922 61.7025L62.145 68.9444C61.7685 67.5385 61.6728 66.0723 61.8632 64.6295L89.6226 68.2922ZM89.1922 61.7025C88.6174 59.5554 87.6251 57.5427 86.2723 55.7794L64.0569 72.8227C63.1711 71.6681 62.5214 70.3502 62.145 68.9444L89.1922 61.7025ZM86.2527 55.7539C84.4796 53.4537 82.4472 52.1533 81.6339 51.6415L66.721 75.3397C66.7082 75.3317 66.628 75.2811 66.5054 75.1958C66.3818 75.1098 66.1865 74.9689 65.9481 74.7755C65.4511 74.3725 64.7644 73.7406 64.0764 72.8482L86.2527 55.7539ZM81.449 51.5271C83.1351 52.552 84.533 53.9887 85.5114 55.7023L61.1951 69.5846C62.5703 71.9936 64.5355 74.0133 66.9058 75.454L81.449 51.5271ZM85.5114 55.7023C86.4897 57.416 87.0162 59.3502 87.0416 61.3232L59.0439 61.683C59.0796 64.4566 59.8198 67.1756 61.1951 69.5846L85.5114 55.7023ZM87.0428 61.5031C87.0428 65.9162 84.6485 69.4796 81.6042 71.3848L66.7507 47.6493C62.3248 50.419 59.0428 55.4603 59.0428 61.5031H87.0428ZM81.6603 71.3495C82.422 70.8678 84.4919 69.5522 86.2807 67.2159L64.0485 50.1944C64.7532 49.274 65.4553 48.631 65.9472 48.232C66.1843 48.0397 66.3771 47.9005 66.4956 47.818C66.6133 47.7359 66.6883 47.6885 66.6946 47.6846L81.6603 71.3495ZM86.2723 67.2268C87.6251 65.4634 88.6174 63.4507 89.1922 61.3037L62.145 54.0618C62.5214 52.6559 63.1711 51.338 64.0569 50.1834L86.2723 67.2268ZM89.1922 61.3037C89.7671 59.1566 89.9133 56.9174 89.6226 54.714L61.8632 58.3766C61.6728 56.9339 61.7685 55.4677 62.145 54.0618L89.1922 61.3037ZM89.6225 54.7135C89.303 52.2927 88.4878 50.45 87.9968 49.4465C87.5602 48.5541 87.0216 47.6346 86.778 47.2119L62.5173 61.1911C62.7007 61.5093 62.7993 61.681 62.8741 61.8149C62.9488 61.9485 62.9178 61.8993 62.8461 61.7527C62.7139 61.4826 62.1068 60.2225 61.8632 58.3771L89.6225 54.7135ZM86.765 47.1893C86.5199 46.7658 85.9939 45.8418 85.4411 45.0197C84.8181 44.0933 83.6374 42.4764 81.7167 40.9947L64.6142 63.1646C63.1534 62.0378 62.3728 60.8925 62.2055 60.6437C62.1153 60.5096 62.0889 60.4593 62.1676 60.5914C62.2465 60.7237 62.3462 60.8955 62.5303 61.2136L86.765 47.1893ZM81.6871 40.9719C79.9237 39.6191 77.911 38.6269 75.764 38.052L68.5221 65.0993C67.1163 64.7229 65.7984 64.0732 64.6437 63.1874L81.6871 40.9719ZM75.764 38.052C73.617 37.4772 71.3778 37.3309 69.1743 37.6217L72.8369 65.3811C71.3941 65.5714 69.9279 65.4757 68.5221 65.0993L75.764 38.052ZM69.1553 37.6242C66.2841 38.007 64.147 39.1084 63.2695 39.5719L76.3468 64.3304C76.345 64.3313 76.0015 64.5162 75.4552 64.7248C74.8521 64.9552 73.9642 65.2308 72.8559 65.3786L69.1553 37.6242ZM63.0915 39.6675C64.8214 38.7217 66.7632 38.2307 68.7347 38.2408L68.5917 66.2404C71.3633 66.2546 74.093 65.5644 76.5248 64.2347L63.0915 39.6675ZM68.7347 38.2408C70.7063 38.2509 72.643 38.7616 74.3631 39.7251L60.6795 64.1538C63.0976 65.5083 65.8201 66.2263 68.5917 66.2404L68.7347 38.2408ZM74.6778 39.9068C76.3732 40.9152 77.7845 42.3379 78.7792 44.0414L54.5992 58.1598C55.9974 60.5545 57.9814 62.5545 60.3647 63.9721L74.6778 39.9068ZM78.7792 44.0414C79.7738 45.7449 80.3192 47.6732 80.364 49.6453L52.3713 50.282C52.4343 53.0543 53.201 55.7651 54.5992 58.1598L78.7792 44.0414ZM80.3582 49.4482C80.3229 48.4904 80.2162 46.0388 79.0802 43.3147L53.2375 54.0921C52.793 53.0263 52.5835 52.0944 52.481 51.4513C52.4318 51.1423 52.407 50.8979 52.3942 50.7449C52.3815 50.5928 52.3777 50.4956 52.3771 50.4791L80.3582 49.4482ZM79.0944 43.3488C78.244 41.2945 76.9971 39.4279 75.4249 37.8557L55.6259 57.6547C54.5965 56.6253 53.7801 55.4031 53.2233 54.058L79.0944 43.3488ZM75.4249 37.8557C73.8528 36.2836 71.9862 35.0367 69.9319 34.1863L59.2227 60.0574C57.8776 59.5006 56.6554 58.6842 55.6259 57.6547L75.4249 37.8557Z" fill="white" mask="url(#path-1-outside-1_5713_2491)"/>
<path d="M40 48.0073C40 48.0073 35.4605 47.9 32.028 48.5072C25.2599 49.7044 19.1731 55.2508 15.6153 61.5038C13.8252 64.6499 13.7986 68.2139 14.2325 71.0207C14.7141 74.1362 17.6441 76 20.7966 76H40" stroke="white" stroke-width="28"/>
<circle cx="45" cy="26" r="20" fill="white" stroke="white" stroke-width="12"/>
<path d="M27 84C27 87.3137 29.6863 90 33 90H49.9107C54.1397 90 57.0416 85.7422 55.4952 81.8061C54.5932 79.51 52.3777 78 49.9107 78H33C29.6863 78 27 80.6863 27 84Z" fill="white"/>
<circle cx="45" cy="26" r="12" stroke="#9226FF" stroke-width="4"/>
<path d="M62.0001 65.882C64.4196 65.882 66.381 63.9206 66.381 61.5011C66.381 59.0815 64.4196 57.1201 62.0001 57.1201C59.5806 57.1201 57.6191 59.0815 57.6191 61.5011C57.6191 63.9206 59.5806 65.882 62.0001 65.882Z" stroke="#9226FF" stroke-width="4"/>
<path d="M64.5773 47.1219C64.0414 46.8999 63.3608 46.8999 61.9998 46.8999C60.6388 46.8999 59.9583 46.8999 59.4224 47.1219C59.0678 47.2687 58.7456 47.4839 58.4742 47.7552C58.2029 48.0266 57.9876 48.3488 57.8408 48.7034C57.7065 49.029 57.6525 49.4102 57.632 49.9636C57.6229 50.3638 57.5123 50.755 57.3105 51.1006C57.1087 51.4462 56.8223 51.7349 56.4784 51.9395C56.1292 52.1352 55.736 52.239 55.3357 52.241C54.9354 52.2431 54.5412 52.1433 54.1901 51.9511C53.6994 51.6912 53.3445 51.5481 52.9926 51.5014C52.2249 51.4004 51.4486 51.6084 50.8342 52.0796C50.3757 52.4345 50.034 53.023 49.3535 54.2015C48.673 55.38 48.3313 55.9685 48.2568 56.5453C48.2066 56.9256 48.2318 57.3121 48.3311 57.6827C48.4303 58.0533 48.6016 58.4007 48.8351 58.7051C49.0512 58.9855 49.3535 59.2206 49.8222 59.5156C50.513 59.9493 50.9569 60.6882 50.9569 61.5031C50.9569 62.3179 50.513 63.0569 49.8222 63.4891C49.3535 63.7856 49.0497 64.0207 48.8351 64.301C48.6016 64.6054 48.4303 64.9528 48.3311 65.3234C48.2318 65.694 48.2066 66.0805 48.2568 66.4609C48.3327 67.0362 48.673 67.6262 49.352 68.8047C50.034 69.9831 50.3742 70.5716 50.8342 70.9265C51.1386 71.16 51.486 71.3313 51.8566 71.4305C52.2272 71.5297 52.6137 71.555 52.9941 71.5048C53.3445 71.4581 53.6994 71.3149 54.1901 71.055C54.5412 70.8628 54.9354 70.7631 55.3357 70.7651C55.736 70.7672 56.1292 70.8709 56.4784 71.0667C57.1837 71.4756 57.6028 72.2276 57.632 73.0425C57.6525 73.5974 57.705 73.9771 57.8408 74.3028C57.9876 74.6574 58.2029 74.9795 58.4742 75.2509C58.7456 75.5223 59.0678 75.7375 59.4224 75.8843C59.9583 76.1062 60.6388 76.1063 61.9998 76.1063C63.3608 76.1063 64.0414 76.1062 64.5773 75.8843C64.9319 75.7375 65.2541 75.5223 65.5254 75.2509C65.7968 74.9795 66.012 74.6574 66.1588 74.3028C66.2932 73.9771 66.3472 73.5974 66.3676 73.0425C66.3968 72.2276 66.816 71.4741 67.5213 71.0667C67.8705 70.8709 68.2637 70.7672 68.6639 70.7651C69.0642 70.7631 69.4585 70.8628 69.8096 71.055C70.3003 71.3149 70.6551 71.4581 71.0056 71.5048C71.386 71.555 71.7725 71.5297 72.143 71.4305C72.5136 71.3313 72.861 71.16 73.1654 70.9265C73.6254 70.5731 73.9657 69.9831 74.6462 68.8047C75.3267 67.6262 75.6684 67.0377 75.7429 66.4609C75.7931 66.0805 75.7678 65.694 75.6686 65.3234C75.5694 64.9528 75.3981 64.6054 75.1646 64.301C74.9485 64.0207 74.6462 63.7856 74.1774 63.4906C73.8353 63.2826 73.5517 62.9911 73.3532 62.6435C73.1547 62.2958 73.0479 61.9034 73.0428 61.5031C73.0428 60.6882 73.4867 59.9493 74.1774 59.517C74.6462 59.2206 74.9499 58.9855 75.1646 58.7051C75.3981 58.4007 75.5694 58.0533 75.6686 57.6827C75.7678 57.3121 75.7931 56.9256 75.7429 56.5453C75.6669 55.9699 75.3267 55.38 74.6476 54.2015C73.9657 53.023 73.6254 52.4345 73.1654 52.0796C72.861 51.8461 72.5136 51.6749 72.143 51.5756C71.7725 51.4764 71.386 51.4512 71.0056 51.5014C70.6551 51.5481 70.3003 51.6912 69.8081 51.9511C69.4572 52.143 69.0632 52.2427 68.6632 52.2406C68.2632 52.2386 67.8703 52.1349 67.5213 51.9395C67.1773 51.7349 66.891 51.4462 66.6892 51.1006C66.4874 50.755 66.3767 50.3638 66.3676 49.9636C66.3472 49.4087 66.2946 49.029 66.1588 48.7034C66.012 48.3488 65.7968 48.0266 65.5254 47.7552C65.2541 47.4839 64.9319 47.2687 64.5773 47.1219Z" stroke="#9226FF" stroke-width="4"/>
<path d="M40 48.0073C40 48.0073 35.4605 47.9 32.028 48.5072C25.2599 49.7044 19.1731 55.2508 15.6153 61.5038C13.8252 64.6499 13.7986 68.2139 14.2325 71.0207C14.7141 74.1362 17.6441 76 20.7966 76H40" stroke="#9226FF" stroke-width="4"/>
<path d="M38 47C38 46.4477 38.4477 46 39 46H43C43.824 46 44.2944 46.9408 43.8 47.6L42.3 49.6C42.1111 49.8518 41.8148 50 41.5 50H39C38.4477 50 38 49.5523 38 49V47Z" fill="#9226FF"/>
<path d="M38 77C38 77.5523 38.4477 78 39 78H43C43.824 78 44.2944 77.0592 43.8 76.4L42.3 74.4C42.1111 74.1482 41.8148 74 41.5 74H39C38.4477 74 38 74.4477 38 75V77Z" fill="#9226FF"/>
</svg>
