<svg width="66" height="67" viewBox="0 0 66 67" fill="none" xmlns="http://www.w3.org/2000/svg">
<circle cx="33" cy="14" r="12" stroke="#9226FF" stroke-width="4"/>
<path d="M50.0001 53.882C52.4196 53.882 54.381 51.9206 54.381 49.5011C54.381 47.0815 52.4196 45.1201 50.0001 45.1201C47.5806 45.1201 45.6191 47.0815 45.6191 49.5011C45.6191 51.9206 47.5806 53.882 50.0001 53.882Z" stroke="#9226FF" stroke-width="4"/>
<path d="M52.5773 35.1219C52.0414 34.8999 51.3608 34.8999 49.9998 34.8999C48.6388 34.8999 47.9583 34.8999 47.4224 35.1219C47.0678 35.2687 46.7456 35.4839 46.4742 35.7552C46.2029 36.0266 45.9876 36.3488 45.8408 36.7034C45.7065 37.029 45.6525 37.4102 45.632 37.9636C45.6229 38.3638 45.5123 38.755 45.3105 39.1006C45.1087 39.4462 44.8223 39.7349 44.4784 39.9395C44.1292 40.1352 43.736 40.239 43.3357 40.241C42.9354 40.2431 42.5412 40.1433 42.1901 39.9511C41.6994 39.6912 41.3445 39.5481 40.9926 39.5014C40.2249 39.4004 39.4486 39.6084 38.8342 40.0796C38.3757 40.4345 38.034 41.023 37.3535 42.2015C36.673 43.38 36.3313 43.9685 36.2568 44.5453C36.2066 44.9256 36.2318 45.3121 36.3311 45.6827C36.4303 46.0533 36.6016 46.4007 36.8351 46.7051C37.0512 46.9855 37.3535 47.2206 37.8222 47.5156C38.513 47.9493 38.9569 48.6882 38.9569 49.5031C38.9569 50.3179 38.513 51.0569 37.8222 51.4891C37.3535 51.7856 37.0497 52.0207 36.8351 52.301C36.6016 52.6054 36.4303 52.9528 36.3311 53.3234C36.2318 53.694 36.2066 54.0805 36.2568 54.4609C36.3327 55.0362 36.673 55.6262 37.352 56.8047C38.034 57.9831 38.3742 58.5716 38.8342 58.9265C39.1386 59.16 39.486 59.3313 39.8566 59.4305C40.2272 59.5297 40.6137 59.555 40.9941 59.5048C41.3445 59.4581 41.6994 59.3149 42.1901 59.055C42.5412 58.8628 42.9354 58.7631 43.3357 58.7651C43.736 58.7672 44.1292 58.8709 44.4784 59.0667C45.1837 59.4756 45.6028 60.2276 45.632 61.0425C45.6525 61.5974 45.705 61.9771 45.8408 62.3028C45.9876 62.6574 46.2029 62.9795 46.4742 63.2509C46.7456 63.5223 47.0678 63.7375 47.4224 63.8843C47.9583 64.1062 48.6388 64.1063 49.9998 64.1063C51.3608 64.1063 52.0414 64.1062 52.5773 63.8843C52.9319 63.7375 53.2541 63.5223 53.5254 63.2509C53.7968 62.9795 54.012 62.6574 54.1588 62.3028C54.2932 61.9771 54.3472 61.5974 54.3676 61.0425C54.3968 60.2276 54.816 59.4741 55.5213 59.0667C55.8705 58.8709 56.2637 58.7672 56.6639 58.7651C57.0642 58.7631 57.4585 58.8628 57.8096 59.055C58.3003 59.3149 58.6551 59.4581 59.0056 59.5048C59.386 59.555 59.7725 59.5297 60.143 59.4305C60.5136 59.3313 60.861 59.16 61.1654 58.9265C61.6254 58.5731 61.9657 57.9831 62.6462 56.8047C63.3267 55.6262 63.6684 55.0377 63.7429 54.4609C63.7931 54.0805 63.7678 53.694 63.6686 53.3234C63.5694 52.9528 63.3981 52.6054 63.1646 52.301C62.9485 52.0207 62.6462 51.7856 62.1774 51.4906C61.8353 51.2826 61.5517 50.9911 61.3532 50.6435C61.1547 50.2958 61.0479 49.9034 61.0428 49.5031C61.0428 48.6882 61.4867 47.9493 62.1774 47.517C62.6462 47.2206 62.9499 46.9855 63.1646 46.7051C63.3981 46.4007 63.5694 46.0533 63.6686 45.6827C63.7678 45.3121 63.7931 44.9256 63.7429 44.5453C63.6669 43.9699 63.3267 43.38 62.6476 42.2015C61.9657 41.023 61.6254 40.4345 61.1654 40.0796C60.861 39.8461 60.5136 39.6749 60.143 39.5756C59.7725 39.4764 59.386 39.4512 59.0056 39.5014C58.6551 39.5481 58.3003 39.6912 57.8081 39.9511C57.4572 40.143 57.0632 40.2427 56.6632 40.2406C56.2632 40.2386 55.8703 40.1349 55.5213 39.9395C55.1773 39.7349 54.891 39.4462 54.6892 39.1006C54.4874 38.755 54.3767 38.3638 54.3676 37.9636C54.3472 37.4087 54.2946 37.029 54.1588 36.7034C54.012 36.3488 53.7968 36.0266 53.5254 35.7552C53.2541 35.4839 52.9319 35.2687 52.5773 35.1219Z" stroke="#9226FF" stroke-width="4"/>
<path d="M28 36.0073C28 36.0073 23.4605 35.9 20.028 36.5072C13.2599 37.7044 7.17308 43.2508 3.61526 49.5038C1.82516 52.6499 1.79857 56.2139 2.23249 59.0207C2.71415 62.1362 5.64407 64 8.79661 64H28" stroke="#9226FF" stroke-width="4"/>
<path d="M26 35C26 34.4477 26.4477 34 27 34H31C31.824 34 32.2944 34.9408 31.8 35.6L30.3 37.6C30.1111 37.8518 29.8148 38 29.5 38H27C26.4477 38 26 37.5523 26 37V35Z" fill="#9226FF"/>
<path d="M26 65C26 65.5523 26.4477 66 27 66H31C31.824 66 32.2944 65.0592 31.8 64.4L30.3 62.4C30.1111 62.1482 29.8148 62 29.5 62H27C26.4477 62 26 62.4477 26 63V65Z" fill="#9226FF"/>
</svg>
