<svg width="58" height="63" viewBox="0 0 58 63" fill="none" xmlns="http://www.w3.org/2000/svg">
<path d="M21.5772 52.0629L23.637 51.2372C23.8893 51.2685 24.1446 51.2845 24.4017 51.2845H33.5212C33.7602 51.2845 33.997 51.2708 34.2306 51.244L36.3249 52.0835L41.1225 54.0067L41.1593 54.0214L41.1964 54.0355C45.2185 55.559 49.6303 52.6374 49.6303 48.224V39.0217C49.6303 36.2624 48.2635 33.6795 45.938 32.141C45.9366 32.1401 45.9352 32.1392 45.9339 32.1383L43.6043 30.5921L42.3081 29.7318C41.5558 16.9145 35.9566 10.8064 32.609 8.38415C31.5485 7.60594 30.2671 7.18606 28.9511 7.18606C27.6351 7.18606 26.3537 7.60592 25.2932 8.3841C21.9475 10.8049 16.3526 16.9076 15.5954 29.7102L14.2978 30.5714L11.9611 32.1224L11.9434 32.1341L11.9259 32.146C9.64493 33.6938 8.27187 36.2517 8.27187 39.0217V48.224C8.27187 52.6288 12.6966 55.5946 16.7567 53.9952L16.7682 53.9906L16.7796 53.986L21.5772 52.0629Z" fill="#FFA030" stroke="white" stroke-width="8.27168"/>
<circle cx="28.9506" cy="28.1238" r="4.96301" fill="white"/>
</svg>
