<svg width="175" height="175" viewBox="0 0 175 175" fill="none" xmlns="http://www.w3.org/2000/svg">
<path fill-rule="evenodd" clip-rule="evenodd" d="M152.551 133.767C161.655 120.755 167 104.889 167 87.7666C167 43.5838 131.407 7.7666 87.5 7.7666C43.5934 7.7666 8 43.5838 8 87.7666C8 131.949 43.5934 167.767 87.5 167.767C103.556 167.767 118.501 162.977 131 154.739V133.767H152.551Z" fill="white"/>
<rect x="128" y="115.767" width="32" height="26" rx="8" fill="white"/>
<rect x="112" y="123.767" width="25" height="41" rx="8" fill="white"/>
<path d="M124.095 103.628C126.076 99.2037 127.29 94.3454 127.559 89.2132C128.727 66.9269 111.634 47.9149 89.3812 46.7487C67.1284 45.5825 48.1422 62.7037 46.9742 84.9899C45.8062 107.276 62.8988 126.288 85.1516 127.454C91.2656 127.775 97.1329 126.715 102.452 124.546" stroke="url(#paint0_linear_3537_32320)" stroke-width="12.1287" stroke-linecap="round"/>
<path d="M87.4277 111.215C100.8 111.215 111.641 100.374 111.641 87.0019C111.641 73.6295 100.8 62.7891 87.4277 62.7891C74.0553 62.7891 63.2148 73.6295 63.2148 87.0019" stroke="url(#paint1_linear_3537_32320)" stroke-width="7.19771" stroke-linecap="round"/>
<path fill-rule="evenodd" clip-rule="evenodd" d="M121.26 110.895C122.663 110.895 123.799 112.031 123.799 113.434L123.799 119.259L129.625 119.259C131.027 119.259 132.164 120.396 132.164 121.798C132.164 123.201 131.027 124.338 129.625 124.338L123.799 124.337L123.799 130.163C123.799 131.565 122.663 132.702 121.26 132.702C119.858 132.702 118.721 131.565 118.721 130.163L118.721 124.337L112.896 124.338C111.493 124.338 110.356 123.201 110.356 121.798C110.356 120.396 111.493 119.259 112.896 119.259L118.721 119.259L118.721 113.434C118.721 112.031 119.858 110.895 121.26 110.895Z" fill="url(#paint2_linear_3537_32320)"/>
<defs>
<linearGradient id="paint0_linear_3537_32320" x1="57.6615" y1="70.1151" x2="99.3788" y2="123.734" gradientUnits="userSpaceOnUse">
<stop stop-color="#B2D9FF"/>
<stop offset="1" stop-color="#78B6F4"/>
</linearGradient>
<linearGradient id="paint1_linear_3537_32320" x1="70.3451" y1="36.9683" x2="107.911" y2="120.904" gradientUnits="userSpaceOnUse">
<stop stop-color="#FF9399"/>
<stop offset="1" stop-color="#FF5A60"/>
</linearGradient>
<linearGradient id="paint2_linear_3537_32320" x1="125.42" y1="113.544" x2="111.542" y2="125.576" gradientUnits="userSpaceOnUse">
<stop stop-color="#B2D9FF"/>
<stop offset="1" stop-color="#78B6F4"/>
</linearGradient>
</defs>
</svg>
