<svg width="22" height="15" viewBox="0 0 22 15" fill="none" xmlns="http://www.w3.org/2000/svg">
<path fill-rule="evenodd" clip-rule="evenodd" d="M16.8536 12.0993C17.28 12.5257 17.28 13.2169 16.8536 13.6433C16.4273 14.0696 15.7361 14.0696 15.3097 13.6433L11.087 9.42051L6.86437 13.6433C6.43803 14.0696 5.7468 14.0696 5.32046 13.6433C4.89412 13.2169 4.89412 12.5257 5.32046 12.0993L9.54313 7.87657L5.31975 3.65312C4.89342 3.22678 4.89342 2.53553 5.31975 2.10919C5.74609 1.68284 6.43733 1.68284 6.86366 2.10919L11.087 6.33264L15.3104 2.10919C15.7368 1.68284 16.428 1.68284 16.8543 2.10919C17.2807 2.53553 17.2807 3.22678 16.8543 3.65312L12.631 7.87657L16.8536 12.0993Z" fill="#D63D3D"/>
</svg>
