<svg width="23" height="26" viewBox="0 0 23 26" fill="none" xmlns="http://www.w3.org/2000/svg">
<path d="M11.85 7.3379C10.7938 7.3379 9.93752 8.19416 9.93752 9.2504C9.93752 10.3066 10.7938 11.1629 11.85 11.1629C12.9063 11.1629 13.7625 10.3066 13.7625 9.2504C13.7557 8.19699 12.9034 7.34472 11.85 7.3379Z" fill="#CC31CF"/>
<path d="M10.9125 13.3129C10.9193 12.7979 11.3351 12.3821 11.85 12.3754C12.365 12.3821 12.7808 12.7979 12.7875 13.3129V15.5004C12.7875 16.0182 12.3678 16.4379 11.85 16.4379C11.3323 16.4379 10.9125 16.0182 10.9125 15.5004V13.3129Z" fill="#CC31CF"/>
<path fill-rule="evenodd" clip-rule="evenodd" d="M19.075 15.5879L21.7 16.4629C22.428 16.7142 22.9221 17.3929 22.9375 18.1629V23.1629C22.9375 24.4539 21.891 25.5004 20.6 25.5004C20.3489 25.5007 20.0995 25.4584 19.8625 25.3754L18.6125 24.9504C18.2551 25.3083 17.7683 25.5067 17.2625 25.5004H15.3625C14.4783 25.5506 13.7167 24.8835 13.65 24.0004V20.7379C13.5832 19.8065 12.7825 19.1003 11.85 19.1504C10.9175 19.1003 10.1168 19.8065 10.05 20.7379V24.0004C9.98332 24.8835 9.22174 25.5506 8.33752 25.5004H6.43752C5.93176 25.5067 5.44492 25.3083 5.08752 24.9504L3.83752 25.3754C3.6005 25.4584 3.35115 25.5007 3.10002 25.5004C1.82348 25.5075 0.777308 24.4892 0.750022 23.2129V18.2129C0.746168 17.4212 1.24986 16.716 2.00002 16.4629L4.62502 15.5879V11.6129C4.71412 7.20699 7.02291 3.14427 10.7625 0.8129C11.0874 0.606225 11.465 0.497715 11.85 0.5004C12.2353 0.495539 12.6136 0.604224 12.9375 0.8129C16.6771 3.14427 18.9859 7.20699 19.075 11.6129V15.5879ZM3.22502 23.6004L3.62502 23.4629L3.66252 17.9004L2.63752 18.2379V23.1629C2.63752 23.4183 2.84459 23.6254 3.10002 23.6254L3.22502 23.6004ZM17.075 23.4629H15.6V20.7379C15.513 18.7306 13.8593 17.1485 11.85 17.1504C9.84079 17.1485 8.18709 18.7306 8.10002 20.7379V23.5004H6.62502V11.6129C6.7283 7.89137 8.69039 4.46945 11.85 2.5004C15.0181 4.46893 16.9857 7.89696 17.0875 11.6254L17.075 23.4629ZM20.625 23.5879C20.8805 23.5879 21.0875 23.3808 21.0875 23.1254V18.2129L20.075 17.8754V23.4504L20.475 23.5879H20.625Z" fill="#CC31CF"/>
</svg>
