<svg width="22" height="22" viewBox="0 0 22 22" fill="none" xmlns="http://www.w3.org/2000/svg">
<path d="M16.2656 7.58594C16.9775 7.58594 17.6602 7.86872 18.1635 8.37206C18.6669 8.87541 18.9496 9.5581 18.9496 10.2699C18.9496 10.9818 18.6669 11.6645 18.1635 12.1678C17.6602 12.6712 16.9775 12.954 16.2656 12.954" stroke="#727272" stroke-width="1.23306" stroke-linecap="round" stroke-linejoin="round"/>
<path d="M9.1137 7.58594V17.4273C9.1137 17.6646 9.01944 17.8921 8.85165 18.0599C8.68387 18.2277 8.45631 18.322 8.21903 18.322H7.32436C7.08708 18.322 6.85951 18.2277 6.69173 18.0599C6.52395 17.8921 6.42969 17.6646 6.42969 17.4273V12.954" stroke="#727272" stroke-width="1.23306" stroke-linecap="round" stroke-linejoin="round"/>
<path d="M10.9036 7.59066L14.9511 4.21776C15.0687 4.1198 15.2118 4.05739 15.3636 4.03784C15.5154 4.0183 15.6696 4.04243 15.8082 4.1074C15.9468 4.17237 16.064 4.2755 16.1461 4.4047C16.2281 4.53389 16.2717 4.68381 16.2716 4.83687V15.7125C16.2717 15.8655 16.2281 16.0154 16.1461 16.1446C16.064 16.2738 15.9468 16.377 15.8082 16.4419C15.6696 16.5069 15.5154 16.531 15.3636 16.5115C15.2118 16.4919 15.0687 16.4295 14.9511 16.3316L10.9036 12.9587H3.74623C3.50895 12.9587 3.28139 12.8644 3.11361 12.6966C2.94582 12.5288 2.85156 12.3013 2.85156 12.064V8.48533C2.85156 8.24805 2.94582 8.02048 3.11361 7.8527C3.28139 7.68492 3.50895 7.59066 3.74623 7.59066H10.9036Z" stroke="#727272" stroke-width="1.23306" stroke-linecap="round" stroke-linejoin="round"/>
</svg>
