<svg width="40" height="36" viewBox="0 0 40 36" fill="none" xmlns="http://www.w3.org/2000/svg">
<path d="M5.36632 22.2949C5.36581 22.8882 5.46471 23.4563 5.65654 23.9872M5.36632 22.2949C5.36632 22.2942 5.36632 22.2936 5.36632 22.293L5.65654 23.9872M5.36632 22.2949V9.38611C5.36632 8.04097 5.87622 6.82491 6.82225 5.87888C7.76795 4.93317 8.98396 4.42295 10.3297 4.42412L5.36632 22.2962V22.2949ZM5.65654 23.9872C5.53173 24.0842 5.4115 24.1901 5.29651 24.3051C4.55909 25.0425 4.19419 25.9944 4.19268 26.9846M5.65654 23.9872L31.4519 30.7791M31.4519 30.7791H7.98102C6.98863 30.7791 6.03429 30.4142 5.29534 29.6753C4.55606 28.936 4.19034 27.9801 4.19268 26.9846M31.4519 30.7791H31.4539V28.4318V28.1644C31.7857 28.1652 32.0642 28.0529 32.2895 27.8276C32.5149 27.6022 32.6275 27.3233 32.6275 26.9908M31.4519 30.7791C32.4459 30.7804 33.4002 30.4147 34.1384 29.6765C34.8758 28.939 35.2407 27.9871 35.2422 26.9969M4.19268 26.9846L6.80738 26.9908H4.19268C4.19268 26.9887 4.19268 26.9867 4.19268 26.9846ZM32.6275 26.9908L35.2422 26.9969M32.6275 26.9908H35.2422C35.2422 26.9928 35.2422 26.9949 35.2422 26.9969M32.6275 26.9908C32.6283 26.659 32.516 26.3805 32.2907 26.1551C32.2806 26.145 32.2704 26.1352 32.2601 26.1255L35.2422 26.9969M35.2422 26.9969C35.2446 26.0014 34.8789 25.0455 34.1396 24.3063C34.0241 24.1907 33.9033 24.0844 33.7779 23.9871L35.2422 26.9969ZM26.4919 12.0008V19.6815H12.943V12.0008H26.4919Z" fill="#777777" stroke="white" stroke-width="5.2294"/>
<rect x="14.8029" y="11.9598" width="11.9598" height="7.97323" fill="white"/>
</svg>
