<svg width="23" height="24" viewBox="0 0 23 24" fill="none" xmlns="http://www.w3.org/2000/svg">
<path d="M13.0205 10.701C12.159 9.79131 10.9909 9.28027 9.77287 9.28027C8.55486 9.28027 7.3867 9.79131 6.52525 10.701L3.27658 14.132C2.41512 15.0421 1.93115 16.2765 1.93115 17.5636C1.93115 18.8507 2.41512 20.085 3.27658 20.9951C4.13804 21.9052 5.30643 22.4165 6.52472 22.4165C7.74302 22.4165 8.91141 21.9052 9.77287 20.9951L11.3967 19.2796M9.77286 14.1325C10.6343 15.0422 11.8025 15.5532 13.0205 15.5532C14.2385 15.5532 15.4067 15.0422 16.2681 14.1325L19.5168 10.7015C20.3782 9.79139 20.8622 8.55702 20.8622 7.26994C20.8622 5.98286 20.3782 4.74849 19.5168 3.83839C18.6553 2.92828 17.4869 2.41699 16.2686 2.41699C15.0503 2.41699 13.8819 2.92828 13.0205 3.83839L11.3967 5.55389" stroke="black" stroke-width="3" stroke-linecap="round" stroke-linejoin="round"/>
</svg>
