<svg width="26" height="25" viewBox="0 0 26 25" fill="none" xmlns="http://www.w3.org/2000/svg">
<path fill-rule="evenodd" clip-rule="evenodd" d="M9.92103 2.2565C10.3171 0.975521 11.5091 0.108088 12.8498 0.12525C14.198 0.111705 15.3925 0.992121 15.7785 2.284L16.686 5.034C17.0935 6.30674 18.2784 7.16897 19.6148 7.16525H22.4748C23.8426 7.11342 25.0805 7.97051 25.5134 9.26906C25.9462 10.5676 25.4701 11.996 24.3448 12.7752L21.9935 14.494C20.9098 15.2724 20.4539 16.6624 20.866 17.9315L21.7735 20.6815C22.0854 21.6335 21.9169 22.6775 21.3216 23.4832C20.7262 24.2888 19.7776 24.7564 18.776 24.7377C18.1265 24.7329 17.4955 24.5209 16.9748 24.1327L14.7198 22.414C13.6383 21.6252 12.1712 21.6252 11.0898 22.414L8.72478 24.1327C8.19778 24.5568 7.54484 24.7938 6.86853 24.8065C5.85967 24.8149 4.91008 24.3308 4.32419 23.5095C3.7383 22.6881 3.5897 21.6327 3.92603 20.6815L4.83353 17.9315C5.27076 16.6662 4.8366 15.2635 3.76103 14.4665L1.40978 12.7477C0.319915 11.9658 -0.138594 10.5685 0.276138 9.29288C0.69087 8.01726 1.88347 7.15673 3.22478 7.16525H6.08478C7.42861 7.16519 8.61581 6.29012 9.01353 5.0065L9.92103 2.2565ZM13.5785 2.9715C13.494 2.64224 13.1893 2.41803 12.8498 2.43525C12.4934 2.42305 12.1825 2.67527 12.121 3.0265L11.2135 5.7765C10.4923 7.99893 8.42131 9.5036 6.08478 9.50275H3.16978C2.84578 9.51208 2.56231 9.72332 2.46073 10.0311C2.35915 10.3389 2.46122 10.6774 2.71603 10.8778L5.06728 12.5965C6.9638 13.9682 7.75826 16.4072 7.03353 18.6328L6.12603 21.3828C6.03691 21.6086 6.07349 21.8647 6.22228 22.0565C6.37659 22.2787 6.62581 22.416 6.89603 22.4277C7.06106 22.4228 7.22013 22.365 7.34978 22.2628L9.67353 20.544C11.5675 19.168 14.1321 19.168 16.026 20.544L18.3223 22.1803C18.4519 22.2825 18.611 22.3403 18.776 22.3452C19.034 22.3285 19.271 22.1974 19.4223 21.9878C19.5711 21.7959 19.6077 21.5398 19.5185 21.314L18.611 18.564C17.8863 16.3384 18.6808 13.8995 20.5773 12.5278L22.9285 10.8228C23.1833 10.6224 23.2854 10.2839 23.1838 9.97613C23.0823 9.66832 22.7988 9.45708 22.4748 9.44775H19.6148C17.2783 9.4486 15.2073 7.94393 14.486 5.7215L13.5785 2.9715Z" fill="#EED600"/>
</svg>
