<svg xmlns="http://www.w3.org/2000/svg" width="24" height="24" viewBox="0 0 24 24" fill="none">
<path d="M11.6915 10.1835C12.4468 10.1836 13.0591 10.7959 13.0593 11.5513V21.3069C13.0593 22.0624 12.4469 22.6751 11.6915 22.6752C10.936 22.6752 10.3232 22.0625 10.3232 21.3069V11.5513C10.3234 10.7959 10.9361 10.1835 11.6915 10.1835ZM22.6973 12.6557L20.7623 14.6188L14.5715 8.33758L15.1518 7.74881L14.9582 7.5524L14.3774 8.14116L12.4433 6.17849L14.3779 4.21539L22.6973 12.6557ZM4.33821 12.8244L1.91992 13.3152L2.40367 10.8618L4.33821 12.8244ZM18.6346 12.4597L18.8282 12.6561L19.4085 12.0674L19.2149 11.871L18.6346 12.4597ZM13.6246 3.40256L4.72495 12.4316L2.7904 10.469L11.6896 1.43945L13.6246 3.40256ZM16.5065 10.3007L16.6996 10.4966L17.2799 9.90785L17.0868 9.71148L16.5065 10.3007ZM10.3354 2.81336L12.2704 4.77646L12.6571 4.38368L10.7226 2.42101L10.3354 2.81336Z" fill="white"/>
</svg>