<svg width="43" height="43" viewBox="0 0 43 43" fill="none" xmlns="http://www.w3.org/2000/svg">
<path d="M24.108 19.2651C24.9359 19.2651 25.607 19.9363 25.6071 20.7642V31.4563C25.6071 32.2843 24.936 32.9558 24.108 32.9559C23.28 32.9559 22.6084 32.2843 22.6084 31.4563V20.7642C22.6086 19.9363 23.2801 19.2651 24.108 19.2651ZM36.1703 21.9745L34.0495 24.1261L27.2645 17.2419L27.9005 16.5967L27.6883 16.3814L27.0518 17.0267L24.932 14.8756L27.0523 12.724L36.1703 21.9745ZM16.0489 22.1595L13.3984 22.6974L13.9286 20.0084L16.0489 22.1595ZM31.7177 21.7598L31.9298 21.9751L32.5658 21.3298L32.3537 21.1146L31.7177 21.7598ZM26.2267 11.8332L16.4727 21.729L14.3525 19.5779L24.1059 9.68164L26.2267 11.8332ZM29.3852 19.3935L29.5969 19.6082L30.2329 18.963L30.0213 18.7477L29.3852 19.3935ZM22.6217 11.1874L24.7425 13.339L25.1664 12.9085L23.0461 10.7574L22.6217 11.1874Z" fill="white"/>
<path d="M23.8309 0.502023C29.509 0.516813 34.6474 2.83896 38.3877 6.58948L35.9331 9.06588C32.8179 5.95135 28.5421 4.02434 23.8226 4.01166C14.2604 3.9863 6.4882 11.8275 6.46528 21.5239C6.44235 31.2203 14.1729 39.1017 23.7351 39.1249C28.1879 39.1355 32.2533 37.4409 35.3288 34.6475L37.773 37.1387C34.0682 40.566 29.136 42.6493 23.7246 42.6345C12.2496 42.605 2.9709 33.1495 3.00007 21.5133C3.03132 9.88146 12.3559 0.472441 23.8309 0.502023Z" fill="white"/>
</svg>
