<svg width="441" height="82" viewBox="0 0 441 82" fill="none" xmlns="http://www.w3.org/2000/svg">
<g clip-path="url(#clip0_2081_5663)">
<path d="M40.123 36.6231C41.6967 36.6231 42.9723 37.8989 42.9726 39.4726V59.7968C42.9726 61.3707 41.6969 62.6473 40.123 62.6474C38.549 62.6474 37.2724 61.3708 37.2724 59.7968V39.4726C37.2728 37.8988 38.5492 36.6231 40.123 36.6231ZM63.0517 41.7733L59.0205 45.8633L46.123 32.7774L47.332 31.5508L46.9287 31.1416L45.7187 32.3681L41.6894 28.2792L45.7197 24.1894L63.0517 41.7733ZM24.8037 42.125L19.7656 43.1474L20.7734 38.036L24.8037 42.125ZM54.5879 41.3652L54.9912 41.7743L56.2002 40.5479L55.7969 40.1386L54.5879 41.3652ZM44.1504 22.496L25.6094 41.3066L21.5791 37.2178L40.1191 18.4062L44.1504 22.496ZM50.1543 36.8671L50.5566 37.2753L51.7656 36.0488L51.3633 35.6396L50.1543 36.8671ZM37.2978 21.2686L41.3291 25.3584L42.1348 24.5401L38.1045 20.4512L37.2978 21.2686Z" fill="white"/>
<path d="M39.5967 0.957163C50.3899 0.985278 60.1574 5.39937 67.2671 12.5286L62.6012 17.2359C56.6798 11.3156 48.5521 7.6526 39.5808 7.6285C21.4045 7.5803 6.63058 22.4854 6.58701 40.9169C6.54344 59.3484 21.2382 74.3298 39.4145 74.374C47.8788 74.3941 55.6064 71.1729 61.4526 65.8631L66.0986 70.5985C59.0563 77.1132 49.681 81.0734 39.3947 81.0453C17.5823 80.9891 -0.0553214 63.0155 0.000130396 40.8968C0.059543 18.7862 17.7843 0.900933 39.5967 0.957163Z" fill="white"/>
<path d="M98.9496 17.6702H95.4271C95.2916 16.9069 95.0394 16.2354 94.6707 15.6554C94.3018 15.0754 93.8502 14.5831 93.3157 14.1787C92.7813 13.7742 92.183 13.4689 91.5206 13.2629C90.8659 13.0568 90.1696 12.9538 89.4321 12.9538C88.0998 12.9538 86.9069 13.2934 85.853 13.9726C84.8068 14.6519 83.9788 15.6477 83.3693 16.9604C82.7673 18.2731 82.4661 19.8758 82.4661 21.7684C82.4661 23.6763 82.7673 25.2867 83.3693 26.5993C83.9788 27.912 84.8106 28.904 85.8643 29.5757C86.9182 30.2472 88.1037 30.583 89.4208 30.583C90.1508 30.583 90.8433 30.4838 91.4982 30.2855C92.1605 30.0794 92.7588 29.7778 93.2933 29.3811C93.8276 28.9841 94.2791 28.4995 94.648 27.9271C95.0244 27.3473 95.284 26.6833 95.4271 25.9353L98.9496 25.9469C98.7613 27.0991 98.3964 28.16 97.8545 29.1292C97.32 30.0909 96.6313 30.9227 95.7883 31.6248C94.9528 32.3193 93.997 32.8572 92.9206 33.2389C91.8443 33.6204 90.6703 33.8112 89.3981 33.8112C87.3961 33.8112 85.6123 33.3304 84.0467 32.3688C82.4812 31.3996 81.2468 30.0146 80.3436 28.2134C79.448 26.4124 79 24.264 79 21.7684C79 19.2652 79.4517 17.1168 80.3548 15.3235C81.2582 13.5223 82.4925 12.141 84.058 11.1794C85.6236 10.2102 87.4037 9.72558 89.3981 9.72558C90.625 9.72558 91.7691 9.90493 92.8303 10.2636C93.8992 10.6147 94.8587 11.1336 95.7094 11.8205C96.5597 12.4997 97.2634 13.3316 97.8205 14.3161C98.3775 15.2928 98.7538 16.4109 98.9496 17.6702ZM110.158 33.8455C108.532 33.8455 107.113 33.4678 105.901 32.7123C104.689 31.9568 103.749 30.8998 103.079 29.5412C102.409 28.1828 102.074 26.5954 102.074 24.779C102.074 22.9551 102.409 21.3601 103.079 19.9941C103.749 18.628 104.689 17.5671 105.901 16.8116C107.113 16.056 108.532 15.6783 110.158 15.6783C111.783 15.6783 113.202 16.056 114.414 16.8116C115.626 17.5671 116.567 18.628 117.237 19.9941C117.906 21.3601 118.241 22.9551 118.241 24.779C118.241 26.5954 117.906 28.1828 117.237 29.5412C116.567 30.8998 115.626 31.9568 114.414 32.7123C113.202 33.4678 111.783 33.8455 110.158 33.8455ZM110.169 30.9722C111.223 30.9722 112.096 30.6899 112.788 30.1252C113.481 29.5604 113.992 28.8086 114.324 27.87C114.662 26.9313 114.832 25.8971 114.832 24.7676C114.832 23.6457 114.662 22.6154 114.324 21.6768C113.992 20.7304 113.481 19.9712 112.788 19.3988C112.096 18.8263 111.223 18.5402 110.169 18.5402C109.108 18.5402 108.227 18.8263 107.527 19.3988C106.835 19.9712 106.319 20.7304 105.98 21.6768C105.649 22.6154 105.484 23.6457 105.484 24.7676C105.484 25.8971 105.649 26.9313 105.98 27.87C106.319 28.8086 106.835 29.5604 107.527 30.1252C108.227 30.6899 109.108 30.9722 110.169 30.9722ZM122.009 33.4906V15.9072H125.272V18.7005H125.453C125.769 17.754 126.326 17.0101 127.123 16.4681C127.929 15.9188 128.84 15.644 129.856 15.644C130.067 15.644 130.315 15.6516 130.601 15.6669C130.895 15.6821 131.124 15.7012 131.29 15.7241V18.9982C131.154 18.96 130.913 18.918 130.568 18.8722C130.221 18.8186 129.875 18.7922 129.529 18.7922C128.73 18.7922 128.019 18.9637 127.395 19.3072C126.778 19.6429 126.289 20.1123 125.927 20.7152C125.566 21.3106 125.385 21.9897 125.385 22.7528V33.4906H122.009ZM137.587 23.0505V33.4906H134.211V15.9072H137.451V18.7691H137.665C138.064 17.838 138.689 17.0902 139.54 16.5255C140.398 15.9607 141.478 15.6783 142.78 15.6783C143.962 15.6783 144.996 15.9302 145.885 16.4339C146.773 16.9299 147.461 17.6702 147.951 18.6548C148.44 19.6392 148.685 20.8564 148.685 22.3065V33.4906H145.309V22.7187C145.309 21.4441 144.982 20.4481 144.327 19.7307C143.671 19.0057 142.772 18.6433 141.629 18.6433C140.846 18.6433 140.149 18.8149 139.54 19.1583C138.938 19.5018 138.46 20.0055 138.106 20.6695C137.759 21.3258 137.587 22.1194 137.587 23.0505ZM160.686 33.8455C158.977 33.8455 157.506 33.4754 156.272 32.7351C155.045 31.9873 154.097 30.9379 153.426 29.5872C152.764 28.2286 152.433 26.6375 152.433 24.8135C152.433 23.0123 152.764 21.425 153.426 20.0514C154.097 18.6775 155.029 17.6053 156.227 16.8346C157.431 16.0637 158.838 15.6783 160.449 15.6783C161.427 15.6783 162.377 15.8423 163.294 16.1706C164.212 16.4987 165.036 17.0139 165.765 17.7159C166.498 18.418 167.072 19.33 167.493 20.452C167.915 21.5662 168.127 22.9208 168.127 24.5158V25.7293H154.341V23.1649H164.818C164.818 22.2645 164.637 21.467 164.276 20.7724C163.915 20.0704 163.407 19.517 162.752 19.1126C162.104 18.7082 161.345 18.5059 160.471 18.5059C159.523 18.5059 158.695 18.7423 157.987 19.2157C157.288 19.6812 156.746 20.2916 156.362 21.0472C155.986 21.7952 155.798 22.6079 155.798 23.4856V25.4889C155.798 26.6642 156 27.6639 156.407 28.4881C156.822 29.3123 157.397 29.942 158.134 30.377C158.872 30.8042 159.733 31.0179 160.72 31.0179C161.36 31.0179 161.942 30.9264 162.471 30.7433C162.996 30.5524 163.452 30.2701 163.836 29.8961C164.22 29.5223 164.513 29.0604 164.717 28.5111L167.912 29.0949C167.656 30.0487 167.196 30.8844 166.535 31.6019C165.88 32.3116 165.055 32.8649 164.062 33.2617C163.075 33.6511 161.951 33.8455 160.686 33.8455ZM175.247 10.0461V33.4906H171.871V10.0461H175.247ZM183.164 10.0461V33.4906H179.789V10.0461H183.164ZM203.876 33.4906H196.391V10.0461H204.113C206.379 10.0461 208.325 10.5155 209.95 11.4542C211.576 12.3852 212.822 13.7246 213.687 15.4723C214.559 17.2122 214.997 19.2995 214.997 21.7341C214.997 24.1763 214.556 26.275 213.677 28.0302C212.803 29.7855 211.539 31.1364 209.882 32.0826C208.226 33.0214 206.224 33.4906 203.876 33.4906ZM199.879 30.3998H203.684C205.446 30.3998 206.909 30.0641 208.076 29.3926C209.243 28.7132 210.115 27.7326 210.695 26.4505C211.274 25.1607 211.564 23.5886 211.564 21.7341C211.564 19.8949 211.274 18.334 210.695 17.052C210.123 15.7699 209.269 14.7968 208.133 14.1329C206.995 13.4689 205.584 13.1369 203.899 13.1369H199.879V30.3998ZM219.064 33.4906V15.9072H222.439V33.4906H219.064ZM220.769 13.1942C220.182 13.1942 219.677 12.9958 219.256 12.5989C218.842 12.1944 218.635 11.7136 218.635 11.1565C218.635 10.5918 218.842 10.111 219.256 9.71414C219.677 9.30966 220.182 9.10742 220.769 9.10742C221.355 9.10742 221.857 9.30966 222.271 9.71414C222.692 10.111 222.902 10.5918 222.902 11.1565C222.902 11.7136 222.692 12.1944 222.271 12.5989C221.857 12.9958 221.355 13.1942 220.769 13.1942ZM234.252 40.4509C232.873 40.4509 231.69 40.2676 230.697 39.9015C229.708 39.535 228.904 39.0504 228.279 38.4475C227.655 37.8446 227.188 37.1843 226.88 36.4671L229.781 35.2536C229.984 35.5893 230.254 35.9442 230.594 36.3184C230.939 36.6997 231.407 37.0242 231.995 37.2914C232.589 37.5583 233.351 37.692 234.286 37.692C235.565 37.692 236.622 37.3753 237.459 36.7419C238.292 36.1161 238.712 35.1163 238.712 33.7426V30.2855H238.496C238.292 30.6593 237.999 31.0753 237.616 31.5333C237.24 31.9911 236.72 32.3879 236.058 32.7237C235.395 33.0595 234.533 33.2274 233.473 33.2274C232.102 33.2274 230.868 32.9031 229.769 32.2545C228.678 31.598 227.811 30.6327 227.173 29.3581C226.54 28.076 226.225 26.5001 226.225 24.6302C226.225 22.7605 226.537 21.1579 227.161 19.8223C227.793 18.4868 228.66 17.4642 229.757 16.7544C230.858 16.037 232.102 15.6783 233.495 15.6783C234.572 15.6783 235.441 15.8614 236.104 16.2278C236.765 16.5865 237.281 17.0062 237.651 17.487C238.026 17.9677 238.316 18.3914 238.52 18.7577H238.767V15.9072H242.077V33.88C242.077 35.391 241.728 36.6311 241.036 37.6003C240.345 38.5697 239.407 39.287 238.225 39.7526C237.052 40.2181 235.727 40.4509 234.252 40.4509ZM234.218 30.3884C235.19 30.3884 236.01 30.1595 236.68 29.7015C237.356 29.236 237.868 28.572 238.215 27.7097C238.568 26.8396 238.745 25.7981 238.745 24.5846C238.745 23.4017 238.572 22.3599 238.225 21.4593C237.88 20.5587 237.372 19.8566 236.702 19.3531C236.032 18.8417 235.203 18.586 234.218 18.586C233.202 18.586 232.355 18.8531 231.678 19.3872C231.001 19.914 230.488 20.6313 230.143 21.5394C229.803 22.4476 229.633 23.4626 229.633 24.5846C229.633 25.7369 229.808 26.7481 230.155 27.6182C230.5 28.4881 231.011 29.1674 231.69 29.6558C232.375 30.1443 233.217 30.3884 234.218 30.3884ZM246.602 33.4906V15.9072H249.977V33.4906H246.602ZM248.307 13.1942C247.721 13.1942 247.216 12.9958 246.796 12.5989C246.381 12.1944 246.173 11.7136 246.173 11.1565C246.173 10.5918 246.381 10.111 246.796 9.71414C247.216 9.30966 247.721 9.10742 248.307 9.10742C248.895 9.10742 249.395 9.30966 249.809 9.71414C250.232 10.111 250.442 10.5918 250.442 11.1565C250.442 11.7136 250.232 12.1944 249.809 12.5989C249.395 12.9958 248.895 13.1942 248.307 13.1942ZM262.615 15.9072V18.6548H253.142V15.9072H262.615ZM255.684 11.6946H259.06V28.3279C259.06 28.9918 259.157 29.4917 259.351 29.8275C259.548 30.1557 259.799 30.3807 260.108 30.5029C260.425 30.6173 260.768 30.6745 261.135 30.6745C261.408 30.6745 261.645 30.6555 261.847 30.6173C262.049 30.5792 262.209 30.5487 262.322 30.5258L262.932 33.3534C262.735 33.4297 262.457 33.506 262.095 33.5823C261.735 33.6663 261.283 33.712 260.741 33.7197C259.853 33.7351 259.024 33.5746 258.257 33.2389C257.489 32.9031 256.868 32.3842 256.393 31.6819C255.92 30.9799 255.684 30.0984 255.684 29.0377V11.6946ZM271.396 33.88C270.297 33.88 269.303 33.6738 268.415 33.2617C267.527 32.842 266.822 32.2353 266.304 31.4416C265.792 30.648 265.536 29.6749 265.536 28.5225C265.536 27.5303 265.724 26.7138 266.102 26.0727C266.477 25.4316 266.984 24.9241 267.625 24.5503C268.265 24.1763 268.98 23.8939 269.77 23.7031C270.559 23.5123 271.366 23.3672 272.187 23.268C273.224 23.146 274.068 23.0468 274.716 22.9705C275.362 22.8865 275.832 22.7528 276.127 22.5699C276.419 22.3865 276.566 22.089 276.566 21.6768V21.5967C276.566 20.597 276.288 19.8223 275.731 19.2729C275.182 18.7234 274.362 18.4486 273.27 18.4486C272.133 18.4486 271.238 18.7043 270.583 19.2157C269.936 19.7192 269.489 20.2801 269.24 20.8984L266.066 20.1658C266.443 19.0972 266.992 18.235 267.716 17.5785C268.445 16.9146 269.283 16.4339 270.233 16.1362C271.181 15.8309 272.179 15.6783 273.224 15.6783C273.916 15.6783 274.65 15.7623 275.426 15.9302C276.209 16.0904 276.94 16.3881 277.616 16.823C278.302 17.2581 278.862 17.8802 279.298 18.6891C279.734 19.4903 279.953 20.5321 279.953 21.8142V33.4906H276.657V31.0867H276.521C276.303 31.5293 275.975 31.9644 275.539 32.3919C275.101 32.8191 274.542 33.174 273.857 33.4563C273.172 33.7388 272.352 33.88 271.396 33.88ZM272.13 31.1326C273.063 31.1326 273.861 30.9456 274.524 30.5716C275.194 30.1976 275.701 29.7092 276.047 29.1063C276.401 28.4957 276.578 27.8433 276.578 27.1488V24.8821C276.457 25.0043 276.224 25.1187 275.879 25.2255C275.539 25.3247 275.152 25.4125 274.716 25.4889C274.278 25.5575 273.852 25.6224 273.44 25.6833C273.026 25.7369 272.679 25.7827 272.401 25.8208C271.746 25.9047 271.149 26.0459 270.605 26.2444C270.071 26.4429 269.642 26.729 269.319 27.103C269.002 27.4693 268.844 27.9577 268.844 28.5683C268.844 29.4153 269.154 30.0564 269.77 30.4915C270.388 30.9189 271.174 31.1326 272.13 31.1326ZM287.827 10.0461V33.4906H284.45V10.0461H287.827ZM299.911 13.0912V10.0461H317.806V13.0912H310.592V33.4906H307.114V13.0912H299.911ZM326.449 33.8455C324.74 33.8455 323.269 33.4754 322.035 32.7351C320.807 31.9873 319.86 30.9379 319.19 29.5872C318.526 28.2286 318.196 26.6375 318.196 24.8135C318.196 23.0123 318.526 21.425 319.19 20.0514C319.86 18.6775 320.792 17.6053 321.989 16.8346C323.195 16.0637 324.6 15.6783 326.211 15.6783C327.191 15.6783 328.139 15.8423 329.056 16.1706C329.976 16.4987 330.799 17.0139 331.529 17.7159C332.258 18.418 332.836 19.33 333.257 20.452C333.677 21.5662 333.888 22.9208 333.888 24.5158V25.7293H320.104V23.1649H330.58C330.58 22.2645 330.4 21.467 330.038 20.7724C329.678 20.0704 329.169 19.517 328.514 19.1126C327.868 18.7082 327.107 18.5059 326.233 18.5059C325.285 18.5059 324.457 18.7423 323.75 19.2157C323.051 19.6812 322.509 20.2916 322.126 21.0472C321.748 21.7952 321.56 22.6079 321.56 23.4856V25.4889C321.56 26.6642 321.764 27.6639 322.169 28.4881C322.583 29.3123 323.159 29.942 323.897 30.377C324.636 30.8042 325.496 31.0179 326.482 31.0179C327.122 31.0179 327.706 30.9264 328.233 30.7433C328.758 30.5524 329.215 30.2701 329.598 29.8961C329.982 29.5223 330.275 29.0604 330.479 28.5111L333.674 29.0949C333.418 30.0487 332.959 30.8844 332.297 31.6019C331.642 32.3116 330.817 32.8649 329.824 33.2617C328.838 33.6511 327.713 33.8455 326.449 33.8455ZM344.938 33.8455C343.26 33.8455 341.815 33.4603 340.603 32.6894C339.4 31.911 338.474 30.8387 337.827 29.4726C337.179 28.1065 336.856 26.5419 336.856 24.779C336.856 22.9934 337.186 21.4173 337.849 20.0514C338.511 18.6775 339.443 17.6053 340.649 16.8346C341.854 16.0637 343.272 15.6783 344.906 15.6783C346.223 15.6783 347.396 15.9263 348.428 16.4225C349.458 16.9108 350.29 17.5978 350.923 18.4829C351.563 19.3681 351.943 20.4024 352.063 21.5853H348.778C348.596 20.761 348.182 20.0514 347.536 19.456C346.896 18.8608 346.037 18.5631 344.962 18.5631C344.021 18.5631 343.197 18.8149 342.489 19.3186C341.788 19.8147 341.243 20.5244 340.852 21.4479C340.46 22.3637 340.265 23.4474 340.265 24.6989C340.265 25.981 340.457 27.0877 340.841 28.0188C341.224 28.95 341.767 29.671 342.467 30.1824C343.174 30.6938 344.006 30.9493 344.962 30.9493C345.601 30.9493 346.181 30.831 346.701 30.5944C347.226 30.3503 347.667 30.003 348.021 29.5527C348.383 29.1026 348.635 28.5606 348.778 27.9271H352.063C351.943 29.0643 351.576 30.0794 350.967 30.9722C350.357 31.8651 349.542 32.5672 348.517 33.0786C347.502 33.59 346.308 33.8455 344.938 33.8455ZM359.047 23.0505V33.4906H355.672V10.0461H359.003V18.7691H359.217C359.625 17.8228 360.246 17.0711 361.079 16.5139C361.916 15.9569 363.007 15.6783 364.355 15.6783C365.544 15.6783 366.582 15.9263 367.47 16.4225C368.365 16.9185 369.059 17.6588 369.549 18.6433C370.044 19.6201 370.293 20.841 370.293 22.3065V33.4906H366.917V22.7187C366.917 21.4288 366.591 20.429 365.934 19.7192C365.281 19.002 364.369 18.6433 363.204 18.6433C362.404 18.6433 361.69 18.8149 361.057 19.1583C360.434 19.5018 359.941 20.0055 359.579 20.6695C359.226 21.3258 359.047 22.1194 359.047 23.0505ZM389.941 33.8226C388.39 33.8226 387.055 33.5364 385.932 32.9642C384.818 32.3919 383.961 31.6133 383.358 30.6289C382.756 29.6367 382.456 28.5149 382.456 27.2633C382.456 26.3093 382.651 25.4621 383.042 24.7218C383.434 23.974 383.979 23.2834 384.68 22.6499C385.378 22.0165 386.188 21.3793 387.106 20.7381L390.833 18.0708C391.464 17.6511 391.957 17.2085 392.311 16.7429C392.664 16.2697 392.843 15.686 392.843 14.9914C392.843 14.4419 392.609 13.9154 392.143 13.4117C391.674 12.908 391.052 12.6562 390.269 12.6562C389.727 12.6562 389.249 12.7897 388.834 13.0568C388.429 13.3239 388.107 13.6674 387.875 14.0871C387.649 14.4992 387.535 14.9342 387.535 15.3921C387.535 15.9263 387.678 16.4644 387.964 17.0062C388.259 17.548 388.634 18.1089 389.094 18.6891C389.553 19.2614 390.035 19.8566 390.538 20.4749L401.275 33.4906H397.461L388.574 22.9017C387.829 22.0088 387.138 21.1693 386.496 20.3832C385.856 19.5895 385.338 18.7883 384.939 17.9792C384.548 17.1627 384.351 16.2812 384.351 15.3349C384.351 14.2588 384.594 13.3048 385.074 12.473C385.564 11.6335 386.245 10.9772 387.117 10.504C387.991 10.0308 389.015 9.79427 390.19 9.79427C391.378 9.79427 392.398 10.0308 393.249 10.504C394.107 10.9695 394.765 11.5915 395.223 12.37C395.691 13.1408 395.925 13.9841 395.925 14.8998C395.925 16.0141 395.649 16.9985 395.1 17.8534C394.558 18.7005 393.809 19.4789 392.855 20.1886L388.213 23.6572C387.311 24.3289 386.681 24.9927 386.328 25.6492C385.981 26.2979 385.808 26.8053 385.808 27.1716C385.808 27.8433 385.978 28.4653 386.316 29.0377C386.663 29.6099 387.144 30.0678 387.762 30.4113C388.387 30.7547 389.117 30.9264 389.952 30.9264C390.811 30.9264 391.646 30.7394 392.457 30.3655C393.279 29.9839 394.02 29.4383 394.683 28.7286C395.353 28.0188 395.883 27.1679 396.274 26.1756C396.666 25.1835 396.861 24.0732 396.861 22.8445H399.91C399.91 24.3555 399.74 25.6338 399.402 26.6794C399.063 27.7172 398.652 28.5644 398.171 29.2208C397.698 29.8695 397.25 30.377 396.828 30.7433C396.691 30.8653 396.565 30.9876 396.444 31.1096C396.324 31.2316 396.195 31.3539 396.06 31.4759C395.277 32.2772 394.329 32.8688 393.215 33.2503C392.109 33.632 391.016 33.8226 389.941 33.8226ZM83.2337 48.9984V72.4429H79.7453V48.9984H83.2337ZM91.4191 62.0028V72.4429H88.0434V54.8595H91.2836V57.7214H91.4982C91.897 56.7903 92.5218 56.0425 93.3722 55.4778C94.2303 54.913 95.3104 54.6306 96.6126 54.6306C97.7942 54.6306 98.8292 54.8824 99.7172 55.3861C100.605 55.8822 101.294 56.6223 101.783 57.6069C102.273 58.5913 102.517 59.8087 102.517 61.2586V72.4429H99.1415V61.6708C99.1415 60.3964 98.814 59.4004 98.1592 58.683C97.5045 57.9578 96.605 57.5955 95.4607 57.5955C94.6781 57.5955 93.982 57.7672 93.3722 58.1106C92.7701 58.4541 92.2921 58.9578 91.9384 59.6218C91.5921 60.2779 91.4191 61.0717 91.4191 62.0028ZM110.42 62.0028V72.4429H107.044V54.8595H110.285V57.7214H110.499C110.898 56.7903 111.523 56.0425 112.373 55.4778C113.231 54.913 114.311 54.6306 115.613 54.6306C116.795 54.6306 117.83 54.8824 118.718 55.3861C119.606 55.8822 120.295 56.6223 120.784 57.6069C121.273 58.5913 121.518 59.8087 121.518 61.2586V72.4429H118.142V61.6708C118.142 60.3964 117.815 59.4004 117.16 58.683C116.505 57.9578 115.606 57.5955 114.462 57.5955C113.679 57.5955 112.983 57.7672 112.373 58.1106C111.771 58.4541 111.293 58.9578 110.94 59.6218C110.593 60.2779 110.42 61.0717 110.42 62.0028ZM133.351 72.7978C131.724 72.7978 130.305 72.4201 129.093 71.6646C127.882 70.9091 126.941 69.8521 126.272 68.4935C125.601 67.1351 125.266 65.5477 125.266 63.7313C125.266 61.9074 125.601 60.3124 126.272 58.9462C126.941 57.5803 127.882 56.5194 129.093 55.7639C130.305 55.0082 131.724 54.6306 133.351 54.6306C134.976 54.6306 136.395 55.0082 137.607 55.7639C138.818 56.5194 139.76 57.5803 140.429 58.9462C141.099 60.3124 141.434 61.9074 141.434 63.7313C141.434 65.5477 141.099 67.1351 140.429 68.4935C139.76 69.8521 138.818 70.9091 137.607 71.6646C136.395 72.4201 134.976 72.7978 133.351 72.7978ZM133.361 69.9245C134.416 69.9245 135.289 69.6421 135.98 69.0775C136.673 68.5127 137.184 67.7609 137.516 66.8223C137.855 65.8834 138.024 64.8494 138.024 63.7199C138.024 62.598 137.855 61.5677 137.516 60.6291C137.184 59.6827 136.673 58.9235 135.98 58.3511C135.289 57.7786 134.416 57.4925 133.361 57.4925C132.3 57.4925 131.419 57.7786 130.72 58.3511C130.027 58.9235 129.512 59.6827 129.173 60.6291C128.841 61.5677 128.676 62.598 128.676 63.7199C128.676 64.8494 128.841 65.8834 129.173 66.8223C129.512 67.7609 130.027 68.5127 130.72 69.0775C131.419 69.6421 132.3 69.9245 133.361 69.9245ZM159.447 54.8595L153.159 72.4429H149.545L143.246 54.8595H146.869L151.262 68.3906H151.442L155.823 54.8595H159.447ZM167.169 72.8321C166.07 72.8321 165.077 72.6261 164.188 72.214C163.301 71.7943 162.597 71.1876 162.079 70.3939C161.565 69.6002 161.309 68.627 161.309 67.4748C161.309 66.4826 161.498 65.666 161.873 65.025C162.25 64.3839 162.759 63.8764 163.398 63.5024C164.038 63.1286 164.752 62.8462 165.543 62.6552C166.334 62.4646 167.139 62.3195 167.959 62.2203C168.998 62.0981 169.841 61.9991 170.489 61.9228C171.136 61.8388 171.607 61.7051 171.9 61.522C172.193 61.3388 172.341 61.0411 172.341 60.6291V60.5488C172.341 59.5492 172.062 58.7746 171.504 58.2252C170.956 57.6755 170.134 57.4009 169.043 57.4009C167.907 57.4009 167.011 57.6566 166.356 58.1678C165.71 58.6715 165.262 59.2324 165.013 59.8505L161.841 59.1181C162.217 58.0495 162.765 57.1872 163.489 56.5308C164.218 55.8668 165.058 55.3861 166.008 55.0884C166.954 54.7832 167.952 54.6306 168.998 54.6306C169.691 54.6306 170.425 54.7145 171.2 54.8824C171.982 55.0427 172.713 55.3404 173.39 55.7753C174.075 56.2103 174.636 56.8323 175.072 57.6414C175.509 58.4424 175.728 59.4844 175.728 60.7665V72.4429H172.43V70.039H172.296C172.077 70.4816 171.75 70.9167 171.312 71.344C170.876 71.7712 170.316 72.1261 169.631 72.4086C168.945 72.6909 168.126 72.8321 167.169 72.8321ZM167.903 70.0848C168.836 70.0848 169.634 69.8979 170.296 69.5239C170.967 69.1499 171.474 68.6615 171.821 68.0584C172.174 67.448 172.351 66.7955 172.351 66.1009V63.8344C172.23 63.9566 171.998 64.071 171.651 64.1778C171.312 64.277 170.925 64.3647 170.489 64.4412C170.051 64.5098 169.626 64.5747 169.213 64.6356C168.799 64.6891 168.452 64.735 168.174 64.7731C167.52 64.857 166.922 64.9982 166.38 65.1967C165.845 65.3951 165.415 65.6811 165.092 66.0553C164.777 66.4216 164.617 66.91 164.617 67.5206C164.617 68.3676 164.925 69.0087 165.543 69.4438C166.161 69.8711 166.947 70.0848 167.903 70.0848ZM188.319 54.8595V57.6069H178.846V54.8595H188.319ZM181.386 50.6468H184.762V67.2801C184.762 67.9441 184.861 68.444 185.055 68.7798C185.251 69.1079 185.504 69.333 185.812 69.4551C186.129 69.5696 186.47 69.6268 186.839 69.6268C187.11 69.6268 187.347 69.6077 187.551 69.5696C187.753 69.5314 187.911 69.501 188.024 69.4781L188.634 72.3057C188.438 72.382 188.161 72.4583 187.8 72.5346C187.438 72.6184 186.985 72.6643 186.445 72.672C185.556 72.6872 184.728 72.5269 183.96 72.191C183.193 71.8552 182.571 71.3365 182.098 70.6342C181.624 69.9322 181.386 69.0507 181.386 67.9898V50.6468ZM192.053 72.4429V54.8595H195.428V72.4429H192.053ZM193.756 52.1463C193.171 52.1463 192.667 51.948 192.245 51.5513C191.83 51.1466 191.623 50.6659 191.623 50.1087C191.623 49.5439 191.83 49.0632 192.245 48.6664C192.667 48.262 193.171 48.0595 193.756 48.0595C194.346 48.0595 194.844 48.262 195.26 48.6664C195.681 49.0632 195.891 49.5439 195.891 50.1087C195.891 50.6659 195.681 51.1466 195.26 51.5513C194.844 51.948 194.346 52.1463 193.756 52.1463ZM207.275 72.7978C205.648 72.7978 204.229 72.4201 203.017 71.6646C201.805 70.9091 200.866 69.8521 200.194 68.4935C199.526 67.1351 199.191 65.5477 199.191 63.7313C199.191 61.9074 199.526 60.3124 200.194 58.9462C200.866 57.5803 201.805 56.5194 203.017 55.7639C204.229 55.0082 205.648 54.6306 207.275 54.6306C208.899 54.6306 210.32 55.0082 211.53 55.7639C212.742 56.5194 213.684 57.5803 214.354 58.9462C215.024 60.3124 215.357 61.9074 215.357 63.7313C215.357 65.5477 215.024 67.1351 214.354 68.4935C213.684 69.8521 212.742 70.9091 211.53 71.6646C210.32 72.4201 208.899 72.7978 207.275 72.7978ZM207.286 69.9245C208.339 69.9245 209.212 69.6421 209.904 69.0775C210.598 68.5127 211.109 67.7609 211.439 66.8223C211.78 65.8834 211.95 64.8494 211.95 63.7199C211.95 62.598 211.78 61.5677 211.439 60.6291C211.109 59.6827 210.598 58.9235 209.904 58.3511C209.212 57.7786 208.339 57.4925 207.286 57.4925C206.224 57.4925 205.344 57.7786 204.643 58.3511C203.951 58.9235 203.435 59.6827 203.098 60.6291C202.766 61.5677 202.6 62.598 202.6 63.7199C202.6 64.8494 202.766 65.8834 203.098 66.8223C203.435 67.7609 203.951 68.5127 204.643 69.0775C205.344 69.6421 206.224 69.9245 207.286 69.9245ZM222.501 62.0028V72.4429H219.126V54.8595H222.367V57.7214H222.581C222.98 56.7903 223.604 56.0425 224.456 55.4778C225.313 54.913 226.394 54.6306 227.695 54.6306C228.877 54.6306 229.912 54.8824 230.799 55.3861C231.688 55.8822 232.377 56.6223 232.865 57.6069C233.355 58.5913 233.599 59.8087 233.599 61.2586V72.4429H230.224V61.6708C230.224 60.3964 229.897 59.4004 229.242 58.683C228.587 57.9578 227.688 57.5955 226.543 57.5955C225.761 57.5955 225.064 57.7672 224.456 58.1106C223.852 58.4541 223.374 58.9578 223.02 59.6218C222.675 60.2779 222.501 61.0717 222.501 62.0028ZM246.812 72.4429V48.9984H255.053C256.853 48.9984 258.342 49.3304 259.524 49.9944C260.706 50.6582 261.59 51.5663 262.177 52.7188C262.763 53.8637 263.058 55.1533 263.058 56.5882C263.058 58.0304 262.762 59.3279 262.167 60.4802C261.58 61.6251 260.691 62.5332 259.501 63.2047C258.319 63.8687 256.834 64.2007 255.043 64.2007H249.375V61.2014H254.726C255.863 61.2014 256.784 61.0031 257.492 60.6062C258.199 60.2016 258.718 59.6522 259.05 58.9578C259.381 58.2632 259.546 57.4734 259.546 56.5882C259.546 55.7028 259.381 54.9167 259.05 54.2298C258.718 53.543 258.196 53.0049 257.481 52.6157C256.773 52.2266 255.839 52.032 254.681 52.032H250.301V72.4429H246.812ZM266.878 72.4429V54.8595H270.14V57.6528H270.32C270.637 56.7063 271.192 55.9624 271.992 55.4205C272.797 54.871 273.707 54.5962 274.723 54.5962C274.935 54.5962 275.182 54.6038 275.468 54.6192C275.761 54.6344 275.99 54.6533 276.159 54.6764V57.9503C276.022 57.9123 275.78 57.8703 275.435 57.8244C275.09 57.7709 274.741 57.7443 274.396 57.7443C273.598 57.7443 272.888 57.916 272.261 58.2595C271.645 58.5952 271.155 59.0646 270.795 59.6675C270.433 60.2628 270.253 60.9419 270.253 61.7051V72.4429H266.878ZM285.763 72.7978C284.136 72.7978 282.717 72.4201 281.505 71.6646C280.293 70.9091 279.354 69.8521 278.682 68.4935C278.014 67.1351 277.679 65.5477 277.679 63.7313C277.679 61.9074 278.014 60.3124 278.682 58.9462C279.354 57.5803 280.293 56.5194 281.505 55.7639C282.717 55.0082 284.136 54.6306 285.763 54.6306C287.387 54.6306 288.808 55.0082 290.019 55.7639C291.231 56.5194 292.172 57.5803 292.842 58.9462C293.512 60.3124 293.845 61.9074 293.845 63.7313C293.845 65.5477 293.512 67.1351 292.842 68.4935C292.172 69.8521 291.231 70.9091 290.019 71.6646C288.808 72.4201 287.387 72.7978 285.763 72.7978ZM285.774 69.9245C286.827 69.9245 287.7 69.6421 288.392 69.0775C289.086 68.5127 289.598 67.7609 289.928 66.8223C290.268 65.8834 290.436 64.8494 290.436 63.7199C290.436 62.598 290.268 61.5677 289.928 60.6291C289.598 59.6827 289.086 58.9235 288.392 58.3511C287.7 57.7786 286.827 57.4925 285.774 57.4925C284.712 57.4925 283.832 57.7786 283.131 58.3511C282.44 58.9235 281.923 59.6827 281.586 60.6291C281.254 61.5677 281.088 62.598 281.088 63.7199C281.088 64.8494 281.254 65.8834 281.586 66.8223C281.923 67.7609 282.44 68.5127 283.131 69.0775C283.832 69.6421 284.712 69.9245 285.774 69.9245ZM297.614 54.8595H300.99V73.5878C300.99 74.763 300.779 75.7551 300.357 76.564C299.943 77.3731 299.326 77.9875 298.505 78.4072C297.693 78.827 296.688 79.0367 295.491 79.0367C295.372 79.0367 295.259 79.0367 295.153 79.0367C295.04 79.0367 294.924 79.033 294.803 79.0253V76.0834C294.907 76.0834 295.002 76.0834 295.086 76.0834C295.162 76.0834 295.247 76.0834 295.345 76.0834C296.143 76.0834 296.719 75.8657 297.072 75.4308C297.434 75.0034 297.614 74.3814 297.614 73.5649V54.8595ZM299.284 52.1463C298.697 52.1463 298.193 51.948 297.771 51.5513C297.358 51.1466 297.151 50.6659 297.151 50.1087C297.151 49.5439 297.358 49.0632 297.771 48.6664C298.193 48.262 298.697 48.0595 299.284 48.0595C299.872 48.0595 300.372 48.262 300.786 48.6664C301.208 49.0632 301.419 49.5439 301.419 50.1087C301.419 50.6659 301.208 51.1466 300.786 51.5513C300.372 51.948 299.872 52.1463 299.284 52.1463ZM313.006 72.7978C311.297 72.7978 309.824 72.4277 308.59 71.6874C307.363 70.9394 306.415 69.8902 305.745 68.5393C305.082 67.1809 304.752 65.5897 304.752 63.7658C304.752 61.9646 305.082 60.3773 305.745 59.0035C306.415 57.6298 307.35 56.5575 308.545 55.7868C309.749 55.0159 311.158 54.6306 312.769 54.6306C313.747 54.6306 314.695 54.7945 315.612 55.1229C316.531 55.451 317.356 55.9662 318.085 56.6682C318.816 57.3703 319.392 58.2823 319.812 59.4043C320.235 60.5185 320.445 61.8731 320.445 63.4681V64.6816H306.66V62.1172H317.137C317.137 61.2168 316.957 60.4191 316.595 59.7247C316.233 59.0226 315.727 58.4692 315.07 58.0649C314.424 57.6603 313.664 57.458 312.791 57.458C311.843 57.458 311.015 57.6946 310.308 58.1678C309.606 58.6335 309.065 59.2439 308.68 59.9994C308.304 60.7474 308.116 61.5602 308.116 62.4378V64.4412C308.116 65.6165 308.319 66.6162 308.725 67.4403C309.141 68.2645 309.717 68.8942 310.452 69.3293C311.191 69.7565 312.053 69.9702 313.038 69.9702C313.678 69.9702 314.262 69.8786 314.789 69.6956C315.316 69.5047 315.772 69.2224 316.154 68.8484C316.538 68.4744 316.833 68.0127 317.035 67.4634L320.23 68.0472C319.974 69.001 319.514 69.8367 318.853 70.5542C318.198 71.2639 317.375 71.8172 316.382 72.214C315.395 72.6032 314.269 72.7978 313.006 72.7978ZM331.496 72.7978C329.817 72.7978 328.373 72.4124 327.161 71.6415C325.955 70.8631 325.03 69.791 324.381 68.4249C323.735 67.0588 323.412 65.4942 323.412 63.7313C323.412 61.9455 323.742 60.3696 324.405 59.0035C325.067 57.6298 326.001 56.5575 327.205 55.7868C328.41 55.0159 329.827 54.6306 331.462 54.6306C332.778 54.6306 333.954 54.8785 334.984 55.3747C336.016 55.8631 336.846 56.5499 337.479 57.4352C338.118 58.3204 338.499 59.3545 338.618 60.5376H335.334C335.154 59.7133 334.74 59.0035 334.092 58.4083C333.452 57.8129 332.593 57.5154 331.518 57.5154C330.577 57.5154 329.752 57.7672 329.045 58.2709C328.346 58.7669 327.8 59.4767 327.408 60.4002C327.018 61.3159 326.821 62.3997 326.821 63.6512C326.821 64.9333 327.013 66.04 327.396 66.9711C327.782 67.9021 328.322 68.6233 329.023 69.1347C329.73 69.6461 330.561 69.9016 331.518 69.9016C332.157 69.9016 332.736 69.7833 333.257 69.5467C333.784 69.3026 334.223 68.9553 334.576 68.505C334.938 68.0547 335.191 67.5129 335.334 66.8794H338.618C338.499 68.0166 338.134 69.0316 337.524 69.9245C336.915 70.8174 336.098 71.5195 335.073 72.0309C334.058 72.5421 332.866 72.7978 331.496 72.7978ZM350.324 54.8595V57.6069H340.852V54.8595H350.324ZM343.391 50.6468H346.768V67.2801C346.768 67.9441 346.866 68.444 347.061 68.7798C347.256 69.1079 347.509 69.333 347.817 69.4551C348.133 69.5696 348.477 69.6268 348.845 69.6268C349.115 69.6268 349.352 69.6077 349.556 69.5696C349.76 69.5314 349.918 69.501 350.031 69.4781L350.64 72.3057C350.445 72.382 350.165 72.4583 349.805 72.5346C349.443 72.6184 348.992 72.6643 348.45 72.672C347.561 72.6872 346.734 72.5269 345.967 72.191C345.199 71.8552 344.576 71.3365 344.103 70.6342C343.628 69.9322 343.391 69.0507 343.391 67.9898V50.6468ZM361.603 52.0434V48.9984H379.498V52.0434H372.283V72.4429H368.806V52.0434H361.603ZM388.139 72.7978C386.432 72.7978 384.961 72.4277 383.725 71.6874C382.5 70.9394 381.55 69.8902 380.88 68.5393C380.219 67.1809 379.887 65.5897 379.887 63.7658C379.887 61.9646 380.219 60.3773 380.88 59.0035C381.55 57.6298 382.483 56.5575 383.681 55.7868C384.885 55.0159 386.291 54.6306 387.902 54.6306C388.882 54.6306 389.829 54.7945 390.749 55.1229C391.666 55.451 392.489 55.9662 393.222 56.6682C393.951 57.3703 394.526 58.2823 394.949 59.4043C395.37 60.5185 395.58 61.8731 395.58 63.4681V64.6816H381.796V62.1172H392.272C392.272 61.2168 392.09 60.4191 391.73 59.7247C391.37 59.0226 390.86 58.4692 390.207 58.0649C389.558 57.6603 388.797 57.458 387.925 57.458C386.976 57.458 386.149 57.6946 385.441 58.1678C384.742 58.6335 384.2 59.2439 383.816 59.9994C383.439 60.7474 383.252 61.5602 383.252 62.4378V64.4412C383.252 65.6165 383.454 66.6162 383.862 67.4403C384.276 68.2645 384.85 68.8942 385.589 69.3293C386.326 69.7565 387.188 69.9702 388.175 69.9702C388.814 69.9702 389.397 69.8786 389.924 69.6956C390.451 69.5047 390.905 69.2224 391.289 68.8484C391.674 68.4744 391.967 68.0127 392.171 67.4634L395.366 68.0472C395.11 69.001 394.651 69.8367 393.988 70.5542C393.334 71.2639 392.509 71.8172 391.516 72.214C390.53 72.6032 389.405 72.7978 388.139 72.7978ZM404.373 72.8321C403.274 72.8321 402.279 72.6261 401.391 72.214C400.503 71.7943 399.799 71.1876 399.28 70.3939C398.769 69.6002 398.513 68.627 398.513 67.4748C398.513 66.4826 398.701 65.666 399.078 65.025C399.454 64.3839 399.96 63.8764 400.6 63.5024C401.24 63.1286 401.955 62.8462 402.747 62.6552C403.536 62.4646 404.343 62.3195 405.162 62.2203C406.201 62.0981 407.045 61.9991 407.693 61.9228C408.339 61.8388 408.809 61.7051 409.103 61.522C409.396 61.3388 409.543 61.0411 409.543 60.6291V60.5488C409.543 59.5492 409.265 58.7746 408.708 58.2252C408.159 57.6755 407.337 57.4009 406.247 57.4009C405.11 57.4009 404.215 57.6566 403.56 58.1678C402.913 58.6715 402.465 59.2324 402.216 59.8505L399.043 59.1181C399.42 58.0495 399.969 57.1872 400.691 56.5308C401.422 55.8668 402.26 55.3861 403.21 55.0884C404.157 54.7832 405.156 54.6306 406.201 54.6306C406.893 54.6306 407.627 54.7145 408.401 54.8824C409.184 55.0427 409.916 55.3404 410.593 55.7753C411.278 56.2103 411.839 56.8323 412.275 57.6414C412.711 58.4424 412.93 59.4844 412.93 60.7665V72.4429H409.632V70.039H409.497C409.278 70.4816 408.952 70.9167 408.516 71.344C408.078 71.7712 407.519 72.1261 406.834 72.4086C406.149 72.6909 405.327 72.8321 404.373 72.8321ZM405.107 70.0848C406.039 70.0848 406.837 69.8979 407.501 69.5239C408.169 69.1499 408.677 68.6615 409.023 68.0584C409.378 67.448 409.555 66.7955 409.555 66.1009V63.8344C409.433 63.9566 409.201 64.071 408.854 64.1778C408.516 64.277 408.127 64.3647 407.693 64.4412C407.255 64.5098 406.829 64.5747 406.415 64.6356C406.002 64.6891 405.656 64.735 405.376 64.7731C404.721 64.857 404.124 64.9982 403.582 65.1967C403.048 65.3951 402.619 65.6811 402.295 66.0553C401.979 66.4216 401.821 66.91 401.821 67.5206C401.821 68.3676 402.129 69.0087 402.747 69.4438C403.363 69.8711 404.149 70.0848 405.107 70.0848ZM417.426 72.4429V54.8595H420.665V57.7214H420.881C421.243 56.7522 421.834 55.9966 422.654 55.4548C423.475 54.9053 424.457 54.6306 425.601 54.6306C426.76 54.6306 427.731 54.9053 428.514 55.4548C429.303 56.0042 429.887 56.7597 430.263 57.7214H430.443C430.857 56.7826 431.517 56.0348 432.419 55.4778C433.322 54.913 434.399 54.6306 435.648 54.6306C437.221 54.6306 438.505 55.1304 439.498 56.1302C440.5 57.13 441 58.6372 441 60.6519V72.4429H437.623V60.9725C437.623 59.7819 437.305 58.9195 436.665 58.3853C436.025 57.8512 435.259 57.584 434.372 57.584C433.273 57.584 432.419 57.9275 431.81 58.6143C431.201 59.2935 430.896 60.1673 430.896 61.2359V72.4429H427.531V60.755C427.531 59.801 427.238 59.0341 426.65 58.4541C426.063 57.874 425.298 57.584 424.357 57.584C423.718 57.584 423.127 57.7557 422.586 58.0992C422.051 58.4349 421.618 58.9044 421.287 59.5073C420.963 60.1102 420.802 60.8085 420.802 61.602V72.4429H417.426Z" fill="white"/>
</g>
<defs>
<clipPath id="clip0_2081_5663">
<rect width="441" height="82" fill="white"/>
</clipPath>
</defs>
</svg>
