<svg xmlns="http://www.w3.org/2000/svg" width="100%" height="100%" viewBox="0 0 1155 219">
    <g fill="none" fill-rule="evenodd">
        <path fill="#FF524A" d="M646.72 211.046l41.187-60.442-13.372 1.605-44.93 52.42zM478.232 218h25.674l109.117-103.767L579.86 103z"/>
        <path fill="#FF294A" d="M613.023 114.232l33.697 96.814-17.116-6.418L579.86 103z"/>
        <path fill="#FF524A" d="M803.875 159.422l-60.396 40.422-11.274 1L792 157.997z"/>
        <path fill="#FF294A" d="M674.535 152.21L751.559 218h26.209l-89.861-67.396zM828.574 211.67L792 157.996l11.874 1.424 39.898 46.548z"/>
        <path fill="#FF524A" d="M985.758 218h29.092l85.496-73.028-14.843-1.78z"/>
        <path fill="#FF334A" d="M1131.22 218.282l22.999-.125-53.873-73.185-14.842-1.781z"/>
        <path fill="#FF524A" d="M875.624 112.143l-47.404 99.463 18.999-7.124 55.216-112.807z"/>
        <path fill="#FF334A" d="M875.624 112.143l111.12 106.182h28.497L902.435 91.675z"/>
        <path fill="#FF3F4A" d="M320 101l-11-10-114.714 127H524L392 30z"/>
        <path fill="#FF654A" d="M194.287 218h104.017L309 91z"/>
        <path fill="#FF294A" d="M181 0L0 218h334z"/>
        <path fill="#FF524A" d="M181 0L0 218h150.63L164 127l-10-10z"/>
        <path fill="#FF654A" d="M320 101l14 117 58-188z"/>
    </g>
</svg>
