<svg width="300" height="300" viewBox="0 0 300 300" fill="none" xmlns="http://www.w3.org/2000/svg">
<g clip-path="url(#clip0_572_220)">
<rect width="300" height="300" fill="#FACCCC"/>
<path d="M153.671 211.694C158.32 224.718 200.349 241.272 219.458 256.678C236.356 269.745 244.619 258.101 245.563 247.761C247.214 229.645 184.279 199.495 166.94 195.032C153.644 191.609 149.843 200.969 153.671 211.694Z" fill="#C93B3B"/>
<path d="M130.861 240.241C139.424 254.278 124.167 291.534 122.515 315.668C120.517 336.521 96.9849 331.411 86.1744 322.829C67.2359 307.795 92.5756 246.435 103.271 232.913C111.473 222.544 123.809 228.681 130.861 240.241Z" fill="#E95755"/>
<path d="M167.305 234.608C155.295 245.841 160.016 285.82 155.143 309.515C151.483 330.141 175.525 331.516 188.239 326.141C210.513 316.725 202.533 250.823 195.85 234.932C190.725 222.746 177.195 225.357 167.305 234.608Z" fill="#E95755"/>
<path d="M147.268 294.191C139.986 294.191 96.6711 291.183 97.8173 250.418C99.2605 199.083 119.293 172.219 147.268 171.742V171.736C147.395 171.736 147.522 171.736 147.648 171.737C147.775 171.736 147.902 171.736 148.029 171.736V171.742C176.004 172.219 196.036 199.083 197.479 250.418C198.625 291.183 155.278 294.191 148.029 294.191H147.268Z" fill="#E95755"/>
<path d="M126.485 204.976C123.726 221.184 87.7501 239.274 70.6545 256.395C55.4527 270.813 41.0578 251.515 38.539 237.948C34.1269 214.178 93.538 184.523 110.486 181.342C123.483 178.903 128.758 191.628 126.485 204.976Z" fill="#E95755"/>
<path d="M170.175 202.428C172.935 218.637 208.91 236.727 226.006 253.848C241.207 268.266 255.602 248.968 258.121 235.4C262.533 211.631 203.122 181.975 186.174 178.795C173.177 176.356 167.902 189.08 170.175 202.428Z" fill="#E95755"/>
<ellipse cx="28.488" cy="42.7171" rx="28.488" ry="42.7171" transform="matrix(0.998601 0.0528745 -0.0529116 0.998599 118.613 207.311)" fill="#F08988"/>
<ellipse cx="146.936" cy="180.279" rx="27.7758" ry="12.8151" fill="#F08988"/>
<path fill-rule="evenodd" clip-rule="evenodd" d="M157.343 186.959C155.222 187.284 111.682 193.317 90.0345 165.424C74.9537 145.989 75.8504 116.07 76.0283 110.133L76.0309 110.046C76.1294 106.778 76.3681 104.072 76.5682 102.229C66.0352 93.5188 61.853 80.2659 65.8693 69.6386C68.378 62.9977 74.2856 57.0189 82.1712 54.9499C91.3396 52.5456 101.362 55.9514 107.894 63.7325C113.666 61.4369 120.517 58.9037 128.432 57.4023C129.334 57.2309 130.222 57.0532 131.098 56.8781C133.807 56.3363 136.394 55.8192 138.88 55.5894L145.935 105.788C145.936 105.788 145.937 105.787 145.939 105.787L138.884 55.589C141.337 55.1244 143.966 54.9087 146.72 54.6827C147.61 54.6096 148.513 54.5355 149.427 54.4515C157.449 53.7133 164.733 54.26 170.914 54.8756C175.048 45.5955 183.744 39.559 193.22 39.343C201.37 39.1584 208.697 43.2772 212.939 48.9694C219.729 58.0779 219.362 71.9701 211.634 83.2464C212.334 84.9629 213.31 87.4982 214.305 90.6127L214.332 90.6953C216.139 96.3539 225.248 124.866 216.108 147.705C202.988 180.485 159.471 186.687 157.343 186.959ZM157.343 186.959L157.346 186.958L155.772 175.753C155.77 175.753 155.769 175.753 155.768 175.753L157.343 186.959Z" fill="#E95755"/>
<path d="M146.057 168.406L151.905 168.416C159.333 168.429 166.178 164.441 169.819 157.979C172.27 153.628 169.386 148.184 164.401 147.755L133.78 145.12C129.339 144.738 125.831 148.795 126.847 153.137C128.936 162.062 136.898 168.39 146.057 168.406Z" fill="#762B2B"/>
<path d="M157.276 167.559C151.468 170 142.161 169.276 137.487 166.358C130.738 162.144 138.684 159.048 146.687 159.062C155.357 159.077 165.648 164.041 157.276 167.559Z" fill="#F08988"/>
<path d="M150.541 140.115L150.256 144.344" stroke="#762B2B" stroke-width="4.80752" stroke-linecap="round" stroke-linejoin="round"/>
<path d="M146.204 141.347L147.768 142.321C149.569 143.442 151.802 143.604 153.735 142.753L155.415 142.015C158.469 140.672 157.664 136.123 154.329 135.881L148.102 135.429C144.767 135.188 143.359 139.576 146.204 141.347Z" fill="#461A1A"/>
<ellipse cx="123.399" cy="128.02" rx="6.97975" ry="7.06725" transform="rotate(-8 123.399 128.02)" fill="#461A1A"/>
<ellipse cx="173.147" cy="122.243" rx="6.97975" ry="7.06725" transform="rotate(-8 173.147 122.243)" fill="#461A1A"/>
</g>
<defs>
<clipPath id="clip0_572_220">
<rect width="300" height="300" fill="white"/>
</clipPath>
</defs>
</svg>
