<svg width="300" height="300" viewBox="0 0 300 300" fill="none" xmlns="http://www.w3.org/2000/svg">
<g clip-path="url(#clip0_572_120)">
<rect width="300" height="300" fill="#B2EAF6"/>
<path d="M43.9312 277.444C21.9421 275.282 -14.2427 315.5 -42.4885 331.593C-66.5603 346.189 -46.6372 371.677 -29.9392 379.745C-0.685291 393.878 58.7861 327.383 68.9077 306.545C76.6696 290.566 62.0399 279.225 43.9312 277.444Z" fill="#E95755"/>
<path d="M9.67312 282.076C13.9777 303.748 -22.5038 343.697 -35.7546 373.383C-47.9237 398.768 -75.2392 381.436 -84.9031 365.608C-101.833 337.879 -41.4804 272.182 -21.7338 260.069C-6.59091 250.78 6.12815 264.229 9.67312 282.076Z" fill="#E95755"/>
<path d="M28.1749 229.796C17.1945 248.97 -36.5508 255.154 -66.0349 268.848C-91.8799 280.007 -101.106 249.001 -98.0049 230.717C-92.5708 198.686 -3.91597 188.751 18.9317 192.577C36.4527 195.511 37.2177 214.006 28.1749 229.796Z" fill="#C93B3B"/>
<path d="M80.4514 229.973C95.4916 213.787 149.24 219.944 181.06 213.289C208.762 208.278 210.721 240.568 203.557 257.673C191.004 287.64 102.405 277.223 81.0188 268.318C64.6187 261.49 68.0653 243.302 80.4514 229.973Z" fill="#E95755"/>
<path d="M150.175 203.403C152.371 219.103 133.408 234.731 107.819 238.31C82.2308 241.889 59.7071 232.064 57.5112 216.364C55.3153 200.664 74.2788 185.036 99.8673 181.457C125.456 177.878 147.98 187.704 150.175 203.403Z" fill="#C93B3B"/>
<path d="M-20.1658 328.954C-28.6279 324.046 -76.9362 291.355 -48.119 244.737C-11.8304 186.032 29.5607 168.305 62.3926 186.605L62.3969 186.598C62.5444 186.684 62.6914 186.77 62.8378 186.856C62.9856 186.94 63.1333 187.025 63.2808 187.111L63.2764 187.118C95.4651 206.528 100.632 251.258 67.6982 311.908C41.5449 360.071 -10.8579 334.352 -19.2819 329.466L-20.1658 328.954Z" fill="#E95755"/>
<ellipse cx="19.1409" cy="284.366" rx="38.271" ry="57.4065" transform="rotate(25.2659 19.1409 284.366)" fill="#F08988"/>
<path d="M88.9957 221.865C85.7207 230.795 67.3812 232.281 48.0333 225.186C28.6853 218.09 15.6556 205.099 18.9305 196.169C22.2055 187.239 40.545 185.752 59.8929 192.848C79.2409 199.944 92.2706 212.935 88.9957 221.865Z" fill="#F08988"/>
<path fill-rule="evenodd" clip-rule="evenodd" d="M65.1447 223.006C67.9673 223.834 126.03 239.94 160.368 206.474C184.291 183.155 188.371 142.824 189.181 134.82L189.193 134.703C189.638 130.297 189.793 126.62 189.848 124.109C205.699 114.354 213.726 97.3312 210.154 82.3254C207.923 72.9485 200.959 63.8355 190.616 59.6076C178.59 54.6938 164.376 57.4232 154.127 66.6681C146.695 62.5249 137.839 57.8641 127.357 54.393C126.162 53.997 124.987 53.595 123.828 53.1989C120.245 51.9734 116.824 50.8035 113.488 50.0377L95.0164 116.134C95.015 116.133 95.0136 116.133 95.0122 116.133L113.483 50.0375C110.233 48.9625 106.702 48.1895 103.002 47.3797C101.806 47.118 100.593 46.8524 99.3658 46.5715C88.6026 44.1053 78.6138 43.4998 70.11 43.1894C66.1389 29.9705 55.3991 20.2674 42.5685 18.2349C31.5323 16.4882 20.8526 20.6704 14.0837 27.5322C3.24932 38.5119 1.28769 57.23 9.78089 73.7883C8.52573 75.9639 6.75218 79.1882 4.84866 83.1864L4.79815 83.2926C1.34092 90.5571 -16.0787 127.16 -7.71104 159.503C4.30167 205.923 62.3024 222.25 65.1447 223.006ZM69.2676 208.254L65.1447 223.006L65.1492 223.008L69.272 208.255C69.2705 208.255 69.2691 208.254 69.2676 208.254Z" fill="#E95755"/>
<path d="M70.38 197.288L78.3946 200.227C87.8162 203.683 98.367 201.825 106.041 195.359C111.255 190.966 110.144 182.646 103.961 179.775L65.647 161.987C60.1591 159.44 53.7825 162.989 53.0557 168.995C51.5663 181.303 58.7401 193.019 70.38 197.288Z" fill="#762B2B"/>
<path d="M85.4825 201.575C76.8615 201.949 65.2171 196.657 60.567 190.755C53.8516 182.23 65.5319 182.03 75.8293 185.806C86.9851 189.897 97.9089 201.037 85.4825 201.575Z" fill="#F08988"/>
<path d="M89.666 163.544L87.3183 168.783" stroke="#762B2B" stroke-width="6.59009" stroke-linecap="round" stroke-linejoin="round"/>
<path d="M83.6473 163.255L85.0841 165.074C86.8647 167.328 89.6347 168.569 92.5022 168.398L94.816 168.26C99.4029 167.987 100.544 161.745 96.3512 159.865L88.8916 156.522C84.6983 154.643 80.7989 159.649 83.6473 163.255Z" fill="#461A1A"/>
<circle cx="60.3866" cy="135.429" r="9.56775" transform="rotate(12.1402 60.3866 135.429)" fill="black" fill-opacity="0.7"/>
<circle cx="127.148" cy="151.456" r="9.56775" transform="rotate(12.1402 127.148 151.456)" fill="black" fill-opacity="0.7"/>
<path d="M45.0715 49.2787C28.3133 54.7151 14.7729 67.08 9.91432 73.0481C2.41407 59.3463 1.90536 33.3513 21.1616 22.6647C36.4149 27.598 46.4806 34.7869 45.0715 49.2787Z" fill="#C93B3B" stroke="#C93B3B" stroke-width="2"/>
<path d="M173.14 84.8399C184.592 98.2281 189.242 115.412 190.269 123.039C203.821 115.272 216.754 92.567 205.914 73.3969C190.329 69.6377 179.507 71.7455 173.14 84.8399Z" fill="#C93B3B" stroke="#C93B3B" stroke-width="2"/>
<circle cx="3.10254" cy="184.465" r="10" fill="#762B2B"/>
<circle cx="3.10254" cy="202.465" r="10" fill="#762B2B"/>
<circle cx="3.10352" cy="220.465" r="10" fill="#762B2B"/>
</g>
<defs>
<clipPath id="clip0_572_120">
<rect width="300" height="300" fill="white"/>
</clipPath>
</defs>
</svg>
