<svg width="300" height="300" viewBox="0 0 300 300" fill="none" xmlns="http://www.w3.org/2000/svg">
<g clip-path="url(#clip0_572_24)">
<rect width="300" height="300" fill="white"/>
<rect width="300" height="300" fill="#3AB250"/>
<path d="M162.097 212.791C161.438 196.02 193.55 170.375 207.014 149.674C219.156 132.071 237.594 148.316 242.967 161.338C252.38 184.152 199.304 226.283 183.051 233.029C170.587 238.202 162.64 226.602 162.097 212.791Z" fill="#E95755"/>
<path d="M114.968 265.037C123.706 279.367 108.137 317.399 106.452 342.036C104.412 363.323 80.3987 358.106 69.3669 349.346C50.0406 333.998 75.8992 271.36 86.8136 257.557C95.1835 246.971 107.772 253.236 114.968 265.037Z" fill="#E95755"/>
<path d="M152.159 259.287C139.903 270.754 144.721 311.566 139.748 335.755C136.014 356.81 160.547 358.214 173.522 352.727C196.252 343.114 188.109 275.84 181.288 259.618C176.058 247.178 162.252 249.844 152.159 259.287Z" fill="#E95755"/>
<ellipse cx="174.281" cy="186.237" rx="35.5373" ry="21.8035" transform="rotate(-43.883 174.281 186.237)" fill="#C93B3B"/>
<path d="M131.712 320.112C124.281 320.112 80.0788 317.041 81.2484 275.426C82.7212 223.021 103.163 195.598 131.712 195.112V195.105C131.841 195.105 131.97 195.106 132.1 195.107C132.229 195.106 132.358 195.105 132.488 195.105V195.112C161.036 195.598 181.478 223.021 182.951 275.426C184.121 317.041 139.885 320.112 132.488 320.112H131.712Z" fill="#E95755"/>
<path d="M110.502 229.038C107.686 245.584 70.9735 264.051 53.5278 281.528C38.0148 296.247 23.3252 276.547 20.7548 262.697C16.2524 238.432 76.8799 208.159 94.1749 204.912C107.438 202.422 112.821 215.412 110.502 229.038Z" fill="#E95755"/>
<path d="M176.432 342.643C178.465 337.443 185.168 331.014 182.246 294.674C180.776 276.392 177.259 260.515 170.618 232.898" stroke="#C93B3B" stroke-width="13.3492" stroke-linecap="round" stroke-linejoin="round"/>
<ellipse cx="129.193" cy="276.506" rx="29.0713" ry="43.607" transform="rotate(3.03197 129.193 276.506)" fill="#F08988"/>
<ellipse cx="131.373" cy="203.826" rx="28.3445" ry="13.0821" fill="#F08988"/>
<path fill-rule="evenodd" clip-rule="evenodd" d="M142.308 209.848C140.099 210.186 94.7616 216.47 72.276 187.816C56.611 167.852 57.5976 137.075 57.7934 130.967L57.7963 130.877C57.9046 127.515 58.1579 124.732 58.3696 122.835C47.4198 113.895 43.0896 100.27 47.2896 89.3312C49.913 82.4957 56.0736 76.3353 64.2864 74.1929C73.8352 71.7035 84.2626 75.1891 91.0488 83.1813C97.0619 80.8098 104.199 78.1919 112.44 76.6334C113.38 76.4555 114.305 76.2711 115.217 76.0895C118.038 75.5274 120.732 74.9908 123.321 74.7501L130.576 126.373C130.577 126.373 130.578 126.373 130.579 126.373L123.324 74.7496C125.88 74.2673 128.616 74.0408 131.483 73.8034C132.41 73.7267 133.35 73.6488 134.302 73.5608C142.655 72.7872 150.236 73.3366 156.67 73.9588C160.99 64.4057 170.053 58.1809 179.918 57.9419C188.403 57.7375 196.023 61.9612 200.429 67.8089C207.482 77.1661 207.075 91.4568 199.01 103.07C199.736 104.834 200.747 107.44 201.778 110.642L201.805 110.727C203.677 116.545 213.109 145.857 203.553 169.366C189.837 203.108 144.524 209.565 142.308 209.848ZM142.308 209.848L142.311 209.847L140.692 198.324C140.69 198.324 140.689 198.324 140.688 198.324L142.308 209.848Z" fill="#E95755"/>
<path d="M130.381 190.784H136.866C144.489 190.784 151.527 186.7 155.309 180.081C157.878 175.585 154.91 169.942 149.749 169.512L117.773 166.847C113.193 166.465 109.573 170.664 110.626 175.138C112.783 184.305 120.963 190.784 130.381 190.784Z" fill="#762B2B"/>
<path d="M142.272 189.893C136.222 192.414 126.533 191.686 121.673 188.692C114.654 184.369 122.932 181.171 131.264 181.171C140.29 181.171 150.994 186.259 142.272 189.893Z" fill="#F08988"/>
<path d="M135.31 161.675L135.005 166.025" stroke="#762B2B" stroke-width="5.00595" stroke-linecap="round" stroke-linejoin="round"/>
<path d="M130.941 163.042L132.441 163.964C134.301 165.106 136.601 165.267 138.601 164.395L140.215 163.691C143.415 162.296 142.596 157.546 139.114 157.303L132.92 156.869C129.438 156.626 127.966 161.216 130.941 163.042Z" fill="#461A1A"/>
<circle cx="107.075" cy="149.282" r="7.26783" transform="rotate(-8 107.075 149.282)" fill="#461A1A"/>
<circle cx="158.879" cy="143.251" r="7.26783" transform="rotate(-8 158.879 143.251)" fill="#461A1A"/>
</g>
<defs>
<clipPath id="clip0_572_24">
<rect width="300" height="300" fill="white"/>
</clipPath>
</defs>
</svg>
