<svg width="380" height="100" viewBox="0 0 380 100" fill="none" xmlns="http://www.w3.org/2000/svg">
<g clip-path="url(#clip0_3701_8454)">
<path d="M41.8142 0H0V100L41.8142 0Z" fill="#FA0C00"/>
<path d="M71.2339 0H112.994V100L71.2339 0Z" fill="#FA0C00"/>
<path d="M56.524 36.8564L83.138 100H65.6768L57.7226 79.8965H38.2456L56.524 36.8564Z" fill="#FA0C00"/>
<path d="M181.212 63.5926L186.143 77.7304C186.306 78.0846 186.551 78.248 186.987 78.248H196.467C196.984 78.248 197.066 78.0028 196.984 77.4853L177.399 23.0859C177.317 22.6501 177.235 22.5684 176.799 22.5684H165.031C164.704 22.5684 164.514 22.8135 164.514 23.1676C164.35 26.0279 164.105 26.8996 163.751 27.7441L146.29 77.4036C146.208 78.0029 146.399 78.248 146.889 78.248H155.361C155.878 78.248 156.124 78.0846 156.314 77.567L160.972 63.5926H181.212ZM163.669 54.3581C166.23 46.6218 169.608 36.7062 170.97 31.0402H171.051C172.74 36.9786 176.717 48.7465 178.515 54.3581H163.669Z" fill="#FA0C00"/>
<path d="M222.163 79.0934C227.257 79.0934 232.678 78.1672 238.181 75.7973C238.617 75.6338 238.698 75.4432 238.698 75.0345C238.535 73.5091 238.344 71.3026 238.344 69.6137V18.4015C238.344 18.0746 238.344 17.9111 237.936 17.9111H228.701C228.347 17.9111 228.184 18.0746 228.184 18.5104V35.8626C226.74 35.6992 225.732 35.6175 224.533 35.6175C209.633 35.6175 200.48 45.4513 200.48 57.7368C200.48 71.9836 209.878 79.0934 222.163 79.0934ZM228.184 69.6137C226.658 70.104 224.969 70.2947 223.253 70.2947C216.497 70.2947 210.968 66.481 210.968 57.2192C210.968 49.0198 216.661 44.171 224.206 44.171C225.732 44.171 227.067 44.3345 228.184 44.7703V69.6137Z" fill="#FA0C00"/>
<path d="M268.159 35.6172C255.438 35.6172 247.565 45.3693 247.565 57.4096C247.565 68.1696 253.831 79.0931 267.969 79.0931C279.927 79.0931 288.317 70.2944 288.317 57.1372C288.317 45.5327 281.207 35.6172 268.159 35.6172ZM267.642 44.1707C274.833 44.1707 277.884 50.3543 277.884 57.4096C277.884 66.1266 273.389 70.4578 268.159 70.4578C261.703 70.4578 257.89 65.037 257.89 57.2189C257.89 49.183 261.948 44.1707 267.642 44.1707Z" fill="#FA0C00"/>
<path d="M297.865 17.9111C297.511 17.9111 297.266 18.0746 297.266 18.5104V76.4783C297.266 76.7235 297.511 77.1593 297.865 77.241C301.924 78.4941 306.173 79.0934 310.559 79.0934C323.117 79.0934 335.321 71.3026 335.321 55.612C335.321 44.2527 327.53 35.6175 315.326 35.6175C312.52 35.6175 309.905 36.0533 307.617 36.8161L307.508 18.5921C307.508 17.9929 307.345 17.9111 306.745 17.9111H297.865ZM324.888 56.6472C324.888 66.0452 318.459 70.4581 311.512 70.4581C310.069 70.4581 308.788 70.3764 307.617 70.0223V45.2879C308.952 44.7703 310.559 44.3345 313.528 44.3345C320.229 44.3345 324.888 48.584 324.888 56.6472Z" fill="#FA0C00"/>
<path d="M369.783 59.6978C373.924 59.6978 377.329 59.6161 378.5 59.3437C378.936 59.262 379.1 59.0985 379.181 58.7444C379.427 57.8182 379.535 55.8841 379.535 53.5142C379.535 45.451 374.687 35.6172 362.156 35.6172C349.353 35.6172 342.243 46.0503 342.243 57.8182C342.243 68.2513 347.746 79.0931 363.164 79.0931C368.939 79.0931 372.671 78.1669 375.885 76.6414C376.212 76.478 376.376 76.2056 376.376 75.7153V68.66C376.376 68.2513 376.13 68.1696 375.885 68.3331C372.671 69.6951 369.184 70.3761 365.37 70.3761C356.735 70.3761 352.812 65.609 352.567 59.6978H369.783ZM352.567 52.3974C353.248 48.2568 355.863 43.7621 361.72 43.7621C368.176 43.7621 369.865 49.183 369.865 51.6346C369.865 51.7163 369.865 52.0705 369.865 52.3156C369.511 52.3974 368.421 52.3974 365.207 52.3974H352.567Z" fill="#FA0C00"/>
</g>
<defs>
<clipPath id="clip0_3701_8454">
<rect width="379.533" height="100" fill="white"/>
</clipPath>
</defs>
</svg>
