<svg width="501" height="101" viewBox="0 0 501 101" fill="none" xmlns="http://www.w3.org/2000/svg">
<g clip-path="url(#clip0_3701_8466)">
<path fill-rule="evenodd" clip-rule="evenodd" d="M487.897 76.2853C488.2 79.7321 490.957 84.1195 495.733 84.1195H498.528C499.612 84.1195 500.5 83.2315 500.5 82.1472V20.6833H500.487C500.431 19.6478 499.576 18.8185 498.528 18.8185H489.868C488.821 18.8185 487.966 19.6478 487.908 20.6833H487.897V25.6776C482.592 19.1374 474.226 16.4229 465.838 16.4229C446.769 16.4229 431.312 31.892 431.312 50.9754C431.312 70.0599 446.769 85.5295 465.838 85.5295V85.5311C474.226 85.5311 483.367 82.2741 487.896 76.2774L487.897 76.2853ZM465.871 73.4366C453.744 73.4366 443.912 63.3814 443.912 50.9756C443.912 38.572 453.744 28.5162 465.871 28.5162C477.997 28.5162 487.828 38.572 487.828 50.9756C487.828 63.3814 477.997 73.4366 465.871 73.4366Z" fill="#FFEAEC"/>
<path fill-rule="evenodd" clip-rule="evenodd" d="M420.365 78.3982L420.36 46.5933C420.36 28.665 409.06 16.5703 391.038 16.5703C382.434 16.5703 375.382 21.5489 372.892 25.8256C372.353 22.4816 370.579 18.9664 365.078 18.9664H362.274C361.189 18.9664 360.304 19.8551 360.304 20.9393V76.4385C360.304 76.4401 360.304 76.4443 360.304 76.4469V82.4085H360.315C360.371 83.4424 361.228 84.2728 362.275 84.2728H370.934C371.068 84.2728 371.197 84.257 371.323 84.2324C371.38 84.2213 371.433 84.1988 371.489 84.183C371.553 84.1631 371.621 84.1479 371.682 84.1227C371.759 84.0908 371.829 84.0477 371.901 84.0079C371.936 83.9864 371.972 83.9711 372.006 83.9486C372.093 83.893 372.172 83.8258 372.249 83.7572C372.261 83.7446 372.277 83.7362 372.289 83.7245C372.375 83.6412 372.453 83.5494 372.524 83.4539C372.524 83.4524 372.524 83.4524 372.524 83.4524C372.741 83.1544 372.872 82.7956 372.894 82.4085H372.905V46.1002C372.905 36.4715 380.706 28.665 390.328 28.665C399.95 28.665 407.75 36.4715 407.75 46.1002L407.758 76.449L407.76 76.4385C407.76 76.4653 407.764 76.493 407.764 76.5219V82.4085H407.776C407.833 83.4424 408.688 84.2728 409.735 84.2728H418.396C418.529 84.2728 418.659 84.257 418.784 84.2324C418.835 84.2229 418.882 84.2025 418.933 84.1883C419.003 84.1679 419.076 84.15 419.144 84.1227C419.215 84.0934 419.279 84.0525 419.347 84.0146C419.388 83.9916 419.431 83.9748 419.469 83.9486C419.55 83.8961 419.623 83.8327 419.695 83.7697C419.713 83.7529 419.733 83.7403 419.751 83.723C419.833 83.6438 419.906 83.5583 419.973 83.4686C419.978 83.4618 419.983 83.4565 419.988 83.4497C420.201 83.1544 420.332 82.7982 420.354 82.4137C420.354 82.4111 420.355 82.4085 420.355 82.4085H420.367V78.3993L420.365 78.3982Z" fill="#FFEAEC"/>
<path fill-rule="evenodd" clip-rule="evenodd" d="M330.175 76.2853C330.478 79.7321 333.235 84.1195 338.012 84.1195H340.806C341.89 84.1195 342.776 83.2314 342.776 82.1472V20.6833H342.766C342.709 19.6478 341.852 18.8185 340.806 18.8185H332.147C331.099 18.8185 330.244 19.6478 330.185 20.6833H330.175V25.6776C324.869 19.1374 316.503 16.4229 308.115 16.4229C289.048 16.4229 273.591 31.892 273.591 50.9754C273.591 70.0598 289.048 85.5295 308.115 85.5295V85.5311C316.503 85.5311 325.646 82.2741 330.175 76.2774L330.175 76.2853ZM308.148 73.4366C296.022 73.4366 286.191 63.3814 286.191 50.9756C286.191 38.572 296.022 28.5162 308.148 28.5162C320.276 28.5162 330.105 38.572 330.105 50.9756C330.105 63.3814 320.276 73.4366 308.148 73.4366Z" fill="#FFEAEC"/>
<path fill-rule="evenodd" clip-rule="evenodd" d="M222.378 67.4822C228.16 71.4903 234.47 73.437 240.533 73.437C246.311 73.437 252.283 70.4397 252.283 65.223C252.283 58.2579 239.269 57.1741 231.092 54.393C222.915 51.6118 215.87 45.8626 215.87 36.5522C215.87 22.3058 228.554 16.4219 240.393 16.4219C247.894 16.4219 255.633 18.8973 260.651 22.4432C262.379 23.7536 261.326 25.258 261.326 25.258L256.537 32.104C255.998 32.8751 255.058 33.5413 253.706 32.7067C252.355 31.8727 247.615 28.5155 240.393 28.5155C233.169 28.5155 228.819 31.8538 228.819 35.9915C228.819 40.9533 234.474 42.5139 241.097 44.205C252.64 47.3188 265.232 51.0615 265.232 65.223C265.232 77.7751 253.499 85.5322 240.533 85.5322C230.707 85.5322 222.342 82.729 215.325 77.5763C213.864 76.1122 214.885 74.7531 214.885 74.7531L219.651 67.9417C220.621 66.6681 221.843 67.1124 222.378 67.4822Z" fill="#FFEAEC"/>
<path fill-rule="evenodd" clip-rule="evenodd" d="M189.087 76.2853C189.39 79.7321 192.147 84.1195 196.924 84.1195H199.718C200.801 84.1195 201.689 83.2314 201.689 82.1472V20.6833H201.678C201.621 19.6478 200.765 18.8185 199.718 18.8185H191.058C190.011 18.8185 189.156 19.6478 189.097 20.6833H189.087V25.6776C183.781 19.1374 175.415 16.4229 167.027 16.4229C147.96 16.4229 132.502 31.892 132.502 50.9754C132.502 70.0598 147.96 85.5295 167.027 85.5295V85.5311C175.415 85.5311 184.558 82.2741 189.086 76.2774L189.087 76.2853ZM167.061 73.4366C154.934 73.4366 145.103 63.3814 145.103 50.9756C145.103 38.572 154.934 28.5162 167.061 28.5162C179.188 28.5162 189.018 38.572 189.018 50.9756C189.018 63.3814 179.188 73.4366 167.061 73.4366Z" fill="#FFEAEC"/>
<path fill-rule="evenodd" clip-rule="evenodd" d="M84.0982 53.3249C71.2664 53.3249 60.8641 63.7273 60.8641 76.5601C60.8641 89.3919 71.2664 99.7946 84.0982 99.7946C96.9297 99.7946 107.332 89.3919 107.332 76.5601C107.332 63.7273 96.9297 53.3249 84.0982 53.3249ZM23.7341 53.3269C10.9023 53.3269 0.5 63.7273 0.5 76.5601C0.5 89.3919 10.9023 99.7946 23.7341 99.7946C36.5665 99.7946 46.9694 89.3919 46.9694 76.5601C46.9694 63.7273 36.5665 53.3269 23.7341 53.3269ZM77.15 24.2815C77.15 37.1143 66.7481 47.5177 53.9163 47.5177C41.0841 47.5177 30.6822 37.1143 30.6822 24.2815C30.6822 11.4512 41.0841 1.04785 53.9163 1.04785C66.7481 1.04785 77.15 11.4512 77.15 24.2815Z" fill="#FF584A"/>
</g>
<defs>
<clipPath id="clip0_3701_8466">
<rect width="500" height="100" fill="white" transform="translate(0.5 0.5)"/>
</clipPath>
</defs>
</svg>
