<svg width="173" height="60" viewBox="0 0 173 60" fill="none" xmlns="http://www.w3.org/2000/svg">
<g clip-path="url(#clip0_2442_6848)">
<path fill-rule="evenodd" clip-rule="evenodd" d="M113.806 39.7256C113.553 32.2708 119.271 24.6484 127.577 24.6484C133.133 24.6484 136.769 28.429 136.972 34.2191C137.237 42.0805 131.895 49.2976 123.201 49.2976C117.644 49.2976 114.009 45.5247 113.806 39.7256ZM117.419 39.9588C117.563 44.3283 120.267 47.9049 123.797 47.9049C130.637 47.9049 133.547 39.3275 133.345 33.5968C133.2 29.217 130.424 25.6485 126.9 25.6485C121.017 25.6485 117.219 34.1885 117.419 39.9588Z" fill="white"/>
<path fill-rule="evenodd" clip-rule="evenodd" d="M41.6726 33.0879C41.6424 33.7709 41.5258 34.3686 41.3452 35.4119L40.1116 42.3905C40.0057 43.0098 40.2335 43.4971 40.8047 43.8291L40.766 44.102L33.7077 44.0921L33.645 42.3178C32.6173 42.9429 31.3761 43.4706 30.2542 43.7802C29.1358 44.0692 28.2309 44.1975 26.8723 44.1975C24.5919 44.1975 23.2858 43.9588 22.3854 43.1614C21.4689 42.3389 21.0258 41.7946 21.0699 40.6634C21.1046 40.0132 21.4391 39.1767 21.9227 38.5925C22.4116 37.9979 23.0762 37.6107 23.8018 37.2687C24.5296 36.9178 25.3869 36.6652 26.6338 36.4664C27.8822 36.2622 29.6203 36.0585 31.9487 35.8624C33.1721 35.7597 33.9168 35.4734 34.2682 35.3329C34.7549 35.1431 34.9453 34.9318 35.0165 34.5324C35.1473 33.8144 34.9204 33.4061 33.976 33.2167C31.4322 32.7123 26.6672 33.5425 24.2111 34.1626L25.5466 30.5297C28.7857 30.0532 31.8228 29.748 35.0178 29.748C40.0978 29.748 41.7238 31.2096 41.6726 33.0879ZM34.3875 37.6587C34.0872 37.7718 33.7006 37.8848 33.2215 37.9858C32.7428 38.0948 31.8686 38.2519 30.5994 38.4534C29.7248 38.5925 29.1189 38.7774 28.7728 39.0269C28.4414 39.2741 28.2469 39.5685 28.1913 39.927C28.1228 40.3111 28.2469 40.6171 28.577 40.8568C28.9116 41.0919 29.4734 41.2144 30.2662 41.2144C30.8601 41.2144 31.4429 41.1166 32.007 40.9362C32.5777 40.7473 33.0569 40.4906 33.4288 40.1738C33.7006 39.9373 33.8954 39.6358 34.04 39.2741C34.1241 39.0372 34.2451 38.5014 34.3875 37.6587Z" fill="white"/>
<path fill-rule="evenodd" clip-rule="evenodd" d="M65.1576 26.6654C65.3637 25.5525 67.1896 24.6484 69.2297 24.6484C71.2735 24.6484 72.7646 25.5525 72.5671 26.6654C72.352 27.7795 70.5297 28.6827 68.4837 28.6827C66.4336 28.6827 64.9501 27.7795 65.1576 26.6654ZM62.2812 43.3478L64.7762 29.8026H71.6571L69.1631 43.3478H62.2812Z" fill="white"/>
<path fill-rule="evenodd" clip-rule="evenodd" d="M102.635 33.09C102.607 33.7746 102.486 34.3776 102.301 35.4117L101.077 42.3976C100.971 43.0131 101.197 43.4972 101.765 43.8409L101.723 44.0818L94.667 44.0957L94.6127 42.3173C93.5806 42.9481 92.3344 43.473 91.2204 43.7776C90.0957 44.0751 89.1904 44.1975 87.825 44.1975C85.5476 44.1975 84.2503 43.9661 83.3468 43.1643C82.4272 42.3397 81.9828 41.7978 82.0326 40.6699C82.057 40.0144 82.3969 39.175 82.8823 38.598C83.3712 37.9973 84.0377 37.6168 84.766 37.2732C85.4943 36.9277 86.3551 36.672 87.587 36.4643C88.842 36.2682 90.586 36.0551 92.9123 35.8595C94.1242 35.7567 94.8712 35.479 95.2182 35.3435C95.7116 35.1529 95.9051 34.9375 95.9785 34.536C96.1026 33.8325 95.8797 33.413 94.9424 33.2219C92.3869 32.7122 87.6333 33.5481 85.1771 34.1636L86.5059 30.5332C89.7576 30.0545 92.7789 29.748 95.9798 29.748C101.056 29.748 102.676 31.2169 102.635 33.09ZM95.3508 37.6666C95.0478 37.7707 94.6554 37.8833 94.178 37.9941C93.7042 38.1076 92.8287 38.2494 91.5523 38.4589C90.6834 38.598 90.0668 38.7829 89.7332 39.0332C89.4097 39.2728 89.2149 39.5702 89.1468 39.93C89.0761 40.315 89.2149 40.6263 89.533 40.8578C89.8737 41.0947 90.4396 41.2091 91.2333 41.2091C91.8215 41.2091 92.3985 41.1207 92.9671 40.9404C93.5427 40.7461 94.0223 40.498 94.3956 40.1781C94.6554 39.9422 94.8556 39.6344 94.9962 39.2728C95.0829 39.0399 95.2004 38.502 95.3508 37.6666Z" fill="white"/>
<path fill-rule="evenodd" clip-rule="evenodd" d="M20.3251 39.25C18.1022 39.6827 16.851 39.8492 14.6529 39.8492C11.3901 39.8492 8.79855 38.2583 8.93793 35.3424C9.03819 33.4005 11.3815 29.3012 17.3357 29.3012C19.2087 29.3012 20.674 29.6257 22.6446 30.7291L23.5092 25.9631C20.8309 24.9687 19.0554 24.8195 16.7561 24.8442C8.95546 24.9268 1.45785 28.4119 0.529417 35.4951C-0.416102 42.6941 8.53643 44.5044 12.5118 44.4872C14.8071 44.481 17.1918 44.3891 19.4187 44.1622L20.3251 39.25Z" fill="white"/>
<path fill-rule="evenodd" clip-rule="evenodd" d="M74.9601 29.7589L75.4573 27.0057L82.6912 25.5L81.9217 29.7589H85.464L84.7911 32.4826L81.3544 32.4743L79.2664 43.3494C79.2664 43.3494 72.3016 43.3054 72.277 43.3494L74.3564 32.5009H71.7261L72.2611 29.7589H74.9601Z" fill="white"/>
<path fill-rule="evenodd" clip-rule="evenodd" d="M109.612 44.1883L102.636 44.1978L106.146 24.6484L112.94 24.8401L109.612 44.1883Z" fill="white"/>
<path fill-rule="evenodd" clip-rule="evenodd" d="M40.8149 48.4474L44.0902 29.9567H50.0002L49.543 32.3171C50.0561 31.6122 50.8757 31.0342 52.0054 30.5622C53.1462 30.0948 54.4296 29.748 55.8234 29.748C57.366 29.748 58.3172 29.8311 59.4717 30.4304C60.6192 31.0342 61.4197 31.9087 61.8565 33.0488C62.2991 34.1711 62.3913 35.4323 62.1512 36.805C61.7515 39.0829 60.6422 40.8808 58.8249 42.2016C57.0205 43.5205 55.3981 43.8677 53.0797 43.8766C52.2588 43.8766 51.5721 43.7909 51.0015 43.6515C50.4441 43.505 50.0002 43.3283 49.6613 43.1121C49.3384 42.8941 48.9946 42.5927 48.5537 42.1101L47.4519 48.4474H40.8149ZM53.0691 33.1225C52.1879 33.1225 51.3891 33.3884 50.6798 33.9251C49.9768 34.4632 49.5293 35.245 49.3485 36.2869C49.1368 37.4913 49.2608 38.3552 49.7366 38.8911C50.2178 39.4203 50.9084 39.6866 51.8166 39.6866C52.4289 39.6866 53.0629 39.577 53.5298 39.3466C54.1058 39.0407 54.5032 38.7179 54.847 38.2114C55.2187 37.6756 55.4619 37.0807 55.5868 36.3908C55.78 35.3013 55.6165 34.4849 55.1128 33.9469C54.6228 33.3942 53.9467 33.1225 53.0691 33.1225Z" fill="white"/>
<path fill-rule="evenodd" clip-rule="evenodd" d="M164.18 43.2282L164.716 43.5831C163.364 46.278 160.606 48.4473 157.372 48.4473C154.726 48.4473 152.557 46.724 152.442 43.4878C152.228 37.6868 157.781 32.2979 162.33 32.2979C164.282 32.2979 166.089 33.1318 166.171 35.1874C166.338 39.7994 159.718 41.2109 155.358 41.3063C155.216 41.7884 155.163 42.274 155.188 43.0104C155.26 44.9236 156.443 46.5324 158.888 46.5324C161 46.5324 163.112 44.8683 164.18 43.2282ZM163.587 34.8974C163.548 33.8064 162.988 33.0735 161.837 33.0735C159.065 33.0735 156.115 38.388 155.606 40.532C160.156 40.532 163.697 37.8806 163.587 34.8974Z" fill="white"/>
<path fill-rule="evenodd" clip-rule="evenodd" d="M137.421 34.7479C137.892 34.686 138.649 34.6058 138.976 34.6058C139.475 34.6058 139.943 34.6982 139.966 35.1787C139.975 35.4658 139.447 37.5203 139.335 37.9981L138.279 42.5492C137.852 44.412 137.39 46.3619 136.98 47.9028H139.694L141.218 40.6926C145.875 35.9559 147.665 34.4107 148.764 34.4107C149.257 34.4107 149.598 34.6647 149.622 35.2427C149.65 36.0766 149.121 37.9698 148.938 38.5122L147.38 43.7708C147.026 44.9526 146.765 46.0178 146.789 46.7797C146.837 47.935 147.551 48.4473 148.612 48.4473C150.595 48.4473 152.034 46.4277 153.294 44.4442L152.925 43.7925C152.414 44.5915 151.239 46.3327 150.311 46.3327C150.017 46.3327 149.741 46.141 149.731 45.661C149.703 45.045 149.969 44.1267 150.152 43.5163L151.881 37.3569C152.344 35.6597 152.567 34.5675 152.555 33.9864C152.512 32.8359 151.824 32.2979 150.771 32.2979C148.987 32.2979 146.614 33.573 141.595 39.2184H141.524L142.156 36.463C142.499 34.957 142.834 33.3843 143.16 32.2979C141.424 32.9095 138.935 33.5934 137.398 33.8836L137.421 34.7479Z" fill="white"/>
<path fill-rule="evenodd" clip-rule="evenodd" d="M169.079 32.0672H168.625V29.126H169.748C170.443 29.126 170.787 29.3821 170.787 29.9586C170.787 30.4893 170.459 30.7133 170.024 30.7723L170.861 32.0672H170.359L169.587 30.7907H169.079V32.0672ZM169.603 30.4157C169.987 30.4157 170.318 30.3878 170.318 29.9322C170.318 29.568 169.994 29.5001 169.679 29.5001H169.079V30.4157H169.603Z" fill="white"/>
<path fill-rule="evenodd" clip-rule="evenodd" d="M167.032 30.5877C167.032 29.1258 168.211 28.0488 169.617 28.0488C171.004 28.0488 172.184 29.1258 172.184 30.5877C172.184 32.067 171.004 33.1487 169.617 33.1487C168.211 33.1487 167.032 32.067 167.032 30.5877ZM169.617 32.726C170.765 32.726 171.675 31.8259 171.675 30.5877C171.675 29.3819 170.765 28.4706 169.617 28.4706C168.445 28.4706 167.542 29.3819 167.542 30.5877C167.542 31.8259 168.445 32.726 169.617 32.726Z" fill="white"/>
<path fill-rule="evenodd" clip-rule="evenodd" d="M159.618 5.65945C164.586 11.1112 154.091 20.9668 138.47 31.3062C137.779 28.5923 136.243 26.4239 134.086 25.0445C138.086 19.8706 138.909 15.4845 135.458 12.08C124.147 0.920919 71.5851 7.12979 46.3091 11.6069L45.6044 11.7441C45.4563 11.7685 45.3171 11.6717 45.2913 11.5248C45.2672 11.3797 45.3644 11.2399 45.5112 11.2146L46.2217 11.0615C76.7297 4.43011 148.469 -6.57588 159.618 5.65945ZM113.194 43.0529C113.478 44.0075 113.877 44.877 114.362 45.6687C114.315 45.6949 114.268 45.7206 114.22 45.7468C105.385 50.5817 96.6051 55.294 88.9609 59.2643L88.6598 59.4205C88.5385 59.5066 88.3713 59.4778 88.2874 59.3566C88.1995 59.2341 88.2312 59.069 88.3521 58.9829L88.7076 58.777C97.7206 53.2845 106.099 48.0506 113.172 43.0693C113.18 43.0645 113.187 43.0591 113.194 43.0529Z" fill="#EB3D32"/>
</g>
<defs>
<clipPath id="clip0_2442_6848">
<rect width="171.724" height="60" fill="white" transform="translate(0.460449)"/>
</clipPath>
</defs>
</svg>
