<svg width="287" height="100" viewBox="0 0 287 100" fill="none" xmlns="http://www.w3.org/2000/svg">
<g clip-path="url(#clip0_2442_6848)">
<path fill-rule="evenodd" clip-rule="evenodd" d="M188.91 66.2096C188.487 53.7849 198.018 41.0811 211.861 41.0811C221.12 41.0811 227.181 47.382 227.519 57.0322C227.961 70.1345 219.058 82.163 204.568 82.163C195.306 82.163 189.247 75.8748 188.91 66.2096ZM194.931 66.5984C195.17 73.8809 199.677 79.8418 205.56 79.8418C216.96 79.8418 221.812 65.5462 221.474 55.995C221.233 48.6953 216.606 42.7478 210.733 42.7478C200.927 42.7478 194.597 56.9811 194.931 66.5984Z" fill="white"/>
<path fill-rule="evenodd" clip-rule="evenodd" d="M68.6866 55.1466C68.6362 56.2848 68.442 57.281 68.1409 59.0198L66.0849 70.6509C65.9084 71.6829 66.2881 72.4951 67.2401 73.0486L67.1756 73.5033L55.4118 73.4868L55.3072 70.5297C53.5945 71.5715 51.5258 72.451 49.6559 72.9671C47.7919 73.4487 46.2838 73.6626 44.0194 73.6626C40.2188 73.6626 38.0419 73.2647 36.5412 71.9357C35.0138 70.5649 34.2753 69.6577 34.3487 67.7723C34.4066 66.6886 34.9641 65.2945 35.7701 64.3208C36.5849 63.3299 37.6927 62.6844 38.902 62.1146C40.115 61.5297 41.5437 61.1087 43.622 60.7773C45.7025 60.4371 48.5993 60.0975 52.4801 59.7707C54.5191 59.5994 55.7602 59.1223 56.346 58.8882C57.1571 58.5718 57.4745 58.2196 57.5931 57.554C57.8111 56.3574 57.4329 55.6768 55.8589 55.3612C51.6193 54.5206 43.6776 55.9042 39.5841 56.9377L41.8099 50.8829C47.2084 50.0886 52.2703 49.5801 57.5953 49.5801C66.0619 49.5801 68.7719 52.0159 68.6866 55.1466ZM56.5447 62.7645C56.0442 62.9529 55.3999 63.1414 54.6014 63.3097C53.8036 63.4914 52.3466 63.7532 50.2313 64.089C48.7736 64.3208 47.7637 64.6289 47.1869 65.0448C46.6345 65.4568 46.3105 65.9474 46.2178 66.545C46.1036 67.1852 46.3105 67.6952 46.8606 68.0946C47.4182 68.4865 48.3547 68.6907 49.6759 68.6907C50.6658 68.6907 51.6371 68.5276 52.5772 68.227C53.5285 67.9121 54.327 67.4843 54.9469 66.9563C55.3999 66.5622 55.7246 66.0596 55.9656 65.4568C56.1058 65.062 56.3074 64.169 56.5447 62.7645Z" fill="white"/>
<path fill-rule="evenodd" clip-rule="evenodd" d="M107.829 44.4426C108.172 42.5878 111.215 41.0811 114.615 41.0811C118.022 41.0811 120.507 42.5878 120.178 44.4426C119.819 46.2995 116.782 47.8049 113.372 47.8049C109.955 47.8049 107.483 46.2995 107.829 44.4426ZM103.035 72.2467L107.193 49.6712H118.661L114.504 72.2467H103.035Z" fill="white"/>
<path fill-rule="evenodd" clip-rule="evenodd" d="M170.291 55.15C170.244 56.2911 170.043 57.296 169.734 59.0196L167.694 70.6626C167.517 71.6885 167.894 72.4954 168.841 73.0681L168.772 73.4697L157.011 73.4928L156.92 70.5288C155.2 71.5801 153.123 72.455 151.267 72.9627C149.392 73.4585 147.883 73.6626 145.608 73.6626C141.812 73.6626 139.65 73.2768 138.144 71.9405C136.611 70.5662 135.871 69.6629 135.954 67.7831C135.994 66.6906 136.561 65.2916 137.37 64.33C138.185 63.3288 139.295 62.6947 140.509 62.1219C141.723 61.5462 143.158 61.12 145.211 60.7738C147.303 60.447 150.209 60.0918 154.086 59.7658C156.106 59.5946 157.351 59.1317 157.93 58.9059C158.752 58.5881 159.074 58.2292 159.197 57.56C159.404 56.3875 159.032 55.6884 157.47 55.3698C153.211 54.5204 145.288 55.9134 141.194 56.9393L143.409 50.8886C148.829 50.0908 153.864 49.5801 159.199 49.5801C167.66 49.5801 170.36 52.0282 170.291 55.15ZM158.151 62.7777C157.646 62.9512 156.992 63.1389 156.196 63.3236C155.406 63.5127 153.947 63.749 151.82 64.0982C150.372 64.33 149.344 64.6381 148.788 65.0553C148.249 65.4546 147.924 65.9504 147.811 66.5501C147.693 67.1916 147.924 67.7106 148.454 68.0964C149.022 68.4912 149.965 68.6819 151.288 68.6819C152.268 68.6819 153.23 68.5346 154.178 68.234C155.137 67.9102 155.936 67.4967 156.559 66.9636C156.992 66.5703 157.325 66.0573 157.56 65.4546C157.704 65.0666 157.9 64.17 158.151 62.7777Z" fill="white"/>
<path fill-rule="evenodd" clip-rule="evenodd" d="M33.1075 65.417C29.4028 66.1382 27.3174 66.4157 23.6539 66.4157C18.2159 66.4157 13.8967 63.7642 14.129 58.9043C14.2961 55.6678 18.2016 48.8356 28.1252 48.8356C31.2469 48.8356 33.689 49.3765 36.9734 51.2155L38.4144 43.2722C33.9506 41.6149 30.9914 41.3662 27.1593 41.4074C14.1582 41.545 1.66217 47.3535 0.114783 59.1589C-1.46108 71.1571 13.4598 74.1743 20.0855 74.1456C23.9109 74.1353 27.8854 73.9822 31.5969 73.604L33.1075 65.417Z" fill="white"/>
<path fill-rule="evenodd" clip-rule="evenodd" d="M124.166 49.5982L124.995 45.0094L137.051 42.5L135.769 49.5982H141.672L140.551 54.1376L134.823 54.1238L131.343 72.249C131.343 72.249 119.735 72.1757 119.694 72.249L123.16 54.1681H118.776L119.668 49.5982H124.166Z" fill="white"/>
<path fill-rule="evenodd" clip-rule="evenodd" d="M181.92 73.6475L170.293 73.6633L176.142 41.0811L187.465 41.4005L181.92 73.6475Z" fill="white"/>
<path fill-rule="evenodd" clip-rule="evenodd" d="M67.2573 80.7457L72.7162 49.9278H82.5661L81.8041 53.8619C82.6592 52.6869 84.0252 51.7236 85.9081 50.9371C87.8094 50.1579 89.9485 49.5801 92.2714 49.5801C94.8424 49.5801 96.4277 49.7184 98.352 50.7173C100.264 51.7236 101.599 53.1812 102.327 55.0813C103.064 56.9518 103.218 59.0538 102.818 61.3416C102.152 65.1381 100.303 68.1347 97.2739 70.3359C94.2665 72.5342 91.5626 73.1128 87.6986 73.1276C86.3304 73.1276 85.1859 72.9848 84.2349 72.7525C83.306 72.5083 82.5661 72.2138 82.0013 71.8535C81.463 71.4902 80.89 70.9878 80.1553 70.1835L78.319 80.7457H67.2573ZM87.6809 55.2041C86.2123 55.2041 84.881 55.6473 83.6988 56.5419C82.527 57.4386 81.7812 58.7416 81.48 60.4782C81.127 62.4855 81.3338 63.9254 82.1268 64.8185C82.9287 65.7004 84.0798 66.1444 85.5935 66.1444C86.6139 66.1444 87.6706 65.9616 88.4488 65.5776C89.4087 65.0678 90.071 64.5299 90.644 63.6857C91.2635 62.7926 91.6689 61.8011 91.8771 60.6513C92.199 58.8356 91.9266 57.4749 91.087 56.5781C90.2704 55.6569 89.1436 55.2041 87.6809 55.2041Z" fill="white"/>
<path fill-rule="evenodd" clip-rule="evenodd" d="M272.866 72.0473L273.76 72.6389C271.506 77.1304 266.909 80.7458 261.519 80.7458C257.108 80.7458 253.494 77.8737 253.302 72.4799C252.946 62.8117 262.201 53.8301 269.782 53.8301C273.035 53.8301 276.048 55.2201 276.184 58.6461C276.463 66.3327 265.43 68.6852 258.162 68.8442C257.925 69.6477 257.838 70.457 257.879 71.6844C257.999 74.873 259.971 77.5543 264.046 77.5543C267.566 77.5543 271.086 74.7808 272.866 72.0473ZM271.877 58.1626C271.813 56.3444 270.879 55.1228 268.961 55.1228C264.34 55.1228 259.424 63.9803 258.576 67.5536C266.159 67.5536 272.06 63.1347 271.877 58.1626Z" fill="white"/>
<path fill-rule="evenodd" clip-rule="evenodd" d="M228.267 57.9134C229.052 57.8103 230.313 57.6767 230.858 57.6767C231.69 57.6767 232.471 57.8307 232.509 58.6315C232.524 59.11 231.644 62.5341 231.458 63.3306L229.697 70.9157C228.986 74.0203 228.215 77.2702 227.532 79.8382H232.056L234.596 67.8212C242.357 59.9268 245.341 57.3515 247.172 57.3515C247.994 57.3515 248.563 57.7748 248.603 58.7382C248.649 60.1279 247.767 63.2834 247.462 64.1873L244.866 72.9516C244.276 74.9214 243.84 76.6966 243.881 77.9665C243.961 79.892 245.151 80.7458 246.918 80.7458C250.224 80.7458 252.622 77.3798 254.722 74.0741L254.107 72.9879C253.255 74.3195 251.298 77.2215 249.751 77.2215C249.261 77.2215 248.801 76.9021 248.783 76.102C248.737 75.0753 249.181 73.5448 249.486 72.5276L252.368 62.2618C253.139 59.4331 253.511 57.6128 253.491 56.6443C253.419 54.7268 252.273 53.8301 250.518 53.8301C247.544 53.8301 243.59 55.9553 235.224 65.3643H235.106L236.158 60.7719C236.731 58.2619 237.289 55.6409 237.832 53.8301C234.94 54.8495 230.791 55.9894 228.228 56.4729L228.267 57.9134Z" fill="white"/>
<path fill-rule="evenodd" clip-rule="evenodd" d="M281.03 53.445H280.275V48.543H282.145C283.303 48.543 283.878 48.9699 283.878 49.9306C283.878 50.8151 283.332 51.1886 282.605 51.2868L284 53.445H283.164L281.878 51.3175H281.03V53.445ZM281.904 50.6925C282.544 50.6925 283.095 50.6461 283.095 49.8866C283.095 49.2796 282.556 49.1664 282.03 49.1664H281.03V50.6925H281.904Z" fill="white"/>
<path fill-rule="evenodd" clip-rule="evenodd" d="M277.62 50.9794C277.62 48.543 279.585 46.748 281.928 46.748C284.239 46.748 286.206 48.543 286.206 50.9794C286.206 53.445 284.239 55.2478 281.928 55.2478C279.585 55.2478 277.62 53.445 277.62 50.9794ZM281.928 54.5433C283.84 54.5433 285.357 53.0432 285.357 50.9794C285.357 48.9699 283.84 47.4509 281.928 47.4509C279.975 47.4509 278.469 48.9699 278.469 50.9794C278.469 53.0432 279.975 54.5433 281.928 54.5433Z" fill="white"/>
<path fill-rule="evenodd" clip-rule="evenodd" d="M265.263 9.43242C273.542 18.5186 256.051 34.9447 230.016 52.177C228.864 47.6539 226.305 44.0398 222.709 41.7409C229.375 33.1177 230.747 25.8074 224.996 20.1334C206.144 1.53486 118.541 11.883 76.4144 19.3449L75.2399 19.5734C74.9931 19.6141 74.7611 19.4529 74.718 19.208C74.6779 18.9662 74.8399 18.7332 75.0845 18.691L76.2687 18.4358C127.115 7.38351 246.681 -10.9598 265.263 9.43242ZM187.889 71.7549C188.362 73.3459 189.027 74.7949 189.836 76.1145C189.758 76.1582 189.68 76.2011 189.6 76.2447C174.874 84.3028 160.241 92.1567 147.501 98.7739L146.999 99.0342C146.797 99.1777 146.518 99.1297 146.378 98.9277C146.232 98.7236 146.285 98.4484 146.486 98.3049L147.079 97.9617C162.1 88.8074 176.065 80.0844 187.852 71.7822C187.866 71.7741 187.878 71.7652 187.889 71.7549Z" fill="#EB3D32"/>
</g>
<defs>
<clipPath id="clip0_2442_6848">
<rect width="286.207" height="100" fill="white"/>
</clipPath>
</defs>
</svg>
