<svg width="309" height="100" viewBox="0 0 309 100" fill="none" xmlns="http://www.w3.org/2000/svg">
<path d="M38.4997 34.125V44.375H62.9997C62.2497 50.125 60.333 54.3333 57.4163 57.2917C53.833 60.875 48.2497 64.7917 38.4997 64.7917C23.4163 64.7917 11.6247 52.625 11.6247 37.5417C11.6247 22.4583 23.4163 10.2917 38.4997 10.2917C46.6247 10.2917 52.583 13.5 56.958 17.625L64.1663 10.4167C58.083 4.5 49.9163 0 38.4997 0C17.833 0 0.458008 16.8333 0.458008 37.5C0.458008 58.1667 17.833 75 38.4997 75C49.6663 75 58.083 71.3333 64.6663 64.5C71.4163 57.75 73.5413 48.2083 73.5413 40.5417C73.5413 38.1667 73.3747 35.9583 72.9997 34.125H38.4997Z" fill="#4285F4"/>
<path d="M104.166 25.793C90.7912 25.793 79.8745 35.9596 79.8745 50.0013C79.8745 63.918 90.7912 74.2096 104.166 74.2096C117.541 74.2096 128.458 63.9596 128.458 50.0013C128.458 35.9596 117.541 25.793 104.166 25.793ZM104.166 64.668C96.8328 64.668 90.4995 58.6263 90.4995 50.0013C90.4995 41.293 96.8328 35.3346 104.166 35.3346C111.5 35.3346 117.833 41.293 117.833 50.0013C117.833 58.6263 111.5 64.668 104.166 64.668Z" fill="#EA4335"/>
<path d="M223.251 31.2096H222.876C220.501 28.3763 215.918 25.793 210.126 25.793C198.043 25.793 187.501 36.3346 187.501 50.0013C187.501 63.5846 198.043 74.2096 210.126 74.2096C215.918 74.2096 220.501 71.6263 222.876 68.7096H223.251V72.0846C223.251 81.3346 218.293 86.293 210.334 86.293C203.834 86.293 199.793 81.6263 198.126 77.668L188.876 81.5013C191.543 87.918 198.584 95.793 210.334 95.793C222.793 95.793 233.334 88.4596 233.334 70.5846V27.043H223.251V31.2096ZM211.043 64.668C203.709 64.668 198.126 58.418 198.126 50.0013C198.126 41.4596 203.709 35.3346 211.043 35.3346C218.293 35.3346 223.959 41.5846 223.959 50.0846C224.001 58.543 218.293 64.668 211.043 64.668Z" fill="#4285F4"/>
<path d="M158.335 25.793C144.96 25.793 134.043 35.9596 134.043 50.0013C134.043 63.918 144.96 74.2096 158.335 74.2096C171.71 74.2096 182.627 63.9596 182.627 50.0013C182.627 35.9596 171.71 25.793 158.335 25.793ZM158.335 64.668C151.002 64.668 144.668 58.6263 144.668 50.0013C144.668 41.293 151.002 35.3346 158.335 35.3346C165.668 35.3346 172.002 41.293 172.002 50.0013C172.002 58.6263 165.668 64.668 158.335 64.668Z" fill="#FBBC05"/>
<path d="M241.667 1H252.125V74.2083H241.667V1Z" fill="#34A853"/>
<path d="M284.417 64.668C279 64.668 275.167 62.2096 272.667 57.3346L305.041 43.9596L303.958 41.2096C301.958 35.793 295.792 25.793 283.25 25.793C270.792 25.793 260.417 35.5846 260.417 50.0013C260.417 63.5846 270.667 74.2096 284.417 74.2096C295.5 74.2096 301.916 67.418 304.583 63.5013L296.333 58.0013C293.583 62.0013 289.833 64.668 284.417 64.668ZM283.667 34.8763C287.958 34.8763 291.625 37.0846 292.833 40.2096L270.958 49.2513C270.958 39.0846 278.167 34.8763 283.667 34.8763Z" fill="#EA4335"/>
</svg>
