<svg width="131" height="42" viewBox="0 0 131 42" fill="none" xmlns="http://www.w3.org/2000/svg">
<g clip-path="url(#clip0_2442_6868)">
<path d="M16.7426 14.3325V18.6375H27.0326C26.7176 21.0525 25.9126 22.82 24.6876 24.0625C23.1826 25.5675 20.8376 27.2125 16.7426 27.2125C10.4076 27.2125 5.45514 22.1025 5.45514 15.7675C5.45514 9.4325 10.4076 4.3225 16.7426 4.3225C20.1551 4.3225 22.6576 5.67 24.4951 7.4025L27.5226 4.375C24.9676 1.89 21.5376 0 16.7426 0C8.06264 0 0.765137 7.07 0.765137 15.75C0.765137 24.43 8.06264 31.5 16.7426 31.5C21.4326 31.5 24.9676 29.96 27.7326 27.09C30.5676 24.255 31.4601 20.2475 31.4601 17.0275C31.4601 16.03 31.3901 15.1025 31.2326 14.3325H16.7426Z" fill="#4285F4"/>
<path d="M44.3226 10.833C38.7051 10.833 34.1201 15.103 34.1201 21.0005C34.1201 26.8455 38.7051 31.168 44.3226 31.168C49.9401 31.168 54.5251 26.863 54.5251 21.0005C54.5251 15.103 49.9401 10.833 44.3226 10.833ZM44.3226 27.1605C41.2426 27.1605 38.5826 24.623 38.5826 21.0005C38.5826 17.343 41.2426 14.8405 44.3226 14.8405C47.4026 14.8405 50.0626 17.343 50.0626 21.0005C50.0626 24.623 47.4026 27.1605 44.3226 27.1605Z" fill="#EA4335"/>
<path d="M94.3382 13.108H94.1807C93.1832 11.918 91.2582 10.833 88.8257 10.833C83.7507 10.833 79.3232 15.2605 79.3232 21.0005C79.3232 26.7055 83.7507 31.168 88.8257 31.168C91.2582 31.168 93.1832 30.083 94.1807 28.858H94.3382V30.2755C94.3382 34.1605 92.2557 36.243 88.9132 36.243C86.1832 36.243 84.4857 34.283 83.7857 32.6205L79.9007 34.2305C81.0207 36.9255 83.9782 40.233 88.9132 40.233C94.1457 40.233 98.5732 37.153 98.5732 29.6455V11.358H94.3382V13.108ZM89.2107 27.1605C86.1307 27.1605 83.7857 24.5355 83.7857 21.0005C83.7857 17.413 86.1307 14.8405 89.2107 14.8405C92.2557 14.8405 94.6357 17.4655 94.6357 21.0355C94.6532 24.588 92.2557 27.1605 89.2107 27.1605Z" fill="#4285F4"/>
<path d="M67.0736 10.833C61.4561 10.833 56.8711 15.103 56.8711 21.0005C56.8711 26.8455 61.4561 31.168 67.0736 31.168C72.6911 31.168 77.2761 26.863 77.2761 21.0005C77.2761 15.103 72.6911 10.833 67.0736 10.833ZM67.0736 27.1605C63.9936 27.1605 61.3336 24.623 61.3336 21.0005C61.3336 17.343 63.9936 14.8405 67.0736 14.8405C70.1536 14.8405 72.8136 17.343 72.8136 21.0005C72.8136 24.623 70.1536 27.1605 67.0736 27.1605Z" fill="#FBBC05"/>
<path d="M102.073 0.419922H106.465V31.1674H102.073V0.419922Z" fill="#34A853"/>
<path d="M120.028 27.1605C117.753 27.1605 116.143 26.128 115.093 24.0805L128.69 18.463L128.235 17.308C127.395 15.033 124.805 10.833 119.538 10.833C114.305 10.833 109.948 14.9455 109.948 21.0005C109.948 26.7055 114.253 31.168 120.028 31.168C124.683 31.168 127.378 28.3155 128.498 26.6705L125.033 24.3605C123.878 26.0405 122.303 27.1605 120.028 27.1605ZM119.713 14.648C121.515 14.648 123.055 15.5755 123.563 16.888L114.375 20.6855C114.375 16.4155 117.403 14.648 119.713 14.648Z" fill="#EA4335"/>
</g>
<defs>
<clipPath id="clip0_2442_6868">
<rect width="129.5" height="42" fill="white" transform="translate(0.572754)"/>
</clipPath>
</defs>
</svg>
