<svg width="201" height="100" viewBox="0 0 201 100" fill="none" xmlns="http://www.w3.org/2000/svg">
<path fill-rule="evenodd" clip-rule="evenodd" d="M16.9836 61.5499L9.74023 53.4499L31.9119 45.3799L35.3619 54.8632L16.9836 61.5499Z" fill="#F89920"/>
<path fill-rule="evenodd" clip-rule="evenodd" d="M16.9308 61.3996L16.5908 72.2662L38.7625 64.1962L35.3125 54.7129L16.9308 61.3996Z" fill="#FFBE22"/>
<path fill-rule="evenodd" clip-rule="evenodd" d="M78.5451 39.1572C81.7084 48.3239 71.5151 60.3672 55.6584 66.1406C39.8017 71.9139 24.2501 69.2406 20.7817 60.1822L78.5451 39.1572Z" fill="#F0670A"/>
<path fill-rule="evenodd" clip-rule="evenodd" d="M78.5462 39.1583C75.0995 30.0799 59.5329 27.3949 43.6595 33.1716C27.7862 38.9483 17.5862 51.0133 20.7812 60.1666L78.5462 39.1583Z" fill="#FFD00E"/>
<path fill-rule="evenodd" clip-rule="evenodd" d="M78.5452 39.1572C80.5168 45.2906 69.4502 54.8239 53.6418 60.5939C37.8335 66.3639 23.2152 66.1439 20.7852 60.1806L78.5452 39.1572Z" fill="#F89920"/>
<path fill-rule="evenodd" clip-rule="evenodd" d="M78.5446 39.1573C76.1496 33.164 61.5113 32.9506 45.6779 38.714C29.8446 44.4773 18.7663 54.0473 20.7846 60.1806L78.5446 39.1573Z" fill="#FFBE22"/>
<path d="M51.8976 30.84C50.3893 25.6233 48.6726 22.7299 46.721 22.7849C42.9476 22.8916 41.6793 34.8566 42.901 50.1883C44.1343 65.6833 47.3343 77.3216 51.3276 77.2166C53.7076 77.155 55.0476 73.3466 55.5193 66.7333C55.5293 66.6 55.3776 66.6916 55.386 66.5533C55.386 66.5533 55.366 66.3116 55.2776 66.3066L54.771 66.2733C54.3543 72.69 53.101 76.39 51.3043 76.44C48.0243 76.5233 44.8543 65.0116 43.671 50.1266C42.5043 35.485 43.761 23.6433 46.741 23.5599C48.151 23.5199 49.7326 26.185 51.131 30.99L51.8976 30.8233V30.84Z" fill="#F0670A"/>
<path d="M33.198 27.116C29.9814 29.096 34.868 40.091 43.5914 52.7593C52.408 65.5593 60.9997 74.0393 64.403 71.9527C66.303 70.786 65.7697 67.246 63.3197 61.9027C63.2647 61.7693 63.143 61.681 62.9864 61.6643C62.8297 61.6477 62.7064 61.7143 62.6264 61.831C62.5464 61.9477 62.5347 62.0977 62.5997 62.226C64.8764 67.1927 65.3664 70.4427 63.9797 71.2927C61.1797 73.0093 52.683 64.6193 44.213 52.3193C35.883 40.2227 31.0497 29.3427 33.588 27.7777C34.938 26.9477 38.1414 28.951 42.3797 33.2777C42.4264 33.3277 42.6964 33.606 42.758 33.6243C42.8914 33.6643 42.8247 33.386 42.928 33.2827C43.0014 33.211 43.0447 33.1127 43.0447 33.0093C43.0447 32.906 43.0064 32.8093 42.933 32.7343C38.4064 28.111 35.0097 25.9877 33.1797 27.1143L33.198 27.116Z" fill="#F0670A"/>
<path fill-rule="evenodd" clip-rule="evenodd" d="M113.507 54.5948H121.99V58.8331H108.56V41.1664H121.99V45.4064H113.507V47.5281H118.807V51.7698H113.507V54.5948ZM152.028 54.5948H159.803V58.8331H147.082V41.1664H152.032L152.028 54.5948ZM164.752 41.1648H169.702V58.8331H164.752V41.1648ZM175.352 41.1648V58.8331H179.947V48.9364L186.308 58.8331H190.903V41.1631H186.308V51.2064L179.947 41.1898L175.352 41.1648Z" fill="white"/>
<path d="M131.884 49.2931H135.424C135.702 49.2931 135.978 49.2382 136.235 49.1316C136.492 49.0251 136.725 48.8689 136.922 48.672C137.118 48.475 137.274 48.2413 137.38 47.9841C137.487 47.7269 137.541 47.4513 137.541 47.1731C137.541 46.8947 137.487 46.6189 137.381 46.3615C137.275 46.1042 137.119 45.8702 136.922 45.6731C136.726 45.4761 136.492 45.3197 136.235 45.213C135.978 45.1063 135.702 45.0514 135.424 45.0514H131.882L131.884 49.2931ZM136.131 41.1648C137.724 41.1648 139.251 41.7981 140.377 42.9248C141.504 44.0514 142.136 45.5798 142.136 47.1748C142.136 48.7698 141.502 50.2964 140.377 51.4248C139.252 52.5531 137.724 53.1848 136.131 53.1848H132.381V58.8331H127.291V41.1631H136.129L136.131 41.1648Z" fill="white"/>
<path fill-rule="evenodd" clip-rule="evenodd" d="M102.907 45.4043V41.166H88.417V45.406H96.5453L88.417 54.596V58.8377H102.907V54.596H95.132L102.907 45.4043Z" fill="white"/>
</svg>
