<svg xmlns="http://www.w3.org/2000/svg" width="25" height="24">
  <g fill="#FFF" fill-rule="nonzero">
    <path d="M21.558 8.367l-2.007 2.015-1.032 1.037-2.513 2.525-2.643 2.654-.937.942c-.145.146-.3.284-.436.437-.002.006-.007.008-.01.011-.01.016.214-.143.13-.103l.19-.08c-.072.03-.154.04-.23.05.071-.01.14-.018.21-.029-.635.083-1.287.075-1.929.072l.792.795c-.005-.652-.016-1.318.063-1.965-.01.072-.018.141-.029.213.019-.141.074-.279.074-.42-.037.133-.071.268-.108.401-.106.178-.13.154-.06.085l.118-.12.423-.424 1.288-1.294 1.906-1.915c.657-.66 1.315-1.323 1.975-1.983l1.467-1.475 2.308-2.318.055-.055h-1.12L21.3 9.226l.261.263c.293.294.832.315 1.12 0 .29-.319.314-.812 0-1.125L20.87 6.548l-.25-.252a.8.8 0 0 0-1.12 0L17.386 8.42c-.477.48-.953.957-1.428 1.437l-2.236 2.246-1.67 1.68c-.703.705-1.416 1.402-2.107 2.118-.164.17-.275.38-.275.62.01-.071.018-.14.029-.212-.08.223-.084.478-.1.711-.019.25-.024.501-.03.75a35.85 35.85 0 0 0-.005.923.805.805 0 0 0 .792.796c.59.003 1.18 0 1.766-.053.36-.034.713-.064.988-.326.055-.053.108-.109.16-.162L15.5 16.71l3.152-3.167 1.932-1.94 2.01-2.019c.028-.03.06-.06.09-.09.292-.294.313-.835 0-1.124-.32-.295-.811-.316-1.125-.003z"/>
    <path d="M23.545 6.37l-1.737 1.745-.25.252h1.119L20.869 6.55l-.251-.252v1.125l1.768-1.777.167-.167c.013-.013.031-.027.042-.043 0-.002.008-.005.008-.007-.003.037-.182.108-.034.04l-.19.079a.497.497 0 0 1 .108-.027l-.211.03a.344.344 0 0 1 .074 0l-.212-.03c.043.008.08.016.12.032l-.19-.08c.136.072.282.13.44.13-.132-.037-.267-.071-.399-.108.061.04.103.109-.092-.072-.077-.188-.156-.374-.232-.562 0 .44.435.766.72 1.053l.858.862.138.138c.01.01.02.023.031.031l.005.006c.016.016.003-.003-.04-.053-.08-.112-.018-.022-.004.01l-.08-.19a.436.436 0 0 1 .027.1l-.03-.212a.676.676 0 0 1 0 .103l.03-.212c-.005.035-.016.067-.027.101l.08-.19c-.027.079-.085.116.052-.038-.28.308-.324.825 0 1.124.304.281.824.33 1.12 0 .443-.488.449-1.19-.008-1.673-.09-.095-.185-.186-.275-.276l-.974-.978-.264-.266c.077.189.156.374.232.563 0-.449-.417-.849-.86-.849l.398.109c-.501-.295-1.085-.165-1.48.23l-.42.422-1.22 1.225-.296.297a.808.808 0 0 0 0 1.125l1.796 1.803.26.263a.8.8 0 0 0 1.12 0l1.737-1.745.251-.252c.293-.295.314-.836 0-1.125-.311-.286-.802-.31-1.117.003z"/>
    <path d="M23.545 6.37l-1.737 1.745-.25.252h1.119L20.869 6.55l-.251-.252v1.125l1.768-1.777.167-.167c.013-.013.031-.027.042-.043 0-.002.008-.005.008-.007-.003.037-.182.108-.034.04l-.19.079a.497.497 0 0 1 .108-.027l-.211.03a.344.344 0 0 1 .074 0l-.212-.03c.043.008.08.016.12.032l-.19-.08c.136.072.282.13.44.13-.132-.037-.267-.071-.399-.108.127.085-.16-.146-.066-.045.032.034.069.069.103.103l.37.371.855.86.132.132c.01.01.021.024.032.032l.005.005c.016.016.003-.002-.04-.053-.081-.111-.018-.02-.005.01l-.079-.19a.436.436 0 0 1 .026.1c-.01-.07-.018-.14-.029-.211a.676.676 0 0 1 0 .103l.03-.212c-.006.034-.016.066-.027.1l.08-.19c-.03.077-.088.114.05-.04-.28.308-.325.825 0 1.124.303.281.823.33 1.119 0 .443-.488.449-1.198-.013-1.678-.103-.109-.212-.212-.317-.319l-1.017-1.02c-.227-.229-.448-.465-.802-.465.132.038.266.072.398.11-.501-.295-1.085-.165-1.48.23l-.42.421L19.794 6l-.296.297a.808.808 0 0 0 0 1.124l1.796 1.803.26.263a.8.8 0 0 0 1.12 0l1.737-1.745.251-.252c.293-.294.314-.835 0-1.124-.311-.284-.802-.308-1.117.005zM9.694 16.312l-.01.027a.594.594 0 0 0-.014.318.607.607 0 0 0 .095.297c.05.093.119.167.203.223a.604.604 0 0 0 .27.143c.07.01.14.018.21.029a.776.776 0 0 0 .4-.109c.052-.042.105-.082.16-.124a.795.795 0 0 0 .204-.35.594.594 0 0 0 .024-.345.607.607 0 0 0-.096-.297.611.611 0 0 0-.203-.223.604.604 0 0 0-.27-.143l-.21-.03a.776.776 0 0 0-.399.11l-.161.124a.781.781 0 0 0-.203.35z"/>
    <path d="M11.14 16.925a.29.29 0 0 1 .016-.03l-.124.162.005-.005H9.918a.586.586 0 0 0 .256.164c.095.05.196.072.306.07a.585.585 0 0 0 .307-.07.617.617 0 0 0 .256-.164c.042-.053.082-.106.124-.162a.793.793 0 0 0 .108-.4c-.01-.072-.018-.14-.029-.212a.781.781 0 0 0-.203-.35.586.586 0 0 0-.256-.165.605.605 0 0 0-.307-.069l-.21.03a.776.776 0 0 0-.35.204 1.029 1.029 0 0 0-.142.193.598.598 0 0 0-.095.297.62.62 0 0 0 .013.318.583.583 0 0 0 .143.27c.055.088.13.155.222.205l.19.08c.14.037.28.037.422 0l.19-.08a.87.87 0 0 0 .277-.286z"/>
    <path d="M19.28 2.533v4.341l1.35-.562-.012-.014a.8.8 0 0 0-1.12 0l-2.114 2.125c-.478.48-.953.957-1.428 1.437l-2.236 2.246-1.671 1.679c-.703.705-1.415 1.403-2.107 2.119-.164.17-.275.379-.275.62l.03-.212c-.08.223-.085.477-.1.71-.02.25-.025.502-.03.751a35.85 35.85 0 0 0-.005.923.805.805 0 0 0 .792.796c.46.002.916-.006 1.375-.027.483-.024 1.032-.016 1.402-.374.446-.435.882-.885 1.32-1.326l2.455-2.466 2.447-2.458c.423-.425.856-.838 1.265-1.27l.018-.02-1.351-.561v9.271c0 .4.002.8 0 1.204 0 .074-.006.15-.014.225l.03-.212c-.022.154-.061.3-.12.443l.08-.191a1.83 1.83 0 0 1-.145.276c-.016.024-.035.047-.048.071-.037.067.137-.161.05-.066-.034.037-.068.077-.103.114-.037.037-.076.069-.113.104-.082.074.079-.064.079-.061.003.005-.066.045-.071.05a2.017 2.017 0 0 1-.288.156l.19-.08c-.143.06-.29.099-.44.12.07-.01.14-.018.21-.029-.198.024-.4.013-.602.013H4.41c-.623 0-1.249.006-1.872 0-.08 0-.156-.005-.232-.013l.21.03a1.809 1.809 0 0 1-.44-.12l.19.08a1.606 1.606 0 0 1-.275-.146c-.023-.016-.047-.035-.07-.048-.067-.037.16.138.065.05l-.113-.103c-.037-.037-.069-.077-.103-.114-.074-.083.063.08.06.08-.005.002-.044-.067-.05-.072a2.032 2.032 0 0 1-.155-.29l.079.192a1.863 1.863 0 0 1-.12-.443c.012.071.02.14.03.212-.026-.226-.013-.456-.013-.684v-1.36-2.04-2.514-2.748V9.56 6.98 4.808 3.257v-.7c0-.08.005-.16.013-.24-.01.072-.018.141-.03.213.022-.154.062-.3.12-.443l-.08.191a1.83 1.83 0 0 1 .146-.276c.016-.024.034-.048.047-.071.037-.067-.137.161-.05.066l.103-.114c.037-.037.077-.07.114-.104.081-.074-.08.064-.08.061-.002-.005.066-.045.072-.05.092-.06.187-.111.287-.156l-.19.08c.143-.06.29-.099.441-.12-.071.01-.14.018-.211.029.198-.024.401-.013.602-.013H16.476c.623 0 1.248-.006 1.871 0 .08 0 .156.005.233.013l-.211-.03c.153.022.298.062.44.12l-.19-.08c.095.04.188.088.275.146.024.016.047.035.071.048.066.037-.16-.138-.066-.05l.114.103c.037.037.068.077.103.114.074.082-.064-.08-.061-.08.005-.002.045.067.05.072.06.093.11.189.156.29l-.08-.192c.059.144.098.292.12.443l-.03-.212c.003.072.008.143.008.218.006.416.362.814.792.795.425-.018.798-.35.792-.795-.008-.72-.314-1.448-.874-1.907A2.581 2.581 0 0 0 18.35.013c-.19-.002-.377 0-.568 0H2.524a2.581 2.581 0 0 0-1.64.613c-.599.49-.873 1.249-.873 2.01V21.022c0 .148-.003.297 0 .445.005.66.26 1.3.723 1.772.467.48 1.122.745 1.787.75.605.006 1.21 0 1.816 0h12.777c.861 0 1.822.11 2.58-.387.67-.437 1.072-1.122 1.159-1.914.013-.12.013-.237.013-.356v-1.21-4.462-4.029-.644a.796.796 0 0 0-1.352-.562l-.757.76-1.817 1.825-2.19 2.201-1.88 1.889-.613.615c-.09.09-.19.175-.272.273-.047.058.222-.146.124-.098l.19-.08c-.07.03-.153.04-.23.05l.212-.028c-.636.082-1.288.074-1.93.071l.792.796c-.005-.653-.016-1.318.063-1.965-.01.071-.018.14-.029.212.019-.14.074-.279.074-.42-.037.133-.071.269-.108.401-.106.178-.13.154-.06.085a133358.852 133358.852 0 0 1 .54-.543l1.289-1.295 1.906-1.914c.657-.66 1.315-1.324 1.975-1.984l1.467-1.474 2.308-2.318.055-.056h-1.12l.014.013a.795.795 0 0 0 1.352-.562V3.074v-.536c0-.416-.365-.814-.792-.796-.433.014-.798.345-.798.79z"/>
    <g>
      <path d="M4.498 6.086h10.394c.48 0 .963.01 1.444 0h.018c.415 0 .81-.366.792-.795-.018-.433-.348-.796-.792-.796H5.96c-.48 0-.963-.01-1.443 0h-.019c-.414 0-.81.366-.792.796.019.432.349.795.792.795zM13.189 8.969H4.498c-.414 0-.81.366-.792.795.019.433.349.796.792.796H13.19c.414 0 .81-.366.792-.796-.021-.432-.348-.795-.792-.795zM8.965 13.44H4.501c-.414 0-.81.366-.792.796.019.432.349.795.792.795h4.464c.415 0 .81-.366.792-.795-.021-.43-.348-.796-.792-.796zM7.91 17.914H4.5c-.414 0-.81.366-.792.795.019.433.349.796.792.796H7.91c.415 0 .81-.366.792-.796-.021-.432-.348-.795-.792-.795z"/>
    </g>
  </g>
</svg>