<svg preserveAspectRatio="xMidYMid slice" viewBox="0 0 229 227" fill="none" xmlns="http://www.w3.org/2000/svg">
  <rect x="0" y="0" width="100%" height="100%" fill="#EFEFEF"/>
  <path d="M70.9071 61.25H73.3571L80.3571 79H77.4071L75.5321 74.175H68.6821L66.8321 79H63.8571L70.9071 61.25ZM74.9821 72.1L72.1321 64.475L69.1821 72.1H74.9821ZM100.373 76.8C98.8728 78.35 97.1478 79.125 95.1978 79.125C94.0144 79.125 92.9144 78.8833 91.8978 78.4C90.8811 77.9 89.9978 77.2333 89.2478 76.4C88.4978 75.5667 87.9061 74.6 87.4728 73.5C87.0561 72.4 86.8478 71.25 86.8478 70.05C86.8478 68.85 87.0561 67.7083 87.4728 66.625C87.9061 65.5417 88.4978 64.5917 89.2478 63.775C89.9978 62.9583 90.8894 62.3167 91.9228 61.85C92.9561 61.3667 94.0811 61.125 95.2978 61.125C96.9978 61.125 98.4228 61.4833 99.5728 62.2C100.723 62.9 101.589 63.8333 102.173 65L100.023 66.55C99.5394 65.5833 98.8728 64.8583 98.0228 64.375C97.1728 63.8917 96.2394 63.65 95.2228 63.65C94.3894 63.65 93.6311 63.8333 92.9478 64.2C92.2644 64.55 91.6811 65.025 91.1978 65.625C90.7144 66.2083 90.3394 66.8917 90.0728 67.675C89.8228 68.4583 89.6978 69.275 89.6978 70.125C89.6978 71.025 89.8394 71.8667 90.1228 72.65C90.4228 73.4333 90.8228 74.1167 91.3228 74.7C91.8394 75.2833 92.4478 75.75 93.1478 76.1C93.8478 76.4333 94.6061 76.6 95.4228 76.6C96.3228 76.6 97.1811 76.3917 97.9978 75.975C98.8311 75.5583 99.6228 74.9 100.373 74V72.1H96.6478V70.025H102.723V79H100.373V76.8ZM105.917 79V61.25H113.642C114.442 61.25 115.175 61.4167 115.842 61.75C116.525 62.0833 117.108 62.525 117.592 63.075C118.075 63.6083 118.45 64.225 118.717 64.925C119 65.6083 119.142 66.3083 119.142 67.025C119.142 67.625 119.058 68.2 118.892 68.75C118.725 69.3 118.492 69.8083 118.192 70.275C117.892 70.7417 117.525 71.15 117.092 71.5C116.658 71.8333 116.183 72.0833 115.667 72.25L119.842 79H116.667L112.817 72.825H108.717V79H105.917ZM108.717 70.35H113.617C114.017 70.35 114.375 70.2667 114.692 70.1C115.025 69.9167 115.308 69.675 115.542 69.375C115.775 69.0583 115.958 68.7 116.092 68.3C116.225 67.9 116.292 67.475 116.292 67.025C116.292 66.575 116.208 66.15 116.042 65.75C115.892 65.35 115.683 65 115.417 64.7C115.167 64.4 114.867 64.1667 114.517 64C114.183 63.8167 113.833 63.725 113.467 63.725H108.717V70.35ZM134.62 76.525V79H122.445V61.25H134.395V63.725H125.245V68.775H133.17V71.1H125.245V76.525H134.62ZM142.733 61.25H145.183L152.183 79H149.233L147.358 74.175H140.508L138.658 79H135.683L142.733 61.25ZM146.808 72.1L143.958 64.475L141.008 72.1H146.808ZM165.646 63.725H159.746V79H156.921V63.725H150.996V61.25H165.646V63.725ZM63.4604 108V90.25H66.2604V108H63.4604ZM85.197 108V95.225L79.922 104.9H78.372L73.072 95.225V108H70.272V90.25H73.272L79.147 101.1L85.022 90.25H88.022V108H85.197ZM97.2499 90.25H99.6999L106.7 108H103.75L101.875 103.175H95.0249L93.1749 108H90.1999L97.2499 90.25ZM101.325 101.1L98.4749 93.475L95.5249 101.1H101.325ZM120.661 105.8C119.161 107.35 117.436 108.125 115.486 108.125C114.303 108.125 113.203 107.883 112.186 107.4C111.169 106.9 110.286 106.233 109.536 105.4C108.786 104.567 108.194 103.6 107.761 102.5C107.344 101.4 107.136 100.25 107.136 99.05C107.136 97.85 107.344 96.7083 107.761 95.625C108.194 94.5417 108.786 93.5917 109.536 92.775C110.286 91.9583 111.178 91.3167 112.211 90.85C113.244 90.3667 114.369 90.125 115.586 90.125C117.286 90.125 118.711 90.4833 119.861 91.2C121.011 91.9 121.878 92.8333 122.461 94L120.311 95.55C119.828 94.5833 119.161 93.8583 118.311 93.375C117.461 92.8917 116.528 92.65 115.511 92.65C114.678 92.65 113.919 92.8333 113.236 93.2C112.553 93.55 111.969 94.025 111.486 94.625C111.003 95.2083 110.628 95.8917 110.361 96.675C110.111 97.4583 109.986 98.275 109.986 99.125C109.986 100.025 110.128 100.867 110.411 101.65C110.711 102.433 111.111 103.117 111.611 103.7C112.128 104.283 112.736 104.75 113.436 105.1C114.136 105.433 114.894 105.6 115.711 105.6C116.611 105.6 117.469 105.392 118.286 104.975C119.119 104.558 119.911 103.9 120.661 103V101.1H116.936V99.025H123.011V108H120.661V105.8ZM138.38 105.525V108H126.205V90.25H138.155V92.725H129.005V97.775H136.93V100.1H129.005V105.525H138.38ZM147.445 108V90.25H150.245V108H147.445ZM164.756 94.425C164.59 94.2417 164.348 94.05 164.031 93.85C163.715 93.6333 163.34 93.4333 162.906 93.25C162.49 93.0667 162.023 92.9167 161.506 92.8C161.006 92.6833 160.49 92.625 159.956 92.625C158.773 92.625 157.898 92.8417 157.331 93.275C156.781 93.7083 156.506 94.3083 156.506 95.075C156.506 95.5083 156.59 95.8667 156.756 96.15C156.94 96.4167 157.215 96.6583 157.581 96.875C157.948 97.075 158.406 97.2583 158.956 97.425C159.506 97.575 160.148 97.7417 160.881 97.925C161.781 98.1417 162.59 98.3833 163.306 98.65C164.04 98.9167 164.656 99.2417 165.156 99.625C165.656 100.008 166.04 100.483 166.306 101.05C166.59 101.6 166.731 102.275 166.731 103.075C166.731 103.975 166.556 104.75 166.206 105.4C165.873 106.05 165.406 106.583 164.806 107C164.223 107.4 163.54 107.7 162.756 107.9C161.973 108.083 161.131 108.175 160.231 108.175C158.881 108.175 157.573 107.975 156.306 107.575C155.056 107.158 153.923 106.558 152.906 105.775L154.181 103.375C154.398 103.592 154.706 103.833 155.106 104.1C155.523 104.367 155.998 104.617 156.531 104.85C157.081 105.067 157.673 105.258 158.306 105.425C158.94 105.575 159.598 105.65 160.281 105.65C161.381 105.65 162.231 105.458 162.831 105.075C163.431 104.692 163.731 104.125 163.731 103.375C163.731 102.925 163.615 102.55 163.381 102.25C163.165 101.95 162.848 101.692 162.431 101.475C162.015 101.242 161.506 101.033 160.906 100.85C160.306 100.667 159.623 100.475 158.856 100.275C157.973 100.042 157.198 99.8 156.531 99.55C155.881 99.2833 155.34 98.9667 154.906 98.6C154.473 98.2333 154.14 97.8083 153.906 97.325C153.69 96.825 153.581 96.225 153.581 95.525C153.581 94.6583 153.748 93.8917 154.081 93.225C154.415 92.5417 154.865 91.975 155.431 91.525C156.015 91.0583 156.698 90.7083 157.481 90.475C158.265 90.2417 159.115 90.125 160.031 90.125C161.231 90.125 162.34 90.3167 163.356 90.7C164.373 91.0833 165.265 91.5583 166.031 92.125L164.756 94.425ZM77.6348 137.125C76.3681 137.125 75.2098 136.875 74.1598 136.375C73.1264 135.858 72.2348 135.183 71.4848 134.35C70.7348 133.5 70.1514 132.533 69.7348 131.45C69.3348 130.367 69.1348 129.258 69.1348 128.125C69.1348 126.942 69.3514 125.808 69.7848 124.725C70.2181 123.642 70.8098 122.683 71.5598 121.85C72.3264 121.017 73.2264 120.358 74.2598 119.875C75.3098 119.375 76.4514 119.125 77.6848 119.125C78.9514 119.125 80.1014 119.392 81.1348 119.925C82.1848 120.442 83.0764 121.125 83.8098 121.975C84.5598 122.825 85.1348 123.792 85.5348 124.875C85.9514 125.942 86.1598 127.033 86.1598 128.15C86.1598 129.333 85.9431 130.467 85.5098 131.55C85.0931 132.633 84.5014 133.592 83.7348 134.425C82.9681 135.242 82.0598 135.9 81.0098 136.4C79.9764 136.883 78.8514 137.125 77.6348 137.125ZM71.9848 128.125C71.9848 128.958 72.1181 129.767 72.3848 130.55C72.6514 131.333 73.0264 132.025 73.5098 132.625C74.0098 133.225 74.6098 133.708 75.3098 134.075C76.0098 134.425 76.7931 134.6 77.6598 134.6C78.5598 134.6 79.3514 134.417 80.0348 134.05C80.7348 133.667 81.3264 133.167 81.8098 132.55C82.2931 131.933 82.6598 131.242 82.9098 130.475C83.1598 129.708 83.2848 128.925 83.2848 128.125C83.2848 127.275 83.1514 126.467 82.8848 125.7C82.6181 124.917 82.2348 124.233 81.7348 123.65C81.2514 123.05 80.6598 122.575 79.9598 122.225C79.2764 121.858 78.5098 121.675 77.6598 121.675C76.7598 121.675 75.9598 121.867 75.2598 122.25C74.5598 122.617 73.9681 123.1 73.4848 123.7C73.0014 124.3 72.6264 124.992 72.3598 125.775C72.1098 126.542 71.9848 127.325 71.9848 128.125ZM91.8586 124.5V137H89.0586V119.25H91.2586L101.409 132.05V119.275H104.234V137H101.909L91.8586 124.5ZM126.717 121.725H120.817V137H117.992V121.725H112.067V119.25H126.717V121.725ZM143.673 119.25V137H140.848V129.175H131.898V137H129.098V119.25H131.898V126.675H140.848V119.25H143.673ZM159.852 134.525V137H147.677V119.25H159.627V121.725H150.477V126.775H158.402V129.1H150.477V134.525H159.852ZM93.1369 149.325H95.7869L97.9619 155.35L100.162 149.325H102.787L99.7619 157.225L102.412 163.75L107.937 149.25H111.012L103.687 167H101.287L97.9869 159.05L94.6619 167H92.2619L84.9369 149.25H87.9869L93.5369 163.75L96.1869 157.225L93.1369 149.325ZM116.818 149.25H119.268L126.268 167H123.318L121.443 162.175H114.593L112.743 167H109.768L116.818 149.25ZM120.893 160.1L118.043 152.475L115.093 160.1H120.893ZM127.688 149.25L132.588 158.15L137.538 149.25H140.613L133.988 160.65V167H131.188V160.6L124.613 149.25H127.688ZM140.366 167V163.8H142.641V167H140.366Z" fill="#7A7A7A"/>
</svg>
