<svg width="92" height="120" viewBox="0 0 92 120" fill="none" xmlns="http://www.w3.org/2000/svg">
<g filter="url(#filter0_d_1020_940)">
<path fill-rule="evenodd" clip-rule="evenodd" d="M72.487 5.42198C64.9353 0.73475 55.0138 3.05682 50.3265 10.6085L45.6897 18.079L41.6735 11.6085C36.9862 4.05682 27.0647 1.73475 19.513 6.42198C11.9614 11.1092 9.63931 21.0308 14.3265 28.5824L18.6746 35.5876C15.0928 40.8657 13 47.2362 13 54.0954C13 60.5757 14.8679 66.6197 18.0946 71.7184C10.9805 74.7828 6 81.8574 6 90.0952C6 101.141 14.9543 110.095 26 110.095H66C77.0457 110.095 86 101.141 86 90.0952C86 81.8574 81.0195 74.7828 73.9054 71.7184C77.1321 66.6197 79 60.5757 79 54.0954C79 47.0299 76.7795 40.4831 72.9983 35.1146L77.6735 27.5824C82.3607 20.0308 80.0386 10.1092 72.487 5.42198Z" fill="white"/>
</g>
<path d="M16.2912 97.0435V83.9525H21.3026C22.2486 83.9525 23.0348 84.1017 23.6612 84.4C24.2919 84.694 24.7628 85.0967 25.0739 85.6081C25.3892 86.1195 25.5469 86.699 25.5469 87.3467C25.5469 87.8794 25.4446 88.3354 25.2401 88.7146C25.0355 89.0896 24.7607 89.3943 24.4155 89.6287C24.0703 89.8631 23.6847 90.0314 23.2585 90.1337V90.2615C23.723 90.2871 24.1683 90.4298 24.5945 90.6898C25.0249 90.9454 25.3764 91.3077 25.6491 91.7764C25.9219 92.2452 26.0582 92.8119 26.0582 93.4767C26.0582 94.1543 25.8942 94.7636 25.5661 95.3048C25.2379 95.8418 24.7436 96.2658 24.0831 96.5768C23.4226 96.8879 22.5916 97.0435 21.5902 97.0435H16.2912ZM18.6626 95.0619H21.2131C22.0739 95.0619 22.6939 94.8979 23.0732 94.5697C23.4567 94.2373 23.6484 93.8112 23.6484 93.2913C23.6484 92.9035 23.5526 92.5541 23.3608 92.243C23.169 91.9277 22.8963 91.6805 22.5426 91.5016C22.1889 91.3183 21.767 91.2267 21.277 91.2267H18.6626V95.0619ZM18.6626 89.52H21.0085C21.4176 89.52 21.7862 89.4454 22.1143 89.2963C22.4425 89.1429 22.7003 88.9277 22.8878 88.6507C23.0795 88.3695 23.1754 88.0371 23.1754 87.6535C23.1754 87.1464 22.9964 86.7288 22.6385 86.4007C22.2848 86.0726 21.7585 85.9085 21.0597 85.9085H18.6626V89.52ZM28.019 97.0435V87.2253H30.2626V88.8616H30.3649C30.5439 88.2949 30.8507 87.8581 31.2853 87.5513C31.7243 87.2402 32.225 87.0846 32.7875 87.0846C32.9153 87.0846 33.0581 87.091 33.2157 87.1038C33.3777 87.1123 33.5119 87.1273 33.6184 87.1486V89.2771C33.5204 89.243 33.3649 89.2132 33.1518 89.1876C32.943 89.1578 32.7406 89.1429 32.5446 89.1429C32.1227 89.1429 31.7434 89.2345 31.4068 89.4177C31.0744 89.5967 30.8123 89.846 30.6206 90.1656C30.4288 90.4852 30.3329 90.8538 30.3329 91.2714V97.0435H28.019ZM39.0341 97.2352C38.0753 97.2352 37.2443 97.0243 36.5412 96.6024C35.8381 96.1805 35.2926 95.5903 34.9048 94.8318C34.5213 94.0733 34.3295 93.1869 34.3295 92.1727C34.3295 91.1585 34.5213 90.27 34.9048 89.5072C35.2926 88.7445 35.8381 88.1521 36.5412 87.7302C37.2443 87.3084 38.0753 87.0974 39.0341 87.0974C39.9929 87.0974 40.8239 87.3084 41.527 87.7302C42.2301 88.1521 42.7734 88.7445 43.157 89.5072C43.5447 90.27 43.7386 91.1585 43.7386 92.1727C43.7386 93.1869 43.5447 94.0733 43.157 94.8318C42.7734 95.5903 42.2301 96.1805 41.527 96.6024C40.8239 97.0243 39.9929 97.2352 39.0341 97.2352ZM39.0469 95.3815C39.5668 95.3815 40.0014 95.2388 40.3509 94.9533C40.7003 94.6635 40.9602 94.2757 41.1307 93.7899C41.3054 93.3041 41.3928 92.7629 41.3928 92.1663C41.3928 91.5655 41.3054 91.0221 41.1307 90.5364C40.9602 90.0463 40.7003 89.6564 40.3509 89.3666C40.0014 89.0768 39.5668 88.932 39.0469 88.932C38.5142 88.932 38.071 89.0768 37.7173 89.3666C37.3679 89.6564 37.1058 90.0463 36.9311 90.5364C36.7607 91.0221 36.6754 91.5655 36.6754 92.1663C36.6754 92.7629 36.7607 93.3041 36.9311 93.7899C37.1058 94.2757 37.3679 94.6635 37.7173 94.9533C38.071 95.2388 38.5142 95.3815 39.0469 95.3815ZM48.0165 91.2906V97.0435H45.7026V87.2253H47.9142V88.8936H48.0293C48.2551 88.3439 48.6152 87.9071 49.1096 87.5832C49.6081 87.2594 50.2239 87.0974 50.9569 87.0974C51.6344 87.0974 52.2246 87.2423 52.7275 87.5321C53.2346 87.8219 53.6266 88.2416 53.9036 88.7913C54.1848 89.341 54.3233 90.0079 54.3191 90.792V97.0435H52.0051V91.15C52.0051 90.4937 51.8347 89.9802 51.4938 89.6095C51.1571 89.2388 50.6905 89.0534 50.0939 89.0534C49.6891 89.0534 49.329 89.1429 49.0137 89.3219C48.7026 89.4966 48.4576 89.7501 48.2786 90.0825C48.1039 90.4149 48.0165 90.8176 48.0165 91.2906ZM56.5435 97.0435V95.5733L61.606 89.226V89.1429H56.7097V87.2253H64.4377V88.8041L59.6181 95.0427V95.1258H64.6039V97.0435H56.5435ZM70.8441 97.2352C69.8597 97.2352 69.0096 97.0307 68.2937 96.6216C67.582 96.2082 67.0344 95.6244 66.6509 94.8702C66.2674 94.1116 66.0756 93.2189 66.0756 92.1919C66.0756 91.182 66.2674 90.2956 66.6509 89.5328C67.0387 88.7658 67.5799 88.1692 68.2745 87.743C68.9691 87.3126 69.7852 87.0974 70.7227 87.0974C71.3278 87.0974 71.8988 87.1954 72.4357 87.3915C72.9769 87.5832 73.4542 87.8815 73.8675 88.2864C74.2852 88.6912 74.6133 89.2068 74.8519 89.8332C75.0906 90.4554 75.2099 91.1969 75.2099 92.0577V92.7672H67.1623V91.2075H72.9918C72.9876 90.7643 72.8917 90.3702 72.7042 90.025C72.5167 89.6756 72.2546 89.4007 71.918 89.2004C71.5856 89.0001 71.1978 88.9 70.7546 88.9C70.2816 88.9 69.8661 89.015 69.5082 89.2452C69.1502 89.471 68.8711 89.7693 68.6708 90.14C68.4748 90.5065 68.3746 90.9092 68.3704 91.3481V92.7097C68.3704 93.2807 68.4748 93.7707 68.6836 94.1798C68.8924 94.5847 69.1843 94.8957 69.5593 95.1131C69.9343 95.3261 70.3732 95.4327 70.8761 95.4327C71.2127 95.4327 71.5174 95.3858 71.7901 95.292C72.0629 95.194 72.2994 95.0513 72.4996 94.8638C72.6999 94.6763 72.8512 94.444 72.9535 94.167L75.114 94.4099C74.9776 94.981 74.7177 95.4795 74.3342 95.9057C73.9549 96.3275 73.4691 96.6557 72.8768 96.89C72.2844 97.1202 71.6069 97.2352 70.8441 97.2352Z" fill="#AC773A"/>
<path d="M28.6523 19L45.5871 46.2609L62.5219 19" stroke="#E4E4E4" stroke-width="10" stroke-linecap="round"/>
<circle cx="46" cy="52.0435" r="19" fill="#B7854B"/>
<circle cx="46" cy="52" r="13" fill="#AC773A"/>
<mask id="mask0_1020_940" style="mask-type:alpha" maskUnits="userSpaceOnUse" x="27" y="33" width="38" height="39">
<circle cx="46" cy="52.0435" r="19" fill="#B7854B"/>
<circle cx="46" cy="52" r="13" fill="#AC773A"/>
</mask>
<g mask="url(#mask0_1020_940)">
<line opacity="0.2" x1="43.9484" y1="30.6068" x2="67.9484" y2="65.6068" stroke="white" stroke-width="12"/>
</g>
<defs>
<filter id="filter0_d_1020_940" x="0" y="0" width="92" height="119.095" filterUnits="userSpaceOnUse" color-interpolation-filters="sRGB">
<feFlood flood-opacity="0" result="BackgroundImageFix"/>
<feColorMatrix in="SourceAlpha" type="matrix" values="0 0 0 0 0 0 0 0 0 0 0 0 0 0 0 0 0 0 127 0" result="hardAlpha"/>
<feOffset dy="3"/>
<feGaussianBlur stdDeviation="3"/>
<feComposite in2="hardAlpha" operator="out"/>
<feColorMatrix type="matrix" values="0 0 0 0 0 0 0 0 0 0 0 0 0 0 0 0 0 0 0.25 0"/>
<feBlend mode="normal" in2="BackgroundImageFix" result="effect1_dropShadow_1020_940"/>
<feBlend mode="normal" in="SourceGraphic" in2="effect1_dropShadow_1020_940" result="shape"/>
</filter>
</defs>
</svg>
