<svg width="61" height="87" viewBox="0 0 61 87" fill="none" xmlns="http://www.w3.org/2000/svg">
<path d="M1.29119 83.0435V69.9525H6.30256C7.24858 69.9525 8.0348 70.1017 8.66122 70.4C9.2919 70.694 9.76278 71.0967 10.0739 71.6081C10.3892 72.1195 10.5469 72.699 10.5469 73.3467C10.5469 73.8794 10.4446 74.3354 10.2401 74.7146C10.0355 75.0896 9.76065 75.3943 9.41548 75.6287C9.07031 75.8631 8.68466 76.0314 8.25852 76.1337V76.2615C8.72301 76.2871 9.16832 76.4298 9.59446 76.6898C10.0249 76.9454 10.3764 77.3077 10.6491 77.7764C10.9219 78.2452 11.0582 78.8119 11.0582 79.4767C11.0582 80.1543 10.8942 80.7636 10.5661 81.3048C10.2379 81.8418 9.74361 82.2658 9.0831 82.5768C8.42259 82.8879 7.59162 83.0435 6.5902 83.0435H1.29119ZM3.66264 81.0619H6.21307C7.07386 81.0619 7.69389 80.8979 8.07315 80.5697C8.45668 80.2373 8.64844 79.8112 8.64844 79.2913C8.64844 78.9035 8.55256 78.5541 8.3608 78.243C8.16903 77.9277 7.89631 77.6805 7.54261 77.5016C7.18892 77.3183 6.76705 77.2267 6.27699 77.2267H3.66264V81.0619ZM3.66264 75.52H6.00852C6.41761 75.52 6.78622 75.4454 7.11435 75.2963C7.44247 75.1429 7.70028 74.9277 7.88778 74.6507C8.07955 74.3695 8.17543 74.0371 8.17543 73.6535C8.17543 73.1464 7.99645 72.7288 7.63849 72.4007C7.2848 72.0726 6.75852 71.9085 6.05966 71.9085H3.66264V75.52ZM13.019 83.0435V73.2253H15.2626V74.8616H15.3649C15.5439 74.2949 15.8507 73.8581 16.2853 73.5513C16.7243 73.2402 17.225 73.0846 17.7875 73.0846C17.9153 73.0846 18.0581 73.091 18.2157 73.1038C18.3777 73.1123 18.5119 73.1273 18.6184 73.1486V75.2771C18.5204 75.243 18.3649 75.2132 18.1518 75.1876C17.943 75.1578 17.7406 75.1429 17.5446 75.1429C17.1227 75.1429 16.7434 75.2345 16.4068 75.4177C16.0744 75.5967 15.8123 75.846 15.6206 76.1656C15.4288 76.4852 15.3329 76.8538 15.3329 77.2714V83.0435H13.019ZM24.0341 83.2352C23.0753 83.2352 22.2443 83.0243 21.5412 82.6024C20.8381 82.1805 20.2926 81.5903 19.9048 80.8318C19.5213 80.0733 19.3295 79.1869 19.3295 78.1727C19.3295 77.1585 19.5213 76.27 19.9048 75.5072C20.2926 74.7445 20.8381 74.1521 21.5412 73.7302C22.2443 73.3084 23.0753 73.0974 24.0341 73.0974C24.9929 73.0974 25.8239 73.3084 26.527 73.7302C27.2301 74.1521 27.7734 74.7445 28.157 75.5072C28.5447 76.27 28.7386 77.1585 28.7386 78.1727C28.7386 79.1869 28.5447 80.0733 28.157 80.8318C27.7734 81.5903 27.2301 82.1805 26.527 82.6024C25.8239 83.0243 24.9929 83.2352 24.0341 83.2352ZM24.0469 81.3815C24.5668 81.3815 25.0014 81.2388 25.3509 80.9533C25.7003 80.6635 25.9602 80.2757 26.1307 79.7899C26.3054 79.3041 26.3928 78.7629 26.3928 78.1663C26.3928 77.5655 26.3054 77.0221 26.1307 76.5364C25.9602 76.0463 25.7003 75.6564 25.3509 75.3666C25.0014 75.0768 24.5668 74.932 24.0469 74.932C23.5142 74.932 23.071 75.0768 22.7173 75.3666C22.3679 75.6564 22.1058 76.0463 21.9311 76.5364C21.7607 77.0221 21.6754 77.5655 21.6754 78.1663C21.6754 78.7629 21.7607 79.3041 21.9311 79.7899C22.1058 80.2757 22.3679 80.6635 22.7173 80.9533C23.071 81.2388 23.5142 81.3815 24.0469 81.3815ZM33.0165 77.2906V83.0435H30.7026V73.2253H32.9142V74.8936H33.0293C33.2551 74.3439 33.6152 73.9071 34.1096 73.5832C34.6081 73.2594 35.2239 73.0974 35.9569 73.0974C36.6344 73.0974 37.2246 73.2423 37.7275 73.5321C38.2346 73.8219 38.6266 74.2416 38.9036 74.7913C39.1848 75.341 39.3233 76.0079 39.3191 76.792V83.0435H37.0051V77.15C37.0051 76.4937 36.8347 75.9802 36.4938 75.6095C36.1571 75.2388 35.6905 75.0534 35.0939 75.0534C34.6891 75.0534 34.329 75.1429 34.0137 75.3219C33.7026 75.4966 33.4576 75.7501 33.2786 76.0825C33.1039 76.4149 33.0165 76.8176 33.0165 77.2906ZM41.5435 83.0435V81.5733L46.606 75.226V75.1429H41.7097V73.2253H49.4377V74.8041L44.6181 81.0427V81.1258H49.6039V83.0435H41.5435ZM55.8441 83.2352C54.8597 83.2352 54.0096 83.0307 53.2937 82.6216C52.582 82.2082 52.0344 81.6244 51.6509 80.8702C51.2674 80.1116 51.0756 79.2189 51.0756 78.1919C51.0756 77.182 51.2674 76.2956 51.6509 75.5328C52.0387 74.7658 52.5799 74.1692 53.2745 73.743C53.9691 73.3126 54.7852 73.0974 55.7227 73.0974C56.3278 73.0974 56.8988 73.1954 57.4357 73.3915C57.9769 73.5832 58.4542 73.8815 58.8675 74.2864C59.2852 74.6912 59.6133 75.2068 59.8519 75.8332C60.0906 76.4554 60.2099 77.1969 60.2099 78.0577V78.7672H52.1623V77.2075H57.9918C57.9876 76.7643 57.8917 76.3702 57.7042 76.025C57.5167 75.6756 57.2546 75.4007 56.918 75.2004C56.5856 75.0001 56.1978 74.9 55.7546 74.9C55.2816 74.9 54.8661 75.015 54.5082 75.2452C54.1502 75.471 53.8711 75.7693 53.6708 76.14C53.4748 76.5065 53.3746 76.9092 53.3704 77.3481V78.7097C53.3704 79.2807 53.4748 79.7707 53.6836 80.1798C53.8924 80.5847 54.1843 80.8957 54.5593 81.1131C54.9343 81.3261 55.3732 81.4327 55.8761 81.4327C56.2127 81.4327 56.5174 81.3858 56.7901 81.292C57.0629 81.194 57.2994 81.0513 57.4996 80.8638C57.6999 80.6763 57.8512 80.444 57.9535 80.167L60.114 80.4099C59.9776 80.981 59.7177 81.4795 59.3342 81.9057C58.9549 82.3275 58.4691 82.6557 57.8768 82.89C57.2844 83.1202 56.6069 83.2352 55.8441 83.2352Z" fill="#AC773A"/>
<path d="M13.6523 5L30.5871 32.2609L47.5219 5" stroke="#E4E4E4" stroke-width="10" stroke-linecap="round"/>
<circle cx="31" cy="38.0435" r="19" fill="#B7854B"/>
<circle cx="31" cy="38" r="13" fill="#AC773A"/>
<mask id="mask0_1020_1029" style="mask-type:alpha" maskUnits="userSpaceOnUse" x="12" y="19" width="38" height="39">
<circle cx="31" cy="38.0435" r="19" fill="#B7854B"/>
<circle cx="31" cy="38" r="13" fill="#AC773A"/>
</mask>
<g mask="url(#mask0_1020_1029)">
<line opacity="0.2" x1="28.9484" y1="16.6068" x2="52.9484" y2="51.6068" stroke="white" stroke-width="12"/>
</g>
</svg>
