<svg width="45" height="87" viewBox="0 0 45 87" fill="none" xmlns="http://www.w3.org/2000/svg">
<path d="M12.0611 74.1329C11.9545 73.7878 11.8075 73.4788 11.62 73.2061C11.4368 72.9291 11.2152 72.6926 10.9553 72.4966C10.6996 72.3006 10.4055 72.1535 10.0732 72.0555C9.74077 71.9533 9.37855 71.9021 8.98651 71.9021C8.28338 71.9021 7.65696 72.079 7.10724 72.4327C6.55753 72.7864 6.125 73.3062 5.80966 73.9923C5.49858 74.6741 5.34304 75.5051 5.34304 76.4852C5.34304 77.4739 5.49858 78.3112 5.80966 78.9973C6.12074 79.6834 6.55327 80.2054 7.10724 80.5633C7.66122 80.917 8.30469 81.0939 9.03764 81.0939C9.70241 81.0939 10.2777 80.966 10.7635 80.7104C11.2536 80.4547 11.6307 80.0925 11.8949 79.6237C12.1591 79.1507 12.2912 78.5967 12.2912 77.9618L12.8281 78.0449H9.27415V76.1912H14.5859V77.7636C14.5859 78.8844 14.3473 79.8538 13.87 80.672C13.3928 81.4902 12.7365 82.1209 11.9013 82.5641C11.0661 83.003 10.1072 83.2224 9.02486 83.2224C7.81889 83.2224 6.75994 82.9518 5.84801 82.4106C4.94034 81.8652 4.23082 81.0918 3.71946 80.0903C3.21236 79.0847 2.95881 77.8915 2.95881 76.5108C2.95881 75.454 3.10795 74.5101 3.40625 73.6791C3.70881 72.8481 4.13068 72.1429 4.67188 71.5633C5.21307 70.9795 5.84801 70.5364 6.5767 70.2338C7.3054 69.927 8.09801 69.7736 8.95455 69.7736C9.67898 69.7736 10.3544 69.8801 10.9808 70.0932C11.6072 70.302 12.1634 70.6003 12.6491 70.9881C13.1392 71.3758 13.5419 71.8361 13.8572 72.3687C14.1726 72.9014 14.3793 73.4895 14.4773 74.1329H12.0611ZM21.0595 83.2352C20.1007 83.2352 19.2697 83.0243 18.5666 82.6024C17.8635 82.1805 17.318 81.5903 16.9302 80.8318C16.5467 80.0733 16.3549 79.1869 16.3549 78.1727C16.3549 77.1585 16.5467 76.27 16.9302 75.5072C17.318 74.7445 17.8635 74.1521 18.5666 73.7302C19.2697 73.3084 20.1007 73.0974 21.0595 73.0974C22.0183 73.0974 22.8493 73.3084 23.5524 73.7302C24.2555 74.1521 24.7988 74.7445 25.1824 75.5072C25.5701 76.27 25.764 77.1585 25.764 78.1727C25.764 79.1869 25.5701 80.0733 25.1824 80.8318C24.7988 81.5903 24.2555 82.1805 23.5524 82.6024C22.8493 83.0243 22.0183 83.2352 21.0595 83.2352ZM21.0723 81.3815C21.5922 81.3815 22.0268 81.2388 22.3762 80.9533C22.7257 80.6635 22.9856 80.2757 23.1561 79.7899C23.3308 79.3041 23.4181 78.7629 23.4181 78.1663C23.4181 77.5655 23.3308 77.0221 23.1561 76.5364C22.9856 76.0463 22.7257 75.6564 22.3762 75.3666C22.0268 75.0768 21.5922 74.932 21.0723 74.932C20.5396 74.932 20.0964 75.0768 19.7427 75.3666C19.3933 75.6564 19.1312 76.0463 18.9565 76.5364C18.786 77.0221 18.7008 77.5655 18.7008 78.1663C18.7008 78.7629 18.786 79.3041 18.9565 79.7899C19.1312 80.2757 19.3933 80.6635 19.7427 80.9533C20.0964 81.2388 20.5396 81.3815 21.0723 81.3815ZM30.0419 69.9525V83.0435H27.728V69.9525H30.0419ZM36.0648 83.216C35.2935 83.216 34.6032 83.0179 33.9938 82.6216C33.3844 82.2253 32.9029 81.65 32.5492 80.8957C32.1955 80.1415 32.0186 79.2253 32.0186 78.1471C32.0186 77.0562 32.1976 76.1358 32.5556 75.3858C32.9178 74.6315 33.4057 74.0626 34.0194 73.6791C34.633 73.2913 35.3169 73.0974 36.0712 73.0974C36.6465 73.0974 37.1195 73.1954 37.4902 73.3915C37.861 73.5832 38.155 73.8155 38.3723 74.0882C38.5897 74.3567 38.758 74.6102 38.8773 74.8489H38.9732V69.9525H41.2935V83.0435H39.0179V81.4966H38.8773C38.758 81.7352 38.5854 81.9888 38.3596 82.2572C38.1337 82.5214 37.8354 82.7473 37.4647 82.9348C37.0939 83.1223 36.6273 83.216 36.0648 83.216ZM36.7104 81.3176C37.2005 81.3176 37.6181 81.1855 37.9632 80.9213C38.3084 80.6528 38.5705 80.28 38.7495 79.8027C38.9284 79.3254 39.0179 78.7693 39.0179 78.1344C39.0179 77.4994 38.9284 76.9476 38.7495 76.4788C38.5748 76.0101 38.3148 75.6457 37.9696 75.3858C37.6287 75.1258 37.209 74.9959 36.7104 74.9959C36.1948 74.9959 35.7644 75.1301 35.4192 75.3986C35.074 75.667 34.8141 76.0378 34.6394 76.5108C34.4647 76.9838 34.3773 77.525 34.3773 78.1344C34.3773 78.748 34.4647 79.2956 34.6394 79.7771C34.8184 80.2544 35.0804 80.6315 35.4256 80.9085C35.775 81.1812 36.2033 81.3176 36.7104 81.3176Z" fill="#BB9020"/>
<path d="M5.65234 5L22.5871 32.2609L39.5219 5" stroke="#E4E4E4" stroke-width="10" stroke-linecap="round"/>
<circle cx="23" cy="38.0435" r="19" fill="#F7C649"/>
<circle cx="23" cy="38" r="13" fill="#DBA10B"/>
<mask id="mask0_1020_1031" style="mask-type:alpha" maskUnits="userSpaceOnUse" x="4" y="19" width="38" height="39">
<circle cx="23" cy="38.0435" r="19" fill="#B7854B"/>
<circle cx="23" cy="38" r="13" fill="#AC773A"/>
</mask>
<g mask="url(#mask0_1020_1031)">
<line opacity="0.2" x1="20.9484" y1="16.6068" x2="44.9484" y2="51.6068" stroke="white" stroke-width="12"/>
</g>
</svg>
