<svg width="82" height="120" viewBox="0 0 82 120" fill="none" xmlns="http://www.w3.org/2000/svg">
<g filter="url(#filter0_d_1020_1443)">
<path fill-rule="evenodd" clip-rule="evenodd" d="M67.4867 5.42174C59.9351 0.734506 50.0135 3.05658 45.3263 10.6082L40.6894 18.0787L36.6732 11.6082C31.986 4.05658 22.0644 1.73451 14.5128 6.42174C6.96112 11.109 4.63905 21.0305 9.32628 28.5822L13.6743 35.5874C10.0925 40.8654 7.99974 47.2359 7.99974 54.0952C7.99974 62.1275 10.8695 69.4895 15.6396 75.2119C11.5636 78.8733 9 84.1847 9 90.095C9 101.141 17.9543 110.095 29 110.095H53C64.0457 110.095 73 101.141 73 90.095C73 84.1846 70.4362 78.873 66.3602 75.2116C71.1301 69.4893 73.9997 62.1273 73.9997 54.0952C73.9997 47.0297 71.7793 40.4828 67.9981 35.1143L72.6732 27.5822C77.3604 20.0305 75.0384 10.109 67.4867 5.42174Z" fill="white"/>
</g>
<path d="M30.0611 88.1329C29.9545 87.7878 29.8075 87.4788 29.62 87.2061C29.4368 86.9291 29.2152 86.6926 28.9553 86.4966C28.6996 86.3006 28.4055 86.1535 28.0732 86.0555C27.7408 85.9533 27.3786 85.9021 26.9865 85.9021C26.2834 85.9021 25.657 86.079 25.1072 86.4327C24.5575 86.7864 24.125 87.3062 23.8097 87.9923C23.4986 88.6741 23.343 89.5051 23.343 90.4852C23.343 91.4739 23.4986 92.3112 23.8097 92.9973C24.1207 93.6834 24.5533 94.2054 25.1072 94.5633C25.6612 94.917 26.3047 95.0939 27.0376 95.0939C27.7024 95.0939 28.2777 94.966 28.7635 94.7104C29.2536 94.4547 29.6307 94.0925 29.8949 93.6237C30.1591 93.1507 30.2912 92.5967 30.2912 91.9618L30.8281 92.0449H27.2741V90.1912H32.5859V91.7636C32.5859 92.8844 32.3473 93.8538 31.87 94.672C31.3928 95.4902 30.7365 96.1209 29.9013 96.5641C29.0661 97.003 28.1072 97.2224 27.0249 97.2224C25.8189 97.2224 24.7599 96.9518 23.848 96.4106C22.9403 95.8652 22.2308 95.0918 21.7195 94.0903C21.2124 93.0847 20.9588 91.8915 20.9588 90.5108C20.9588 89.454 21.108 88.5101 21.4062 87.6791C21.7088 86.8481 22.1307 86.1429 22.6719 85.5633C23.2131 84.9795 23.848 84.5364 24.5767 84.2338C25.3054 83.927 26.098 83.7736 26.9545 83.7736C27.679 83.7736 28.3544 83.8801 28.9808 84.0932C29.6072 84.302 30.1634 84.6003 30.6491 84.9881C31.1392 85.3758 31.5419 85.8361 31.8572 86.3687C32.1726 86.9014 32.3793 87.4895 32.4773 88.1329H30.0611ZM39.0595 97.2352C38.1007 97.2352 37.2697 97.0243 36.5666 96.6024C35.8635 96.1805 35.318 95.5903 34.9302 94.8318C34.5467 94.0733 34.3549 93.1869 34.3549 92.1727C34.3549 91.1585 34.5467 90.27 34.9302 89.5072C35.318 88.7445 35.8635 88.1521 36.5666 87.7302C37.2697 87.3084 38.1007 87.0974 39.0595 87.0974C40.0183 87.0974 40.8493 87.3084 41.5524 87.7302C42.2555 88.1521 42.7988 88.7445 43.1824 89.5072C43.5701 90.27 43.764 91.1585 43.764 92.1727C43.764 93.1869 43.5701 94.0733 43.1824 94.8318C42.7988 95.5903 42.2555 96.1805 41.5524 96.6024C40.8493 97.0243 40.0183 97.2352 39.0595 97.2352ZM39.0723 95.3815C39.5922 95.3815 40.0268 95.2388 40.3762 94.9533C40.7257 94.6635 40.9856 94.2757 41.1561 93.7899C41.3308 93.3041 41.4181 92.7629 41.4181 92.1663C41.4181 91.5655 41.3308 91.0221 41.1561 90.5364C40.9856 90.0463 40.7257 89.6564 40.3762 89.3666C40.0268 89.0768 39.5922 88.932 39.0723 88.932C38.5396 88.932 38.0964 89.0768 37.7427 89.3666C37.3933 89.6564 37.1312 90.0463 36.9565 90.5364C36.786 91.0221 36.7008 91.5655 36.7008 92.1663C36.7008 92.7629 36.786 93.3041 36.9565 93.7899C37.1312 94.2757 37.3933 94.6635 37.7427 94.9533C38.0964 95.2388 38.5396 95.3815 39.0723 95.3815ZM48.0419 83.9525V97.0435H45.728V83.9525H48.0419ZM54.0648 97.216C53.2935 97.216 52.6032 97.0179 51.9938 96.6216C51.3844 96.2253 50.9029 95.65 50.5492 94.8957C50.1955 94.1415 50.0186 93.2253 50.0186 92.1471C50.0186 91.0562 50.1976 90.1358 50.5556 89.3858C50.9178 88.6315 51.4057 88.0626 52.0194 87.6791C52.633 87.2913 53.3169 87.0974 54.0712 87.0974C54.6465 87.0974 55.1195 87.1954 55.4902 87.3915C55.861 87.5832 56.155 87.8155 56.3723 88.0882C56.5897 88.3567 56.758 88.6102 56.8773 88.8489H56.9732V83.9525H59.2935V97.0435H57.0179V95.4966H56.8773C56.758 95.7352 56.5854 95.9888 56.3596 96.2572C56.1337 96.5214 55.8354 96.7473 55.4647 96.9348C55.0939 97.1223 54.6273 97.216 54.0648 97.216ZM54.7104 95.3176C55.2005 95.3176 55.6181 95.1855 55.9632 94.9213C56.3084 94.6528 56.5705 94.28 56.7495 93.8027C56.9284 93.3254 57.0179 92.7693 57.0179 92.1344C57.0179 91.4994 56.9284 90.9476 56.7495 90.4788C56.5748 90.0101 56.3148 89.6457 55.9696 89.3858C55.6287 89.1258 55.209 88.9959 54.7104 88.9959C54.1948 88.9959 53.7644 89.1301 53.4192 89.3986C53.074 89.667 52.8141 90.0378 52.6394 90.5108C52.4647 90.9838 52.3773 91.525 52.3773 92.1344C52.3773 92.748 52.4647 93.2956 52.6394 93.7771C52.8184 94.2544 53.0804 94.6315 53.4256 94.9085C53.775 95.1812 54.2033 95.3176 54.7104 95.3176Z" fill="#BB9020"/>
<path d="M23.6523 19L40.5871 46.2609L57.5219 19" stroke="#E4E4E4" stroke-width="10" stroke-linecap="round"/>
<circle cx="41" cy="52.0435" r="19" fill="#F7C649"/>
<circle cx="41" cy="52" r="13" fill="#DBA10B"/>
<mask id="mask0_1020_1443" style="mask-type:alpha" maskUnits="userSpaceOnUse" x="22" y="33" width="38" height="39">
<circle cx="41" cy="52.0435" r="19" fill="#B7854B"/>
<circle cx="41" cy="52" r="13" fill="#AC773A"/>
</mask>
<g mask="url(#mask0_1020_1443)">
<line opacity="0.2" x1="38.9484" y1="30.6068" x2="62.9484" y2="65.6068" stroke="white" stroke-width="12"/>
</g>
<defs>
<filter id="filter0_d_1020_1443" x="0.904297" y="-0.000244141" width="80.1904" height="119.095" filterUnits="userSpaceOnUse" color-interpolation-filters="sRGB">
<feFlood flood-opacity="0" result="BackgroundImageFix"/>
<feColorMatrix in="SourceAlpha" type="matrix" values="0 0 0 0 0 0 0 0 0 0 0 0 0 0 0 0 0 0 127 0" result="hardAlpha"/>
<feOffset dy="3"/>
<feGaussianBlur stdDeviation="3"/>
<feComposite in2="hardAlpha" operator="out"/>
<feColorMatrix type="matrix" values="0 0 0 0 0 0 0 0 0 0 0 0 0 0 0 0 0 0 0.25 0"/>
<feBlend mode="normal" in2="BackgroundImageFix" result="effect1_dropShadow_1020_1443"/>
<feBlend mode="normal" in="SourceGraphic" in2="effect1_dropShadow_1020_1443" result="shape"/>
</filter>
</defs>
</svg>
