<svg width="76" height="87" viewBox="0 0 76 87" fill="none" xmlns="http://www.w3.org/2000/svg">
<path d="M0.291193 83.0435V69.9525H5.20028C6.20597 69.9525 7.04972 70.14 7.73153 70.515C8.41761 70.89 8.93537 71.4057 9.2848 72.0619C9.63849 72.7139 9.81534 73.4554 9.81534 74.2864C9.81534 75.1258 9.63849 75.8716 9.2848 76.5236C8.93111 77.1756 8.40909 77.6891 7.71875 78.0641C7.02841 78.4348 6.17827 78.6202 5.16832 78.6202H1.91477V76.6706H4.84872C5.43679 76.6706 5.91832 76.5683 6.29332 76.3638C6.66832 76.1592 6.94531 75.878 7.12429 75.52C7.30753 75.1621 7.39915 74.7508 7.39915 74.2864C7.39915 73.8219 7.30753 73.4128 7.12429 73.0591C6.94531 72.7054 6.66619 72.4305 6.28693 72.2345C5.91193 72.0342 5.42827 71.9341 4.83594 71.9341H2.66264V83.0435H0.291193ZM14.0868 69.9525V83.0435H11.7729V69.9525H14.0868ZM19.2915 83.2416C18.6694 83.2416 18.109 83.1308 17.6104 82.9092C17.1161 82.6834 16.7241 82.351 16.4343 81.9121C16.1488 81.4731 16.006 80.932 16.006 80.2885C16.006 79.7345 16.1083 79.2764 16.3129 78.9142C16.5174 78.552 16.7965 78.2622 17.1502 78.0449C17.5039 77.8275 17.9023 77.6635 18.3455 77.5527C18.793 77.4376 19.2553 77.3545 19.7326 77.3034C20.3079 77.2437 20.7745 77.1905 21.1325 77.1436C21.4904 77.0925 21.7504 77.0158 21.9123 76.9135C22.0785 76.807 22.1616 76.6429 22.1616 76.4213V76.3829C22.1616 75.9014 22.0188 75.5285 21.7333 75.2643C21.4478 75.0001 21.0366 74.868 20.4996 74.868C19.9329 74.868 19.4833 74.9916 19.1509 75.2388C18.8228 75.4859 18.6012 75.7778 18.4862 76.1145L16.3256 75.8077C16.4961 75.2111 16.7773 74.7125 17.1694 74.3119C17.5614 73.9071 18.0408 73.6045 18.6076 73.4043C19.1744 73.1997 19.8008 73.0974 20.4869 73.0974C20.9599 73.0974 21.4308 73.1528 21.8995 73.2636C22.3683 73.3744 22.7965 73.5577 23.1843 73.8133C23.5721 74.0648 23.8832 74.4078 24.1175 74.8425C24.3562 75.2771 24.4755 75.8204 24.4755 76.4724V83.0435H22.2511V81.6947H22.1744C22.0337 81.9675 21.8356 82.2231 21.5799 82.4618C21.3285 82.6962 21.011 82.8858 20.6275 83.0307C20.2482 83.1713 19.8029 83.2416 19.2915 83.2416ZM19.8924 81.5413C20.3569 81.5413 20.7596 81.4497 21.1005 81.2665C21.4414 81.079 21.7035 80.8318 21.8867 80.525C22.0742 80.2182 22.168 79.8837 22.168 79.5214V78.3645C22.0955 78.4241 21.9719 78.4795 21.7972 78.5307C21.6268 78.5818 21.435 78.6266 21.2219 78.6649C21.0089 78.7033 20.7979 78.7373 20.5891 78.7672C20.3803 78.797 20.1992 78.8226 20.0458 78.8439C19.7006 78.8908 19.3917 78.9675 19.119 79.074C18.8462 79.1805 18.631 79.3297 18.4734 79.5214C18.3157 79.7089 18.2369 79.9518 18.2369 80.2501C18.2369 80.6763 18.3924 80.998 18.7035 81.2153C19.0146 81.4327 19.4109 81.5413 19.8924 81.5413ZM31.7049 73.2253V75.015H26.0607V73.2253H31.7049ZM27.4542 70.873H29.7681V80.0903C29.7681 80.4014 29.815 80.64 29.9087 80.8062C30.0067 80.9682 30.1346 81.079 30.2923 81.1386C30.4499 81.1983 30.6246 81.2281 30.8164 81.2281C30.9613 81.2281 31.0934 81.2175 31.2127 81.1962C31.3363 81.1748 31.43 81.1557 31.494 81.1386L31.8839 82.9476C31.7603 82.9902 31.5835 83.0371 31.3533 83.0882C31.1275 83.1393 30.8505 83.1692 30.5224 83.1777C29.9428 83.1947 29.4208 83.1074 28.9563 82.9156C28.4918 82.7196 28.1232 82.417 27.8505 82.0079C27.582 81.5989 27.4499 81.0875 27.4542 80.4739V70.873ZM33.6401 83.0435V73.2253H35.954V83.0435H33.6401ZM34.8034 71.8318C34.437 71.8318 34.1216 71.7104 33.8574 71.4675C33.5932 71.2203 33.4611 70.9241 33.4611 70.579C33.4611 70.2295 33.5932 69.9334 33.8574 69.6905C34.1216 69.4433 34.437 69.3197 34.8034 69.3197C35.1742 69.3197 35.4895 69.4433 35.7495 69.6905C36.0137 69.9334 36.1458 70.2295 36.1458 70.579C36.1458 70.9241 36.0137 71.2203 35.7495 71.4675C35.4895 71.7104 35.1742 71.8318 34.8034 71.8318ZM40.6474 77.2906V83.0435H38.3335V73.2253H40.5451V74.8936H40.6602C40.886 74.3439 41.2461 73.9071 41.7404 73.5832C42.239 73.2594 42.8548 73.0974 43.5877 73.0974C44.2653 73.0974 44.8555 73.2423 45.3583 73.5321C45.8654 73.8219 46.2575 74.2416 46.5344 74.7913C46.8157 75.341 46.9542 76.0079 46.9499 76.792V83.0435H44.636V77.15C44.636 76.4937 44.4656 75.9802 44.1246 75.6095C43.788 75.2388 43.3214 75.0534 42.7248 75.0534C42.32 75.0534 41.9599 75.1429 41.6445 75.3219C41.3335 75.4966 41.0884 75.7501 40.9094 76.0825C40.7347 76.4149 40.6474 76.8176 40.6474 77.2906ZM55.56 78.9142V73.2253H57.8739V83.0435H55.6303V81.2984H55.5281C55.3065 81.8481 54.9421 82.2977 54.435 82.6472C53.9322 82.9966 53.3121 83.1713 52.5749 83.1713C51.9315 83.1713 51.3626 83.0285 50.8683 82.743C50.3782 82.4533 49.9947 82.0335 49.7177 81.4838C49.4407 80.9298 49.3022 80.2608 49.3022 79.4767V73.2253H51.6161V79.1187C51.6161 79.7409 51.7866 80.2352 52.1275 80.6017C52.4684 80.9682 52.9158 81.1514 53.4698 81.1514C53.8107 81.1514 54.141 81.0683 54.4606 80.9021C54.7802 80.7359 55.0423 80.4888 55.2468 80.1606C55.4556 79.8283 55.56 79.4128 55.56 78.9142ZM60.2534 83.0435V73.2253H62.465V74.8936H62.5801C62.7846 74.3311 63.1234 73.8922 63.5964 73.5768C64.0694 73.2572 64.6341 73.0974 65.2903 73.0974C65.9551 73.0974 66.5154 73.2594 66.9714 73.5832C67.4316 73.9028 67.7555 74.3396 67.943 74.8936H68.0453C68.2626 74.3481 68.6291 73.9135 69.1447 73.5896C69.6646 73.2615 70.2804 73.0974 70.992 73.0974C71.8954 73.0974 72.6326 73.3829 73.2037 73.954C73.7747 74.525 74.0602 75.3581 74.0602 76.4533V83.0435H71.7399V76.8112C71.7399 76.2018 71.5779 75.7565 71.2541 75.4753C70.9302 75.1898 70.5339 75.047 70.0652 75.047C69.5069 75.047 69.0701 75.2217 68.7548 75.5712C68.4437 75.9163 68.2882 76.3659 68.2882 76.9199V83.0435H66.019V76.7153C66.019 76.2082 65.8656 75.8034 65.5588 75.5008C65.2562 75.1983 64.8599 75.047 64.3699 75.047C64.0375 75.047 63.7349 75.1322 63.4622 75.3027C63.1895 75.4689 62.9721 75.7054 62.8102 76.0122C62.6483 76.3148 62.5673 76.6685 62.5673 77.0733V83.0435H60.2534Z" fill="#3A3A3A"/>
<path d="M20.6523 5L37.5871 32.2609L54.5219 5" stroke="#E4E4E4" stroke-width="10" stroke-linecap="round"/>
<circle cx="38" cy="38.0435" r="19" fill="#A3A3A3"/>
<circle cx="38" cy="38" r="13" fill="#7D7D7D"/>
<mask id="mask0_1020_1032" style="mask-type:alpha" maskUnits="userSpaceOnUse" x="19" y="19" width="38" height="39">
<circle cx="38" cy="38.0435" r="19" fill="#B7854B"/>
<circle cx="38" cy="38" r="13" fill="#AC773A"/>
</mask>
<g mask="url(#mask0_1020_1032)">
<line opacity="0.2" x1="35.9484" y1="16.6068" x2="59.9484" y2="51.6068" stroke="white" stroke-width="12"/>
</g>
</svg>
