<svg width="106" height="120" viewBox="0 0 106 120" fill="none" xmlns="http://www.w3.org/2000/svg">
<g filter="url(#filter0_d_1020_1444)">
<path fill-rule="evenodd" clip-rule="evenodd" d="M78.487 5.42198C70.9353 0.73475 61.0138 3.05682 56.3265 10.6085L51.6897 18.079L47.6735 11.6085C42.9862 4.05682 33.0647 1.73475 25.513 6.42198C17.9614 11.1092 15.6393 21.0308 20.3265 28.5824L24.6746 35.5876C21.0928 40.8657 19 47.2362 19 54.0954C19 59.9784 20.5394 65.5017 23.2373 70.2847C13.499 71.6303 6 79.9871 6 90.0954C6 101.141 14.9543 110.095 26 110.095H80C91.0457 110.095 100 101.141 100 90.0954C100 79.3374 91.506 70.5632 80.8586 70.1135C83.4971 65.3701 85 59.9083 85 54.0954C85 47.0299 82.7795 40.4831 78.9983 35.1146L83.6735 27.5824C88.3607 20.0308 86.0386 10.1092 78.487 5.42198Z" fill="white"/>
</g>
<path d="M15.2912 97.0435V83.9525H20.2003C21.206 83.9525 22.0497 84.14 22.7315 84.515C23.4176 84.89 23.9354 85.4057 24.2848 86.0619C24.6385 86.7139 24.8153 87.4554 24.8153 88.2864C24.8153 89.1258 24.6385 89.8716 24.2848 90.5236C23.9311 91.1756 23.4091 91.6891 22.7188 92.0641C22.0284 92.4348 21.1783 92.6202 20.1683 92.6202H16.9148V90.6706H19.8487C20.4368 90.6706 20.9183 90.5683 21.2933 90.3638C21.6683 90.1592 21.9453 89.878 22.1243 89.52C22.3075 89.1621 22.3991 88.7508 22.3991 88.2864C22.3991 87.8219 22.3075 87.4128 22.1243 87.0591C21.9453 86.7054 21.6662 86.4305 21.2869 86.2345C20.9119 86.0342 20.4283 85.9341 19.8359 85.9341H17.6626V97.0435H15.2912ZM29.0868 83.9525V97.0435H26.7729V83.9525H29.0868ZM34.2915 97.2416C33.6694 97.2416 33.109 97.1308 32.6104 96.9092C32.1161 96.6834 31.7241 96.351 31.4343 95.9121C31.1488 95.4731 31.006 94.932 31.006 94.2885C31.006 93.7345 31.1083 93.2764 31.3129 92.9142C31.5174 92.552 31.7965 92.2622 32.1502 92.0449C32.5039 91.8275 32.9023 91.6635 33.3455 91.5527C33.793 91.4376 34.2553 91.3545 34.7326 91.3034C35.3079 91.2437 35.7745 91.1905 36.1325 91.1436C36.4904 91.0925 36.7504 91.0158 36.9123 90.9135C37.0785 90.807 37.1616 90.6429 37.1616 90.4213V90.3829C37.1616 89.9014 37.0188 89.5285 36.7333 89.2643C36.4478 89.0001 36.0366 88.868 35.4996 88.868C34.9329 88.868 34.4833 88.9916 34.1509 89.2388C33.8228 89.4859 33.6012 89.7778 33.4862 90.1145L31.3256 89.8077C31.4961 89.2111 31.7773 88.7125 32.1694 88.3119C32.5614 87.9071 33.0408 87.6045 33.6076 87.4043C34.1744 87.1997 34.8008 87.0974 35.4869 87.0974C35.9599 87.0974 36.4308 87.1528 36.8995 87.2636C37.3683 87.3744 37.7965 87.5577 38.1843 87.8133C38.5721 88.0648 38.8832 88.4078 39.1175 88.8425C39.3562 89.2771 39.4755 89.8204 39.4755 90.4724V97.0435H37.2511V95.6947H37.1744C37.0337 95.9675 36.8356 96.2231 36.5799 96.4618C36.3285 96.6962 36.011 96.8858 35.6275 97.0307C35.2482 97.1713 34.8029 97.2416 34.2915 97.2416ZM34.8924 95.5413C35.3569 95.5413 35.7596 95.4497 36.1005 95.2665C36.4414 95.079 36.7035 94.8318 36.8867 94.525C37.0742 94.2182 37.168 93.8837 37.168 93.5214V92.3645C37.0955 92.4241 36.9719 92.4795 36.7972 92.5307C36.6268 92.5818 36.435 92.6266 36.2219 92.6649C36.0089 92.7033 35.7979 92.7373 35.5891 92.7672C35.3803 92.797 35.1992 92.8226 35.0458 92.8439C34.7006 92.8908 34.3917 92.9675 34.119 93.074C33.8462 93.1805 33.631 93.3297 33.4734 93.5214C33.3157 93.7089 33.2369 93.9518 33.2369 94.2501C33.2369 94.6763 33.3924 94.998 33.7035 95.2153C34.0146 95.4327 34.4109 95.5413 34.8924 95.5413ZM46.7049 87.2253V89.015H41.0607V87.2253H46.7049ZM42.4542 84.873H44.7681V94.0903C44.7681 94.4014 44.815 94.64 44.9087 94.8062C45.0067 94.9682 45.1346 95.079 45.2923 95.1386C45.4499 95.1983 45.6246 95.2281 45.8164 95.2281C45.9613 95.2281 46.0934 95.2175 46.2127 95.1962C46.3363 95.1748 46.43 95.1557 46.494 95.1386L46.8839 96.9476C46.7603 96.9902 46.5835 97.0371 46.3533 97.0882C46.1275 97.1393 45.8505 97.1692 45.5224 97.1777C44.9428 97.1947 44.4208 97.1074 43.9563 96.9156C43.4918 96.7196 43.1232 96.417 42.8505 96.0079C42.582 95.5989 42.4499 95.0875 42.4542 94.4739V84.873ZM48.6401 97.0435V87.2253H50.954V97.0435H48.6401ZM49.8034 85.8318C49.437 85.8318 49.1216 85.7104 48.8574 85.4675C48.5932 85.2203 48.4611 84.9241 48.4611 84.579C48.4611 84.2295 48.5932 83.9334 48.8574 83.6905C49.1216 83.4433 49.437 83.3197 49.8034 83.3197C50.1742 83.3197 50.4895 83.4433 50.7495 83.6905C51.0137 83.9334 51.1458 84.2295 51.1458 84.579C51.1458 84.9241 51.0137 85.2203 50.7495 85.4675C50.4895 85.7104 50.1742 85.8318 49.8034 85.8318ZM55.6474 91.2906V97.0435H53.3335V87.2253H55.5451V88.8936H55.6602C55.886 88.3439 56.2461 87.9071 56.7404 87.5832C57.239 87.2594 57.8548 87.0974 58.5877 87.0974C59.2653 87.0974 59.8555 87.2423 60.3583 87.5321C60.8654 87.8219 61.2575 88.2416 61.5344 88.7913C61.8157 89.341 61.9542 90.0079 61.9499 90.792V97.0435H59.636V91.15C59.636 90.4937 59.4656 89.9802 59.1246 89.6095C58.788 89.2388 58.3214 89.0534 57.7248 89.0534C57.32 89.0534 56.9599 89.1429 56.6445 89.3219C56.3335 89.4966 56.0884 89.7501 55.9094 90.0825C55.7347 90.4149 55.6474 90.8176 55.6474 91.2906ZM70.56 92.9142V87.2253H72.8739V97.0435H70.6303V95.2984H70.5281C70.3065 95.8481 69.9421 96.2977 69.435 96.6472C68.9322 96.9966 68.3121 97.1713 67.5749 97.1713C66.9315 97.1713 66.3626 97.0285 65.8683 96.743C65.3782 96.4533 64.9947 96.0335 64.7177 95.4838C64.4407 94.9298 64.3022 94.2608 64.3022 93.4767V87.2253H66.6161V93.1187C66.6161 93.7409 66.7866 94.2352 67.1275 94.6017C67.4684 94.9682 67.9158 95.1514 68.4698 95.1514C68.8107 95.1514 69.141 95.0683 69.4606 94.9021C69.7802 94.7359 70.0423 94.4888 70.2468 94.1606C70.4556 93.8283 70.56 93.4128 70.56 92.9142ZM75.2534 97.0435V87.2253H77.465V88.8936H77.5801C77.7846 88.3311 78.1234 87.8922 78.5964 87.5768C79.0694 87.2572 79.6341 87.0974 80.2903 87.0974C80.9551 87.0974 81.5154 87.2594 81.9714 87.5832C82.4316 87.9028 82.7555 88.3396 82.943 88.8936H83.0453C83.2626 88.3481 83.6291 87.9135 84.1447 87.5896C84.6646 87.2615 85.2804 87.0974 85.992 87.0974C86.8954 87.0974 87.6326 87.3829 88.2037 87.954C88.7747 88.525 89.0602 89.3581 89.0602 90.4533V97.0435H86.7399V90.8112C86.7399 90.2018 86.5779 89.7565 86.2541 89.4753C85.9302 89.1898 85.5339 89.047 85.0652 89.047C84.5069 89.047 84.0701 89.2217 83.7548 89.5712C83.4437 89.9163 83.2882 90.3659 83.2882 90.9199V97.0435H81.019V90.7153C81.019 90.2082 80.8656 89.8034 80.5588 89.5008C80.2562 89.1983 79.8599 89.047 79.3699 89.047C79.0375 89.047 78.7349 89.1322 78.4622 89.3027C78.1895 89.4689 77.9721 89.7054 77.8102 90.0122C77.6483 90.3148 77.5673 90.6685 77.5673 91.0733V97.0435H75.2534Z" fill="#3A3A3A"/>
<path d="M35.6523 19L52.5871 46.2609L69.5219 19" stroke="#E4E4E4" stroke-width="10" stroke-linecap="round"/>
<circle cx="53" cy="52.0435" r="19" fill="#A3A3A3"/>
<circle cx="53" cy="52" r="13" fill="#7D7D7D"/>
<mask id="mask0_1020_1444" style="mask-type:alpha" maskUnits="userSpaceOnUse" x="34" y="33" width="38" height="39">
<circle cx="53" cy="52.0435" r="19" fill="#B7854B"/>
<circle cx="53" cy="52" r="13" fill="#AC773A"/>
</mask>
<g mask="url(#mask0_1020_1444)">
<line opacity="0.2" x1="50.9484" y1="30.6068" x2="74.9484" y2="65.6068" stroke="white" stroke-width="12"/>
</g>
<defs>
<filter id="filter0_d_1020_1444" x="0" y="0" width="106" height="119.095" filterUnits="userSpaceOnUse" color-interpolation-filters="sRGB">
<feFlood flood-opacity="0" result="BackgroundImageFix"/>
<feColorMatrix in="SourceAlpha" type="matrix" values="0 0 0 0 0 0 0 0 0 0 0 0 0 0 0 0 0 0 127 0" result="hardAlpha"/>
<feOffset dy="3"/>
<feGaussianBlur stdDeviation="3"/>
<feComposite in2="hardAlpha" operator="out"/>
<feColorMatrix type="matrix" values="0 0 0 0 0 0 0 0 0 0 0 0 0 0 0 0 0 0 0.25 0"/>
<feBlend mode="normal" in2="BackgroundImageFix" result="effect1_dropShadow_1020_1444"/>
<feBlend mode="normal" in="SourceGraphic" in2="effect1_dropShadow_1020_1444" result="shape"/>
</filter>
</defs>
</svg>
