<svg width="82" height="120" viewBox="0 0 82 120" fill="none" xmlns="http://www.w3.org/2000/svg">
<g filter="url(#filter0_d_1020_1442)">
<path fill-rule="evenodd" clip-rule="evenodd" d="M67.4867 5.42174C59.9351 0.734506 50.0135 3.05658 45.3263 10.6082L40.6894 18.0787L36.6732 11.6082C31.986 4.05658 22.0644 1.73451 14.5128 6.42174C6.96112 11.109 4.63905 21.0305 9.32628 28.5822L13.6743 35.5874C10.0925 40.8654 7.99974 47.2359 7.99974 54.0952C7.99974 61.6683 10.5508 68.6457 14.8404 74.2147C10.0733 77.8702 6.99974 83.6238 6.99974 90.0952C6.99974 101.141 15.954 110.095 26.9997 110.095H54.9997C66.0454 110.095 74.9997 101.141 74.9997 90.0952C74.9997 83.6238 71.9262 77.8702 67.1591 74.2147C71.4487 68.6456 73.9997 61.6683 73.9997 54.0952C73.9997 47.0297 71.7793 40.4828 67.9981 35.1143L72.6732 27.5822C77.3604 20.0305 75.0384 10.109 67.4867 5.42174Z" fill="white"/>
</g>
<path d="M24.4055 87.5513C24.3459 86.993 24.0945 86.5584 23.6513 86.2473C23.2124 85.9362 22.6413 85.7807 21.9382 85.7807C21.4439 85.7807 21.0199 85.8552 20.6662 86.0044C20.3125 86.1535 20.0419 86.356 19.8544 86.6116C19.6669 86.8673 19.571 87.1592 19.5668 87.4873C19.5668 87.7601 19.6286 87.9966 19.7521 88.1969C19.88 88.3972 20.0526 88.5676 20.2699 88.7082C20.4872 88.8446 20.728 88.9596 20.9922 89.0534C21.2564 89.1471 21.5227 89.226 21.7912 89.2899L23.0185 89.5967C23.5128 89.7118 23.9879 89.8673 24.4439 90.0633C24.9041 90.2594 25.3153 90.5065 25.6776 90.8048C26.044 91.1031 26.3338 91.4632 26.5469 91.8851C26.7599 92.307 26.8665 92.8013 26.8665 93.368C26.8665 94.1351 26.6705 94.8105 26.2784 95.3943C25.8864 95.9739 25.3196 96.4277 24.5781 96.7558C23.8409 97.0797 22.9482 97.2416 21.8999 97.2416C20.8814 97.2416 19.9972 97.0839 19.2472 96.7686C18.5014 96.4533 17.9176 95.993 17.4957 95.3879C17.0781 94.7828 16.8523 94.0456 16.8182 93.1763H19.1513C19.1854 93.6322 19.326 94.0115 19.5732 94.3141C19.8203 94.6166 20.142 94.8425 20.5384 94.9916C20.9389 95.1408 21.3864 95.2153 21.8807 95.2153C22.3963 95.2153 22.848 95.1386 23.2358 94.9852C23.6278 94.8275 23.9347 94.6102 24.1562 94.3332C24.3778 94.052 24.4908 93.7239 24.495 93.3489C24.4908 93.0079 24.3906 92.7267 24.1946 92.5051C23.9986 92.2793 23.7237 92.0918 23.37 91.9426C23.0206 91.7892 22.6115 91.6528 22.1428 91.5335L20.6534 91.15C19.5753 90.873 18.723 90.4533 18.0966 89.8908C17.4744 89.324 17.1634 88.5719 17.1634 87.6344C17.1634 86.8631 17.3722 86.1876 17.7898 85.6081C18.2116 85.0285 18.7848 84.579 19.5092 84.2594C20.2337 83.9355 21.054 83.7736 21.9702 83.7736C22.8991 83.7736 23.7131 83.9355 24.4119 84.2594C25.1151 84.579 25.6669 85.0243 26.0675 85.5953C26.468 86.1621 26.6747 86.8141 26.6875 87.5513H24.4055ZM28.8784 97.0435V87.2253H31.1923V97.0435H28.8784ZM30.0417 85.8318C29.6752 85.8318 29.3599 85.7104 29.0957 85.4675C28.8315 85.2203 28.6994 84.9241 28.6994 84.579C28.6994 84.2295 28.8315 83.9334 29.0957 83.6905C29.3599 83.4433 29.6752 83.3197 30.0417 83.3197C30.4125 83.3197 30.7278 83.4433 30.9877 83.6905C31.252 83.9334 31.3841 84.2295 31.3841 84.579C31.3841 84.9241 31.252 85.2203 30.9877 85.4675C30.7278 85.7104 30.4125 85.8318 30.0417 85.8318ZM35.8857 83.9525V97.0435H33.5717V83.9525H35.8857ZM47.035 87.2253L43.5385 97.0435H40.9817L37.4853 87.2253H39.9526L42.209 94.5186H42.3113L44.574 87.2253H47.035ZM52.6488 97.2352C51.6644 97.2352 50.8143 97.0307 50.0984 96.6216C49.3867 96.2082 48.8391 95.6244 48.4556 94.8702C48.0721 94.1116 47.8803 93.2189 47.8803 92.1919C47.8803 91.182 48.0721 90.2956 48.4556 89.5328C48.8434 88.7658 49.3846 88.1692 50.0792 87.743C50.7738 87.3126 51.5898 87.0974 52.5273 87.0974C53.1325 87.0974 53.7035 87.1954 54.2404 87.3915C54.7816 87.5832 55.2589 87.8815 55.6722 88.2864C56.0898 88.6912 56.418 89.2068 56.6566 89.8332C56.8952 90.4554 57.0146 91.1969 57.0146 92.0577V92.7672H48.967V91.2075H54.7965C54.7923 90.7643 54.6964 90.3702 54.5089 90.025C54.3214 89.6756 54.0593 89.4007 53.7227 89.2004C53.3903 89.0001 53.0025 88.9 52.5593 88.9C52.0863 88.9 51.6708 89.015 51.3129 89.2452C50.9549 89.471 50.6758 89.7693 50.4755 90.14C50.2795 90.5065 50.1793 90.9092 50.1751 91.3481V92.7097C50.1751 93.2807 50.2795 93.7707 50.4883 94.1798C50.6971 94.5847 50.989 94.8957 51.364 95.1131C51.739 95.3261 52.1779 95.4327 52.6808 95.4327C53.0174 95.4327 53.3221 95.3858 53.5948 95.292C53.8675 95.194 54.104 95.0513 54.3043 94.8638C54.5046 94.6763 54.6559 94.444 54.7582 94.167L56.9187 94.4099C56.7823 94.981 56.5224 95.4795 56.1389 95.9057C55.7596 96.3275 55.2738 96.6557 54.6815 96.89C54.0891 97.1202 53.4116 97.2352 52.6488 97.2352ZM58.9721 97.0435V87.2253H61.2157V88.8616H61.318C61.497 88.2949 61.8038 87.8581 62.2385 87.5513C62.6774 87.2402 63.1781 87.0846 63.7406 87.0846C63.8684 87.0846 64.0112 87.091 64.1689 87.1038C64.3308 87.1123 64.465 87.1273 64.5716 87.1486V89.2771C64.4735 89.243 64.318 89.2132 64.1049 89.1876C63.8961 89.1578 63.6937 89.1429 63.4977 89.1429C63.0758 89.1429 62.6966 89.2345 62.3599 89.4177C62.0275 89.5967 61.7654 89.846 61.5737 90.1656C61.3819 90.4852 61.286 90.8538 61.286 91.2714V97.0435H58.9721Z" fill="#818181"/>
<path d="M23.6523 19L40.5871 46.2609L57.5219 19" stroke="#E4E4E4" stroke-width="10" stroke-linecap="round"/>
<circle cx="41" cy="52.0435" r="19" fill="#D4D4D4"/>
<circle cx="41" cy="52" r="13" fill="#B2B2B2"/>
<mask id="mask0_1020_1442" style="mask-type:alpha" maskUnits="userSpaceOnUse" x="22" y="33" width="38" height="39">
<circle cx="41" cy="52.0435" r="19" fill="#B7854B"/>
<circle cx="41" cy="52" r="13" fill="#AC773A"/>
</mask>
<g mask="url(#mask0_1020_1442)">
<line opacity="0.2" x1="38.9484" y1="30.6068" x2="62.9484" y2="65.6068" stroke="white" stroke-width="12"/>
</g>
<defs>
<filter id="filter0_d_1020_1442" x="0.904297" y="-0.000244141" width="80.1904" height="119.095" filterUnits="userSpaceOnUse" color-interpolation-filters="sRGB">
<feFlood flood-opacity="0" result="BackgroundImageFix"/>
<feColorMatrix in="SourceAlpha" type="matrix" values="0 0 0 0 0 0 0 0 0 0 0 0 0 0 0 0 0 0 127 0" result="hardAlpha"/>
<feOffset dy="3"/>
<feGaussianBlur stdDeviation="3"/>
<feComposite in2="hardAlpha" operator="out"/>
<feColorMatrix type="matrix" values="0 0 0 0 0 0 0 0 0 0 0 0 0 0 0 0 0 0 0.25 0"/>
<feBlend mode="normal" in2="BackgroundImageFix" result="effect1_dropShadow_1020_1442"/>
<feBlend mode="normal" in="SourceGraphic" in2="effect1_dropShadow_1020_1442" result="shape"/>
</filter>
</defs>
</svg>
