<svg width="49" height="87" viewBox="0 0 49 87" fill="none" xmlns="http://www.w3.org/2000/svg">
<path d="M8.40554 73.5513C8.34588 72.993 8.09446 72.5584 7.65128 72.2473C7.21236 71.9362 6.64134 71.7807 5.93821 71.7807C5.44389 71.7807 5.01989 71.8552 4.66619 72.0044C4.3125 72.1535 4.0419 72.356 3.8544 72.6116C3.6669 72.8673 3.57102 73.1592 3.56676 73.4873C3.56676 73.7601 3.62855 73.9966 3.75213 74.1969C3.87997 74.3972 4.05256 74.5676 4.26989 74.7082C4.48722 74.8446 4.72798 74.9596 4.99219 75.0534C5.25639 75.1471 5.52273 75.226 5.79119 75.2899L7.01847 75.5967C7.51278 75.7118 7.98793 75.8673 8.44389 76.0633C8.90412 76.2594 9.31534 76.5065 9.67756 76.8048C10.044 77.1031 10.3338 77.4632 10.5469 77.8851C10.7599 78.307 10.8665 78.8013 10.8665 79.368C10.8665 80.1351 10.6705 80.8105 10.2784 81.3943C9.88636 81.9739 9.3196 82.4277 8.57812 82.7558C7.84091 83.0797 6.94815 83.2416 5.89986 83.2416C4.88139 83.2416 3.99716 83.0839 3.24716 82.7686C2.50142 82.4533 1.91761 81.993 1.49574 81.3879C1.07813 80.7828 0.852273 80.0456 0.818182 79.1763H3.15128C3.18537 79.6322 3.32599 80.0115 3.57315 80.3141C3.82031 80.6166 4.14205 80.8425 4.53835 80.9916C4.93892 81.1408 5.38636 81.2153 5.88068 81.2153C6.39631 81.2153 6.84801 81.1386 7.2358 80.9852C7.62784 80.8275 7.93466 80.6102 8.15625 80.3332C8.37784 80.052 8.49077 79.7239 8.49503 79.3489C8.49077 79.0079 8.39063 78.7267 8.1946 78.5051C7.99858 78.2793 7.72372 78.0918 7.37003 77.9426C7.0206 77.7892 6.61151 77.6528 6.14276 77.5335L4.65341 77.15C3.57528 76.873 2.72301 76.4533 2.09659 75.8908C1.47443 75.324 1.16335 74.5719 1.16335 73.6344C1.16335 72.8631 1.37216 72.1876 1.78977 71.6081C2.21165 71.0285 2.7848 70.579 3.50923 70.2594C4.23366 69.9355 5.05398 69.7736 5.97017 69.7736C6.89915 69.7736 7.71307 69.9355 8.41193 70.2594C9.11506 70.579 9.6669 71.0243 10.0675 71.5953C10.468 72.1621 10.6747 72.8141 10.6875 73.5513H8.40554ZM12.8784 83.0435V73.2253H15.1923V83.0435H12.8784ZM14.0417 71.8318C13.6752 71.8318 13.3599 71.7104 13.0957 71.4675C12.8315 71.2203 12.6994 70.9241 12.6994 70.579C12.6994 70.2295 12.8315 69.9334 13.0957 69.6905C13.3599 69.4433 13.6752 69.3197 14.0417 69.3197C14.4125 69.3197 14.7278 69.4433 14.9877 69.6905C15.252 69.9334 15.3841 70.2295 15.3841 70.579C15.3841 70.9241 15.252 71.2203 14.9877 71.4675C14.7278 71.7104 14.4125 71.8318 14.0417 71.8318ZM19.8857 69.9525V83.0435H17.5717V69.9525H19.8857ZM31.035 73.2253L27.5385 83.0435H24.9817L21.4853 73.2253H23.9526L26.209 80.5186H26.3113L28.574 73.2253H31.035ZM36.6488 83.2352C35.6644 83.2352 34.8143 83.0307 34.0984 82.6216C33.3867 82.2082 32.8391 81.6244 32.4556 80.8702C32.0721 80.1116 31.8803 79.2189 31.8803 78.1919C31.8803 77.182 32.0721 76.2956 32.4556 75.5328C32.8434 74.7658 33.3846 74.1692 34.0792 73.743C34.7738 73.3126 35.5898 73.0974 36.5273 73.0974C37.1325 73.0974 37.7035 73.1954 38.2404 73.3915C38.7816 73.5832 39.2589 73.8815 39.6722 74.2864C40.0898 74.6912 40.418 75.2068 40.6566 75.8332C40.8952 76.4554 41.0146 77.1969 41.0146 78.0577V78.7672H32.967V77.2075H38.7965C38.7923 76.7643 38.6964 76.3702 38.5089 76.025C38.3214 75.6756 38.0593 75.4007 37.7227 75.2004C37.3903 75.0001 37.0025 74.9 36.5593 74.9C36.0863 74.9 35.6708 75.015 35.3129 75.2452C34.9549 75.471 34.6758 75.7693 34.4755 76.14C34.2795 76.5065 34.1793 76.9092 34.1751 77.3481V78.7097C34.1751 79.2807 34.2795 79.7707 34.4883 80.1798C34.6971 80.5847 34.989 80.8957 35.364 81.1131C35.739 81.3261 36.1779 81.4327 36.6808 81.4327C37.0174 81.4327 37.3221 81.3858 37.5948 81.292C37.8675 81.194 38.104 81.0513 38.3043 80.8638C38.5046 80.6763 38.6559 80.444 38.7582 80.167L40.9187 80.4099C40.7823 80.981 40.5224 81.4795 40.1389 81.9057C39.7596 82.3275 39.2738 82.6557 38.6815 82.89C38.0891 83.1202 37.4116 83.2352 36.6488 83.2352ZM42.9721 83.0435V73.2253H45.2157V74.8616H45.318C45.497 74.2949 45.8038 73.8581 46.2385 73.5513C46.6774 73.2402 47.1781 73.0846 47.7406 73.0846C47.8684 73.0846 48.0112 73.091 48.1689 73.1038C48.3308 73.1123 48.465 73.1273 48.5716 73.1486V75.2771C48.4735 75.243 48.318 75.2132 48.1049 75.1876C47.8961 75.1578 47.6937 75.1429 47.4977 75.1429C47.0758 75.1429 46.6966 75.2345 46.3599 75.4177C46.0275 75.5967 45.7654 75.846 45.5737 76.1656C45.3819 76.4852 45.286 76.8538 45.286 77.2714V83.0435H42.9721Z" fill="#818181"/>
<path d="M7.65234 5L24.5871 32.2609L41.5219 5" stroke="#E4E4E4" stroke-width="10" stroke-linecap="round"/>
<circle cx="25" cy="38.0435" r="19" fill="#D4D4D4"/>
<circle cx="25" cy="38" r="13" fill="#B2B2B2"/>
<mask id="mask0_1020_1030" style="mask-type:alpha" maskUnits="userSpaceOnUse" x="6" y="19" width="38" height="39">
<circle cx="25" cy="38.0435" r="19" fill="#B7854B"/>
<circle cx="25" cy="38" r="13" fill="#AC773A"/>
</mask>
<g mask="url(#mask0_1020_1030)">
<line opacity="0.2" x1="22.9484" y1="16.6068" x2="46.9484" y2="51.6068" stroke="white" stroke-width="12"/>
</g>
</svg>
