<svg width="32" height="32" viewBox="0 0 32 32" fill="none" xmlns="http://www.w3.org/2000/svg">
<g clip-path="url(#clip0_2658_4955)">
<path d="M1.58436 30.3696L12.048 19.9234M25.4177 14.701L30.0675 10.0574C30.684 9.44173 31.0303 8.60687 31.0303 7.73637C31.0303 6.86588 30.684 6.03101 30.0675 5.41535L26.5818 1.93222C26.2765 1.62723 25.9139 1.3853 25.5148 1.22024C25.1158 1.05517 24.6881 0.970215 24.2561 0.970215C23.8242 0.970215 23.3964 1.05517 22.9974 1.22024C22.5983 1.3853 22.2358 1.62723 21.9304 1.93222L17.2806 6.57589M25.2246 15.2781L22.0924 24.659C22.0425 24.8094 21.9569 24.9455 21.8429 25.0558C21.729 25.1661 21.5901 25.2474 21.438 25.2926L2.23711 30.99C2.06412 31.0413 1.88036 31.0443 1.70582 30.9986C1.53128 30.9528 1.37264 30.8602 1.24718 30.7307C1.12172 30.6012 1.03424 30.4398 0.99425 30.2642C0.954264 30.0885 0.963312 29.9052 1.0204 29.7343L7.2552 11.0646C7.29986 10.9305 7.37293 10.8076 7.46936 10.7043C7.56585 10.6009 7.68347 10.5195 7.81424 10.4654L16.6715 6.82471C16.8516 6.75048 17.0496 6.73114 17.2407 6.7691C17.4318 6.80706 17.6073 6.90069 17.7452 7.03809L24.9862 14.2687C25.1161 14.3981 25.2072 14.5612 25.2493 14.7396C25.2914 14.9179 25.2829 15.1044 25.2246 15.2781ZM15.5345 16.441C15.3054 16.2123 15.0334 16.031 14.7342 15.9073C14.4349 15.7837 14.1142 15.7201 13.7902 15.7201C13.4663 15.7202 13.1456 15.784 12.8464 15.9078C12.5472 16.0316 12.2753 16.2131 12.0463 16.4418C11.8173 16.6705 11.6357 16.9419 11.5118 17.2408C11.388 17.5395 11.3242 17.8597 11.3243 18.1831C11.3244 18.5065 11.3882 18.8267 11.5123 19.1254C11.6363 19.4241 11.8181 19.6955 12.0472 19.9241C12.5098 20.3858 13.1372 20.645 13.7914 20.6449C14.4456 20.6447 15.0729 20.3851 15.5353 19.9233C15.9977 19.4614 16.2575 18.835 16.2573 18.1819C16.2571 17.5289 15.9972 16.9026 15.5345 16.441Z" stroke="#47A8FF" stroke-width="1.93939" stroke-linecap="round" stroke-linejoin="round"/>
</g>
<defs>
<clipPath id="clip0_2658_4955">
<rect width="32" height="32" fill="white"/>
</clipPath>
</defs>
</svg>
