<svg width="32" height="32" viewBox="0 0 32 32" fill="none" xmlns="http://www.w3.org/2000/svg">
<g clip-path="url(#clip0_2658_4953)">
<path fill-rule="evenodd" clip-rule="evenodd" d="M28 1.93939H4C3.50908 1.93939 3.11111 2.37354 3.11111 2.90909V22.303C3.11111 22.8386 3.50908 23.2727 4 23.2727H28C28.4909 23.2727 28.8889 22.8386 28.8889 22.303V2.90909C28.8889 2.37354 28.4909 1.93939 28 1.93939ZM4 0C2.52724 0 1.33333 1.30244 1.33333 2.90909V22.303C1.33333 23.9097 2.52724 25.2121 4 25.2121H28C29.4728 25.2121 30.6667 23.9097 30.6667 22.303V2.90909C30.6667 1.30244 29.4728 0 28 0H4ZM18.2622 5.37891C18.73 5.54119 18.9887 6.08645 18.84 6.59685L15.0693 19.5344C14.9206 20.0448 14.4207 20.327 13.9529 20.1648C13.4851 20.0025 13.2264 19.4572 13.3751 18.9468L17.1457 6.00921C17.2945 5.49886 17.7943 5.21663 18.2622 5.37891ZM7.73356 12.046C7.1576 12.6231 7.1576 13.5587 7.73356 14.1359L9.96391 16.3708C10.3255 16.733 10.9116 16.733 11.2732 16.3708C11.6348 16.0085 11.6348 15.4211 11.2732 15.0588L9.30929 13.0909L11.2732 11.123C11.6348 10.7607 11.6348 10.1733 11.2732 9.81105C10.9116 9.44878 10.3255 9.44878 9.96391 9.81105L7.73356 12.046ZM24.2664 12.046L22.0361 9.81105C21.6745 9.44878 21.0884 9.44878 20.7268 9.81105C20.3652 10.1733 20.3652 10.7607 20.7268 11.123L22.6907 13.0909L20.7268 15.0588C20.3652 15.4211 20.3652 16.0085 20.7268 16.3708C21.0884 16.733 21.6745 16.733 22.0361 16.3708L24.2664 14.1359C24.8424 13.5587 24.8424 12.6231 24.2664 12.046ZM0.888889 30.0606C0.397969 30.0606 0 30.4947 0 31.0303C0 31.5659 0.397969 32 0.888889 32H31.1111C31.602 32 32 31.5659 32 31.0303C32 30.4947 31.602 30.0606 31.1111 30.0606H0.888889Z" fill="#00CA51"/>
</g>
<defs>
<clipPath id="clip0_2658_4953">
<rect width="32" height="32" fill="white"/>
</clipPath>
</defs>
</svg>
