<svg width="205" height="35" viewBox="0 0 205 35" fill="none" xmlns="http://www.w3.org/2000/svg">
<path fill-rule="evenodd" clip-rule="evenodd" d="M17.9701 34.9949C17.8273 34.9983 17.684 35 17.5404 35C7.8531 35 0 27.165 0 17.5C0 7.83502 7.8531 6.57797e-06 17.5404 6.57797e-06C17.684 6.57797e-06 17.8273 0.00172925 17.9701 0.00515502V6.57797e-06H187.431C187.441 -8.22246e-06 187.45 6.57797e-06 187.46 6.57797e-06C197.147 6.57797e-06 205 7.83502 205 17.5C205 27.165 197.147 35 187.46 35C187.45 35 187.441 35 187.431 35H17.9701V34.9949Z" fill="#4A7054"/>
<path d="M44.5723 22H49.583C49.9316 22 50.1709 21.7744 50.1709 21.4463C50.1709 21.1182 49.9316 20.8926 49.583 20.8926H45.1875V17.502H49.3369C49.6787 17.502 49.918 17.2764 49.918 16.9551C49.918 16.627 49.6787 16.4082 49.3369 16.4082H45.1875V13.2432H49.583C49.9316 13.2432 50.1709 13.0176 50.1709 12.6895C50.1709 12.3613 49.9316 12.1357 49.583 12.1357H44.5723C44.1963 12.1357 43.957 12.3818 43.957 12.7715V21.3643C43.957 21.7539 44.1963 22 44.5723 22ZM52.1055 22.123C52.4678 22.123 52.7002 21.8496 52.7002 21.4873V17.543C52.7002 16.5586 53.3838 15.8203 54.3271 15.8203C55.209 15.8203 55.7832 16.3809 55.7832 17.2354V21.4873C55.7832 21.8496 56.0156 22.123 56.3779 22.123C56.7402 22.123 56.9727 21.8496 56.9727 21.4873V17.4814C56.9727 16.5176 57.6357 15.8203 58.5791 15.8203C59.5156 15.8203 60.0557 16.3945 60.0557 17.3652V21.4873C60.0557 21.8496 60.2881 22.123 60.6504 22.123C61.0127 22.123 61.2451 21.8496 61.2451 21.4873V17.0918C61.2451 15.6836 60.3359 14.7676 58.9277 14.7676C57.9297 14.7676 57.0957 15.2734 56.6992 16.1211H56.6719C56.3643 15.2598 55.6465 14.7676 54.6758 14.7676C53.7188 14.7676 52.9941 15.2734 52.6592 16.0254H52.6318V15.3691C52.6318 15.0137 52.3994 14.7676 52.0713 14.7676C51.7432 14.7676 51.5107 15.0137 51.5107 15.3691V21.4873C51.5107 21.8496 51.7432 22.123 52.1055 22.123ZM64.834 22.123C65.791 22.123 66.7002 21.5898 67.124 20.7764H67.1514V21.5215C67.1514 21.877 67.3838 22.123 67.7188 22.123C68.0469 22.123 68.2793 21.877 68.2793 21.5215V17.085C68.2793 15.6699 67.2266 14.7676 65.5586 14.7676C64.4033 14.7676 63.3643 15.2803 62.9609 16.0596C62.8652 16.2305 62.8174 16.4014 62.8174 16.5518C62.8174 16.873 63.0361 17.085 63.3438 17.085C63.5693 17.085 63.7266 16.9961 63.8359 16.7979C64.2324 16.0938 64.7588 15.8135 65.5312 15.8135C66.5156 15.8135 67.0898 16.333 67.0898 17.2012V17.7959L65.0459 17.9121C63.4053 18.0078 62.4688 18.7734 62.4688 19.9902C62.4688 21.2686 63.4189 22.123 64.834 22.123ZM65.1006 21.1113C64.2461 21.1113 63.6787 20.667 63.6787 19.9902C63.6787 19.3203 64.2256 18.8965 65.1826 18.835L67.0898 18.7188V19.2998C67.0898 20.3252 66.2217 21.1113 65.1006 21.1113ZM70.4463 13.6943C70.8564 13.6943 71.1914 13.3594 71.1914 12.9561C71.1914 12.5459 70.8564 12.2178 70.4463 12.2178C70.043 12.2178 69.708 12.5459 69.708 12.9561C69.708 13.3594 70.043 13.6943 70.4463 13.6943ZM70.4463 22.123C70.7949 22.123 71.041 21.8633 71.041 21.4873V15.4033C71.041 15.0273 70.7949 14.7676 70.4463 14.7676C70.0977 14.7676 69.8516 15.0273 69.8516 15.4033V21.4873C69.8516 21.8633 70.0977 22.123 70.4463 22.123ZM73.3037 22.123C73.6523 22.123 73.8984 21.8633 73.8984 21.4873V12.6484C73.8984 12.2725 73.6523 12.0127 73.3037 12.0127C72.9551 12.0127 72.709 12.2725 72.709 12.6484V21.4873C72.709 21.8633 72.9551 22.123 73.3037 22.123ZM81.3086 22.123C82.6006 22.123 83.7285 21.4121 84.0703 20.4277C84.1045 20.3184 84.125 20.2158 84.125 20.127C84.125 19.8193 83.9199 19.6074 83.6123 19.6074C83.3525 19.6074 83.2227 19.7031 83.0518 20.0244C82.6826 20.708 82.1631 21.0771 81.3086 21.0771C80.085 21.0771 79.2373 20.0791 79.2373 18.4453C79.2373 16.8525 80.0713 15.8135 81.3086 15.8135C82.1289 15.8135 82.6689 16.1621 83.0449 16.8662C83.209 17.1738 83.3525 17.2832 83.6123 17.2832C83.9199 17.2832 84.1182 17.0781 84.1182 16.7637C84.1182 16.6885 84.1045 16.5996 84.0771 16.5107C83.8037 15.5264 82.6348 14.7676 81.2949 14.7676C79.3262 14.7676 78.0273 16.2236 78.0273 18.459C78.0273 20.708 79.3398 22.123 81.3086 22.123ZM88.3359 22.123C90.2979 22.123 91.624 20.708 91.624 18.4453C91.624 16.1758 90.2979 14.7676 88.3359 14.7676C86.3672 14.7676 85.041 16.1758 85.041 18.4453C85.041 20.708 86.3672 22.123 88.3359 22.123ZM88.3359 21.0771C87.0781 21.0771 86.251 20.1201 86.251 18.4453C86.251 16.7705 87.0781 15.8135 88.3359 15.8135C89.5938 15.8135 90.4141 16.7705 90.4141 18.4453C90.4141 20.1201 89.5938 21.0771 88.3359 21.0771ZM93.4219 24.5088C93.7705 24.5088 94.0166 24.249 94.0166 23.873V20.8447H94.0439C94.4678 21.624 95.2881 22.123 96.3066 22.123C98.0977 22.123 99.3213 20.6738 99.3213 18.4453C99.3213 16.2168 98.0908 14.7676 96.2793 14.7676C95.2471 14.7676 94.4199 15.2939 93.9824 16.0938H93.9551V15.3691C93.9551 15.0137 93.7227 14.7676 93.3945 14.7676C93.0596 14.7676 92.8271 15.0137 92.8271 15.3691V23.873C92.8271 24.249 93.0732 24.5088 93.4219 24.5088ZM96.0469 21.0771C94.8301 21.0771 94.0098 20.0312 94.0098 18.4453C94.0098 16.8662 94.8301 15.8135 96.0469 15.8135C97.3115 15.8135 98.1045 16.8389 98.1045 18.4453C98.1045 20.0586 97.3115 21.0771 96.0469 21.0771ZM101.181 13.6943C101.591 13.6943 101.926 13.3594 101.926 12.9561C101.926 12.5459 101.591 12.2178 101.181 12.2178C100.777 12.2178 100.442 12.5459 100.442 12.9561C100.442 13.3594 100.777 13.6943 101.181 13.6943ZM101.181 22.123C101.529 22.123 101.775 21.8633 101.775 21.4873V15.4033C101.775 15.0273 101.529 14.7676 101.181 14.7676C100.832 14.7676 100.586 15.0273 100.586 15.4033V21.4873C100.586 21.8633 100.832 22.123 101.181 22.123ZM106.362 22.123C107.661 22.123 108.659 21.5762 109.117 20.6123C109.172 20.4824 109.206 20.3594 109.206 20.2637C109.206 19.9492 108.994 19.7441 108.68 19.7441C108.495 19.7441 108.358 19.8125 108.235 19.9834C107.682 20.79 107.162 21.0908 106.314 21.0908C105.043 21.0908 104.257 20.2021 104.257 18.7666H108.7C109.11 18.7666 109.356 18.5068 109.356 18.0762C109.356 16.1279 108.078 14.7676 106.26 14.7676C104.298 14.7676 103.033 16.2305 103.033 18.4727C103.033 20.7695 104.264 22.123 106.362 22.123ZM104.264 17.8369C104.339 16.6133 105.132 15.7998 106.239 15.7998C107.34 15.7998 108.099 16.6064 108.126 17.8369H104.264ZM113.253 22.123C114.367 22.123 115.105 21.5762 115.495 20.7285H115.516V21.542C115.516 21.8906 115.789 22.123 116.124 22.123C116.466 22.123 116.705 21.8838 116.705 21.542V12.6484C116.705 12.2725 116.459 12.0127 116.11 12.0127C115.762 12.0127 115.516 12.2725 115.516 12.6484V16.0459H115.488C115.064 15.2666 114.244 14.7676 113.226 14.7676C111.435 14.7676 110.211 16.2168 110.211 18.4453C110.211 20.6738 111.441 22.123 113.253 22.123ZM113.479 21.0771C112.221 21.0771 111.428 20.0586 111.428 18.4453C111.428 16.8389 112.221 15.8135 113.479 15.8135C114.702 15.8135 115.522 16.8594 115.522 18.4453C115.522 20.0381 114.702 21.0771 113.479 21.0771ZM121.565 20.3594C121.565 21.4941 122.14 22.0547 123.288 22.0547H123.363C124.026 22.0547 124.231 21.8633 124.231 21.501C124.231 21.2207 124.054 21.0635 123.664 21.0361L123.562 21.0293C122.967 20.9883 122.755 20.7012 122.755 20.0996V15.8682H123.671C124.013 15.8682 124.204 15.6904 124.204 15.376C124.204 15.0684 124.013 14.8906 123.671 14.8906H122.755V13.6738C122.755 13.2979 122.509 13.0381 122.16 13.0381C121.812 13.0381 121.565 13.2979 121.565 13.6738V14.8906H120.971C120.629 14.8906 120.438 15.0684 120.438 15.376C120.438 15.6904 120.629 15.8682 120.971 15.8682H121.565V20.3594ZM128.148 22.123C130.11 22.123 131.437 20.708 131.437 18.4453C131.437 16.1758 130.11 14.7676 128.148 14.7676C126.18 14.7676 124.854 16.1758 124.854 18.4453C124.854 20.708 126.18 22.123 128.148 22.123ZM128.148 21.0771C126.891 21.0771 126.063 20.1201 126.063 18.4453C126.063 16.7705 126.891 15.8135 128.148 15.8135C129.406 15.8135 130.227 16.7705 130.227 18.4453C130.227 20.1201 129.406 21.0771 128.148 21.0771ZM138.443 22.123C139.735 22.123 140.863 21.4121 141.205 20.4277C141.239 20.3184 141.26 20.2158 141.26 20.127C141.26 19.8193 141.055 19.6074 140.747 19.6074C140.487 19.6074 140.357 19.7031 140.187 20.0244C139.817 20.708 139.298 21.0771 138.443 21.0771C137.22 21.0771 136.372 20.0791 136.372 18.4453C136.372 16.8525 137.206 15.8135 138.443 15.8135C139.264 15.8135 139.804 16.1621 140.18 16.8662C140.344 17.1738 140.487 17.2832 140.747 17.2832C141.055 17.2832 141.253 17.0781 141.253 16.7637C141.253 16.6885 141.239 16.5996 141.212 16.5107C140.938 15.5264 139.77 14.7676 138.43 14.7676C136.461 14.7676 135.162 16.2236 135.162 18.459C135.162 20.708 136.475 22.123 138.443 22.123ZM143.181 22.123C143.529 22.123 143.775 21.8633 143.775 21.4873V12.6484C143.775 12.2725 143.529 12.0127 143.181 12.0127C142.832 12.0127 142.586 12.2725 142.586 12.6484V21.4873C142.586 21.8633 142.832 22.123 143.181 22.123ZM146.038 13.6943C146.448 13.6943 146.783 13.3594 146.783 12.9561C146.783 12.5459 146.448 12.2178 146.038 12.2178C145.635 12.2178 145.3 12.5459 145.3 12.9561C145.3 13.3594 145.635 13.6943 146.038 13.6943ZM146.038 22.123C146.387 22.123 146.633 21.8633 146.633 21.4873V15.4033C146.633 15.0273 146.387 14.7676 146.038 14.7676C145.689 14.7676 145.443 15.0273 145.443 15.4033V21.4873C145.443 21.8633 145.689 22.123 146.038 22.123ZM148.834 24.5088C149.183 24.5088 149.429 24.249 149.429 23.873V20.8447H149.456C149.88 21.624 150.7 22.123 151.719 22.123C153.51 22.123 154.733 20.6738 154.733 18.4453C154.733 16.2168 153.503 14.7676 151.691 14.7676C150.659 14.7676 149.832 15.2939 149.395 16.0938H149.367V15.3691C149.367 15.0137 149.135 14.7676 148.807 14.7676C148.472 14.7676 148.239 15.0137 148.239 15.3691V23.873C148.239 24.249 148.485 24.5088 148.834 24.5088ZM151.459 21.0771C150.242 21.0771 149.422 20.0312 149.422 18.4453C149.422 16.8662 150.242 15.8135 151.459 15.8135C152.724 15.8135 153.517 16.8389 153.517 18.4453C153.517 20.0586 152.724 21.0771 151.459 21.0771ZM156.552 22.123C156.894 22.123 157.133 21.8838 157.133 21.542V20.7969H157.16C157.625 21.6172 158.438 22.123 159.478 22.123C161.296 22.123 162.499 20.6807 162.499 18.4453C162.499 16.2168 161.289 14.7676 159.498 14.7676C158.493 14.7676 157.666 15.2666 157.215 16.0801H157.188V12.6484C157.188 12.2725 156.941 12.0127 156.593 12.0127C156.244 12.0127 155.998 12.2725 155.998 12.6484V21.542C155.998 21.8906 156.217 22.123 156.552 22.123ZM159.245 21.0771C158.042 21.0771 157.181 20.0312 157.181 18.4453C157.181 16.8662 158.042 15.8135 159.245 15.8135C160.503 15.8135 161.282 16.832 161.282 18.4453C161.282 20.0723 160.503 21.0771 159.245 21.0771ZM166.648 22.123C168.61 22.123 169.937 20.708 169.937 18.4453C169.937 16.1758 168.61 14.7676 166.648 14.7676C164.68 14.7676 163.354 16.1758 163.354 18.4453C163.354 20.708 164.68 22.123 166.648 22.123ZM166.648 21.0771C165.391 21.0771 164.563 20.1201 164.563 18.4453C164.563 16.7705 165.391 15.8135 166.648 15.8135C167.906 15.8135 168.727 16.7705 168.727 18.4453C168.727 20.1201 167.906 21.0771 166.648 21.0771ZM173.211 22.123C174.168 22.123 175.077 21.5898 175.501 20.7764H175.528V21.5215C175.528 21.877 175.761 22.123 176.096 22.123C176.424 22.123 176.656 21.877 176.656 21.5215V17.085C176.656 15.6699 175.604 14.7676 173.936 14.7676C172.78 14.7676 171.741 15.2803 171.338 16.0596C171.242 16.2305 171.194 16.4014 171.194 16.5518C171.194 16.873 171.413 17.085 171.721 17.085C171.946 17.085 172.104 16.9961 172.213 16.7979C172.609 16.0938 173.136 15.8135 173.908 15.8135C174.893 15.8135 175.467 16.333 175.467 17.2012V17.7959L173.423 17.9121C171.782 18.0078 170.846 18.7734 170.846 19.9902C170.846 21.2686 171.796 22.123 173.211 22.123ZM173.478 21.1113C172.623 21.1113 172.056 20.667 172.056 19.9902C172.056 19.3203 172.603 18.8965 173.56 18.835L175.467 18.7188V19.2998C175.467 20.3252 174.599 21.1113 173.478 21.1113ZM178.762 22.123C179.11 22.123 179.356 21.8633 179.356 21.4873V17.584C179.356 16.6748 179.814 15.9023 180.888 15.9023C181.147 15.9023 181.332 15.8545 181.455 15.752C181.578 15.6562 181.64 15.5195 181.64 15.335C181.64 15.1709 181.592 15.0342 181.489 14.9385C181.373 14.8291 181.188 14.7676 180.929 14.7676C180.218 14.7676 179.521 15.3145 179.315 16.0527H179.288V15.3691C179.288 15.0137 179.056 14.7676 178.728 14.7676C178.399 14.7676 178.167 15.0137 178.167 15.3691V21.4873C178.167 21.8633 178.413 22.123 178.762 22.123ZM184.839 22.123C185.953 22.123 186.691 21.5762 187.081 20.7285H187.102V21.542C187.102 21.8906 187.375 22.123 187.71 22.123C188.052 22.123 188.291 21.8838 188.291 21.542V12.6484C188.291 12.2725 188.045 12.0127 187.696 12.0127C187.348 12.0127 187.102 12.2725 187.102 12.6484V16.0459H187.074C186.65 15.2666 185.83 14.7676 184.812 14.7676C183.021 14.7676 181.797 16.2168 181.797 18.4453C181.797 20.6738 183.027 22.123 184.839 22.123ZM185.064 21.0771C183.807 21.0771 183.014 20.0586 183.014 18.4453C183.014 16.8389 183.807 15.8135 185.064 15.8135C186.288 15.8135 187.108 16.8594 187.108 18.4453C187.108 20.0381 186.288 21.0771 185.064 21.0771ZM190.991 18.8213C191.326 18.8213 191.524 18.6025 191.531 18.2539L191.6 12.6279C191.6 12.2588 191.333 12.0127 190.991 12.0127C190.649 12.0127 190.383 12.2588 190.383 12.6279L190.451 18.2539C190.458 18.6025 190.656 18.8213 190.991 18.8213ZM190.991 22.0684C191.436 22.0684 191.771 21.7266 191.771 21.2891C191.771 20.8447 191.436 20.5098 190.991 20.5098C190.554 20.5098 190.212 20.8447 190.212 21.2891C190.212 21.7266 190.554 22.0684 190.991 22.0684Z" fill="white"/>
<path fill-rule="evenodd" clip-rule="evenodd" d="M22.5 27C27.7467 27 32 22.7467 32 17.5C32 12.2533 27.7467 8 22.5 8C17.2533 8 13 12.2533 13 17.5C13 22.7467 17.2533 27 22.5 27ZM22.276 21.0377L27.976 15.0211L26.524 13.6456L21.4636 18.9872L18.6999 16.726L17.4334 18.274L20.9168 21.124L21.6364 21.7128L22.276 21.0377Z" fill="white"/>
</svg>
