<svg width="35" height="35" viewBox="0 0 35 35" fill="none" xmlns="http://www.w3.org/2000/svg">
<path fill-rule="evenodd" clip-rule="evenodd" d="M17.5 35C27.165 35 35 27.165 35 17.5C35 7.83502 27.165 0 17.5 0C7.83502 0 0 7.83502 0 17.5C0 27.165 7.83502 35 17.5 35ZM9 10.25C8.58579 10.25 8.25 10.5858 8.25 11V24.6111C8.25 25.0253 8.58579 25.3611 9 25.3611H26C26.4142 25.3611 26.75 25.0253 26.75 24.6111V11C26.75 10.5858 26.4142 10.25 26 10.25H9ZM17.5 18.3908L10.8185 11.75H24.1815L17.5 18.3908ZM20.4999 17.5241L25.25 12.8029V22.688L20.4999 17.5241ZM19.4352 18.5823L24.291 23.8611H10.709L15.5648 18.5823L16.9713 19.9802C17.2638 20.271 17.7362 20.271 18.0287 19.9802L19.4352 18.5823ZM9.75 12.8029V22.688L14.5001 17.5241L9.75 12.8029Z" fill="black"/>
</svg>
