<?xml version="1.0" standalone="no"?>
<!DOCTYPE svg PUBLIC "-//W3C//DTD SVG 20010904//EN"
 "http://www.w3.org/TR/2001/REC-SVG-20010904/DTD/svg10.dtd">
<svg version="1.0" xmlns="http://www.w3.org/2000/svg"
 width="35.000000pt" height="35.000000pt" viewBox="0 0 35.000000 35.000000"
 preserveAspectRatio="xMidYMid meet">

<g transform="translate(0.000000,35.000000) scale(0.100000,-0.100000)"
fill="#000000" stroke="none">
<path d="M98 330 c-105 -57 -129 -184 -52 -270 19 -21 48 -43 64 -49 l30 -10
0 60 c0 46 -3 59 -15 59 -9 0 -15 9 -15 25 0 16 6 25 15 25 10 0 15 11 15 35
0 44 29 75 70 75 25 0 30 -4 30 -24 0 -18 -6 -25 -22 -28 -17 -2 -23 -10 -23
-28 0 -18 6 -26 23 -28 34 -5 31 -52 -3 -52 -24 0 -25 -3 -25 -60 0 -65 3 -67
53 -46 72 30 117 113 104 193 -18 110 -152 176 -249 123z"/>
</g>
</svg>
