<svg width="35" height="34" viewBox="0 0 35 34" fill="none" xmlns="http://www.w3.org/2000/svg">
<path fill-rule="evenodd" clip-rule="evenodd" d="M35 17.4624C34.9797 7.81469 27.1524 0 17.5 0C7.84671 0 0.0189559 7.81607 3.05176e-05 17.4649C0.0151561 25.1624 5.01989 31.6607 11.9656 33.9666C12.8406 34.1192 13.1687 33.5963 13.1687 33.1387C13.1687 32.9949 13.1661 32.7353 13.1627 32.3965C13.1562 31.7603 13.1469 30.8449 13.1469 29.8924C8.75 30.6985 7.6125 28.8248 7.2625 27.8444C7.06562 27.3432 6.2125 25.7963 5.46875 25.3824C4.85625 25.0556 3.98125 24.2494 5.44687 24.2276C6.825 24.2058 7.80937 25.4913 8.1375 26.0142C9.7125 28.6505 12.2281 27.9097 13.2344 27.4522C13.3875 26.3192 13.8469 25.5567 14.35 25.1209C10.4562 24.6852 6.3875 23.1818 6.3875 16.5149C6.3875 14.6193 7.06562 13.0506 8.18125 11.8305C8.00625 11.3948 7.39375 9.60822 8.35625 7.2116C8.35625 7.2116 9.82187 6.75406 13.1687 8.99817C14.5687 8.606 16.0562 8.40991 17.5437 8.40991C19.0312 8.40991 20.5187 8.606 21.9187 8.99817C25.2656 6.73227 26.7312 7.2116 26.7312 7.2116C27.6937 9.60822 27.0812 11.3948 26.9062 11.8305C28.0219 13.0506 28.7 14.5976 28.7 16.5149C28.7 23.2036 24.6094 24.6852 20.7156 25.1209C21.35 25.6656 21.8969 26.7114 21.8969 28.3455C21.8969 29.8972 21.8872 31.2463 21.8807 32.1484C21.8774 32.6016 21.875 32.942 21.875 33.1387C21.875 33.5963 22.2031 34.1409 23.0781 33.9666C26.5521 32.7984 29.5709 30.5746 31.7095 27.6081C33.8418 24.6505 34.9921 21.103 35 17.4624Z" fill="black"/>
</svg>
