<?xml version="1.0" standalone="no"?>
<!DOCTYPE svg PUBLIC "-//W3C//DTD SVG 20010904//EN"
 "http://www.w3.org/TR/2001/REC-SVG-20010904/DTD/svg10.dtd">
<svg version="1.0" xmlns="http://www.w3.org/2000/svg"
 width="35.000000pt" height="35.000000pt" viewBox="0 0 35.000000 35.000000"
 preserveAspectRatio="xMidYMid meet">

<g transform="translate(0.000000,35.000000) scale(0.100000,-0.100000)"
fill="#000000" stroke="none">
<path d="M98 330 c-20 -11 -50 -36 -65 -57 -24 -31 -28 -46 -28 -98 0 -52 4
-67 28 -98 24 -32 73 -67 92 -67 3 0 5 9 5 20 0 13 -7 20 -19 20 -11 0 -29 14
-41 30 -25 35 -22 38 10 10 27 -23 46 -26 53 -6 4 9 -3 16 -19 20 -34 9 -60
69 -45 103 6 13 11 35 11 50 0 20 3 24 18 17 9 -4 44 -8 77 -8 33 0 68 4 78 8
13 7 17 3 17 -15 0 -12 5 -36 11 -53 15 -41 -2 -84 -39 -98 -25 -10 -27 -14
-23 -54 1 -24 6 -44 11 -44 20 0 77 50 97 85 43 75 23 160 -49 218 -50 40
-125 47 -180 17z"/>
</g>
</svg>
