<?xml version="1.0" standalone="no"?>
<!DOCTYPE svg PUBLIC "-//W3C//DTD SVG 20010904//EN"
 "http://www.w3.org/TR/2001/REC-SVG-20010904/DTD/svg10.dtd">
<svg version="1.0" xmlns="http://www.w3.org/2000/svg"
 width="35.000000pt" height="35.000000pt" viewBox="0 0 35.000000 35.000000"
 preserveAspectRatio="xMidYMid meet">

<g transform="translate(0.000000,35.000000) scale(0.100000,-0.100000)"
fill="#000000" stroke="none">
<path d="M98 330 c-103 -56 -129 -183 -55 -267 118 -135 332 -34 304 144 -18
110 -152 176 -249 123z m154 -77 c24 -22 26 -134 2 -157 -22 -22 -136 -22
-158 0 -23 22 -22 131 1 156 22 24 128 26 155 1z"/>
<path d="M104 237 c-3 -8 -4 -41 -2 -73 l3 -59 70 0 70 0 0 70 0 70 -68 3
c-51 2 -69 -1 -73 -11z m131 -6 c3 -5 1 -12 -5 -16 -5 -3 -10 1 -10 9 0 18 6
21 15 7z m-27 -23 c17 -17 15 -65 -4 -72 -29 -11 -62 -6 -68 10 -16 41 1 74
39 74 12 0 26 -5 33 -12z"/>
<path d="M155 197 c-20 -16 -15 -44 11 -54 23 -9 51 23 38 44 -14 23 -27 26
-49 10z"/>
</g>
</svg>
