<svg width="35" height="35" viewBox="0 0 35 35" fill="none" xmlns="http://www.w3.org/2000/svg">
<path fill-rule="evenodd" clip-rule="evenodd" d="M17.5 35C27.165 35 35 27.165 35 17.5C35 7.83502 27.165 0 17.5 0C7.83502 0 0 7.83502 0 17.5C0 27.165 7.83502 35 17.5 35ZM17.5 7.875C14.8855 7.875 14.5583 7.8855 13.5319 7.93275H13.531C12.5072 7.98 11.8073 8.14275 11.1947 8.37988C10.5529 8.62176 9.97154 9.00069 9.49113 9.49025C9.00123 9.9709 8.62201 10.5526 8.37988 11.1947C8.14275 11.8073 7.97913 12.5072 7.93275 13.5328C7.88637 14.5583 7.875 14.8855 7.875 17.5C7.875 20.1136 7.8855 20.4409 7.93275 21.469C7.98 22.4928 8.14275 23.1927 8.37988 23.8053C8.62165 24.4474 9.00058 25.0291 9.49025 25.5098C9.97134 25.9991 10.5533 26.3777 11.1956 26.6193C11.8081 26.8573 12.5081 27.0209 13.5319 27.0672C14.5583 27.1136 14.8855 27.125 17.5 27.125C20.1145 27.125 20.4417 27.1145 21.469 27.0672C22.4928 27.02 23.1927 26.8573 23.8053 26.6193C24.4466 26.3778 25.0285 25.9998 25.5098 25.5098C25.9991 25.0287 26.3777 24.4467 26.6193 23.8044C26.8573 23.1919 27.0209 22.4919 27.0672 21.4681C27.1136 20.4417 27.125 20.1145 27.125 17.5C27.125 14.8864 27.1145 14.5591 27.0672 13.531C27.02 12.5072 26.8573 11.8073 26.6193 11.1947C26.3778 10.5525 25.9998 9.9715 25.5098 9.49113C25.0285 9.00113 24.4466 8.62225 23.8053 8.37988C23.1927 8.14275 22.4928 7.97913 21.4673 7.93275C20.4417 7.88637 20.1145 7.875 17.5 7.875ZM17.5 9.60925C20.0699 9.60925 20.3744 9.61887 21.3894 9.66525C22.3282 9.70813 22.8375 9.86475 23.177 9.99687C23.595 10.1511 23.9732 10.3968 24.2839 10.7161C24.6208 11.053 24.8281 11.3741 25.0031 11.823C25.1353 12.1625 25.2919 12.6718 25.3348 13.6106C25.3811 14.6256 25.3907 14.9301 25.3907 17.5C25.3907 20.0699 25.3811 20.3744 25.3348 21.3894C25.2919 22.3282 25.1353 22.8375 25.0031 23.177C24.8491 23.5944 24.6033 23.9732 24.2839 24.2839C23.947 24.6208 23.6259 24.8281 23.177 25.0031C22.8375 25.1353 22.3282 25.2919 21.3894 25.3348C20.3744 25.3811 20.0707 25.3907 17.5 25.3907C14.9292 25.3907 14.6256 25.3811 13.6106 25.3348C12.6718 25.2919 12.1625 25.1353 11.823 25.0031C11.4056 24.8491 11.0268 24.6033 10.7161 24.2839C10.3968 23.9732 10.1509 23.5944 9.99687 23.177C9.86475 22.8375 9.70813 22.3282 9.66525 21.3894C9.61887 20.3744 9.60925 20.0699 9.60925 17.5C9.60925 14.9301 9.61887 14.6256 9.66525 13.6106C9.70813 12.6718 9.86475 12.1625 9.99687 11.823C10.151 11.405 10.3968 11.0268 10.7161 10.7161C11.053 10.3793 11.3741 10.1719 11.823 9.99687C12.1625 9.86475 12.6718 9.70813 13.6106 9.66525C14.6256 9.61887 14.9301 9.60925 17.5 9.60925ZM18.4336 20.5763C17.7217 20.7915 16.9572 20.7529 16.2706 20.4671C15.8321 20.2853 15.4393 20.0085 15.1206 19.6566C14.8019 19.3048 14.5652 18.8866 14.4275 18.4323C14.2898 17.978 14.2545 17.4988 14.3242 17.0292C14.3939 16.5596 14.5669 16.1113 14.8306 15.7166C15.0944 15.3219 15.4424 14.9906 15.8496 14.7465C16.2568 14.5024 16.713 14.3516 17.1854 14.305C17.6579 14.2584 18.1348 14.3172 18.5818 14.477C19.0288 14.6368 19.4348 14.8938 19.7706 15.2294C20.2974 15.7544 20.6255 16.4459 20.699 17.186C20.7725 17.926 20.5868 18.6686 20.1737 19.287C19.7605 19.9053 19.1454 20.361 18.4336 20.5763ZM15.6068 12.9293C15.0065 13.1779 14.4611 13.5424 14.0017 14.0017C13.074 14.9295 12.5527 16.1879 12.5527 17.5C12.5527 18.8121 13.074 20.0705 14.0017 20.9983C14.9295 21.926 16.1879 22.4473 17.5 22.4473C18.8121 22.4473 20.0705 21.926 20.9983 20.9983C21.4576 20.5389 21.8221 19.9935 22.0707 19.3932C22.3193 18.793 22.4473 18.1497 22.4473 17.5C22.4473 16.8503 22.3193 16.207 22.0707 15.6068C21.8221 15.0065 21.4576 14.4611 20.9983 14.0017C20.5389 13.5424 19.9935 13.1779 19.3932 12.9293C18.793 12.6807 18.1497 12.5527 17.5 12.5527C16.8503 12.5527 16.207 12.6807 15.6068 12.9293ZM23.8125 12.9097C23.7495 13.053 23.6583 13.1821 23.5445 13.2895C23.3231 13.4984 23.029 13.6127 22.7247 13.6083C22.4204 13.6038 22.1297 13.481 21.9145 13.2657C21.6993 13.0505 21.5764 12.7599 21.572 12.4556C21.5676 12.1512 21.6819 11.8572 21.8907 11.6357C21.9981 11.5219 22.1273 11.4308 22.2705 11.3677C22.4138 11.3047 22.5682 11.271 22.7247 11.2688C22.8812 11.2665 23.0365 11.2956 23.1815 11.3545C23.3266 11.4133 23.4583 11.5006 23.569 11.6113C23.6796 11.7219 23.767 11.8537 23.8258 11.9987C23.8846 12.1437 23.9138 12.2991 23.9115 12.4556C23.9092 12.612 23.8756 12.7665 23.8125 12.9097Z" fill="black"/>
</svg>
