<svg xmlns="http://www.w3.org/2000/svg" width="20" height="20" viewBox="0 0 20 20" fill="none">
  <g clip-path="url(#clip0_3120_7586)">
    <path fill-rule="evenodd" clip-rule="evenodd" d="M7.87879 0C6.87464 0 6.06061 0.814027 6.06061 1.81818V3.33333H7.27273V1.81818C7.27273 1.48346 7.54406 1.21212 7.87879 1.21212H12.1212C12.4559 1.21212 12.7273 1.48346 12.7273 1.81818V3.33333H13.9394V1.81818C13.9394 0.814027 13.1254 0 12.1212 0H7.87879ZM1.81818 5.75758H18.1818C18.5165 5.75758 18.7879 6.02891 18.7879 6.36364V10.1348C18.6521 10.1685 18.4885 10.2085 18.3011 10.2534C17.7124 10.3941 16.8896 10.5818 15.9535 10.7694C14.0698 11.1469 11.7708 11.5152 9.99997 11.5152C8.22921 11.5152 5.93012 11.1469 4.04639 10.7694C3.11036 10.5818 2.28753 10.3941 1.69889 10.2534C1.51145 10.2085 1.34789 10.1685 1.21212 10.1348V6.36364C1.21212 6.02891 1.48346 5.75758 1.81818 5.75758ZM1.21212 11.3829V18.1818C1.21212 18.5165 1.48346 18.7879 1.81818 18.7879H18.1818C18.5165 18.7879 18.7879 18.5165 18.7879 18.1818V11.3829C18.7231 11.3986 18.6547 11.4151 18.5829 11.4322C17.9834 11.5756 17.1456 11.7667 16.1918 11.9579C14.2957 12.3379 11.8978 12.7273 9.99997 12.7273C8.10218 12.7273 5.7043 12.3379 3.80818 11.9579C2.85431 11.7667 2.01652 11.5756 1.41701 11.4322C1.34525 11.4151 1.27688 11.3986 1.21212 11.3829ZM0 6.36364C0 5.35949 0.814027 4.54545 1.81818 4.54545H18.1818C19.186 4.54545 20 5.35949 20 6.36364V18.1818C20 19.186 19.186 20 18.1818 20H1.81818C0.814027 20 0 19.186 0 18.1818V6.36364ZM8.18182 9.39394C8.18182 9.05921 8.45315 8.78788 8.78788 8.78788H11.2121C11.5468 8.78788 11.8182 9.05921 11.8182 9.39394C11.8182 9.72867 11.5468 10 11.2121 10H8.78788C8.45315 10 8.18182 9.72867 8.18182 9.39394Z" fill="#FF9300"/>
  </g>
  <defs>
    <clipPath id="clip0_3120_7586">
      <rect width="20" height="20" fill="white"/>
    </clipPath>
  </defs>
</svg>