<svg width="32" height="32" viewBox="0 0 32 32" fill="none" xmlns="http://www.w3.org/2000/svg">
<g clipPath="url(#clip0_2658_4954)">
<path fill-rule="evenodd" clipRule="evenodd" d="M12.6061 0C10.9994 0 9.69697 1.30244 9.69697 2.90909V5.33333H11.6364V2.90909C11.6364 2.37354 12.0705 1.93939 12.6061 1.93939H19.3939C19.9295 1.93939 20.3636 2.37354 20.3636 2.90909V5.33333H22.303V2.90909C22.303 1.30244 21.0006 0 19.3939 0H12.6061ZM2.90909 9.21212H29.0909C29.6265 9.21212 30.0606 9.64625 30.0606 10.1818V16.2157C29.8433 16.2696 29.5816 16.3337 29.2817 16.4054C28.3399 16.6305 27.0233 16.9309 25.5257 17.231C22.5118 17.8351 18.8332 18.4242 16 18.4242C13.1667 18.4242 9.48819 17.8351 6.47423 17.231C4.97658 16.9309 3.66004 16.6305 2.71822 16.4054C2.41833 16.3337 2.15663 16.2696 1.93939 16.2157V10.1818C1.93939 9.64625 2.37354 9.21212 2.90909 9.21212ZM1.93939 18.2126V29.0909C1.93939 29.6265 2.37354 30.0606 2.90909 30.0606H29.0909C29.6265 30.0606 30.0606 29.6265 30.0606 29.0909V18.2126C29.9569 18.2378 29.8476 18.2641 29.7327 18.2916C28.7735 18.521 27.433 18.8267 25.9068 19.1326C22.8731 19.7407 19.0365 20.3636 16 20.3636C12.9635 20.3636 9.12689 19.7407 6.09309 19.1326C4.56689 18.8267 3.22644 18.521 2.26722 18.2916C2.1524 18.2641 2.04301 18.2378 1.93939 18.2126ZM0 10.1818C0 8.57518 1.30244 7.27273 2.90909 7.27273H29.0909C30.6976 7.27273 32 8.57518 32 10.1818V29.0909C32 30.6976 30.6976 32 29.0909 32H2.90909C1.30244 32 0 30.6976 0 29.0909V10.1818ZM13.0909 15.0303C13.0909 14.4947 13.525 14.0606 14.0606 14.0606H17.9394C18.475 14.0606 18.9091 14.4947 18.9091 15.0303C18.9091 15.5659 18.475 16 17.9394 16H14.0606C13.525 16 13.0909 15.5659 13.0909 15.0303Z" fill="#FF9300"/>
</g>
<defs>
<clipPath id="clip0_2658_4954">
<rect width="32" height="32" fill="white"/>
</clipPath>
</defs>
</svg>
