<svg xmlns="http://www.w3.org/2000/svg" width="21" height="20" viewBox="0 0 21 20" fill="none">
  <g clip-path="url(#clip0_3120_7580)">
    <path d="M1.49011 18.9811L8.0299 12.4522M16.386 9.1882L19.2921 6.28593C19.6774 5.90114 19.8938 5.37935 19.8938 4.83529C19.8938 4.29123 19.6774 3.76945 19.2921 3.38466L17.1135 1.2077C16.9227 1.01708 16.6961 0.865873 16.4467 0.762709C16.1973 0.659545 15.9299 0.606445 15.66 0.606445C15.39 0.606445 15.1227 0.659545 14.8733 0.762709C14.6238 0.865873 14.3972 1.01708 14.2064 1.2077L11.3003 4.10999M16.2653 9.5489L14.3077 15.4119C14.2764 15.5059 14.2229 15.591 14.1517 15.6599C14.0805 15.7289 13.9937 15.7797 13.8987 15.8079L1.89807 19.3688C1.78995 19.4009 1.6751 19.4027 1.56601 19.3742C1.45693 19.3456 1.35778 19.2877 1.27937 19.2067C1.20095 19.1258 1.14627 19.025 1.12128 18.9152C1.09629 18.8054 1.10195 18.6908 1.13763 18.584L5.03438 6.91541C5.06229 6.83163 5.10796 6.75484 5.16823 6.69023C5.22853 6.62563 5.30205 6.57472 5.38378 6.54096L10.9196 4.26551C11.0321 4.21911 11.1559 4.20702 11.2753 4.23075C11.3947 4.25448 11.5044 4.31299 11.5906 4.39887L16.1163 8.91799C16.1974 8.9989 16.2544 9.10081 16.2807 9.21229C16.307 9.32375 16.3017 9.44032 16.2653 9.5489ZM10.2089 10.2757C10.0657 10.1328 9.89577 10.0194 9.70874 9.94214C9.52168 9.86487 9.32123 9.82511 9.11878 9.82514C8.91632 9.8252 8.7159 9.86505 8.52887 9.94245C8.34187 10.0198 8.17196 10.1332 8.02884 10.2762C7.88571 10.4191 7.7722 10.5888 7.69477 10.7755C7.61735 10.9623 7.57753 11.1624 7.57756 11.3645C7.57762 11.5666 7.61753 11.7667 7.69505 11.9534C7.77256 12.1401 7.88617 12.3097 8.02935 12.4526C8.3185 12.7412 8.71065 12.9032 9.1195 12.9031C9.52835 12.903 9.92041 12.7408 10.2094 12.4521C10.4985 12.1634 10.6608 11.7719 10.6607 11.3638C10.6606 10.9556 10.4981 10.5642 10.2089 10.2757Z" stroke="#47A8FF" stroke-width="1.21212" stroke-linecap="round" stroke-linejoin="round"/>
  </g>
  <defs>
    <clipPath id="clip0_3120_7580">
      <rect width="20" height="20" fill="white" transform="translate(0.5)"/>
    </clipPath>
  </defs>
</svg>