<svg xmlns="http://www.w3.org/2000/svg" width="21" height="20" viewBox="0 0 21 20" fill="none">
  <g clip-path="url(#clip0_3120_7592)">
    <path fill-rule="evenodd" clip-rule="evenodd" d="M12.0152 2.72727C12.0152 3.56406 11.3368 4.24242 10.5 4.24242C9.66321 4.24242 8.98485 3.56406 8.98485 2.72727C8.98485 1.89048 9.66321 1.21212 10.5 1.21212C11.3368 1.21212 12.0152 1.89048 12.0152 2.72727ZM13.2273 2.72727C13.2273 4.23352 12.0062 5.45455 10.5 5.45455C8.99376 5.45455 7.77273 4.23352 7.77273 2.72727C7.77273 1.22104 8.99376 0 10.5 0C12.0062 0 13.2273 1.22104 13.2273 2.72727ZM5.04545 3.33333C5.04545 4.00276 4.50276 4.54545 3.83333 4.54545C3.1639 4.54545 2.62121 4.00276 2.62121 3.33333C2.62121 2.6639 3.1639 2.12121 3.83333 2.12121C4.50276 2.12121 5.04545 2.6639 5.04545 3.33333ZM6.25758 3.33333C6.25758 4.67221 5.17221 5.75758 3.83333 5.75758C2.49446 5.75758 1.40909 4.67221 1.40909 3.33333C1.40909 1.99446 2.49446 0.909091 3.83333 0.909091C5.17221 0.909091 6.25758 1.99446 6.25758 3.33333ZM17.1667 4.54545C17.8361 4.54545 18.3788 4.00276 18.3788 3.33333C18.3788 2.6639 17.8361 2.12121 17.1667 2.12121C16.4972 2.12121 15.9545 2.6639 15.9545 3.33333C15.9545 4.00276 16.4972 4.54545 17.1667 4.54545ZM17.1667 5.75758C18.5055 5.75758 19.5909 4.67221 19.5909 3.33333C19.5909 1.99446 18.5055 0.909091 17.1667 0.909091C15.8278 0.909091 14.7424 1.99446 14.7424 3.33333C14.7424 4.67221 15.8278 5.75758 17.1667 5.75758ZM7.4697 9.09091C7.4697 8.75618 7.74103 8.48485 8.07576 8.48485H12.9242C13.259 8.48485 13.5303 8.75618 13.5303 9.09091V9.3113V14.5776V15.7576C13.5303 17.4312 12.1736 18.7879 10.5 18.7879C8.82642 18.7879 7.4697 17.4312 7.4697 15.7576V14.5776V9.3113V9.09091ZM6.25758 15.427V9.3113V9.09091C6.25758 8.08676 7.07161 7.27273 8.07576 7.27273H12.9242C13.9284 7.27273 14.7424 8.08676 14.7424 9.09091V9.3113V15.427V15.7576C14.7424 18.1006 12.843 20 10.5 20C8.15697 20 6.25758 18.1006 6.25758 15.7576V15.427ZM15.4262 18.056C15.9027 18.3302 16.4428 18.4848 17.0152 18.4848C18.9398 18.4848 20.5 16.7355 20.5 14.5776V9.3113C20.5 8.18542 19.686 7.27273 18.6818 7.27273H15.3487C15.6134 7.66782 15.803 8.1297 15.8939 8.63176H18.6818C19.0165 8.63176 19.2879 8.936 19.2879 9.3113V14.5776C19.2879 15.9849 18.2703 17.1258 17.0152 17.1258C16.5795 17.1258 16.1724 16.9883 15.8266 16.75C15.7368 17.2066 15.6015 17.644 15.4262 18.056ZM3.98485 18.4848C4.55718 18.4848 5.0973 18.3302 5.57376 18.056C5.39855 17.644 5.26321 17.2066 5.17342 16.75C4.82761 16.9883 4.42055 17.1258 3.98485 17.1258C2.72966 17.1258 1.71212 15.9849 1.71212 14.5776V9.3113C1.71212 8.936 1.98346 8.63176 2.31818 8.63176H5.10606C5.19697 8.1297 5.38661 7.66782 5.6513 7.27273H2.31818C1.31403 7.27273 0.5 8.18542 0.5 9.3113V14.5776C0.5 16.7355 2.06022 18.4848 3.98485 18.4848Z" fill="#FF575E"/>
  </g>
  <defs>
    <clipPath id="clip0_3120_7592">
      <rect width="20" height="20" fill="white" transform="translate(0.5)"/>
    </clipPath>
  </defs>
</svg>