<svg xmlns="http://www.w3.org/2000/svg" width="20" height="20" viewBox="0 0 20 20" fill="none">
  <g clip-path="url(#clip0_3120_7589)">
    <path fill-rule="evenodd" clip-rule="evenodd" d="M9.83425 4.24242C10.671 4.24242 11.3494 3.56406 11.3494 2.72727C11.3494 1.89048 10.671 1.21212 9.83425 1.21212C8.99743 1.21212 8.3191 1.89048 8.3191 2.72727C8.3191 3.56406 8.99743 4.24242 9.83425 4.24242ZM9.83425 5.45455C11.3405 5.45455 12.5615 4.23352 12.5615 2.72727C12.5615 1.22104 11.3405 0 9.83425 0C8.32801 0 7.10698 1.22104 7.10698 2.72727C7.10698 4.23352 8.32801 5.45455 9.83425 5.45455ZM4.6121 8.78788C4.6121 7.449 5.69746 6.36364 7.03634 6.36364H13.1588C14.4977 6.36364 15.583 7.449 15.583 8.78788V9.69697H14.3709V8.78788C14.3709 8.11845 13.8282 7.57576 13.1588 7.57576H7.03634C6.36692 7.57576 5.82422 8.11845 5.82422 8.78788V9.69697H4.6121V8.78788ZM5.54692 13.7535L2.62848 11.8182H17.3347L14.359 13.7486C13.4977 14.3073 12.9779 15.2642 12.9779 16.2908V18.1818C12.9779 18.5165 12.7065 18.7879 12.3718 18.7879H7.50855C7.17383 18.7879 6.90249 18.5165 6.90249 18.1818V16.279C6.90249 15.2632 6.39349 14.3149 5.54692 13.7535ZM0.282972 11.7172C-0.217414 11.3854 0.0175061 10.6061 0.617917 10.6061H19.3825C19.9861 10.6061 20.2187 11.3921 19.7124 11.7206L15.0186 14.7655C14.5019 15.1007 14.19 15.6748 14.19 16.2908V18.1818C14.19 19.186 13.3759 20 12.3718 20H7.50855C6.5044 20 5.69037 19.186 5.69037 18.1818V16.279C5.69037 15.6695 5.38498 15.1005 4.87701 14.7637L0.282972 11.7172Z" fill="#FF3FBE"/>
  </g>
  <defs>
    <clipPath id="clip0_3120_7589">
      <rect width="20" height="20" fill="white"/>
    </clipPath>
  </defs>
</svg>