<svg width="32" height="32" viewBox="0 0 32 32" fill="none" xmlns="http://www.w3.org/2000/svg">
<g clipPath="url(#clip0_2658_4956)">
<path d="M16.0008 12.4178C19.2141 12.4178 21.819 9.85176 21.819 6.68642C21.819 3.52109 19.2141 0.955078 16.0008 0.955078C12.7875 0.955078 10.1826 3.52109 10.1826 6.68642C10.1826 9.85176 12.7875 12.4178 16.0008 12.4178Z" stroke="#C372FC" stroke-width="1.93939"/>
<path d="M24.2423 25.7351C25.4154 25.7351 26.3664 24.7983 26.3664 23.6427C26.3664 22.4871 25.4154 21.5503 24.2423 21.5503C23.0692 21.5503 22.1182 22.4871 22.1182 23.6427C22.1182 24.7983 23.0692 25.7351 24.2423 25.7351Z" stroke="#C372FC" stroke-width="1.93939"/>
<path d="M25.4916 16.7745C25.2317 16.6685 24.9017 16.6685 24.2419 16.6685C23.582 16.6685 23.252 16.6685 22.9922 16.7745C22.8203 16.8446 22.6641 16.9474 22.5325 17.077C22.4009 17.2066 22.2965 17.3605 22.2254 17.5298C22.1603 17.6853 22.1341 17.8674 22.1241 18.1317C22.1197 18.3229 22.0661 18.5097 21.9683 18.6748C21.8704 18.8398 21.7316 18.9777 21.5648 19.0754C21.3955 19.1689 21.2049 19.2185 21.0108 19.2194C20.8167 19.2204 20.6256 19.1728 20.4553 19.081C20.2174 18.9568 20.0453 18.8885 19.8747 18.8662C19.5025 18.818 19.1261 18.9173 18.8282 19.1423C18.6059 19.3118 18.4403 19.5929 18.1103 20.1558C17.7804 20.7187 17.6147 20.9997 17.5786 21.2752C17.5542 21.4569 17.5665 21.6414 17.6146 21.8185C17.6627 21.9955 17.7458 22.1614 17.859 22.3068C17.9637 22.4407 18.1103 22.553 18.3376 22.6939C18.6725 22.901 18.8877 23.2539 18.8877 23.6431C18.8877 24.0323 18.6725 24.3852 18.3376 24.5917C18.1103 24.7333 17.963 24.8456 17.859 24.9794C17.7458 25.1248 17.6627 25.2907 17.6146 25.4677C17.5665 25.6447 17.5542 25.8293 17.5786 26.011C17.6154 26.2858 17.7804 26.5676 18.1096 27.1305C18.4403 27.6933 18.6052 27.9743 18.8282 28.1438C18.9758 28.2554 19.1443 28.3372 19.3239 28.3846C19.5036 28.4319 19.691 28.444 19.8755 28.4201C20.0453 28.3977 20.2174 28.3294 20.4553 28.2052C20.6256 28.1134 20.8167 28.0658 21.0108 28.0668C21.2049 28.0678 21.3955 28.1173 21.5648 28.2108C21.9068 28.4061 22.11 28.7653 22.1241 29.1545C22.1341 29.4195 22.1595 29.6009 22.2254 29.7564C22.2965 29.9258 22.4009 30.0796 22.5325 30.2092C22.6641 30.3389 22.8203 30.4416 22.9922 30.5118C23.252 30.6177 23.582 30.6178 24.2419 30.6178C24.9017 30.6178 25.2317 30.6177 25.4916 30.5118C25.6635 30.4416 25.8197 30.3389 25.9512 30.2092C26.0828 30.0796 26.1872 29.9258 26.2583 29.7564C26.3235 29.6009 26.3497 29.4195 26.3596 29.1545C26.3737 28.7653 26.577 28.4054 26.9189 28.2108C27.0883 28.1173 27.2789 28.0678 27.4729 28.0668C27.667 28.0658 27.8582 28.1134 28.0284 28.2052C28.2663 28.3294 28.4384 28.3977 28.6083 28.4201C28.7927 28.444 28.9801 28.4319 29.1598 28.3846C29.3395 28.3372 29.5079 28.2554 29.6555 28.1438C29.8785 27.9751 30.0435 27.6933 30.3734 27.1305C30.7034 26.5676 30.8691 26.2865 30.9052 26.011C30.9295 25.8293 30.9172 25.6447 30.8692 25.4677C30.8211 25.2907 30.738 25.1248 30.6248 24.9794C30.52 24.8456 30.3734 24.7333 30.1461 24.5924C29.9803 24.493 29.8428 24.3538 29.7465 24.1878C29.6503 24.0217 29.5985 23.8343 29.596 23.6431C29.596 23.2539 29.8113 22.901 30.1461 22.6945C30.3734 22.553 30.5207 22.4407 30.6248 22.3068C30.738 22.1614 30.8211 21.9955 30.8692 21.8185C30.9172 21.6414 30.9295 21.4569 30.9052 21.2752C30.8683 21.0004 30.7034 20.7187 30.3741 20.1558C30.0435 19.5929 29.8785 19.3118 29.6555 19.1423C29.5079 19.0308 29.3395 18.9491 29.1598 18.9016C28.9801 18.8542 28.7927 18.8422 28.6083 18.8662C28.4384 18.8885 28.2663 18.9568 28.0277 19.081C27.8576 19.1726 27.6665 19.2202 27.4726 19.2192C27.2787 19.2183 27.0882 19.1688 26.9189 19.0754C26.7522 18.9777 26.6133 18.8398 26.5155 18.6748C26.4177 18.5097 26.364 18.3229 26.3596 18.1317C26.3497 17.8667 26.3242 17.6853 26.2583 17.5298C26.1872 17.3605 26.0828 17.2066 25.9512 17.077C25.8197 16.9474 25.6635 16.8446 25.4916 16.7745Z" stroke="#C372FC" stroke-width="1.93939"/>
<path d="M13.5758 17.1973C13.5758 17.1973 11.3748 17.1461 9.71055 17.4361C6.42904 18.0079 3.47786 20.6569 1.75285 23.6434C0.884925 25.146 0.872033 26.8483 1.08242 28.1888C1.31595 29.6768 2.73652 30.567 4.26502 30.567H13.5758" stroke="#C372FC" stroke-width="1.93939"/>
<path d="M12.6055 16.7164C12.6055 16.4526 12.8225 16.2388 13.0903 16.2388H15.0297C15.4292 16.2388 15.6573 16.6881 15.4176 17.0029L14.6903 17.9582C14.5987 18.0784 14.4551 18.1492 14.3024 18.1492H13.0903C12.8225 18.1492 12.6055 17.9354 12.6055 17.6716V16.7164Z" fill="#C372FC"/>
<path d="M12.6055 31.0447C12.6055 31.3084 12.8225 31.5223 13.0903 31.5223H15.0297C15.4292 31.5223 15.6573 31.0729 15.4176 30.7581L14.6903 29.8029C14.5987 29.6826 14.4551 29.6118 14.3024 29.6118H13.0903C12.8225 29.6118 12.6055 29.8256 12.6055 30.0894V31.0447Z" fill="#C372FC"/>
</g>
<defs>
<clipPath id="clip0_2658_4956">
<rect width="32" height="32" fill="white"/>
</clipPath>
</defs>
</svg>
