<?xml version="1.0" encoding="UTF-8" standalone="no"?>
<svg
   xmlns:osb="http://www.openswatchbook.org/uri/2009/osb"
   xmlns:dc="http://purl.org/dc/elements/1.1/"
   xmlns:cc="http://creativecommons.org/ns#"
   xmlns:rdf="http://www.w3.org/1999/02/22-rdf-syntax-ns#"
   xmlns:svg="http://www.w3.org/2000/svg"
   xmlns="http://www.w3.org/2000/svg"
   xmlns:xlink="http://www.w3.org/1999/xlink"
   width="210mm"
   height="297mm"
   viewBox="0 0 210 297"
   version="1.1"
   id="svg8">
  <defs
     id="defs2">
    <linearGradient
       osb:paint="solid"
       id="linearGradient5998">
      <stop
         id="stop5996"
         offset="0"
         style="stop-color:#ffffff;stop-opacity:1;" />
    </linearGradient>
    <linearGradient
       osb:paint="solid"
       id="linearGradient6076">
      <stop
         id="stop6074"
         offset="0"
         style="stop-color:#000000;stop-opacity:1;" />
    </linearGradient>
    <linearGradient
       osb:paint="solid"
       id="linearGradient6070">
      <stop
         id="stop6068"
         offset="0"
         style="stop-color:#000000;stop-opacity:1;" />
    </linearGradient>
    <linearGradient
       osb:paint="solid"
       id="linearGradient6064">
      <stop
         id="stop6062"
         offset="0"
         style="stop-color:#000000;stop-opacity:1;" />
    </linearGradient>
    <linearGradient
       osb:paint="solid"
       id="linearGradient6022">
      <stop
         id="stop6020"
         offset="0"
         style="stop-color:#ffffff;stop-opacity:1;" />
    </linearGradient>
    <linearGradient
       gradientUnits="userSpaceOnUse"
       y2="570.11633"
       x2="783.33203"
       y1="570.11633"
       x1="29.654245"
       id="linearGradient6078"
       xlink:href="#linearGradient6070" />
    <linearGradient
       gradientUnits="userSpaceOnUse"
       y2="721.7536"
       x2="779.67987"
       y1="721.7536"
       x1="21.892864"
       id="linearGradient6000"
       xlink:href="#linearGradient6064" />
  </defs>
  <metadata
     id="metadata5">
    <rdf:RDF>
      <cc:Work
         rdf:about="">
        <dc:format>image/svg+xml</dc:format>
        <dc:type
           rdf:resource="http://purl.org/dc/dcmitype/StillImage" />
        <dc:title></dc:title>
      </cc:Work>
    </rdf:RDF>
  </metadata>
  <g
     id="layer1">
    <g
       id="g83"
       transform="translate(2.2220007,19.120223)">
      <path
         style="fill:url(#linearGradient6000);stroke:#ffffff;stroke-width:0.99999994px;stroke-linecap:butt;stroke-linejoin:miter;stroke-opacity:1;fill-opacity:1.0"
         d="m 768.42383,440.00781 c -5.70915,0.0462 -11.41211,2.3233 -10.14649,2.11914 L 694.88281,486.10547 451.19141,660.32031 266.33398,794.66992 187.35742,752.42773 132.87109,716.0625 66.976562,672.98242 c -8.438195,-2.1216 -16.38902,-7.16292 -23.886718,-4.58203 -14.515065,5.05077 -14.166283,10.10157 -19.19336,15.15234 -3.957923,11.34448 0.422793,22.5295 7.072266,29.29493 l 137.38086,167.68554 87.88281,105.05664 c 8.45983,9.99878 18.04311,15.50126 28.40625,17.88676 14.05884,-5.93272 26.22802,-14.9243 31.87695,-23.96879 78.20092,-86.7806 163.01563,-182.10073 242.54297,-266.63281 63.68629,-67.92476 146.40745,-148.3612 213.36133,-232.36133 10.52141,-12.9111 5.45889,-35.58891 6.06055,-34.3457 -1.17187,-4.88224 -5.61619,-6.19605 -10.05664,-6.16016 z"
         transform="matrix(0.26458333,0,0,0.26458333,-0.7100959,-59.185699)"
         id="path77" />
      <path
         style="stroke-width:1.01015258;stroke:none;fill:none"
         d="M 278.07744,1000.352 C 271.25494,997.54502 264.6576,993.04724 259.7972,987.88936 247.08226,974.39624 34.694168,717.07862 28.314245,707.43747 c -3.65797,-5.52781 -5.084357,-11.06411 -4.540442,-17.62302 0.363627,-4.38486 1.143892,-6.13969 4.495063,-10.10945 4.413545,-5.22824 9.747138,-8.73862 15.843466,-10.42761 3.339692,-0.92525 5.230415,-0.67472 13.131983,1.74008 8.377495,2.56024 12.171317,4.744 41.050377,23.62886 17.500888,11.44435 44.775008,29.43903 60.609148,39.98817 24.31422,16.1988 34.88737,22.43831 68.01899,40.13988 l 39.22964,20.95962 2.69169,-1.76012 c 1.48043,-0.96807 42.54951,-30.74794 91.26463,-66.17749 48.71511,-35.42957 93.26284,-67.76645 98.99495,-71.85974 5.73211,-4.0933 62.24284,-44.47604 125.5794,-89.73943 120.73385,-86.28226 172.09024,-122.35418 176.68615,-124.10154 4.42329,-1.68173 11.20219,-1.27236 13.80287,0.83355 2.03751,1.64988 2.37263,2.99159 2.75744,11.04008 0.34957,7.31173 0.0132,10.55338 -1.66548,16.05208 -1.84729,6.05083 -3.66619,8.79737 -14.93211,22.54749 -34.53881,42.15482 -64.61492,75.15712 -141.77027,155.56349 -87.91906,91.62365 -127.60455,134.64157 -246.96277,267.70051 -31.64196,35.27403 -60.75847,67.31659 -64.70336,71.20567 -4.75738,4.69008 -9.91597,8.51667 -15.32003,11.36422 -4.48111,2.36123 -8.32084,4.28233 -8.53269,4.26913 -0.21186,-0.013 -2.89631,-1.0571 -5.96545,-2.3199 z"
         id="path86"
         transform="matrix(0.26458333,0,0,0.26458333,-0.7100959,-59.185699)" />
    </g>
  </g>
</svg>
