<svg width="36" height="36" viewBox="0 0 36 36" fill="none" xmlns="http://www.w3.org/2000/svg">
<path d="M18 3C16.0302 3 14.0796 3.38799 12.2597 4.14181C10.4399 4.89563 8.78628 6.00052 7.3934 7.3934C4.58035 10.2064 3 14.0218 3 18C3 24.63 7.305 30.255 13.26 32.25C14.01 32.37 14.25 31.905 14.25 31.5V28.965C10.095 29.865 9.21 26.955 9.21 26.955C8.52 25.215 7.545 24.75 7.545 24.75C6.18 23.82 7.65 23.85 7.65 23.85C9.15 23.955 9.945 25.395 9.945 25.395C11.25 27.675 13.455 27 14.31 26.64C14.445 25.665 14.835 25.005 15.255 24.63C11.925 24.255 8.43 22.965 8.43 17.25C8.43 15.585 9 14.25 9.975 13.185C9.825 12.81 9.3 11.25 10.125 9.225C10.125 9.225 11.385 8.82 14.25 10.755C15.435 10.425 16.725 10.26 18 10.26C19.275 10.26 20.565 10.425 21.75 10.755C24.615 8.82 25.875 9.225 25.875 9.225C26.7 11.25 26.175 12.81 26.025 13.185C27 14.25 27.57 15.585 27.57 17.25C27.57 22.98 24.06 24.24 20.715 24.615C21.255 25.08 21.75 25.995 21.75 27.39V31.5C21.75 31.905 21.99 32.385 22.755 32.25C28.71 30.24 33 24.63 33 18C33 16.0302 32.612 14.0796 31.8582 12.2597C31.1044 10.4399 29.9995 8.78628 28.6066 7.3934C27.2137 6.00052 25.5601 4.89563 23.7403 4.14181C21.9204 3.38799 19.9698 3 18 3Z" fill="#FAFAFA"/>
</svg>
