<svg width="36" height="36" viewBox="0 0 36 36" fill="none" xmlns="http://www.w3.org/2000/svg">
<path d="M10.41 7.50004C10.4096 8.29569 10.0932 9.05859 9.53029 9.62092C8.9674 10.1832 8.20418 10.4989 7.40853 10.4985C6.61289 10.4981 5.84998 10.1817 5.28765 9.6188C4.72533 9.05591 4.40964 8.29269 4.41003 7.49704C4.41043 6.70139 4.72688 5.93848 5.28977 5.37615C5.85267 4.81383 6.61589 4.49814 7.41153 4.49854C8.20718 4.49893 8.97009 4.81539 9.53242 5.37828C10.0947 5.94117 10.4104 6.70439 10.41 7.50004ZM10.5 12.72H4.50003V31.5H10.5V12.72ZM19.98 12.72H14.01V31.5H19.92V21.645C19.92 16.155 27.075 15.645 27.075 21.645V31.5H33V19.605C33 10.35 22.41 10.695 19.92 15.24L19.98 12.72Z" fill="#FAFAFA"/>
</svg>
