<svg width="36" height="32" viewBox="0 0 36 32" fill="none" xmlns="http://www.w3.org/2000/svg">
<g clip-path="url(#clip0_1671_3121)">
<path d="M11.9933 6.45773V30.0225C11.9933 30.3573 11.9096 30.6419 11.7422 30.8763C11.5748 31.1106 11.3304 31.2278 11.0089 31.2278C10.7812 31.2278 10.5603 31.1742 10.346 31.0671L1.00446 26.3863C0.723214 26.2524 0.485491 26.028 0.291295 25.7133C0.0970982 25.3986 0 25.0872 0 24.7792V1.87737C0 1.60951 0.0669643 1.38184 0.200893 1.19434C0.334821 1.00684 0.529018 0.913086 0.783482 0.913086C0.970982 0.913086 1.26562 1.01353 1.66741 1.21443L11.933 6.35728C11.9732 6.39746 11.9933 6.43094 11.9933 6.45773ZM13.279 8.48675L24.0067 25.8841L13.279 20.5403V8.48675ZM36 8.84835V30.0225C36 30.3573 35.9062 30.6285 35.7188 30.8361C35.5312 31.0437 35.2768 31.1475 34.9554 31.1475C34.6339 31.1475 34.3192 31.0604 34.0112 30.8863L25.1518 26.4667L36 8.84835ZM35.9397 6.43764C35.9397 6.47782 34.2221 9.28697 30.7868 14.8651C27.3516 20.4432 25.3393 23.7077 24.75 24.6586L16.9152 11.922L23.4241 1.33496C23.6518 0.959961 24 0.772461 24.4688 0.772461C24.6562 0.772461 24.8304 0.81264 24.9911 0.892997L35.8594 6.3171C35.9129 6.34389 35.9397 6.38407 35.9397 6.43764Z" fill="rgb(209 213 219)"/>
</g>
<defs>
<clipPath id="clip0_1671_3121">
<rect width="36" height="30.8571" fill="white" transform="translate(0 0.571533)"/>
</clipPath>
</defs>
</svg>
