<svg width="1227" height="2686" viewBox="0 0 1227 2686" fill="none" xmlns="http://www.w3.org/2000/svg">
<path fill-rule="evenodd" clip-rule="evenodd" d="M3.93038 0.292969L869.93 585.293L873.66 587.812L869.936 590.479L312.749 989.538L312.749 1283.37L312.985 1283.36L312.985 1507.19L1224.13 1507.19H1226.98L1226.98 1510.23L1226.98 1678.73V1681.88H1224.03L761.985 1681.88V1867.07C984.692 1871.06 1164 2052.84 1164 2276.5C1164 2502.66 980.661 2686 754.5 2686C528.339 2686 345 2502.66 345 2276.5C345 2050.34 528.339 1867 754.5 1867C755.061 1867 755.622 1867 756.183 1867V1678.84V1675.69H759.135H1221.18L1221.18 1513.38L311.724 1513.38L306.948 1513.47L306.948 987.972V986.297L308.262 985.356L863.038 588.023L0.76709 5.54202L3.93038 0.292969ZM1158 2276.5C1158 2499.35 977.347 2680 754.5 2680C531.653 2680 351 2499.35 351 2276.5C351 2053.65 531.653 1873 754.5 1873C977.347 1873 1158 2053.65 1158 2276.5Z" fill="#FEFEFE"/>
</svg>
