<svg width="84" height="84" viewBox="0 0 84 84" fill="none" xmlns="http://www.w3.org/2000/svg">
<g filter="url(#filter0_d_200_1192)">
<circle cx="42" cy="38" r="36.8079" fill="white" stroke="url(#paint0_linear_200_1192)" stroke-width="2.38419"/>
<g filter="url(#filter1_d_200_1192)">
<path d="M36.338 44.2791L60.716 44.2791V51.9517C60.716 54.728 58.4653 56.9786 55.6891 56.9786H36.338V44.2791Z" fill="#105351"/>
<path d="M49.015 18.9929H55.6895C58.4658 18.9929 60.7164 21.2435 60.7164 24.0198V43.2254H49.015V18.9929Z" fill="#148481"/>
<path d="M23.6619 24.0197C23.6619 21.2434 25.9125 18.9928 28.6888 18.9928H48.0399V29.5287H23.6619V24.0197Z" fill="#92C3E6"/>
<path d="M23.662 30.5823H35.4157V56.922H28.6889C25.9126 56.922 23.662 54.6713 23.662 51.8951V30.5823Z" fill="#4D7D92"/>
</g>
</g>
<defs>
<filter id="filter0_d_200_1192" x="0" y="0" width="84" height="84" filterUnits="userSpaceOnUse" color-interpolation-filters="sRGB">
<feFlood flood-opacity="0" result="BackgroundImageFix"/>
<feColorMatrix in="SourceAlpha" type="matrix" values="0 0 0 0 0 0 0 0 0 0 0 0 0 0 0 0 0 0 127 0" result="hardAlpha"/>
<feOffset dy="4"/>
<feGaussianBlur stdDeviation="2"/>
<feComposite in2="hardAlpha" operator="out"/>
<feColorMatrix type="matrix" values="0 0 0 0 0 0 0 0 0 0 0 0 0 0 0 0 0 0 0.25 0"/>
<feBlend mode="normal" in2="BackgroundImageFix" result="effect1_dropShadow_200_1192"/>
<feBlend mode="normal" in="SourceGraphic" in2="effect1_dropShadow_200_1192" result="shape"/>
</filter>
<filter id="filter1_d_200_1192" x="22.025" y="18.9928" width="40.3284" height="41.2597" filterUnits="userSpaceOnUse" color-interpolation-filters="sRGB">
<feFlood flood-opacity="0" result="BackgroundImageFix"/>
<feColorMatrix in="SourceAlpha" type="matrix" values="0 0 0 0 0 0 0 0 0 0 0 0 0 0 0 0 0 0 127 0" result="hardAlpha"/>
<feOffset dy="1.63696"/>
<feGaussianBlur stdDeviation="0.81848"/>
<feComposite in2="hardAlpha" operator="out"/>
<feColorMatrix type="matrix" values="0 0 0 0 0 0 0 0 0 0 0 0 0 0 0 0 0 0 0.25 0"/>
<feBlend mode="normal" in2="BackgroundImageFix" result="effect1_dropShadow_200_1192"/>
<feBlend mode="normal" in="SourceGraphic" in2="effect1_dropShadow_200_1192" result="shape"/>
</filter>
<linearGradient id="paint0_linear_200_1192" x1="42" y1="0" x2="42" y2="76" gradientUnits="userSpaceOnUse">
<stop stop-color="#92C3E6"/>
<stop offset="1" stop-color="#148481"/>
</linearGradient>
</defs>
</svg>
