<svg width="84" height="83" viewBox="0 0 84 83" fill="none" xmlns="http://www.w3.org/2000/svg">
<g filter="url(#filter0_d_200_1213)">
<circle cx="42" cy="38" r="37.2483" fill="white" stroke="url(#paint0_linear_200_1213)" stroke-width="1.50332"/>
<g filter="url(#filter1_d_200_1213)">
<path fill-rule="evenodd" clip-rule="evenodd" d="M39.4746 24.9562C37.3842 22.6955 34.393 21.2801 31.0712 21.2801C24.7514 21.2801 19.6283 26.4032 19.6283 32.723C19.6283 39.0427 24.7514 44.1658 31.0712 44.1658C34.5482 44.1658 37.663 42.6151 39.7616 40.1675L37.1644 37.9382C35.6934 39.6555 33.5091 40.7437 31.0705 40.7437C26.6408 40.7437 23.0498 37.1527 23.0498 32.723C23.0498 28.2933 26.6408 24.7023 31.0705 24.7023C33.3828 24.7023 35.4665 25.6807 36.9302 27.2461L39.4746 24.9562Z" fill="#0076FF"/>
<g filter="url(#filter2_d_200_1213)">
<path fill-rule="evenodd" clip-rule="evenodd" d="M36.9303 27.2461C35.4665 25.6807 33.3828 24.7023 31.0705 24.7023C26.6408 24.7023 23.0498 28.2933 23.0498 32.723C23.0498 37.1527 26.6408 40.7437 31.0705 40.7437C33.509 40.7437 35.6934 39.6555 37.1644 37.9382L35.3784 36.4052C34.3389 37.6202 32.7943 38.3903 31.0699 38.3903C27.9396 38.3903 25.4019 35.8526 25.4019 32.7223C25.4019 29.592 27.9396 27.0543 31.0699 27.0543C32.6883 27.0543 34.1483 27.7326 35.1811 28.8204L36.9303 27.2461Z" fill="#ECECEC"/>
</g>
<g filter="url(#filter3_d_200_1213)">
<path fill-rule="evenodd" clip-rule="evenodd" d="M29.4178 24.872C25.781 25.6338 23.0498 28.8591 23.0498 32.7223C23.0498 37.152 26.6408 40.743 31.0705 40.743C33.5088 40.743 35.693 39.6549 37.1641 37.9379L35.3791 36.4058C34.3395 37.6209 32.795 38.3909 31.0705 38.3909C27.9402 38.3909 25.4026 35.8533 25.4026 32.723C25.4026 30.0544 27.2467 27.8166 29.7301 27.2144L29.4178 24.872Z" fill="#B7D8FF"/>
</g>
</g>
<g filter="url(#filter4_d_200_1213)">
<path fill-rule="evenodd" clip-rule="evenodd" d="M45.5081 21.4939V35.0898H45.5144C45.6742 38.8293 48.8182 41.813 52.6732 41.813C56.5283 41.813 59.6723 38.8293 59.832 35.0898H59.8384V34.8047L59.8384 34.791L59.8384 34.7773V21.4939H62.405V35.6158C62.405 39.7302 58.1182 44.3796 52.5662 44.3796C47.0143 44.3796 42.5136 39.7302 42.5136 35.6158L42.5136 21.4939L45.5081 21.4939Z" fill="#0076FF"/>
</g>
<g filter="url(#filter5_d_200_1213)">
<path fill-rule="evenodd" clip-rule="evenodd" d="M45.5081 21.4939H59.8384V34.7773L59.8384 34.791L59.8384 34.8047V35.0898H59.832C59.6723 38.8294 56.5283 41.813 52.6732 41.813C48.8182 41.813 45.6742 38.8294 45.5144 35.0898H45.5081V21.4939ZM47.6463 21.4939H57.6021V24.5941L57.6026 24.5953V34.2201C57.6026 37.6901 55.374 39.6742 52.6247 39.6742C49.8755 39.6742 47.6468 37.6901 47.6468 34.2201V33.6587H47.6463V21.4939Z" fill="#B7D8FF"/>
</g>
<g filter="url(#filter6_d_200_1213)">
<rect x="45.5081" y="21.4939" width="2.13886" height="7.486" fill="#ECECEC"/>
</g>
<g filter="url(#filter7_d_200_1213)">
<path d="M24.5587 56.0907V49.1734H26.8962C27.3757 49.1734 27.8058 49.2369 28.1866 49.3638C28.5744 49.4907 28.8776 49.7058 29.0962 50.009C29.3218 50.3051 29.4346 50.7106 29.4346 51.2253C29.4346 51.7542 29.3077 52.1808 29.0539 52.5051C28.8071 52.8295 28.4757 53.0622 28.0596 53.2032L29.7096 56.0907H28.3346L26.8433 53.383H25.7856V56.0907H24.5587ZM25.7856 52.4099H26.7693C27.2417 52.4099 27.6013 52.3112 27.8481 52.1138C28.1019 51.9093 28.2289 51.6131 28.2289 51.2253C28.2289 50.8304 28.1019 50.5554 27.8481 50.4003C27.6013 50.2381 27.2417 50.157 26.7693 50.157H25.7856V52.4099ZM32.8828 56.2176C32.4033 56.2176 31.9697 56.1119 31.5819 55.9003C31.194 55.6817 30.8873 55.3715 30.6617 54.9695C30.436 54.5606 30.3232 54.0705 30.3232 53.4994C30.3232 52.9352 30.436 52.4487 30.6617 52.0397C30.8944 51.6308 31.194 51.317 31.5607 51.0984C31.9274 50.8798 32.3117 50.7705 32.7136 50.7705C33.186 50.7705 33.5809 50.8763 33.8982 51.0878C34.2155 51.2923 34.4553 51.5814 34.6174 51.9551C34.7796 52.3218 34.8607 52.7484 34.8607 53.2349C34.8607 53.4888 34.8431 53.6862 34.8078 53.8272H31.5078C31.5642 54.2856 31.7299 54.6417 32.0049 54.8955C32.2799 55.1494 32.6254 55.2763 33.0415 55.2763C33.2671 55.2763 33.4751 55.2445 33.6655 55.1811C33.8629 55.1106 34.0569 55.0154 34.2472 54.8955L34.6597 55.657C34.4129 55.8192 34.1379 55.9532 33.8347 56.059C33.5315 56.1647 33.2142 56.2176 32.8828 56.2176ZM31.4972 53.0022H33.803C33.803 52.6003 33.7149 52.2865 33.5386 52.0609C33.3623 51.8282 33.0979 51.7119 32.7453 51.7119C32.4421 51.7119 32.1706 51.8247 31.9309 52.0503C31.6982 52.2689 31.5537 52.5862 31.4972 53.0022ZM37.2386 56.0907L35.4299 50.8974H36.6674L37.4924 53.5945C37.5629 53.8484 37.6334 54.1058 37.7039 54.3667C37.7815 54.6276 37.8555 54.892 37.9261 55.1599H37.9684C38.0459 54.892 38.12 54.6276 38.1905 54.3667C38.268 54.1058 38.3421 53.8484 38.4126 53.5945L39.2376 50.8974H40.4116L38.6453 56.0907H37.2386ZM41.3646 56.0907V50.8974H42.5809V56.0907H41.3646ZM41.978 49.9878C41.7594 49.9878 41.5832 49.9244 41.4492 49.7974C41.3152 49.6705 41.2482 49.5013 41.2482 49.2897C41.2482 49.0852 41.3152 48.9195 41.4492 48.7926C41.5832 48.6657 41.7594 48.6022 41.978 48.6022C42.1966 48.6022 42.3729 48.6657 42.5069 48.7926C42.6408 48.9195 42.7078 49.0852 42.7078 49.2897C42.7078 49.5013 42.6408 49.6705 42.5069 49.7974C42.3729 49.9244 42.1966 49.9878 41.978 49.9878ZM46.4066 56.2176C45.9271 56.2176 45.4934 56.1119 45.1056 55.9003C44.7178 55.6817 44.411 55.3715 44.1854 54.9695C43.9598 54.5606 43.8469 54.0705 43.8469 53.4994C43.8469 52.9352 43.9598 52.4487 44.1854 52.0397C44.4181 51.6308 44.7178 51.317 45.0844 51.0984C45.4511 50.8798 45.8354 50.7705 46.2373 50.7705C46.7098 50.7705 47.1046 50.8763 47.4219 51.0878C47.7393 51.2923 47.979 51.5814 48.1412 51.9551C48.3034 52.3218 48.3844 52.7484 48.3844 53.2349C48.3844 53.4888 48.3668 53.6862 48.3316 53.8272H45.0316C45.088 54.2856 45.2537 54.6417 45.5287 54.8955C45.8037 55.1494 46.1492 55.2763 46.5652 55.2763C46.7909 55.2763 46.9989 55.2445 47.1893 55.1811C47.3867 55.1106 47.5806 55.0154 47.771 54.8955L48.1835 55.657C47.9367 55.8192 47.6617 55.9532 47.3585 56.059C47.0553 56.1647 46.738 56.2176 46.4066 56.2176ZM45.021 53.0022H47.3268C47.3268 52.6003 47.2386 52.2865 47.0623 52.0609C46.886 51.8282 46.6216 51.7119 46.2691 51.7119C45.9659 51.7119 45.6944 51.8247 45.4546 52.0503C45.2219 52.2689 45.0774 52.5862 45.021 53.0022ZM50.4556 56.0907L49.0806 50.8974H50.3075L50.9315 53.5945C50.9879 53.8413 51.0338 54.0881 51.069 54.3349C51.1113 54.5817 51.1572 54.832 51.2065 55.0859H51.2488C51.2982 54.832 51.3475 54.5817 51.3969 54.3349C51.4533 54.0811 51.5133 53.8343 51.5767 53.5945L52.2536 50.8974H53.3642L54.0517 53.5945C54.1152 53.8413 54.1751 54.0881 54.2315 54.3349C54.2879 54.5817 54.3443 54.832 54.4008 55.0859H54.4431C54.4924 54.832 54.5383 54.5817 54.5806 54.3349C54.6229 54.0881 54.6687 53.8413 54.7181 53.5945L55.3421 50.8974H56.4844L55.1623 56.0907H53.7133L53.1104 53.6686C53.054 53.4218 53.0011 53.1785 52.9517 52.9388C52.9024 52.692 52.8495 52.4311 52.7931 52.1561H52.7508C52.7014 52.4311 52.652 52.692 52.6027 52.9388C52.5533 53.1856 52.5004 53.4324 52.444 53.6792L51.8517 56.0907H50.4556ZM59.0126 56.2176C58.66 56.2176 58.3074 56.1506 57.9549 56.0167C57.6023 55.8756 57.2991 55.7029 57.0453 55.4984L57.6164 54.7157C57.8491 54.892 58.0818 55.033 58.3145 55.1388C58.5472 55.2445 58.794 55.2974 59.0549 55.2974C59.3369 55.2974 59.5449 55.2375 59.6789 55.1176C59.8129 54.9977 59.8799 54.8497 59.8799 54.6734C59.8799 54.5253 59.8235 54.4054 59.7106 54.3138C59.6049 54.2151 59.4674 54.1304 59.2981 54.0599C59.1289 53.9824 58.9526 53.9083 58.7693 53.8378C58.5436 53.7532 58.318 53.651 58.0924 53.5311C57.8738 53.4042 57.694 53.2455 57.5529 53.0551C57.4119 52.8577 57.3414 52.6144 57.3414 52.3253C57.3414 51.867 57.5106 51.4933 57.8491 51.2042C58.1876 50.9151 58.6459 50.7705 59.2241 50.7705C59.5908 50.7705 59.9186 50.834 60.2078 50.9609C60.4969 51.0878 60.7472 51.2324 60.9587 51.3945L60.3981 52.1349C60.2148 52.001 60.0279 51.8952 59.8376 51.8176C59.6542 51.733 59.4603 51.6907 59.2558 51.6907C58.9949 51.6907 58.801 51.7471 58.6741 51.8599C58.5472 51.9657 58.4837 52.0997 58.4837 52.2619C58.4837 52.4663 58.5895 52.6215 58.801 52.7272C59.0126 52.833 59.2594 52.9352 59.5414 53.034C59.7811 53.1186 60.0138 53.2244 60.2395 53.3513C60.4651 53.4711 60.652 53.6298 60.8001 53.8272C60.9552 54.0247 61.0328 54.2856 61.0328 54.6099C61.0328 55.0542 60.86 55.4349 60.5145 55.7522C60.169 56.0625 59.6683 56.2176 59.0126 56.2176Z" fill="#0076FF"/>
</g>
</g>
<defs>
<filter id="filter0_d_200_1213" x="0.99336" y="0" width="82.0133" height="82.0133" filterUnits="userSpaceOnUse" color-interpolation-filters="sRGB">
<feFlood flood-opacity="0" result="BackgroundImageFix"/>
<feColorMatrix in="SourceAlpha" type="matrix" values="0 0 0 0 0 0 0 0 0 0 0 0 0 0 0 0 0 0 127 0" result="hardAlpha"/>
<feOffset dy="3.00664"/>
<feGaussianBlur stdDeviation="1.50332"/>
<feComposite in2="hardAlpha" operator="out"/>
<feColorMatrix type="matrix" values="0 0 0 0 0 0 0 0 0 0 0 0 0 0 0 0 0 0 0.25 0"/>
<feBlend mode="normal" in2="BackgroundImageFix" result="effect1_dropShadow_200_1213"/>
<feBlend mode="normal" in="SourceGraphic" in2="effect1_dropShadow_200_1213" result="shape"/>
</filter>
<filter id="filter1_d_200_1213" x="19.2052" y="21.2801" width="20.9795" height="23.7319" filterUnits="userSpaceOnUse" color-interpolation-filters="sRGB">
<feFlood flood-opacity="0" result="BackgroundImageFix"/>
<feColorMatrix in="SourceAlpha" type="matrix" values="0 0 0 0 0 0 0 0 0 0 0 0 0 0 0 0 0 0 127 0" result="hardAlpha"/>
<feOffset dy="0.423077"/>
<feGaussianBlur stdDeviation="0.211538"/>
<feColorMatrix type="matrix" values="0 0 0 0 0 0 0 0 0 0 0 0 0 0 0 0 0 0 0.1 0"/>
<feBlend mode="normal" in2="BackgroundImageFix" result="effect1_dropShadow_200_1213"/>
<feBlend mode="normal" in="SourceGraphic" in2="effect1_dropShadow_200_1213" result="shape"/>
</filter>
<filter id="filter2_d_200_1213" x="22.6268" y="24.7023" width="14.9607" height="16.8876" filterUnits="userSpaceOnUse" color-interpolation-filters="sRGB">
<feFlood flood-opacity="0" result="BackgroundImageFix"/>
<feColorMatrix in="SourceAlpha" type="matrix" values="0 0 0 0 0 0 0 0 0 0 0 0 0 0 0 0 0 0 127 0" result="hardAlpha"/>
<feOffset dy="0.423077"/>
<feGaussianBlur stdDeviation="0.211538"/>
<feColorMatrix type="matrix" values="0 0 0 0 0 0 0 0 0 0 0 0 0 0 0 0 0 0 0.1 0"/>
<feBlend mode="normal" in2="BackgroundImageFix" result="effect1_dropShadow_200_1213"/>
<feBlend mode="normal" in="SourceGraphic" in2="effect1_dropShadow_200_1213" result="shape"/>
</filter>
<filter id="filter3_d_200_1213" x="22.6268" y="24.872" width="14.9604" height="16.7171" filterUnits="userSpaceOnUse" color-interpolation-filters="sRGB">
<feFlood flood-opacity="0" result="BackgroundImageFix"/>
<feColorMatrix in="SourceAlpha" type="matrix" values="0 0 0 0 0 0 0 0 0 0 0 0 0 0 0 0 0 0 127 0" result="hardAlpha"/>
<feOffset dy="0.423077"/>
<feGaussianBlur stdDeviation="0.211538"/>
<feColorMatrix type="matrix" values="0 0 0 0 0 0 0 0 0 0 0 0 0 0 0 0 0 0 0.1 0"/>
<feBlend mode="normal" in2="BackgroundImageFix" result="effect1_dropShadow_200_1213"/>
<feBlend mode="normal" in="SourceGraphic" in2="effect1_dropShadow_200_1213" result="shape"/>
</filter>
<filter id="filter4_d_200_1213" x="42.0905" y="21.4939" width="20.7375" height="23.7318" filterUnits="userSpaceOnUse" color-interpolation-filters="sRGB">
<feFlood flood-opacity="0" result="BackgroundImageFix"/>
<feColorMatrix in="SourceAlpha" type="matrix" values="0 0 0 0 0 0 0 0 0 0 0 0 0 0 0 0 0 0 127 0" result="hardAlpha"/>
<feOffset dy="0.423077"/>
<feGaussianBlur stdDeviation="0.211538"/>
<feColorMatrix type="matrix" values="0 0 0 0 0 0 0 0 0 0 0 0 0 0 0 0 0 0 0.1 0"/>
<feBlend mode="normal" in2="BackgroundImageFix" result="effect1_dropShadow_200_1213"/>
<feBlend mode="normal" in="SourceGraphic" in2="effect1_dropShadow_200_1213" result="shape"/>
</filter>
<filter id="filter5_d_200_1213" x="45.5081" y="21.4939" width="15.1765" height="21.1653" filterUnits="userSpaceOnUse" color-interpolation-filters="sRGB">
<feFlood flood-opacity="0" result="BackgroundImageFix"/>
<feColorMatrix in="SourceAlpha" type="matrix" values="0 0 0 0 0 0 0 0 0 0 0 0 0 0 0 0 0 0 127 0" result="hardAlpha"/>
<feOffset dx="0.423077" dy="0.423077"/>
<feGaussianBlur stdDeviation="0.211538"/>
<feColorMatrix type="matrix" values="0 0 0 0 0 0 0 0 0 0 0 0 0 0 0 0 0 0 0.2 0"/>
<feBlend mode="normal" in2="BackgroundImageFix" result="effect1_dropShadow_200_1213"/>
<feBlend mode="normal" in="SourceGraphic" in2="effect1_dropShadow_200_1213" result="shape"/>
</filter>
<filter id="filter6_d_200_1213" x="45.085" y="21.4939" width="2.98501" height="8.33218" filterUnits="userSpaceOnUse" color-interpolation-filters="sRGB">
<feFlood flood-opacity="0" result="BackgroundImageFix"/>
<feColorMatrix in="SourceAlpha" type="matrix" values="0 0 0 0 0 0 0 0 0 0 0 0 0 0 0 0 0 0 127 0" result="hardAlpha"/>
<feOffset dy="0.423077"/>
<feGaussianBlur stdDeviation="0.211538"/>
<feColorMatrix type="matrix" values="0 0 0 0 0 0 0 0 0 0 0 0 0 0 0 0 0 0 0.1 0"/>
<feBlend mode="normal" in2="BackgroundImageFix" result="effect1_dropShadow_200_1213"/>
<feBlend mode="normal" in="SourceGraphic" in2="effect1_dropShadow_200_1213" result="shape"/>
</filter>
<filter id="filter7_d_200_1213" x="24.1356" y="48.6022" width="37.3202" height="8.46157" filterUnits="userSpaceOnUse" color-interpolation-filters="sRGB">
<feFlood flood-opacity="0" result="BackgroundImageFix"/>
<feColorMatrix in="SourceAlpha" type="matrix" values="0 0 0 0 0 0 0 0 0 0 0 0 0 0 0 0 0 0 127 0" result="hardAlpha"/>
<feOffset dy="0.423077"/>
<feGaussianBlur stdDeviation="0.211538"/>
<feColorMatrix type="matrix" values="0 0 0 0 0 0 0 0 0 0 0 0 0 0 0 0 0 0 0.1 0"/>
<feBlend mode="normal" in2="BackgroundImageFix" result="effect1_dropShadow_200_1213"/>
<feBlend mode="normal" in="SourceGraphic" in2="effect1_dropShadow_200_1213" result="shape"/>
</filter>
<linearGradient id="paint0_linear_200_1213" x1="42" y1="0" x2="42" y2="76" gradientUnits="userSpaceOnUse">
<stop stop-color="#B7D8FF"/>
<stop offset="1" stop-color="#0176FE"/>
</linearGradient>
</defs>
</svg>
