<?xml version="1.0" standalone="no"?>
<!DOCTYPE svg PUBLIC "-//W3C//DTD SVG 20010904//EN"
 "http://www.w3.org/TR/2001/REC-SVG-20010904/DTD/svg10.dtd">
<svg version="1.0" xmlns="http://www.w3.org/2000/svg"
 width="800.000000pt" height="800.000000pt" viewBox="0 0 800.000000 800.000000"
 preserveAspectRatio="xMidYMid meet">
<metadata>
Created by potrace 1.11, written by Peter Selinger 2001-2013
</metadata>
<g transform="translate(0.000000,800.000000) scale(0.100000,-0.100000)"
fill="#000000" stroke="none">
<path d="M3908 6995 c-1 -1 -35 -5 -73 -8 -79 -7 -255 -32 -318 -47 -23 -5
-53 -11 -67 -14 -63 -12 -234 -61 -325 -93 -374 -132 -691 -316 -985 -572 -74
-64 -246 -235 -285 -282 -11 -14 -41 -49 -66 -79 -326 -390 -574 -946 -644
-1447 -3 -18 -7 -50 -10 -70 -27 -186 -27 -578 -1 -763 12 -87 16 -108 26
-160 6 -30 13 -68 16 -85 15 -89 108 -401 144 -480 5 -11 27 -63 50 -115 280
-639 808 -1182 1446 -1486 156 -74 284 -122 519 -194 78 -23 302 -65 406 -76
35 -3 68 -8 72 -11 15 -9 458 -11 542 -3 138 13 210 22 215 25 3 2 26 6 50 10
268 39 615 157 888 301 196 104 432 266 572 393 l55 50 -174 175 c-189 190
-179 184 -238 128 -125 -120 -475 -334 -648 -397 -27 -10 -54 -22 -60 -26 -22
-16 -273 -90 -383 -113 -200 -41 -294 -51 -517 -51 -194 0 -296 8 -445 35
-925 166 -1680 839 -1954 1741 -74 245 -105 481 -101 754 3 174 6 224 20 310
2 17 7 48 11 70 44 303 194 684 376 955 113 170 183 256 313 385 139 140 169
165 285 252 373 275 793 435 1265 483 84 8 433 5 498 -4 20 -3 52 -8 70 -10
84 -11 131 -20 242 -47 144 -35 188 -49 325 -102 265 -101 569 -290 770 -477
36 -33 67 -60 70 -60 3 0 84 79 180 175 l175 175 -25 23 c-34 31 -191 168
-221 192 -36 31 -186 135 -259 181 -377 239 -787 384 -1255 445 -79 10 -538
22 -547 14z"/>
<path d="M3926 5459 l-70 -70 142 -142 142 -142 71 71 70 71 -129 129 c-71 71
-135 134 -143 141 -11 9 -28 -3 -83 -58z"/>
<path d="M3246 4779 l-550 -550 142 -142 142 -142 552 552 552 552 -139 140
c-77 78 -142 141 -145 141 -3 -1 -252 -248 -554 -551z"/>
<path d="M4250 4988 l-141 -142 138 -138 c76 -76 140 -138 143 -138 3 0 24 18
46 40 37 35 43 38 55 24 11 -13 6 -21 -30 -56 l-42 -42 142 -142 142 -142 35
39 c20 21 42 39 48 39 28 0 24 -24 -10 -59 -20 -20 -36 -41 -36 -47 0 -13 263
-274 275 -274 6 0 26 16 45 35 19 20 39 34 44 32 21 -7 15 -26 -19 -58 -19
-18 -35 -38 -35 -44 0 -6 62 -72 138 -148 l137 -137 142 143 141 142 -608 608
-608 607 -142 -142z"/>
<path d="M3926 4255 c-49 -17 -103 -76 -117 -129 -14 -52 -14 -1466 0 -1513
51 -172 289 -190 365 -29 l25 52 -1 737 0 737 -25 51 c-44 88 -150 129 -247
94z"/>
<path d="M2630 4119 c-6 -30 -14 -67 -17 -84 -2 -16 -11 -61 -20 -100 -28
-133 -32 -120 32 -105 22 5 52 11 67 14 15 2 65 12 110 22 46 9 88 17 95 18 7
1 15 4 17 7 3 3 -57 67 -133 143 l-139 139 -12 -54z"/>
</g>
</svg>
