<?xml version="1.0" encoding="UTF-8"?>
<!DOCTYPE svg PUBLIC "-//W3C//DTD SVG 1.1//EN" "http://www.w3.org/Graphics/SVG/1.1/DTD/svg11.dtd">
<svg xmlns="http://www.w3.org/2000/svg" version="1.1" width="5047px" height="1096px" style="shape-rendering:geometricPrecision; text-rendering:geometricPrecision; image-rendering:optimizeQuality; fill-rule:evenodd; clip-rule:evenodd" xmlns:xlink="http://www.w3.org/1999/xlink">
<g><path style="opacity:1" fill="#fdfdfd" d="M -0.5,-0.5 C 28.8333,-0.5 58.1667,-0.5 87.5,-0.5C 38.9636,9.03618 9.6303,38.0362 -0.5,86.5C -0.5,57.5 -0.5,28.5 -0.5,-0.5 Z"/></g>
<g><path style="opacity:1" fill="#6f6f6f" d="M 87.5,-0.5 C 338.5,-0.5 589.5,-0.5 840.5,-0.5C 883.897,5.46916 913.064,29.1358 928,70.5C 929.461,76.8055 930.794,83.1389 932,89.5C 932.833,340.334 932.666,591 931.5,841.5C 931.667,688.833 931.5,536.166 931,383.5C 868.167,320.667 805.333,257.833 742.5,195C 728.016,181.613 712.683,169.446 696.5,158.5C 594.935,86.0686 483.601,65.9019 362.5,98C 256.907,131.938 179.407,198.438 130,297.5C 87.0696,392.908 83.0696,489.908 118,588.5C 130.442,620.389 146.276,650.389 165.5,678.5C 176.599,696.447 189.099,713.447 203,729.5C 270.701,797.035 338.201,864.701 405.5,932.5C 300.5,932.5 195.5,932.5 90.5,932.5C 38.6737,923.007 8.34039,892.341 -0.5,840.5C -0.5,589.167 -0.5,337.833 -0.5,86.5C 9.6303,38.0362 38.9636,9.03618 87.5,-0.5 Z"/></g>
<g><path style="opacity:0.999" fill="#fefefe" d="M 840.5,-0.5 C 2033.17,-0.5 3225.83,-0.5 4418.5,-0.5C 4418.5,310.5 4418.5,621.5 4418.5,932.5C 3225.17,932.5 2031.83,932.5 838.5,932.5C 891.537,924.797 922.537,894.464 931.5,841.5C 932.666,591 932.833,340.334 932,89.5C 930.794,83.1389 929.461,76.8055 928,70.5C 913.064,29.1358 883.897,5.46916 840.5,-0.5 Z"/></g>
<g><path style="opacity:0.012" fill="#fefffe" d="M 4419.5,-0.5 C 4419.83,-0.5 4420.17,-0.5 4420.5,-0.5C 4420.83,310.667 4420.5,621.667 4419.5,932.5C 4419.5,621.5 4419.5,310.5 4419.5,-0.5 Z"/></g>
<g><path style="opacity:1" fill="#fd3249" d="M 696.5,158.5 C 709.419,169.412 722.086,180.745 734.5,192.5C 723.139,204.694 711.306,216.361 699,227.5C 606.981,142.155 499.815,114.988 377.5,146C 292.382,172.796 227.882,224.962 184,302.5C 131.09,406.686 131.423,510.686 185,614.5C 240.277,709.099 322.444,764.266 431.5,780C 534.785,789.409 623.785,758.575 698.5,687.5C 710.153,698.652 721.653,709.986 733,721.5C 733.749,722.635 733.583,723.635 732.5,724.5C 648.956,804.078 549.29,839.578 433.5,831C 339.421,820.709 259.921,781.542 195,713.5C 185.148,701.762 175.315,690.096 165.5,678.5C 146.276,650.389 130.442,620.389 118,588.5C 83.0696,489.908 87.0696,392.908 130,297.5C 179.407,198.438 256.907,131.938 362.5,98C 483.601,65.9019 594.935,86.0686 696.5,158.5 Z"/></g>
<g><path style="opacity:1" fill="#020202" d="M 2147.5,93.5 C 2160.83,93.5 2174.17,93.5 2187.5,93.5C 2187.02,169.864 2187.52,246.198 2189,322.5C 2190.93,327.428 2194.43,330.594 2199.5,332C 2209.08,333.042 2218.25,331.542 2227,327.5C 2227.5,327.833 2228,328.167 2228.5,328.5C 2230.63,338.475 2232.63,348.475 2234.5,358.5C 2214.83,367.097 2194.49,369.264 2173.5,365C 2158.2,359.592 2149.7,348.759 2148,332.5C 2147.5,252.834 2147.33,173.167 2147.5,93.5 Z"/></g>
<g><path style="opacity:1" fill="#020202" d="M 2257.5,93.5 C 2270.83,93.5 2284.17,93.5 2297.5,93.5C 2297.02,169.861 2297.52,246.194 2299,322.5C 2300.93,327.428 2304.43,330.594 2309.5,332C 2313.5,332.667 2317.5,332.667 2321.5,332C 2327.21,330.422 2332.87,329.089 2338.5,328C 2340.77,338.421 2342.77,348.921 2344.5,359.5C 2327.36,365.687 2309.69,368.187 2291.5,367C 2273.99,364.493 2263.16,354.659 2259,337.5C 2257.52,256.198 2257.02,174.864 2257.5,93.5 Z"/></g>
<g><path style="opacity:1" fill="#030303" d="M 2719.5,93.5 C 2732.83,93.5 2746.17,93.5 2759.5,93.5C 2759.5,108.5 2759.5,123.5 2759.5,138.5C 2746.17,138.5 2732.83,138.5 2719.5,138.5C 2719.5,123.5 2719.5,108.5 2719.5,93.5 Z"/></g>
<g><path style="opacity:1" fill="#070707" d="M 3039.5,93.5 C 3053.17,93.5 3066.83,93.5 3080.5,93.5C 3080.5,108.5 3080.5,123.5 3080.5,138.5C 3066.83,138.5 3053.17,138.5 3039.5,138.5C 3039.5,123.5 3039.5,108.5 3039.5,93.5 Z"/></g>
<g><path style="opacity:1" fill="#030303" d="M 3471.5,93.5 C 3485.17,93.5 3498.83,93.5 3512.5,93.5C 3512.33,168.834 3512.5,244.167 3513,319.5C 3516.5,330.504 3524,334.671 3535.5,332C 3541.3,331.011 3546.97,329.511 3552.5,327.5C 3555.03,337.031 3557.03,346.698 3558.5,356.5C 3558.17,357.5 3557.83,358.5 3557.5,359.5C 3539.39,366.684 3520.72,368.85 3501.5,366C 3484.15,360.977 3474.31,349.477 3472,331.5C 3471.5,252.167 3471.33,172.834 3471.5,93.5 Z"/></g>
<g><path style="opacity:1" fill="#151515" d="M 3473.5,94.5 C 3486.17,94.5 3498.83,94.5 3511.5,94.5C 3511.67,169.501 3511.5,244.501 3511,319.5C 3510.67,245.167 3510.33,170.833 3510,96.5C 3498.25,95.5118 3486.41,95.1785 3474.5,95.5C 3474.67,174.834 3474.5,254.167 3474,333.5C 3473.5,253.834 3473.33,174.167 3473.5,94.5 Z"/></g>
<g><path style="opacity:1" fill="#020202" d="M 1126.5,334.5 C 1126.61,333.883 1126.94,333.383 1127.5,333C 1123.63,329.466 1120.13,325.633 1117,321.5C 1116.54,322.094 1116.37,322.761 1116.5,323.5C 1082.67,283.456 1073.17,238.123 1088,187.5C 1109.73,131.605 1150.56,102.272 1210.5,99.5C 1245.78,99.0696 1275.62,111.403 1300,136.5C 1305.24,142.648 1309.74,149.315 1313.5,156.5C 1300.81,165.695 1287.97,174.695 1275,183.5C 1256.43,151.974 1228.93,139.474 1192.5,146C 1162.89,154.943 1144.06,174.443 1136,204.5C 1126.46,243.846 1135.96,277.679 1164.5,306C 1194.87,327.646 1225.54,327.979 1256.5,307C 1258.7,304.46 1261.2,302.293 1264,300.5C 1268.43,294.637 1272.59,288.637 1276.5,282.5C 1289.75,290.04 1302.92,297.707 1316,305.5C 1314.39,312.386 1311.39,318.72 1307,324.5C 1284.52,348.825 1256.68,362.658 1223.5,366C 1196.81,369.196 1171.81,364.196 1148.5,351C 1140.6,346.221 1133.27,340.721 1126.5,334.5 Z"/></g>
<g><path style="opacity:1" fill="#c4c4c4" d="M 2560.5,101.5 C 2526,101.168 2491.66,101.502 2457.5,102.5C 2457.5,102.833 2457.5,103.167 2457.5,103.5C 2457.5,189.833 2457.5,276.167 2457.5,362.5C 2457.5,362.833 2457.5,363.167 2457.5,363.5C 2492.66,364.498 2528,364.832 2563.5,364.5C 2528,365.498 2492.34,365.832 2456.5,365.5C 2456.5,277.167 2456.5,188.833 2456.5,100.5C 2491.34,100.168 2526,100.502 2560.5,101.5 Z"/></g>
<g><path style="opacity:1" fill="#000000" d="M 2457.5,103.5 C 2458.83,146.328 2459.5,189.495 2459.5,233C 2459.5,276.505 2458.83,319.672 2457.5,362.5C 2457.5,276.167 2457.5,189.833 2457.5,103.5 Z"/></g>
<g><path style="opacity:1" fill="#111111" d="M 2457.5,103.5 C 2457.5,103.167 2457.5,102.833 2457.5,102.5C 2494.17,102.333 2530.83,102.5 2567.5,103C 2531.83,103.5 2496.17,103.667 2460.5,103.5C 2460.5,189.833 2460.5,276.167 2460.5,362.5C 2495.5,362.333 2530.5,362.5 2565.5,363C 2529.5,363.5 2493.5,363.667 2457.5,363.5C 2457.5,363.167 2457.5,362.833 2457.5,362.5C 2458.83,319.672 2459.5,276.505 2459.5,233C 2459.5,189.495 2458.83,146.328 2457.5,103.5 Z"/></g>
<g><path style="opacity:1" fill="#010101" d="M 2457.5,102.5 C 2491.66,101.502 2526,101.168 2560.5,101.5C 2624.02,104.196 2663.85,136.196 2680,197.5C 2681.14,205.651 2682.31,213.651 2683.5,221.5C 2683.45,232.511 2683.12,243.511 2682.5,254.5C 2677.11,299.814 2654.11,332.647 2613.5,353C 2597.49,359.67 2580.82,363.504 2563.5,364.5C 2528,364.832 2492.66,364.498 2457.5,363.5C 2493.5,363.667 2529.5,363.5 2565.5,363C 2530.5,362.5 2495.5,362.333 2460.5,362.5C 2460.5,276.167 2460.5,189.833 2460.5,103.5C 2496.17,103.667 2531.83,103.5 2567.5,103C 2530.83,102.5 2494.17,102.333 2457.5,102.5 Z"/></g>
<g><path style="opacity:1" fill="#020202" d="M 3221.5,201.5 C 3207.17,201.5 3192.83,201.5 3178.5,201.5C 3178.17,238.67 3178.5,275.67 3179.5,312.5C 3179.81,321.289 3184.15,327.122 3192.5,330C 3198.17,330.667 3203.83,330.667 3209.5,330C 3215.6,327.932 3221.6,325.932 3227.5,324C 3230.47,333.553 3233.14,343.219 3235.5,353C 3234.38,355.582 3232.38,357.248 3229.5,358C 3208.9,367.324 3187.56,369.658 3165.5,365C 3148.73,359.062 3139.73,347.228 3138.5,329.5C 3138.5,286.833 3138.5,244.167 3138.5,201.5C 3129.83,201.5 3121.17,201.5 3112.5,201.5C 3112.5,191.167 3112.5,180.833 3112.5,170.5C 3121.17,170.5 3129.83,170.5 3138.5,170.5C 3138.5,149.167 3138.5,127.833 3138.5,106.5C 3151.83,106.5 3165.17,106.5 3178.5,106.5C 3178.5,127.833 3178.5,149.167 3178.5,170.5C 3192.83,170.5 3207.17,170.5 3221.5,170.5C 3221.5,180.833 3221.5,191.167 3221.5,201.5 Z"/></g>
<g><path style="opacity:1" fill="#363636" d="M 696.5,158.5 C 712.683,169.446 728.016,181.613 742.5,195C 805.333,257.833 868.167,320.667 931,383.5C 931.5,536.166 931.667,688.833 931.5,841.5C 922.537,894.464 891.537,924.797 838.5,932.5C 694.167,932.5 549.833,932.5 405.5,932.5C 338.201,864.701 270.701,797.035 203,729.5C 189.099,713.447 176.599,696.447 165.5,678.5C 175.315,690.096 185.148,701.762 195,713.5C 259.921,781.542 339.421,820.709 433.5,831C 549.29,839.578 648.956,804.078 732.5,724.5C 733.583,723.635 733.749,722.635 733,721.5C 721.653,709.986 710.153,698.652 698.5,687.5C 623.785,758.575 534.785,789.409 431.5,780C 322.444,764.266 240.277,709.099 185,614.5C 131.423,510.686 131.09,406.686 184,302.5C 227.882,224.962 292.382,172.796 377.5,146C 499.815,114.988 606.981,142.155 699,227.5C 711.306,216.361 723.139,204.694 734.5,192.5C 722.086,180.745 709.419,169.412 696.5,158.5 Z"/></g>
<g><path style="opacity:1" fill="#fefefe" d="M 2561.5,146.5 C 2598.49,150.649 2621.33,170.982 2630,207.5C 2630.99,212.118 2631.49,216.785 2631.5,221.5C 2631.55,231.516 2631.21,241.516 2630.5,251.5C 2627.32,277.152 2614.98,296.986 2593.5,311C 2584.38,315.762 2574.72,318.595 2564.5,319.5C 2546.17,319.5 2527.83,319.5 2509.5,319.5C 2509.5,261.833 2509.5,204.167 2509.5,146.5C 2526.83,146.5 2544.17,146.5 2561.5,146.5 Z"/></g>
<g><path style="opacity:1" fill="#b8b8b8" d="M 2561.5,146.5 C 2544.17,146.5 2526.83,146.5 2509.5,146.5C 2509.5,204.167 2509.5,261.833 2509.5,319.5C 2527.83,319.5 2546.17,319.5 2564.5,319.5C 2546.01,320.497 2527.34,320.83 2508.5,320.5C 2508.5,262.167 2508.5,203.833 2508.5,145.5C 2526.34,145.17 2544.01,145.503 2561.5,146.5 Z"/></g>
<g><path style="opacity:1" fill="#020202" d="M 1420.5,167.5 C 1472.23,163.759 1508.39,185.426 1529,232.5C 1540.23,269.689 1534.23,303.689 1511,334.5C 1485.18,362.442 1453.35,373.275 1415.5,367C 1373.14,357.644 1346.98,331.81 1337,289.5C 1328.99,244.385 1343.49,208.552 1380.5,182C 1393.01,174.563 1406.35,169.729 1420.5,167.5 Z"/></g>
<g><path style="opacity:1" fill="#010101" d="M 1610.5,245.5 C 1609.5,284.996 1609.17,324.663 1609.5,364.5C 1596.17,364.5 1582.83,364.5 1569.5,364.5C 1569.17,299.665 1569.5,234.998 1570.5,170.5C 1570.5,234.833 1570.5,299.167 1570.5,363.5C 1583.17,363.5 1595.83,363.5 1608.5,363.5C 1608.67,324.165 1608.5,284.832 1608,245.5C 1607.5,284.499 1607.33,323.499 1607.5,362.5C 1595.5,362.5 1583.5,362.5 1571.5,362.5C 1571.5,298.833 1571.5,235.167 1571.5,171.5C 1582.5,171.5 1593.5,171.5 1604.5,171.5C 1604.33,185.504 1604.5,199.504 1605,213.5C 1605.5,199.171 1605.67,184.837 1605.5,170.5C 1605.83,170.5 1606.17,170.5 1606.5,170.5C 1606.17,184.849 1606.5,199.182 1607.5,213.5C 1608.11,213.376 1608.44,213.043 1608.5,212.5C 1622.88,183.64 1646.21,168.974 1678.5,168.5C 1678.5,180.833 1678.5,193.167 1678.5,205.5C 1654.36,205.151 1634.19,213.818 1618,231.5C 1614.71,235.744 1612.21,240.41 1610.5,245.5 Z"/></g>
<g><path style="opacity:1" fill="#010101" d="M 1880.5,237.5 C 1880.5,279.833 1880.5,322.167 1880.5,364.5C 1867.17,364.5 1853.83,364.5 1840.5,364.5C 1840.67,323.499 1840.5,282.499 1840,241.5C 1837.62,211.58 1821.79,199.413 1792.5,205C 1771.55,212.284 1756.72,226.118 1748,246.5C 1747.5,285.832 1747.33,325.165 1747.5,364.5C 1734.17,364.5 1720.83,364.5 1707.5,364.5C 1707.5,299.833 1707.5,235.167 1707.5,170.5C 1707.83,170.5 1708.17,170.5 1708.5,170.5C 1719.32,171.495 1730.32,171.828 1741.5,171.5C 1741.33,183.838 1741.5,196.171 1742,208.5C 1742.5,195.838 1742.67,183.171 1742.5,170.5C 1742.83,170.5 1743.17,170.5 1743.5,170.5C 1743.33,183.504 1743.5,196.504 1744,209.5C 1744.72,208.956 1745.22,208.289 1745.5,207.5C 1760.84,184.979 1782.18,171.812 1809.5,168C 1852.45,163.277 1875.95,182.443 1880,225.5C 1880.5,229.486 1880.67,233.486 1880.5,237.5 Z"/></g>
<g><path style="opacity:1" fill="#040404" d="M 2000.5,167.5 C 2044.66,163.131 2078.5,179.464 2102,216.5C 2112.95,236.886 2116.79,258.552 2113.5,281.5C 2061.5,281.5 2009.5,281.5 1957.5,281.5C 1960.4,308.898 1974.74,327.398 2000.5,337C 2021.71,341.947 2040.71,337.613 2057.5,324C 2061.74,319.592 2065.41,314.759 2068.5,309.5C 2079.39,312.972 2090.39,315.972 2101.5,318.5C 2099.99,324.529 2097.15,329.863 2093,334.5C 2066.4,362.476 2033.9,373.31 1995.5,367C 1951.88,357.049 1925.38,330.216 1916,286.5C 1910.12,246.795 1922.29,213.962 1952.5,188C 1966.87,177.16 1982.87,170.327 2000.5,167.5 Z"/></g>
<g><path style="opacity:1" fill="#030303" d="M 2908.5,446.5 C 2895.17,447.833 2881.83,447.833 2868.5,446.5C 2839.85,442.682 2816.85,429.349 2799.5,406.5C 2806.87,399.131 2814.53,392.131 2822.5,385.5C 2844.98,412.476 2873.65,422.309 2908.5,415C 2935.2,408.077 2949.53,390.91 2951.5,363.5C 2952.82,352.326 2952.82,340.993 2951.5,329.5C 2950.89,329.624 2950.56,329.957 2950.5,330.5C 2937.38,351.395 2918.38,363.228 2893.5,366C 2849.56,367.781 2819.39,348.281 2803,307.5C 2789.83,269.72 2794.5,234.387 2817,201.5C 2841.66,171.725 2872.83,161.559 2910.5,171C 2929.64,177.665 2944.81,189.498 2956,206.5C 2956.5,194.505 2956.67,182.505 2956.5,170.5C 2968.5,170.5 2980.5,170.5 2992.5,170.5C 2992.67,235.834 2992.5,301.168 2992,366.5C 2987.63,405.211 2966.8,430.378 2929.5,442C 2922.59,443.979 2915.59,445.479 2908.5,446.5 Z"/></g>
<g><path style="opacity:1" fill="#030303" d="M 3429.5,331.5 C 3430.57,332.434 3431.9,332.768 3433.5,332.5C 3433.5,343.5 3433.5,354.5 3433.5,365.5C 3425.51,366.333 3417.51,366.499 3409.5,366C 3400.39,364.89 3394.23,360.056 3391,351.5C 3389.92,345.851 3388.92,340.184 3388,334.5C 3368.84,356.575 3344.51,367.909 3315,368.5C 3289.26,368.799 3269.59,358.133 3256,336.5C 3240.73,292.385 3255.56,263.552 3300.5,250C 3316.01,246.752 3331.68,245.752 3347.5,247C 3359.3,248.522 3370.97,250.689 3382.5,253.5C 3386.32,217.661 3370.32,199.328 3334.5,198.5C 3321.9,198.15 3309.9,200.65 3298.5,206C 3289.85,209.991 3281.51,214.491 3273.5,219.5C 3268.71,210.746 3264.04,201.912 3259.5,193C 3294.99,168.035 3333.66,161.368 3375.5,173C 3403.69,183.841 3419.52,204.341 3423,234.5C 3423.33,265.167 3423.67,295.833 3424,326.5C 3425.08,329.079 3426.91,330.746 3429.5,331.5 Z"/></g>
<g><path style="opacity:1" fill="#7f7f7f" d="M 1606.5,170.5 C 1607.17,184.5 1607.83,198.5 1608.5,212.5C 1608.44,213.043 1608.11,213.376 1607.5,213.5C 1606.5,199.182 1606.17,184.849 1606.5,170.5 Z"/></g>
<g><path style="opacity:1" fill="#bababa" d="M 1743.5,170.5 C 1744.17,182.833 1744.83,195.167 1745.5,207.5C 1745.22,208.289 1744.72,208.956 1744,209.5C 1743.5,196.504 1743.33,183.504 1743.5,170.5 Z"/></g>
<g><path style="opacity:1" fill="#a5a5a5" d="M 2719.5,170.5 C 2719.5,235.167 2719.5,299.833 2719.5,364.5C 2732.83,364.5 2746.17,364.5 2759.5,364.5C 2759.5,299.833 2759.5,235.167 2759.5,170.5C 2760.5,235.331 2760.83,300.331 2760.5,365.5C 2746.5,365.5 2732.5,365.5 2718.5,365.5C 2718.17,300.331 2718.5,235.331 2719.5,170.5 Z"/></g>
<g><path style="opacity:1" fill="#1b1b1b" d="M 1570.5,170.5 C 1582.17,170.5 1593.83,170.5 1605.5,170.5C 1605.67,184.837 1605.5,199.171 1605,213.5C 1604.5,199.504 1604.33,185.504 1604.5,171.5C 1593.5,171.5 1582.5,171.5 1571.5,171.5C 1571.5,235.167 1571.5,298.833 1571.5,362.5C 1583.5,362.5 1595.5,362.5 1607.5,362.5C 1607.33,323.499 1607.5,284.499 1608,245.5C 1608.5,284.832 1608.67,324.165 1608.5,363.5C 1595.83,363.5 1583.17,363.5 1570.5,363.5C 1570.5,299.167 1570.5,234.833 1570.5,170.5 Z"/></g>
<g><path style="opacity:1" fill="#212121" d="M 1708.5,170.5 C 1719.83,170.5 1731.17,170.5 1742.5,170.5C 1742.67,183.171 1742.5,195.838 1742,208.5C 1741.5,196.171 1741.33,183.838 1741.5,171.5C 1730.32,171.828 1719.32,171.495 1708.5,170.5 Z"/></g>
<g><path style="opacity:1" fill="#161616" d="M 1708.5,172.5 C 1709.5,235.664 1709.83,298.998 1709.5,362.5C 1721.5,362.5 1733.5,362.5 1745.5,362.5C 1745.33,324.165 1745.5,285.832 1746,247.5C 1746.5,286.165 1746.67,324.832 1746.5,363.5C 1733.83,363.5 1721.17,363.5 1708.5,363.5C 1708.5,299.833 1708.5,236.167 1708.5,172.5 Z"/></g>
<g><path style="opacity:1" fill="#000000" d="M 2719.5,170.5 C 2732.83,170.5 2746.17,170.5 2759.5,170.5C 2759.5,235.167 2759.5,299.833 2759.5,364.5C 2746.17,364.5 2732.83,364.5 2719.5,364.5C 2719.5,299.833 2719.5,235.167 2719.5,170.5 Z"/></g>
<g><path style="opacity:1" fill="#1c1c1c" d="M 2720.5,172.5 C 2721.5,235.664 2721.83,298.998 2721.5,362.5C 2733.5,362.5 2745.5,362.5 2757.5,362.5C 2757.33,299.166 2757.5,235.832 2758,172.5C 2758.5,236.166 2758.67,299.832 2758.5,363.5C 2745.83,363.5 2733.17,363.5 2720.5,363.5C 2720.5,299.833 2720.5,236.167 2720.5,172.5 Z"/></g>
<g><path style="opacity:1" fill="#000000" d="M 3040.5,170.5 C 3053.83,170.5 3067.17,170.5 3080.5,170.5C 3080.5,235.167 3080.5,299.833 3080.5,364.5C 3067.17,364.5 3053.83,364.5 3040.5,364.5C 3040.5,299.833 3040.5,235.167 3040.5,170.5 Z"/></g>
<g><path style="opacity:1" fill="#161616" d="M 3041.5,172.5 C 3042.5,235.664 3042.83,298.998 3042.5,362.5C 3054.5,362.5 3066.5,362.5 3078.5,362.5C 3078.33,299.166 3078.5,235.832 3079,172.5C 3079.5,236.166 3079.67,299.832 3079.5,363.5C 3066.83,363.5 3054.17,363.5 3041.5,363.5C 3041.5,299.833 3041.5,236.167 3041.5,172.5 Z"/></g>
<g><path style="opacity:1" fill="#fdfdfd" d="M 2073.5,246.5 C 2073.5,248.833 2073.5,251.167 2073.5,253.5C 2034.83,253.5 1996.17,253.5 1957.5,253.5C 1957.5,251.5 1957.5,249.5 1957.5,247.5C 1961.99,223.17 1975.99,207.003 1999.5,199C 2028.53,193.272 2051.03,202.772 2067,227.5C 2070.27,233.476 2072.44,239.809 2073.5,246.5 Z"/></g>
<g><path style="opacity:1" fill="#fdfdfd" d="M 1427.5,201.5 C 1462.62,202.439 1484.12,220.105 1492,254.5C 1495.98,281.788 1487.81,304.622 1467.5,323C 1434.92,342.183 1407.76,336.349 1386,305.5C 1374.89,283.778 1373.55,261.444 1382,238.5C 1391.14,218.511 1406.3,206.178 1427.5,201.5 Z"/></g>
<g><path style="opacity:1" fill="#fdfdfd" d="M 2888.5,201.5 C 2917.62,201.815 2938.46,215.148 2951,241.5C 2951.96,261.232 2951.63,280.898 2950,300.5C 2933.01,329.904 2908.18,339.737 2875.5,330C 2854.24,319.73 2841.74,302.896 2838,279.5C 2834.41,250.866 2843.91,227.699 2866.5,210C 2873.43,205.86 2880.77,203.026 2888.5,201.5 Z"/></g>
<g><path style="opacity:1" fill="#9b9b9b" d="M 3221.5,201.5 C 3207.68,202.496 3193.68,202.829 3179.5,202.5C 3179.5,239.167 3179.5,275.833 3179.5,312.5C 3178.5,275.67 3178.17,238.67 3178.5,201.5C 3192.83,201.5 3207.17,201.5 3221.5,201.5 Z"/></g>
<g><path style="opacity:1" fill="#c3c3c3" d="M 3112.5,201.5 C 3121.17,201.5 3129.83,201.5 3138.5,201.5C 3138.5,244.167 3138.5,286.833 3138.5,329.5C 3137.5,287.337 3137.17,245.003 3137.5,202.5C 3128.98,202.826 3120.65,202.493 3112.5,201.5 Z"/></g>
<g><path style="opacity:1" fill="#cfcfcf" d="M 2683.5,221.5 C 2684.88,232.539 2684.54,243.539 2682.5,254.5C 2683.12,243.511 2683.45,232.511 2683.5,221.5 Z"/></g>
<g><path style="opacity:1" fill="#a2a2a2" d="M 2631.5,221.5 C 2632.17,224.984 2632.5,228.651 2632.5,232.5C 2632.59,239.059 2631.92,245.392 2630.5,251.5C 2631.21,241.516 2631.55,231.516 2631.5,221.5 Z"/></g>
<g><path style="opacity:1" fill="#858585" d="M 1610.5,245.5 C 1610.5,285.5 1610.5,325.5 1610.5,365.5C 1596.66,365.829 1582.99,365.496 1569.5,364.5C 1582.83,364.5 1596.17,364.5 1609.5,364.5C 1609.17,324.663 1609.5,284.996 1610.5,245.5 Z"/></g>
<g><path style="opacity:1" fill="#151515" d="M 1878.5,231.5 C 1879.5,275.33 1879.83,319.33 1879.5,363.5C 1866.83,363.5 1854.17,363.5 1841.5,363.5C 1841.33,323.499 1841.5,283.499 1842,243.5C 1842.5,283.165 1842.67,322.832 1842.5,362.5C 1854.5,362.5 1866.5,362.5 1878.5,362.5C 1878.5,318.833 1878.5,275.167 1878.5,231.5 Z"/></g>
<g><path style="opacity:1" fill="#cacaca" d="M 2073.5,246.5 C 2074.47,248.948 2074.81,251.615 2074.5,254.5C 2035.17,254.5 1995.83,254.5 1956.5,254.5C 1956.2,251.941 1956.53,249.607 1957.5,247.5C 1957.5,249.5 1957.5,251.5 1957.5,253.5C 1996.17,253.5 2034.83,253.5 2073.5,253.5C 2073.5,251.167 2073.5,248.833 2073.5,246.5 Z"/></g>
<g><path style="opacity:1" fill="#fcfcfc" d="M 3323.5,271.5 C 3343.65,269.999 3363.32,272.332 3382.5,278.5C 3387.82,300.322 3381.16,317.155 3362.5,329C 3347.99,337.833 3332.32,340.833 3315.5,338C 3290.5,329.496 3282.66,312.996 3292,288.5C 3300.51,278.998 3311.01,273.331 3323.5,271.5 Z"/></g>
<g><path style="opacity:1" fill="#fafafa" d="M 465.5,279.5 C 477.427,289.758 488.76,300.758 499.5,312.5C 494.5,318.167 489.167,323.5 483.5,328.5C 472.167,317.833 461.167,306.833 450.5,295.5C 455.522,290.146 460.522,284.813 465.5,279.5 Z"/></g>
<g><path style="opacity:1" fill="#fcfcfc" d="M 442.5,302.5 C 454.08,312.577 465.247,323.243 476,334.5C 476.667,335.167 476.667,335.833 476,336.5C 433.627,379.207 390.96,421.54 348,463.5C 337.301,452.801 326.634,442.134 316,431.5C 315.333,430.833 315.333,430.167 316,429.5C 358.368,387.299 400.535,344.965 442.5,302.5 Z"/></g>
<g><path style="opacity:1" fill="#fdfdfd" d="M 511.5,326.5 C 512.239,326.369 512.906,326.536 513.5,327C 560.401,374.068 607.401,420.901 654.5,467.5C 644.014,478.486 633.348,489.319 622.5,500C 621.833,500.667 621.167,500.667 620.5,500C 610,489.5 599.5,479 589,468.5C 590.748,464.717 593.414,461.384 597,458.5C 597.301,455.909 596.134,455.075 593.5,456C 590.667,458.833 587.833,461.667 585,464.5C 574.333,453.833 563.667,443.167 553,432.5C 552.333,431.833 552.333,431.167 553,430.5C 556.016,427.651 558.85,424.651 561.5,421.5C 560.855,420.354 560.022,419.354 559,418.5C 556.167,421.333 553.333,424.167 550.5,427C 549.5,427.667 548.5,427.667 547.5,427C 537.333,416.833 527.167,406.667 517,396.5C 516.333,395.5 516.333,394.5 517,393.5C 519.833,390.667 522.667,387.833 525.5,385C 524.534,383.322 523.201,382.655 521.5,383C 518.616,386.586 515.283,389.252 511.5,391C 500.652,380.319 489.986,369.486 479.5,358.5C 490.521,348.146 501.188,337.479 511.5,326.5 Z"/></g>
<g><path style="opacity:1" fill="#2a2a2a" d="M 1126.5,334.5 C 1122.46,331.457 1119.12,327.791 1116.5,323.5C 1116.37,322.761 1116.54,322.094 1117,321.5C 1120.13,325.633 1123.63,329.466 1127.5,333C 1126.94,333.383 1126.61,333.883 1126.5,334.5 Z"/></g>
<g><path style="opacity:1" fill="#353535" d="M 2950.5,330.5 C 2950.56,329.957 2950.89,329.624 2951.5,329.5C 2952.82,340.993 2952.82,352.326 2951.5,363.5C 2951.83,352.321 2951.49,341.321 2950.5,330.5 Z"/></g>
<g><path style="opacity:1" fill="#989898" d="M 3429.5,331.5 C 3431.17,331.5 3432.83,331.5 3434.5,331.5C 3434.83,343.012 3434.49,354.346 3433.5,365.5C 3433.5,354.5 3433.5,343.5 3433.5,332.5C 3431.9,332.768 3430.57,332.434 3429.5,331.5 Z"/></g>
<g><path style="opacity:1" fill="#8a8a8a" d="M 1707.5,170.5 C 1707.5,235.167 1707.5,299.833 1707.5,364.5C 1720.83,364.5 1734.17,364.5 1747.5,364.5C 1734.01,365.496 1720.34,365.829 1706.5,365.5C 1706.17,300.331 1706.5,235.331 1707.5,170.5 Z"/></g>
<g><path style="opacity:1" fill="#8a8a8a" d="M 1880.5,237.5 C 1881.5,279.997 1881.83,322.663 1881.5,365.5C 1867.66,365.829 1853.99,365.496 1840.5,364.5C 1853.83,364.5 1867.17,364.5 1880.5,364.5C 1880.5,322.167 1880.5,279.833 1880.5,237.5 Z"/></g>
<g><path style="opacity:1" fill="#888888" d="M 3040.5,170.5 C 3040.5,235.167 3040.5,299.833 3040.5,364.5C 3053.83,364.5 3067.17,364.5 3080.5,364.5C 3067.01,365.496 3053.34,365.829 3039.5,365.5C 3039.17,300.331 3039.5,235.331 3040.5,170.5 Z"/></g>
<g><path style="opacity:1" fill="#fdfdfd" d="M 462.5,425.5 C 476.235,425.28 485.401,431.613 490,444.5C 490.667,502.167 490.667,559.833 490,617.5C 482.986,635.256 470.82,640.089 453.5,632C 449.182,628.685 446.015,624.519 444,619.5C 443.333,560.5 443.333,501.5 444,442.5C 447.858,434.135 454.024,428.469 462.5,425.5 Z"/></g>
<g><path style="opacity:1" fill="#f8f8f8" d="M 307.5,437.5 C 319.093,447.425 330.093,458.091 340.5,469.5C 339.975,470.192 339.308,470.692 338.5,471C 325.822,473.569 313.156,476.069 300.5,478.5C 302.963,464.853 305.296,451.187 307.5,437.5 Z"/></g>
<g><path style="opacity:1" fill="#b3b3b3" d="M 2868.5,446.5 C 2881.83,447.833 2895.17,447.833 2908.5,446.5C 2907.39,447.29 2906.06,447.79 2904.5,448C 2894.17,448.667 2883.83,448.667 2873.5,448C 2871.62,447.802 2869.95,447.302 2868.5,446.5 Z"/></g>
<g><path style="opacity:1" fill="#010101" d="M 1748.5,493.5 C 1761.83,493.5 1775.17,493.5 1788.5,493.5C 1788.33,532.168 1788.5,570.835 1789,609.5C 1789.72,608.956 1790.22,608.289 1790.5,607.5C 1813.35,573.923 1844.68,561.756 1884.5,571C 1900.8,577.3 1911.63,588.8 1917,605.5C 1919.44,614.36 1921.11,623.36 1922,632.5C 1922.5,676.499 1922.67,720.499 1922.5,764.5C 1909.17,764.5 1895.83,764.5 1882.5,764.5C 1882.83,725.996 1882.5,687.663 1881.5,649.5C 1881.96,636.058 1878.13,624.058 1870,613.5C 1857.24,602.754 1843.08,600.587 1827.5,607C 1808.67,615.323 1796,629.157 1789.5,648.5C 1788.5,686.996 1788.17,725.663 1788.5,764.5C 1775.17,764.5 1761.83,764.5 1748.5,764.5C 1748.5,674.167 1748.5,583.833 1748.5,493.5 Z"/></g>
<g><path style="opacity:1" fill="#969696" d="M 1788.5,493.5 C 1789.17,531.5 1789.83,569.5 1790.5,607.5C 1790.22,608.289 1789.72,608.956 1789,609.5C 1788.5,570.835 1788.33,532.168 1788.5,493.5 Z"/></g>
<g><path style="opacity:1" fill="#1d1d1d" d="M 1749.5,495.5 C 1750.5,584.332 1750.83,673.332 1750.5,762.5C 1762.5,762.5 1774.5,762.5 1786.5,762.5C 1786.33,724.499 1786.5,686.499 1787,648.5C 1787.5,686.832 1787.67,725.165 1787.5,763.5C 1774.83,763.5 1762.17,763.5 1749.5,763.5C 1749.5,674.167 1749.5,584.833 1749.5,495.5 Z"/></g>
<g><path style="opacity:1" fill="#070707" d="M 3705.5,493.5 C 3719.17,493.5 3732.83,493.5 3746.5,493.5C 3746.5,508.5 3746.5,523.5 3746.5,538.5C 3732.83,538.5 3719.17,538.5 3705.5,538.5C 3705.5,523.5 3705.5,508.5 3705.5,493.5 Z"/></g>
<g><path style="opacity:1" fill="#020202" d="M 2294.5,763.5 C 2273.34,764.497 2252.01,764.831 2230.5,764.5C 2223.83,757.33 2217,750.33 2210,743.5C 2190.81,757.623 2169.31,765.956 2145.5,768.5C 2136.81,768.673 2128.14,768.34 2119.5,767.5C 2082.24,762.291 2058.41,741.625 2048,705.5C 2043.37,681.338 2049.04,660.005 2065,641.5C 2073.11,632.547 2081.95,624.547 2091.5,617.5C 2084.75,609.589 2078.59,601.256 2073,592.5C 2063.26,574.096 2061.92,555.096 2069,535.5C 2080.53,514.328 2098.37,502.161 2122.5,499C 2143.43,496.099 2163.1,499.766 2181.5,510C 2202.44,524.456 2210.27,544.289 2205,569.5C 2200.86,584.61 2193.03,597.444 2181.5,608C 2174.83,613.333 2168.17,618.667 2161.5,624C 2178.35,641.679 2195.35,659.179 2212.5,676.5C 2217.84,666.484 2221.34,655.817 2223,644.5C 2224.22,636.547 2224.72,628.547 2224.5,620.5C 2237.83,620.5 2251.17,620.5 2264.5,620.5C 2265.1,651.769 2257.43,680.769 2241.5,707.5C 2259.19,726.187 2276.85,744.854 2294.5,763.5 Z"/></g>
<g><path style="opacity:1" fill="#000000" d="M 2410.5,501.5 C 2427.17,501.5 2443.83,501.5 2460.5,501.5C 2460.5,589.167 2460.5,676.833 2460.5,764.5C 2443.83,764.5 2427.17,764.5 2410.5,764.5C 2410.5,676.833 2410.5,589.167 2410.5,501.5 Z"/></g>
<g><path style="opacity:1" fill="#919191" d="M 2409.5,501.5 C 2426.66,500.503 2443.99,500.17 2461.5,500.5C 2461.83,589.002 2461.5,677.335 2460.5,765.5C 2460.5,765.167 2460.5,764.833 2460.5,764.5C 2460.5,676.833 2460.5,589.167 2460.5,501.5C 2443.83,501.5 2427.17,501.5 2410.5,501.5C 2410.17,501.5 2409.83,501.5 2409.5,501.5 Z"/></g>
<g><path style="opacity:1" fill="#010101" d="M 1294.5,545.5 C 1266.17,545.5 1237.83,545.5 1209.5,545.5C 1209.5,618.5 1209.5,691.5 1209.5,764.5C 1192.83,764.5 1176.17,764.5 1159.5,764.5C 1159.5,691.5 1159.5,618.5 1159.5,545.5C 1131.17,545.5 1102.83,545.5 1074.5,545.5C 1074.5,530.833 1074.5,516.167 1074.5,501.5C 1147.83,501.5 1221.17,501.5 1294.5,501.5C 1294.5,516.167 1294.5,530.833 1294.5,545.5 Z"/></g>
<g><path style="opacity:1" fill="#808080" d="M 2409.5,501.5 C 2409.83,501.5 2410.17,501.5 2410.5,501.5C 2410.5,589.167 2410.5,676.833 2410.5,764.5C 2427.17,764.5 2443.83,764.5 2460.5,764.5C 2460.5,764.833 2460.5,765.167 2460.5,765.5C 2443.5,765.5 2426.5,765.5 2409.5,765.5C 2409.5,677.5 2409.5,589.5 2409.5,501.5 Z"/></g>
<g><path style="opacity:1" fill="#1c1c1c" d="M 2411.5,502.5 C 2427.5,502.5 2443.5,502.5 2459.5,502.5C 2459.5,589.5 2459.5,676.5 2459.5,763.5C 2443.5,763.5 2427.5,763.5 2411.5,763.5C 2411.5,676.5 2411.5,589.5 2411.5,502.5 Z"/></g>
<g><path style="opacity:1" fill="#000000" d="M 2412.5,503.5 C 2427.83,503.5 2443.17,503.5 2458.5,503.5C 2458.5,589.833 2458.5,676.167 2458.5,762.5C 2443.17,762.5 2427.83,762.5 2412.5,762.5C 2412.5,676.167 2412.5,589.833 2412.5,503.5 Z"/></g>
<g><path style="opacity:1" fill="#030303" d="M 3621.5,570.5 C 3635.32,571.496 3649.32,571.829 3663.5,571.5C 3663.5,581.5 3663.5,591.5 3663.5,601.5C 3649.32,601.171 3635.32,601.504 3621.5,602.5C 3621.02,641.561 3621.52,680.561 3623,719.5C 3625.23,724.731 3629.06,728.231 3634.5,730C 3640.5,730.667 3646.5,730.667 3652.5,730C 3658.36,728.324 3664.03,726.157 3669.5,723.5C 3672.65,733.782 3675.65,744.116 3678.5,754.5C 3656.11,766.676 3632.45,770.176 3607.5,765C 3594.86,760.531 3586.53,752.031 3582.5,739.5C 3582,735.51 3581.5,731.51 3581,727.5C 3580.5,685.835 3580.33,644.168 3580.5,602.5C 3572.35,601.507 3564.02,601.174 3555.5,601.5C 3555.5,591.5 3555.5,581.5 3555.5,571.5C 3564.02,571.826 3572.35,571.493 3580.5,570.5C 3580.5,549.167 3580.5,527.833 3580.5,506.5C 3594.17,506.5 3607.83,506.5 3621.5,506.5C 3621.5,527.833 3621.5,549.167 3621.5,570.5 Z"/></g>
<g><path style="opacity:1" fill="#fbfbfb" d="M 2128.5,534.5 C 2141.34,532.011 2151.5,536.011 2159,546.5C 2163.12,556.261 2161.79,565.261 2155,573.5C 2148.16,580.841 2140.33,586.841 2131.5,591.5C 2122.67,584.163 2115.51,575.496 2110,565.5C 2107.48,549.869 2113.64,539.536 2128.5,534.5 Z"/></g>
<g><path style="opacity:1" fill="#1f1f1f" d="M 1160.5,546.5 C 1161.5,618.331 1161.83,690.331 1161.5,762.5C 1176.83,762.5 1192.17,762.5 1207.5,762.5C 1207.33,690.499 1207.5,618.499 1208,546.5C 1208.5,618.833 1208.67,691.166 1208.5,763.5C 1192.5,763.5 1176.5,763.5 1160.5,763.5C 1160.5,691.167 1160.5,618.833 1160.5,546.5 Z"/></g>
<g><path style="opacity:1" fill="#989898" d="M 1074.5,545.5 C 1102.83,545.5 1131.17,545.5 1159.5,545.5C 1159.5,618.5 1159.5,691.5 1159.5,764.5C 1176.17,764.5 1192.83,764.5 1209.5,764.5C 1209.5,764.833 1209.5,765.167 1209.5,765.5C 1192.5,765.5 1175.5,765.5 1158.5,765.5C 1158.5,692.5 1158.5,619.5 1158.5,546.5C 1130.33,546.831 1102.33,546.498 1074.5,545.5 Z"/></g>
<g><path style="opacity:1" fill="#acacac" d="M 1294.5,545.5 C 1266.67,546.498 1238.67,546.831 1210.5,546.5C 1210.83,619.669 1210.5,692.669 1209.5,765.5C 1209.5,765.167 1209.5,764.833 1209.5,764.5C 1209.5,691.5 1209.5,618.5 1209.5,545.5C 1237.83,545.5 1266.17,545.5 1294.5,545.5 Z"/></g>
<g><path style="opacity:1" fill="#c3c3c3" d="M 1644.5,568.5 C 1634.5,567.206 1624.5,567.206 1614.5,568.5C 1619.59,567.035 1624.92,566.368 1630.5,566.5C 1635.44,566.3 1640.1,566.967 1644.5,568.5 Z"/></g>
<g><path style="opacity:1" fill="#020202" d="M 3934.5,582.5 C 3933.76,582.369 3933.09,582.536 3932.5,583C 3951.56,594.937 3965.06,611.437 3973,632.5C 3973.28,631.584 3973.78,630.918 3974.5,630.5C 3988.92,674.891 3979.58,713.391 3946.5,746C 3917.66,767.567 3885.66,773.901 3850.5,765C 3805.63,747.988 3782.63,715.321 3781.5,667C 3782.31,628.019 3799.31,598.686 3832.5,579C 3861.27,565.328 3890.6,563.994 3920.5,575C 3925.67,576.751 3930.34,579.251 3934.5,582.5 Z"/></g>
<g><path style="opacity:1" fill="#030303" d="M 3425.5,768.5 C 3418.13,768.683 3410.8,768.35 3403.5,767.5C 3373.36,762.86 3355.53,745.527 3350,715.5C 3348.46,687.706 3360.29,667.873 3385.5,656C 3405.13,648.339 3425.46,645.339 3446.5,647C 3458.34,648.306 3470.01,650.473 3481.5,653.5C 3481.56,654.043 3481.89,654.376 3482.5,654.5C 3483.82,647.344 3483.82,640.344 3482.5,633.5C 3479.32,613.547 3467.65,602.047 3447.5,599C 3429.99,596.503 3413.32,599.17 3397.5,607C 3389.51,610.658 3381.85,614.825 3374.5,619.5C 3368.91,610.977 3364.41,601.977 3361,592.5C 3397.23,567.989 3436.4,561.823 3478.5,574C 3503.71,584.551 3518.54,603.385 3523,630.5C 3523.33,661.833 3523.67,693.167 3524,724.5C 3525.32,729.921 3528.82,732.587 3534.5,732.5C 3534.5,743.5 3534.5,754.5 3534.5,765.5C 3525.52,766.432 3516.52,766.599 3507.5,766C 3500.48,763.649 3495.31,759.149 3492,752.5C 3490.51,746.567 3489.34,740.567 3488.5,734.5C 3472.04,753.9 3451.04,765.234 3425.5,768.5 Z"/></g>
<g><path style="opacity:1" fill="#030303" d="M 1509.5,681.5 C 1457.5,681.5 1405.5,681.5 1353.5,681.5C 1353.19,684.713 1353.52,687.713 1354.5,690.5C 1359.3,712.139 1371.96,727.306 1392.5,736C 1422.86,744.051 1446.86,735.218 1464.5,709.5C 1475.6,712.855 1486.6,716.355 1497.5,720C 1485.63,741.525 1467.97,756.192 1444.5,764C 1434.96,766.367 1425.3,767.867 1415.5,768.5C 1408.47,768.623 1401.47,768.29 1394.5,767.5C 1349.6,759.436 1322.1,733.103 1312,688.5C 1305.03,647.299 1317.53,613.465 1349.5,587C 1375.32,569.415 1403.66,563.748 1434.5,570C 1478,582.177 1503.17,610.677 1510,655.5C 1510.63,664.186 1510.47,672.852 1509.5,681.5 Z"/></g>
<g><path style="opacity:1" fill="#020202" d="M 1644.5,568.5 C 1675.8,572.341 1699.13,587.841 1714.5,615C 1701.74,619.364 1688.91,623.531 1676,627.5C 1657.04,602.3 1632.88,595.8 1603.5,608C 1577.53,625.178 1567.03,649.344 1572,680.5C 1576.14,702.657 1587.98,719.157 1607.5,730C 1628.86,737.806 1648.53,734.806 1666.5,721C 1670.41,716.923 1673.75,712.423 1676.5,707.5C 1689.13,711.432 1701.8,715.266 1714.5,719C 1714.96,719.414 1715.29,719.914 1715.5,720.5C 1695.96,753.53 1666.79,769.53 1628,768.5C 1583.73,766.699 1553.06,745.366 1536,704.5C 1524.14,668.204 1529.14,634.537 1551,603.5C 1567.5,583.333 1588.67,571.667 1614.5,568.5C 1624.5,567.206 1634.5,567.206 1644.5,568.5 Z"/></g>
<g><path style="opacity:1" fill="#010101" d="M 2682.5,613.5 C 2682.86,616.689 2683.53,619.689 2684.5,622.5C 2684.67,627.181 2685,631.848 2685.5,636.5C 2685.5,679.167 2685.5,721.833 2685.5,764.5C 2672.17,764.5 2658.83,764.5 2645.5,764.5C 2645.96,721.47 2645.46,678.47 2644,635.5C 2637.23,606.529 2619.73,597.029 2591.5,607C 2573.58,615.251 2560.75,628.417 2553,646.5C 2552.5,685.832 2552.33,725.165 2552.5,764.5C 2538.66,764.829 2524.99,764.496 2511.5,763.5C 2512.5,699.669 2512.83,635.669 2512.5,571.5C 2524.5,571.5 2536.5,571.5 2548.5,571.5C 2548.33,584.171 2548.5,596.838 2549,609.5C 2567.56,582.214 2593.56,568.214 2627,567.5C 2658.4,567.409 2676.9,582.742 2682.5,613.5 Z"/></g>
<g><path style="opacity:1" fill="#010101" d="M 2901.5,608.5 C 2901.18,609.817 2900.85,611.151 2900.5,612.5C 2901.92,617.736 2902.76,623.069 2903,628.5C 2903.5,673.165 2903.67,717.832 2903.5,762.5C 2891.5,762.333 2879.5,762.5 2867.5,763C 2879.83,763.5 2892.16,763.667 2904.5,763.5C 2904.17,718.664 2904.5,673.997 2905.5,629.5C 2905.5,631.167 2905.5,632.833 2905.5,634.5C 2905.5,677.833 2905.5,721.167 2905.5,764.5C 2892.17,764.5 2878.83,764.5 2865.5,764.5C 2865.96,721.137 2865.46,677.803 2864,634.5C 2858.65,608.901 2843.15,599.068 2817.5,605C 2797.3,611.864 2782.8,625.03 2774,644.5C 2772.52,684.439 2772.02,724.439 2772.5,764.5C 2759.17,764.5 2745.83,764.5 2732.5,764.5C 2732.5,700.167 2732.5,635.833 2732.5,571.5C 2744.5,571.5 2756.5,571.5 2768.5,571.5C 2768.33,584.171 2768.5,596.838 2769,609.5C 2769.72,608.956 2770.22,608.289 2770.5,607.5C 2789.25,581.289 2814.92,567.955 2847.5,567.5C 2876.5,566.854 2894.5,580.52 2901.5,608.5 Z"/></g>
<g><path style="opacity:1" fill="#020202" d="M 3050.5,768.5 C 3041.47,768.68 3032.47,768.347 3023.5,767.5C 2983.31,760.485 2956.81,737.485 2944,698.5C 2932.98,656.236 2943.14,620.069 2974.5,590C 3005.6,567.026 3039.6,561.692 3076.5,574C 3113.2,589.382 3134.04,616.882 3139,656.5C 3142.44,699.447 3126.27,732.614 3090.5,756C 3077.82,762.664 3064.48,766.83 3050.5,768.5 Z"/></g>
<g><path style="opacity:1" fill="#000000" d="M 4189.5,630.5 C 4189.5,675.167 4189.5,719.833 4189.5,764.5C 4176.17,764.5 4162.83,764.5 4149.5,764.5C 4149.5,764.167 4149.5,763.833 4149.5,763.5C 4162.5,763.5 4175.5,763.5 4188.5,763.5C 4188.67,719.165 4188.5,674.832 4188,630.5C 4187.5,674.499 4187.33,718.499 4187.5,762.5C 4175.17,762.5 4162.83,762.5 4150.5,762.5C 4150.83,725.663 4150.5,688.996 4149.5,652.5C 4150.51,638.213 4147.01,625.213 4139,613.5C 4127.12,603.106 4113.62,600.606 4098.5,606C 4078.67,613.833 4064.83,627.667 4057,647.5C 4056.5,686.499 4056.33,725.499 4056.5,764.5C 4043.17,764.5 4029.83,764.5 4016.5,764.5C 4016.5,700.167 4016.5,635.833 4016.5,571.5C 4028.5,571.5 4040.5,571.5 4052.5,571.5C 4052.33,584.171 4052.5,596.838 4053,609.5C 4053.72,608.956 4054.22,608.289 4054.5,607.5C 4071.11,583.518 4094.11,570.351 4123.5,568C 4152.31,563.979 4172.47,575.146 4184,601.5C 4186.8,610.994 4188.63,620.661 4189.5,630.5 Z"/></g>
<g><path style="opacity:1" fill="#5d5d5d" d="M 3301.5,571.5 C 3314.34,570.175 3327.34,570.175 3340.5,571.5C 3340.38,572.107 3340.04,572.44 3339.5,572.5C 3327.01,571.505 3314.34,571.171 3301.5,571.5 Z"/></g>
<g><path style="opacity:1" fill="#8f8f8f" d="M 3621.5,570.5 C 3635.83,570.5 3650.17,570.5 3664.5,570.5C 3664.5,581.167 3664.5,591.833 3664.5,602.5C 3650.17,602.5 3635.83,602.5 3621.5,602.5C 3635.32,601.504 3649.32,601.171 3663.5,601.5C 3663.5,591.5 3663.5,581.5 3663.5,571.5C 3649.32,571.829 3635.32,571.496 3621.5,570.5 Z"/></g>
<g><path style="opacity:1" fill="#999999" d="M 2732.5,570.5 C 2732.5,570.833 2732.5,571.167 2732.5,571.5C 2732.5,635.833 2732.5,700.167 2732.5,764.5C 2745.83,764.5 2759.17,764.5 2772.5,764.5C 2759.01,765.496 2745.34,765.829 2731.5,765.5C 2731.17,700.331 2731.5,635.331 2732.5,570.5 Z"/></g>
<g><path style="opacity:1" fill="#848484" d="M 2732.5,571.5 C 2732.5,571.167 2732.5,570.833 2732.5,570.5C 2744.83,570.5 2757.17,570.5 2769.5,570.5C 2769.17,583.011 2769.5,595.345 2770.5,607.5C 2770.22,608.289 2769.72,608.956 2769,609.5C 2768.5,596.838 2768.33,584.171 2768.5,571.5C 2756.5,571.5 2744.5,571.5 2732.5,571.5 Z"/></g>
<g><path style="opacity:1" fill="#818181" d="M 3580.5,570.5 C 3572.35,571.493 3564.02,571.826 3555.5,571.5C 3555.5,581.5 3555.5,591.5 3555.5,601.5C 3564.02,601.174 3572.35,601.507 3580.5,602.5C 3580.17,602.5 3579.83,602.5 3579.5,602.5C 3571.17,602.5 3562.83,602.5 3554.5,602.5C 3554.5,591.833 3554.5,581.167 3554.5,570.5C 3563.17,570.5 3571.83,570.5 3580.5,570.5 Z"/></g>
<g><path style="opacity:1" fill="#6f6f6f" d="M 3705.5,571.5 C 3718.99,570.504 3732.66,570.171 3746.5,570.5C 3746.5,635.5 3746.5,700.5 3746.5,765.5C 3732.66,765.829 3718.99,765.496 3705.5,764.5C 3718.83,764.5 3732.17,764.5 3745.5,764.5C 3745.5,700.167 3745.5,635.833 3745.5,571.5C 3732.17,571.5 3718.83,571.5 3705.5,571.5 Z"/></g>
<g><path style="opacity:1" fill="#868686" d="M 4052.5,570.5 C 4052.5,570.833 4052.5,571.167 4052.5,571.5C 4040.5,571.5 4028.5,571.5 4016.5,571.5C 4016.5,635.833 4016.5,700.167 4016.5,764.5C 4029.83,764.5 4043.17,764.5 4056.5,764.5C 4043.01,765.496 4029.34,765.829 4015.5,765.5C 4015.5,700.5 4015.5,635.5 4015.5,570.5C 4027.83,570.5 4040.17,570.5 4052.5,570.5 Z"/></g>
<g><path style="opacity:1" fill="#a5a5a5" d="M 4052.5,570.5 C 4053.17,582.833 4053.83,595.167 4054.5,607.5C 4054.22,608.289 4053.72,608.956 4053,609.5C 4052.5,596.838 4052.33,584.171 4052.5,571.5C 4052.5,571.167 4052.5,570.833 4052.5,570.5 Z"/></g>
<g><path style="opacity:1" fill="#414141" d="M 2548.5,571.5 C 2536.5,571.5 2524.5,571.5 2512.5,571.5C 2512.83,635.669 2512.5,699.669 2511.5,763.5C 2511.5,699.167 2511.5,634.833 2511.5,570.5C 2524.01,570.171 2536.34,570.505 2548.5,571.5 Z"/></g>
<g><path style="opacity:1" fill="#1f1f1f" d="M 2733.5,572.5 C 2744.83,572.5 2756.17,572.5 2767.5,572.5C 2767.67,584.505 2767.5,596.505 2767,608.5C 2766.5,596.838 2766.33,585.171 2766.5,573.5C 2755.83,573.5 2745.17,573.5 2734.5,573.5C 2734.5,636.5 2734.5,699.5 2734.5,762.5C 2746.5,762.5 2758.5,762.5 2770.5,762.5C 2770.33,724.165 2770.5,685.832 2771,647.5C 2771.5,686.165 2771.67,724.832 2771.5,763.5C 2758.83,763.5 2746.17,763.5 2733.5,763.5C 2733.5,699.833 2733.5,636.167 2733.5,572.5 Z"/></g>
<g><path style="opacity:1" fill="#030303" d="M 3301.5,571.5 C 3314.34,571.171 3327.01,571.505 3339.5,572.5C 3315.22,636.067 3291.22,699.734 3267.5,763.5C 3252.24,764.483 3236.91,764.817 3221.5,764.5C 3197.77,699.969 3173.43,635.635 3148.5,571.5C 3162.5,570.167 3176.5,570.167 3190.5,571.5C 3208.51,623.357 3227.01,675.023 3246,726.5C 3264.24,674.61 3282.74,622.943 3301.5,571.5 Z"/></g>
<g><path style="opacity:1" fill="#000000" d="M 3705.5,571.5 C 3718.83,571.5 3732.17,571.5 3745.5,571.5C 3745.5,635.833 3745.5,700.167 3745.5,764.5C 3732.17,764.5 3718.83,764.5 3705.5,764.5C 3705.5,700.167 3705.5,635.833 3705.5,571.5 Z"/></g>
<g><path style="opacity:1" fill="#161616" d="M 3706.5,573.5 C 3718.99,572.505 3731.66,572.171 3744.5,572.5C 3744.5,636.167 3744.5,699.833 3744.5,763.5C 3731.83,763.667 3719.16,763.5 3706.5,763C 3718.83,762.5 3731.16,762.333 3743.5,762.5C 3743.5,699.5 3743.5,636.5 3743.5,573.5C 3731.17,573.5 3718.83,573.5 3706.5,573.5 Z"/></g>
<g><path style="opacity:1" fill="#1b1b1b" d="M 4017.5,572.5 C 4028.83,572.5 4040.17,572.5 4051.5,572.5C 4051.67,584.838 4051.5,597.171 4051,609.5C 4050.5,597.505 4050.33,585.505 4050.5,573.5C 4039.83,573.5 4029.17,573.5 4018.5,573.5C 4018.5,636.5 4018.5,699.5 4018.5,762.5C 4030.5,762.5 4042.5,762.5 4054.5,762.5C 4054.33,724.165 4054.5,685.832 4055,647.5C 4055.5,686.165 4055.67,724.832 4055.5,763.5C 4042.83,763.5 4030.17,763.5 4017.5,763.5C 4017.5,699.833 4017.5,636.167 4017.5,572.5 Z"/></g>
<g><path style="opacity:1" fill="#fdfdfd" d="M 1469.5,650.5 C 1469.5,651.5 1469.5,652.5 1469.5,653.5C 1430.5,653.5 1391.5,653.5 1352.5,653.5C 1354.61,628.771 1366.94,611.271 1389.5,601C 1421.95,591.813 1446.78,601.646 1464,630.5C 1467.36,636.757 1469.2,643.423 1469.5,650.5 Z"/></g>
<g><path style="opacity:1" fill="#fdfdfd" d="M 3034.5,601.5 C 3068.57,603.392 3089.4,621.059 3097,654.5C 3101.49,684.154 3091.99,707.987 3068.5,726C 3036.63,741.595 3010.8,734.762 2991,705.5C 2980.8,685.655 2978.8,664.988 2985,643.5C 2993.82,620.161 3010.32,606.161 3034.5,601.5 Z"/></g>
<g><path style="opacity:1" fill="#fdfdfd" d="M 3869.5,602.5 C 3897.38,599.521 3918.21,610.188 3932,634.5C 3943.28,660.398 3941.62,685.398 3927,709.5C 3911.28,731.073 3890.45,738.573 3864.5,732C 3842.44,723.064 3828.94,706.897 3824,683.5C 3818.86,655.25 3827.03,631.75 3848.5,613C 3855.04,608.394 3862.04,604.894 3869.5,602.5 Z"/></g>
<g><path style="opacity:1" fill="#e7e7e7" d="M 3579.5,602.5 C 3579.83,602.5 3580.17,602.5 3580.5,602.5C 3580.33,644.168 3580.5,685.835 3581,727.5C 3581.5,731.51 3582,735.51 3582.5,739.5C 3580.94,736.132 3580.11,732.465 3580,728.5C 3579.5,686.501 3579.33,644.501 3579.5,602.5 Z"/></g>
<g><path style="opacity:1" fill="#1a1a1a" d="M 3934.5,582.5 C 3953.22,593.896 3966.55,609.896 3974.5,630.5C 3973.78,630.918 3973.28,631.584 3973,632.5C 3965.06,611.437 3951.56,594.937 3932.5,583C 3933.09,582.536 3933.76,582.369 3934.5,582.5 Z"/></g>
<g><path style="opacity:1" fill="#949494" d="M 2682.5,613.5 C 2684.27,616.123 2684.93,619.123 2684.5,622.5C 2683.53,619.689 2682.86,616.689 2682.5,613.5 Z"/></g>
<g><path style="opacity:1" fill="#acacac" d="M 3482.5,633.5 C 3483.82,640.344 3483.82,647.344 3482.5,654.5C 3481.89,654.376 3481.56,654.043 3481.5,653.5C 3482.49,647.021 3482.82,640.354 3482.5,633.5 Z"/></g>
<g><path style="opacity:1" fill="#141414" d="M 2901.5,608.5 C 2903.75,615.202 2905.08,622.202 2905.5,629.5C 2904.5,673.997 2904.17,718.664 2904.5,763.5C 2892.16,763.667 2879.83,763.5 2867.5,763C 2879.5,762.5 2891.5,762.333 2903.5,762.5C 2903.67,717.832 2903.5,673.165 2903,628.5C 2902.76,623.069 2901.92,617.736 2900.5,612.5C 2900.85,611.151 2901.18,609.817 2901.5,608.5 Z"/></g>
<g><path style="opacity:1" fill="#838383" d="M 2685.5,636.5 C 2686.5,679.33 2686.83,722.33 2686.5,765.5C 2672.66,765.829 2658.99,765.496 2645.5,764.5C 2658.83,764.5 2672.17,764.5 2685.5,764.5C 2685.5,721.833 2685.5,679.167 2685.5,636.5 Z"/></g>
<g><path style="opacity:1" fill="#5d5d5d" d="M 2905.5,634.5 C 2906.5,677.997 2906.83,721.663 2906.5,765.5C 2892.66,765.829 2878.99,765.496 2865.5,764.5C 2878.83,764.5 2892.17,764.5 2905.5,764.5C 2905.5,721.167 2905.5,677.833 2905.5,634.5 Z"/></g>
<g><path style="opacity:1" fill="#1a1a1a" d="M 2683.5,632.5 C 2684.5,675.997 2684.83,719.663 2684.5,763.5C 2671.83,763.5 2659.17,763.5 2646.5,763.5C 2646.33,723.832 2646.5,684.165 2647,644.5C 2647.5,683.832 2647.67,723.165 2647.5,762.5C 2659.5,762.5 2671.5,762.5 2683.5,762.5C 2683.5,719.167 2683.5,675.833 2683.5,632.5 Z"/></g>
<g><path style="opacity:1" fill="#fcfcfc" d="M 2120.5,650.5 C 2124.3,651.779 2127.47,654.112 2130,657.5C 2147.68,676.35 2165.18,695.35 2182.5,714.5C 2163.41,730.294 2142.07,734.128 2118.5,726C 2098.75,716.009 2091.25,700.175 2096,678.5C 2101.88,667.12 2110.05,657.787 2120.5,650.5 Z"/></g>
<g><path style="opacity:1" fill="#9e9e9e" d="M 1748.5,493.5 C 1748.5,583.833 1748.5,674.167 1748.5,764.5C 1761.83,764.5 1775.17,764.5 1788.5,764.5C 1788.17,725.663 1788.5,686.996 1789.5,648.5C 1789.5,687.5 1789.5,726.5 1789.5,765.5C 1775.5,765.5 1761.5,765.5 1747.5,765.5C 1747.17,674.665 1747.5,583.998 1748.5,493.5 Z"/></g>
<g><path style="opacity:1" fill="#141414" d="M 4149.5,763.5 C 4149.5,726.5 4149.5,689.5 4149.5,652.5C 4150.5,688.996 4150.83,725.663 4150.5,762.5C 4162.83,762.5 4175.17,762.5 4187.5,762.5C 4187.33,718.499 4187.5,674.499 4188,630.5C 4188.5,674.832 4188.67,719.165 4188.5,763.5C 4175.5,763.5 4162.5,763.5 4149.5,763.5 Z"/></g>
<g><path style="opacity:1" fill="#e2e2e2" d="M 1469.5,650.5 C 1470.43,651.568 1470.77,652.901 1470.5,654.5C 1431,654.832 1391.66,654.499 1352.5,653.5C 1391.5,653.5 1430.5,653.5 1469.5,653.5C 1469.5,652.5 1469.5,651.5 1469.5,650.5 Z"/></g>
<g><path style="opacity:1" fill="#707070" d="M 1881.5,649.5 C 1882.5,687.663 1882.83,725.996 1882.5,764.5C 1895.83,764.5 1909.17,764.5 1922.5,764.5C 1909.01,765.496 1895.34,765.829 1881.5,765.5C 1881.5,726.833 1881.5,688.167 1881.5,649.5 Z"/></g>
<g><path style="opacity:1" fill="#161616" d="M 1920.5,644.5 C 1921.5,683.996 1921.83,723.663 1921.5,763.5C 1908.83,763.5 1896.17,763.5 1883.5,763.5C 1883.33,724.832 1883.5,686.165 1884,647.5C 1884.5,685.832 1884.67,724.165 1884.5,762.5C 1896.5,762.5 1908.5,762.5 1920.5,762.5C 1920.5,723.167 1920.5,683.833 1920.5,644.5 Z"/></g>
<g><path style="opacity:1" fill="#fcfcfc" d="M 3424.5,671.5 C 3444.5,669.613 3463.84,672.28 3482.5,679.5C 3488.03,700.763 3481.7,717.263 3463.5,729C 3446.47,739.212 3428.47,741.546 3409.5,736C 3389.52,725.87 3383.69,710.37 3392,689.5C 3400.59,679.455 3411.42,673.455 3424.5,671.5 Z"/></g>
<g><path style="opacity:1" fill="#e6e6e6" d="M 1509.5,681.5 C 1458,682.499 1406.34,682.832 1354.5,682.5C 1354.5,685.167 1354.5,687.833 1354.5,690.5C 1353.52,687.713 1353.19,684.713 1353.5,681.5C 1405.5,681.5 1457.5,681.5 1509.5,681.5 Z"/></g>
<g><path style="opacity:1" fill="#777777" d="M 2294.5,763.5 C 2295.29,763.783 2295.96,764.283 2296.5,765C 2274.33,765.83 2252.33,765.663 2230.5,764.5C 2252.01,764.831 2273.34,764.497 2294.5,763.5 Z"/></g>
<g><path style="opacity:1" fill="#7a7a7a" d="M 3267.5,763.5 C 3260.2,764.831 3252.53,765.498 3244.5,765.5C 3236.66,765.5 3228.99,765.166 3221.5,764.5C 3236.91,764.817 3252.24,764.483 3267.5,763.5 Z"/></g>
<g><path style="opacity:1" fill="#636363" d="M 4189.5,630.5 C 4190.5,675.33 4190.83,720.33 4190.5,765.5C 4176.66,765.829 4162.99,765.496 4149.5,764.5C 4162.83,764.5 4176.17,764.5 4189.5,764.5C 4189.5,719.833 4189.5,675.167 4189.5,630.5 Z"/></g>
<g><path style="opacity:1" fill="#b7b7b7" d="M 1394.5,767.5 C 1401.47,768.29 1408.47,768.623 1415.5,768.5C 1412.85,769.164 1410.02,769.498 1407,769.5C 1402.56,769.674 1398.39,769.007 1394.5,767.5 Z"/></g>
<g><path style="opacity:1" fill="#bcbcbc" d="M 2119.5,767.5 C 2128.14,768.34 2136.81,768.673 2145.5,768.5C 2142.02,769.165 2138.35,769.499 2134.5,769.5C 2129.23,769.713 2124.23,769.046 2119.5,767.5 Z"/></g>
<g><path style="opacity:1" fill="#bcbcbc" d="M 3023.5,767.5 C 3032.47,768.347 3041.47,768.68 3050.5,768.5C 3046.85,769.165 3043.02,769.499 3039,769.5C 3033.57,769.719 3028.4,769.052 3023.5,767.5 Z"/></g>
<g><path style="opacity:1" fill="#bcbcbc" d="M 3403.5,767.5 C 3410.8,768.35 3418.13,768.683 3425.5,768.5C 3419.35,769.653 3413.01,769.82 3406.5,769C 3405.26,768.768 3404.26,768.268 3403.5,767.5 Z"/></g>
<g><path style="opacity:0.975" fill="#fdfdfd" d="M -0.5,840.5 C 8.34039,892.341 38.6737,923.007 90.5,932.5C 60.1667,932.5 29.8333,932.5 -0.5,932.5C -0.5,901.833 -0.5,871.167 -0.5,840.5 Z"/></g>
<g><path style="opacity:0.004" fill="#fefffe" d="M 4418.5,932.5 C 4418.83,932.5 4419.17,932.5 4419.5,932.5C 4419.31,933.17 4418.98,933.17 4418.5,932.5 Z"/></g>
<g><path style="opacity:0.016" fill="#e2e2e2" d="M -0.5,934.5 C -0.5,934.167 -0.5,933.833 -0.5,933.5C 1472.5,933.5 2945.5,933.5 4418.5,933.5C 2945.67,934.5 1472.67,934.833 -0.5,934.5 Z"/></g>
</svg>
