<svg width="272" height="58" viewBox="0 0 272 58" fill="none" xmlns="http://www.w3.org/2000/svg">
<path fill-rule="evenodd" clip-rule="evenodd" d="M72.5955 14.144C72.5955 12.9871 72.8046 11.8435 73.2229 10.7133C73.6411 9.58313 74.2507 8.57308 75.0516 7.68316C75.8526 6.79323 76.8315 6.0724 77.9884 5.52065C79.1453 4.96889 80.4624 4.69302 81.9396 4.69302C83.6839 4.69302 85.1923 5.07568 86.4649 5.84102C87.7375 6.60635 88.6852 7.60306 89.3082 8.83115L86.4782 10.7801C86.229 10.2461 85.9265 9.79672 85.5705 9.43185C85.2145 9.06698 84.8319 8.77776 84.4225 8.56418C84.0131 8.35059 83.586 8.19486 83.141 8.09697C82.6961 7.99908 82.26 7.95013 81.8328 7.95013C80.9073 7.95013 80.1019 8.13701 79.4167 8.51078C78.7315 8.88455 78.1619 9.36955 77.7081 9.9658C77.2542 10.5621 76.9116 11.2384 76.6802 11.9948C76.4488 12.7513 76.3331 13.5032 76.3331 14.2508C76.3331 15.0873 76.4666 15.8927 76.7336 16.6669C77.0006 17.4411 77.3788 18.1219 77.8682 18.7093C78.3577 19.2966 78.945 19.7683 79.6303 20.1242C80.3155 20.4802 81.0675 20.6582 81.8862 20.6582C82.3134 20.6582 82.7584 20.6048 83.2211 20.498C83.6839 20.3912 84.1244 20.2221 84.5426 19.9908C84.9609 19.7594 85.348 19.4613 85.704 19.0964C86.06 18.7315 86.3447 18.291 86.5583 17.7749L89.5751 19.5102C89.2726 20.2221 88.841 20.8495 88.2803 21.3924C87.7197 21.9352 87.0878 22.3935 86.3848 22.7673C85.6817 23.1411 84.9298 23.4258 84.1288 23.6216C83.3279 23.8174 82.5448 23.9153 81.7794 23.9153C80.4268 23.9153 79.1898 23.6305 78.0685 23.061C76.9472 22.4914 75.9816 21.7484 75.1718 20.8317C74.3619 19.9151 73.7301 18.8739 73.2762 17.7081C72.8224 16.5423 72.5955 15.3543 72.5955 14.144ZM97.9904 24.0221C96.8869 24.0221 95.8947 23.8263 95.0137 23.4348C94.1326 23.0432 93.3807 22.5182 92.7577 21.8596C92.1348 21.2011 91.6542 20.4313 91.316 19.5503C90.9779 18.6692 90.8088 17.7482 90.8088 16.7871C90.8088 15.8259 90.9779 14.9049 91.316 14.0239C91.6542 13.1428 92.1392 12.3731 92.7711 11.7145C93.4029 11.056 94.1593 10.5309 95.0404 10.1394C95.9214 9.74779 96.9047 9.55201 97.9904 9.55201C99.0761 9.55201 100.06 9.74779 100.941 10.1394C101.822 10.5309 102.578 11.056 103.21 11.7145C103.842 12.3731 104.327 13.1428 104.665 14.0239C105.003 14.9049 105.172 15.8259 105.172 16.7871C105.172 17.7482 105.003 18.6692 104.665 19.5503C104.327 20.4313 103.842 21.2011 103.21 21.8596C102.578 22.5182 101.822 23.0432 100.941 23.4348C100.06 23.8263 99.0761 24.0221 97.9904 24.0221ZM93.8256 16.8138C93.8256 17.4901 93.9324 18.113 94.146 18.6826C94.3596 19.2521 94.6532 19.746 95.027 20.1643C95.4008 20.5826 95.8413 20.9118 96.3485 21.1521C96.8558 21.3924 97.4031 21.5125 97.9904 21.5125C98.5778 21.5125 99.1251 21.3924 99.6323 21.1521C100.14 20.9118 100.58 20.5781 100.954 20.151C101.328 19.7238 101.621 19.2254 101.835 18.6559C102.048 18.0863 102.155 17.4634 102.155 16.7871C102.155 16.1285 102.048 15.51 101.835 14.9316C101.621 14.3531 101.328 13.8503 100.954 13.4232C100.58 12.996 100.14 12.6623 99.6323 12.422C99.1251 12.1817 98.5778 12.0616 97.9904 12.0616C97.4209 12.0616 96.8825 12.1862 96.3752 12.4353C95.868 12.6845 95.4275 13.0227 95.0537 13.4499C94.6799 13.877 94.3818 14.3798 94.1593 14.9583C93.9369 15.5367 93.8256 16.1552 93.8256 16.8138ZM115.505 12.3285C114.366 12.3641 113.356 12.6267 112.475 13.1161C111.594 13.6056 110.967 14.3042 110.593 15.2119V23.7551H107.656V9.79227H110.379V12.9159C110.86 11.9548 111.487 11.185 112.262 10.6065C113.036 10.0281 113.868 9.71218 114.758 9.65878H115.198C115.314 9.65878 115.416 9.66768 115.505 9.68548V12.3285ZM130.03 23.7551H127.093V15.9327C127.093 14.6156 126.884 13.659 126.466 13.0627C126.048 12.4665 125.429 12.1684 124.611 12.1684C124.183 12.1684 123.756 12.2485 123.329 12.4087C122.902 12.5688 122.501 12.7958 122.128 13.0894C121.754 13.3831 121.42 13.7302 121.127 14.1306C120.833 14.5311 120.606 14.9716 120.446 15.4522V23.7551H117.509V9.79229H120.179V12.5955C120.713 11.6522 121.487 10.9091 122.501 10.3663C123.516 9.82343 124.637 9.55201 125.865 9.55201C126.702 9.55201 127.387 9.70329 127.921 10.0059C128.455 10.3084 128.878 10.7222 129.189 11.2473C129.501 11.7724 129.719 12.3775 129.843 13.0627C129.968 13.748 130.03 14.4733 130.03 15.2386V23.7551ZM139.643 24.0221C138.557 24.0221 137.569 23.8308 136.679 23.4481C135.789 23.0655 135.028 22.5449 134.397 21.8863C133.765 21.2278 133.275 20.4624 132.928 19.5903C132.581 18.7182 132.408 17.7927 132.408 16.8138C132.408 15.8348 132.581 14.9049 132.928 14.0239C133.275 13.1428 133.765 12.3686 134.397 11.7012C135.028 11.0337 135.789 10.5087 136.679 10.126C137.569 9.74334 138.566 9.55201 139.669 9.55201C140.755 9.55201 141.738 9.74779 142.619 10.1394C143.5 10.5309 144.252 11.0515 144.875 11.7012C145.498 12.3508 145.974 13.1072 146.304 13.9705C146.633 14.8337 146.798 15.737 146.798 16.6803C146.798 16.8939 146.789 17.0941 146.771 17.281C146.753 17.4679 146.735 17.6236 146.718 17.7482H135.531C135.585 18.3711 135.731 18.9318 135.972 19.4301C136.212 19.9285 136.523 20.3601 136.906 20.725C137.289 21.0898 137.725 21.3702 138.214 21.5659C138.704 21.7617 139.215 21.8596 139.749 21.8596C140.141 21.8596 140.528 21.8107 140.911 21.7128C141.293 21.6149 141.645 21.4725 141.965 21.2856C142.286 21.0987 142.57 20.8718 142.82 20.6048C143.069 20.3378 143.265 20.0442 143.407 19.7238L145.917 20.4446C145.436 21.4947 144.64 22.3535 143.527 23.021C142.415 23.6884 141.12 24.0221 139.643 24.0221ZM143.888 15.7192C143.834 15.1318 143.687 14.589 143.447 14.0906C143.207 13.5922 142.9 13.1695 142.526 12.8225C142.152 12.4754 141.716 12.204 141.218 12.0082C140.719 11.8124 140.194 11.7145 139.643 11.7145C139.091 11.7145 138.57 11.8124 138.081 12.0082C137.591 12.204 137.16 12.4754 136.786 12.8225C136.412 13.1695 136.11 13.5922 135.878 14.0906C135.647 14.589 135.505 15.1318 135.451 15.7192H143.888ZM149.095 4.26587H152.032V19.7238C152.032 20.24 152.165 20.6449 152.432 20.9385C152.699 21.2322 153.073 21.379 153.553 21.379C153.749 21.379 153.976 21.3435 154.234 21.2723C154.492 21.2011 154.737 21.121 154.968 21.032L155.396 23.328C154.968 23.5238 154.461 23.6795 153.874 23.7952C153.286 23.9109 152.761 23.9687 152.299 23.9687C151.284 23.9687 150.497 23.6928 149.936 23.1411C149.375 22.5893 149.095 21.8062 149.095 20.7917V4.26587ZM156.999 4.26587H159.935V19.7238C159.935 20.24 160.069 20.6449 160.336 20.9385C160.603 21.2322 160.977 21.379 161.457 21.379C161.653 21.379 161.88 21.3435 162.138 21.2723C162.396 21.2011 162.641 21.121 162.872 21.032L163.299 23.328C162.872 23.5238 162.365 23.6795 161.778 23.7952C161.19 23.9109 160.665 23.9687 160.202 23.9687C159.188 23.9687 158.4 23.6928 157.84 23.1411C157.279 22.5893 156.999 21.8062 156.999 20.7917V4.26587ZM170.724 23.7551V4.79982H177.612C179.16 4.79982 180.517 5.049 181.683 5.54736C182.849 6.04571 183.824 6.72205 184.607 7.57638C185.39 8.4307 185.977 9.43186 186.369 10.5799C186.76 11.7279 186.956 12.9515 186.956 14.2508C186.956 15.6925 186.738 16.9962 186.302 18.162C185.866 19.3278 185.239 20.3245 184.42 21.1521C183.601 21.9797 182.618 22.6205 181.47 23.0743C180.322 23.5282 179.036 23.7551 177.612 23.7551H170.724ZM183.245 14.2508C183.245 13.3431 183.12 12.5065 182.871 11.7412C182.622 10.9759 182.257 10.3173 181.777 9.76558C181.296 9.21382 180.704 8.78667 180.001 8.48409C179.298 8.18152 178.502 8.03023 177.612 8.03023H174.408V20.5247H177.612C178.52 20.5247 179.325 20.3645 180.028 20.0442C180.731 19.7238 181.318 19.2833 181.79 18.7226C182.262 18.162 182.622 17.499 182.871 16.7337C183.12 15.9683 183.245 15.1407 183.245 14.2508ZM195.821 24.0221C194.735 24.0221 193.747 23.8308 192.858 23.4481C191.968 23.0655 191.207 22.5449 190.575 21.8863C189.943 21.2278 189.454 20.4624 189.107 19.5903C188.759 18.7182 188.586 17.7927 188.586 16.8138C188.586 15.8348 188.759 14.9049 189.107 14.0239C189.454 13.1428 189.943 12.3686 190.575 11.7012C191.207 11.0337 191.968 10.5087 192.858 10.126C193.747 9.74334 194.744 9.55201 195.848 9.55201C196.933 9.55201 197.917 9.74779 198.798 10.1394C199.679 10.5309 200.431 11.0515 201.054 11.7012C201.677 12.3508 202.153 13.1072 202.482 13.9705C202.811 14.8337 202.976 15.737 202.976 16.6803C202.976 16.8939 202.967 17.0941 202.949 17.281C202.931 17.4679 202.914 17.6236 202.896 17.7482H191.71C191.763 18.3711 191.91 18.9318 192.15 19.4301C192.39 19.9285 192.702 20.3601 193.084 20.725C193.467 21.0898 193.903 21.3702 194.393 21.5659C194.882 21.7617 195.394 21.8596 195.928 21.8596C196.319 21.8596 196.706 21.8107 197.089 21.7128C197.472 21.6149 197.823 21.4725 198.144 21.2856C198.464 21.0987 198.749 20.8718 198.998 20.6048C199.247 20.3378 199.443 20.0442 199.585 19.7238L202.095 20.4446C201.614 21.4947 200.818 22.3535 199.705 23.021C198.593 23.6884 197.298 24.0221 195.821 24.0221ZM200.066 15.7192C200.012 15.1318 199.866 14.589 199.625 14.0906C199.385 13.5922 199.078 13.1695 198.704 12.8225C198.331 12.4754 197.894 12.204 197.396 12.0082C196.898 11.8124 196.373 11.7145 195.821 11.7145C195.269 11.7145 194.749 11.8124 194.259 12.0082C193.77 12.204 193.338 12.4754 192.964 12.8225C192.591 13.1695 192.288 13.5922 192.057 14.0906C191.825 14.589 191.683 15.1318 191.629 15.7192H200.066ZM210.319 24.0221C209.198 24.0221 208.081 23.8397 206.968 23.4748C205.856 23.1099 204.899 22.5893 204.098 21.913L205.273 20.0442C206.11 20.6493 206.937 21.1076 207.756 21.4191C208.575 21.7306 209.411 21.8863 210.266 21.8863C211.138 21.8863 211.827 21.7172 212.335 21.3791C212.842 21.0409 213.096 20.5603 213.096 19.9374C213.096 19.35 212.811 18.9229 212.241 18.6559C211.672 18.3889 210.782 18.0952 209.572 17.7749C208.699 17.5435 207.952 17.321 207.329 17.1074C206.706 16.8939 206.199 16.6447 205.807 16.3599C205.416 16.0751 205.131 15.7459 204.953 15.3721C204.775 14.9983 204.686 14.5445 204.686 14.0105C204.686 13.2986 204.824 12.6667 205.1 12.115C205.376 11.5632 205.758 11.096 206.248 10.7134C206.737 10.3307 207.311 10.0415 207.97 9.84568C208.628 9.6499 209.34 9.55201 210.105 9.55201C211.156 9.55201 212.134 9.71219 213.042 10.0326C213.95 10.3529 214.76 10.8157 215.472 11.4208L214.217 13.1829C212.918 12.1506 211.538 11.6344 210.079 11.6344C209.331 11.6344 208.704 11.7902 208.197 12.1016C207.689 12.4131 207.436 12.907 207.436 13.5833C207.436 13.8681 207.489 14.1084 207.596 14.3042C207.703 14.5 207.876 14.6691 208.116 14.8114C208.357 14.9538 208.668 15.0829 209.051 15.1986C209.434 15.3142 209.91 15.4433 210.479 15.5857C211.423 15.817 212.237 16.0484 212.922 16.2798C213.607 16.5112 214.172 16.7826 214.617 17.0941C215.062 17.4056 215.392 17.7704 215.605 18.1887C215.819 18.607 215.926 19.1098 215.926 19.6971C215.926 21.032 215.423 22.0865 214.417 22.8608C213.412 23.635 212.046 24.0221 210.319 24.0221ZM218.356 23.7551V9.79227H221.293V23.7551H218.356ZM218.356 7.49628V4.26587H221.293V7.49628H218.356ZM230.211 23.8886C229.268 23.8886 228.405 23.6973 227.622 23.3146C226.839 22.932 226.167 22.4114 225.606 21.7528C225.045 21.0943 224.609 20.3379 224.298 19.4835C223.986 18.6292 223.831 17.7304 223.831 16.7871C223.831 15.7903 223.991 14.8515 224.311 13.9705C224.632 13.0894 225.077 12.3241 225.646 11.6745C226.216 11.0248 226.896 10.5087 227.688 10.126C228.48 9.74334 229.357 9.55201 230.318 9.55201C231.439 9.55201 232.423 9.81898 233.268 10.3529C234.114 10.8869 234.812 11.581 235.364 12.4354V9.79229H237.954V23.3547C237.954 24.3692 237.767 25.268 237.393 26.0511C237.019 26.8343 236.499 27.4973 235.831 28.0401C235.164 28.583 234.376 28.9968 233.469 29.2815C232.561 29.5663 231.582 29.7087 230.532 29.7087C228.983 29.7087 227.697 29.4462 226.674 28.9211C225.651 28.3961 224.792 27.6619 224.098 26.7186L225.753 25.1701C226.287 25.9177 226.977 26.4872 227.822 26.8788C228.667 27.2703 229.571 27.4661 230.532 27.4661C231.137 27.4661 231.711 27.386 232.254 27.2258C232.797 27.0656 233.273 26.8165 233.682 26.4783C234.091 26.1401 234.416 25.713 234.657 25.1968C234.897 24.6807 235.017 24.0666 235.017 23.3547V21.2189C234.519 22.0732 233.833 22.7317 232.961 23.1945C232.089 23.6573 231.173 23.8886 230.211 23.8886ZM231.173 21.5125C231.617 21.5125 232.045 21.4369 232.454 21.2856C232.863 21.1343 233.242 20.9296 233.589 20.6716C233.936 20.4135 234.234 20.1198 234.483 19.7905C234.732 19.4613 234.91 19.1097 235.017 18.736V15.0784C234.839 14.6334 234.608 14.2285 234.323 13.8637C234.038 13.4988 233.713 13.1829 233.348 12.9159C232.983 12.6489 232.596 12.4398 232.187 12.2885C231.778 12.1372 231.368 12.0616 230.959 12.0616C230.318 12.0616 229.744 12.1995 229.237 12.4754C228.73 12.7513 228.298 13.1161 227.942 13.57C227.586 14.0239 227.31 14.5356 227.114 15.1051C226.919 15.6747 226.821 16.262 226.821 16.8671C226.821 17.5079 226.932 18.1086 227.155 18.6692C227.377 19.2299 227.684 19.7193 228.076 20.1376C228.467 20.5559 228.925 20.8896 229.451 21.1388C229.976 21.3879 230.55 21.5125 231.173 21.5125ZM253.867 23.7551H250.93V15.9327C250.93 14.6156 250.721 13.659 250.303 13.0627C249.884 12.4665 249.266 12.1684 248.447 12.1684C248.02 12.1684 247.593 12.2485 247.166 12.4087C246.738 12.5688 246.338 12.7958 245.964 13.0894C245.59 13.3831 245.257 13.7302 244.963 14.1306C244.669 14.5311 244.443 14.9716 244.282 15.4522V23.7551H241.346V9.79229H244.015V12.5955C244.549 11.6522 245.324 10.9091 246.338 10.3663C247.353 9.82343 248.474 9.55201 249.702 9.55201C250.538 9.55201 251.224 9.70329 251.758 10.0059C252.292 10.3084 252.714 10.7222 253.026 11.2473C253.337 11.7724 253.555 12.3775 253.68 13.0627C253.804 13.748 253.867 14.4733 253.867 15.2386V23.7551ZM86.3981 52.4623L84.6628 50.6468C83.8796 51.3232 83.0209 51.8393 82.0864 52.1953C81.152 52.5512 80.1776 52.7292 79.1631 52.7292C78.2375 52.7292 77.3921 52.5868 76.6268 52.3021C75.8614 52.0173 75.2029 51.6302 74.6512 51.1407C74.0994 50.6513 73.6722 50.0728 73.3697 49.4054C73.0671 48.7379 72.9158 48.0305 72.9158 47.2829C72.9158 46.6778 73.0093 46.1171 73.1961 45.601C73.383 45.0848 73.6366 44.6043 73.957 44.1593C74.2774 43.7143 74.6512 43.305 75.0783 42.9312C75.5055 42.5574 75.9504 42.2104 76.4132 41.89C76.0038 41.445 75.6612 41.0357 75.3853 40.6619C75.1095 40.2881 74.887 39.9366 74.7179 39.6073C74.5488 39.2781 74.4242 38.9577 74.3441 38.6462C74.264 38.3348 74.224 38.0099 74.224 37.6718C74.224 37.031 74.353 36.4392 74.6111 35.8964C74.8692 35.3535 75.2207 34.8863 75.6657 34.4948C76.1106 34.1032 76.6401 33.8006 77.2542 33.587C77.8682 33.3735 78.5312 33.2667 79.2431 33.2667C79.8839 33.2667 80.4979 33.3557 81.0853 33.5336C81.6726 33.7116 82.1888 33.9697 82.6337 34.3079C83.0787 34.646 83.4302 35.0687 83.6883 35.576C83.9464 36.0833 84.0754 36.6573 84.0754 37.298C84.0754 37.832 83.982 38.3214 83.7951 38.7664C83.6082 39.2113 83.3546 39.634 83.0342 40.0345C82.7138 40.435 82.3356 40.8176 81.8996 41.1825C81.4635 41.5474 80.9963 41.8989 80.4979 42.2371L84.7696 46.7223C85.0721 46.0993 85.308 45.4274 85.477 44.7066C85.6461 43.9858 85.7307 43.216 85.7307 42.3973H88.1335C88.1157 43.6075 87.9644 44.7244 87.6796 45.7478C87.3948 46.7712 86.9944 47.6923 86.4782 48.511L90.2693 52.4623H86.3981ZM79.4834 50.4066C80.142 50.4066 80.7783 50.282 81.3923 50.0328C82.0064 49.7836 82.5714 49.4277 83.0876 48.9649L78.1752 43.7589C77.4455 44.275 76.8582 44.8179 76.4132 45.3874C75.9682 45.957 75.7458 46.5977 75.7458 47.3096C75.7458 47.7724 75.8436 48.1951 76.0394 48.5778C76.2352 48.9604 76.5066 49.2853 76.8537 49.5522C77.2008 49.8192 77.5968 50.0283 78.0417 50.1796C78.4867 50.3309 78.9673 50.4066 79.4834 50.4066ZM76.9205 37.5917C76.9205 37.7697 76.9472 37.9432 77.0006 38.1123C77.054 38.2814 77.1474 38.4727 77.2809 38.6863C77.4144 38.8999 77.6013 39.1401 77.8415 39.4071C78.0818 39.6741 78.3799 40.0034 78.7359 40.3949C79.5546 39.8788 80.1998 39.3849 80.6715 38.9132C81.1431 38.4416 81.379 37.921 81.379 37.3514C81.379 36.7819 81.1787 36.3236 80.7783 35.9765C80.3778 35.6294 79.8661 35.4559 79.2432 35.4559C78.5668 35.4559 78.0106 35.665 77.5746 36.0833C77.1385 36.5015 76.9205 37.0043 76.9205 37.5917ZM112.831 36.7374H106.771V52.4623H103.113V36.7374H97.0531V33.507H112.831V36.7374ZM121.162 52.7292C120.077 52.7292 119.089 52.5379 118.199 52.1553C117.309 51.7726 116.548 51.252 115.916 50.5934C115.284 49.9349 114.795 49.1696 114.448 48.2974C114.101 47.4253 113.927 46.4998 113.927 45.5209C113.927 44.542 114.101 43.612 114.448 42.731C114.795 41.85 115.284 41.0757 115.916 40.4083C116.548 39.7409 117.309 39.2158 118.199 38.8331C119.089 38.4505 120.086 38.2591 121.189 38.2591C122.275 38.2591 123.258 38.4549 124.139 38.8465C125.02 39.2381 125.772 39.7587 126.395 40.4083C127.018 41.0579 127.494 41.8144 127.823 42.6776C128.153 43.5408 128.317 44.4441 128.317 45.3874C128.317 45.601 128.308 45.8012 128.291 45.9881C128.273 46.175 128.255 46.3307 128.237 46.4553H117.051C117.104 47.0783 117.251 47.6389 117.491 48.1373C117.732 48.6356 118.043 49.0672 118.426 49.4321C118.809 49.797 119.245 50.0773 119.734 50.2731C120.223 50.4689 120.735 50.5667 121.269 50.5667C121.661 50.5667 122.048 50.5178 122.43 50.4199C122.813 50.322 123.165 50.1796 123.485 49.9927C123.805 49.8059 124.09 49.5789 124.339 49.312C124.589 49.045 124.784 48.7513 124.927 48.4309L127.436 49.1518C126.956 50.2019 126.159 51.0606 125.047 51.7281C123.934 52.3955 122.64 52.7292 121.162 52.7292ZM125.407 44.4263C125.354 43.8389 125.207 43.2961 124.967 42.7977C124.726 42.2994 124.419 41.8767 124.046 41.5296C123.672 41.1825 123.236 40.9111 122.737 40.7153C122.239 40.5195 121.714 40.4216 121.162 40.4216C120.611 40.4216 120.09 40.5195 119.601 40.7153C119.111 40.9111 118.679 41.1825 118.306 41.5296C117.932 41.8767 117.629 42.2994 117.398 42.7977C117.167 43.2961 117.024 43.8389 116.971 44.4263H125.407ZM129.68 45.4675C129.68 44.4886 129.849 43.5631 130.187 42.6909C130.526 41.8188 131.011 41.0535 131.642 40.3949C132.274 39.7364 133.035 39.2158 133.925 38.8331C134.815 38.4505 135.812 38.2591 136.915 38.2591C138.357 38.2591 139.598 38.5751 140.64 39.2069C141.681 39.8387 142.459 40.6797 142.976 41.7298L140.119 42.6375C139.781 42.0502 139.327 41.5919 138.757 41.2626C138.188 40.9333 137.556 40.7687 136.862 40.7687C136.274 40.7687 135.727 40.8844 135.22 41.1158C134.713 41.3472 134.272 41.672 133.898 42.0902C133.525 42.5085 133.231 43.0024 133.017 43.572C132.804 44.1415 132.697 44.7734 132.697 45.4675C132.697 46.1438 132.808 46.7712 133.031 47.3497C133.253 47.9281 133.556 48.4309 133.938 48.8581C134.321 49.2853 134.766 49.619 135.273 49.8593C135.781 50.0995 136.319 50.2197 136.889 50.2197C137.244 50.2197 137.6 50.1707 137.956 50.0728C138.312 49.9749 138.637 49.837 138.931 49.659C139.225 49.481 139.483 49.2764 139.705 49.045C139.928 48.8136 140.092 48.5644 140.199 48.2974L143.082 49.1518C142.62 50.2019 141.845 51.0606 140.76 51.7281C139.674 52.3955 138.393 52.7292 136.915 52.7292C135.83 52.7292 134.842 52.5335 133.952 52.1419C133.062 51.7503 132.301 51.2208 131.669 50.5534C131.037 49.8859 130.548 49.1162 130.201 48.244C129.854 47.3719 129.68 46.4464 129.68 45.4675ZM157.901 52.4623H154.964V44.6399C154.964 43.3584 154.737 42.4106 154.283 41.7966C153.829 41.1825 153.175 40.8755 152.321 40.8755C151.912 40.8755 151.502 40.9556 151.093 41.1158C150.684 41.276 150.297 41.5029 149.932 41.7966C149.567 42.0902 149.242 42.4373 148.957 42.8378C148.672 43.2382 148.459 43.6787 148.316 44.1593V52.4623H145.38V32.973H148.316V41.3027C148.85 40.3415 149.576 39.594 150.492 39.0601C151.409 38.5261 152.41 38.2591 153.496 38.2591C154.368 38.2591 155.084 38.4149 155.645 38.7263C156.206 39.0378 156.655 39.4516 156.993 39.9678C157.331 40.4839 157.567 41.0846 157.701 41.7699C157.834 42.4551 157.901 43.1804 157.901 43.9457V52.4623ZM167.862 52.4623V33.507H171.546V52.4623H167.862ZM187.673 52.4623H184.736V44.6399C184.736 43.3228 184.527 42.3661 184.108 41.7699C183.69 41.1736 183.072 40.8755 182.253 40.8755C181.826 40.8755 181.399 40.9556 180.972 41.1158C180.544 41.276 180.144 41.5029 179.77 41.7966C179.396 42.0902 179.063 42.4373 178.769 42.8378C178.475 43.2382 178.248 43.6788 178.088 44.1593V52.4623H175.151V38.4994H177.821V41.3027C178.355 40.3593 179.129 39.6163 180.144 39.0734C181.158 38.5306 182.28 38.2591 183.508 38.2591C184.344 38.2591 185.03 38.4104 185.563 38.713C186.097 39.0156 186.52 39.4294 186.832 39.9544C187.143 40.4795 187.361 41.0846 187.486 41.7699C187.61 42.4551 187.673 43.1804 187.673 43.9457V52.4623ZM190.958 52.4623V38.4994H193.894V52.4623H190.958ZM190.958 36.2034V32.973H193.894V36.2034H190.958ZM205.055 51.7414C204.682 51.9194 204.165 52.1196 203.507 52.3421C202.848 52.5646 202.145 52.6758 201.398 52.6758C200.935 52.6758 200.499 52.6136 200.09 52.489C199.68 52.3644 199.32 52.1775 199.008 51.9283C198.697 51.6791 198.452 51.3543 198.274 50.9539C198.096 50.5534 198.007 50.0684 198.007 49.4988V40.7687H196.165V38.4994H198.007V33.9074H200.944V38.4994H203.987V40.7687H200.944V48.5644C200.98 49.0628 201.135 49.4232 201.411 49.6457C201.687 49.8681 202.03 49.9794 202.439 49.9794C202.848 49.9794 203.24 49.9082 203.614 49.7658C203.987 49.6234 204.263 49.5077 204.441 49.4187L205.055 51.7414ZM206.952 52.4623V38.4994H209.889V52.4623H206.952ZM206.952 36.2034V32.973H209.889V36.2034H206.952ZM216.992 52.7292C216.315 52.7292 215.688 52.618 215.11 52.3955C214.531 52.173 214.033 51.866 213.615 51.4745C213.196 51.0829 212.867 50.6201 212.627 50.0862C212.386 49.5522 212.266 48.9738 212.266 48.3508C212.266 47.6923 212.409 47.0961 212.693 46.5621C212.978 46.0281 213.383 45.5654 213.908 45.1738C214.433 44.7823 215.056 44.4797 215.777 44.2661C216.498 44.0525 217.294 43.9457 218.167 43.9457C218.825 43.9457 219.475 44.0036 220.115 44.1193C220.756 44.235 221.335 44.3907 221.851 44.5865V43.6254C221.851 42.593 221.557 41.7877 220.97 41.2092C220.382 40.6308 219.537 40.3416 218.433 40.3416C217.686 40.3416 216.952 40.4795 216.231 40.7554C215.51 41.0312 214.767 41.4273 214.002 41.9434L213.094 40.0746C214.892 38.8643 216.76 38.2591 218.7 38.2591C220.623 38.2591 222.118 38.7486 223.186 39.7275C224.254 40.7064 224.788 42.1125 224.788 43.9457V48.9916C224.788 49.6145 225.046 49.9349 225.562 49.9527V52.4623C225.277 52.5157 225.032 52.5513 224.828 52.5691C224.623 52.5869 224.423 52.5958 224.227 52.5958C223.657 52.5958 223.217 52.4534 222.905 52.1686C222.594 51.8838 222.403 51.519 222.331 51.074L222.251 50.193C221.628 51.0117 220.859 51.6391 219.942 52.0752C219.025 52.5112 218.042 52.7292 216.992 52.7292ZM217.793 50.5667C218.505 50.5667 219.177 50.4377 219.808 50.1796C220.44 49.9215 220.934 49.5611 221.29 49.0984C221.664 48.778 221.851 48.4398 221.851 48.0838V46.2417C221.352 46.0459 220.823 45.8946 220.262 45.7878C219.702 45.6811 219.154 45.6277 218.62 45.6277C217.57 45.6277 216.711 45.8546 216.044 46.3084C215.377 46.7623 215.043 47.363 215.043 48.1105C215.043 48.8047 215.301 49.3876 215.817 49.8592C216.333 50.3309 216.992 50.5667 217.793 50.5667ZM235.868 51.7414C235.495 51.9194 234.978 52.1196 234.32 52.3421C233.661 52.5646 232.958 52.6758 232.211 52.6758C231.748 52.6758 231.312 52.6136 230.903 52.489C230.493 52.3644 230.133 52.1775 229.821 51.9283C229.51 51.6791 229.265 51.3543 229.087 50.9539C228.909 50.5534 228.82 50.0684 228.82 49.4988V40.7687H226.978V38.4994H228.82V33.9074H231.757V38.4994H234.8V40.7687H231.757V48.5644C231.792 49.0628 231.948 49.4232 232.224 49.6457C232.5 49.8681 232.843 49.9794 233.252 49.9794C233.661 49.9794 234.053 49.9082 234.427 49.7658C234.8 49.6234 235.076 49.5077 235.254 49.4187L235.868 51.7414ZM237.765 52.4623V38.4994H240.702V52.4623H237.765ZM237.765 36.2034V32.973H240.702V36.2034H237.765ZM248.018 52.4623L242.679 38.4994H245.696L249.7 49.9794L253.732 38.4994H256.508L251.169 52.4623H248.018ZM264.305 52.7292C263.219 52.7292 262.232 52.5379 261.342 52.1553C260.452 51.7726 259.691 51.252 259.059 50.5934C258.427 49.9349 257.938 49.1696 257.591 48.2974C257.244 47.4253 257.07 46.4998 257.07 45.5209C257.07 44.542 257.244 43.612 257.591 42.731C257.938 41.85 258.427 41.0757 259.059 40.4083C259.691 39.7409 260.452 39.2158 261.342 38.8331C262.232 38.4505 263.228 38.2591 264.332 38.2591C265.418 38.2591 266.401 38.4549 267.282 38.8465C268.163 39.2381 268.915 39.7587 269.538 40.4083C270.161 41.0579 270.637 41.8144 270.966 42.6776C271.296 43.5408 271.46 44.4441 271.46 45.3874C271.46 45.601 271.451 45.8012 271.433 45.9881C271.416 46.175 271.398 46.3307 271.38 46.4553H260.194C260.247 47.0783 260.394 47.6389 260.634 48.1373C260.875 48.6356 261.186 49.0672 261.569 49.4321C261.951 49.797 262.387 50.0773 262.877 50.2731C263.366 50.4689 263.878 50.5667 264.412 50.5667C264.804 50.5667 265.191 50.5178 265.573 50.4199C265.956 50.322 266.308 50.1796 266.628 49.9927C266.948 49.8059 267.233 49.5789 267.482 49.312C267.731 49.045 267.927 48.7513 268.07 48.4309L270.579 49.1518C270.099 50.2019 269.302 51.0606 268.19 51.7281C267.077 52.3955 265.782 52.7292 264.305 52.7292ZM268.55 44.4263C268.497 43.8389 268.35 43.2961 268.11 42.7977C267.869 42.2994 267.562 41.8767 267.188 41.5296C266.815 41.1825 266.379 40.9111 265.88 40.7153C265.382 40.5195 264.857 40.4216 264.305 40.4216C263.753 40.4216 263.233 40.5195 262.743 40.7153C262.254 40.9111 261.822 41.1825 261.449 41.5296C261.075 41.8767 260.772 42.2994 260.541 42.7977C260.309 43.2961 260.167 43.8389 260.114 44.4263H268.55Z" fill="black"/>
<rect width="57.4142" height="57.4142" rx="7.17678" fill="#6F6F6F"/>
<mask id="mask0_5_81" style="mask-type:alpha" maskUnits="userSpaceOnUse" x="0" y="0" width="58" height="58">
<rect width="57.4142" height="57.4142" rx="7.17678" fill="white"/>
</mask>
<g mask="url(#mask0_5_81)">
<rect width="57.4142" height="57.4142" fill="#6F6F6F"/>
<path fill-rule="evenodd" clip-rule="evenodd" d="M46.1987 12.4914L60.6086 26.9014L60.6086 60.7507H28.318L13.0713 45.5041C13.0713 45.5041 8.8036 41.4155 6.99567 34.6947C5.18774 27.9739 7.2748 18.4067 13.0904 12.5317C18.5514 7.01504 26.8873 4.94511 33.3175 5.98007C35.593 6.34633 37.9404 6.97612 40.2198 8.17667C41.1183 8.64989 42.4026 9.28867 43.8685 10.4561C45.3344 11.6236 46.1987 12.4914 46.1987 12.4914Z" fill="#373737"/>
<path fill-rule="evenodd" clip-rule="evenodd" d="M28.7671 17.2243L30.797 19.2542L21.4595 28.5917L19.4296 26.5618L27.3462 18.6452L29.3761 20.6751L29.782 20.2691L27.7522 18.2392L28.7671 17.2243ZM28.7687 26.267C27.976 26.267 27.3333 26.9096 27.3333 27.7024V37.7499C27.3333 38.5426 27.976 39.1852 28.7687 39.1852C29.5614 39.1852 30.2041 38.5426 30.2041 37.7499V27.7024C30.2041 26.9096 29.5614 26.267 28.7687 26.267ZM21.0535 28.9977L18.5161 29.5052L19.0236 26.9678L21.0535 28.9977ZM31.588 20.095L40.3166 28.8236L38.2867 30.8535L29.5581 22.1249L31.588 20.095ZM32.4 23.7488L32.197 23.5458L31.5881 24.1548L31.791 24.3578L32.4 23.7488ZM34.4299 25.7787L34.6329 25.9817L34.0239 26.5907L33.8209 26.3877L34.4299 25.7787ZM36.8658 28.2146L36.6628 28.0116L36.0538 28.6206L36.2568 28.8236L36.8658 28.2146Z" fill="white"/>
<path d="M44.1467 12.9805C35.7386 4.57239 22.1063 4.57239 13.6982 12.9805C5.29005 21.3886 5.29005 35.0209 13.6982 43.429C22.1063 51.8371 35.7386 51.8371 44.1467 43.429" stroke="#FF324A" stroke-width="3.58839"/>
</g>
</svg>
