<svg width="107" height="107" viewBox="0 0 107 107" fill="none" xmlns="http://www.w3.org/2000/svg">
<g opacity="0.5" filter="url(#filter0_d_6613_25212)">
<path d="M19.9605 36.9164L6.17996 85.3015C3.49826 94.7172 12.2511 103.392 21.6425 100.627L71.8196 85.8507C75.8116 84.6751 78.9503 81.5795 80.1808 77.604L83.56 66.6866C84.1439 64.8001 85.1689 63.08 86.5502 61.6687L97.9708 49.9998C102.715 45.1522 102.696 37.3957 97.9281 32.5714L74.4286 8.79546C69.6206 3.9309 61.7855 3.86586 56.8974 8.64994L44.8695 20.422C43.7557 21.5121 42.4467 22.383 41.0109 22.9892L27.0787 28.8717C23.6097 30.3364 20.992 33.2949 19.9605 36.9164Z" fill="white" stroke="white" stroke-width="0.887668"/>
<path d="M71.0879 52.5409L64.9617 70.8232C64.8639 71.1162 64.6965 71.3815 64.4737 71.5965C64.2509 71.8114 63.9792 71.9698 63.6818 72.058L26.1273 83.1617C25.7889 83.2617 25.4295 83.2674 25.0881 83.1783C24.7468 83.0892 24.4365 82.9086 24.1911 82.6562C23.9457 82.4039 23.7746 82.0894 23.6964 81.7471C23.6182 81.4047 23.6359 81.0475 23.7476 80.7145L35.942 44.3291C36.0294 44.0678 36.1723 43.8283 36.3609 43.6269C36.5496 43.4254 36.7796 43.2667 37.0354 43.1614L54.3591 36.0661C54.7113 35.9214 55.0987 35.8837 55.4724 35.9577C55.8461 36.0317 56.1894 36.2141 56.459 36.4819L70.6216 50.5735C70.8756 50.8259 71.0538 51.1437 71.1361 51.4912C71.2185 51.8388 71.2018 52.2023 71.0879 52.5409ZM24.8506 81.9525L45.3162 61.5941L24.8506 81.9525Z" fill="white"/>
<path d="M71.4656 51.4161L80.56 42.3661C81.7657 41.1663 82.4431 39.5393 82.4431 37.8428C82.4431 36.1462 81.7657 34.5192 80.56 33.3194L73.7424 26.5311C73.1451 25.9367 72.436 25.4652 71.6555 25.1435C70.875 24.8218 70.0385 24.6562 69.1936 24.6562C68.3488 24.6562 67.5122 24.8218 66.7317 25.1435C65.9512 25.4652 65.2421 25.9367 64.6448 26.5311L55.5504 35.5811M52.1352 54.807C51.6871 54.3615 51.1552 54.0082 50.5699 53.7671C49.9845 53.5261 49.3572 53.4021 48.7237 53.4023C48.0902 53.4024 47.4629 53.5267 46.8776 53.768C46.2924 54.0093 45.7607 54.3629 45.3128 54.8086C44.865 55.2544 44.5097 55.7835 44.2674 56.3658C44.0251 56.948 43.9005 57.5721 43.9007 58.2023C43.9008 58.8325 44.0257 59.4565 44.2683 60.0387C44.5109 60.6208 44.8664 61.1498 45.3144 61.5953C46.2193 62.4951 47.4465 63.0004 48.726 63.0001C50.0054 62.9998 51.2323 62.4939 52.1368 61.5937C53.0413 60.6935 53.5493 59.4728 53.549 58.2C53.5487 56.9273 53.0401 55.7068 52.1352 54.807Z" fill="white"/>
<path d="M24.8506 81.9525L45.3162 61.5941M71.4656 51.4161L80.56 42.3661C81.7657 41.1663 82.4431 39.5393 82.4431 37.8428C82.4431 36.1462 81.7657 34.5192 80.56 33.3194L73.7424 26.5311C73.1451 25.9367 72.436 25.4652 71.6555 25.1435C70.875 24.8218 70.0385 24.6562 69.1936 24.6562C68.3488 24.6562 67.5122 24.8218 66.7317 25.1435C65.9512 25.4652 65.2421 25.9367 64.6448 26.5311L55.5504 35.5811M71.0879 52.5409L64.9617 70.8232C64.8639 71.1162 64.6965 71.3815 64.4737 71.5965C64.2509 71.8114 63.9792 71.9698 63.6818 72.058L26.1273 83.1617C25.7889 83.2617 25.4295 83.2674 25.0881 83.1783C24.7468 83.0892 24.4365 82.9086 24.1911 82.6562C23.9457 82.4039 23.7746 82.0894 23.6964 81.7471C23.6182 81.4047 23.6359 81.0475 23.7476 80.7145L35.942 44.3291C36.0294 44.0678 36.1723 43.8283 36.3609 43.6269C36.5496 43.4254 36.7796 43.2667 37.0354 43.1614L54.3591 36.0661C54.7113 35.9214 55.0987 35.8837 55.4724 35.9577C55.8461 36.0317 56.1894 36.2141 56.459 36.4819L70.6216 50.5735C70.8756 50.8259 71.0538 51.1437 71.1361 51.4912C71.2185 51.8388 71.2018 52.2023 71.0879 52.5409ZM52.1352 54.807C51.6871 54.3615 51.1552 54.0082 50.5699 53.7671C49.9845 53.5261 49.3572 53.4021 48.7237 53.4023C48.0902 53.4024 47.4629 53.5267 46.8776 53.768C46.2924 54.0093 45.7607 54.3629 45.3128 54.8086C44.865 55.2544 44.5097 55.7835 44.2674 56.3658C44.0251 56.948 43.9005 57.5721 43.9007 58.2023C43.9008 58.8325 44.0257 59.4565 44.2683 60.0387C44.5109 60.6208 44.8664 61.1498 45.3144 61.5953C46.2193 62.4951 47.4465 63.0004 48.726 63.0001C50.0054 62.9998 51.2323 62.4939 52.1368 61.5937C53.0413 60.6935 53.5493 59.4728 53.549 58.2C53.5487 56.9273 53.0401 55.7068 52.1352 54.807Z" stroke="#0080FF" stroke-width="5.32601" stroke-linecap="round" stroke-linejoin="round"/>
</g>
<defs>
<filter id="filter0_d_6613_25212" x="-2.3411" y="0" width="111.206" height="111.682" filterUnits="userSpaceOnUse" color-interpolation-filters="sRGB">
<feFlood flood-opacity="0" result="BackgroundImageFix"/>
<feColorMatrix in="SourceAlpha" type="matrix" values="0 0 0 0 0 0 0 0 0 0 0 0 0 0 0 0 0 0 127 0" result="hardAlpha"/>
<feOffset dy="2.3411"/>
<feGaussianBlur stdDeviation="1.17055"/>
<feComposite in2="hardAlpha" operator="out"/>
<feColorMatrix type="matrix" values="0 0 0 0 0 0 0 0 0 0 0 0 0 0 0 0 0 0 0.25 0"/>
<feBlend mode="normal" in2="BackgroundImageFix" result="effect1_dropShadow_6613_25212"/>
<feBlend mode="normal" in="SourceGraphic" in2="effect1_dropShadow_6613_25212" result="shape"/>
</filter>
</defs>
</svg>
