<svg width="102" height="102" viewBox="0 0 102 102" fill="none" xmlns="http://www.w3.org/2000/svg">
<g filter="url(#filter0_d_6633_35212)">
<mask id="path-1-outside-1_6633_35212" maskUnits="userSpaceOnUse" x="6" y="3" width="90" height="90" fill="black">
<rect fill="white" x="6" y="3" width="90" height="90"/>
<path d="M70.0257 46.5101L63.5656 65.8581C63.4625 66.1683 63.2859 66.449 63.051 66.6765C62.816 66.904 62.5296 67.0716 62.2159 67.1649L22.614 78.9159C22.2572 79.0217 21.8782 79.0278 21.5182 78.9335C21.1582 78.8391 20.831 78.648 20.5723 78.381C20.3135 78.1139 20.133 77.7811 20.0506 77.4188C19.9681 77.0565 19.9868 76.6785 20.1045 76.326L32.9638 37.8196C33.0559 37.5431 33.2066 37.2897 33.4055 37.0765C33.6045 36.8633 33.8471 36.6953 34.1168 36.5839L52.3849 29.0749C52.7563 28.9218 53.1648 28.8819 53.5589 28.9602C53.953 29.0385 54.315 29.2316 54.5994 29.515L69.534 44.4281C69.8018 44.6951 69.9898 45.0314 70.0766 45.3993C70.1635 45.7671 70.1459 46.1518 70.0257 46.5101ZM21.2677 77.6362L42.849 56.091L21.2677 77.6362Z"/>
<path d="M70.424 45.3198L80.0142 35.7423C81.2857 34.4725 82 32.7506 82 30.9552C82 29.1598 81.2857 27.4379 80.0142 26.1681L72.825 18.9841C72.1952 18.3551 71.4474 17.8561 70.6243 17.5157C69.8013 17.1752 68.9191 17 68.0282 17C67.1373 17 66.2551 17.1752 65.4321 17.5157C64.609 17.8561 63.8612 18.3551 63.2314 18.9841L53.6412 28.5617M50.0398 48.9084C49.5673 48.4369 49.0064 48.0629 48.3892 47.8078C47.7719 47.5528 47.1104 47.4216 46.4423 47.4217C45.7742 47.4219 45.1128 47.5534 44.4956 47.8088C43.8785 48.0641 43.3178 48.4384 42.8455 48.9101C42.3732 49.3818 41.9986 49.9417 41.7431 50.558C41.4876 51.1742 41.3562 51.8346 41.3563 52.5016C41.3565 53.1685 41.4882 53.8289 41.744 54.445C41.9998 55.0611 42.3747 55.6209 42.8472 56.0924C43.8014 57.0446 45.0955 57.5793 46.4447 57.579C47.7939 57.5787 49.0877 57.0433 50.0415 56.0907C50.9953 55.138 51.531 53.8461 51.5307 52.4992C51.5303 51.1522 50.9941 49.8606 50.0398 48.9084Z"/>
</mask>
<path d="M70.0257 46.5101L63.5656 65.8581C63.4625 66.1683 63.2859 66.449 63.051 66.6765C62.816 66.904 62.5296 67.0716 62.2159 67.1649L22.614 78.9159C22.2572 79.0217 21.8782 79.0278 21.5182 78.9335C21.1582 78.8391 20.831 78.648 20.5723 78.381C20.3135 78.1139 20.133 77.7811 20.0506 77.4188C19.9681 77.0565 19.9868 76.6785 20.1045 76.326L32.9638 37.8196C33.0559 37.5431 33.2066 37.2897 33.4055 37.0765C33.6045 36.8633 33.8471 36.6953 34.1168 36.5839L52.3849 29.0749C52.7563 28.9218 53.1648 28.8819 53.5589 28.9602C53.953 29.0385 54.315 29.2316 54.5994 29.515L69.534 44.4281C69.8018 44.6951 69.9898 45.0314 70.0766 45.3993C70.1635 45.7671 70.1459 46.1518 70.0257 46.5101ZM21.2677 77.6362L42.849 56.091L21.2677 77.6362Z" fill="white"/>
<path d="M70.424 45.3198L80.0142 35.7423C81.2857 34.4725 82 32.7506 82 30.9552C82 29.1598 81.2857 27.4379 80.0142 26.1681L72.825 18.9841C72.1952 18.3551 71.4474 17.8561 70.6243 17.5157C69.8013 17.1752 68.9191 17 68.0282 17C67.1373 17 66.2551 17.1752 65.4321 17.5157C64.609 17.8561 63.8612 18.3551 63.2314 18.9841L53.6412 28.5617M50.0398 48.9084C49.5673 48.4369 49.0064 48.0629 48.3892 47.8078C47.7719 47.5528 47.1104 47.4216 46.4423 47.4217C45.7742 47.4219 45.1128 47.5534 44.4956 47.8088C43.8785 48.0641 43.3178 48.4384 42.8455 48.9101C42.3732 49.3818 41.9986 49.9417 41.7431 50.558C41.4876 51.1742 41.3562 51.8346 41.3563 52.5016C41.3565 53.1685 41.4882 53.8289 41.744 54.445C41.9998 55.0611 42.3747 55.6209 42.8472 56.0924C43.8014 57.0446 45.0955 57.5793 46.4447 57.579C47.7939 57.5787 49.0877 57.0433 50.0415 56.0907C50.9953 55.138 51.531 53.8461 51.5307 52.4992C51.5303 51.1522 50.9941 49.8606 50.0398 48.9084Z" fill="white"/>
<path d="M70.0257 46.5101L56.7519 42.0597C56.7501 42.0652 56.7482 42.0708 56.7464 42.0763L70.0257 46.5101ZM63.5656 65.8581L50.2862 61.4243C50.2843 61.4302 50.2823 61.4361 50.2803 61.442L63.5656 65.8581ZM62.2159 67.1649L66.1985 80.5865L66.2105 80.583L62.2159 67.1649ZM22.614 78.9159L26.5937 92.3384L26.5965 92.3375L22.614 78.9159ZM20.1045 76.326L33.3831 80.7621L33.3836 80.7606L20.1045 76.326ZM32.9638 37.8196L46.2429 42.2542L46.2453 42.2469L32.9638 37.8196ZM34.1168 36.5839L28.7943 23.6351C28.7875 23.6379 28.7808 23.6407 28.774 23.6435L34.1168 36.5839ZM52.3849 29.0749L57.7074 42.0237C57.7121 42.0218 57.7168 42.0199 57.7215 42.0179L52.3849 29.0749ZM54.5994 29.515L64.4917 19.6084L64.4835 19.6003L54.5994 29.515ZM69.534 44.4281L59.6417 54.3347L59.6496 54.3426L69.534 44.4281ZM11.3765 67.7284C5.90457 73.1912 5.89714 82.0555 11.3599 87.5274C16.8227 92.9993 25.687 93.0068 31.1589 87.544L11.3765 67.7284ZM52.7402 65.9988C58.2121 60.5361 58.2195 51.6718 52.7568 46.1999C47.294 40.7279 38.4297 40.7205 32.9578 46.1833L52.7402 65.9988ZM60.5311 35.4137C55.0601 40.8774 55.0543 49.7417 60.518 55.2127C65.9817 60.6837 74.846 60.6895 80.317 55.2258L60.5311 35.4137ZM80.0142 35.7423L70.1215 25.836L70.1213 25.8362L80.0142 35.7423ZM80.0142 26.1681L70.1184 36.0712L70.1215 36.0744L80.0142 26.1681ZM72.825 18.9841L82.7209 9.08102L82.7182 9.07835L72.825 18.9841ZM63.2314 18.9841L73.1244 28.8902L73.1246 28.8899L63.2314 18.9841ZM43.7483 18.6556C38.2773 24.1193 38.2715 32.9836 43.7352 38.4546C49.1989 43.9256 58.0632 43.9314 63.5342 38.4677L43.7483 18.6556ZM50.0398 48.9084L40.151 58.8185V58.8185L50.0398 48.9084ZM42.8472 56.0924L32.9583 66.0025H32.9583L42.8472 56.0924ZM56.7464 42.0763L50.2862 61.4243L76.8449 70.292L83.3051 50.944L56.7464 42.0763ZM50.2803 61.442C50.8886 59.612 51.9295 57.9577 53.3126 56.6185L72.7894 76.7345C74.6424 74.9404 76.0363 72.7246 76.8508 70.2743L50.2803 61.442ZM53.3126 56.6185C54.6954 55.2796 56.3796 54.2952 58.2213 53.7469L66.2105 80.583C68.6795 79.8479 70.9366 78.5284 72.7894 76.7345L53.3126 56.6185ZM58.2333 53.7433L18.6314 65.4943L26.5965 92.3375L66.1985 80.5865L58.2333 53.7433ZM18.6343 65.4935C20.7288 64.8725 22.9532 64.8369 25.0665 65.3906L17.9699 92.4763C20.8031 93.2187 23.7856 93.171 26.5937 92.3384L18.6343 65.4935ZM25.0665 65.3906C27.18 65.9443 29.1035 67.0669 30.6266 68.6389L10.5179 88.1231C12.5585 90.2292 15.1364 91.7339 17.9699 92.4763L25.0665 65.3906ZM30.6266 68.6389C32.15 70.2111 33.2146 72.1728 33.7014 74.3117L6.39972 80.5259C7.0515 83.3895 8.47694 86.0168 10.5179 88.1231L30.6266 68.6389ZM33.7014 74.3117C34.1883 76.4506 34.078 78.682 33.3831 80.7621L6.82591 71.89C5.8955 74.675 5.74794 77.6623 6.39972 80.5259L33.7014 74.3117ZM33.3836 80.7606L46.2429 42.2542L19.6847 33.3851L6.82542 71.8915L33.3836 80.7606ZM46.2453 42.2469C45.7015 43.8784 44.813 45.3722 43.6417 46.6275L23.1694 27.5255C21.6002 29.2072 20.4104 31.2079 19.6822 33.3923L46.2453 42.2469ZM43.6417 46.6275C42.4704 47.8828 41.0438 48.8702 39.4595 49.5244L28.774 23.6435C26.6503 24.5203 24.7386 25.8438 23.1694 27.5255L43.6417 46.6275ZM39.4393 49.5327L57.7074 42.0237L47.0624 16.1261L28.7943 23.6351L39.4393 49.5327ZM57.7215 42.0179C55.5403 42.9172 53.1427 43.1513 50.8298 42.6916L56.288 15.2288C53.187 14.6125 49.9723 14.9264 47.0484 16.1319L57.7215 42.0179ZM50.8298 42.6916C48.5168 42.2319 46.3887 41.0982 44.7152 39.4298L64.4835 19.6003C62.2413 17.365 59.3892 15.8451 56.288 15.2288L50.8298 42.6916ZM44.707 39.4217L59.6417 54.3347L79.4263 34.5214L64.4917 19.6084L44.707 39.4217ZM59.6496 54.3426C58.0729 52.7707 56.9642 50.7883 56.4515 48.6171L83.7018 42.1814C83.0153 39.2746 81.5308 36.6195 79.4184 34.5135L59.6496 54.3426ZM56.4515 48.6171C55.9387 46.4458 56.0428 44.1746 56.7519 42.0597L83.2995 50.9606C84.2489 48.1289 84.3883 45.0883 83.7018 42.1814L56.4515 48.6171ZM31.1589 87.544L52.7402 65.9988L32.9578 46.1833L11.3765 67.7284L31.1589 87.544ZM80.317 55.2258L89.9072 45.6483L70.1213 25.8362L60.5311 35.4137L80.317 55.2258ZM89.9069 45.6485C93.8056 41.7552 96 36.4704 96 30.9552H68C68 29.0308 68.7658 27.1898 70.1215 25.836L89.9069 45.6485ZM96 30.9552C96 25.4399 93.8056 20.1552 89.9069 16.2618L70.1215 36.0744C68.7658 34.7205 68 32.8796 68 30.9552H96ZM89.9101 16.265L82.7209 9.08102L62.9291 28.8873L70.1184 36.0712L89.9101 16.265ZM82.7182 9.07835C80.7872 7.14981 78.4958 5.62121 75.9755 4.57873L65.2731 30.4526C64.3989 30.091 63.6031 29.5604 62.9318 28.8899L82.7182 9.07835ZM75.9755 4.57873C73.4553 3.53626 70.7548 3 68.0282 3V31C67.0834 31 66.1472 30.8142 65.2731 30.4526L75.9755 4.57873ZM68.0282 3C65.3016 3 62.6011 3.53626 60.0809 4.57873L70.7833 30.4526C69.9092 30.8142 68.973 31 68.0282 31V3ZM60.0809 4.57873C57.5606 5.62121 55.2692 7.14981 53.3382 9.07835L73.1246 28.8899C72.4533 29.5604 71.6575 30.091 70.7833 30.4526L60.0809 4.57873ZM53.3385 9.0781L43.7483 18.6556L63.5342 38.4677L73.1244 28.8902L53.3385 9.0781ZM59.9287 38.9983C58.1548 37.2282 56.0503 35.8255 53.736 34.8691L43.0423 60.7466C41.9625 60.3004 40.9798 59.6456 40.151 58.8185L59.9287 38.9983ZM53.736 34.8691C51.4217 33.9127 48.9422 33.4211 46.439 33.4217L46.4456 61.4217C45.2785 61.422 44.1221 61.1928 43.0423 60.7466L53.736 34.8691ZM46.439 33.4217C43.9357 33.4223 41.4565 33.9151 39.1427 34.8725L49.8486 60.745C48.769 61.1917 47.6128 61.4214 46.4456 61.4217L46.439 33.4217ZM39.1427 34.8725C36.8288 35.83 34.725 37.2337 32.952 39.0046L52.739 58.8155C51.9105 59.643 50.9281 60.2983 49.8486 60.745L39.1427 34.8725ZM32.952 39.0046C31.1789 40.7755 29.7713 42.8791 28.8107 45.1958L54.6755 55.9201C54.2259 57.0044 53.5675 57.988 52.739 58.8155L32.952 39.0046ZM28.8107 45.1958C27.8501 47.5125 27.3557 49.9962 27.3563 52.5049L55.3563 52.4983C55.3566 53.6731 55.1251 54.8359 54.6755 55.9201L28.8107 45.1958ZM27.3563 52.5049C27.3569 55.0136 27.8525 57.4971 28.8142 59.8133L54.6739 49.0767C55.1239 50.1606 55.3561 51.3234 55.3563 52.4983L27.3563 52.5049ZM28.8142 59.8133C29.7758 62.1294 31.1843 64.2323 32.9583 66.0025L52.736 46.1822C53.565 47.0094 54.2239 47.9928 54.6739 49.0767L28.8142 59.8133ZM32.9583 66.0025C36.5405 69.5769 41.3933 71.5802 46.448 71.579L46.4414 43.579C48.7977 43.5785 51.0624 44.5122 52.736 46.1822L32.9583 66.0025ZM46.448 71.579C51.5026 71.5778 56.3545 69.5723 59.935 65.9961L40.148 46.1852C41.8209 44.5143 44.0851 43.5796 46.4414 43.579L46.448 71.579ZM59.935 65.9961C63.5163 62.4191 65.5319 57.5634 65.5307 52.4959L37.5307 52.5025C37.5301 50.1288 38.4743 47.8569 40.148 46.1852L59.935 65.9961ZM65.5307 52.4959C65.5295 47.4283 63.5116 42.5735 59.9287 38.9983L40.151 58.8185C38.4765 57.1476 37.5312 54.8762 37.5307 52.5025L65.5307 52.4959Z" fill="white" mask="url(#path-1-outside-1_6633_35212)"/>
<path d="M70.0257 46.5101L63.5656 65.8581C63.4625 66.1683 63.2859 66.449 63.051 66.6765C62.816 66.904 62.5296 67.0716 62.2159 67.1649L22.614 78.9159C22.2572 79.0217 21.8782 79.0278 21.5182 78.9335C21.1582 78.8391 20.831 78.648 20.5723 78.381C20.3135 78.1139 20.133 77.7811 20.0506 77.4188C19.9681 77.0565 19.9868 76.6785 20.1045 76.326L32.9638 37.8196C33.0559 37.5431 33.2066 37.2897 33.4055 37.0765C33.6045 36.8633 33.8471 36.6953 34.1168 36.5839L52.3849 29.0749C52.7563 28.9218 53.1648 28.8819 53.5589 28.9602C53.953 29.0385 54.315 29.2316 54.5994 29.515L69.534 44.4281C69.8018 44.6951 69.9898 45.0314 70.0766 45.3993C70.1635 45.7671 70.1459 46.1518 70.0257 46.5101ZM21.2677 77.6362L42.849 56.091L21.2677 77.6362Z" fill="white"/>
<path d="M70.424 45.3198L80.0142 35.7423C81.2857 34.4725 82 32.7506 82 30.9552C82 29.1598 81.2857 27.4379 80.0142 26.1681L72.825 18.9841C72.1952 18.3551 71.4474 17.8561 70.6243 17.5157C69.8013 17.1752 68.9191 17 68.0282 17C67.1373 17 66.2551 17.1752 65.4321 17.5157C64.609 17.8561 63.8612 18.3551 63.2314 18.9841L53.6412 28.5617M50.0398 48.9084C49.5673 48.4369 49.0064 48.0629 48.3892 47.8078C47.7719 47.5528 47.1104 47.4216 46.4423 47.4217C45.7742 47.4219 45.1128 47.5534 44.4956 47.8088C43.8785 48.0641 43.3178 48.4384 42.8455 48.9101C42.3732 49.3818 41.9986 49.9417 41.7431 50.558C41.4876 51.1742 41.3562 51.8346 41.3563 52.5016C41.3565 53.1685 41.4882 53.8289 41.744 54.445C41.9998 55.0611 42.3747 55.6209 42.8472 56.0924C43.8014 57.0446 45.0955 57.5793 46.4447 57.579C47.7939 57.5787 49.0877 57.0433 50.0415 56.0907C50.9953 55.138 51.531 53.8461 51.5307 52.4992C51.5303 51.1522 50.9941 49.8606 50.0398 48.9084Z" fill="white"/>
<path d="M21.2677 77.6362L42.849 56.091M70.424 45.3198L80.0142 35.7423C81.2857 34.4725 82 32.7506 82 30.9552C82 29.1598 81.2857 27.4379 80.0142 26.1681L72.825 18.9841C72.1952 18.3551 71.4474 17.8561 70.6243 17.5157C69.8013 17.1752 68.9191 17 68.0282 17C67.1373 17 66.2551 17.1752 65.4321 17.5157C64.609 17.8561 63.8612 18.3551 63.2314 18.9841L53.6412 28.5617M70.0257 46.5101L63.5656 65.8581C63.4625 66.1683 63.286 66.449 63.051 66.6765C62.816 66.904 62.5296 67.0716 62.2159 67.1649L22.614 78.9159C22.2572 79.0217 21.8782 79.0278 21.5182 78.9335C21.1582 78.8391 20.831 78.648 20.5723 78.381C20.3135 78.1139 20.133 77.7811 20.0506 77.4188C19.9681 77.0565 19.9868 76.6785 20.1045 76.326L32.9638 37.8196C33.0559 37.5431 33.2066 37.2897 33.4055 37.0765C33.6045 36.8633 33.8471 36.6953 34.1168 36.5839L52.3849 29.0749C52.7563 28.9218 53.1648 28.8819 53.5589 28.9602C53.953 29.0385 54.315 29.2316 54.5994 29.515L69.534 44.4281C69.8018 44.6951 69.9898 45.0314 70.0766 45.3993C70.1635 45.7671 70.1459 46.1518 70.0257 46.5101ZM50.0398 48.9084C49.5673 48.4369 49.0064 48.0629 48.3892 47.8078C47.7719 47.5528 47.1104 47.4216 46.4423 47.4217C45.7742 47.4219 45.1128 47.5534 44.4956 47.8088C43.8785 48.0641 43.3178 48.4384 42.8455 48.9101C42.3732 49.3818 41.9986 49.9417 41.7431 50.558C41.4876 51.1742 41.3562 51.8346 41.3563 52.5016C41.3565 53.1685 41.4882 53.8289 41.744 54.445C41.9998 55.0611 42.3747 55.6209 42.8472 56.0924C43.8014 57.0446 45.0955 57.5793 46.4447 57.579C47.7939 57.5787 49.0877 57.0433 50.0415 56.0907C50.9953 55.138 51.531 53.8461 51.5307 52.4992C51.5303 51.1522 50.9941 49.8606 50.0398 48.9084Z" stroke="#2C95FF" stroke-width="4" stroke-linecap="round" stroke-linejoin="round"/>
</g>
<defs>
<filter id="filter0_d_6633_35212" x="0" y="0" width="102" height="102" filterUnits="userSpaceOnUse" color-interpolation-filters="sRGB">
<feFlood flood-opacity="0" result="BackgroundImageFix"/>
<feColorMatrix in="SourceAlpha" type="matrix" values="0 0 0 0 0 0 0 0 0 0 0 0 0 0 0 0 0 0 127 0" result="hardAlpha"/>
<feOffset dy="3"/>
<feGaussianBlur stdDeviation="3"/>
<feComposite in2="hardAlpha" operator="out"/>
<feColorMatrix type="matrix" values="0 0 0 0 0 0 0 0 0 0 0 0 0 0 0 0 0 0 0.25 0"/>
<feBlend mode="normal" in2="BackgroundImageFix" result="effect1_dropShadow_6633_35212"/>
<feBlend mode="normal" in="SourceGraphic" in2="effect1_dropShadow_6633_35212" result="shape"/>
</filter>
</defs>
</svg>
