<svg width="108" height="102" viewBox="0 0 108 102" fill="none" xmlns="http://www.w3.org/2000/svg">
<g opacity="0.7" filter="url(#filter0_d_6633_35235)">
<mask id="path-1-outside-1_6633_35235" maskUnits="userSpaceOnUse" x="6" y="3" width="96" height="90" fill="black">
<rect fill="white" x="6" y="3" width="96" height="90"/>
<path fill-rule="evenodd" clip-rule="evenodd" d="M81 19H27C25.8954 19 25 19.8954 25 21V61C25 62.1046 25.8954 63 27 63H81C82.1046 63 83 62.1046 83 61V21C83 19.8954 82.1046 19 81 19ZM27 15C23.6863 15 21 17.6863 21 21V61C21 64.3137 23.6863 67 27 67H81C84.3137 67 87 64.3137 87 61V21C87 17.6863 84.3137 15 81 15H27ZM59.0899 26.094C60.1425 26.4287 60.7246 27.5533 60.3899 28.606L51.906 55.2898C51.5713 56.3424 50.4466 56.9244 49.394 56.5898C48.3414 56.2551 47.7593 55.1304 48.094 54.0778L56.5779 27.394C56.9126 26.3414 58.0372 25.7593 59.0899 26.094ZM35.4005 39.8448C34.1046 41.0351 34.1046 42.9649 35.4005 44.1552L40.4188 48.7647C41.2323 49.5119 42.5512 49.5119 43.3647 48.7647C44.1782 48.0175 44.1782 46.806 43.3647 46.0588L38.9459 42L43.3647 37.9412C44.1782 37.194 44.1782 35.9825 43.3647 35.2353C42.5512 34.4881 41.2323 34.4881 40.4188 35.2353L35.4005 39.8448ZM72.5995 39.8448L67.5812 35.2353C66.7677 34.4881 65.4488 34.4881 64.6353 35.2353C63.8218 35.9825 63.8218 37.194 64.6353 37.9412L69.0541 42L64.6353 46.0588C63.8218 46.806 63.8218 48.0175 64.6353 48.7647C65.4488 49.5119 66.7677 49.5119 67.5812 48.7647L72.5995 44.1552C73.8954 42.9649 73.8954 41.0351 72.5995 39.8448ZM20 77C18.8954 77 18 77.8954 18 79C18 80.1046 18.8954 81 20 81H88C89.1046 81 90 80.1046 90 79C90 77.8954 89.1046 77 88 77H20Z"/>
</mask>
<path fill-rule="evenodd" clip-rule="evenodd" d="M81 19H27C25.8954 19 25 19.8954 25 21V61C25 62.1046 25.8954 63 27 63H81C82.1046 63 83 62.1046 83 61V21C83 19.8954 82.1046 19 81 19ZM27 15C23.6863 15 21 17.6863 21 21V61C21 64.3137 23.6863 67 27 67H81C84.3137 67 87 64.3137 87 61V21C87 17.6863 84.3137 15 81 15H27ZM59.0899 26.094C60.1425 26.4287 60.7246 27.5533 60.3899 28.606L51.906 55.2898C51.5713 56.3424 50.4466 56.9244 49.394 56.5898C48.3414 56.2551 47.7593 55.1304 48.094 54.0778L56.5779 27.394C56.9126 26.3414 58.0372 25.7593 59.0899 26.094ZM35.4005 39.8448C34.1046 41.0351 34.1046 42.9649 35.4005 44.1552L40.4188 48.7647C41.2323 49.5119 42.5512 49.5119 43.3647 48.7647C44.1782 48.0175 44.1782 46.806 43.3647 46.0588L38.9459 42L43.3647 37.9412C44.1782 37.194 44.1782 35.9825 43.3647 35.2353C42.5512 34.4881 41.2323 34.4881 40.4188 35.2353L35.4005 39.8448ZM72.5995 39.8448L67.5812 35.2353C66.7677 34.4881 65.4488 34.4881 64.6353 35.2353C63.8218 35.9825 63.8218 37.194 64.6353 37.9412L69.0541 42L64.6353 46.0588C63.8218 46.806 63.8218 48.0175 64.6353 48.7647C65.4488 49.5119 66.7677 49.5119 67.5812 48.7647L72.5995 44.1552C73.8954 42.9649 73.8954 41.0351 72.5995 39.8448ZM20 77C18.8954 77 18 77.8954 18 79C18 80.1046 18.8954 81 20 81H88C89.1046 81 90 80.1046 90 79C90 77.8954 89.1046 77 88 77H20Z" fill="#35D44A"/>
<path d="M60.3899 28.606L48.954 24.97L48.954 24.97L60.3899 28.606ZM59.0899 26.094L55.4539 37.5299L55.4539 37.5299L59.0899 26.094ZM51.906 55.2898L40.4701 51.6538L40.4701 51.6538L51.906 55.2898ZM49.394 56.5898L45.758 68.0256L45.7581 68.0257L49.394 56.5898ZM48.094 54.0778L36.6581 50.4418L36.6581 50.4418L48.094 54.0778ZM56.5779 27.394L68.0138 31.03L68.0138 31.0299L56.5779 27.394ZM35.4005 44.1552L27.2828 52.9928H27.2828L35.4005 44.1552ZM35.4005 39.8448L27.2828 31.0072H27.2828L35.4005 39.8448ZM40.4188 48.7647L48.5365 39.9271L48.5365 39.9271L40.4188 48.7647ZM43.3647 48.7647L35.247 39.9271L35.247 39.9271L43.3647 48.7647ZM43.3647 46.0588L35.247 54.8965L43.3647 46.0588ZM38.9459 42L30.8282 33.1624L21.2068 42L30.8282 50.8376L38.9459 42ZM43.3647 37.9412L35.247 29.1035V29.1036L43.3647 37.9412ZM43.3647 35.2353L35.247 44.0729L35.247 44.0729L43.3647 35.2353ZM40.4188 35.2353L32.3011 26.3977L32.3011 26.3977L40.4188 35.2353ZM67.5812 35.2353L75.6989 26.3977L75.6989 26.3976L67.5812 35.2353ZM72.5995 39.8448L64.4819 48.6824L72.5995 39.8448ZM64.6353 35.2353L56.5177 26.3977L56.5176 26.3977L64.6353 35.2353ZM64.6353 37.9412L56.5176 46.7788L56.5177 46.7788L64.6353 37.9412ZM69.0541 42L77.1718 50.8376L86.7932 42L77.1718 33.1624L69.0541 42ZM64.6353 46.0588L56.5177 37.2212L56.5176 37.2212L64.6353 46.0588ZM64.6353 48.7647L56.5176 57.6023L56.5177 57.6023L64.6353 48.7647ZM67.5812 48.7647L75.6989 57.6023L75.6989 57.6023L67.5812 48.7647ZM72.5995 44.1552L64.4819 35.3176L72.5995 44.1552ZM27 31H81V7H27V31ZM37 21C37 26.5228 32.5229 31 27 31V7C19.268 7 13 13.268 13 21H37ZM37 61V21H13V61H37ZM27 51C32.5228 51 37 55.4771 37 61H13C13 68.732 19.268 75 27 75V51ZM81 51H27V75H81V51ZM71 61C71 55.4771 75.4771 51 81 51V75C88.732 75 95 68.732 95 61H71ZM71 21V61H95V21H71ZM81 31C75.4772 31 71 26.5229 71 21H95C95 13.268 88.732 7 81 7V31ZM33 21C33 24.3137 30.3137 27 27 27V3C17.0589 3 9 11.0589 9 21H33ZM33 61V21H9V61H33ZM27 55C30.3137 55 33 57.6863 33 61H9C9 70.9411 17.0589 79 27 79V55ZM81 55H27V79H81V55ZM75 61C75 57.6863 77.6863 55 81 55V79C90.9411 79 99 70.9411 99 61H75ZM75 21V61H99V21H75ZM81 27C77.6863 27 75 24.3137 75 21H99C99 11.0589 90.9411 3 81 3V27ZM27 27H81V3H27V27ZM71.8258 32.242C74.1686 24.8734 70.0943 17.0009 62.7258 14.6581L55.4539 37.5299C50.1907 35.8565 47.2806 30.2333 48.954 24.97L71.8258 32.242ZM63.3419 58.9257L71.8258 32.2419L48.954 24.97L40.4701 51.6538L63.3419 58.9257ZM45.7581 68.0257C53.1265 70.3684 60.9991 66.2943 63.3419 58.9257L40.4701 51.6538C42.1435 46.3905 47.7668 43.4805 53.0299 45.1538L45.7581 68.0257ZM36.6581 50.4418C34.3153 57.8103 38.3895 65.6829 45.758 68.0256L53.03 45.1539C58.2932 46.8273 61.2033 52.4505 59.5299 57.7137L36.6581 50.4418ZM45.142 23.7581L36.6581 50.4418L59.5299 57.7137L68.0138 31.03L45.142 23.7581ZM62.7259 14.6581C55.3573 12.3153 47.4848 16.3895 45.142 23.7581L68.0138 31.0299C66.3404 36.2932 60.7171 39.2033 55.4539 37.5299L62.7259 14.6581ZM43.5181 35.3176C47.3987 38.882 47.3987 45.118 43.5181 48.6824L27.2828 31.0072C20.8105 36.9522 20.8105 47.0478 27.2828 52.9928L43.5181 35.3176ZM48.5365 39.9271L43.5181 35.3176L27.2828 52.9928L32.3011 57.6023L48.5365 39.9271ZM35.247 39.9271C39.024 36.4578 44.7595 36.4578 48.5365 39.9271L32.3011 57.6023C37.7051 62.5661 46.0784 62.5661 51.4824 57.6023L35.247 39.9271ZM35.247 54.8965C30.884 50.8889 30.884 43.9347 35.247 39.9271L51.4823 57.6023C57.4723 52.1004 57.4723 42.7232 51.4823 37.2212L35.247 54.8965ZM30.8282 50.8376L35.247 54.8965L51.4823 37.2212L47.0635 33.1624L30.8282 50.8376ZM35.247 29.1036L30.8282 33.1624L47.0635 50.8376L51.4823 46.7788L35.247 29.1036ZM35.247 44.0729C30.884 40.0653 30.884 33.1111 35.247 29.1035L51.4823 46.7788C57.4723 41.2768 57.4723 31.8996 51.4823 26.3977L35.247 44.0729ZM48.5365 44.0729C44.7595 47.5422 39.024 47.5422 35.247 44.0729L51.4824 26.3977C46.0784 21.4339 37.7051 21.4339 32.3011 26.3977L48.5365 44.0729ZM43.5181 48.6824L48.5365 44.0729L32.3011 26.3977L27.2828 31.0072L43.5181 48.6824ZM59.4635 44.0729L64.4819 48.6824L80.7172 31.0072L75.6989 26.3977L59.4635 44.0729ZM72.753 44.0729C68.976 47.5422 63.2405 47.5422 59.4635 44.0729L75.6989 26.3976C70.2949 21.4339 61.9216 21.4339 56.5177 26.3977L72.753 44.0729ZM72.753 29.1036C77.1159 33.1111 77.1159 40.0653 72.753 44.0729L56.5176 26.3977C50.5277 31.8996 50.5277 41.2768 56.5176 46.7788L72.753 29.1036ZM77.1718 33.1624L72.753 29.1035L56.5177 46.7788L60.9365 50.8376L77.1718 33.1624ZM72.753 54.8965L77.1718 50.8376L60.9365 33.1624L56.5177 37.2212L72.753 54.8965ZM72.753 39.9271C77.1159 43.9347 77.1159 50.8889 72.753 54.8964L56.5176 37.2212C50.5277 42.7232 50.5277 52.1004 56.5176 57.6023L72.753 39.9271ZM59.4635 39.9271C63.2405 36.4578 68.976 36.4578 72.753 39.9271L56.5177 57.6023C61.9216 62.5661 70.2949 62.5661 75.6989 57.6023L59.4635 39.9271ZM64.4819 35.3176L59.4635 39.9271L75.6989 57.6023L80.7172 52.9928L64.4819 35.3176ZM64.4819 48.6824C60.6013 45.118 60.6013 38.882 64.4819 35.3176L80.7172 52.9928C87.1895 47.0478 87.1895 36.9522 80.7172 31.0072L64.4819 48.6824ZM30 79C30 84.5228 25.5229 89 20 89V65C12.268 65 6 71.268 6 79H30ZM20 69C25.5229 69 30 73.4772 30 79H6C6 86.732 12.268 93 20 93V69ZM88 69H20V93H88V69ZM78 79C78 73.4771 82.4771 69 88 69V93C95.732 93 102 86.732 102 79H78ZM88 89C82.4771 89 78 84.5229 78 79H102C102 71.268 95.732 65 88 65V89ZM20 89H88V65H20V89Z" fill="white" mask="url(#path-1-outside-1_6633_35235)"/>
</g>
<defs>
<filter id="filter0_d_6633_35235" x="0" y="0" width="108" height="102" filterUnits="userSpaceOnUse" color-interpolation-filters="sRGB">
<feFlood flood-opacity="0" result="BackgroundImageFix"/>
<feColorMatrix in="SourceAlpha" type="matrix" values="0 0 0 0 0 0 0 0 0 0 0 0 0 0 0 0 0 0 127 0" result="hardAlpha"/>
<feOffset dy="3"/>
<feGaussianBlur stdDeviation="3"/>
<feComposite in2="hardAlpha" operator="out"/>
<feColorMatrix type="matrix" values="0 0 0 0 0 0 0 0 0 0 0 0 0 0 0 0 0 0 0.25 0"/>
<feBlend mode="normal" in2="BackgroundImageFix" result="effect1_dropShadow_6633_35235"/>
<feBlend mode="normal" in="SourceGraphic" in2="effect1_dropShadow_6633_35235" result="shape"/>
</filter>
</defs>
</svg>
