<svg width="102" height="103" viewBox="0 0 102 103" fill="none" xmlns="http://www.w3.org/2000/svg">
<g opacity="0.7" filter="url(#filter0_d_6613_41337)">
<mask id="path-1-outside-1_6613_41337" maskUnits="userSpaceOnUse" x="40.2344" y="34.8984" width="56" height="59" fill="black">
<rect fill="white" x="40.2344" y="34.8984" width="56" height="59"/>
<path d="M70.58 50.1204C70.044 49.8984 69.3635 49.8984 68.0025 49.8984C66.6415 49.8984 65.961 49.8984 65.4251 50.1204C65.0705 50.2672 64.7483 50.4824 64.4769 50.7538C64.2055 51.0251 63.9903 51.3473 63.8435 51.7019C63.7092 52.0276 63.6552 52.4087 63.6347 52.9622C63.6256 53.3623 63.515 53.7535 63.3132 54.0991C63.1114 54.4448 62.825 54.7334 62.4811 54.938C62.1319 55.1337 61.7387 55.2375 61.3384 55.2395C60.9381 55.2416 60.5439 55.1418 60.1927 54.9497C59.7021 54.6897 59.3472 54.5466 58.9953 54.4999C58.2276 54.3989 57.4513 54.6069 56.8369 55.0782C56.3784 55.433 56.0367 56.0215 55.3562 57.2C54.6757 58.3785 54.3339 58.967 54.2595 59.5438C54.2093 59.9242 54.2345 60.3107 54.3338 60.6813C54.433 61.0519 54.6042 61.3993 54.8378 61.7036C55.0539 61.984 55.3562 62.2191 55.8249 62.5141C56.5157 62.9478 56.9596 63.6868 56.9596 64.5016C56.9596 65.3165 56.5157 66.0554 55.8249 66.4876C55.3562 66.7841 55.0524 67.0192 54.8378 67.2996C54.6042 67.604 54.433 67.9514 54.3338 68.322C54.2345 68.6925 54.2093 69.079 54.2595 69.4594C54.3354 70.0348 54.6757 70.6247 55.3547 71.8032C56.0367 72.9817 56.3769 73.5702 56.8369 73.925C57.1413 74.1586 57.4887 74.3298 57.8593 74.429C58.2299 74.5283 58.6164 74.5535 58.9967 74.5033C59.3472 74.4566 59.7021 74.3135 60.1927 74.0535C60.5439 73.8614 60.9381 73.7616 61.3384 73.7637C61.7387 73.7657 62.1319 73.8695 62.4811 74.0652C63.1864 74.4741 63.6055 75.2262 63.6347 76.041C63.6552 76.596 63.7077 76.9756 63.8435 77.3013C63.9903 77.6559 64.2055 77.9781 64.4769 78.2494C64.7483 78.5208 65.0705 78.736 65.4251 78.8828C65.961 79.1048 66.6415 79.1048 68.0025 79.1048C69.3635 79.1048 70.044 79.1048 70.58 78.8828C70.9346 78.736 71.2568 78.5208 71.5281 78.2494C71.7995 77.9781 72.0147 77.6559 72.1615 77.3013C72.2958 76.9756 72.3499 76.596 72.3703 76.041C72.3995 75.2262 72.8186 74.4727 73.524 74.0652C73.8731 73.8695 74.2663 73.7657 74.6666 73.7637C75.0669 73.7616 75.4611 73.8614 75.8123 74.0535C76.303 74.3135 76.6578 74.4566 77.0083 74.5033C77.3886 74.5535 77.7751 74.5283 78.1457 74.429C78.5163 74.3298 78.8637 74.1586 79.1681 73.925C79.6281 73.5716 79.9684 72.9817 80.6489 71.8032C81.3294 70.6247 81.6711 70.0362 81.7456 69.4594C81.7957 69.079 81.7705 68.6925 81.6713 68.322C81.5721 67.9514 81.4008 67.604 81.1673 67.2996C80.9511 67.0192 80.6489 66.7841 80.1801 66.4891C79.838 66.2812 79.5544 65.9897 79.3559 65.642C79.1574 65.2943 79.0506 64.9019 79.0454 64.5016C79.0454 63.6868 79.4894 62.9478 80.1801 62.5156C80.6489 62.2191 80.9526 61.984 81.1673 61.7036C81.4008 61.3993 81.5721 61.0519 81.6713 60.6813C81.7705 60.3107 81.7957 59.9242 81.7456 59.5438C81.6696 58.9685 81.3294 58.3785 80.6503 57.2C79.9684 56.0215 79.6281 55.433 79.1681 55.0782C78.8637 54.8447 78.5163 54.6734 78.1457 54.5742C77.7751 54.475 77.3886 54.4497 77.0083 54.4999C76.6578 54.5466 76.303 54.6897 75.8108 54.9497C75.4599 55.1416 75.0659 55.2412 74.6659 55.2391C74.2659 55.2371 73.873 55.1335 73.524 54.938C73.18 54.7334 72.8937 54.4448 72.6919 54.0991C72.4901 53.7535 72.3794 53.3623 72.3703 52.9622C72.3499 52.4073 72.2973 52.0276 72.1615 51.7019C72.0147 51.3473 71.7995 51.0251 71.5281 50.7538C71.2568 50.4824 70.9346 50.2672 70.58 50.1204Z"/>
</mask>
<path d="M70.58 50.1204C70.044 49.8984 69.3635 49.8984 68.0025 49.8984C66.6415 49.8984 65.961 49.8984 65.4251 50.1204C65.0705 50.2672 64.7483 50.4824 64.4769 50.7538C64.2055 51.0251 63.9903 51.3473 63.8435 51.7019C63.7092 52.0276 63.6552 52.4087 63.6347 52.9622C63.6256 53.3623 63.515 53.7535 63.3132 54.0991C63.1114 54.4448 62.825 54.7334 62.4811 54.938C62.1319 55.1337 61.7387 55.2375 61.3384 55.2395C60.9381 55.2416 60.5439 55.1418 60.1927 54.9497C59.7021 54.6897 59.3472 54.5466 58.9953 54.4999C58.2276 54.3989 57.4513 54.6069 56.8369 55.0782C56.3784 55.433 56.0367 56.0215 55.3562 57.2C54.6757 58.3785 54.3339 58.967 54.2595 59.5438C54.2093 59.9242 54.2345 60.3107 54.3338 60.6813C54.433 61.0519 54.6042 61.3993 54.8378 61.7036C55.0539 61.984 55.3562 62.2191 55.8249 62.5141C56.5157 62.9478 56.9596 63.6868 56.9596 64.5016C56.9596 65.3165 56.5157 66.0554 55.8249 66.4876C55.3562 66.7841 55.0524 67.0192 54.8378 67.2996C54.6042 67.604 54.433 67.9514 54.3338 68.322C54.2345 68.6925 54.2093 69.079 54.2595 69.4594C54.3354 70.0348 54.6757 70.6247 55.3547 71.8032C56.0367 72.9817 56.3769 73.5702 56.8369 73.925C57.1413 74.1586 57.4887 74.3298 57.8593 74.429C58.2299 74.5283 58.6164 74.5535 58.9967 74.5033C59.3472 74.4566 59.7021 74.3135 60.1927 74.0535C60.5439 73.8614 60.9381 73.7616 61.3384 73.7637C61.7387 73.7657 62.1319 73.8695 62.4811 74.0652C63.1864 74.4741 63.6055 75.2262 63.6347 76.041C63.6552 76.596 63.7077 76.9756 63.8435 77.3013C63.9903 77.6559 64.2055 77.9781 64.4769 78.2494C64.7483 78.5208 65.0705 78.736 65.4251 78.8828C65.961 79.1048 66.6415 79.1048 68.0025 79.1048C69.3635 79.1048 70.044 79.1048 70.58 78.8828C70.9346 78.736 71.2568 78.5208 71.5281 78.2494C71.7995 77.9781 72.0147 77.6559 72.1615 77.3013C72.2958 76.9756 72.3499 76.596 72.3703 76.041C72.3995 75.2262 72.8186 74.4727 73.524 74.0652C73.8731 73.8695 74.2663 73.7657 74.6666 73.7637C75.0669 73.7616 75.4611 73.8614 75.8123 74.0535C76.303 74.3135 76.6578 74.4566 77.0083 74.5033C77.3886 74.5535 77.7751 74.5283 78.1457 74.429C78.5163 74.3298 78.8637 74.1586 79.1681 73.925C79.6281 73.5716 79.9684 72.9817 80.6489 71.8032C81.3294 70.6247 81.6711 70.0362 81.7456 69.4594C81.7957 69.079 81.7705 68.6925 81.6713 68.322C81.5721 67.9514 81.4008 67.604 81.1673 67.2996C80.9511 67.0192 80.6489 66.7841 80.1801 66.4891C79.838 66.2812 79.5544 65.9897 79.3559 65.642C79.1574 65.2943 79.0506 64.9019 79.0454 64.5016C79.0454 63.6868 79.4894 62.9478 80.1801 62.5156C80.6489 62.2191 80.9526 61.984 81.1673 61.7036C81.4008 61.3993 81.5721 61.0519 81.6713 60.6813C81.7705 60.3107 81.7957 59.9242 81.7456 59.5438C81.6696 58.9685 81.3294 58.3785 80.6503 57.2C79.9684 56.0215 79.6281 55.433 79.1681 55.0782C78.8637 54.8447 78.5163 54.6734 78.1457 54.5742C77.7751 54.475 77.3886 54.4497 77.0083 54.4999C76.6578 54.5466 76.303 54.6897 75.8108 54.9497C75.4599 55.1416 75.0659 55.2412 74.6659 55.2391C74.2659 55.2371 73.873 55.1335 73.524 54.938C73.18 54.7334 72.8937 54.4448 72.6919 54.0991C72.4901 53.7535 72.3794 53.3623 72.3703 52.9622C72.3499 52.4073 72.2973 52.0276 72.1615 51.7019C72.0147 51.3473 71.7995 51.0251 71.5281 50.7538C71.2568 50.4824 70.9346 50.2672 70.58 50.1204Z" fill="white"/>
<path d="M70.58 50.1204L65.2229 63.0549L65.2254 63.056L70.58 50.1204ZM65.4251 50.1204L70.7796 63.056L70.7821 63.0549L65.4251 50.1204ZM63.8435 51.7019L50.908 46.3474L50.9048 46.355L50.9016 46.3627L63.8435 51.7019ZM63.6347 52.9622L49.6442 52.4454L49.6406 52.5446L49.6383 52.6439L63.6347 52.9622ZM62.4811 54.938L69.3271 67.1499L69.4835 67.0623L69.6376 66.9706L62.4811 54.938ZM60.1927 54.9497L66.9138 42.6685L66.8305 42.6229L66.7466 42.5784L60.1927 54.9497ZM58.9953 54.4999L60.838 40.6217L60.8293 40.6205L60.8206 40.6194L58.9953 54.4999ZM56.8369 55.0782L48.3163 43.9697L48.2924 43.988L48.2686 44.0064L56.8369 55.0782ZM54.2595 59.5438L68.1392 61.3752L68.1417 61.3559L68.1442 61.3365L54.2595 59.5438ZM54.8378 61.7036L43.7301 70.2253L43.7398 70.238L43.7496 70.2508L54.8378 61.7036ZM55.8249 62.5141L48.3685 74.3632L48.3802 74.3706L55.8249 62.5141ZM55.8249 66.4876L48.3982 54.6199L48.3701 54.6375L48.3421 54.6552L55.8249 66.4876ZM54.8378 67.2996L65.9455 75.8213L65.9538 75.8103L54.8378 67.2996ZM54.2595 69.4594L40.3798 71.2907L40.3798 71.2912L54.2595 69.4594ZM55.3547 71.8032L43.2244 78.7928L43.2309 78.8041L43.2374 78.8153L55.3547 71.8032ZM56.8369 73.925L48.2857 85.01L48.3005 85.0214L48.3153 85.0327L56.8369 73.925ZM58.9967 74.5033L60.8281 88.383L60.8376 88.3818L60.847 88.3805L58.9967 74.5033ZM60.1927 74.0535L66.7466 86.4248L66.8305 86.3803L66.9138 86.3347L60.1927 74.0535ZM62.4811 74.0652L69.5025 61.9533L69.4152 61.9027L69.3271 61.8533L62.4811 74.0652ZM63.6347 76.041L49.6437 76.5425L49.6442 76.5565L63.6347 76.041ZM63.8435 77.3013L76.7791 71.9467L76.772 71.9296L76.7649 71.9126L63.8435 77.3013ZM65.4251 78.8828L70.7821 65.9483L70.7796 65.9473L65.4251 78.8828ZM70.58 78.8828L65.2254 65.9473L65.2229 65.9483L70.58 78.8828ZM72.1615 77.3013L85.0971 82.6559L85.1002 82.6482L85.1034 82.6405L72.1615 77.3013ZM72.3703 76.041L86.3608 76.5565L86.3613 76.5425L72.3703 76.041ZM73.524 74.0652L66.6779 61.8533L66.5993 61.8973L66.5213 61.9424L73.524 74.0652ZM75.8123 74.0535L69.0913 86.3347L69.1746 86.3803L69.2585 86.4248L75.8123 74.0535ZM77.0083 74.5033L75.158 88.3805L75.1675 88.3818L75.177 88.383L77.0083 74.5033ZM79.1681 73.925L87.6898 85.0327L87.6972 85.027L79.1681 73.925ZM81.7456 69.4594L67.8659 67.6281L67.8633 67.6474L67.8608 67.6667L81.7456 69.4594ZM81.1673 67.2996L92.275 58.7779L92.2652 58.7652L92.2554 58.7525L81.1673 67.2996ZM80.1801 66.4891L87.6366 54.64L87.5446 54.5821L87.4517 54.5256L80.1801 66.4891ZM79.0454 64.5016H65.0454V64.5916L65.0466 64.6815L79.0454 64.5016ZM80.1801 62.5156L87.6069 74.3833L87.6349 74.3658L87.6629 74.348L80.1801 62.5156ZM81.1673 61.7036L70.0596 53.182L70.0512 53.1929L81.1673 61.7036ZM81.7456 59.5438L95.6253 57.7125L95.6252 57.712L81.7456 59.5438ZM80.6503 57.2L92.7807 50.2104L92.7742 50.1991L92.7677 50.1879L80.6503 57.2ZM79.1681 55.0782L87.7193 43.9932L87.7046 43.9818L87.6898 43.9705L79.1681 55.0782ZM77.0083 54.4999L75.177 40.6202L75.1675 40.6214L75.158 40.6227L77.0083 54.4999ZM75.8108 54.9497L69.2722 42.5704L69.1829 42.6176L69.0942 42.6661L75.8108 54.9497ZM73.524 54.938L66.3674 66.9706L66.5236 67.0635L66.6822 67.1523L73.524 54.938ZM72.3703 52.9622L86.3667 52.6439L86.3645 52.5453L86.3608 52.4467L72.3703 52.9622ZM72.1615 51.7019L59.2259 57.0565L59.233 57.0736L59.2401 57.0907L72.1615 51.7019ZM75.9371 37.1859C73.6771 36.2499 71.67 36.0347 70.5523 35.9586C69.5588 35.8909 68.4917 35.8984 68.0025 35.8984V63.8984C68.3695 63.8984 68.5672 63.8987 68.7198 63.9007C68.8723 63.9027 68.8132 63.905 68.649 63.8938C68.3457 63.8731 66.9469 63.769 65.2229 63.0549L75.9371 37.1859ZM68.0025 35.8984C67.5134 35.8984 66.4462 35.8909 65.4528 35.9586C64.335 36.0347 62.328 36.2499 60.068 37.1859L70.7821 63.0549C69.0581 63.769 67.6593 63.8731 67.356 63.8938C67.1918 63.905 67.1327 63.9027 67.2852 63.9007C67.4378 63.8987 67.6356 63.8984 68.0025 63.8984V35.8984ZM60.0705 37.1848C58.0162 38.0352 56.1496 39.2821 54.5774 40.8543L74.3764 60.6533C73.347 61.6827 72.1248 62.4992 70.7796 63.056L60.0705 37.1848ZM54.5774 40.8543C53.0052 42.4265 51.7583 44.2931 50.908 46.3474L76.7791 57.0565C76.2223 58.4016 75.4058 59.6238 74.3764 60.6533L54.5774 40.8543ZM50.9016 46.3627C49.7969 49.0404 49.6812 51.4444 49.6442 52.4454L77.6252 53.479C77.6247 53.4919 77.6127 53.883 77.5203 54.4604C77.419 55.0928 77.2143 56.0015 76.7854 57.0412L50.9016 46.3627ZM49.6383 52.6439C49.6832 50.6718 50.2285 48.7434 51.2232 47.0399L75.4031 61.1583C76.8014 58.7636 77.568 56.0528 77.6311 53.2805L49.6383 52.6439ZM51.2232 47.0399C52.2178 45.3365 53.6291 43.9137 55.3245 42.9054L69.6376 66.9706C72.021 65.5531 74.0049 63.553 75.4031 61.1583L51.2232 47.0399ZM55.635 42.7261C57.356 41.7613 59.294 41.2498 61.2669 41.2397L61.4099 69.2394C64.1834 69.2252 66.9078 68.5062 69.3271 67.1499L55.635 42.7261ZM61.2669 41.2397C63.2399 41.2297 65.183 41.7213 66.9138 42.6685L53.4717 67.2309C55.9048 68.5624 58.6364 69.2535 61.4099 69.2394L61.2669 41.2397ZM66.7466 42.5784C65.8553 42.1063 63.7156 41.0038 60.838 40.6217L57.1525 68.3781C56.0462 68.2312 55.1567 67.9563 54.5468 67.7234C53.9943 67.5124 53.6458 67.3246 53.6389 67.3209L66.7466 42.5784ZM60.8206 40.6194C56.3732 40.0345 51.8755 41.2396 48.3163 43.9697L65.3576 66.1867C63.027 67.9743 60.082 68.7633 57.1699 68.3804L60.8206 40.6194ZM48.2686 44.0064C46.3607 45.4829 45.1853 47.0914 44.562 48.0183C44.0066 48.8443 43.4823 49.7662 43.2323 50.1991L67.48 64.2009C67.6615 63.8866 67.7607 63.7155 67.8377 63.5863C67.9148 63.4569 67.888 63.5077 67.7976 63.6422C67.6299 63.8916 66.8546 65.0283 65.4052 66.15L48.2686 44.0064ZM43.2323 50.1991C42.993 50.6136 42.4496 51.5385 42.0114 52.4319C41.5163 53.441 40.6909 55.3025 40.3747 57.7511L68.1442 61.3365C67.9025 63.2083 67.2852 64.4871 67.1497 64.7632C67.0766 64.9123 67.0445 64.9633 67.1199 64.8287C67.1958 64.6933 67.2945 64.5222 67.48 64.2009L43.2323 50.1991ZM40.3798 57.7125C40.089 59.916 40.2353 62.1552 40.8101 64.3022L67.8574 57.0603C68.2338 58.4661 68.3295 59.9323 68.1392 61.3752L40.3798 57.7125ZM40.8101 64.3022C41.385 66.4492 42.3772 68.4619 43.7301 70.2253L65.9455 53.182C66.8313 54.3366 67.481 55.6545 67.8574 57.0603L40.8101 64.3022ZM43.7496 70.2508C45.5227 72.551 47.5552 73.8514 48.3685 74.3632L63.2814 50.665C63.2941 50.673 63.3743 50.7236 63.497 50.8089C63.6205 50.8948 63.8158 51.0358 64.0542 51.2291C64.5512 51.6321 65.238 52.2641 65.9259 53.1565L43.7496 70.2508ZM48.3802 74.3706C45.3555 72.4713 42.9596 68.9178 42.9596 64.5016H70.9596C70.9596 58.4557 67.6759 53.4243 63.2697 50.6577L48.3802 74.3706ZM42.9596 64.5016C42.9596 60.0885 45.3538 56.525 48.3982 54.6199L63.2517 78.3554C67.6775 75.5857 70.9596 70.5444 70.9596 64.5016H42.9596ZM48.3421 54.6552C47.5803 55.1369 45.5104 56.4525 43.7217 58.7888L65.9538 75.8103C65.2492 76.7307 64.547 77.3737 64.0551 77.7727C63.818 77.965 63.6252 78.1042 63.5067 78.1867C63.389 78.2688 63.314 78.3161 63.3078 78.3201L48.3421 54.6552ZM43.7301 58.7779C42.3772 60.5413 41.385 62.554 40.8101 64.701L67.8574 71.9429C67.481 73.3487 66.8313 74.6666 65.9455 75.8213L43.7301 58.7779ZM40.8101 64.701C40.2353 66.848 40.089 69.0872 40.3798 71.2907L68.1392 67.6281C68.3295 69.0709 68.2338 70.5371 67.8574 71.9429L40.8101 64.701ZM40.3798 71.2912C40.6993 73.712 41.5146 75.5547 42.0056 76.5582C42.4422 77.4505 42.9808 78.3701 43.2244 78.7928L67.4851 64.8136C67.3017 64.4954 67.2031 64.3237 67.1282 64.1898C67.0535 64.0562 67.0845 64.1054 67.1563 64.252C67.2884 64.5221 67.8956 65.7821 68.1391 67.6276L40.3798 71.2912ZM43.2374 78.8153C43.4825 79.2389 44.0085 80.1629 44.5613 80.9849C45.1842 81.9114 46.365 83.5283 48.2857 85.01L65.3882 62.8401C66.8489 63.9669 67.6295 65.1121 67.7968 65.361C67.887 65.4951 67.9134 65.5454 67.8347 65.4133C67.7558 65.281 67.6561 65.1092 67.472 64.7911L43.2374 78.8153ZM48.3153 85.0327C50.0786 86.3856 52.0913 87.3778 54.2384 87.9527L61.4802 60.9054C62.8861 61.2818 64.204 61.9315 65.3586 62.8173L48.3153 85.0327ZM54.2384 87.9527C56.3853 88.5275 58.6245 88.6738 60.8281 88.383L57.1654 60.6236C58.6082 60.4332 60.0744 60.529 61.4802 60.9054L54.2384 87.9527ZM60.847 88.3805C63.7207 87.9974 65.8587 86.8951 66.7466 86.4248L53.6389 61.6823C53.646 61.6786 53.9927 61.4917 54.5428 61.2814C55.1492 61.0496 56.0382 60.7739 57.1464 60.6261L60.847 88.3805ZM66.9138 86.3347C65.183 87.2819 63.2399 87.7736 61.2669 87.7635L61.4099 59.7639C58.6363 59.7497 55.9047 60.4408 53.4717 61.7724L66.9138 86.3347ZM61.2669 87.7635C59.294 87.7534 57.356 87.2419 55.635 86.2772L69.3271 61.8533C66.9078 60.497 64.1834 59.778 61.4099 59.7639L61.2669 87.7635ZM55.4596 86.1772C51.68 83.9861 49.7732 80.157 49.6437 76.5425L77.6257 75.5396C77.4378 70.2954 74.6928 64.9621 69.5025 61.9533L55.4596 86.1772ZM49.6442 76.5565C49.6795 77.5143 49.7861 79.9659 50.9222 82.69L76.7649 71.9126C77.2094 72.9784 77.4188 73.9103 77.5213 74.5534C77.5706 74.8624 77.5954 75.1068 77.6082 75.2598C77.6209 75.4119 77.6246 75.5091 77.6252 75.5256L49.6442 76.5565ZM50.908 82.6559C51.7583 84.7102 53.0052 86.5768 54.5774 88.1489L74.3764 68.3499C75.4058 69.3794 76.2223 70.6016 76.7791 71.9467L50.908 82.6559ZM54.5774 88.1489C56.1496 89.7211 58.0162 90.968 60.0705 91.8184L70.7796 65.9473C72.1248 66.5041 73.347 67.3205 74.3764 68.3499L54.5774 88.1489ZM60.068 91.8173C62.3279 92.7533 64.335 92.9685 65.4527 93.0447C66.4462 93.1123 67.5134 93.1048 68.0025 93.1048V65.1048C67.6356 65.1048 67.4378 65.1045 67.2852 65.1025C67.1327 65.1005 67.1918 65.0982 67.356 65.1094C67.6593 65.1301 69.0581 65.2343 70.7821 65.9483L60.068 91.8173ZM68.0025 93.1048C68.4917 93.1048 69.5588 93.1123 70.5523 93.0447C71.6701 92.9685 73.6771 92.7533 75.9371 91.8173L65.2229 65.9483C66.9469 65.2343 68.3457 65.1301 68.649 65.1094C68.8132 65.0982 68.8723 65.1005 68.7198 65.1025C68.5672 65.1045 68.3695 65.1048 68.0025 65.1048V93.1048ZM75.9345 91.8184C77.9889 90.968 79.8555 89.7211 81.4276 88.1489L61.6286 68.3499C62.6581 67.3205 63.8803 66.5041 65.2254 65.9473L75.9345 91.8184ZM81.4276 88.1489C82.9998 86.5768 84.2467 84.7102 85.0971 82.6559L59.2259 71.9467C59.7827 70.6016 60.5992 69.3794 61.6286 68.3499L81.4276 88.1489ZM85.1034 82.6405C86.2073 79.9646 86.3237 77.5641 86.3608 76.5565L58.3798 75.5256C58.3803 75.5139 58.3921 75.1212 58.4851 74.5414C58.5872 73.9045 58.7925 72.9972 59.2196 71.962L85.1034 82.6405ZM86.3613 76.5425C86.2323 80.1424 84.3351 83.9881 80.5266 86.1881L66.5213 61.9424C61.3022 64.9572 58.5668 70.31 58.3793 75.5396L86.3613 76.5425ZM80.37 86.2772C78.6491 87.2419 76.7111 87.7534 74.7381 87.7635L74.5952 59.7639C71.8216 59.778 69.0972 60.497 66.6779 61.8533L80.37 86.2772ZM74.7381 87.7635C72.7651 87.7736 70.822 87.2819 69.0913 86.3347L82.5333 61.7724C80.1003 60.4409 77.3687 59.7497 74.5952 59.7639L74.7381 87.7635ZM69.2585 86.4248C70.1463 86.8951 72.2843 87.9974 75.158 88.3805L78.8586 60.6261C79.9668 60.7739 80.8558 61.0496 81.4622 61.2814C82.0123 61.4917 82.3591 61.6786 82.3661 61.6823L69.2585 86.4248ZM75.177 88.383C77.3805 88.6738 79.6197 88.5275 81.7667 87.9527L74.5248 60.9054C75.9306 60.529 77.3968 60.4332 78.8396 60.6236L75.177 88.383ZM81.7667 87.9527C83.9137 87.3778 85.9264 86.3856 87.6898 85.0327L70.6464 62.8173C71.801 61.9315 73.1189 61.2818 74.5248 60.9054L81.7667 87.9527ZM87.6972 85.027C89.6369 83.5369 90.8256 81.9058 91.4484 80.9783C92.0023 80.1535 92.5289 79.2263 92.7727 78.8041L68.525 64.8023C68.3411 65.1207 68.2419 65.2922 68.1633 65.4242C68.0849 65.556 68.112 65.5044 68.2032 65.3688C68.3707 65.1192 69.1593 63.9598 70.639 62.8231L87.6972 85.027ZM92.7727 78.8041C93.0121 78.3896 93.5554 77.4647 93.9937 76.5713C94.4887 75.5622 95.3142 73.7007 95.6303 71.2521L67.8608 67.6667C68.1025 65.7949 68.7199 64.5161 68.8553 64.24C68.9284 64.0909 68.9606 64.0399 68.8851 64.1745C68.8092 64.3099 68.7105 64.4811 68.525 64.8023L92.7727 78.8041ZM95.6253 71.2907C95.916 69.0873 95.7698 66.8481 95.1949 64.701L68.1476 71.9429C67.7712 70.537 67.6755 69.0708 67.8659 67.6281L95.6253 71.2907ZM95.1949 64.701C94.6201 62.554 93.6278 60.5413 92.275 58.7779L70.0596 75.8213C69.1738 74.6666 68.5241 73.3488 68.1476 71.9429L95.1949 64.701ZM92.2554 58.7525C90.4823 56.4522 88.4499 55.1518 87.6366 54.64L72.7237 78.3382C72.7109 78.3302 72.6307 78.2796 72.5081 78.1943C72.3845 78.1084 72.1892 77.9674 71.9508 77.7741C71.4538 77.3711 70.767 76.7391 70.0791 75.8467L92.2554 58.7525ZM87.4517 54.5256C89.1378 55.5505 90.5357 56.9872 91.514 58.7009L67.1977 72.5831C68.573 74.9921 70.5382 77.0118 72.9085 78.4526L87.4517 54.5256ZM91.514 58.7009C92.4924 60.4145 93.0189 62.3487 93.0443 64.3217L65.0466 64.6815C65.0822 67.4551 65.8224 70.1742 67.1977 72.5831L91.514 58.7009ZM93.0454 64.5016C93.0454 68.9147 90.6512 72.4782 87.6069 74.3833L72.7534 50.6478C68.3275 53.4175 65.0454 58.4588 65.0454 64.5016H93.0454ZM87.6629 74.348C88.4247 73.8663 90.4946 72.5507 92.2834 70.2144L70.0512 53.1929C70.7559 52.2725 71.458 51.6295 71.9499 51.2305C72.187 51.0382 72.3798 50.8991 72.4983 50.8165C72.616 50.7345 72.691 50.6871 72.6973 50.6831L87.6629 74.348ZM92.275 70.2253C93.6278 68.4619 94.6201 66.4493 95.1949 64.3022L68.1476 57.0603C68.5241 55.6545 69.1738 54.3366 70.0596 53.182L92.275 70.2253ZM95.1949 64.3022C95.7698 62.1551 95.916 59.9159 95.6253 57.7125L67.8659 61.3752C67.6755 59.9324 67.7712 58.4662 68.1476 57.0603L95.1949 64.3022ZM95.6252 57.712C95.3057 55.2912 94.4905 53.4485 93.9995 52.445C93.5629 51.5527 93.0243 50.6332 92.7807 50.2104L68.52 64.1896C68.7033 64.5079 68.802 64.6795 68.8768 64.8134C68.9515 64.947 68.9205 64.8978 68.8488 64.7512C68.7166 64.4811 68.1095 63.2211 67.8659 61.3757L95.6252 57.712ZM92.7677 50.1879C92.5225 49.7643 91.9966 48.8404 91.4438 48.0183C90.8208 47.0918 89.6401 45.4749 87.7193 43.9932L70.6169 66.1631C69.1561 65.0363 68.3755 63.8911 68.2082 63.6422C68.118 63.5081 68.0916 63.4579 68.1703 63.5899C68.2492 63.7222 68.3489 63.8941 68.533 64.2122L92.7677 50.1879ZM87.6898 43.9705C85.9263 42.6176 83.9136 41.6254 81.7667 41.0505L74.5248 68.0978C73.119 67.7214 71.8011 67.0717 70.6464 66.1859L87.6898 43.9705ZM81.7667 41.0505C79.6197 40.4757 77.3805 40.3295 75.177 40.6202L78.8396 68.3796C77.3968 68.57 75.9306 68.4742 74.5248 68.0978L81.7667 41.0505ZM75.158 40.6227C72.2868 41.0055 70.1497 42.1069 69.2722 42.5704L82.3494 67.329C82.3477 67.3299 82.0042 67.5147 81.4579 67.7234C80.8548 67.9537 79.9669 68.2293 78.8586 68.3771L75.158 40.6227ZM69.0942 42.6661C70.8241 41.7202 72.7659 41.2293 74.7374 41.2393L74.5944 69.239C77.3659 69.2531 80.0957 68.563 82.5275 67.2333L69.0942 42.6661ZM74.7374 41.2393C76.709 41.2494 78.6456 41.7601 80.3658 42.7237L66.6822 67.1523C69.1003 68.5068 71.8228 69.2248 74.5944 69.239L74.7374 41.2393ZM80.6805 42.9054C82.3759 43.9137 83.7872 45.3365 84.7819 47.0399L60.6019 61.1583C62.0001 63.553 63.9841 65.5531 66.3674 66.9706L80.6805 42.9054ZM84.7819 47.0399C85.7765 48.7434 86.3219 50.6718 86.3667 52.6439L58.3739 53.2805C58.437 56.0528 59.2036 58.7636 60.6019 61.1583L84.7819 47.0399ZM86.3608 52.4467C86.3255 51.4889 86.2189 49.0373 85.0829 46.3132L59.2401 57.0907C58.7956 56.0248 58.5862 55.093 58.4837 54.4498C58.4345 54.1408 58.4096 53.8964 58.3968 53.7434C58.3841 53.5914 58.3804 53.4942 58.3798 53.4776L86.3608 52.4467ZM85.0971 46.3474C84.2467 44.2931 82.9998 42.4265 81.4276 40.8543L61.6286 60.6533C60.5992 59.6238 59.7827 58.4016 59.2259 57.0565L85.0971 46.3474ZM81.4276 40.8543C79.8555 39.2821 77.9889 38.0352 75.9345 37.1848L65.2254 63.056C63.8803 62.4992 62.658 61.6827 61.6286 60.6533L81.4276 40.8543Z" fill="white" mask="url(#path-1-outside-1_6613_41337)"/>
<path d="M46 51.0073C46 51.0073 41.4605 50.9 38.028 51.5072C31.2599 52.7044 25.1731 58.2508 21.6153 64.5038C19.8252 67.6499 19.7986 71.2139 20.2325 74.0207C20.7141 77.1362 23.6441 79 26.7966 79H46" stroke="white" stroke-width="28"/>
<circle cx="51" cy="29" r="20" fill="white" stroke="white" stroke-width="12"/>
<path d="M33 87C33 90.3137 35.6863 93 39 93H55.9107C60.1397 93 63.0416 88.7422 61.4952 84.8061C60.5932 82.51 58.3777 81 55.9107 81H39C35.6863 81 33 83.6863 33 87Z" fill="white"/>
<circle cx="51" cy="29" r="12" stroke="#9226FF" stroke-width="4"/>
<path d="M67.9981 68.8791C70.4177 68.8791 72.3791 66.9177 72.3791 64.4981C72.3791 62.0786 70.4177 60.1172 67.9981 60.1172C65.5786 60.1172 63.6172 62.0786 63.6172 64.4981C63.6172 66.9177 65.5786 68.8791 67.9981 68.8791Z" stroke="#9226FF" stroke-width="4"/>
<path d="M70.58 50.1204C70.044 49.8984 69.3635 49.8984 68.0025 49.8984C66.6415 49.8984 65.961 49.8984 65.4251 50.1204C65.0705 50.2672 64.7483 50.4824 64.4769 50.7538C64.2055 51.0251 63.9903 51.3473 63.8435 51.7019C63.7092 52.0276 63.6552 52.4087 63.6347 52.9622C63.6256 53.3623 63.515 53.7535 63.3132 54.0991C63.1114 54.4448 62.825 54.7334 62.4811 54.938C62.1319 55.1337 61.7387 55.2375 61.3384 55.2395C60.9381 55.2416 60.5439 55.1418 60.1927 54.9497C59.7021 54.6897 59.3472 54.5466 58.9953 54.4999C58.2276 54.3989 57.4513 54.6069 56.8369 55.0782C56.3784 55.433 56.0367 56.0215 55.3562 57.2C54.6757 58.3785 54.3339 58.967 54.2595 59.5438C54.2093 59.9242 54.2345 60.3107 54.3338 60.6813C54.433 61.0519 54.6042 61.3993 54.8378 61.7036C55.0539 61.984 55.3562 62.2191 55.8249 62.5141C56.5157 62.9478 56.9596 63.6868 56.9596 64.5016C56.9596 65.3165 56.5157 66.0554 55.8249 66.4876C55.3562 66.7841 55.0524 67.0192 54.8378 67.2996C54.6042 67.604 54.433 67.9514 54.3338 68.322C54.2345 68.6925 54.2093 69.079 54.2595 69.4594C54.3354 70.0348 54.6757 70.6247 55.3547 71.8032C56.0367 72.9817 56.3769 73.5702 56.8369 73.925C57.1413 74.1586 57.4887 74.3298 57.8593 74.429C58.2299 74.5283 58.6164 74.5535 58.9967 74.5033C59.3472 74.4566 59.7021 74.3135 60.1927 74.0535C60.5439 73.8614 60.9381 73.7616 61.3384 73.7637C61.7387 73.7657 62.1319 73.8695 62.4811 74.0652C63.1864 74.4741 63.6055 75.2262 63.6347 76.041C63.6552 76.596 63.7077 76.9756 63.8435 77.3013C63.9903 77.6559 64.2055 77.9781 64.4769 78.2494C64.7483 78.5208 65.0705 78.736 65.4251 78.8828C65.961 79.1048 66.6415 79.1048 68.0025 79.1048C69.3635 79.1048 70.044 79.1048 70.58 78.8828C70.9346 78.736 71.2568 78.5208 71.5281 78.2494C71.7995 77.9781 72.0147 77.6559 72.1615 77.3013C72.2958 76.9756 72.3499 76.596 72.3703 76.041C72.3995 75.2262 72.8186 74.4727 73.524 74.0652C73.8731 73.8695 74.2663 73.7657 74.6666 73.7637C75.0669 73.7616 75.4611 73.8614 75.8123 74.0535C76.303 74.3135 76.6578 74.4566 77.0083 74.5033C77.3886 74.5535 77.7751 74.5283 78.1457 74.429C78.5163 74.3298 78.8637 74.1586 79.1681 73.925C79.6281 73.5716 79.9684 72.9817 80.6489 71.8032C81.3294 70.6247 81.6711 70.0362 81.7456 69.4594C81.7957 69.079 81.7705 68.6925 81.6713 68.322C81.5721 67.9514 81.4008 67.604 81.1673 67.2996C80.9511 67.0192 80.6489 66.7841 80.1801 66.4891C79.838 66.2812 79.5544 65.9897 79.3559 65.642C79.1574 65.2943 79.0506 64.9019 79.0454 64.5016C79.0454 63.6868 79.4894 62.9478 80.1801 62.5156C80.6489 62.2191 80.9526 61.984 81.1673 61.7036C81.4008 61.3993 81.5721 61.0519 81.6713 60.6813C81.7705 60.3107 81.7957 59.9242 81.7456 59.5438C81.6696 58.9685 81.3294 58.3785 80.6503 57.2C79.9684 56.0215 79.6281 55.433 79.1681 55.0782C78.8637 54.8447 78.5163 54.6734 78.1457 54.5742C77.7751 54.475 77.3886 54.4497 77.0083 54.4999C76.6578 54.5466 76.303 54.6897 75.8108 54.9497C75.4599 55.1416 75.0659 55.2412 74.6659 55.2391C74.2659 55.2371 73.873 55.1335 73.524 54.938C73.18 54.7334 72.8937 54.4448 72.6919 54.0991C72.4901 53.7535 72.3794 53.3623 72.3703 52.9622C72.3499 52.4073 72.2973 52.0276 72.1615 51.7019C72.0147 51.3473 71.7995 51.0251 71.5281 50.7538C71.2568 50.4824 70.9346 50.2672 70.58 50.1204Z" stroke="#9226FF" stroke-width="4"/>
<path d="M46 51.0073C46 51.0073 41.4605 50.9 38.028 51.5072C31.2599 52.7044 25.1731 58.2508 21.6153 64.5038C19.8252 67.6499 19.7986 71.2139 20.2325 74.0207C20.7141 77.1362 23.6441 79 26.7966 79H46" stroke="#9226FF" stroke-width="4"/>
<path d="M44 50C44 49.4477 44.4477 49 45 49H49C49.824 49 50.2944 49.9408 49.8 50.6L48.3 52.6C48.1111 52.8518 47.8148 53 47.5 53H45C44.4477 53 44 52.5523 44 52V50Z" fill="#9226FF"/>
<path d="M44 80C44 80.5523 44.4477 81 45 81H49C49.824 81 50.2944 80.0592 49.8 79.4L48.3 77.4C48.1111 77.1482 47.8148 77 47.5 77H45C44.4477 77 44 77.4477 44 78V80Z" fill="#9226FF"/>
</g>
<defs>
<filter id="filter0_d_6613_41337" x="0" y="0" width="102" height="102.102" filterUnits="userSpaceOnUse" color-interpolation-filters="sRGB">
<feFlood flood-opacity="0" result="BackgroundImageFix"/>
<feColorMatrix in="SourceAlpha" type="matrix" values="0 0 0 0 0 0 0 0 0 0 0 0 0 0 0 0 0 0 127 0" result="hardAlpha"/>
<feOffset dy="3"/>
<feGaussianBlur stdDeviation="3"/>
<feComposite in2="hardAlpha" operator="out"/>
<feColorMatrix type="matrix" values="0 0 0 0 0 0 0 0 0 0 0 0 0 0 0 0 0 0 0.25 0"/>
<feBlend mode="normal" in2="BackgroundImageFix" result="effect1_dropShadow_6613_41337"/>
<feBlend mode="normal" in="SourceGraphic" in2="effect1_dropShadow_6613_41337" result="shape"/>
</filter>
</defs>
</svg>
