<svg width="25" height="24" viewBox="0 0 25 24" fill="none" xmlns="http://www.w3.org/2000/svg">
<g clip-path="url(#clip0_5911_4678)">
<path d="M12.5 21.7158C10.1794 21.7158 7.95376 20.8729 6.31282 19.3727C4.67187 17.8724 3.75 15.8375 3.75 13.7158C3.75 11.5941 4.67187 9.55924 6.31282 8.05895C7.95376 6.55866 10.1794 5.7158 12.5 5.7158C14.8206 5.7158 17.0462 6.55866 18.6872 8.05895C20.3281 9.55924 21.25 11.5941 21.25 13.7158C21.25 15.8375 20.3281 17.8724 18.6872 19.3727C17.0462 20.8729 14.8206 21.7158 12.5 21.7158ZM12.5 3.43009C9.51631 3.43009 6.65483 4.51376 4.54505 6.44271C2.43526 8.37165 1.25 10.9879 1.25 13.7158C1.25 16.4437 2.43526 19.06 4.54505 20.9889C6.65483 22.9178 9.51631 24.0015 12.5 24.0015C15.4837 24.0015 18.3452 22.9178 20.455 20.9889C22.5647 19.06 23.75 16.4437 23.75 13.7158C23.75 10.9879 22.5647 8.37165 20.455 6.44271C18.3452 4.51376 15.4837 3.43009 12.5 3.43009ZM13.125 8.00152H11.25V14.8587L17.1875 18.1158L18.125 16.7101L13.125 14.0015V8.00152ZM7.35 2.73295L5.75 0.984375L0 5.38438L1.6125 7.13295L7.35 2.73295ZM25 5.3958L19.25 0.984375L17.6375 2.73295L23.3875 7.14438L25 5.3958Z" fill="#727272"/>
</g>
<defs>
<clipPath id="clip0_5911_4678">
<rect width="25" height="24" fill="white"/>
</clipPath>
</defs>
</svg>
