<svg width="35" height="32" viewBox="0 0 35 32" fill="none" xmlns="http://www.w3.org/2000/svg">
<path d="M30.9898 5.97966H24.7403V4.76795C24.7403 3.80385 24.3452 2.87924 23.642 2.19752C22.9388 1.5158 21.9851 1.13281 20.9906 1.13281H13.4912C12.4967 1.13281 11.543 1.5158 10.8397 2.19752C10.1365 2.87924 9.74149 3.80385 9.74149 4.76795V5.97966H3.49199C2.829 5.97966 2.19317 6.23499 1.72436 6.68947C1.25556 7.14395 0.992188 7.76035 0.992188 8.40309V27.7905C0.992188 28.4332 1.25556 29.0496 1.72436 29.5041C2.19317 29.9586 2.829 30.2139 3.49199 30.2139H30.9898C31.6528 30.2139 32.2886 29.9586 32.7574 29.5041C33.2262 29.0496 33.4896 28.4332 33.4896 27.7905V8.40309C33.4896 7.76035 33.2262 7.14395 32.7574 6.68947C32.2886 6.23499 31.6528 5.97966 30.9898 5.97966ZM12.2413 4.76795C12.2413 4.44658 12.373 4.13838 12.6074 3.91114C12.8418 3.6839 13.1597 3.55624 13.4912 3.55624H20.9906C21.3221 3.55624 21.64 3.6839 21.8744 3.91114C22.1088 4.13838 22.2405 4.44658 22.2405 4.76795V5.97966H12.2413V4.76795ZM30.9898 8.40309V14.7055C26.771 16.9317 22.0441 18.0976 17.2409 18.0968C12.4378 18.0976 7.71106 16.9323 3.49199 14.707V8.40309H30.9898ZM30.9898 27.7905H3.49199V17.4364C7.77278 19.4663 12.4754 20.5211 17.2409 20.5202C22.0064 20.5203 26.709 19.465 30.9898 17.4349V27.7905ZM13.4912 14.4616C13.4912 14.1403 13.6229 13.8321 13.8573 13.6048C14.0917 13.3776 14.4096 13.2499 14.7411 13.2499H19.7407C20.0722 13.2499 20.3901 13.3776 20.6245 13.6048C20.8589 13.8321 20.9906 14.1403 20.9906 14.4616C20.9906 14.783 20.8589 15.0912 20.6245 15.3185C20.3901 15.5457 20.0722 15.6734 19.7407 15.6734H14.7411C14.4096 15.6734 14.0917 15.5457 13.8573 15.3185C13.6229 15.0912 13.4912 14.783 13.4912 14.4616Z" fill="black"/>
</svg>
