<svg width="35" height="32" viewBox="0 0 35 32" fill="none" xmlns="http://www.w3.org/2000/svg">
<g clip-path="url(#clip0_5911_4687)">
<path d="M29.9432 16.4605C29.9432 16.1332 30.0866 15.8192 30.3418 15.5877C30.597 15.3562 30.9432 15.2262 31.3042 15.2262C31.6652 15.2262 32.0114 15.3562 32.2666 15.5877C32.5219 15.8192 32.6653 16.1332 32.6653 16.4605V30.0383C32.6653 30.3657 32.5219 30.6796 32.2666 30.9111C32.0114 31.1426 31.6652 31.2726 31.3042 31.2726H1.36105C1.00008 31.2726 0.65389 31.1426 0.398643 30.9111C0.143396 30.6796 0 30.3657 0 30.0383V2.88278C0 2.55541 0.143396 2.24145 0.398643 2.00997C0.65389 1.77848 1.00008 1.64844 1.36105 1.64844H16.3326C16.6936 1.64844 17.0398 1.77848 17.295 2.00997C17.5503 2.24145 17.6937 2.55541 17.6937 2.88278C17.6937 3.21015 17.5503 3.52411 17.295 3.75559C17.0398 3.98708 16.6936 4.11712 16.3326 4.11712H2.72211V28.804H29.9432V16.4605Z" fill="black"/>
<path d="M14.5427 18.086L16.7884 17.7947L30.5841 5.28585C30.7141 5.17199 30.8178 5.03579 30.8891 4.88519C30.9604 4.7346 30.998 4.57263 30.9995 4.40873C31.0011 4.24484 30.9667 4.0823 30.8982 3.9306C30.8298 3.77891 30.7287 3.64109 30.6009 3.52519C30.4732 3.4093 30.3212 3.31764 30.1539 3.25558C29.9867 3.19352 29.8074 3.16229 29.6267 3.16371C29.446 3.16513 29.2674 3.19919 29.1013 3.26388C28.9353 3.32857 28.7851 3.4226 28.6595 3.54049L14.8612 16.0493L14.54 18.086H14.5427ZM32.5086 1.79266C32.888 2.13655 33.189 2.54488 33.3944 2.9943C33.5998 3.44373 33.7055 3.92545 33.7055 4.41194C33.7055 4.89843 33.5998 5.38015 33.3944 5.82957C33.189 6.279 32.888 6.68732 32.5086 7.03121L18.3945 19.8313C18.1864 20.0208 17.916 20.1438 17.6241 20.1819L13.1327 20.7645C12.9233 20.7918 12.7099 20.7744 12.5093 20.7138C12.3086 20.6533 12.1263 20.5511 11.9768 20.4155C11.8272 20.2799 11.7146 20.1146 11.6478 19.9326C11.581 19.7506 11.5619 19.5571 11.5919 19.3672L12.2344 15.2939C12.2756 15.0295 12.4103 14.7844 12.6182 14.5953L26.735 1.79513C27.5007 1.10092 28.5391 0.710937 29.6218 0.710938C30.7045 0.710937 31.7429 1.10092 32.5086 1.79513V1.79266Z" fill="black"/>
</g>
<defs>
<clipPath id="clip0_5911_4687">
<rect width="34.48" height="31.27" fill="white"/>
</clipPath>
</defs>
</svg>
