<svg width="17" height="19" viewBox="0 0 17 19" fill="none" xmlns="http://www.w3.org/2000/svg">
<g clip-path="url(#clip0_5911_4660)">
<path d="M10.475 8.14275C10.475 7.60285 10.2668 7.08507 9.89617 6.7033C9.52555 6.32153 9.02288 6.10706 8.49875 6.10706C7.97462 6.10706 7.47195 6.32153 7.10133 6.7033C6.73071 7.08507 6.5225 7.60285 6.5225 8.14275C6.5225 8.68265 6.73071 9.20043 7.10133 9.5822C7.47195 9.96396 7.97462 10.1784 8.49875 10.1784C9.02288 10.1784 9.52555 9.96396 9.89617 9.5822C10.2668 9.20043 10.475 8.68265 10.475 8.14275ZM16.4037 8.14275C16.4037 12.0431 12.3235 16.3072 10.0257 18.3999C9.6056 18.7864 9.06203 19 8.49875 19C7.93547 19 7.3919 18.7864 6.97177 18.3999C4.67405 16.3072 0.59375 12.0431 0.59375 8.14275C0.59375 7.07343 0.798219 6.01458 1.19548 5.02665C1.59275 4.03873 2.17502 3.14108 2.90907 2.38496C3.64312 1.62883 4.51456 1.02904 5.47364 0.61983C6.43272 0.210618 7.46065 0 8.49875 0C9.53685 0 10.5648 0.210618 11.5239 0.61983C12.4829 1.02904 13.3544 1.62883 14.0884 2.38496C14.8225 3.14108 15.4048 4.03873 15.802 5.02665C16.1993 6.01458 16.4038 7.07343 16.4037 8.14275ZM15.0863 8.14275C15.0863 6.34309 14.3922 4.61714 13.1568 3.34459C11.9214 2.07204 10.2459 1.35712 8.49875 1.35712C6.75164 1.35712 5.07608 2.07204 3.84068 3.34459C2.60529 4.61714 1.91125 6.34309 1.91125 8.14275C1.91125 9.64644 2.72151 11.3931 3.97973 13.141C5.21027 14.8483 6.72935 16.3669 7.84395 17.3834C8.02329 17.5509 8.25669 17.6436 8.49875 17.6436C8.74081 17.6436 8.97421 17.5509 9.15355 17.3834C10.2682 16.3669 11.7885 14.8497 13.0178 13.141C14.276 11.3931 15.0863 9.64644 15.0863 8.14275Z" fill="#727272"/>
</g>
<defs>
<clipPath id="clip0_5911_4660">
<rect width="17" height="19" fill="white"/>
</clipPath>
</defs>
</svg>
