<svg width="17" height="19" viewBox="0 0 17 19" fill="none" xmlns="http://www.w3.org/2000/svg">
<g clip-path="url(#clip0_5911_4668)">
<path d="M15.659 1.49826H12.7948V0.046875H11.3628V1.49826H5.63451V0.046875H4.20245V1.49826H1.33832C0.550679 1.49826 -0.09375 2.15139 -0.09375 2.94965V17.4635C-0.09375 18.2618 0.550679 18.9149 1.33832 18.9149H15.659C16.4466 18.9149 17.091 18.2618 17.091 17.4635V2.94965C17.091 2.15139 16.4466 1.49826 15.659 1.49826ZM15.659 17.4635H1.33832V7.30382H15.659V17.4635ZM15.659 5.85243H1.33832V2.94965H4.20245V4.40104H5.63451V2.94965H11.3628V4.40104H12.7948V2.94965H15.659V5.85243Z" fill="#727272"/>
</g>
<defs>
<clipPath id="clip0_5911_4668">
<rect width="17" height="19" fill="white"/>
</clipPath>
</defs>
</svg>
