<svg width="35" height="32" viewBox="0 0 35 32" fill="none" xmlns="http://www.w3.org/2000/svg">
<g clip-path="url(#clip0_5911_4689)">
<path d="M17.24 28.2926C14.0394 28.2926 10.9698 27.1944 8.70664 25.2397C6.44345 23.2849 5.172 20.6337 5.172 17.8692C5.172 15.1048 6.44345 12.4536 8.70664 10.4988C10.9698 8.54408 14.0394 7.44591 17.24 7.44591C20.4406 7.44591 23.5102 8.54408 25.7734 10.4988C28.0366 12.4536 29.308 15.1048 29.308 17.8692C29.308 20.6337 28.0366 23.2849 25.7734 25.2397C23.5102 27.1944 20.4406 28.2926 17.24 28.2926ZM17.24 4.46781C13.1249 4.46781 9.17834 5.87974 6.26853 8.393C3.35872 10.9063 1.724 14.315 1.724 17.8692C1.724 21.4235 3.35872 24.8322 6.26853 27.3455C9.17834 29.8587 13.1249 31.2707 17.24 31.2707C21.3551 31.2707 25.3017 29.8587 28.2115 27.3455C31.1213 24.8322 32.756 21.4235 32.756 17.8692C32.756 14.315 31.1213 10.9063 28.2115 8.393C25.3017 5.87974 21.3551 4.46781 17.24 4.46781ZM18.102 10.424H15.516V19.3583L23.705 23.6021L24.998 21.7705L18.102 18.2415V10.424ZM10.1371 3.55949L7.9304 1.28125L0 7.01408L2.22396 9.29233L10.1371 3.55949ZM34.48 7.02897L26.5496 1.28125L24.3256 3.55949L32.256 9.30722L34.48 7.02897Z" fill="black"/>
</g>
<defs>
<clipPath id="clip0_5911_4689">
<rect width="34.48" height="31.27" fill="white"/>
</clipPath>
</defs>
</svg>
