<svg width="25" height="24" viewBox="0 0 25 24" fill="none" xmlns="http://www.w3.org/2000/svg">
<g clip-path="url(#clip0_5911_4676)">
<path d="M21.7105 12.634C21.7105 12.3828 21.8145 12.1418 21.9996 11.9642C22.1846 11.7865 22.4356 11.6867 22.6974 11.6867C22.9591 11.6867 23.2101 11.7865 23.3952 11.9642C23.5802 12.1418 23.6842 12.3828 23.6842 12.634V23.0551C23.6842 23.3064 23.5802 23.5473 23.3952 23.725C23.2101 23.9027 22.9591 24.0025 22.6974 24.0025H0.986842C0.725115 24.0025 0.474108 23.9027 0.28904 23.725C0.103971 23.5473 0 23.3064 0 23.0551V2.21299C0 1.96174 0.103971 1.72077 0.28904 1.5431C0.474108 1.36544 0.725115 1.26562 0.986842 1.26562H11.8421C12.1038 1.26562 12.3548 1.36544 12.5399 1.5431C12.725 1.72077 12.8289 1.96174 12.8289 2.21299C12.8289 2.46425 12.725 2.70522 12.5399 2.88288C12.3548 3.06055 12.1038 3.16036 11.8421 3.16036H1.97368V22.1077H21.7105V12.634Z" fill="#727272"/>
<path d="M10.5479 13.8824L12.1762 13.6588L22.1789 4.05816C22.2731 3.97077 22.3483 3.86623 22.4 3.75065C22.4517 3.63507 22.4789 3.51076 22.4801 3.38496C22.4812 3.25917 22.4563 3.13442 22.4066 3.018C22.357 2.90157 22.2837 2.79579 22.1911 2.70684C22.0984 2.61789 21.9882 2.54755 21.867 2.49991C21.7457 2.45228 21.6157 2.42831 21.4847 2.4294C21.3537 2.43049 21.2242 2.45663 21.1038 2.50628C20.9834 2.55593 20.8745 2.6281 20.7835 2.71858L10.7789 12.3192L10.546 13.8824H10.5479ZM23.5742 1.37711C23.8494 1.64105 24.0676 1.95444 24.2165 2.29938C24.3654 2.64432 24.442 3.01404 24.442 3.38743C24.442 3.76081 24.3654 4.13053 24.2165 4.47547C24.0676 4.82041 23.8494 5.1338 23.5742 5.39774L13.3407 15.222C13.1898 15.3674 12.9938 15.4618 12.7821 15.491L9.52556 15.9382C9.3738 15.9591 9.21904 15.9458 9.07356 15.8993C8.92809 15.8528 8.79589 15.7744 8.68748 15.6703C8.57906 15.5662 8.4974 15.4393 8.44896 15.2997C8.40053 15.16 8.38666 15.0114 8.40846 14.8657L8.87425 11.7394C8.90415 11.5365 9.0018 11.3483 9.15254 11.2032L19.3881 1.37901C19.9432 0.846193 20.6961 0.546875 21.4812 0.546875C22.2662 0.546875 23.0191 0.846193 23.5742 1.37901V1.37711Z" fill="#727272"/>
</g>
<defs>
<clipPath id="clip0_5911_4676">
<rect width="25" height="24" fill="white"/>
</clipPath>
</defs>
</svg>
