<svg width="25" height="24" viewBox="0 0 25 24" fill="none" xmlns="http://www.w3.org/2000/svg">
<path fill-rule="evenodd" clip-rule="evenodd" d="M10.889 4.53073C12.2181 5.37465 13.188 6.65569 13.6204 8.13806C14.0528 9.62043 13.9184 11.2044 13.242 12.5983C14.4497 13.5 15.9197 14.0096 17.4431 14.0547C18.9665 14.0998 20.4659 13.6781 21.728 12.8495C22.9901 12.021 23.9508 10.8277 24.4734 9.43934C24.9961 8.05099 25.0541 6.53821 24.6393 5.11603C24.2245 3.69385 23.358 2.43465 22.1629 1.51741C20.9677 0.600174 19.5049 0.0715793 17.9822 0.00676476C16.4595 -0.0580498 14.9545 0.344214 13.6811 1.15638C12.4077 1.96854 11.4307 3.14927 10.889 4.53073ZM17.6674 6.379C18.2842 6.379 18.7849 6.86448 18.7849 7.46265V10.5732C18.7849 10.8606 18.6671 11.1362 18.4576 11.3394C18.248 11.5426 17.9637 11.6568 17.6674 11.6568C17.371 11.6568 17.0867 11.5426 16.8772 11.3394C16.6676 11.1362 16.5499 10.8606 16.5499 10.5732V7.46265C16.5499 6.86448 17.0505 6.379 17.6674 6.379ZM16.3567 3.63954C16.3567 4.45617 17.0541 4.81508 17.5458 4.86709C17.5873 4.87164 17.6291 4.87396 17.6709 4.87403C18.1591 4.87403 18.9833 4.52726 18.9833 3.63954C18.9833 2.82116 18.286 2.46226 17.7943 2.41025C17.7528 2.40569 17.711 2.40338 17.6691 2.40331C17.181 2.40331 16.3567 2.75008 16.3567 3.63954ZM7.26828 14.1085C7.84852 14.1198 8.42527 14.0189 8.96476 13.8114C9.50425 13.604 9.99564 13.2942 10.4101 12.9003C10.8246 12.5064 11.1539 12.0363 11.3787 11.5175C11.6036 10.9986 11.7193 10.4415 11.7193 9.87875C11.7193 9.31598 11.6036 8.75886 11.3787 8.24003C11.1539 7.72119 10.8246 7.25106 10.4101 6.85717C9.99564 6.46327 9.50425 6.15354 8.96476 5.94609C8.42527 5.73865 7.84852 5.63766 7.26828 5.64906C6.12674 5.67147 5.03974 6.12694 4.2406 6.91773C3.44145 7.70851 2.99385 8.77157 2.99385 9.87875C2.99385 10.9859 3.44145 12.049 4.2406 12.8398C5.03974 13.6306 6.12674 14.086 7.26828 14.1085ZM9.60644e-06 22.5661C-0.00295618 20.7962 0.680894 19.09 1.91566 17.7866C3.15042 16.4832 4.8457 15.678 6.6646 15.531C8.48349 15.384 10.2928 15.9059 11.7331 16.9932C13.1733 18.0804 14.139 19.6533 14.4382 21.3992H23.659C24.0146 21.3992 24.3557 21.5362 24.6072 21.7801C24.8587 22.024 25 22.3547 25 22.6996C25 23.0445 24.8587 23.3753 24.6072 23.6191C24.3557 23.863 24.0146 24 23.659 24H1.37678C1.03728 23.9999 0.710444 23.875 0.462226 23.6504C0.214009 23.4257 0.0628847 23.1182 0.0393459 22.7898C0.0144555 22.7177 0.00177516 22.6421 0.00179762 22.5661H9.60644e-06Z" fill="#727272"/>
</svg>
