<svg width="35" height="32" viewBox="0 0 35 32" fill="none" xmlns="http://www.w3.org/2000/svg">
<path fill-rule="evenodd" clip-rule="evenodd" d="M15.0181 5.90316C16.8512 7.00272 18.189 8.67181 18.7853 10.6032C19.3816 12.5346 19.1962 14.5983 18.2634 16.4145C19.929 17.5893 21.9564 18.2533 24.0575 18.3121C26.1587 18.3709 28.2265 17.8214 29.9672 16.7419C31.7079 15.6623 33.0329 14.1076 33.7537 12.2987C34.4746 10.4898 34.5546 8.51874 33.9825 6.66576C33.4104 4.81278 32.2153 3.17214 30.567 1.97706C28.9187 0.781976 26.9011 0.0932619 24.801 0.00881392C22.701 -0.075634 20.6253 0.448482 18.869 1.50666C17.1127 2.56484 15.7652 4.10323 15.0181 5.90316ZM24.3668 8.31131C25.2176 8.31131 25.9081 8.94384 25.9081 9.72321V13.7759C25.9081 14.1504 25.7457 14.5095 25.4567 14.7743C25.1676 15.0391 24.7756 15.1878 24.3668 15.1878C23.9581 15.1878 23.566 15.0391 23.277 14.7743C22.9879 14.5095 22.8256 14.1504 22.8256 13.7759V9.72321C22.8256 8.94384 23.516 8.31131 24.3668 8.31131ZM22.5592 4.74201C22.5592 5.80602 23.521 6.27365 24.1991 6.34142C24.2564 6.34734 24.3141 6.35036 24.3718 6.35045C25.045 6.35045 26.1818 5.89864 26.1818 4.74201C26.1818 3.67574 25.2201 3.20812 24.5419 3.14035C24.4846 3.13442 24.427 3.1314 24.3693 3.13131C23.6961 3.13131 22.5592 3.58312 22.5592 4.74201ZM10.0244 18.3821C10.8247 18.397 11.6201 18.2654 12.3642 17.9951C13.1083 17.7248 13.786 17.3213 14.3577 16.8081C14.9294 16.2949 15.3835 15.6823 15.6936 15.0063C16.0036 14.3303 16.1633 13.6044 16.1633 12.8712C16.1633 12.1379 16.0036 11.4121 15.6936 10.7361C15.3835 10.0601 14.9294 9.44752 14.3577 8.93431C13.786 8.42111 13.1083 8.01754 12.3642 7.74726C11.6201 7.47698 10.8247 7.34541 10.0244 7.36025C8.44999 7.38945 6.95081 7.9829 5.84863 9.01322C4.74645 10.0435 4.12911 11.4286 4.12911 12.8712C4.12911 14.3138 4.74645 15.6988 5.84863 16.7292C6.95081 17.7595 8.44999 18.3529 10.0244 18.3821ZM1.32492e-05 29.4018C-0.00407716 27.0957 0.939089 24.8727 2.64207 23.1745C4.34506 21.4762 6.68319 20.4271 9.19181 20.2355C11.7004 20.044 14.1959 20.7241 16.1823 22.1407C18.1686 23.5573 19.5005 25.6066 19.9132 27.8814H32.6305C33.121 27.8814 33.5914 28.0599 33.9383 28.3777C34.2851 28.6954 34.48 29.1264 34.48 29.5757C34.48 30.0251 34.2851 30.456 33.9383 30.7738C33.5914 31.0915 33.121 31.27 32.6305 31.27H1.89885C1.43061 31.2699 0.979844 31.1071 0.637503 30.8144C0.295161 30.5218 0.0867306 30.1211 0.0542658 29.6932C0.019937 29.5992 0.0024483 29.5008 0.00247928 29.4018H1.32492e-05Z" fill="black"/>
</svg>
