<svg width="25" height="24" viewBox="0 0 25 24" fill="none" xmlns="http://www.w3.org/2000/svg">
<g clip-path="url(#clip0_5911_4679)">
<path d="M22.4688 4.58719H17.9375V3.65719C17.9375 2.91723 17.6511 2.20759 17.1412 1.68436C16.6313 1.16113 15.9398 0.867188 15.2188 0.867188H9.78125C9.06019 0.867188 8.36867 1.16113 7.8588 1.68436C7.34894 2.20759 7.0625 2.91723 7.0625 3.65719V4.58719H2.53125C2.05055 4.58719 1.58953 4.78315 1.24962 5.13197C0.909709 5.48079 0.71875 5.95389 0.71875 6.44719V21.3272C0.71875 21.8205 0.909709 22.2936 1.24962 22.6424C1.58953 22.9912 2.05055 23.1872 2.53125 23.1872H22.4688C22.9495 23.1872 23.4105 22.9912 23.7504 22.6424C24.0903 22.2936 24.2812 21.8205 24.2812 21.3272V6.44719C24.2812 5.95389 24.0903 5.48079 23.7504 5.13197C23.4105 4.78315 22.9495 4.58719 22.4688 4.58719ZM8.875 3.65719C8.875 3.41054 8.97048 3.17399 9.14043 2.99958C9.31039 2.82517 9.5409 2.72719 9.78125 2.72719H15.2188C15.4591 2.72719 15.6896 2.82517 15.8596 2.99958C16.0295 3.17399 16.125 3.41054 16.125 3.65719V4.58719H8.875V3.65719ZM22.4688 6.44719V11.2844C19.4099 12.993 15.9826 13.8878 12.5 13.8872C9.01751 13.8878 5.59032 12.9934 2.53125 11.2855V6.44719H22.4688ZM22.4688 21.3272H2.53125V13.3803C5.63507 14.9383 9.04477 15.7479 12.5 15.7472C15.9553 15.7473 19.3649 14.9373 22.4688 13.3792V21.3272ZM9.78125 11.0972C9.78125 10.8505 9.87673 10.614 10.0467 10.4396C10.2166 10.2652 10.4471 10.1672 10.6875 10.1672H14.3125C14.5529 10.1672 14.7834 10.2652 14.9533 10.4396C15.1233 10.614 15.2188 10.8505 15.2188 11.0972C15.2188 11.3438 15.1233 11.5804 14.9533 11.7548C14.7834 11.9292 14.5529 12.0272 14.3125 12.0272H10.6875C10.4471 12.0272 10.2166 11.9292 10.0467 11.7548C9.87673 11.5804 9.78125 11.3438 9.78125 11.0972Z" fill="#727272"/>
</g>
<defs>
<clipPath id="clip0_5911_4679">
<rect width="25" height="24" fill="white"/>
</clipPath>
</defs>
</svg>
