<svg width="26" height="28" viewBox="0 0 26 28" fill="none" xmlns="http://www.w3.org/2000/svg">
<g clip-path="url(#clip0_5911_4671)">
<path d="M23.2753 2.18687H19.0179V0.0625H16.8892V2.18687H8.37427V0.0625H6.24554V2.18687H1.9881C0.8173 2.18687 -0.140625 3.14284 -0.140625 4.31125V25.555C-0.140625 26.7234 0.8173 27.6794 1.9881 27.6794H23.2753C24.4461 27.6794 25.404 26.7234 25.404 25.555V4.31125C25.404 3.14284 24.4461 2.18687 23.2753 2.18687ZM23.2753 25.555H1.9881V10.6844H23.2753V25.555ZM23.2753 8.56H1.9881V4.31125H6.24554V6.43562H8.37427V4.31125H16.8892V6.43562H19.0179V4.31125H23.2753V8.56Z" fill="black"/>
</g>
<defs>
<clipPath id="clip0_5911_4671">
<rect width="25.27" height="27.81" fill="white"/>
</clipPath>
</defs>
</svg>
