<svg width="24" height="28" viewBox="0 0 24 28" fill="none" xmlns="http://www.w3.org/2000/svg">
<path d="M14.3266 12C14.3266 11.2044 14.0418 10.4413 13.5349 9.87868C13.0281 9.31607 12.3406 9 11.6238 9C10.9069 9 10.2194 9.31607 9.71257 9.87868C9.2057 10.4413 8.92094 11.2044 8.92094 12C8.92094 12.7956 9.2057 13.5587 9.71257 14.1213C10.2194 14.6839 10.9069 15 11.6238 15C12.3406 15 13.0281 14.6839 13.5349 14.1213C14.0418 13.5587 14.3266 12.7956 14.3266 12ZM22.435 12C22.435 17.748 16.8546 24.032 13.7121 27.116C13.1375 27.6856 12.3941 28.0004 11.6238 28.0004C10.8534 28.0004 10.11 27.6856 9.53538 27.116C6.39291 24.032 0.8125 17.748 0.8125 12C0.8125 10.4241 1.09214 8.86371 1.63546 7.4078C2.17877 5.95189 2.97512 4.62902 3.97904 3.51472C4.98296 2.40042 6.17478 1.5165 7.48646 0.913446C8.79815 0.310389 10.204 0 11.6238 0C13.0435 0 14.4494 0.310389 15.761 0.913446C17.0727 1.5165 18.2645 2.40042 19.2685 3.51472C20.2724 4.62902 21.0687 5.95189 21.612 7.4078C22.1554 8.86371 22.435 10.4241 22.435 12ZM20.6331 12C20.6331 9.34784 19.6839 6.8043 17.9943 4.92893C16.3048 3.05357 14.0132 2 11.6238 2C9.23432 2 6.94275 3.05357 5.25316 4.92893C3.56357 6.8043 2.61438 9.34784 2.61438 12C2.61438 14.216 3.72253 16.79 5.44332 19.366C7.12627 21.882 9.20383 24.12 10.7282 25.618C10.9735 25.8648 11.2927 26.0015 11.6238 26.0015C11.9548 26.0015 12.274 25.8648 12.5193 25.618C14.0437 24.12 16.123 21.884 17.8042 19.366C19.525 16.79 20.6331 14.216 20.6331 12Z" fill="black"/>
</svg>
