<svg xmlns="http://www.w3.org/2000/svg" width="100%" height="100%" viewBox="0 0 32 32">
    <path  fill-rule="nonzero" d="M15.978 0c8.824 0 15.977 7.344 15.977 16.405 0 7.246-4.572 13.393-10.917 15.565-.81.161-1.098-.35-1.098-.788 0-.54.02-2.307.02-4.502 0-1.53-.512-2.528-1.086-3.037 3.559-.406 7.297-1.793 7.297-8.094 0-1.792-.62-3.255-1.645-4.403.166-.415.714-2.084-.157-4.343 0 0-1.339-.44-4.389 1.682a14.993 14.993 0 0 0-4.002-.552 14.96 14.96 0 0 0-4 .552C8.925 6.363 7.583 6.803 7.583 6.803c-.868 2.26-.32 3.928-.155 4.343-1.021 1.148-1.646 2.61-1.646 4.403 0 6.285 3.731 7.693 7.28 8.107-.457.41-.871 1.133-1.015 2.194-.91.419-3.224 1.144-4.65-1.364 0 0-.845-1.576-2.449-1.69 0 0-1.558-.022-.108.996 0 0 1.046.504 1.773 2.4 0 0 .938 2.928 5.383 1.936.008 1.371.022 2.664.022 3.054 0 .434-.294.941-1.09.79C4.577 29.802 0 23.651 0 16.404 0 7.344 7.155 0 15.978 0"/>
</svg>
