<svg xmlns="http://www.w3.org/2000/svg" width="100%" height="100%" viewBox="0 0 36 36">
    <path  fill-rule="nonzero" d="M35.892 10.58a13.212 13.212 0 0 0-.836-4.37 8.824 8.824 0 0 0-2.078-3.188A8.824 8.824 0 0 0 29.79.944a13.212 13.212 0 0 0-4.368-.836C23.5.02 22.888 0 18 0s-5.5.02-7.42.108C9.087.138 7.609.42 6.21.944a8.824 8.824 0 0 0-3.19 2.078A8.824 8.824 0 0 0 .942 6.21a13.212 13.212 0 0 0-.836 4.368C.02 12.5 0 13.112 0 18s.02 5.5.108 7.42c.03 1.493.312 2.971.836 4.37a8.824 8.824 0 0 0 2.078 3.188 8.822 8.822 0 0 0 3.188 2.078c1.398.523 2.875.806 4.368.836C12.5 35.98 13.112 36 18 36s5.5-.02 7.42-.108a13.212 13.212 0 0 0 4.37-.836 9.204 9.204 0 0 0 5.266-5.266c.523-1.398.806-2.875.836-4.368C35.98 23.5 36 22.888 36 18s-.02-5.5-.108-7.42zm-3.24 14.694a9.956 9.956 0 0 1-.62 3.34 5.96 5.96 0 0 1-3.416 3.418c-1.07.397-2.2.606-3.342.62-1.9.086-2.468.104-7.274.104s-5.376-.018-7.274-.104a9.958 9.958 0 0 1-3.34-.62 5.576 5.576 0 0 1-2.072-1.346 5.576 5.576 0 0 1-1.346-2.07 9.956 9.956 0 0 1-.62-3.342c-.086-1.9-.104-2.468-.104-7.274s.018-5.376.104-7.274c.014-1.14.224-2.27.62-3.34a5.576 5.576 0 0 1 1.346-2.072 5.576 5.576 0 0 1 2.07-1.346 9.958 9.958 0 0 1 3.342-.62c1.9-.086 2.468-.104 7.274-.104s5.376.018 7.274.104c1.14.014 2.27.224 3.34.62.783.288 1.49.748 2.072 1.346a5.576 5.576 0 0 1 1.346 2.07c.397 1.07.606 2.2.62 3.342.086 1.9.104 2.468.104 7.274s-.018 5.376-.104 7.274zM18 8.756a9.244 9.244 0 1 0 0 18.488 9.244 9.244 0 0 0 0-18.488zM18 24a6 6 0 1 1 0-12 6 6 0 0 1 0 12zM29.768 8.392a2.16 2.16 0 1 1-4.32 0 2.16 2.16 0 0 1 4.32 0z"/>
</svg>
