<svg xmlns="http://www.w3.org/2000/svg" width="25" height="21" viewBox="0 0 25 21">
    <path  fill-rule="nonzero" d="M8.155 20.17c0 .52-.278.83-.67.83-.14 0-.294-.038-.458-.12L.678 17.66C.305 17.47 0 16.97 0 16.546V.766C0 .349.22.103.537.103a.81.81 0 0 1 .366.095l.224.114h.001L8.126 3.86c.011.007.02.018.03.027v16.284zm7.332-19.072l.427-.704a.84.84 0 0 1 1.075-.31l7.379 3.742c.002 0 .002.002.002.002l.007.002c.004.002.004.01.009.012.037.029.052.08.027.12l-7.35 12.114-.75 1.235-4.87-9.55 4.044-6.663zM9.32 13.77V6.16l5.231 10.263-4.705-2.385-.526-.27zm15.146 6.4c0 .488-.29.766-.715.766-.191 0-.41-.054-.639-.17l-1.054-.536-4.705-2.386 7.113-11.721V20.17z"/>
</svg>
