<svg xmlns="http://www.w3.org/2000/svg" width="100%" height="100%" viewBox="0 0 46 32">
    <path  fill-rule="nonzero" d="M17.924 21.901l-.002-12.783 12.207 6.413-12.205 6.37zm26.8-14.998s-.442-3.135-1.795-4.516C41.21.574 39.286.566 38.403.46 32.08 0 22.599 0 22.599 0h-.021S13.096 0 6.774.461C5.89.566 3.966.574 2.247 2.387.892 3.767.452 6.903.452 6.903S0 10.585 0 14.266v3.453C0 21.4.452 25.08.452 25.08s.44 3.135 1.795 4.516c1.72 1.813 3.976 1.756 4.981 1.946 3.614.349 15.36.457 15.36.457s9.493-.014 15.815-.475c.883-.107 2.807-.115 4.526-1.928 1.354-1.38 1.796-4.516 1.796-4.516s.451-3.68.451-7.362v-3.453c0-3.68-.451-7.363-.451-7.363z"/>
</svg>
