<svg xmlns="http://www.w3.org/2000/svg" 
    xmlns:xlink="http://www.w3.org/1999/xlink" width="800px" height="800px" viewBox="0 0 800 800" version="1.1">
    <g id="Icon-SVG-in-Progress" stroke="none" stroke-width="1" fill="none" fill-rule="evenodd">
        <rect id="Base" fill="#6F6F6F" x="0" y="0" width="800" height="800"/>
        <path d="M363.652541,187.928694 L625.096329,187.928694 L932.166264,494.998629 L639.236199,787.928694 L362.61164,787.928694 C312.074334,789.011739 261.015747,774.697304 209.435879,744.98539 C132.066077,700.417519 64.2088818,594.694029 63.6709519,488.640978 C63.1658259,389.055208 120.008658,294.657018 187.729435,245.71392 C211.694405,228.393979 238.702787,212.812111 270.272042,203.024963 C282.715473,199.167232 300.16131,193.311008 324.049841,190.603922 C339.975529,188.799198 353.176429,187.907455 363.652541,187.928694 Z" id="Rectangle" fill="#000000" opacity="0.5" transform="translate(497.916937, 487.957076) rotate(45.000000) translate(-497.916937, -487.957076) "/>
        <path d="M505.195959,401.622366 L513.681241,393.137085 L510.852814,390.308658 L502.367532,398.793939 L474.083261,370.509668 L482.568542,362.024387 L479.740115,359.195959 L471.254834,367.681241 L442.970563,339.39697 L451.455844,330.911688 L448.627417,328.083261 L440.142136,336.568542 L411.857864,308.284271 L440.142136,280 L561.764502,401.622366 L533.480231,429.906638 L505.195959,401.622366 Z M414.977705,282.426407 L386.693434,254.142136 L400.83557,240 L429.119841,268.284271 L414.977705,282.426407 Z M409.320851,288.083261 L299.012193,398.391919 L270.727922,370.107648 L381.03658,259.79899 L409.320851,288.083261 Z M400.857864,366 C411.903559,366 420.857864,374.954305 420.857864,386 L420.857864,526 C420.857864,537.045695 411.903559,546 400.857864,546 C389.812169,546 380.857864,537.045695 380.857864,526 L380.857864,386 C380.857864,374.954305 389.812169,366 400.857864,366 Z M258,411.119841 L265.071068,375.764502 L293.355339,404.048773 L258,411.119841 Z" id="Arrow" fill="#FFFFFF"/>
        <path d="M392.829255,118.184594 C245.662892,123.535142 128,244.526751 128,393 C128,544.878306 251.121694,668 403,668 C551.473249,668 672.464858,550.337108 677.815406,403.170745 M392.829255,118.184594 Z" id="Red-C" stroke="#FF324A" stroke-width="50" transform="translate(403.000000, 393.000000) rotate(45.000000) translate(-403.000000, -393.000000) "/>
    </g>
</svg>