<svg width="536" height="536" viewBox="0 0 536 536" fill="none" xmlns="http://www.w3.org/2000/svg">
<path d="M231.304 260.304C231.304 269.2 238.536 274.768 250.056 274.768C261.576 274.768 268.872 269.136 268.872 260.24C268.872 254.736 265.864 250.256 261.128 248.464C265.032 246.736 267.144 243.344 267.144 238.928C267.144 230.992 260.36 225.744 250.184 225.744C240.008 225.744 233.032 231.056 233.032 238.8C233.032 243.216 235.08 246.544 238.856 248.4C234.248 250.256 231.304 254.8 231.304 260.304ZM242.376 239.824C242.376 236.56 245.32 234.512 249.992 234.512C254.664 234.512 257.608 236.56 257.608 239.824C257.608 243.024 254.664 245.008 249.992 245.008C245.32 245.008 242.376 243.024 242.376 239.824ZM241.48 259.6C241.48 255.76 244.744 253.456 250.056 253.456C255.368 253.456 258.632 255.76 258.632 259.6C258.632 263.44 255.432 265.68 250.056 265.68C244.68 265.68 241.48 263.44 241.48 259.6ZM288.58 251.728C294.148 251.728 296.324 254.928 296.324 258.704C296.324 262.928 293.572 265.68 289.54 265.68C285.38 265.68 282.564 263.184 282.564 258.512H272.324C272.324 269.2 280.068 274.832 289.284 274.832C298.884 274.832 306.948 268.752 306.948 258.768C306.948 250.704 301.764 245.584 295.364 243.664L305.348 234.896V226.64H274.5V235.728H292.356L282.052 244.752C281.924 244.88 281.796 244.944 281.668 245.072V251.728H288.58Z" fill="white"/>
<path opacity="0.8" d="M217.648 313V305.584C217.648 303.16 217.6 301.384 217.48 300.544L222.52 313H224.728L229.792 300.496C229.672 301.72 229.648 302.896 229.648 306.136V313H231.952V295.648H229.6L223.624 310.24L217.648 295.648H215.344V313H217.648ZM240.672 313.288C243.576 313.288 245.544 311.872 246.12 309.352H244.008C243.624 310.696 242.472 311.416 240.72 311.416C238.488 311.416 237.192 310.048 237.024 307.576L246.096 307.552V306.712C246.096 303.232 243.912 300.928 240.576 300.928C237.168 300.928 234.84 303.472 234.84 307.144C234.84 310.792 237.216 313.288 240.672 313.288ZM240.576 302.824C242.568 302.824 243.84 304.12 243.84 306.064H237.072C237.36 304 238.608 302.824 240.576 302.824ZM250.872 313V306.04C250.872 304.168 252 302.992 253.704 302.992C255.288 302.992 256.296 304 256.296 305.848V313H258.528V306.04C258.528 304.168 259.656 302.968 261.36 302.968C262.944 302.968 263.976 304.024 263.976 305.872V313H266.184V305.32C266.184 302.608 264.552 300.928 261.864 300.928C260.04 300.928 258.624 301.84 258.072 303.304C257.472 301.84 256.176 300.928 254.352 300.928C252.696 300.928 251.448 301.696 250.848 302.8L250.632 301.264H248.616V313H250.872ZM271.352 313L271.52 310.864C272.288 312.472 273.848 313.288 275.696 313.288C279.104 313.288 281.216 310.744 281.216 307.192C281.216 303.568 279.2 300.928 275.84 300.928C273.92 300.928 272.336 301.744 271.568 303.28V295.336H269.312V313H271.352ZM271.592 307.096C271.592 304.696 272.984 302.968 275.288 302.968C277.592 302.968 278.96 304.696 278.96 307.096C278.96 309.52 277.592 311.248 275.288 311.248C272.984 311.248 271.592 309.544 271.592 307.096ZM288.766 313.288C291.67 313.288 293.638 311.872 294.214 309.352H292.102C291.718 310.696 290.566 311.416 288.814 311.416C286.582 311.416 285.286 310.048 285.118 307.576L294.19 307.552V306.712C294.19 303.232 292.006 300.928 288.67 300.928C285.262 300.928 282.934 303.472 282.934 307.144C282.934 310.792 285.31 313.288 288.766 313.288ZM288.67 302.824C290.662 302.824 291.934 304.12 291.934 306.064H285.166C285.454 304 286.702 302.824 288.67 302.824ZM303.43 301.168C302.974 301.072 302.638 301.024 302.23 301.024C300.622 301.024 299.446 301.84 298.966 303.064L298.822 301.288H296.71V313H298.966V306.784C298.966 304.528 300.286 303.232 302.422 303.232H303.43V301.168ZM304.586 309.592C304.586 311.824 306.338 313.288 309.098 313.288C311.882 313.288 313.802 311.872 313.802 309.64C313.802 307.888 312.818 306.976 310.826 306.496L308.762 305.992C307.61 305.704 307.034 305.176 307.034 304.384C307.034 303.304 307.826 302.68 309.242 302.68C310.61 302.68 311.402 303.424 311.45 304.6H313.61C313.562 302.368 311.882 300.928 309.314 300.928C306.722 300.928 304.898 302.296 304.898 304.456C304.898 306.184 305.882 307.216 307.97 307.72L310.034 308.2C311.258 308.512 311.642 308.992 311.642 309.784C311.642 310.864 310.73 311.512 309.146 311.512C307.658 311.512 306.746 310.792 306.746 309.592H304.586Z" fill="#FEFDEF"/>
<path d="M167.547 428.664C204.401 451.686 248.047 461.342 291.173 456.015C334.299 450.688 374.284 430.702 404.429 399.405C434.573 368.108 453.046 327.402 456.752 284.107C460.458 240.811 449.172 197.558 424.785 161.593L377.732 193.498C394.803 218.674 402.704 248.951 400.109 279.258C397.515 309.565 384.584 338.059 363.483 359.967C342.382 381.875 314.392 395.865 284.204 399.594C254.016 403.323 223.463 396.563 197.666 380.448L167.547 428.664Z" fill="#FF4C4C"/>
<path d="M266.234 78.4513C217.831 78.8877 171.43 97.8297 136.551 131.391L175.968 172.357C200.384 148.864 232.864 135.604 266.746 135.299L266.234 78.4513Z" fill="#484848"/>
<path d="M136.573 131.371C119.302 147.984 105.339 167.722 95.4236 189.539L147.179 213.06C154.12 197.789 163.894 183.972 175.984 172.343L136.573 131.371Z" fill="#B7B7B7"/>
<path d="M95.4166 189.555C85.1224 212.211 79.3915 236.673 78.5511 261.545C77.7107 286.416 81.7773 311.209 90.5188 334.509C99.2602 357.809 112.505 379.158 129.498 397.339C146.49 415.52 166.897 430.176 189.554 440.47L213.07 388.713C197.211 381.507 182.926 371.247 171.031 358.521C159.137 345.794 149.865 330.849 143.746 314.54C137.627 298.23 134.78 280.874 135.369 263.465C135.957 246.055 139.969 228.931 147.175 213.072L95.4166 189.555Z" fill="white"/>
<path d="M424.746 161.536C407.207 135.692 383.552 114.583 355.885 100.088C328.218 85.5929 297.397 78.1614 266.165 78.4544L266.698 135.302C288.561 135.097 310.135 140.299 329.502 150.445C348.869 160.592 365.428 175.368 377.705 193.459L424.746 161.536Z" fill="#FFBCBC"/>
<path d="M107.124 327.98V325.6H101.044L103.684 323.34C105.904 321.44 107.024 319.9 107.024 317.86C107.024 314.9 105.084 313.12 101.964 313.12C98.8644 313.12 96.8244 315.2 96.8044 318.4H99.3444C99.3644 316.52 100.364 315.4 101.964 315.4C103.504 315.4 104.404 316.34 104.404 318C104.404 319.4 103.744 320.36 101.764 322.04L96.9844 326.08V328L107.124 327.98ZM119.038 327.98V325.6H112.958L115.598 323.34C117.818 321.44 118.938 319.9 118.938 317.86C118.938 314.9 116.998 313.12 113.878 313.12C110.778 313.12 108.738 315.2 108.718 318.4H111.258C111.278 316.52 112.278 315.4 113.878 315.4C115.418 315.4 116.318 316.34 116.318 318C116.318 319.4 115.658 320.36 113.678 322.04L108.898 326.08V328L119.038 327.98ZM128.076 316.94C128.076 314.7 126.476 313.1 124.256 313.1C122.036 313.1 120.436 314.7 120.436 316.94C120.436 319.2 122.036 320.78 124.256 320.78C126.476 320.78 128.076 319.2 128.076 316.94ZM136.096 313.4H133.656L122.556 328H124.996L136.096 313.4ZM126.136 316.94C126.136 318.1 125.376 318.9 124.256 318.9C123.156 318.9 122.396 318.1 122.396 316.94C122.396 315.78 123.136 314.98 124.256 314.98C125.376 314.98 126.136 315.78 126.136 316.94ZM138.236 324.42C138.236 322.18 136.656 320.58 134.436 320.58C132.196 320.58 130.616 322.18 130.616 324.42C130.616 326.66 132.196 328.26 134.436 328.26C136.656 328.26 138.236 326.66 138.236 324.42ZM136.296 324.42C136.296 325.58 135.536 326.38 134.436 326.38C133.316 326.38 132.556 325.58 132.556 324.42C132.556 323.26 133.316 322.46 134.436 322.46C135.536 322.46 136.296 323.26 136.296 324.42Z" fill="black"/>
<path d="M393.354 362.498V360.482H391.752V351.842H388.854L382.896 360.482V362.498H389.574V365H391.752V362.498H393.354ZM385.344 360.482L389.574 354.326V360.482H385.344ZM398.761 358.484C400.597 358.484 401.461 359.456 401.461 360.788C401.461 362.246 400.507 363.182 399.067 363.182C397.663 363.182 396.727 362.318 396.727 360.806H394.459C394.459 363.65 396.457 365.234 399.031 365.234C401.695 365.234 403.801 363.524 403.801 360.824C403.801 358.502 402.235 357.026 400.219 356.63L403.423 353.678V351.842H395.071V353.876H400.543L397.159 356.99V358.484H398.761ZM411.835 355.046C411.835 353.03 410.395 351.59 408.397 351.59C406.399 351.59 404.959 353.03 404.959 355.046C404.959 357.08 406.399 358.502 408.397 358.502C410.395 358.502 411.835 357.08 411.835 355.046ZM419.053 351.86H416.857L406.867 365H409.063L419.053 351.86ZM410.089 355.046C410.089 356.09 409.405 356.81 408.397 356.81C407.407 356.81 406.723 356.09 406.723 355.046C406.723 354.002 407.389 353.282 408.397 353.282C409.405 353.282 410.089 354.002 410.089 355.046ZM420.979 361.778C420.979 359.762 419.557 358.322 417.559 358.322C415.543 358.322 414.121 359.762 414.121 361.778C414.121 363.794 415.543 365.234 417.559 365.234C419.557 365.234 420.979 363.794 420.979 361.778ZM419.233 361.778C419.233 362.822 418.549 363.542 417.559 363.542C416.551 363.542 415.867 362.822 415.867 361.778C415.867 360.734 416.551 360.014 417.559 360.014C418.549 360.014 419.233 360.734 419.233 361.778Z" fill="white"/>
<path d="M328.94 122.912V134H331.154V120.842H326.06V122.912H328.94ZM337.807 134.216C340.741 134.216 342.739 132.272 342.739 129.428C342.739 126.836 340.993 125.054 338.365 125.054C337.465 125.054 336.673 125.288 336.043 125.702L336.745 122.966H341.947V120.842H335.089L333.469 127.736L335.503 128.168C335.971 127.484 336.889 126.98 337.897 126.98C339.481 126.98 340.399 128.024 340.399 129.554C340.399 131.156 339.409 132.164 337.861 132.164C336.403 132.164 335.521 131.282 335.521 129.788H333.235C333.235 132.452 335.053 134.216 337.807 134.216ZM350.778 124.046C350.778 122.03 349.338 120.59 347.34 120.59C345.342 120.59 343.902 122.03 343.902 124.046C343.902 126.08 345.342 127.502 347.34 127.502C349.338 127.502 350.778 126.08 350.778 124.046ZM357.996 120.86H355.8L345.81 134H348.006L357.996 120.86ZM349.032 124.046C349.032 125.09 348.348 125.81 347.34 125.81C346.35 125.81 345.666 125.09 345.666 124.046C345.666 123.002 346.332 122.282 347.34 122.282C348.348 122.282 349.032 123.002 349.032 124.046ZM359.922 130.778C359.922 128.762 358.5 127.322 356.502 127.322C354.486 127.322 353.064 128.762 353.064 130.778C353.064 132.794 354.486 134.234 356.502 134.234C358.5 134.234 359.922 132.794 359.922 130.778ZM358.176 130.778C358.176 131.822 357.492 132.542 356.502 132.542C355.494 132.542 354.81 131.822 354.81 130.778C354.81 129.734 355.494 129.014 356.502 129.014C357.492 129.014 358.176 129.734 358.176 130.778Z" fill="black"/>
<path d="M194.975 118.912V130H197.189V116.842H192.095V118.912H194.975ZM208.609 129.982V127.84H203.137L205.513 125.806C207.511 124.096 208.519 122.71 208.519 120.874C208.519 118.21 206.773 116.608 203.965 116.608C201.175 116.608 199.339 118.48 199.321 121.36H201.607C201.625 119.668 202.525 118.66 203.965 118.66C205.351 118.66 206.161 119.506 206.161 121C206.161 122.26 205.567 123.124 203.785 124.636L199.483 128.272V130L208.609 129.982ZM216.743 120.046C216.743 118.03 215.303 116.59 213.305 116.59C211.307 116.59 209.867 118.03 209.867 120.046C209.867 122.08 211.307 123.502 213.305 123.502C215.303 123.502 216.743 122.08 216.743 120.046ZM223.961 116.86H221.765L211.775 130H213.971L223.961 116.86ZM214.997 120.046C214.997 121.09 214.313 121.81 213.305 121.81C212.315 121.81 211.631 121.09 211.631 120.046C211.631 119.002 212.297 118.282 213.305 118.282C214.313 118.282 214.997 119.002 214.997 120.046ZM225.887 126.778C225.887 124.762 224.465 123.322 222.467 123.322C220.451 123.322 219.029 124.762 219.029 126.778C219.029 128.794 220.451 130.234 222.467 130.234C224.465 130.234 225.887 128.794 225.887 126.778ZM224.141 126.778C224.141 127.822 223.457 128.542 222.467 128.542C221.459 128.542 220.775 127.822 220.775 126.778C220.775 125.734 221.459 125.014 222.467 125.014C223.457 125.014 224.141 125.734 224.141 126.778Z" fill="white"/>
<path d="M127.934 173.712C126.458 175.71 125.936 176.862 125.936 178.446C125.936 181.146 128.06 183.234 130.904 183.234C133.712 183.234 135.8 181.272 135.8 178.464C135.8 175.8 133.964 173.892 131.246 173.892C130.922 173.892 130.58 173.946 130.256 174.036L133.406 169.842H130.778L127.934 173.712ZM128.294 178.464C128.294 176.88 129.338 175.782 130.904 175.782C132.416 175.782 133.478 176.88 133.478 178.464C133.478 180.066 132.398 181.182 130.904 181.182C129.356 181.182 128.294 180.066 128.294 178.464ZM143.938 173.046C143.938 171.03 142.498 169.59 140.5 169.59C138.502 169.59 137.062 171.03 137.062 173.046C137.062 175.08 138.502 176.502 140.5 176.502C142.498 176.502 143.938 175.08 143.938 173.046ZM151.156 169.86H148.96L138.97 183H141.166L151.156 169.86ZM142.192 173.046C142.192 174.09 141.508 174.81 140.5 174.81C139.51 174.81 138.826 174.09 138.826 173.046C138.826 172.002 139.492 171.282 140.5 171.282C141.508 171.282 142.192 172.002 142.192 173.046ZM153.082 179.778C153.082 177.762 151.66 176.322 149.662 176.322C147.646 176.322 146.224 177.762 146.224 179.778C146.224 181.794 147.646 183.234 149.662 183.234C151.66 183.234 153.082 181.794 153.082 179.778ZM151.336 179.778C151.336 180.822 150.652 181.542 149.662 181.542C148.654 181.542 147.97 180.822 147.97 179.778C147.97 178.734 148.654 178.014 149.662 178.014C150.652 178.014 151.336 178.734 151.336 179.778Z" fill="black"/>
</svg>
