<svg width="232" height="391" viewBox="0 0 232 391" fill="none" xmlns="http://www.w3.org/2000/svg">
<path d="M63 229.998C64.8564 228.926 67.1436 228.926 69 229.998L93.3109 244.034C95.1673 245.105 96.3109 247.086 96.3109 249.23V277.302C96.3109 279.445 95.1673 281.426 93.3109 282.498L69 296.534C67.1436 297.605 64.8564 297.605 63 296.534L38.6891 282.498C36.8327 281.426 35.6891 279.445 35.6891 277.302V249.23C35.6891 247.086 36.8327 245.105 38.6891 244.034L63 229.998Z" fill="#FEFDEF"/>
<path d="M75.8264 102.896C77.7778 102.009 80.0543 102.23 81.7982 103.477L94.624 112.644C96.368 113.89 97.3144 115.972 97.1069 118.106L95.5809 133.797C95.3734 135.93 94.0435 137.791 92.092 138.678L77.7402 145.202C75.7888 146.089 73.5123 145.868 71.7684 144.621L58.9426 135.454C57.1987 134.208 56.2522 132.126 56.4597 129.992L57.9857 114.301C58.1932 112.168 59.5232 110.307 61.4746 109.42L75.8264 102.896Z" fill="#39414D"/>
<path d="M195.75 325.029C196.524 324.582 197.476 324.582 198.25 325.029L222.561 339.065C223.334 339.511 223.811 340.337 223.811 341.23V369.302C223.811 370.195 223.334 371.02 222.561 371.467L198.25 385.502C197.476 385.949 196.524 385.949 195.75 385.502L171.439 371.467C170.666 371.02 170.189 370.195 170.189 369.302V341.23C170.189 340.337 170.666 339.511 171.439 339.065L195.75 325.029Z" stroke="#FE6D6D" stroke-width="7"/>
<path d="M9 3.72973C10.2376 3.0152 11.7624 3.0152 13 3.72973L25.1865 10.7656C26.4241 11.4802 27.1865 12.8007 27.1865 14.2297V28.3015C27.1865 29.7306 26.4241 31.0511 25.1865 31.7656L13 38.8015C11.7624 39.5161 10.2376 39.5161 9 38.8015L-3.18653 31.7656C-4.42414 31.0511 -5.18653 29.7306 -5.18653 28.3015V14.2297C-5.18653 12.8007 -4.42414 11.4802 -3.18653 10.7656L9 3.72973Z" stroke="#FE6D6D" stroke-width="4"/>
<circle cx="101.486" cy="288.753" r="2.5" transform="rotate(-54.6253 101.486 288.753)" fill="#D9D9D9"/>
<circle cx="117.793" cy="300.331" r="2.5" transform="rotate(-54.6253 117.793 300.331)" fill="#D9D9D9"/>
<circle cx="125.947" cy="306.12" r="2.5" transform="rotate(-54.6253 125.947 306.12)" fill="#D9D9D9"/>
<circle cx="109.64" cy="294.542" r="2.5" transform="rotate(-54.6253 109.64 294.542)" fill="#D9D9D9"/>
<circle cx="134.101" cy="311.909" r="2.5" transform="rotate(-54.6253 134.101 311.909)" fill="#D9D9D9"/>
<circle cx="150.409" cy="323.487" r="2.5" transform="rotate(-54.6253 150.409 323.487)" fill="#D9D9D9"/>
<circle cx="158.563" cy="329.278" r="2.5" transform="rotate(-54.6253 158.563 329.278)" fill="#D9D9D9"/>
<circle cx="142.255" cy="317.698" r="2.5" transform="rotate(-54.6253 142.255 317.698)" fill="#D9D9D9"/>
<circle cx="72.1276" cy="151.92" r="2.5" transform="rotate(3.66368 72.1276 151.92)" fill="#D9D9D9"/>
<circle cx="70.8495" cy="171.879" r="2.5" transform="rotate(3.66368 70.8495 171.879)" fill="#D9D9D9"/>
<circle cx="70.2106" cy="181.86" r="2.5" transform="rotate(3.66368 70.2106 181.86)" fill="#D9D9D9"/>
<circle cx="71.4887" cy="161.901" r="2.5" transform="rotate(3.66368 71.4887 161.901)" fill="#D9D9D9"/>
<circle cx="69.5717" cy="191.838" r="2.5" transform="rotate(3.66368 69.5717 191.838)" fill="#D9D9D9"/>
<circle cx="68.2936" cy="211.797" r="2.5" transform="rotate(3.66368 68.2936 211.797)" fill="#D9D9D9"/>
<circle cx="67.6547" cy="221.778" r="2.5" transform="rotate(3.66368 67.6547 221.778)" fill="#D9D9D9"/>
<circle cx="68.9326" cy="201.819" r="2.5" transform="rotate(3.66368 68.9326 201.819)" fill="#D9D9D9"/>
<circle cx="26.432" cy="42.6972" r="2.5" transform="rotate(-31.097 26.432 42.6972)" fill="#D9D9D9"/>
<circle cx="36.7618" cy="59.8222" r="2.5" transform="rotate(-31.097 36.7618 59.8222)" fill="#D9D9D9"/>
<circle cx="41.9266" cy="68.3866" r="2.5" transform="rotate(-31.097 41.9266 68.3866)" fill="#D9D9D9"/>
<circle cx="31.5968" cy="51.2597" r="2.5" transform="rotate(-31.097 31.5968 51.2597)" fill="#D9D9D9"/>
<circle cx="47.0914" cy="76.9491" r="2.5" transform="rotate(-31.097 47.0914 76.9491)" fill="#D9D9D9"/>
<circle cx="57.4212" cy="94.0741" r="2.5" transform="rotate(-31.097 57.4212 94.0741)" fill="#D9D9D9"/>
<circle cx="62.5863" cy="102.639" r="2.5" transform="rotate(-31.097 62.5863 102.639)" fill="#D9D9D9"/>
<circle cx="52.2564" cy="85.5116" r="2.5" transform="rotate(-31.097 52.2564 85.5116)" fill="#D9D9D9"/>
<circle cx="3.101" cy="221.909" r="2.5" transform="rotate(-54.6253 3.101 221.909)" fill="#D9D9D9"/>
<circle cx="19.4089" cy="233.487" r="2.5" transform="rotate(-54.6253 19.4089 233.487)" fill="#D9D9D9"/>
<circle cx="27.5627" cy="239.278" r="2.5" transform="rotate(-54.6253 27.5627 239.278)" fill="#D9D9D9"/>
<circle cx="11.2548" cy="227.698" r="2.5" transform="rotate(-54.6253 11.2548 227.698)" fill="#D9D9D9"/>
<circle cx="3.0974" cy="148.262" r="2.5" transform="rotate(-115.639 3.0974 148.262)" fill="#D9D9D9"/>
<circle cx="21.1282" cy="139.61" r="2.5" transform="rotate(-115.639 21.1282 139.61)" fill="#D9D9D9"/>
<circle cx="30.1435" cy="135.282" r="2.5" transform="rotate(-115.639 30.1435 135.282)" fill="#D9D9D9"/>
<circle cx="12.1128" cy="143.936" r="2.5" transform="rotate(-115.639 12.1128 143.936)" fill="#D9D9D9"/>
<circle cx="40.3357" cy="129.891" r="2.5" transform="rotate(-115.639 40.3357 129.891)" fill="#D9D9D9"/>
<circle cx="49.3511" cy="125.565" r="2.5" transform="rotate(-115.639 49.3511 125.565)" fill="#D9D9D9"/>
<circle cx="88.5223" cy="361.623" r="2.5" transform="rotate(-97.2424 88.5223 361.623)" fill="#D9D9D9"/>
<circle cx="108.363" cy="359.101" r="2.5" transform="rotate(-97.2424 108.363 359.101)" fill="#D9D9D9"/>
<circle cx="118.283" cy="357.841" r="2.5" transform="rotate(-97.2424 118.283 357.841)" fill="#D9D9D9"/>
<circle cx="98.4425" cy="360.363" r="2.5" transform="rotate(-97.2424 98.4425 360.363)" fill="#D9D9D9"/>
<circle cx="128.203" cy="356.58" r="2.5" transform="rotate(-97.2424 128.203 356.58)" fill="#D9D9D9"/>
<circle cx="148.044" cy="354.058" r="2.5" transform="rotate(-97.2424 148.044 354.058)" fill="#D9D9D9"/>
<circle cx="157.964" cy="352.799" r="2.5" transform="rotate(-97.2424 157.964 352.799)" fill="#D9D9D9"/>
<circle cx="138.123" cy="355.32" r="2.5" transform="rotate(-97.2424 138.123 355.32)" fill="#D9D9D9"/>
<circle cx="68.3165" cy="364.322" r="2.5" transform="rotate(-97.2424 68.3165 364.322)" fill="#D9D9D9"/>
<circle cx="78.2367" cy="363.06" r="2.5" transform="rotate(-97.2424 78.2367 363.06)" fill="#D9D9D9"/>
<circle cx="58.3963" cy="365.582" r="2.5" transform="rotate(-97.2424 58.3963 365.582)" fill="#D9D9D9"/>
<circle cx="35.5" cy="370.766" r="13" stroke="#FEFDEF" stroke-width="5"/>
</svg>
