<svg width="252" height="425" viewBox="0 0 252 425" fill="none" xmlns="http://www.w3.org/2000/svg">
<path d="M188.45 175.285C186.744 176.583 184.475 176.872 182.498 176.043L156.609 165.192C154.632 164.363 153.247 162.543 152.976 160.417L149.428 132.57C149.158 130.443 150.042 128.334 151.748 127.036L174.09 110.041C175.796 108.743 178.065 108.454 180.042 109.282L205.932 120.133C207.909 120.962 209.293 122.782 209.564 124.909L213.112 152.756C213.383 154.882 212.499 156.991 210.792 158.289L188.45 175.285Z" fill="#FEFDEF"/>
<path d="M191.789 302.99C189.965 304.116 187.679 304.184 185.792 303.168L171.91 295.695C170.023 294.679 168.821 292.733 168.757 290.591L168.288 274.833C168.224 272.69 169.308 270.676 171.132 269.55L184.544 261.264C186.368 260.138 188.654 260.07 190.542 261.086L204.423 268.558C206.31 269.575 207.512 271.52 207.576 273.663L208.045 289.421C208.109 291.564 207.025 293.578 205.201 294.704L191.789 302.99Z" fill="#39414D"/>
<path d="M44.7551 97.7921C44.0442 98.3329 43.0989 98.4533 42.2751 98.1081L16.3854 87.257C15.5616 86.9117 14.9846 86.1533 14.8718 85.2673L11.3242 57.4205C11.2113 56.5345 11.5797 55.6556 12.2906 55.1149L34.6328 38.1192C35.3436 37.5785 36.289 37.458 37.1127 37.8033L63.0025 48.6544C63.8262 48.9996 64.4032 49.7581 64.5161 50.6441L68.0636 78.4908C68.1765 79.3768 67.8081 80.2557 67.0973 80.7965L44.7551 97.7921Z" stroke="#FE6D6D" stroke-width="7"/>
<path d="M270.612 392.914C269.474 393.779 267.962 393.972 266.644 393.42L253.666 387.98C252.348 387.428 251.425 386.214 251.244 384.797L249.466 370.838C249.285 369.42 249.875 368.014 251.012 367.148L262.212 358.629C263.349 357.764 264.862 357.571 266.18 358.123L279.158 363.563C280.476 364.115 281.399 365.329 281.579 366.746L283.358 380.705C283.538 382.123 282.949 383.529 281.811 384.394L270.612 392.914Z" stroke="#FE6D6D" stroke-width="4"/>
<circle cx="142.848" cy="121.867" r="2.5" transform="rotate(118.115 142.848 121.867)" fill="#D9D9D9"/>
<circle cx="125.208" cy="112.443" r="2.5" transform="rotate(118.115 125.208 112.443)" fill="#D9D9D9"/>
<circle cx="116.388" cy="107.73" r="2.5" transform="rotate(118.115 116.388 107.73)" fill="#D9D9D9"/>
<circle cx="134.028" cy="117.154" r="2.5" transform="rotate(118.115 134.028 117.154)" fill="#D9D9D9"/>
<circle cx="107.568" cy="103.017" r="2.5" transform="rotate(118.115 107.568 103.017)" fill="#D9D9D9"/>
<circle cx="89.9274" cy="93.5933" r="2.5" transform="rotate(118.115 89.9274 93.5933)" fill="#D9D9D9"/>
<circle cx="81.1074" cy="88.8804" r="2.5" transform="rotate(118.115 81.1074 88.8804)" fill="#D9D9D9"/>
<circle cx="98.7475" cy="98.3043" r="2.5" transform="rotate(118.115 98.7475 98.3043)" fill="#D9D9D9"/>
<circle cx="189.263" cy="253.89" r="2.5" transform="rotate(176.404 189.263 253.89)" fill="#D9D9D9"/>
<circle cx="188.008" cy="233.929" r="2.5" transform="rotate(176.404 188.008 233.929)" fill="#D9D9D9"/>
<circle cx="187.381" cy="223.949" r="2.5" transform="rotate(176.404 187.381 223.949)" fill="#D9D9D9"/>
<circle cx="188.635" cy="243.91" r="2.5" transform="rotate(176.404 188.635 243.91)" fill="#D9D9D9"/>
<circle cx="186.753" cy="213.968" r="2.5" transform="rotate(176.404 186.753 213.968)" fill="#D9D9D9"/>
<circle cx="185.499" cy="194.007" r="2.5" transform="rotate(176.404 185.499 194.007)" fill="#D9D9D9"/>
<circle cx="184.872" cy="184.029" r="2.5" transform="rotate(176.404 184.872 184.029)" fill="#D9D9D9"/>
<circle cx="186.126" cy="203.988" r="2.5" transform="rotate(176.404 186.126 203.988)" fill="#D9D9D9"/>
<circle cx="248.395" cy="356.462" r="2.5" transform="rotate(141.643 248.395 356.462)" fill="#D9D9D9"/>
<circle cx="235.984" cy="340.779" r="2.5" transform="rotate(141.643 235.984 340.779)" fill="#D9D9D9"/>
<circle cx="229.778" cy="332.937" r="2.5" transform="rotate(141.643 229.778 332.937)" fill="#D9D9D9"/>
<circle cx="242.19" cy="348.62" r="2.5" transform="rotate(141.643 242.19 348.62)" fill="#D9D9D9"/>
<circle cx="223.573" cy="325.095" r="2.5" transform="rotate(141.643 223.573 325.095)" fill="#D9D9D9"/>
<circle cx="211.162" cy="309.413" r="2.5" transform="rotate(141.643 211.162 309.413)" fill="#D9D9D9"/>
<circle cx="204.956" cy="301.571" r="2.5" transform="rotate(141.643 204.956 301.571)" fill="#D9D9D9"/>
<circle cx="217.367" cy="317.255" r="2.5" transform="rotate(141.643 217.367 317.255)" fill="#D9D9D9"/>
<circle cx="248.891" cy="175.74" r="2.5" transform="rotate(118.115 248.891 175.74)" fill="#D9D9D9"/>
<circle cx="231.251" cy="166.316" r="2.5" transform="rotate(118.115 231.251 166.316)" fill="#D9D9D9"/>
<circle cx="222.431" cy="161.603" r="2.5" transform="rotate(118.115 222.431 161.603)" fill="#D9D9D9"/>
<circle cx="240.071" cy="171.027" r="2.5" transform="rotate(118.115 240.071 171.027)" fill="#D9D9D9"/>
<circle cx="241.409" cy="259.658" r="2.5" transform="rotate(57.101 241.409 259.658)" fill="#D9D9D9"/>
<circle cx="233.013" cy="265.09" r="2.5" transform="rotate(57.101 233.013 265.09)" fill="#D9D9D9"/>
<circle cx="249.805" cy="254.227" r="2.5" transform="rotate(57.101 249.805 254.227)" fill="#D9D9D9"/>
<circle cx="223.584" cy="271.727" r="2.5" transform="rotate(57.101 223.584 271.727)" fill="#D9D9D9"/>
<circle cx="215.188" cy="277.158" r="2.5" transform="rotate(57.101 215.188 277.158)" fill="#D9D9D9"/>
<circle cx="146.498" cy="47.9409" r="2.5" transform="rotate(75.4974 146.498 47.9409)" fill="#D9D9D9"/>
<circle cx="127.136" cy="52.9497" r="2.5" transform="rotate(75.4974 127.136 52.9497)" fill="#D9D9D9"/>
<circle cx="117.454" cy="55.4536" r="2.5" transform="rotate(75.4974 117.454 55.4536)" fill="#D9D9D9"/>
<circle cx="136.817" cy="50.4448" r="2.5" transform="rotate(75.4974 136.817 50.4448)" fill="#D9D9D9"/>
<circle cx="107.773" cy="57.9575" r="2.5" transform="rotate(75.4974 107.773 57.9575)" fill="#D9D9D9"/>
<circle cx="88.4103" cy="62.9663" r="2.5" transform="rotate(75.4974 88.4103 62.9663)" fill="#D9D9D9"/>
<circle cx="78.7289" cy="65.4702" r="2.5" transform="rotate(75.4974 78.7289 65.4702)" fill="#D9D9D9"/>
<circle cx="98.0917" cy="60.4624" r="2.5" transform="rotate(75.4974 98.0917 60.4624)" fill="#D9D9D9"/>
<circle cx="166.201" cy="42.7105" r="2.5" transform="rotate(75.4974 166.201 42.7105)" fill="#D9D9D9"/>
<circle cx="156.52" cy="45.2153" r="2.5" transform="rotate(75.4974 156.52 45.2153)" fill="#D9D9D9"/>
<circle cx="175.882" cy="40.2066" r="2.5" transform="rotate(75.4974 175.882 40.2066)" fill="#D9D9D9"/>
<circle cx="197.94" cy="32.171" r="13" transform="rotate(172.74 197.94 32.171)" stroke="#FEFDEF" stroke-width="5"/>
</svg>
