<svg width="46" height="58" viewBox="0 0 46 58" fill="none" xmlns="http://www.w3.org/2000/svg">
<g clip-path="url(#clip0_1334_4829)">
<path d="M6.15186 5.5L23.0867 32.7609L40.0215 5.5" stroke="#2E2E2E" stroke-width="10" stroke-linecap="round"/>
<path d="M23.4995 57.5435C33.9929 57.5435 42.4995 49.0369 42.4995 38.5435C42.4995 28.05 33.9929 19.5435 23.4995 19.5435C13.0061 19.5435 4.49951 28.05 4.49951 38.5435C4.49951 49.0369 13.0061 57.5435 23.4995 57.5435Z" fill="#B7854B"/>
<path d="M23.4995 51.5C30.6792 51.5 36.4995 45.6797 36.4995 38.5C36.4995 31.3203 30.6792 25.5 23.4995 25.5C16.3198 25.5 10.4995 31.3203 10.4995 38.5C10.4995 45.6797 16.3198 51.5 23.4995 51.5Z" fill="#AC773A"/>
<mask id="mask0_1334_4829" style="mask-type:alpha" maskUnits="userSpaceOnUse" x="4" y="19" width="39" height="39">
<path d="M23.4995 57.5435C33.9929 57.5435 42.4995 49.0369 42.4995 38.5435C42.4995 28.05 33.9929 19.5435 23.4995 19.5435C13.0061 19.5435 4.49951 28.05 4.49951 38.5435C4.49951 49.0369 13.0061 57.5435 23.4995 57.5435Z" fill="#B7854B"/>
<path d="M23.4995 51.5C30.6792 51.5 36.4995 45.6797 36.4995 38.5C36.4995 31.3203 30.6792 25.5 23.4995 25.5C16.3198 25.5 10.4995 31.3203 10.4995 38.5C10.4995 45.6797 16.3198 51.5 23.4995 51.5Z" fill="#AC773A"/>
</mask>
<g mask="url(#mask0_1334_4829)">
<path opacity="0.2" d="M21.4487 17.1069L45.4487 52.1069" stroke="white" stroke-width="12"/>
</g>
</g>
<defs>
<clipPath id="clip0_1334_4829">
<rect width="45" height="57" fill="white" transform="translate(0.499512 0.5)"/>
</clipPath>
</defs>
</svg>
